<?xml version="1.0" encoding="utf-8"?>
<!-- Generator: Adobe Illustrator 18.1.1, SVG Export Plug-In . SVG Version: 6.00 Build 0)  -->
<!DOCTYPE svg PUBLIC "-//W3C//DTD SVG 1.1//EN" "http://www.w3.org/Graphics/SVG/1.1/DTD/svg11.dtd">
<svg version="1.1" id="XMLID_1_" xmlns="http://www.w3.org/2000/svg" xmlns:xlink="http://www.w3.org/1999/xlink" x="0px" y="0px"
	 viewBox="0 0 512 512" enable-background="new 0 0 512 512" xml:space="preserve">
<g id="Bata">
	<path fill-rule="evenodd" clip-rule="evenodd" fill="#404065" d="M79.655,276.6557c0,0,5.5221,6.8932,10.1112,6.8932
		c4.4262,0,7.1253-3.4705,8.1509-5.5297c1.0336-2.0511,19.4727-40.723,19.4727-40.723s0.8295-1.6294-0.5975-1.1088
		c-1.4258,0.5055-3.9905,1.4682-7.1253,3.5833c-3.1337,2.1151-7.3296,5.7827-7.3296,5.7827s-0.4851,0.4282-1.1669,0.092
		c-0.6887-0.345-3.6741-3.5909-3.6741-3.5909s-1.111-0.7458,0.0837-2.0307c1.1949-1.2791,11.5109-10.8221,28.0739-17.61
		c16.5629-6.788,26.1623-7.899,35.6913-7.899c9.1974,0,32.6629,5.1011,32.6629,19.1347c0,11.2229-17.0133,16.1564-17.0133,16.1564
		s7.1463,4.496,9.5214,10.0338c2.0796,4.8632,1.7852,6.9503,1.7852,8.8327c0,2.0465-1.4484,6.465-1.4484,6.465
		s-0.3223,1.7777,1.7079,1.7777c2.0231,0,3.9853-1.3472,4.8485-1.9452c0.8505-0.591,3.2267-1.9545,3.2267-1.9545
		s1.7626-5.6217,5.0934-10.6383c3.3315-5.0178,10.8076-11.9116,16.9295-14.7993c6.1347-2.8672,15.5443-5.692,22.5208-5.692
		c6.9863,0,12.7417,2.2483,14.111,3.3244c1.3711,1.0948,3.1837,2.3675,4.0137,2.3675c0.8354,0,1.6847-0.6183,2.0302-1.2727
		c0.3432-0.6596,1.4758-3.4775,2.5584-3.4775c1.089,0,2.5996,1.1106,5.9299,1.1106c3.3379,0,13.1769-1.8836,15.6561-1.8836
		c2.4734,0,4.3291,0.3654,4.3291,2.5572c0,2.1994-0.8283,2.9097-1.6857,4.8485c-0.8574,1.94-7.4342,16.4152-8.778,21.0119
		c-1.3413,4.5874-3.6182,11.5388-1.2495,11.5388c2.3605,0,7.4063-2.8748,9.8576-4.0766c2.4455-1.1867,6.6419-3.9265,9.1782-6.8072
		c2.5386-2.8748,6.3604-9.2433,6.9642-11.1257c0.5981-1.8743,2.3885-7.6593,2.3885-7.6593s-6.8292-0.858-7.2376-1.0192
		c-0.4072-0.1751-1.5171-0.7516-1.0041-2.1145c0.5119-1.3647,1.6859-4.1674,2.1989-4.8491
		c0.5131-0.6818,1.4753-1.3641,3.0761-1.5317c1.5974-0.182,4.7315-0.0919,5.5041-0.182c0.7656-0.0785,1.7928-0.0995,2.6422-1.4415
		c0.8586-1.3495,2.1232-3.6473,2.7201-4.1673c0.5957-0.5131,1.1657-1.5107,4.6653-2.1081
		c3.5135-0.6033,10.5138-2.6498,14.3076-5.5373c4.1674-3.1622,6.037-5.4605,6.9631-6.3802c1.196-1.1954,1.9323-2.798,4.5908-2.798
		c2.6479,0,3.752,1.5392,3.161,4.2528c-0.6038,2.7045-2.4804,6.443-3.0853,8.5797c-0.5969,2.1284-3.9638,8.4114-1.7638,8.4114
		c0,0,2.9097-0.1483,4.1604-1.0051c1.2565-0.8574,2.2838-1.5386,3.3099-1.5386c1.025,0,1.025,0.836,1.3705,2.193
		c0.3374,1.3687,0.8493,5.5291,0.8493,5.5291s0.6829,1.2856-1.11,2.1373c-1.7986,0.8562-5.1016,2.4652-7.7506,2.7957
		c-1.4555,0.1907-5.93,0.9492-6.443,1.4618c-0.5143,0.5131-3.5635,6.5838-5.7834,12.5859
		c-2.221,6.0218-4.0767,11.1315-4.1674,11.6376c-0.085,0.52-0.1907,2.5723,1.6009,1.9674
		c1.7928-0.5981,9.0024-3.3181,11.5677-5.1016c2.5642-1.7999,4.8481-3.9987,4.8481-3.9987s4.5955-9.7971,8.6721-14.0471
		c4.0684-4.2448,16.4984-13.7662,30.1814-13.7662c13.6817,0,19.5488,6.1347,20.3156,6.1347c0.7795,0,1.538-0.9702,2.0592-1.9678
		c0.5061-1.0047,2.1081-3.7387,3.8159-3.7387c1.7057,0,2.3665,0.858,3.9068,0.9418c1.5381,0.0843,12.8244-0.9418,15.0511-0.9418
		c2.2222,0,6.2127-0.2746,5.5251,3.7387c-0.6829,4.0125-5.7194,14.4682-6.8956,17.9538
		c-1.1716,3.4786-5.8182,14.6742-3.8218,15.2989c1.3636,0.4339,5.1923-1.9534,6.3872-2.7271
		c1.2029-0.7713,5.5529-4.4128,6.1288-5.1016c0.5688-0.6887,2.2768-2.1989,2.2768-2.1989s3.5694,3.3936,3.9917,3.8137
		c0.4282,0.4292,1.4054,1.8498,0,3.6566c-2.1081,2.7247-23.6325,20.0619-39.4445,20.0619c-10.8918,0-12.9151-6.5221-13.085-7.1259
		c-0.1756-0.6038,0.085-3.8428-0.5967-4.2663c-0.6888-0.4327-2.3675,0.676-3.4787,1.6241c0,0-13.0012,9.9367-24.6563,9.9367
		c-9.0955,0-13.1978-4.9258-14.7102-6.7175c-2.5363-3.0086-3.5066-8.1591-3.5066-8.1591s-3.731,1.7079-9.9425,4.8422
		c-8.2986,4.1941-17.5896,10.1194-28.3908,10.1194c-10.8919,0-12.4939-5.9253-12.4939-7.2877c0-1.3774-0.1687-5.7844-0.1687-5.7844
		s-19.5279,8.6872-23.7163,9.9437c-4.1812,1.2517-9.0299,2.4524-13.6195,2.4524c-4.5886,0-8.0875-2.1371-9.9426-4.7583
		c-1.8621-2.6329-2.0308-6.3022-2.9731-6.3022c-0.9336,0-8.1933,6.3383-12.7399,8.0962c-3.9208,1.5112-6.7461,2.9643-13.704,2.9643
		c0,0-8.1572-0.0907-13.765-4.6734c-5.621-4.5955-4.9619-8.5872-6.7321-9.0083c-1.7648-0.4352-3.1557,0.6189-4.4197,1.4484
		c-1.2519,0.8307-21.1242,11.8902-35.3475,11.8902c-14.2158,0-18.1017-4.0767-19.6409-5.0167
		c-1.5391-0.9343-6.1201-4.3302-6.1201-4.3302l3.3024-5.3529c0,0,0.5974-0.6841,1.2787-0.185
		c0.6881,0.5143,4.9404,2.9039,8.4189,2.9039c3.4781,0,6.7741-1.7579,8.9171-4.7583c2.1367-2.9796,7.3232-10.8221,7.3232-17.948
		c0-7.1324-4.6729-8.4953-5.784-8.6716c-1.1104-0.1681-5.7833-0.7654-5.7833-0.7654l2.0459-6.1278c0,0,6.2184-0.1751,10.9757-3.1342
		c4.7647-2.9656,8.4039-7.9061,8.4039-12.5789c0-4.6735-3.3233-8.1719-6.8019-8.1719c-3.478,0-8.1794,2.6765-10.6319,8.6081
		c-1.2436,2.9929-5.5931,13.8499-10.5266,25.2263c-5.0179,11.3078-10.8017,21.5168-10.8017,21.5168s-4.3559,9.0083-11.8268,13.4304
		c-7.4685,4.4128-13.8225,5.3553-17.6734,5.3553c-3.8369,0-12.1636-1.5462-17.7847-5.3553
		c-5.6088-3.8287-7.1259-5.5937-7.1259-7.9833c0-2.3897,1.089-3.9067,1.517-4.5048
		C77.9395,278.0191,79.655,276.6557,79.655,276.6557L79.655,276.6557z M229.0376,280.823
		c3.2675,2.2919,10.7727-0.4502,17.5059-9.3457c6.7374-8.9164,7.5244-16.7602,4.2435-19.0509
		c-3.2744-2.2832-11.2782,0.9557-18.0172,9.8657C226.0377,271.1956,225.7562,278.5403,229.0376,280.823L229.0376,280.823z
		 M375.2604,280.4775c3.2796,2.3,11.1164-0.4352,17.8561-9.3446c6.7385-8.9036,7.2167-15.8887,3.731-17.8491
		c-4.2314-2.3821-11.2794,0.9563-18.0178,9.86C372.097,272.0532,371.9853,278.2018,375.2604,280.4775L375.2604,280.4775z"/>
	<rect fill="none" width="512" height="512"/>
</g>
</svg>
