<?xml version="1.0" encoding="utf-8"?>
<!-- Generator: Adobe Illustrator 18.1.1, SVG Export Plug-In . SVG Version: 6.00 Build 0)  -->
<!DOCTYPE svg PUBLIC "-//W3C//DTD SVG 1.1//EN" "http://www.w3.org/Graphics/SVG/1.1/DTD/svg11.dtd">
<svg version="1.1" id="XMLID_2_" xmlns="http://www.w3.org/2000/svg" xmlns:xlink="http://www.w3.org/1999/xlink" x="0px" y="0px"
	 viewBox="0 0 512 512" enable-background="new 0 0 512 512" xml:space="preserve">
<g id="BCV">
	<path fill="#404065" d="M208.5879,211.7908h34.4638c13.3621,0,27.0942,6.1177,27.0942,22.2338
		c0,9.9822-6.2429,16.6006-15.3595,19.3493v0.2503c11.1142,1.2464,19.1096,9.9822,19.1096,21.3521
		c0,19.2293-16.7365,25.2274-33.4677,25.2274h-31.8404 M224.323,247.7568h14.358c10.4883,0,15.7352-4.4957,15.7352-11.1196
		c0-7.6144-5.2469-11.3645-17.1122-11.3645h-12.981V247.7568z M224.323,286.7163h14.4832c8.1152,0,19.3491-1.377,19.3491-12.9919
		c0-9.2419-5.9925-12.4858-18.7232-12.4858H224.323V286.7163z"/>
	<path fill="#404065" d="M345.8442,232.5169c-6.4933-6.8688-12.4913-8.7356-18.6089-8.7356
		c-18.2334,0-30.3381,13.988-30.3381,31.5899c0,18.854,12.1048,32.8365,30.3381,32.8365c7.1192,0,13.9825-3.2439,19.8553-10.7332
		l12.9865,9.2419c-7.9954,10.9836-19.9805,15.7297-32.9669,15.7297c-27.2195,0-46.7047-18.4784-46.7047-46.0787
		c0-28.3351,19.4852-46.8243,46.7047-46.8243c11.985,0,22.2284,3.8698,30.9694,13.988"/>
	<polyline fill="#404065" points="363.9579,211.7963 382.066,211.7963 406.1613,278.6012 431.0186,211.7963 448,211.7963 
		412.2844,300.2091 398.6775,300.2091 	"/>
	<path fill="#404065" d="M169.6882,201.5258H67.342c-1.8506,0-3.342,1.4967-3.342,3.3418v102.259
		c0,1.8452,1.4915,3.3475,3.342,3.3475h102.3462c1.8506,0,3.3418-1.5023,3.3418-3.3475v-102.259
		C173.03,203.0225,171.5388,201.5258,169.6882,201.5258z M168.8174,304.1658c0,1.2356-0.9961,2.2316-2.2261,2.2316H70.292
		c-1.2356,0-2.2261-0.996-2.2261-2.2316V207.872c0-1.2355,0.9905-2.2316,2.2261-2.2316h96.2993c1.23,0,2.2261,0.9961,2.2261,2.2316
		V304.1658z"/>
	<path fill="#404065" d="M137.124,259.1159c-1.8506-3.0424-1.8179-3.1895,0.1143-6.2374
		c1.9377-3.0533,23.5673-38.0886,24.3946-39.4873c0.9307-1.5677-0.1089-2.297-1.241-2.297c-1.1267,0-37.871,0.0055-42.3449,0.0055
		c-5.3013,0-5.323-0.0108-7.3423,3.3255c-2.0247,3.3365-22.3046,36.162-23.8231,38.6548c-1.856,3.0317-1.8342,3.0425,0,6.0359
		c1.8342,3.0045,21.7984,35.4654,23.8231,38.8018c2.0193,3.331,2.041,3.32,7.3423,3.32c4.474,0,41.2183,0.0055,42.3449,0.0055
		c1.1321,0,2.1717-0.7293,1.241-2.3023C161.0559,297.9721,138.9691,262.1694,137.124,259.1159"/>
	<rect fill="none" width="512" height="512"/>
</g>
</svg>
