<?xml version="1.0" encoding="utf-8"?>
<!-- Generator: Adobe Illustrator 18.1.1, SVG Export Plug-In . SVG Version: 6.00 Build 0)  -->
<!DOCTYPE svg PUBLIC "-//W3C//DTD SVG 1.1//EN" "http://www.w3.org/Graphics/SVG/1.1/DTD/svg11.dtd">
<svg version="1.1" id="XMLID_1_" xmlns="http://www.w3.org/2000/svg" xmlns:xlink="http://www.w3.org/1999/xlink" x="0px" y="0px"
	 viewBox="0 0 512 512" enable-background="new 0 0 512 512" xml:space="preserve">
<g id="Brigerbad">
	<path fill="#404065" d="M73.5314,296.9414c-0.5932-0.2977-0.6674-0.965-0.1482-1.4108c2.2269-1.8566,3.637-4.3058,3.637-7.5702
		v-2.8215c0-7.1245-4.7501-12.0958-12.7661-12.0958h-15.215c-0.668,0-1.0391,0.5924-1.0391,1.0382v50.3206
		c0,0.594,0.3711,1.0398,1.0391,1.0398h17.813c8.6832-0.2229,13.4333-6.4585,13.4333-14.3982v-3.8599
		C80.2853,302.5068,77.4653,298.7217,73.5314,296.9414z M57.1291,281.9478c0-0.3696,0.297-0.7422,0.742-0.7422h4.2309
		c3.637,0,5.6403,2.0049,5.6403,5.4937v2.672c0,3.5607-2.2261,5.4906-5.3432,5.6403h-4.528c-0.445,0-0.742-0.4458-0.742-0.8169
		V281.9478z M70.4891,311.1167c0,3.9331-2.301,6.1594-6.3831,6.1594h-6.2349c-0.445,0-0.742-0.3695-0.742-0.7422v-13.879
		c0-0.5192,0.297-0.8153,0.742-0.8153h6.4572c4.379,0,6.1608,2.3743,6.1608,5.7134V311.1167z"/>
	<path fill="#404065" d="M118.8781,317.8715c-6.0859-0.4457-9.3511-4.4537-10.3902-10.3185
		c-0.0748-0.4441,0.1481-0.8885,0.5932-1.1116c4.4532-2.0046,8.1641-6.1606,8.1641-12.6912v-6.4585
		c0-8.3855-6.086-14.2487-13.7302-14.2487H86.0737c-0.668,0-1.1138,0.5192-1.1138,1.0382v50.3206
		c0,0.594,0.4458,1.0398,1.039,1.0398h7.051c0.5199,0,1.0391-0.4458,1.0391-1.0398V308.741c0-0.4458,0.2971-0.8154,0.7421-0.8154
		h4.082c0.4459,0,0.817,0.3696,0.8909,0.8154c1.7811,10.6146,8.0901,17.145,19.0001,17.145c0.5939,0,1.0391-0.519,1.0391-1.0397
		v-5.8632C119.8431,318.3906,119.398,317.9448,118.8781,317.8715z M107.4489,294.2693c0,4.1562-2.672,6.6786-6.4571,6.6786h-6.1608
		c-0.4451,0-0.7421-0.3695-0.7421-0.8154v-18.1099c0-0.4445,0.2971-0.817,0.7421-0.817h5.7889c4.3792,0,6.8289,2.3011,6.8289,6.6053
		V294.2693z"/>
	<path fill="#404065" d="M133.4246,273.0431h-7.051c-0.5933,0-1.0391,0.5192-1.0391,1.0382v50.3206
		c0,0.594,0.4457,1.0398,1.0391,1.0398h7.051c0.5199,0,1.0391-0.4458,1.0391-1.0398v-50.3206
		C134.4637,273.5623,133.9445,273.0431,133.4246,273.0431z"/>
	<path fill="#404065" d="M175.2093,298.7217h-14.2502c-0.5939,0-1.113,0.4459-1.113,1.0383v4.7516
		c0,0.5192,0.5191,1.0382,1.113,1.0382h5.418c0.4451,0,0.7421,0.3711,0.7421,0.7421v8.1656c0,0.5923-0.074,1.1116-0.7421,1.4841
		c-1.6329,1.0382-3.5628,1.7069-6.16,1.7069c-5.8639,0-9.723-4.0094-9.723-10.5397v-15.7344c0-6.5319,4.082-10.4651,10.0941-10.4651
		c2.6719,0,5.0469,0.8154,6.828,2.0032c0.5939,0.3726,1.262,0.075,1.4841-0.3694l3.414-5.1975
		c0.297-0.519,0.1489-1.1863-0.4449-1.4841c-3.1171-2.0764-7.0511-3.4139-11.3553-3.4139c-11.2072,0-19.2972,7.4236-19.2972,18.9269
		v15.8091c0,12.0972,8.09,18.8506,17.4413,18.8506c4.6019,0,7.8672-1.2614,10.688-3.5623c0.4451-0.3711,0.816-0.2976,1.113,0
		l2.5232,2.3744c0.2969,0.3724,0.8168,0.5953,1.2619,0.5953h0.965c0.5939,0,1.0391-0.5205,1.0391-1.0398V299.76
		C176.2484,299.1676,175.8032,298.7217,175.2093,298.7217z"/>
	<path fill="#404065" d="M210.0911,273.0431h-25.903c-0.5931,0-1.039,0.5192-1.039,1.0382v50.3206
		c0,0.594,0.4459,1.0398,1.039,1.0398h25.903c0.5932,0,1.1131-0.4458,1.1131-1.0398v-6.0861c0-0.5205-0.5199-1.0397-1.1131-1.0397
		h-17.071c-0.4451,0-0.742-0.2963-0.742-0.7422v-12.6162c0-0.4459,0.2969-0.8169,0.742-0.8169h11.4301
		c0.668,0,1.1131-0.4459,1.1131-1.0383v-5.344c0-0.594-0.4451-1.1146-1.1131-1.1146h-11.4301c-0.4451,0-0.742-0.2961-0.742-0.6671
		v-12.989c0-0.3696,0.2969-0.7422,0.742-0.7422h17.071c0.5932,0,1.1131-0.4456,1.1131-1.0382v-6.0861
		C211.2042,273.5623,210.6843,273.0431,210.0911,273.0431z"/>
	<path fill="#404065" d="M250.762,317.8715c-6.086-0.4457-9.3511-4.4537-10.3902-10.3185
		c-0.0748-0.4441,0.1481-0.8885,0.5932-1.1116c4.453-2.0046,8.1641-6.1606,8.1641-12.6912v-6.4585
		c0-8.3855-6.086-14.2487-13.7303-14.2487h-17.4412c-0.668,0-1.1138,0.5192-1.1138,1.0382v50.3206
		c0,0.594,0.4459,1.0398,1.0391,1.0398h7.051c0.5199,0,1.0391-0.4458,1.0391-1.0398V308.741c0-0.4458,0.2969-0.8154,0.7419-0.8154
		h4.0822c0.4459,0,0.8168,0.3696,0.8909,0.8154c1.7811,10.6146,8.09,17.145,19.0001,17.145c0.5939,0,1.0391-0.519,1.0391-1.0397
		v-5.8632C251.727,318.3906,251.2819,317.9448,250.762,317.8715z M239.3328,294.2693c0,4.1562-2.672,6.6786-6.4571,6.6786h-6.1609
		c-0.4451,0-0.7419-0.3695-0.7419-0.8154v-18.1099c0-0.4445,0.2969-0.817,0.7419-0.817h5.7891c4.379,0,6.8289,2.3011,6.8289,6.6053
		V294.2693z"/>
	<path fill="#404065" d="M289.2808,311.0435v-3.8599c0-4.6768-2.8201-8.4619-6.7534-10.2422
		c-0.5939-0.2977-0.6687-0.965-0.1496-1.4108c2.2277-1.8566,3.637-4.3058,3.637-7.5702v-2.8215
		c0-7.1245-4.7486-12.0958-12.7646-12.0958h-15.2158c-0.668,0-1.0391,0.5924-1.0391,1.0382v50.3206
		c0,0.594,0.3711,1.0398,1.0391,1.0398h17.813C284.5307,325.2188,289.2808,318.9832,289.2808,311.0435z M266.1245,281.9478
		c0-0.3696,0.2976-0.7422,0.7419-0.7422h4.231c3.637,0,5.6403,2.0049,5.6403,5.4937v2.672c0,3.5607-2.2261,5.4906-5.344,5.6403
		h-4.5272c-0.4443,0-0.7419-0.4458-0.7419-0.8169V281.9478z M279.4845,311.1167c0,3.9331-2.301,6.1594-6.3838,6.1594h-6.2343
		c-0.4443,0-0.7419-0.3695-0.7419-0.7422v-13.879c0-0.5192,0.2976-0.8153,0.7419-0.8153h6.4571
		c4.3792,0,6.1609,2.3743,6.1609,5.7134V311.1167z"/>
	<path fill="#404065" d="M303.3066,316.8318h13.285c0.5939,0,1.188,0.4443,1.4109,1.0397l2.1528,6.6786
		c0.1481,0.5939,0.6672,0.8916,1.3346,0.8916h6.7547c0.6687,0,1.2613-0.6688,1.0383-1.3375l-16.6977-50.2457
		c-0.223-0.5192-0.7421-0.8153-1.2626-0.8153h-2.672c-0.5192,0-1.0398,0.2961-1.2613,0.8153l-16.9968,50.2457
		c-0.2215,0.7422,0.3709,1.3375,1.0396,1.3375h7.051c0.5926,0,1.1132-0.2977,1.3345-0.8916l2.0796-6.6786
		C302.1935,317.2761,302.7126,316.8318,303.3066,316.8318z M304.5692,309.2603l4.8981-15.3633
		c0.0733-0.2964,0.2228-0.3696,0.5192-0.3696c0.2228,0,0.371,0.0732,0.4459,0.3696l4.8981,15.3633
		c0.1481,0.3723-0.0733,0.7419-0.5192,0.7419h-9.723C304.7173,310.0022,304.4944,309.6326,304.5692,309.2603z"/>
	<path fill="#404065" d="M367.3566,307.1836v-15.8091c0-11.5796-7.4968-18.3314-18.9268-18.3314H334.181
		c-0.5939,0-1.0398,0.5192-1.0398,1.0382v50.3206c0,0.594,0.4459,1.0398,1.0398,1.0398h14.3983
		C359.2673,325.4417,367.3566,318.7601,367.3566,307.1836z M343.0125,317.2761c-0.4459,0-0.742-0.2963-0.742-0.7422v-34.5862
		c0-0.3696,0.2961-0.7422,0.742-0.7422h5.2707c6.086,0,9.7963,3.8599,9.7963,10.1689v15.8091
		c0,6.3823-3.7851,10.0925-9.6497,10.0925H343.0125z"/>
	<path fill="#404065" d="M285.2288,169.5979c0.1188,0.1497,0.1964,0.3483,0.173,0.66c2.0473-0.121,2.2526,1.1937,4.0931,1.0931
		c0.1173,0.3396,0.465,0.4253,0.5822,0.7671c0.8124,0.0858,1.3052,0.5322,2.3083,0.3982c3.7337,2.9412,8.8696-0.8081,11.7747-2.7358
		c0.1803-1.4805,1.1746-2.249,1.8054-3.3267c1.4313-3.5198,0.3401-10.688-1.0032-14.1631c-0.484-0.3547-0.9724-0.1519-1.49-0.313
		c-0.3842-0.1189-0.8154-0.6042-1.2524-0.7303c-0.4472-0.1246-0.9884,0.0659-1.4811-0.0411
		c-0.4662-0.1011-0.8564-0.4678-1.2436-0.5947c-0.4708-0.1561-0.9693,0.0735-1.4782-0.0425
		c-1.3815-0.321-3.0826-1.4468-4.4905-1.0676c-0.9327,0.2509-1.0604,1.2341-1.5062,1.7012
		c-1.1775,1.2172-3.5767,1.5149-4.6591,2.8356c-0.4942-0.0587-0.4957,0.319-0.921,0.3256c-0.9152,2.1793-3.3202,3.0466-3.53,5.8484
		c-0.7376-0.0153-1.0896,0.3037-1.5793,0.5001c0.088,3.2719,0.9473,5.4393,1.8536,8.3392
		C284.4075,168.6697,284.1817,170.1875,285.2288,169.5979z"/>
	<path fill="#404065" d="M356.258,169.3274c-0.3637,0.6489-0.7479,1.2765-1.5134,1.5676
		c-3.6751,6.1469-9.0645,10.7769-14.0638,15.7526c-0.4209-0.0725-0.2347,0.3844-0.6541,0.3087
		c-0.7361,1.369-2.012,2.2621-3.4346,3.0283c-0.1467,0.3953,0.2874,1.0303-0.3256,1.2305c-0.4576,0.0859-0.7537-0.0103-1.0823-0.071
		c-0.1437,0.5483-0.2786,1.1042-0.7201,1.3857c-0.3167,0.0771-0.3021-0.2244-0.6746-0.0946
		c-0.4619,1.111-1.7818,1.4592-2.4006,2.4301c-1.7232,0.5024-2.2731,2.0364-3.5784,2.9038
		c2.6779,2.1389-2.3963,3.5042-3.7792,1.8405c-0.5367,0.1971-0.1422,1.223-0.7229,1.3837c-1.5737-0.0571-2.7394,1.27-3.4757,2.3625
		c-1.0646,0.1099-1.5692,0.72-2.2056,1.21c0.7068,1.3593-1.4254,2.7004-2.5825,1.6313c-3.2396,1.1447-4.9055,3.6736-8.5865,4.4172
		c3.1647,1.2356-1.2598,5.5168-2.1617,2.0105c-1.7538,0.5515-4.2117,1.218-6.4512,2.0039c1.5561,2.1575-2.4094,4.415-2.9755,1.7952
		c-0.6028,0.1003-0.7611,0.5925-1.4372,0.6233c-0.4692,0.1011-0.3608-0.4532-0.8301-0.3506
		c-0.0732,0.2668-0.3314,0.3777-0.6423,0.4459c-1.4929,0.129-3.2512,0.1481-4.9099,0.83c-0.3754,0.1562-0.5998,0.58-0.8976,0.7267
		c-1.0266,0.5031-2.5297,0.6321-3.3376,0.3409c-0.5133,0.217-0.4313,0.965-1.1411,1.009c-1.5839-1.0186-3.6194,0.4692-5.3147,0.8594
		c0.3228,0.1605-27.5823,1.1475,0.5896,0.9062c0.1613,0.0117,0.3798-0.0476,0.4077,0.1071c2.0824-0.0183,4.1678-0.6078,6.0186-0.368
		c0.9062,0.1172,1.6571,0.6145,2.4578,0.6525c0.8271,0.0426-4.9333,4.5126-4.0344,4.5404c1.8698,0.0542,3.7322,0.3374,5.6447,0.1892
		c0.7567-0.0586,1.4664-0.4282,2.2701-0.2728c14.1108-1.8771,21.3027-6.1556,28.1307-9.7662
		c0.6644-1.2686,2.763-1.2642,3.6106-2.3677c1.6278,0.0602,2.7864-1.311,4.0358-1.9915c0.4077-0.1284,0.2831,0.3505,0.6865,0.2258
		c0.3431-0.5874,0.5718-0.8566,0.17-1.6191c0.399-1.281,2.4389-1.949,3.1839-0.6006c1.3125-0.6898,2.7819-2.2239,3.9728-3.0605
		c0.0703-0.4128-0.1673-0.4773-0.1818-0.7927c0.3549-1.0249,2.2729-1.9078,2.9139-0.5791c1.4445-0.5808,2.4622-1.5325,3.8937-2.1193
		c-2.2762-1.9012,1.6541-4.6591,2.9447-2.3251c2.1778-2.6544,5.8425-3.2219,7.6787-6.1073
		c0.6834-0.1534,0.8564-0.7552,1.4137-1.0273c1.7217-0.2493,1.9064-1.8507,3.0591-2.6039c-0.0763-0.5308,0.4019-0.569,0.3403-1.0896
		c2.4462-1.8074,2.6807-5.7347,4.9099-7.4132c1.8801-1.4188,3.1003-3.1434,4.4024-4.8328c1.0677-2.8063,2.3378-5.4386,3.2264-8.6495
		c0.7333,0.0176,0.5469-0.7825,1.1541-0.8762c-0.3475-0.4386,0.0367-1.311,0.4444-1.5026c0.7435-2.0626,0.4752-4.5382,0.6541-6.8831
		c-1.317-2.2753,7.3473-11.2723,4.6342-11.9667c0.484,0.78-0.2903,0.1179-0.8564,0.3452c-0.0822,0.5662,0.0117,1.4116,0.0484,1.8538
		c-2.562-3.2777-10.5985,7.568-11.0765,7.5298c0.3871,1.3947-1.1161,1.116-0.6483,2.5869c-0.1437,0.1636-0.4604,0.179-0.7919,0.1826
		c-0.3197,0.855-0.3871,1.9351-1.3404,2.2283c-0.179,0.8096-0.5176,1.4812-1.229,1.8201
		C358.4256,166.86,357.8126,168.509,356.258,169.3274z M306.7748,217.9753c-1.704-2.3163,2.7776-4.3511,3.112-1.6667
		C310.0877,217.9109,308.3499,218.8759,306.7748,217.9753z M310.7681,210.8892c-0.0732-0.5398-0.2889-0.9172-0.3592-1.4541
		c0.6481-1.5911,3.1266-1.8324,3.3494-0.0732C313.9549,210.8936,311.9575,211.7903,310.7681,210.8892z M312.9312,215.5864
		c0.066-0.9048,1.1791-1.8595,2.1587-2.0135c0.7246-0.1085,1.6998,0.2024,1.8171,1.2325
		C317.1725,217.0514,312.6995,218.7775,312.9312,215.5864z M320.428,213.1145c-0.9414,0.9966-2.5018,1.0947-3.7263,0.495
		c-0.1305-0.5161-0.3388-0.9489-0.4883-1.443c0.6906-1.7268,3.9331-2.1118,4.2851-0.1321
		C320.5895,212.5654,320.0908,212.5514,320.428,213.1145z M320.7581,203.165c0.0983-0.5969,0.5792-1.0845,1.6732-1.1755
		c0.6043-0.0549,1.3992,0.2656,1.5546,1.2451C324.2675,205.0677,320.3563,205.6919,320.7581,203.165z M321.1965,208.1035
		c0.0147-0.5793,0.468-1.3589,1.7922-1.4526c0.6951-0.0498,1.3727,0.2141,1.5457,1.2488
		C324.9128,210.0825,321.1262,210.3303,321.1965,208.1035z M331.4431,204.5251c-1.0309,1.2349-3.197,0.6519-3.1398-0.8835
		C328.3708,201.7146,332.257,201.6794,331.4431,204.5251z M329.8959,198.981c-0.1114-0.4875-0.3724-0.8182-0.4838-1.3125
		c0.6364-1.6138,2.8934-1.5156,3.2174-0.063C332.9008,198.814,331.3302,199.7554,329.8959,198.981z M335.9747,201.8313
		c-0.9372,1.4172-3.681,0.9539-3.6649-0.7128c0.003-0.976,0.9739-1.5165,2.3201-1.4872
		C335.7766,199.6578,336.6111,200.8685,335.9747,201.8313z M334.7222,194.5288c0.462-1.6609,2.8817-1.5928,3.2072-0.1967
		C338.3357,196.045,335.1285,196.7681,334.7222,194.5288z M337.4088,196.7798c0.6086-1.6329,2.8818-1.4987,3.2191-0.0646
		C341.043,198.5066,337.7007,199.1826,337.4088,196.7798z M337.7888,189.7802c0.6628-1.4806,2.8112-1.1644,3.0884,0.0762
		C341.2439,191.5024,337.8885,192.2183,337.7888,189.7802z M345.0406,185.5757c0.088,0.4597-0.0045,0.7537-0.066,1.0808
		c-0.3109,0.0153-0.6204,0.0381-0.9341,0.0571C343.8425,185.8623,344.1416,185.4561,345.0406,185.5757z M341.7982,193.9612
		c0.572-1.4006,2.7629-1.4468,3.2263,0.071C345.2562,195.9028,341.9243,196.0847,341.7982,193.9612z M345.7372,190.3632
		c-0.9267,0.3818-1.7584-0.0463-1.9211-0.6849C343.4377,188.1376,346.7491,188.4866,345.7372,190.3632z M348.415,188.0541
		c0.0206,0.3556,0.0969,0.7618-0.0762,0.9465c-0.2244,0.0133-0.4459,0.0265-0.6687,0.036
		C347.5087,188.3518,347.7244,187.9924,348.415,188.0541z M347.7581,192.6575c-0.1437-0.803-0.0308-1.3756,0.8624-1.2642
		C348.9709,192.0239,348.7113,192.807,347.7581,192.6575z M348.2904,183.7675c0.8169-0.2054,1.9579,0.1583,1.8082,1.0975
		C349.8963,186.1388,347.2844,185.3748,348.2904,183.7675z M350.4976,180.4136c0.3754,0,0.9091-0.1716,0.9531,0.2089
		c-0.2435,0.2933-0.2918,0.7545-0.8946,0.7281C350.5371,181.0375,350.5137,180.7244,350.4976,180.4136z M350.6383,189.2617
		c-0.1511-0.7258,0.088-1.1007,0.877-0.995c0.0147,0.2692,0.0323,0.5367,0.0499,0.7999
		C351.4039,189.2625,350.9932,189.2374,350.6383,189.2617z M351.1691,182.6536c0.1804-0.0132,0.3579-0.0227,0.5397-0.0315
		c0.0102,0.2214,0.0264,0.4429,0.0381,0.668C351.2587,183.4125,351.1429,183.1163,351.1691,182.6536z M352.052,186.0881
		c-0.0145-0.2677-0.0351-0.536-0.0468-0.8014c0.264-0.0162,0.5323-0.0338,0.8007-0.0514
		C352.9702,185.8881,352.7179,186.1716,352.052,186.0881z M352.8351,176.9165c0.6542-0.0747,1.1351,0.05,1.2436,0.594
		C353.5771,177.8955,353.0786,177.2671,352.8351,176.9165z M354.4747,179.6318c-0.4194,0.1423-0.5161-0.082-0.6863-0.2251
		C353.8793,179.093,354.6082,179.2271,354.4747,179.6318z M355.1083,181.2039c0.3167-0.0762,0.305,0.2258,0.6746,0.0918
		C355.8708,181.957,355.0671,181.6902,355.1083,181.2039z M355.9149,176.8601c0.305-0.0601,0.5103-0.0088,0.6776,0.0933
		C356.6041,177.3529,355.818,177.3604,355.9149,176.8601z M356.3284,179.252c0.3696-0.1348,0.3622,0.1658,0.6776,0.0918
		C357.1437,179.9397,356.1436,179.8987,356.3284,179.252z M356.6701,173.8625c0.4209-0.1409,0.4252,0.1863,0.6893,0.2266
		C357.2274,174.4403,356.6041,174.452,356.6701,173.8625z M358.5721,176.429c-0.1804,0.0117-0.3578,0.0212-0.5367,0.0352
		c-0.3521-0.1475,0.085-0.6658-0.1702-0.6613C358.188,175.3518,358.7482,175.8423,358.5721,176.429z"/>
	<path fill="#404065" d="M321.1407,191.8699c1.2819-0.915,2.543-1.3594,3.9039-1.9827c-0.7802-2.2041,3.2323-1.6337,3.5637-3.1707
		c0.3271-0.1321,0.7068-0.2185,1.1937-0.2046c1.1733-2.4197,5.0771-2.4233,5.5729-5.4429c1.2112-0.6886,2.2055-2.0408,3.7072-3.0416
		c1.5986-1.0741,3.9097-1.2921,3.3788-3.9655c2.9096-0.2324,3.329-2.4709,4.423-4.4319c0.3667-0.6539,1.2349-1.0542,0.6967-1.7854
		c-1.1411,0.0879-1.207,1.1233-1.9183,1.5947c-0.3665,0.0911-0.6774,0.2363-1.0515,0.3308
		c-0.6863,1.6401-2.5663,1.9131-3.8452,2.9183c-1.2876,1.0156-1.9593,2.8083-3.546,3.4391c-0.443,0.022-0.6776-0.1857-1.2114-0.0618
		c-0.5484,1.9175-2.7717,2.353-4.6429,3.1039c-8.9266,5.4196-19.2612,9.5978-30.1838,13.2494
		c-0.3284,0.0402-0.6423,0.0623-0.8109-0.0837c-5.0082,2.1727-10.8831,3.2784-16.3782,4.2214
		c-2.8348,0.4912-5.4921,1.4591-8.2256,1.5793c-2.3317,0.0999-4.7076-0.2068-6.9894-0.2427
		c-4.8717-0.0798-9.6731,2.0225-14.0844,0.0565c-1.4101,0.1737-3.0988-0.6586-4.6959,0.0192
		c-1.7531-0.1409-3.4969-1.2158-5.3204-1.4226c-0.6512-0.0652-1.3992-0.5566-2.0444-0.7142
		c-1.1299-0.275-0.7764,0.8492-1.7686,0.1989c-0.4774,0.082,0.1584,2.0083-0.437,1.9893c0.7809,1.647,2.9484,0.0125,3.5834,1.4504
		c1.2942-0.1379,1.1682,1.3976,1.3038,0.9297c0.7457-0.1276,1.6263,0.7737,2.0406,0.6101c0.8837,0.6599,1.7943,0.3945,2.378,1.4027
		c1.55-0.0887,2.1096,0.9458,3.0459,1.556c3.7235,0.3071,7.0627,1.6189,10.9277,0.9407c0.4957-0.0769,0.3843,0.5212,0.9592,0.3477
		c0.6247-0.3359,1.2656-0.6504,1.9623-0.9254c0.8094-0.1826,1.223,0.868,1.9211,0.8197c0.233-0.0146,0.6716-0.6738,1.1658-0.7419
		c0.8813-0.1248,0.9929,0.184,1.9138,0.5542c2.7101-0.915,4.3527-1.7494,7.1273-1.9121c0.044,0.2528-0.1348,0.3035-0.1026,0.5417
		c1.047-0.1328,1.3815-0.269,2.5225-0.4209c1.6658,1.072,3.9932,0.2207,6.0596,0.297c1.6484,0.0652,3.1824,0.2743,4.687-0.1483
		c0.5294-0.1501,0.9297-0.5315,1.4371-0.6254c0.3139-0.0624,0.7363,0.0975,1.0736,0.069c2.2467-0.2134,3.8306-2.6147,5.9115-2.1067
		c0.4415-0.2874,0.6379-0.7859,1.2891-0.8843c0.264,0.0388,0.1379,0.5096,0.5588,0.3674c1.5589-0.8528,3.634-2.3171,6.0743-1.5811
		c0.063-0.2815,0.2332-0.4692,0.5044-0.5652c3.3158-0.3506,4.7164-2.4961,7.3209-3.1311c-0.1422,0.209-0.4326,0.5918,0.0427,0.6672
		c0.8506-0.5542,1.2347-1.5193,2.2966-1.8866c-0.1584-0.4377-0.2963-0.9012-0.4811-1.3097
		C318.4161,191.1389,320.3459,190.8206,321.1407,191.8699z M290.2091,197.2534c-0.4576-1.7795,1.4313-2.4601,2.6984-1.9099
		C294.201,197.1018,291.3397,198.7317,290.2091,197.2534z M295.8024,198.7905c-1.5047-1.7042,2.323-3.5688,2.8524-1.6543
		C299.0493,198.5674,297.442,199.652,295.8024,198.7905z M304.4431,195.3088c-1.707-0.1561-1.7304-2.4924,0.3754-2.7056
		C306.989,192.3845,306.3774,195.4834,304.4431,195.3088z M329.6349,181.5559c0.308-0.0615,0.5133-0.0088,0.6761,0.0911
		c0.0865,0.541-0.1628,0.7888-0.7612,0.7178C329.5118,182.0369,329.4927,181.7253,329.6349,181.5559z M329.5924,183.0371
		c0.4106-0.0388,0.7405,0.0132,0.9488,0.2104c-0.0103,0.4473-0.5779,0.4091-1.0441,0.4612
		C329.4384,183.4053,329.4882,183.1956,329.5924,183.0371z M329.0366,184.9465c-0.2215,0.0125-0.4459,0.0286-0.6658,0.0396
		c-0.1247-0.1453-0.2025-0.3477-0.176-0.6584c0.1481-0.1643,0.4604-0.179,0.7949-0.1855
		C329.0043,184.412,329.0219,184.6816,329.0366,184.9465z M328.6142,182.4241c0.0176,0.3138,0.041,0.6218,0.0557,0.9342
		c-0.3534,0.0175-0.7596,0.0983-0.9401-0.0778C327.5935,182.6169,327.9514,182.3838,328.6142,182.4241z M326.2443,185.3857
		c-0.965,1.0302-3.1031,0.5682-2.8685-0.8961C323.6075,183.0203,327.001,183.0203,326.2443,185.3857z M322.3668,187.771
		c-0.1231,1.2642-1.6513,1.7393-2.7496,1.1079C318.1462,186.8735,322.006,185.7487,322.3668,187.771z M309.9572,195.5068
		c-0.8536-1.0544,0.0733-2.1206,1.3418-2.2277C314.3098,193.0232,311.7141,197.6685,309.9572,195.5068z M312.4766,192.804
		c0.0499-0.4406-0.129-0.6157-0.1906-0.9274c-0.7216,0.5236-1.5589,0.2213-2.282,0.0043c-1.2861-2.1558,2.6339-3.2856,2.892-0.9824
		c1.0558-0.8074,2.3934-0.2104,2.4667,0.7866C315.4463,192.9507,313.5853,193.6848,312.4766,192.804z M316.0844,188.1544
		c0.6188-1.1899,2.93-1.4408,3.0899,0.0814C319.3443,189.874,316.1796,190.4591,316.0844,188.1544z"/>
	<path fill="#404065" d="M235.6166,210.7887c1.6696,0.4994,2.8597,1.5317,4.8043,1.7194c0.7435,0.6028,1.3242,0.9938,2.0847,1.2189
		c0.7104,0.2023,1.2436-0.0741,2.0128,0.0072c0.6218,0.0646,1.2018,0.4371,1.7789,0.5618
		c4.1913,0.9062,8.4485,1.8492,12.6135,2.1821c3.8892,0.3081,7.7169,0.14,11.6647-0.1782
		c3.3817-0.2742,6.7518-0.3892,10.2596-1.1658c1.4079-0.3103,2.7644-0.6783,4.1033-0.9202
		c1.2921-0.2349,2.7702-1.1177,3.9684-0.9153c0.3578-0.2712,0.6189-0.635,1.1644-0.7413c1.8126,0.7113,2.8157-0.8915,3.9244-1.5817
		c1.4753,0.7913,2.4462-0.4464,4.134-0.5198c-0.1099-1.1205,2.2615-2.4506,3.2807-1.1423c0.9268-0.5742,1.7568-1.2283,2.9945-1.5239
		c0.0543-0.6781-0.2844-0.9187-0.2332-1.5962c0.5104-1.1145,2.8877-1.792,3.2161-0.063c1.8039-0.8894,2.7982-2.5012,5.1929-2.8694
		c1.0296-1.9336,3.9054-2.4146,6.114-3.1912c1.2554-0.4392,1.8743-1.6064,2.672-2.3066c0.5911-0.5222,1.2437-0.8947,1.8008-1.3214
		c0.5515-0.4202,1.4035-0.9445,1.2628-1.2832c-2.1574,0.8739-3.4933,2.1155-5.4453,3.1509
		c-2.0648,1.0917-4.7251,1.6953-7.3531,2.5978c-3.2878,1.1228-6.5362,2.697-9.5881,3.4017
		c-5.3689,1.245-10.7524,3.3912-14.8821,2.3896c-2.0752,1.1454-4.4084,0.6901-6.6331,1.212
		c-1.6498,0.3828-3.1413,1.3242-4.8586,1.77c-3.854,1.0083-8.3591,0.3103-12.9903,0.3938c-0.1877-0.2639-0.663-0.2039-0.5867-0.772
		c-1.1439,0.3723-2.012-0.4958-2.8707-0.8947c-4.409-1.0588-8.3334-0.6359-11.4594-3.0591
		c-3.4073-0.5061-5.8558-3.0365-9.1598-2.7916c-1.1094-0.7449-2.5055-1.1709-4.233-1.215c-0.9686,0.7216-1.666,0.8931-2.7908,0.4362
		c-0.9752,1.2708-0.8455,3.0974,0.011,4.5618C233.4152,207.2808,234.4734,209.0852,235.6166,210.7887z M297.5035,206.8708
		c0.2053,1.0208-0.0499,1.6396-0.5426,2.0415C294.0807,209.4504,295.6556,205.1859,297.5035,206.8708z M292.4749,207.9827
		c0.4457-0.2788,0.9137-0.5369,1.7129-0.509C296.1,209.5913,291.4234,210.7645,292.4749,207.9827z"/>
	<path fill="#404065" d="M373.7213,180.7633c-1.2919,0.4281,3.9214-7.928,3.2909-8.7551
		c-2.2554,2.3441-10.0779,12.6626-12.4507,14.9423c2.1617,1.4014-0.7859,4.5726-2.254,2.2386
		c-2.4622,2.5181-4.7236,5.1431-7.6655,7.4103c0.0058,0.5369-0.1202,0.6848,0.2258,1.1931
		c-1.3301,1.4701-2.9462,6.2832-5.7164,3.7241c-2.4873,2.4712-6.092,4.3499-8.3754,6.9257
		c-0.9913,0.8073-1.5017,2.5605-3.3069,2.0033c-0.6746,0.61-1.6484,1.0543-2.1162,1.7708c0.0161,0.3292-0.0074,0.6438,0.1862,1.0663
		c-1.0353,1.5214-2.9902,2.559-3.5695,4.3232c-1.3053,1.9093-4.9128,2.493-4.7808-0.4899
		c-1.6513,0.5962-2.3817,1.6038-4.3292,2.3142c0.1173,0.5228,0.4956,0.5537,0.6115,1.0742
		c0.0513,0.4583-0.1658,0.7721,0.1393,1.3594c-0.5222,0.8689-1.2817,1.6104-2.4242,2.1477
		c-0.3329,0.6292-2.5649,3.593-3.3069,3.8218c-0.5427,0.1738-1.1277-0.2434-1.6807-0.4604
		c-1.6101-2.0972-0.1465-3.6649,1.1703-4.8455c-1.9064,1.0464-4.1516,2.3567-6.0083,3.252c1.1572,1.9403-0.6334,4.4678-2.7453,3.371
		c-0.2141-0.6058-0.5265-1.0229-0.7641-1.5853c-4.0608,2.2467-6.5143,3.2072-11.0897,4.959
		c-0.4194,1.5802-2.411,3.0488-3.7588,1.4393c-4.0827,1.7365-10.5838,3.3877-15.7489,5.2795
		c-4.0563,0.0204-7.0642,1.7202-11.4725,1.4342c0.4062,2.062,1.2421,2.4125,1.7729,3.9391
		c1.2466,0.0448,1.4006,1.5544,2.2409,2.2496c0.0498,0.0447,0.4766-0.0637,0.5485-0.0271c0.5162,0.2537,0.8476,0.6804,1.1644,1.042
		c0.8212-0.27,1.3873-0.0602,1.9886,0.0851c-0.1246,0.2198,0.0132,0.6621,0.2375,0.7692c0.8623-0.187,1.1439-0.6741,1.971-0.8851
		c0.9503,0.3673,2.1793,1.2509,3.373,0.5001c0.4663,0.198,1.0208,0.2295,1.3405,0.7083c2.2877,1.0105,5.9247-0.5397,7.8105,1.2371
		c1.1616-0.9348,3.1296-0.3813,4.2324,0.0961c0.7524-0.6504,1.8581-0.9811,2.669-1.8068c1.012,0.2999,2.7996-0.572,3.6693-1.2729
		c-3.1031-2.1733,1.6279-7.4155,2.9976-3.021c0.1232,0.4583-0.3359,0.61-0.0689,1.141c1.899-0.2875,2.6031-1.2633,4.1547-1.9835
		c-1.05-1.6858,0.305-2.9624,1.4783-3.8181c1.6439-0.1062,2.229,2.0598,2.2994,3.3533c1.405-0.5023,2.232-1.3198,3.3055-1.999
		c0.0674,0.215,0.132,0.4269,0.1995,0.6403c2.5987-1.5083,4.6547-2.8304,7.7109-3.6398c0.3607-0.014,0.4355,0.5205,0.745,0.6091
		c1.4372-0.9897,1.8844-2.501,3.4227-3.4366c0.2816,0.0079,0.4459,0.2354,0.5809,0.5236c0.6188-1.5684,1.9182-1.5714,2.9432-2.7329
		c1.097,0.6965,1.694-0.8176,2.5679-1.2107c0.0381,0.4708,0.3109,0.495,0.4957,0.6893c0.5192-0.2244,0.4017-0.7882,0.786-1.0858
		c2.4564-1.2489,5.3909-2.7783,7.3326-3.9421c1.5897-2.0935,3.0225-4.2543,5.473-5.8887c1.0428-0.8743,0.9006-2.4712,1.7306-3.4817
		c0.2757-0.3342,0.9327-0.5037,1.3785-0.984c0.9635-1.036,1.3375-2.3807,3.109-2.6382c-0.2831-0.5962-0.5222-1.0208-0.349-1.5773
		c0.959-0.2192,1.616-1.3982,3.1339-1.6689c0.5558-0.7126,1.2362-1.4077,2.1542-1.6403c0.899-1.3859,1.7451-2.7938,1.9666-4.5344
		c0.7934-0.7589,0.918-1.8684,2.0488-2.4498c0.5894-1.3698,0.5454-3.0717,1.8273-4.0725c0.1819,0.1401,0.4222,0.1547,0.6334,0.228
		c-0.0601-2.4932,3.1852-3.2439,3.64-5.4657c0.2903-0.1481,0.3475,0.1481,0.6774-0.0718c0.0089-2.4889,2.8539-3.4874,2.5929-6.1244
		c0.22,0.1255,0.6613-0.0117,0.7714-0.2368c-0.1775-0.4868-0.2933-0.9421-0.267-1.3184c0.9386-0.5763,0.8419-1.7003,1.1616-2.6016
		c0.9297-0.3827,1.49-1.1608,2.5194-0.915C374.0997,181.5764,373.5643,181.2654,373.7213,180.7633z M290.2325,245.8912
		c-1.226-2.144-0.3388-3.634,1.248-4.5895C294.9063,240.9036,293.6129,247.8357,290.2325,245.8912z M300.262,238.8748
		c-1.4445-2.0275-0.4752-3.6479,1.0779-4.6782C304.7071,234.3534,303.4824,240.427,300.262,238.8748z M304.9564,231.8193
		c-0.173-1.0793,0.6511-1.968,1.7144-2.6281c0.8198-0.4862,1.8405,0.5133,2.1249,1.4452
		C309.5524,233.1244,305.5488,235.4636,304.9564,231.8193z M312.6028,238.4348c-1.1146-1.5106-0.8066-2.917,0.044-3.9406
		c1.4577-1.3875,3.4404-2.8788,4.5403-0.2809C317.4892,236.7871,315.1018,239.4583,312.6028,238.4348z M326.4878,231.2063
		c-0.2009-0.627-0.4781-1.113-0.8536-1.4197c0.11-0.9664,0.3314-2.2026,1.5017-2.8435c1.2114-0.6584,2.3845-1.8142,3.2585-1.7041
		c0.487,0.0573,1.3829,0.9928,1.5795,1.4746C332.9726,229.1737,328.9207,232.2255,326.4878,231.2063z M336.2342,223.7168
		c-2.8715,1.1351-3.6017-4.8191-0.5338-4.4597c0.7567,0.0881,1.0089,1.0471,1.7422,1.5641
		C337.4309,222.0955,337.403,223.2584,336.2342,223.7168z M343.1122,217.3932c-2.8187-2.7408,2.0399-7.6068,3.6105-4.1986
		C347.5264,214.9161,345.6273,218.4299,343.1122,217.3932z M349.4387,207.4531c-0.6804-2.7915,4.0946-3.1324,3.813,0.0872
		C352.932,209.886,349.8846,209.2788,349.4387,207.4531z M361.7017,195.4027c-1.3242,0.5375-2.5239-0.511-2.7189-1.5435
		c-0.3799-1.9784,2.3875-2.7697,3.4962-0.9401C362.6578,193.9802,362.7357,194.9805,361.7017,195.4027z"/>
	<path fill="#404065" d="M242.4446,190.7832c0.7098,0.198,0.9474,0.926,1.6777,1.1021c2.2614-0.2866,4.4919,1.3397,6.9308,1.457
		c0.5037,0.0249,1.0111-0.2478,1.4643-0.2214c1.0228,0.0455,1.9146,0.8257,2.9844,0.4868
		c3.5145,2.0062,8.6883,0.2222,13.3049,0.3938c3.9157,0.7032,7.7374,0.613,12.2059-0.077c3.5386-0.5514,7.3809-0.7977,10.22-1.8339
		c0.4459-0.1633,0.7231-0.5103,1.1718-0.6085c1.4401-0.3124,2.8935-0.2098,4.0872-1.1886c1.5633,0.7712,2.8509-0.7875,4.8951-1.1044
		c1.7306-0.2714,2.7689-0.3519,3.8364-0.9048c-3.0004-1.7804,2.939-4.0439,1.9564-0.9276c0.9957-0.1716,2.0619-0.2808,2.6309-0.8308
		c-0.7216,0.1019-1.0999-0.1884-1.4987-0.4443c-1.0413-1.8794,2.6573-2.8274,2.7629-0.8418
		c0.6951-0.3218,1.8331-0.2537,1.9109,0.5552c0.5558-0.0997,0.7523-0.5171,1.3051-0.6167
		c-0.0997-0.4106-0.1628-0.8645-0.3388-1.1871c0.6542-1.152,2.8055-1.405,3.0973,0.2126c1.6367-0.0529,2.7953-1.4071,4.1708-1.9974
		c1.3565-0.5867,3.7938-1.0698,5.1136-1.9241c0.9431-0.6101,1.21-1.7642,2.4771-1.2267c8.1185-5.1219,17.035-9.5426,22.1531-17.3241
		c-0.568-0.5491,5.5663-7.8086,6.8983-10.2198c-2.7951,1.6732-12.4003,10.7484-13.8012,11.4489
		c0.1335,2.0825-3.835,2.5422-6.5304,2.9507c-0.4898,1.8002-1.3491,3.8774-3.8878,4.3967c-0.4854,0.0981-0.8931-0.094-1.4827-0.0449
		c-1.2494,0.1057-2.4901,1.0963-3.546,1.1564c-0.352,0.0206-0.8594-0.2699-1.2231-0.1913
		c-1.0632,0.2236-1.7098,1.7312-2.5341,2.4321c-1.4636,1.259-3.5577,1.6425-4.5212,2.8304
		c0.7847,0.2697,1.2392,0.5675,1.2773,1.1292c0.0997,1.5465-3.2263,1.7136-2.9565-0.0901c0.1027-0.7325,1.1997-0.5237,1.5281-1.3002
		c-1.9974,0.8887-3.5167,2.1998-5.3029,3.2771c0.4663,0.1758,0.8447,1.0359,0.3578,1.4539
		c1.0851-0.8198,2.5986-0.2932,2.5986,0.7788c0,1.7965-3.4639,1.281-2.974-0.3535c-0.6556,0.5991-1.5413,0.1211-2.1558-0.1348
		c-1.4694,0.3804-2.7615,0.9281-3.6429,1.8301c-0.7259-0.6658-1.446,0.2545-2.1249,0.3989c0.1041-0.2427,0.4004-0.415,0.0954-0.6747
		c-0.9943,0.215-1.1146,1.2034-2.0562,1.4696c-0.0117-0.3484,0.5646-0.179,0.3609-0.6951
		c-1.6924,0.3188-2.3583,1.5376-3.7647,2.1094c0.0631,1.1492-0.7259,1.5487-1.7729,1.7196
		c-0.4253-0.0953-0.6512-0.4115-1.1044-0.473c-0.3915-0.0088-0.3915,0.3286-0.7831,0.3197
		c-1.2084-0.9811-3.5562-0.0652-4.8028,0.4276c1.179,2.2466-2.5591,3.4763-2.8802,1.2478c-2.889-1.0485-5.0873,1.2738-7.5643,1.4006
		c-0.1877-0.4194-0.8536,0.2698-1.0485-0.1526c-1.0662,0.08-1.166,0.5411-2.6735,0.652c-0.5031-0.0507-0.5837-0.5814-1.1087-0.6021
		c-2.4667,0.2068-3.9186-0.0653-6.1681,0.1063c0.1114-0.5066-0.308-0.4158-0.4444-0.6401c-0.3975,0.022-0.7963,0.0469-1.201,0.0703
		c-0.0939-0.4158,0.6614-0.0908,0.5044-0.5674c-1.3755-0.3191-2.4843,0.7961-3.9713,0.9143
		c-1.7217,0.1379-3.6136-1.1394-5.696-0.9937c-1.3125,0.0911-2.1272,0.6262-3.068,0.3228
		c-0.3806-0.1246-0.4912-0.6555-0.7186-0.7656c-1.4474-0.6833-2.6104,0.5486-3.4763,0.2178c0.2221-0.4648,0.69,0.017,0.9238-0.3262
		c-0.9905-0.0564-1.3916,0.0586-2.5553-0.1108c-1.3038,1.0743-4.6511-3.1288-6.4967-2.2195
		c-1.2935-0.9607-3.1573,0.569-3.9142-0.2992C241.5772,186.8384,237.5706,189.7361,242.4446,190.7832z M335.407,170.6011
		c0.0572,0.5601,0.0734,1.0779-0.6144,0.9783C334.7559,171.0388,334.866,170.6289,335.407,170.6011z M334.8586,172.6504
		c0.1643,0.1453,0.1819,0.46,0.1819,0.7927c-0.264,0.0168-0.5309,0.0322-0.8007,0.0454
		C334.1533,172.9496,334.3262,172.6379,334.8586,172.6504z M333.4713,171.9297c0.0204,0.3109,0.0425,0.6218,0.0586,0.9357
		c-0.3284,0.0374-0.6423,0.0557-0.8094-0.0873C332.697,172.2551,332.8275,171.8629,333.4713,171.9297z M327.6859,178.1866
		c-0.2712,0.0168-0.5352,0.0314-0.8036,0.0483c-0.019-0.3116-0.0397-0.6234-0.0587-0.9349
		c0.3124-0.0198,0.6262-0.0381,0.9371-0.0586C327.7783,177.5991,327.8575,178.0026,327.6859,178.1866z M331.6835,173.3787
		c0.1188,0.6539-0.0659,1.0375-0.7435,0.9854C330.7963,173.6866,330.9225,173.2555,331.6835,173.3787z M329.9986,172.1416
		c0.3284-0.0388,0.6423-0.0602,0.8094,0.0842c0.1027,0.641-0.3373,0.7957-0.8887,0.8588
		C329.9017,172.7311,329.8211,172.3257,329.9986,172.1416z M329.6187,174.7117c-0.1995,1.6968-2.9725,1.3763-2.9521,0.0491
		C326.6902,173.5383,329.321,173.2327,329.6187,174.7117z M325.4289,176.4465c0.0176,0.2639,0.0352,0.5317,0.0499,0.8008
		c-0.4253-0.0411-0.4561,0.272-0.9269,0.1907C324.3525,176.6718,324.6443,176.3403,325.4289,176.4465z M323.2643,178.3223
		c0.4019-0.1188,0.4077,0.2075,0.8096,0.0842c0.1524,0.6776-0.1805,0.9358-0.8859,0.8601
		C323.1675,178.9104,323.0914,178.5062,323.2643,178.3223z"/>
	<path fill="#404065" d="M358.0927,150.7817c0.0682,0.0969-0.0236,0.3553-0.2305,0.7299c0.2451-0.1466,0.4435-0.2428,0.5736-0.2649
		C360.4872,148.7817,358.5552,150.5767,358.0927,150.7817z"/>
	<path fill="#404065" d="M358.0927,150.7817c-0.0187-0.0266-0.0461-0.0444-0.0895-0.0461
		C357.9778,150.8105,358.0179,150.8148,358.0927,150.7817z"/>
	<path fill="#404065" d="M297.7147,349.2637c0-4.86-4.0138-8.824-8.9457-8.824c-4.9304,0-8.9444,3.964-8.9444,8.824
		c0,4.8601,4.014,8.8241,8.9444,8.8241c2.2246,0,4.3525-0.8226,5.8748-2.2013l2.1999,1.886h0.1201l0.8228-0.9181v-0.1202
		l-2.1279-1.8375C296.9638,353.373,297.7147,351.3903,297.7147,349.2637z M294.4503,353.9053l-1.9094-1.644h-0.1203l-0.8226,0.9431
		v0.1216l1.8609,1.5707c-1.2568,1.0865-2.9007,1.7159-4.6898,1.7159c-4.0125,0-7.3239-3.2866-7.3239-7.3489
		c0-4.0621,3.3114-7.3501,7.3239-7.3501c4.0374,0,7.3501,3.288,7.3501,7.3501C296.1191,350.9795,295.49,352.672,294.4503,353.9053z"
		/>
	<path fill="#404065" d="M309.5406,346.363l-0.1216,0.1202v8.2198c-0.7979,1.2333-2.3215,2.031-3.8438,2.031
		c-2.5385,0-3.6985-1.5237-3.6985-4.3276v-5.9232l-0.1203-0.1202h-1.1848l-0.1218,0.1202v6.045
		c0,3.5049,1.6439,5.5594,5.1255,5.5594c1.4753,0,2.8773-0.6776,3.8438-1.6674v1.1835l0.1216,0.1217h1.1835l0.1218-0.1217v-11.1206
		l-0.1218-0.1202H309.5406z"/>
	<path fill="#404065" d="M319.4309,345.9993c-3.4346,0-5.6813,2.6368-5.6813,5.9247c0,3.3585,2.537,6.1638,6.1638,6.1638
		c1.7407,0,3.4331-0.8463,4.3511-1.5707v-1.4036l-0.1203-0.1201c-1.1614,1.0867-2.7321,1.7407-4.2308,1.7407
		c-2.7556,0-4.5447-1.9592-4.6899-4.4729h8.8006l0.2404-0.1201c0.1218-0.2671,0.1218-0.484,0.1218-0.6042
		C324.3863,348.853,322.6938,345.9993,319.4309,345.9993z M315.2484,351.1013c0.2905-2.1045,1.7892-3.7468,4.1826-3.7468
		c2.0296,0,3.4081,1.5955,3.5284,3.7468H315.2484z"/>
	<path fill="#404065" d="M330.6013,356.7341c-1.0396,0-1.7642-0.6775-1.7642-2.6837v-13.1268l-0.1201-0.1216h-1.185l-0.1218,0.1216
		v13.2471c0,2.6603,1.21,3.9171,3.1912,3.9171c0.7729,0,1.5472-0.3622,2.1045-0.726v-1.3535l-0.1216-0.1218
		C331.8582,356.5641,331.2539,356.7341,330.6013,356.7341z"/>
	<path fill="#404065" d="M337.9531,356.7341c-1.0398,0-1.7657-0.6775-1.7657-2.6837v-13.1268l-0.1203-0.1216h-1.185l-0.1201,0.1216
		v13.2471c0,2.6603,1.2083,3.9171,3.1912,3.9171c0.7728,0,1.5455-0.3622,2.1028-0.726v-1.3535l-0.1202-0.1218
		C339.2098,356.5641,338.6055,356.7341,337.9531,356.7341z"/>
	<path fill="#404065" d="M347.189,345.9993c-3.4346,0-5.6813,2.6368-5.6813,5.9247c0,3.3585,2.5371,6.1638,6.1638,6.1638
		c1.7408,0,3.4332-0.8463,4.3512-1.5707v-1.4036l-0.1202-0.1201c-1.1614,1.0867-2.7321,1.7407-4.231,1.7407
		c-2.7555,0-4.5446-1.9592-4.6898-4.4729h8.8005l0.2405-0.1201c0.1216-0.2671,0.1216-0.484,0.1216-0.6042
		C352.1443,348.853,350.4521,345.9993,347.189,345.9993z M343.0066,351.1013c0.2903-2.1045,1.7891-3.7468,4.1824-3.7468
		c2.0297,0,3.4083,1.5955,3.5286,3.7468H343.0066z"/>
	<path fill="#404065" d="M369.747,340.802l-0.1203,0.1216v6.7445c-0.918-0.9913-2.32-1.6688-3.9156-1.6688
		c-3.3127,0-5.9247,2.6603-5.9247,6.0449c0,3.3848,2.6119,6.0436,5.9247,6.0436c1.5956,0,2.9976-0.6776,3.9156-1.6674v1.1835
		l0.1203,0.1217h1.1616l0.1201-0.1217v-16.6803l-0.1201-0.1216H369.747z M369.6267,354.7031c-0.918,1.28-2.32,2.031-3.9156,2.031
		c-2.4901,0-4.4258-2.0061-4.4258-4.6899c0-2.6836,1.9357-4.6897,4.4258-4.6897c1.5956,0,2.9976,0.7976,3.9156,2.0295V354.7031z"/>
	<path fill="#404065" d="M379.6137,345.9993c-3.4346,0-5.6813,2.6368-5.6813,5.9247c0,3.3585,2.5371,6.1638,6.1638,6.1638
		c1.7408,0,3.4332-0.8463,4.3512-1.5707v-1.4036l-0.1203-0.1201c-1.1614,1.0867-2.7321,1.7407-4.2309,1.7407
		c-2.7555,0-4.5446-1.9592-4.6898-4.4729h8.8005l0.2405-0.1201c0.1216-0.2671,0.1216-0.484,0.1216-0.6042
		C384.569,348.853,382.8768,345.9993,379.6137,345.9993z M375.4313,351.1013c0.2903-2.1045,1.7891-3.7468,4.1824-3.7468
		c2.0297,0,3.4083,1.5955,3.5284,3.7468H375.4313z"/>
	<path fill="#404065" d="M393.226,345.9993c-1.4739,0-2.9976,0.6775-3.9641,1.6688v-1.1848l-0.1201-0.1202h-1.1851l-0.1218,0.1202
		v11.1206l0.1218,0.1217h1.1851l0.1201-0.1217v-8.2198c0.7979-1.2319,2.4418-2.0295,3.9641-2.0295
		c0.6041,0,1.4518,0.0468,2.2247,0.6523l0.1218-0.1216l-0.1218-1.402C394.7247,346.1211,393.9519,345.9993,393.226,345.9993z"/>
	<path fill="#404065" d="M409.1845,340.802h-1.2802l-0.1216,0.1216l-6.7197,16.6803l0.1203,0.1217h1.3053l0.1201-0.1217
		l1.9593-4.8835h7.9545l1.9812,4.8835l0.1218,0.1217h1.2802l0.1218-0.1217l-6.7211-16.6803L409.1845,340.802z M405.1487,351.3184
		l3.4083-8.6539l3.4081,8.6539H405.1487z"/>
	<path fill="#404065" d="M421.6382,356.7341c-1.0383,0-1.7642-0.6775-1.7642-2.6837v-13.1268l-0.1216-0.1216h-1.185l-0.1203,0.1216
		v13.2471c0,2.6603,1.2084,3.9171,3.1911,3.9171c0.7743,0,1.5472-0.3622,2.103-0.726v-1.3535l-0.1203-0.1218
		C422.8965,356.5641,422.2924,356.7341,421.6382,356.7341z"/>
	<path fill="#404065" d="M431.7206,345.9993c-1.5707,0-2.9727,0.6775-3.8922,1.6688v-1.1848l-0.1203-0.1202h-1.185l-0.1216,0.1202
		v16.6801l0.1216,0.1218h1.185l0.1203-0.1218v-6.7429c0.9195,0.9897,2.3215,1.6674,3.8922,1.6674
		c3.3363,0,5.9232-2.6588,5.9232-6.0436C437.6437,348.6595,435.0569,345.9993,431.7206,345.9993z M431.7206,356.7341
		c-1.5707,0-2.9976-0.751-3.8922-2.031v-5.3191c0.8945-1.2319,2.3215-2.0295,3.8922-2.0295c2.5151,0,4.4245,2.0061,4.4245,4.6897
		C436.1451,354.728,434.2357,356.7341,431.7206,356.7341z"/>
	<path fill="#404065" d="M445.7448,345.9993c-3.433,0-5.6813,2.6368-5.6813,5.9247c0,3.3585,2.5386,6.1638,6.1653,6.1638
		c1.7393,0,3.4317-0.8463,4.3512-1.5707v-1.4036l-0.1218-0.1201c-1.1599,1.0867-2.7306,1.7407-4.2294,1.7407
		c-2.757,0-4.5461-1.9592-4.6899-4.4729h8.799l0.2421-0.1201c0.1216-0.2671,0.1216-0.484,0.1216-0.6042
		C450.7016,348.853,449.0093,345.9993,445.7448,345.9993z M441.5623,351.1013c0.2905-2.1045,1.7891-3.7468,4.1824-3.7468
		c2.0297,0,3.4083,1.5955,3.5286,3.7468H441.5623z"/>
	<path fill="#404065" d="M458.8745,345.9993c-1.4738,0-2.8758,0.6775-3.8438,1.6688v-1.1848l-0.1202-0.1202h-1.185l-0.1203,0.1202
		v11.1206l0.1203,0.1217h1.185l0.1202-0.1217v-8.2198c0.7979-1.2319,2.3201-2.0295,3.8438-2.0295
		c2.5385,0,3.7001,1.522,3.7001,4.326v5.9233l0.1203,0.1217h1.1848L464,357.6039v-6.0436
		C464,348.0554,462.3561,345.9993,458.8745,345.9993z"/>
	<path fill="#404065" d="M257.4258,357.2679h16.0327v-16.032h-16.0327V357.2679z M260.515,347.7708h3.4449v-3.4463h2.9668v3.4463
		h3.4433v2.958h-3.4433v3.4508h-2.9668v-3.4508h-3.4449V347.7708z"/>
	<rect fill="none" width="512" height="512"/>
</g>
</svg>
