<?xml version="1.0" encoding="utf-8"?>
<!-- Generator: Adobe Illustrator 18.1.1, SVG Export Plug-In . SVG Version: 6.00 Build 0)  -->
<!DOCTYPE svg PUBLIC "-//W3C//DTD SVG 1.1//EN" "http://www.w3.org/Graphics/SVG/1.1/DTD/svg11.dtd">
<svg version="1.1" id="XMLID_2_" xmlns="http://www.w3.org/2000/svg" xmlns:xlink="http://www.w3.org/1999/xlink" x="0px" y="0px"
	 viewBox="0 0 512 512" enable-background="new 0 0 512 512" xml:space="preserve">
<g id="Courtiers-Partenaires">
	<path fill="#404065" d="M204.5738,238.5056c2.377,0,3.2773,1.4775,3.73,3.115h7.291c-1.0659-6.4315-5.5303-9.5051-11.0601-9.5051
		c-3.3984,0-5.9805,1.1482-8.1099,3.277c-3.0742,3.0754-2.9507,7.1694-2.9507,11.553c0,4.3855-0.1235,8.4795,2.9507,11.5514
		c2.1294,2.1306,4.7114,3.2769,8.1099,3.2769c5.5298,0,9.9941-3.0699,11.0601-9.5015h-7.291
		c-0.4526,1.6375-1.353,3.1115-3.73,3.1115c-1.3105,0-2.2925-0.5309-2.8267-1.229c-0.6553-0.8585-1.103-1.8824-1.103-7.2092
		c0-5.3248,0.4478-6.3488,1.103-7.209C202.2813,239.0402,203.2633,238.5056,204.5738,238.5056z"/>
	<path fill="#404065" d="M231.0787,232.1155c-3.564,0-6.0249,1.1482-8.1543,3.277c-3.0693,3.0717-2.9458,7.1713-2.9458,11.5494
		c0,4.3855-0.1235,8.4813,2.9458,11.5532c2.1294,2.1323,4.5903,3.2769,8.1543,3.2769c3.5615,0,6.02-1.1445,8.1519-3.2769
		c3.0713-3.0719,2.9478-7.1677,2.9478-11.5532c0-4.3782,0.1235-8.4778-2.9478-11.5494
		C237.0987,233.2637,234.6402,232.1155,231.0787,232.1155z M233.9454,254.0701c-0.5347,0.6981-1.5586,1.3136-2.8667,1.3136
		c-1.311,0-2.3374-0.6155-2.8662-1.3136c-0.6582-0.8585-1.0688-1.7996-1.0688-7.1282c0-5.3213,0.4106-6.3057,1.0688-7.1659
		c0.5288-0.6963,1.5552-1.2704,2.8662-1.2704c1.3081,0,2.332,0.5741,2.8667,1.2704c0.6577,0.8602,1.0654,1.8446,1.0654,7.1659
		C235.0108,252.2705,234.6031,253.2115,233.9454,254.0701z"/>
	<path fill="#404065" d="M263.1529,251.1223c0,2.7065-1.5581,4.2614-3.9321,4.2614c-2.377,0-3.8535-1.5548-3.8535-4.2614v-18.7584
		h-7.1675v18.9241c0,6.392,4.9565,10.4857,11.021,10.4857c6.0591,0,11.0972-4.0938,11.0972-10.4857v-18.9241h-7.165V251.1223z"/>
	<path fill="#404065" d="M298.7891,241.7412c0-4.7904-3.48-9.3773-9.9521-9.3773h-11.5527v29.165h7.1675v-10.8566h2.4189
		l5.1616,10.8566h8.3149l-6.312-12.1666C296.3331,248.2142,298.7891,245.7164,298.7891,241.7412z M288.5079,244.6925h-4.0562
		v-5.8988h4.0562c1.9663,0,3.1138,1.4342,3.1138,2.9475C291.6216,243.2583,290.4742,244.6925,288.5079,244.6925z"/>
	<polygon fill="#404065" points="311.0001,261.5289 318.1671,261.5289 318.1671,238.7539 325.3321,238.7539 325.3321,232.3639 
		303.8277,232.3639 303.8277,238.7539 311.0001,238.7539 	"/>
	<rect x="331.0728" y="232.3608" fill="#404065" width="7.1675" height="29.1664"/>
	<polygon fill="#404065" points="365.5191,255.137 352.8585,255.137 352.8585,250.0173 363.6768,250.0173 363.6768,243.6254 
		352.8585,243.6254 352.8585,238.7504 365.5191,238.7504 365.5191,232.3601 345.6939,232.3601 345.6939,261.5272 365.5191,261.5272 
			"/>
	<path fill="#404065" d="M393.6602,241.7412c0-4.7904-3.4824-9.3773-9.9521-9.3773h-11.5527v29.165h7.1675v-10.8566h2.4189
		l5.1616,10.8566h8.3125l-6.3066-12.1666C391.2022,248.2142,393.6602,245.7164,393.6602,241.7412z M383.379,244.6925h-4.0562
		v-5.8988h4.0562c1.9688,0,3.1138,1.4342,3.1138,2.9475C386.4927,243.2583,385.3477,244.6925,383.379,244.6925z"/>
	<path fill="#404065" d="M408.7764,255.3837c-2.3369,0-5.001-0.5309-6.5146-2.048l-4.5898,4.5889
		c2.9551,3.0304,6.5957,3.8491,11.0625,3.8491c6.1436,0,11.2656-3.2373,11.2656-9.174c0-2.7047-0.6133-4.8749-2.1714-6.392
		c-1.2295-1.229-3.1143-2.048-5.7378-2.415l-3.5195-0.4932c-1.0239-0.1204-1.6396-0.4912-2.0107-0.86
		c-0.4502-0.45-0.5713-0.9827-0.5713-1.3517c0-1.2704,1.0239-2.7028,3.5215-2.7028c1.269,0,3.6904-0.1224,5.5327,1.7184
		l4.5034-4.5059c-2.5-2.4979-5.6509-3.4822-9.8306-3.4822c-6.6357,0-10.6499,3.8923-10.6499,9.2174
		c0,2.5011,0.6528,4.4663,2.0059,5.8593c1.3135,1.3514,3.2793,2.2117,5.8594,2.5804l3.5215,0.4912
		c0.9424,0.1244,1.5557,0.4104,1.9268,0.7794c0.4106,0.4498,0.5713,1.0221,0.5713,1.7185
		C412.9512,254.4407,411.6011,255.3837,408.7764,255.3837z"/>
	<polygon fill="#404065" points="140.422,261.5327 158.712,243.2385 163.5963,248.1189 170.3707,248.1189 156.9581,261.5327 
		168.9415,261.5327 176.3629,254.1078 176.3604,261.5327 184.1807,261.5327 184.1807,240.298 161.6549,240.298 176.3629,225.5903 
		176.3629,232.3708 184.1807,240.1864 184.1832,211.777 155.776,211.777 163.5987,219.5996 170.3707,219.5979 155.7388,234.2283 
		155.7388,211.7787 127.3341,211.7787 135.1519,219.5941 141.9312,219.5979 100.0001,261.5327 111.9752,261.5327 147.921,225.5848 
		147.9185,232.3639 152.7637,237.2081 128.4395,261.5327 	"/>
	<path fill="#404065" d="M151.3614,270.8112h-11.0601v29.1671h4.4219v-11.472h6.6382c5.6885,0,9.3389-3.7666,9.3389-8.8467
		C160.7003,274.5812,157.0499,270.8112,151.3614,270.8112z M151.1143,284.495h-6.3911v-9.7086h6.3911
		c3.0713,0,5.1616,1.8013,5.1616,4.8732S154.1856,284.495,151.1143,284.495z"/>
	<path fill="#404065" d="M173.1065,270.8112l-10.6914,29.1671h4.7114l2.0083-5.8575h11.5078l2.0132,5.8575h4.7065l-10.6895-29.1671
		H173.1065z M170.4454,290.3525l4.5459-12.9462l4.4219,12.9462H170.4454z"/>
	<path fill="#404065" d="M213.7442,279.3337c0-4.9595-3.5244-8.5226-9.0547-8.5226h-11.3027v29.1671h4.4224V287.689h5.5303
		l6.1436,12.2893h5.1611l-6.7168-12.9028C211.2066,286.1721,213.7442,283.5106,213.7442,279.3337z M197.8092,283.9189v-9.1326
		h6.5542c2.9482,0,4.9561,1.7185,4.9561,4.5869c0,2.8667-2.0078,4.5457-4.9561,4.5457H197.8092z"/>
	<polygon fill="#404065" points="219.5167,274.7864 227.547,274.7864 227.547,299.9783 231.9718,299.9783 231.9718,274.7864 
		240.0025,274.7864 240.0025,270.8112 219.5167,270.8112 	"/>
	<polygon fill="#404065" points="246.9224,299.9783 265.5606,299.9783 265.5606,296.0066 251.3468,296.0066 251.3468,287.2373 
		263.4708,287.2373 263.4708,283.3054 251.3468,283.3054 251.3468,274.7864 265.5606,274.7864 265.5606,270.8112 246.9224,270.8112 
			"/>
	<polygon fill="#404065" points="291.043,291.2936 277.566,270.8112 273.5098,270.8112 273.5098,299.9783 277.9346,299.9783 
		277.9346,279.4543 291.4112,299.9783 295.4649,299.9783 295.4649,270.8112 291.043,270.8112 	"/>
	<path fill="#404065" d="M312.1768,270.8112l-10.6895,29.1671h4.7065l2.0107-5.8575h11.5103l2.0083,5.8575h4.7114l-10.6919-29.1671
		H312.1768z M309.5152,290.3525l4.5483-12.9462l4.4224,12.9462H309.5152z"/>
	<rect x="332.4551" y="270.8119" fill="#404065" width="4.4248" height="29.1664"/>
	<path fill="#404065" d="M366.7403,279.3337c0-4.9595-3.5215-8.5226-9.0518-8.5226h-11.3052v29.1671h4.4224V287.689h5.5298
		l6.146,12.2893h5.1616l-6.7197-12.9028C364.2003,286.1721,366.7403,283.5106,366.7403,279.3337z M350.8057,283.9189v-9.1326h6.5537
		c2.9507,0,4.9561,1.7185,4.9561,4.5869c0,2.8667-2.0054,4.5457-4.9561,4.5457H350.8057z"/>
	<polygon fill="#404065" points="375.0972,299.9783 393.7354,299.9783 393.7354,296.0066 379.5215,296.0066 379.5215,287.2373 
		391.648,287.2373 391.648,283.3054 379.5215,283.3054 379.5215,274.7864 393.7354,274.7864 393.7354,270.8112 375.0972,270.8112 	
		"/>
	<path fill="#404065" d="M412.086,283.5123l-3.3188-0.4949c-1.3501-0.2034-2.54-0.6946-3.2769-1.3514
		c-0.7793-0.6963-1.1055-1.6376-1.1055-2.703c0-2.5787,1.8867-4.5457,5.3247-4.5457c2.4585,0,4.5483,0.5309,6.3511,2.2532
		l2.8247-2.7877c-2.498-2.334-5.1987-3.3163-9.0522-3.3163c-6.0615,0-9.7471,3.4802-9.7471,8.5603
		c0,2.3773,0.6929,4.2181,2.1274,5.5713c1.2734,1.1879,3.1528,2.0065,5.5298,2.3361l3.4404,0.4894
		c1.7212,0.2465,2.4585,0.5344,3.1953,1.2291c0.7788,0.6963,1.1475,1.7634,1.1475,3.0321c0,2.8271-2.2109,4.463-6.022,4.463
		c-2.9902,0-5.3252-0.655-7.4521-2.7838l-2.9531,2.908c2.7876,2.8269,5.9438,3.8511,10.3237,3.8511
		c6.1035,0,10.4863-3.196,10.4863-8.5624c0-2.4977-0.7769-4.5869-2.3745-5.9799
		C416.3057,284.5741,414.7896,283.9189,412.086,283.5123z"/>
	<rect fill="none" width="512" height="512"/>
</g>
</svg>
