<?xml version="1.0" encoding="utf-8"?>
<!-- Generator: Adobe Illustrator 18.1.1, SVG Export Plug-In . SVG Version: 6.00 Build 0)  -->
<!DOCTYPE svg PUBLIC "-//W3C//DTD SVG 1.1//EN" "http://www.w3.org/Graphics/SVG/1.1/DTD/svg11.dtd">
<svg version="1.1" id="XMLID_2_" xmlns="http://www.w3.org/2000/svg" xmlns:xlink="http://www.w3.org/1999/xlink" x="0px" y="0px"
	 viewBox="0 0 512 512" enable-background="new 0 0 512 512" xml:space="preserve">
<g id="Credit-Agricole">
	<rect x="130.4869" y="324.5181" fill="#404065" width="236.0002" height="21.1072"/>
	<path fill="#404065" d="M327.0874,196.4264c-4.5,1.1442-7.0366,0.7799-7.0078,0.7531c-0.0288,0.0269,4.6582,14.15,6.241,15.6914
		c0.7471,1.5771,3.8728,5.6516,11.8601,2.4979c8.6877-3.2421,45.77-24.5499,45.8193-24.5416v-24.4524
		C383.9507,166.3569,332.7351,194.9904,327.0874,196.4264z"/>
	<path fill="#404065" d="M324.5981,234.7061l0.0017-0.0009l-24.3677-54.0057h-35.4524l-49.7974,92.9097
		c0.0386,0.0173,24.5002-0.7528,40.1775-12.5675c3.9666-2.3301,15.1392-31.6805,25.3757-51.42l15.9292,39.8816l0.0037-0.002
		l-0.0037,0.0022c-24.0767,12.3273-46.9438,23.1422-59.2571,26.6235c-32.4871,9.3564-72.0571,14.97-86.2742,2.3828
		c-13.3674-11.8691,17.502-61.5641,75.8943-72.6213c9.4675-2.1099,14.9944-1.5684,14.9944-1.5072
		c0-0.0612-4.0029-16.9934-7.1179-20.5621c-4.3542-5.3271-8.6206-6.4232-14.9814-5.6158
		c-12.6399,0.7526-66.4082,15.0864-87.6235,59.8835c-11.8303,25.4528,4.6868,52.2386,14.9585,59.231
		c3.1311,2.5112,34.7725,30.057,104.9976,2.5293c19.012-7.3757,37.4788-15.91,54.2849-24.4191
		c2.6028,6.1184,10.083,23.9019,11.9958,29.0278c2.4966,5.6162,8.7317,5.6162,8.7317,5.5891h32.4592l-24.1731-50.0978
		c29.2188-16.3759,48.6184-29.597,48.646-29.597v-28.4382c-0.0269-0.0356-27.502,15.7085-59.4001,32.7935L324.5981,234.7061z"/>
	<rect fill="none" width="512" height="512"/>
</g>
</svg>
