<?xml version="1.0" encoding="utf-8"?>
<!-- Generator: Adobe Illustrator 18.1.1, SVG Export Plug-In . SVG Version: 6.00 Build 0)  -->
<!DOCTYPE svg PUBLIC "-//W3C//DTD SVG 1.1//EN" "http://www.w3.org/Graphics/SVG/1.1/DTD/svg11.dtd">
<svg version="1.1" id="XMLID_2_" xmlns="http://www.w3.org/2000/svg" xmlns:xlink="http://www.w3.org/1999/xlink" x="0px" y="0px"
	 viewBox="0 0 512 512" enable-background="new 0 0 512 512" xml:space="preserve">
<g id="Electrosanne">
	<path fill="#404065" d="M269.1165,243.8983c-0.1531-0.3043-0.3375-0.4776-0.5551-0.5219c-0.2176-0.0424-0.4334-0.0645-0.651-0.0645
		h-0.1955v9.447h0.1955c0.2176,0,0.4334-0.0212,0.651-0.0655c0.2176-0.0424,0.402-0.2167,0.5551-0.521
		c0.1512-0.3034,0.2822-0.7819,0.391-1.4339c0.107-0.651,0.1623-1.5639,0.1623-2.7359c0-1.1729-0.0553-2.0738-0.1623-2.7045
		C269.3987,244.6692,269.2677,244.2026,269.1165,243.8983z"/>
	<polygon fill="#404065" points="358.4704,264.2252 361.0117,264.2252 359.7097,255.7556 	"/>
	<path fill="#404065" d="M300.682,243.3118c-0.2176,0-0.4555,0.1411-0.7156,0.4232c-0.2619,0.2831-0.391,0.923-0.391,1.9217v20.3278
		c0,0.9996,0.1291,1.6395,0.391,1.9217c0.26,0.2831,0.498,0.4242,0.7156,0.4242c0.2176,0,0.4555-0.1411,0.7174-0.4242
		c0.26-0.2822,0.391-0.9221,0.391-1.9217v-20.3278c0-0.9986-0.131-1.6386-0.391-1.9217
		C301.1375,243.4529,300.8996,243.3118,300.682,243.3118z"/>
	<path fill="#404065" d="M112.9034,226.855v58.29h355.0967v-58.29H112.9034z M140.9953,250.8694v9.317h-8.4041v7.8176h10.3589
		v9.7079h-22.0217v-43.5871h20.8488l1.4994,9.7079h-10.6854v7.0366H140.9953z M168.8808,277.7119H146.859v-43.5871h11.6619v33.8791
		h10.3599V277.7119z M191.488,250.8694v9.317h-8.4041v7.8176h10.3589v9.7079h-22.0217v-43.5871H192.27l1.4993,9.7079H183.084v7.0366
		H191.488z M211.424,243.7351c-0.26-0.2822-0.4998-0.4232-0.7155-0.4232c-0.2195,0-0.4574,0.1411-0.7174,0.4232
		c-0.26,0.2831-0.391,0.923-0.391,1.9217v20.3278c0,0.9996,0.131,1.6395,0.391,1.9217c0.26,0.2831,0.4979,0.4242,0.7174,0.4242
		c0.2158,0,0.4555-0.1411,0.7155-0.4242c0.2619-0.2822,0.391-0.9221,0.391-1.9217v-2.3458h11.5983
		c0,4.605-1.0659,8.2418-3.1923,10.9131c-2.1301,2.6714-5.3003,4.0066-9.5125,4.0066c-2.6501,0-4.854-0.5431-6.6134-1.6284
		c-1.7594-1.0844-3.172-2.616-4.2343-4.593c-1.066-1.9761-1.8258-4.3652-2.2813-7.1675c-0.4555-2.8014-0.6842-5.9172-0.6842-9.3483
		s0.2287-6.5368,0.6842-9.317c0.4555-2.7792,1.2153-5.1472,2.2813-7.1021c1.0623-1.9549,2.4749-3.4634,4.2343-4.5275
		c1.7594-1.0641,3.9632-1.5971,6.6134-1.5971c4.2122,0,7.3824,1.3039,9.5125,3.9097c2.1264,2.6059,3.1923,6.2113,3.1923,10.8154
		h-11.5983v-2.3458C211.8149,244.6581,211.6859,244.0181,211.424,243.7351z M253.0571,243.8328h-7.7531v33.8791h-11.6628v-33.8791
		h-7.8195v-9.7079h27.2353V243.8328z M270.9072,277.7119l-2.3458-14.9197c-0.0867-0.5643-0.1734-1.042-0.26-1.433
		s-0.1733-0.7174-0.26-0.9774c-0.1309-0.3043-0.2397-0.5431-0.3264-0.7174v18.0475h-11.6628v-43.5871h12.3138
		c8.9039,0,13.3576,4.6262,13.3576,13.8777c0,2.4758-0.5219,4.5285-1.5639,6.1569c-1.0438,1.6284-2.4768,2.8779-4.3007,3.7456
		c0.9996,0.3486,1.9641,0.9682,2.8991,1.8571c0.9332,0.8907,1.6174,2.0747,2.0526,3.551c0.391,1.3905,0.7063,2.7589,0.9442,4.1043
		c0.2379,1.3472,0.4666,2.6391,0.6842,3.8766c0.2176,1.2384,0.4573,2.4012,0.7174,3.4856c0.26,1.0862,0.6068,2.0637,1.042,2.9323
		H270.9072z M313.8755,265.1694c-0.4555,2.8023-1.2282,5.1914-2.3127,7.1675c-1.0862,1.977-2.5081,3.5086-4.2675,4.593
		c-1.7594,1.0853-3.9651,1.6284-6.6133,1.6284c-2.6501,0-4.854-0.5431-6.6134-1.6284c-1.7594-1.0844-3.1702-2.616-4.2343-4.593
		c-1.0641-1.9761-1.8239-4.3652-2.2794-7.1675c-0.4574-2.8014-0.6842-5.9172-0.6842-9.3483s0.2268-6.5368,0.6842-9.317
		c0.4555-2.7792,1.2153-5.1472,2.2794-7.1021c1.0641-1.9549,2.4749-3.4634,4.2343-4.5275c1.7594-1.0641,3.9632-1.5971,6.6134-1.5971
		c2.6483,0,4.865,0.533,6.6465,1.5971c1.7797,1.0641,3.2015,2.5727,4.2675,4.5275c1.0623,1.9549,1.8239,4.3228,2.2794,7.1021
		c0.4555,2.7802,0.6842,5.8858,0.6842,9.317S314.3311,262.3681,313.8755,265.1694z M342.3465,271.7182
		c-0.8041,1.6506-1.8239,2.9637-3.0632,3.9411c-1.2375,0.9774-2.6169,1.6617-4.1366,2.0526
		c-1.5215,0.391-3.019,0.5865-4.4962,0.5865c-2.084,0-3.9964-0.3375-5.7336-1.0106c-1.7373-0.6722-3.2237-1.6377-4.4612-2.8991
		c-1.2393-1.2587-2.1946-2.8226-2.8678-4.6898c-0.6731-1.8682-1.0106-3.9743-1.0106-6.3201h12.9666v1.1075
		c0,1.7382,0.107,2.8447,0.3246,3.3224c0.2176,0.4786,0.4777,0.7174,0.782,0.7174s0.5643-0.1521,0.782-0.4564
		c0.2176-0.3034,0.3264-0.8474,0.3264-1.6294c0-0.8677-0.0977-1.5952-0.2932-2.1817c-0.1955-0.5865-0.4887-1.1084-0.8797-1.5639
		c-0.391-0.4565-0.8797-0.8898-1.4662-1.3039c-0.5865-0.4113-1.2707-0.8788-2.0526-1.3997
		c-1.9549-1.2596-3.5722-2.4768-4.854-3.6488c-1.2817-1.1729-2.2794-2.3228-2.9968-3.4533
		c-0.7155-1.1286-1.2153-2.2573-1.4975-3.3878c-0.284-1.1287-0.4242-2.2804-0.4242-3.4533c0-2.4316,0.391-4.451,1.1729-6.0592
		c0.782-1.6063,1.7797-2.888,2.9968-3.8433c1.2154-0.9553,2.5745-1.6294,4.072-2.0203c1.4994-0.391,2.9858-0.5865,4.463-0.5865
		c4.1698,0,7.3289,1.2817,9.4792,3.8443c2.1504,2.5634,3.2255,6.1025,3.2255,10.6199h-11.5964v-0.6519
		c0-1.7363-0.1088-2.8438-0.3264-3.3224c-0.2176-0.4776-0.4777-0.7165-0.782-0.7165s-0.5643,0.1521-0.782,0.4555
		c-0.2176,0.3043-0.3264,0.8474-0.3264,1.6284c0,1.0429,0.153,1.9014,0.4574,2.5745c0.3024,0.6731,0.651,1.2163,1.042,1.6284
		c0.391,0.4131,0.7709,0.7285,1.1397,0.9442c0.3688,0.2176,0.6197,0.3486,0.7506,0.391c4.0388,2.1725,6.9269,4.4095,8.6641,6.7111
		c1.7372,2.3025,2.6059,4.9296,2.6059,7.884C343.5508,268.004,343.1487,270.0677,342.3465,271.7182z M363.0312,277.7119
		l-0.8465-5.5382h-4.9517l-0.782,5.5382h-11.7274l8.8615-43.5871h12.3138l8.8596,43.5871H363.0312z M404.4024,277.7119h-11.6628
		l-3.3878-16.5481v16.5481h-11.6609v-43.5871h12.3784l3.3233,16.2226v-16.2226h11.0099V277.7119z M434.8928,277.7119h-11.6628
		l-3.3878-16.5481v16.5481h-11.6609v-43.5871h12.3784l3.3233,16.2226v-16.2226h11.0099V277.7119z M458.7384,250.8694v9.317h-8.4041
		v7.8176h10.3589v9.7079h-22.0217v-43.5871h20.8488l1.4975,9.7079h-10.6835v7.0366H458.7384z"/>
	<path fill="#404065" d="M52.0001,285.0427h58.0872v-58.0862H52.0001V285.0427z M75.464,249.8542h14.1747v-3.0181H75.464v-12.2954
		h26.47v27.6106h-26.47V249.8542z M75.464,265.163h26.4672v12.2945H75.464V265.163z M60.1533,234.5407h12.2944v42.8134H60.1533
		V234.5407z"/>
	<rect fill="none" width="512" height="512"/>
</g>
</svg>
