<?xml version="1.0" encoding="utf-8"?>
<!-- Generator: Adobe Illustrator 18.1.1, SVG Export Plug-In . SVG Version: 6.00 Build 0)  -->
<!DOCTYPE svg PUBLIC "-//W3C//DTD SVG 1.1//EN" "http://www.w3.org/Graphics/SVG/1.1/DTD/svg11.dtd">
<svg version="1.1" id="XMLID_2_" xmlns="http://www.w3.org/2000/svg" xmlns:xlink="http://www.w3.org/1999/xlink" x="0px" y="0px"
	 viewBox="0 0 512 512" enable-background="new 0 0 512 512" xml:space="preserve">
<g id="Foncia">
	<g>
		<g>
			<g>
				<path fill="#404065" d="M128.0001,369.6951c3.4304-0.1396,5.2223-1.0461,5.2223-5.372v-28.7665
					c0-4.8141-2.1249-5.3022-5.2223-5.4184v-1.4888h37.1966l0.4611,12.1396h-1.5618c-1.6128-7.7674-5.4271-9.6745-13.7218-9.6745
					h-2.5088c-2.0734,0-2.5856,0.7448-2.5856,2.907v13.7209c6.9888,0.0699,9.4976-3.2563,10.3424-9.8604h1.5618v21.325h-1.6896
					c-0.896-5.9763-3.1742-9.7207-10.2146-9.3015v14.4178c0,4.326,1.7923,5.2324,7.1683,5.372v1.4653h-24.448V369.6951z"/>
				<path fill="#404065" d="M190.9502,327.5333c13.7729,0,23.4242,9.6282,23.4242,22.372c0,12.7665-9.6513,22.3711-23.4242,22.3711
					c-13.7724,0-23.4238-9.6046-23.4238-22.3711C167.5265,337.1614,177.1778,327.5333,190.9502,327.5333 M190.9502,370.1134
					c10.2914,0,10.4193-12.6268,10.4193-19.6501c0-6.7675-0.128-20.767-10.4193-20.767c-10.2909,0-10.4188,13.9995-10.4188,20.767
					C180.5314,357.4866,180.6593,370.1134,190.9502,370.1134z"/>
				<path fill="#404065" d="M215.3472,369.6951c4.2495-0.186,5.555-2.1158,5.6833-5.8602v-29.8135
					c-1.4338-1.7902-2.9698-4.2552-5.6833-3.8833v-1.4888h16.2306l23.859,25.3951v-18.0696c0-5.1625-2.7651-5.9065-6.7072-5.8367
					v-1.4888h14.7972v1.4888c-3.6099,0.186-4.9153,2.0931-4.9668,5.8367v36.3016h-1.5613l-32.8708-34.6966v26.2552
					c0,5.1625,2.8419,5.9065,7.1168,5.8602v1.4653h-15.8974V369.6951z"/>
				<path fill="#404065" d="M304.9987,342.2078h-1.6643c-2.3298-5.7912-7.6547-12.2094-15.0273-12.2094
					c-8.5244,0-10.9825,7.9532-10.9825,19.4876c0,11.5117,2.4581,19.5113,10.9825,19.5113c7.5778,0,13.1333-4.1862,16.7686-8.9767
					v4.256c-3.892,5.0926-10.8804,7.9996-17.3318,7.9996c-14.5662,0-23.4241-9.6046-23.4241-22.3711
					c0-12.7438,9.7023-22.6042,23.5525-22.372c3.2764,0.0699,6.5273,0.744,10.2141,2.163c2.4572,0.8601,4.7101,0.6278,5.3763-2.0931
					h1.536V342.2078z"/>
				<path fill="#404065" d="M309.2226,369.6951c3.9932-0.1396,5.4785-0.4418,5.4785-5.4183v-28.7202
					c0-5.0001-1.4853-5.3022-5.4785-5.4184v-1.4888h23.0146v1.4888c-3.9941,0.1162-5.5038,0.4183-5.5038,5.4184v28.7202
					c0,4.9765,1.5097,5.2787,5.5038,5.4183v1.4653h-23.0146V369.6951z"/>
				<path fill="#404065" d="M333.0816,369.6951c4.6595-0.558,5.1197-2.9768,7.1168-7.2093l16.2305-34.9525h2.2014l16.0516,31.4413
					c1.2286,2.5114,2.4573,5.2324,3.9417,7.5814c1.178,1.9071,2.9951,3.1392,5.3764,3.1392v1.4653h-24.576v-1.4653
					c0.8445,0,2.1246,0.0464,3.2257-0.2558c1.1771-0.372,1.9455-1.116,1.9455-2.2093c0-1.4182-1.997-5.3022-2.5856-6.4645
					l-0.8453-1.791h-16.2297c-0.8453,1.5814-2.4066,5.4184-2.4066,7.0696c0,3.2789,3.0974,3.6509,5.8367,3.6509v1.4653h-15.2831
					 M359.7315,356.5094l-7.0399-14.3715l-6.605,14.3715H359.7315z"/>
				<polygon fill="#404065" points="178.3554,162.7929 178.3554,182.9552 220.6206,182.9552 220.6206,139.7237 				"/>
				<polygon fill="#404065" points="234.7008,139.7237 234.7008,182.9552 276.9919,182.9552 276.9919,162.8161 				"/>
				<rect x="178.3555" y="197.0245" fill="#404065" width="42.2656" height="42.2784"/>
				<polygon fill="#404065" points="234.7008,219.2336 234.7008,239.3029 276.9919,239.3029 276.9919,196.0478 				"/>
				<polygon fill="#404065" points="291.0717,196.0714 291.0717,239.3029 333.3375,239.3029 333.3375,219.2336 				"/>
				<rect x="178.3555" y="253.3954" fill="#404065" width="42.2656" height="42.2784"/>
				<rect x="234.7009" y="253.3954" fill="#404065" width="42.2657" height="42.2784"/>
				<rect x="291.0717" y="253.4185" fill="#404065" width="42.2657" height="42.2783"/>
				<rect x="128.1022" y="309.9754" fill="#404065" width="252.9279" height="4.6743"/>
			</g>
		</g>
	</g>
	<rect fill="none" width="512" height="512"/>
</g>
</svg>
