<?xml version="1.0" encoding="utf-8"?>
<!-- Generator: Adobe Illustrator 18.1.1, SVG Export Plug-In . SVG Version: 6.00 Build 0)  -->
<!DOCTYPE svg PUBLIC "-//W3C//DTD SVG 1.1//EN" "http://www.w3.org/Graphics/SVG/1.1/DTD/svg11.dtd">
<svg version="1.1" id="XMLID_2_" xmlns="http://www.w3.org/2000/svg" xmlns:xlink="http://www.w3.org/1999/xlink" x="0px" y="0px"
	 viewBox="0 0 512 512" enable-background="new 0 0 512 512" xml:space="preserve">
<g id="Horizon-Vert">
	<g>
		<path fill="#404065" d="M48,263.0765c1.8805-0.3053,3.7255-0.458,5.5516-0.458c1.8208,0,3.6984,0.1526,5.6255,0.458v21.4382
			h18.323v-21.4382c1.8805-0.3053,3.7258-0.458,5.549-0.458c1.8286,0,3.6956,0.1526,5.628,0.458v54.6585
			c-1.9324,0.3081-3.7749,0.458-5.549,0.458c-1.878,0-3.7476-0.1499-5.628-0.458v-23.6376h-18.323v23.6376
			c-1.9271,0.3081-3.7721,0.458-5.549,0.458c-1.8752,0-3.7476-0.1499-5.628-0.458V263.0765z"/>
		<path fill="#404065" d="M114.9776,318.6482c-3.1941,0-5.9632-0.5233-8.3206-1.5534c-2.3549-1.0413-4.3119-2.4858-5.8544-4.3336
			c-1.5453-1.8531-2.7119-4.0199-3.4967-6.5002c-0.7851-2.4828-1.183-5.17-1.183-8.0536c0-2.8972,0.398-5.609,1.183-8.1409
			c0.7848-2.5347,1.9514-4.7288,3.4967-6.5767c1.5425-1.8531,3.4995-3.3085,5.8544-4.3769
			c2.3574-1.0575,5.1265-1.5916,8.3206-1.5916c3.1941,0,5.9825,0.5342,8.3672,1.5916c2.3764,1.0683,4.3579,2.5237,5.925,4.3769
			c1.5726,1.8478,2.7417,4.042,3.5022,6.5767c0.7549,2.5319,1.1364,5.2437,1.1364,8.1409c0,2.8835-0.3815,5.5708-1.1364,8.0536
			c-0.7605,2.4802-1.9296,4.647-3.5022,6.5002c-1.5671,1.8478-3.5486,3.2924-5.925,4.3336
			C120.96,318.1249,118.1717,318.6482,114.9776,318.6482z M114.9776,310.4445c2.8453,0,4.8812-1.0575,6.1323-3.1615
			c1.2319-2.0984,1.8506-5.1293,1.8506-9.0756c0-3.9574-0.6187-6.988-1.8506-9.092c-1.2511-2.104-3.2871-3.159-6.1323-3.159
			c-2.7828,0-4.7966,1.055-6.0397,3.159c-1.24,2.104-1.8612,5.1346-1.8612,9.092c0,3.9463,0.6212,6.9771,1.8612,9.0756
			C110.1809,309.387,112.1948,310.4445,114.9776,310.4445z"/>
		<path fill="#404065" d="M141.439,278.4343c0.7521-0.1527,1.4688-0.2643,2.1637-0.3433c0.6815-0.0681,1.4284-0.1119,2.2433-0.1119
			c0.7574,0,1.5043,0.0491,2.243,0.1527c0.7276,0.0982,1.4526,0.2289,2.164,0.3762c0.1471,0.2562,0.2833,0.6268,0.4114,1.1038
			c0.1281,0.4878,0.2509,0.9921,0.3488,1.5207c0.1035,0.5314,0.1881,1.0656,0.2671,1.5972
			c0.0681,0.5314,0.1362,0.9729,0.1909,1.3299c1.1175-1.5724,2.4827-2.9787,4.0989-4.2217c1.6218-1.2428,3.6577-1.8587,6.086-1.8587
			c0.5043,0,1.0929,0.0246,1.7443,0.0765c0.6567,0.0544,1.1473,0.1253,1.4498,0.226c0.0954,0.5096,0.1744,1.0904,0.2316,1.7443
			c0.0438,0.6623,0.0709,1.3519,0.0709,2.0577c0,0.8612-0.0354,1.799-0.1144,2.8182c-0.0762,1.0056-0.2127,1.9731-0.4197,2.8835
			c-0.5615-0.1035-1.1775-0.1526-1.8615-0.1526c-0.6812,0-1.101,0-1.2509,0c-0.8668,0-1.8288,0.0873-2.8944,0.2671
			c-1.063,0.18-2.0742,0.6433-3.0417,1.4035c-0.9564,0.7633-1.7552,1.8997-2.3929,3.4261
			c-0.6324,1.5207-0.9483,3.6465-0.9483,6.3829v18.702c-0.9132,0.1527-1.8288,0.2587-2.7336,0.3078
			c-0.9212,0.0519-1.8071,0.0709-2.6655,0.0709c-0.8585,0-1.7362-0.019-2.622-0.0709c-0.883-0.0491-1.8068-0.1552-2.7688-0.3078
			V278.4343z"/>
		<path fill="#404065" d="M173.1358,286.6405H168.05c-0.1555-0.6539-0.2724-1.3516-0.3489-2.082
			c-0.079-0.7415-0.1144-1.4337-0.1144-2.0987c0-1.3681,0.1555-2.7091,0.4633-4.0255h15.6603v39.3007
			c-1.8342,0.3081-3.6083,0.458-5.328,0.458c-1.6737,0-3.418-0.1499-5.2465-0.458V286.6405z"/>
		<path fill="#404065" d="M190.088,316.8277l17.7152-30.108h-15.0524c-0.1527-0.7633-0.2534-1.4909-0.3025-2.205
			c-0.0572-0.7086-0.079-1.4172-0.079-2.1286c0-0.6567,0.0218-1.3053,0.079-1.9349c0.0491-0.6352,0.1499-1.3083,0.3025-2.0169
			h30.9391l0.3762,0.9185l-18.0152,30.0971h16.7233c0.1555,0.763,0.2562,1.499,0.3134,2.1995
			c0.0435,0.7167,0.0709,1.4281,0.0709,2.1367c0,0.6595-0.0273,1.3028-0.0709,1.9352c-0.0572,0.6349-0.158,1.308-0.3134,2.0139
			h-32.073L190.088,316.8277z"/>
		<path fill="#404065" d="M245.3571,318.6482c-3.1997,0-5.9688-0.5233-8.3181-1.5534c-2.3602-1.0413-4.3197-2.4858-5.865-4.3336
			c-1.5428-1.8531-2.7119-4.0199-3.4914-6.5002c-0.7904-2.4828-1.1802-5.17-1.1802-8.0536c0-2.8972,0.3899-5.609,1.1802-8.1409
			c0.7795-2.5347,1.9486-4.7288,3.4914-6.5767c1.5453-1.8531,3.5047-3.3085,5.865-4.3769c2.3493-1.0575,5.1184-1.5916,8.3181-1.5916
			c3.1941,0,5.9769,0.5342,8.3617,1.5916c2.3876,1.0683,4.3607,2.5237,5.9358,4.3769c1.5646,1.8478,2.7311,4.042,3.4942,6.5767
			c0.7658,2.5319,1.1392,5.2437,1.1392,8.1409c0,2.8835-0.3734,5.5708-1.1392,8.0536c-0.763,2.4802-1.9296,4.647-3.4942,6.5002
			c-1.5751,1.8478-3.5483,3.2924-5.9358,4.3336C251.334,318.1249,248.5512,318.6482,245.3571,318.6482z M245.3571,310.4445
			c2.8453,0,4.8784-1.0575,6.1214-3.1615c1.2428-2.0984,1.864-5.1293,1.864-9.0756c0-3.9574-0.6212-6.988-1.864-9.092
			c-1.243-2.104-3.2762-3.159-6.1214-3.159c-2.7881,0-4.8022,1.055-6.0478,3.159c-1.2347,2.104-1.8559,5.1346-1.8559,9.092
			c0,3.9463,0.6212,6.9771,1.8559,9.0756C240.5549,309.387,242.569,310.4445,245.3571,310.4445z"/>
		<path fill="#404065" d="M271.813,278.4343c0.7114-0.1527,1.4119-0.2643,2.1286-0.3433c0.703-0.0681,1.4909-0.1119,2.3546-0.1119
			c0.8612,0,1.6162,0.0438,2.2812,0.1119c0.657,0.079,1.3463,0.1906,2.0524,0.3433c0.1471,0.2534,0.2942,0.6215,0.4197,1.0985
			c0.1306,0.485,0.2397,0.9919,0.3405,1.5235c0.0982,0.5314,0.1937,1.0547,0.2646,1.5615c0.0762,0.5071,0.1499,0.9377,0.1906,1.2919
			c0.5043-0.763,1.1175-1.5235,1.826-2.2838c0.7142-0.7577,1.5316-1.4445,2.4638-2.0552c0.943-0.605,2.0005-1.0929,3.1589-1.4797
			c1.1691-0.379,2.4638-0.5696,3.8782-0.5696c4.4698,0,7.8194,1.2154,10.0786,3.6465c2.2514,2.4367,3.3825,6.2629,3.3825,11.4796
			v25.0875c-1.826,0.3081-3.625,0.458-5.3992,0.458c-1.7661,0-3.5731-0.1499-5.3936-0.458v-22.1987
			c0-2.7309-0.4281-4.8402-1.2564-6.3037c-0.8451-1.4691-2.3002-2.2078-4.3716-2.2078c-0.8585,0-1.7552,0.1228-2.6656,0.379
			c-0.9104,0.259-1.7362,0.7468-2.4666,1.48c-0.7332,0.7385-1.3326,1.7632-1.7906,3.0797c-0.4471,1.3217-0.6812,3.0387-0.6812,5.17
			v20.6015c-1.8316,0.3081-3.625,0.458-5.3964,0.458c-1.7797,0-3.5787-0.1499-5.3992-0.458V278.4343z"/>
		<path fill="#404065" d="M326.2454,278.5079c1.2129-0.2481,2.3412-0.398,3.3822-0.4524c1.0357-0.0519,1.938-0.0765,2.6982-0.0765
			c1.0139,0,2.0222,0.0246,3.0417,0.0765c1.0111,0.0544,1.9514,0.1744,2.8098,0.3787l8.5933,29.2685l8.4434-29.2685
			c0.8585-0.1527,1.7688-0.2643,2.7308-0.3433c0.9648-0.0681,1.9296-0.1119,2.8944-0.1119c0.7521,0,1.6299,0.0246,2.6164,0.0765
			c0.9865,0.0544,2.1149,0.2043,3.385,0.4524l-14.9001,39.2271c-0.962,0.1555-1.9812,0.2537-3.0387,0.3081
			c-1.0711,0.0491-1.9569,0.079-2.6655,0.079c-0.7633,0-1.619-0.0298-2.5865-0.079c-0.9592-0.0544-1.8696-0.1744-2.7336-0.3762
			L326.2454,278.5079z"/>
		<path fill="#404065" d="M378.6201,301.3907c0.2018,3.0415,1.2754,5.2493,3.1969,6.6174c1.9215,1.3681,4.4615,2.0496,7.6067,2.0496
			c1.7225,0,3.4749-0.1635,5.282-0.4906c1.7959-0.3271,3.5047-0.796,5.1293-1.4091c0.5531,1.0111,1.0301,2.2349,1.4442,3.6549
			c0.4036,1.4172,0.6324,2.9352,0.6868,4.5569c-3.9627,1.5207-8.4161,2.2784-13.3846,2.2784c-3.6521,0-6.7781-0.5068-9.389-1.5154
			c-2.6056-1.0139-4.7422-2.4202-6.3857-4.2189c-1.6488-1.8043-2.8645-3.9437-3.6493-6.4265
			c-0.7795-2.4802-1.1747-5.1949-1.1747-8.13c0-2.8916,0.4088-5.6007,1.221-8.1409c0.8013-2.5347,2.0086-4.7369,3.603-6.6118
			c1.5972-1.8752,3.5731-3.3579,5.9305-4.4481c2.363-1.0848,5.1075-1.6352,8.2525-1.6352c2.7365,0,5.1648,0.4823,7.3014,1.4443
			c2.1233,0.9648,3.9357,2.2812,5.429,3.9521c1.4992,1.6759,2.622,3.6711,3.385,5.966c0.7605,2.3139,1.1367,4.783,1.1367,7.4186
			c0,0.962-0.0354,1.9103-0.1119,2.8506c-0.0709,0.9405-0.1635,1.6871-0.2643,2.2377H378.6201z M394.0572,293.8713
			c-0.101-2.4339-0.777-4.4017-2.0142-5.9007c-1.2403-1.4881-2.979-2.2377-5.203-2.2377c-2.5374,0-4.4695,0.7089-5.7834,2.1286
			c-1.319,1.42-2.104,3.4232-2.3491,6.0098H394.0572z"/>
		<path fill="#404065" d="M411.7643,278.4343c0.7711-0.1527,1.4853-0.2643,2.1693-0.3433c0.6841-0.0681,1.4365-0.1119,2.2486-0.1119
			c0.7577,0,1.5017,0.0491,2.243,0.1527c0.7276,0.0982,1.4526,0.2289,2.1693,0.3762c0.1446,0.2562,0.2755,0.6268,0.4145,1.1038
			c0.1197,0.4878,0.2316,0.9921,0.3405,1.5207c0.101,0.5314,0.1937,1.0656,0.2674,1.5972c0.0762,0.5314,0.1362,0.9729,0.1853,1.3299
			c1.1119-1.5724,2.4855-2.9787,4.107-4.2217c1.6218-1.2428,3.6521-1.8587,6.0832-1.8587c0.5043,0,1.082,0.0246,1.7527,0.0765
			c0.6567,0.0544,1.1364,0.1253,1.439,0.226c0.1035,0.5096,0.1744,1.0904,0.226,1.7443c0.0519,0.6623,0.0765,1.3519,0.0765,2.0577
			c0,0.8612-0.0382,1.799-0.1172,2.8182c-0.0656,1.0056-0.2155,1.9731-0.4088,2.8835c-0.5587-0.1035-1.18-0.1526-1.8696-0.1526
			c-0.684,0-1.0985,0-1.2484,0c-0.8665,0-1.8288,0.0873-2.8944,0.2671c-1.0575,0.18-2.0795,0.6433-3.039,1.4035
			c-0.9648,0.7633-1.7605,1.8997-2.3873,3.4261c-0.6461,1.5207-0.9567,3.6465-0.9567,6.3829v18.702
			c-0.9157,0.1527-1.826,0.2587-2.7389,0.3078c-0.9076,0.0519-1.799,0.0709-2.6602,0.0709c-0.8585,0-1.7359-0.019-2.6273-0.0709
			c-0.883-0.0491-1.8068-0.1552-2.7744-0.3078V278.4343z"/>
		<path fill="#404065" d="M442.4117,286.6405h-4.944l-0.3868-1.5207l14.2157-18.1676h1.758v11.4821h9.1903
			c0.1552,0.7577,0.2534,1.4473,0.3078,2.0549c0.0491,0.6025,0.0709,1.2402,0.0709,1.8969c0,0.7114-0.0218,1.3954-0.0709,2.0524
			c-0.0544,0.665-0.1527,1.3982-0.3078,2.202h-9.1903v15.437c0,1.5699,0.1225,2.8344,0.3762,3.802
			c0.2534,0.962,0.624,1.7253,1.1038,2.2785c0.477,0.5643,1.0764,0.943,1.7769,1.142c0.7142,0.2071,1.5509,0.3053,2.5238,0.3053
			c0.7521,0,1.4962-0.0656,2.2293-0.1965c0.7413-0.1198,1.3846-0.2397,1.9433-0.3377c0.3625,0.9673,0.6132,1.9651,0.7605,3.0088
			c0.1498,1.041,0.2316,1.9594,0.2316,2.7716c0,0.5615-0.0165,1.0223-0.0354,1.4038c-0.0302,0.3815-0.0628,0.7494-0.1228,1.1066
			c-2.3301,0.5559-4.7341,0.8311-7.2224,0.8311c-4.6057,0-8.1297-1.0764-10.5609-3.2296
			c-2.4339-2.1531-3.6468-5.6635-3.6468-10.5313V286.6405z"/>
	</g>
	<g>
		<path fill="#404065" d="M269.9543,341.1276c0.2997-0.0435,0.6567-0.079,1.0711-0.12c0.4114-0.0407,0.8504-0.079,1.2972-0.1089
			c0.4552-0.0301,0.9185-0.0547,1.3681-0.0709c0.4527-0.0246,0.8942-0.0329,1.322-0.0329c1.1066,0,2.1556,0.1091,3.1642,0.3326
			c0.9919,0.218,1.8696,0.6051,2.6273,1.1501c0.7602,0.545,1.3628,1.2645,1.8043,2.164c0.4415,0.8992,0.6676,2.025,0.6676,3.3794
			c0,1.4119-0.237,2.5838-0.7086,3.5268c-0.4742,0.9375-1.1066,1.6871-1.8777,2.2539c-0.7795,0.5643-1.6681,0.962-2.6519,1.1936
			c-0.9949,0.2319-2.0033,0.3517-3.0253,0.3517c-0.3843,0-0.7279-0.0081-1.0167-0.0162c-0.2888-0.0056-0.6104-0.033-0.9539-0.0818
			v7.8763c-0.4907,0.06-1.0031,0.0927-1.5453,0.0927c-0.2425,0-0.5015-0.0081-0.7714-0.0162
			c-0.2752-0.0109-0.5314-0.0327-0.7711-0.0765V341.1276z M273.0421,352.3619c0.3243,0.038,0.6078,0.0681,0.8451,0.0927
			c0.2425,0.0162,0.5967,0.0245,1.06,0.0245c0.6243,0,1.2455-0.0681,1.859-0.1937c0.6212-0.1306,1.1719-0.3679,1.6569-0.7139
			c0.4797-0.338,0.8669-0.8069,1.1638-1.4091c0.2888-0.5914,0.4387-1.3681,0.4387-2.3167c0-0.823-0.1253-1.5235-0.3787-2.0903
			c-0.2481-0.5615-0.605-1.0111-1.0413-1.3572c-0.4468-0.3435-0.9838-0.5889-1.6134-0.7306
			c-0.6212-0.1415-1.2972-0.2099-2.0194-0.2099c-0.7496,0-1.4063,0.0302-1.9706,0.0955V352.3619z"/>
		<path fill="#404065" d="M294.2025,352.6915c0-1.1937-0.3-2.0195-0.9076-2.4855c-0.6078-0.4605-1.4856-0.6921-2.6301-0.6921
			c-0.7114,0-1.3737,0.0572-1.9843,0.1689c-0.616,0.1091-1.2154,0.2534-1.8015,0.4387c-0.3843-0.6704-0.5777-1.4663-0.5777-2.3929
			c0.6896-0.2235,1.4445-0.3924,2.2731-0.5124c0.8258-0.1253,1.6296-0.1797,2.3901-0.1797c2.0222,0,3.5539,0.4524,4.6088,1.3737
			c1.0438,0.9157,1.5724,2.3873,1.5724,4.4043v9.7188c-0.7111,0.158-1.567,0.3271-2.5754,0.5015
			c-1.0111,0.1689-2.0387,0.2562-3.0934,0.2562c-0.9838,0-1.8805-0.0927-2.6764-0.2727c-0.7985-0.1825-1.4772-0.4742-2.0278-0.8747
			c-0.5559-0.4117-0.9866-0.924-1.2891-1.5481c-0.3051-0.6243-0.4552-1.3873-0.4552-2.2732c0-0.8694,0.18-1.627,0.5289-2.2865
			c0.3544-0.6486,0.8395-1.1964,1.4445-1.6354c0.6051-0.4306,1.2972-0.7521,2.0876-0.9673c0.7851-0.2046,1.6162-0.319,2.4802-0.319
			c0.6458,0,1.1747,0.0137,1.5916,0.0435c0.4089,0.0354,0.7577,0.0709,1.0413,0.1119V352.6915z M294.2025,355.6269
			c-0.3-0.0382-0.6896-0.0762-1.1504-0.1144c-0.4605-0.0435-0.8557-0.0656-1.18-0.0656c-1.2509,0-2.2048,0.2344-2.8645,0.6977
			c-0.6514,0.4636-0.9838,1.1666-0.9838,2.1205c0,0.605,0.1144,1.0792,0.3352,1.4172c0.2289,0.3488,0.4959,0.6106,0.8314,0.7904
			c0.3352,0.1828,0.7002,0.2972,1.1118,0.3327c0.4033,0.038,0.7848,0.0597,1.1501,0.0597c0.4605,0,0.943-0.0218,1.4309-0.0734
			c0.4959-0.0519,0.9349-0.1281,1.3192-0.2263V355.6269z"/>
		<path fill="#404065" d="M301.2614,347.3961c0.218-0.0382,0.4304-0.0709,0.6321-0.0982c0.199-0.0137,0.4144-0.0271,0.6352-0.0271
			c0.2233,0,0.444,0.0134,0.6676,0.0271c0.2235,0.0274,0.4278,0.06,0.6051,0.0982c0.0653,0.2997,0.1228,0.7005,0.1825,1.1937
			c0.0628,0.4959,0.0901,0.9185,0.0901,1.2536c0.425-0.6812,0.9838-1.2782,1.6787-1.7822c0.6977-0.5071,1.5863-0.7633,2.6873-0.7633
			c0.1555,0,0.3243,0.0109,0.4962,0.0165c0.1717,0.0137,0.3187,0.0327,0.4359,0.0516c0.041,0.1828,0.0653,0.3706,0.0927,0.5752
			c0.019,0.2018,0.0246,0.4088,0.0246,0.6377c0,0.2344-0.0137,0.4906-0.0382,0.7521c-0.0354,0.2618-0.0681,0.5124-0.1116,0.7577
			c-0.1582-0.0382-0.3271-0.0625-0.4934-0.0625c-0.1744,0-0.3106,0-0.4061,0c-0.545,0-1.0711,0.079-1.567,0.2317
			c-0.4959,0.1471-0.9374,0.4142-1.3301,0.8012c-0.3977,0.3843-0.7058,0.9076-0.9375,1.5752
			c-0.2316,0.6623-0.3516,1.521-0.3516,2.5729v7.7184c-0.218,0.0438-0.4633,0.0737-0.7413,0.0927
			c-0.2671,0.0164-0.5233,0.0302-0.7412,0.0302c-0.2235,0-0.4744-0.0137-0.7415-0.0302c-0.2752-0.019-0.5314-0.0488-0.7683-0.0927
			V347.3961z"/>
		<path fill="#404065" d="M322.0318,360.2329c0.161,0.2833,0.3025,0.6321,0.4225,1.0575c0.12,0.425,0.1909,0.8613,0.2099,1.3028
			c-1.1883,0.4633-2.5536,0.6977-4.088,0.6977c-2.5866,0-4.5298-0.7304-5.8435-2.1967c-1.3109-1.4663-1.9651-3.4341-1.9651-5.9197
			c0-1.1473,0.158-2.2184,0.4798-3.2078c0.3215-0.9866,0.8065-1.8453,1.4445-2.5701c0.6321-0.7303,1.4281-1.3055,2.3764-1.7306
			c0.9486-0.4172,2.0496-0.6296,3.298-0.6296c0.8448,0,1.5941,0.0435,2.2455,0.1471c0.6433,0.1007,1.2564,0.2562,1.8425,0.4825
			c0,0.3405-0.0463,0.744-0.1362,1.1964c-0.0901,0.4577-0.2154,0.8557-0.379,1.1936c-0.9866-0.338-2.123-0.5124-3.3931-0.5124
			c-1.5534,0-2.7144,0.5124-3.4777,1.5481c-0.7711,1.0248-1.1529,2.3876-1.1529,4.0827c0,1.9349,0.4334,3.3577,1.3003,4.2516
			c0.8694,0.8995,2.0602,1.3491,3.5701,1.3491c0.6078,0,1.1666-0.0354,1.6818-0.1197
			C320.988,360.5762,321.506,360.4347,322.0318,360.2329z"/>
		<path fill="#404065" d="M325.4877,360.1129c0.5425,0.218,1.1392,0.4033,1.7962,0.5261c0.6539,0.1334,1.3028,0.1962,1.9567,0.1962
			c0.4608,0,0.9076-0.0463,1.3301-0.1499c0.4225-0.1035,0.7904-0.2506,1.1066-0.4524c0.3106-0.2018,0.5615-0.4496,0.7577-0.7412
			c0.1881-0.2944,0.2808-0.6215,0.2808-0.9868c0-0.4033-0.0765-0.7303-0.2263-0.9974c-0.1499-0.2643-0.3517-0.485-0.6051-0.6676
			c-0.2506-0.18-0.5422-0.3355-0.8774-0.4661c-0.3299-0.1309-0.6868-0.2562-1.0711-0.3815l-1.0658-0.3952
			c-1.2863-0.4825-2.2238-1.0276-2.8098-1.6327c-0.5861-0.605-0.8802-1.4228-0.8802-2.4529c0-1.3737,0.4904-2.4584,1.4716-3.2706
			c0.9757-0.8069,2.4093-1.2046,4.3144-1.2046c0.7823,0,1.5562,0.0734,2.3086,0.2233c0.763,0.1501,1.4225,0.3271,1.9893,0.5316
			c-0.0435,0.4005-0.1169,0.804-0.2289,1.2126c-0.1116,0.398-0.2425,0.7714-0.4089,1.1175c-0.444-0.1635-0.9701-0.3215-1.586-0.4686
			c-0.6215-0.1526-1.2838-0.2344-1.9843-0.2344c-0.7466,0-1.4088,0.1362-1.9868,0.3952c-0.5749,0.2671-0.864,0.7303-0.864,1.3954
			c0,0.3461,0.0709,0.6405,0.2127,0.8774c0.1418,0.2428,0.338,0.4552,0.5724,0.6187c0.2506,0.1744,0.5261,0.3243,0.8367,0.4415
			c0.3134,0.1228,0.6514,0.2453,1.0167,0.3625l1.3299,0.4552c0.4825,0.1635,0.943,0.357,1.3845,0.5749
			c0.4279,0.2208,0.804,0.4962,1.1147,0.8342c0.3134,0.3352,0.5671,0.7332,0.7524,1.2073c0.1934,0.4742,0.2942,1.0466,0.2942,1.7116
			c0,0.7468-0.1527,1.4308-0.4552,2.044c-0.2997,0.6187-0.7304,1.1448-1.2863,1.5807c-0.5615,0.4306-1.2291,0.7686-2.0141,1.0083
			c-0.7876,0.24-1.6541,0.3653-2.6,0.3653c-0.9704,0-1.8232-0.0653-2.5483-0.1962c-0.7251-0.1337-1.401-0.3081-2.0278-0.5289
			c0.041-0.4089,0.1309-0.8174,0.259-1.2263C325.1743,360.9197,325.3213,360.5162,325.4877,360.1129z"/>
		<path fill="#404065" d="M376.347,349.7563h-1.9676c-0.041-0.1635-0.0656-0.3488-0.0927-0.5615
			c-0.0165-0.2071-0.0246-0.4197-0.0246-0.6159c0-0.2071,0.0081-0.4088,0.0246-0.6268c0.0271-0.2126,0.0516-0.3979,0.0927-0.5559
			h4.9058v16.4071c0,0.9104-0.12,1.6625-0.3625,2.2704c-0.2425,0.6076-0.5833,1.0954-1.0111,1.4688
			c-0.4362,0.3762-0.943,0.6433-1.5372,0.8069c-0.5833,0.1635-1.221,0.2369-1.905,0.2369c-1.0848,0-2.0086-0.1278-2.7554-0.3952
			c0.019-0.3787,0.0709-0.7711,0.1526-1.1747c0.0818-0.4061,0.1906-0.7683,0.3324-1.0929c0.4906,0.1582,1.0522,0.2453,1.6952,0.2453
			c0.2671,0,0.5342-0.0218,0.8177-0.0653c0.2863-0.0382,0.5423-0.1471,0.7876-0.3162c0.2428-0.1744,0.4443-0.4278,0.6025-0.7686
			c0.1608-0.3489,0.2451-0.8174,0.2451-1.4281V349.7563z M375.6194,343.9455c-0.0355-0.2833-0.0737-0.5504-0.0871-0.8012
			c-0.0245-0.2562-0.0329-0.4904-0.0329-0.7195c0-0.2152,0.0084-0.4577,0.0329-0.7086c0.0134-0.2534,0.0516-0.5096,0.0871-0.7739
			c0.2643-0.0382,0.5478-0.0737,0.8476-0.0982c0.3053-0.0327,0.5696-0.0491,0.7932-0.0491c0.2208,0,0.4742,0.0164,0.7714,0.0491
			c0.2917,0.0246,0.5587,0.06,0.804,0.0982c0.0352,0.2643,0.0653,0.5205,0.0871,0.7739c0.019,0.2509,0.0299,0.4934,0.0299,0.7086
			c0,0.2291-0.0109,0.4633-0.0299,0.7195c-0.0218,0.2509-0.0519,0.518-0.0871,0.8012c-0.2453,0.0354-0.5124,0.0656-0.804,0.0982
			c-0.2972,0.0327-0.5506,0.0519-0.7714,0.0519c-0.2235,0-0.4878-0.0193-0.7932-0.0519
			C376.1672,344.0111,375.8837,343.981,375.6194,343.9455z"/>
		<path fill="#404065" d="M391.9448,352.6915c0-1.1937-0.3026-2.0195-0.9104-2.4855c-0.605-0.4605-1.4853-0.6921-2.6354-0.6921
			c-0.7058,0-1.3681,0.0572-1.9787,0.1689c-0.6212,0.1091-1.2263,0.2534-1.8043,0.4387c-0.3868-0.6704-0.5777-1.4663-0.5777-2.3929
			c0.6868-0.2235,1.4499-0.3924,2.2732-0.5124c0.8258-0.1253,1.6243-0.1797,2.3901-0.1797c2.0195,0,3.5514,0.4524,4.6032,1.3737
			c1.0522,0.9157,1.5782,2.3873,1.5782,4.4043v9.7188c-0.7089,0.158-1.5727,0.3271-2.5757,0.5015
			c-1.0111,0.1689-2.044,0.2562-3.0906,0.2562c-0.9922,0-1.8833-0.0927-2.6792-0.2727c-0.7957-0.1825-1.48-0.4742-2.0303-0.8747
			c-0.5559-0.4117-0.9841-0.924-1.2866-1.5481c-0.3025-0.6243-0.4577-1.3873-0.4577-2.2732c0-0.8694,0.1853-1.627,0.5314-2.2865
			c0.3516-0.6486,0.8367-1.1964,1.4364-1.6354c0.6104-0.4306,1.3053-0.7521,2.0904-0.9673c0.7876-0.2046,1.6134-0.319,2.4855-0.319
			c0.6486,0,1.1803,0.0137,1.5888,0.0435c0.4145,0.0354,0.7661,0.0709,1.0494,0.1119V352.6915z M391.9448,355.6269
			c-0.3026-0.0382-0.6896-0.0762-1.1529-0.1144c-0.4633-0.0435-0.8557-0.0656-1.1827-0.0656c-1.2509,0-2.2023,0.2344-2.8618,0.6977
			c-0.6514,0.4636-0.9813,1.1666-0.9813,2.1205c0,0.605,0.1119,1.0792,0.3327,1.4172c0.2208,0.3488,0.4987,0.6106,0.8339,0.7904
			c0.3299,0.1828,0.6977,0.2972,1.101,0.3327c0.4008,0.038,0.7906,0.0597,1.1504,0.0597c0.4661,0,0.9455-0.0218,1.439-0.0734
			c0.4959-0.0519,0.9321-0.1281,1.3217-0.2263V355.6269z"/>
		<path fill="#404065" d="M398.9928,347.3961c0.2235-0.0382,0.4334-0.0709,0.6405-0.0982c0.199-0.0137,0.4142-0.0271,0.6324-0.0271
			c0.2261,0,0.4415,0.0134,0.6676,0.0271c0.2208,0.0274,0.4225,0.06,0.6051,0.0982c0.0628,0.2997,0.12,0.7005,0.18,1.1937
			c0.0625,0.4959,0.0899,0.9185,0.0899,1.2536c0.425-0.6812,0.9866-1.2782,1.6815-1.7822c0.7005-0.5071,1.5891-0.7633,2.6792-0.7633
			c0.1607,0,0.3324,0.0109,0.5015,0.0165c0.1689,0.0137,0.3162,0.0327,0.4387,0.0516c0.0463,0.1828,0.0709,0.3706,0.0982,0.5752
			c0.0162,0.2018,0.0246,0.4088,0.0246,0.6377c0,0.2344-0.0165,0.4906-0.041,0.7521c-0.0355,0.2618-0.0681,0.5124-0.1144,0.7577
			c-0.1607-0.0382-0.3299-0.0625-0.4987-0.0625c-0.1691,0-0.3053,0-0.4088,0c-0.5423,0-1.063,0.079-1.559,0.2317
			c-0.4906,0.1471-0.9349,0.4142-1.3301,0.8012c-0.3924,0.3843-0.7058,0.9076-0.943,1.5752
			c-0.2317,0.6623-0.3461,1.521-0.3461,2.5729v7.7184c-0.2235,0.0438-0.4714,0.0737-0.7385,0.0927
			c-0.2755,0.0164-0.5205,0.0302-0.7412,0.0302c-0.2263,0-0.477-0.0137-0.7468-0.0302c-0.2671-0.019-0.5233-0.0488-0.7714-0.0927
			V347.3961z"/>
		<path fill="#404065" d="M419.3735,340.7296c0.2182-0.0382,0.4716-0.0653,0.7577-0.0846c0.2836-0.0218,0.5233-0.0299,0.7251-0.0299
			c0.2235,0,0.4714,0.0081,0.744,0.0299c0.2724,0.0193,0.5152,0.0463,0.7385,0.0846v21.7762
			c-0.7658,0.2182-1.6243,0.4035-2.5754,0.5587c-0.9511,0.1499-2.0033,0.2263-3.1724,0.2263c-1.0929,0-2.1258-0.1418-3.1042-0.4089
			c-0.9785-0.2727-1.8344-0.7251-2.5648-1.3435c-0.7195-0.6296-1.3028-1.4365-1.7225-2.4286
			c-0.4197-0.9838-0.6377-2.2048-0.6377-3.663c0-1.2509,0.1881-2.3929,0.5643-3.4177c0.3678-1.0357,0.8992-1.9187,1.5832-2.6544
			c0.6924-0.736,1.5101-1.3028,2.4749-1.7088c0.9592-0.4063,2.0222-0.6078,3.1941-0.6078c0.5233,0,1.0466,0.0435,1.5835,0.1253
			c0.537,0.0762,1.003,0.1825,1.4116,0.2997V340.7296z M419.3735,350.0262c-0.4086-0.1554-0.8367-0.2807-1.3053-0.3625
			c-0.4608-0.0765-0.9648-0.12-1.5099-0.12c-0.8342,0-1.5428,0.1526-2.1531,0.458c-0.6025,0.2997-1.1038,0.7139-1.4937,1.2372
			c-0.398,0.5289-0.6921,1.1448-0.8774,1.8587c-0.1909,0.7198-0.2891,1.4992-0.2891,2.3493c0.022,1.9187,0.4744,3.2924,1.3655,4.121
			c0.883,0.8286,2.0959,1.2375,3.6276,1.2375c0.5261,0,1.0083-0.0273,1.4554-0.0709c0.4415-0.0519,0.8367-0.1253,1.18-0.2291
			V350.0262z"/>
		<path fill="#404065" d="M427.6699,349.7563h-1.9678c-0.0407-0.1635-0.0709-0.3488-0.0955-0.5615
			c-0.0162-0.2071-0.0218-0.4197-0.0218-0.6159c0-0.2071,0.0056-0.4088,0.0218-0.6268c0.0246-0.2126,0.0547-0.3979,0.0955-0.5559
			h4.9058v15.5294c-0.2233,0.0438-0.4714,0.0737-0.744,0.0927c-0.2724,0.0164-0.5205,0.0302-0.7412,0.0302
			c-0.199,0-0.4415-0.0137-0.7167-0.0302c-0.2671-0.019-0.518-0.0488-0.7359-0.0927V349.7563z M427.0048,343.9729
			c-0.0463-0.2397-0.0681-0.5015-0.0762-0.7848c-0.0137-0.2835-0.0137-0.5341-0.0137-0.7633c0-0.2152,0-0.4742,0.0137-0.7521
			c0.0081-0.2808,0.0299-0.5398,0.0762-0.763c0.2643-0.0382,0.545-0.0656,0.8423-0.0818c0.305-0.0246,0.5668-0.0329,0.7903-0.0329
			c0.2236,0,0.4851,0.0084,0.7932,0.0329c0.2969,0.0162,0.5721,0.0435,0.8174,0.0818c0.0354,0.2233,0.0628,0.4823,0.0681,0.763
			c0.0109,0.278,0.022,0.537,0.022,0.7521c0,0.2291-0.0111,0.4797-0.022,0.7633c-0.0053,0.2833-0.0327,0.5451-0.0681,0.7848
			c-0.2453,0.0382-0.5149,0.0709-0.8066,0.0927c-0.2891,0.0218-0.5478,0.0302-0.7714,0.0302c-0.2453,0-0.518-0.0084-0.823-0.0302
			C427.5498,344.0438,427.2691,344.0111,427.0048,343.9729z"/>
		<path fill="#404065" d="M435.0857,347.3961c0.2263-0.0382,0.4443-0.0709,0.6514-0.0982c0.2127-0.0137,0.4279-0.0271,0.6542-0.0271
			c0.218,0,0.4225,0.0134,0.616,0.0271c0.1909,0.0274,0.4008,0.06,0.624,0.0982c0.06,0.2997,0.12,0.7058,0.18,1.2238
			c0.06,0.5205,0.0927,0.9427,0.0927,1.2863c0.2071-0.3436,0.458-0.6787,0.7714-1.0276c0.3159-0.3433,0.6703-0.6514,1.0736-0.9266
			c0.4061-0.2671,0.8693-0.4906,1.3873-0.6595c0.5286-0.1744,1.1093-0.2562,1.7306-0.2562c1.7797,0,3.0881,0.504,3.9382,1.5261
			c0.8479,1.0139,1.2729,2.5293,1.2729,4.5217v9.8414c-0.2263,0.0438-0.477,0.0737-0.7549,0.0927
			c-0.2835,0.0164-0.5397,0.0302-0.7577,0.0302c-0.2235,0-0.4742-0.0137-0.7468-0.0302c-0.2699-0.019-0.5205-0.0488-0.7412-0.0927
			v-9.0239c0-1.4309-0.2235-2.4828-0.6678-3.1587c-0.4387-0.6759-1.1445-1.0167-2.1121-1.0167c-0.5696,0-1.1066,0.1064-1.6106,0.3
			c-0.5043,0.2043-0.9458,0.5177-1.3329,0.9427c-0.3787,0.4198-0.6868,0.9732-0.9213,1.6463
			c-0.2289,0.6812-0.346,1.4909-0.346,2.4339v7.8763c-0.2208,0.0438-0.4714,0.0737-0.7469,0.0927
			c-0.2671,0.0164-0.5177,0.0302-0.7384,0.0302c-0.2236,0-0.4798-0.0137-0.763-0.0302c-0.2783-0.019-0.5261-0.0488-0.7524-0.0927
			V347.3961z"/>
		<path fill="#404065" d="M451.9234,360.1129c0.5451,0.218,1.1448,0.4033,1.799,0.5261c0.6567,0.1334,1.3081,0.1962,1.9514,0.1962
			c0.4686,0,0.9129-0.0463,1.3299-0.1499c0.4281-0.1035,0.7959-0.2506,1.1093-0.4524c0.3081-0.2018,0.564-0.4496,0.7549-0.7412
			c0.1962-0.2944,0.2916-0.6215,0.2916-0.9868c0-0.4033-0.079-0.7303-0.2289-0.9974c-0.1526-0.2643-0.3597-0.485-0.6078-0.6676
			c-0.2562-0.18-0.545-0.3355-0.8777-0.4661c-0.3324-0.1309-0.6921-0.2562-1.0736-0.3815l-1.0575-0.3952
			c-1.2919-0.4825-2.2296-1.0276-2.8182-1.6327c-0.5833-0.605-0.8722-1.4228-0.8722-2.4529c0-1.3737,0.4825-2.4584,1.4635-3.2706
			c0.9757-0.8069,2.4174-1.2046,4.3116-1.2046c0.7879,0,1.5618,0.0734,2.3195,0.2233c0.7549,0.1501,1.4172,0.3271,1.984,0.5316
			c-0.038,0.4005-0.1197,0.804-0.2261,1.2126c-0.1144,0.398-0.2481,0.7714-0.4117,1.1175
			c-0.4415-0.1635-0.9729-0.3215-1.5888-0.4686c-0.6187-0.1526-1.2838-0.2344-1.9815-0.2344c-0.7469,0-1.4091,0.1362-1.9812,0.3952
			c-0.578,0.2671-0.8696,0.7303-0.8696,1.3954c0,0.3461,0.0656,0.6405,0.2126,0.8774c0.1446,0.2428,0.338,0.4552,0.5833,0.6187
			c0.2344,0.1744,0.5152,0.3243,0.8258,0.4415c0.3106,0.1228,0.6514,0.2453,1.0164,0.3625l1.3329,0.4552
			c0.4823,0.1635,0.9483,0.357,1.3764,0.5749c0.4331,0.2208,0.8094,0.4962,1.12,0.8342c0.3106,0.3352,0.5615,0.7332,0.7549,1.2073
			c0.1937,0.4742,0.2888,1.0466,0.2888,1.7116c0,0.7468-0.1471,1.4308-0.4524,2.044c-0.3025,0.6187-0.7357,1.1448-1.2891,1.5807
			c-0.5532,0.4306-1.2238,0.7686-2.0114,1.0083c-0.7903,0.24-1.6544,0.3653-2.6027,0.3653c-0.9648,0-1.8205-0.0653-2.5403-0.1962
			c-0.7303-0.1337-1.4063-0.3081-2.0303-0.5289c0.0354-0.4089,0.1253-0.8174,0.2562-1.2263
			C451.6128,360.9197,451.7599,360.5162,451.9234,360.1129z"/>
		<g>
			<path fill="#404065" d="M348.8175,347.9138c-0.3106-0.7248-0.4688-1.4225-0.4688-2.104c0-1.4091,0.4742-2.5782,1.4256-3.5048
				c0.9483-0.9321,2.2237-1.3954,3.8237-1.3954c1.5099,0,2.6954,0.4306,3.5539,1.2916c0.8532,0.8669,1.2757,1.8997,1.2757,3.1018
				c0,1.4063-0.439,2.6273-1.322,3.6848c-0.5096,0.6131-1.3737,1.3245-2.5863,2.1258l3.9817,4.7804
				c0.2671-0.796,0.4499-1.3898,0.5479-1.7825c0.1035-0.3924,0.2043-0.943,0.3134-1.6516h2.5539
				c-0.1663,1.4063-0.5043,2.7529-1.0058,4.0336c-0.5068,1.2919-0.7549,1.8127-0.7549,1.559l3.8782,4.7288h-3.4503l-2.0577-2.5048
				c-0.8094,0.8886-1.5509,1.5263-2.2212,1.9405c-1.18,0.7142-2.5374,1.0739-4.0746,1.0739c-2.2701,0-3.9164-0.6107-4.9465-1.8425
				c-1.0304-1.2263-1.5425-2.6136-1.5425-4.1561c0-1.6544,0.4987-3.0443,1.499-4.1564c0.6159-0.6785,1.7605-1.5208,3.4339-2.5347
				C349.7468,349.5384,349.1362,348.6389,348.8175,347.9138z M355.2657,360.1729c0.7932-0.5068,1.3982-1.0683,1.826-1.7007
				l-4.9328-6.0369c-1.3982,0.9294-2.303,1.6491-2.7311,2.145c-0.6458,0.7469-0.9782,1.6516-0.9782,2.7309
				c0,1.161,0.425,2.0605,1.2673,2.6817c0.8501,0.6324,1.7605,0.9377,2.7116,0.9377
				C353.5298,360.9306,354.4729,360.6744,355.2657,360.1729z M355.0533,347.7612c0.5805-0.6759,0.8722-1.4253,0.8722-2.2511
				c0-0.6433-0.2155-1.1992-0.6352-1.6653c-0.4331-0.4689-1.0028-0.7005-1.7225-0.7005c-1.101,0-1.8559,0.3709-2.2809,1.1013
				c-0.2235,0.3787-0.3246,0.7904-0.3246,1.2372c0,0.6023,0.161,1.183,0.499,1.739c0.3324,0.5559,0.8855,1.2754,1.665,2.1612
				C354.0556,348.7151,354.6989,348.1756,355.0533,347.7612z"/>
		</g>
	</g>
	<g opacity="0.4">
		<path opacity="0.6" fill="#404065" d="M326.5071,150.8319c-11.2516-11.233-37.1529-8.0477-51.5162-1.3568v3.2211
			c0,31.0809-30.1245,61.5731-61.3088,62.5706c-2.0272,2.3285-2.5865,5.2787-2.6934,10.3311
			c12.4664-0.437,26.3688-4.1354,35.1752-1.0646c18.1921,6.3503,44.37,26.6984,76.2577,1.0574
			C344.6719,207.701,346.0319,170.3298,326.5071,150.8319z"/>
		<path opacity="0.6" fill="#404065" d="M208.4819,210.0886c0.5829-17.8975,11.0135-35.4359,25.718-47.0923
			c-3.7822,0.5391-7.412,0.8359-10.7663,0.8359c-14.5347,0-42.446,13.2239-39.505,39.8867
			c1.7101,15.4767,9.6881,20.5393,19.7222,21.6572C203.7322,220.1615,204.3135,214.6189,208.4819,210.0886z"/>
		<path opacity="0.6" fill="#404065" d="M267.4821,156.5392c-24.9432,2.3055-49.2214,26.4556-51.538,51.2709
			C240.8873,205.5096,265.1682,181.3652,267.4821,156.5392z"/>
	</g>
	<g>
		<path opacity="0.6" fill="#404065" d="M318.6467,194.5017c-21.8579-20.0293-41.7617-6.5328-55.22-2.7881
			c-1.3951,0.3877-2.9467,0.5372-4.6093,0.5282c-10.6396,12.1162-25.3889,20.8336-40.7426,22.6703
			c3.8764,12.2456,17.7742,19.1086,26.0531,19.6453c10.5173,0.6759,24.4172,5.4536,35.4606,12.1173
			c9.7462,5.8789,29.492,9.9916,38.5078,2.0878C333.1379,235.5713,333.9066,208.4749,318.6467,194.5017z"/>
		<path opacity="0.6" fill="#404065" d="M217.4241,203.8635c-0.2318,1.3118-0.3463,2.5808-0.3728,3.8143
			c11.8419-1.3986,23.4566-7.651,32.5705-16.5029C236.236,188.7976,220.8121,184.697,217.4241,203.8635z"/>
	</g>
	<path fill="#404065" d="M171.2006,270.7349c-0.2888-1.6324-0.4387-3.2377-0.4387-4.824c0-1.5316,0.1499-3.1341,0.4387-4.8187
		c0.8096-0.1415,1.6871-0.2506,2.6245-0.3187c0.9321-0.0737,1.7797-0.1116,2.5511-0.1116c0.8177,0,1.698,0.0379,2.6655,0.1116
		c0.9539,0.0681,1.8397,0.1772,2.66,0.3187c0.1418,0.8233,0.2344,1.619,0.2861,2.4149c0.0519,0.7876,0.0737,1.5916,0.0737,2.4037
		c0,0.7714-0.0218,1.559-0.0737,2.3767c-0.0516,0.8149-0.1443,1.6324-0.2861,2.4473c-0.8202,0.1418-1.6952,0.24-2.6273,0.2888
		c-0.9349,0.0438-1.8124,0.0684-2.6245,0.0684c-0.7714,0-1.6354-0.0246-2.5893-0.0684
		C172.8933,270.9749,172.0102,270.8766,171.2006,270.7349z"/>
	<rect fill="none" width="512" height="512"/>
</g>
</svg>
