<?xml version="1.0" encoding="utf-8"?>
<!-- Generator: Adobe Illustrator 18.1.1, SVG Export Plug-In . SVG Version: 6.00 Build 0)  -->
<!DOCTYPE svg PUBLIC "-//W3C//DTD SVG 1.1//EN" "http://www.w3.org/Graphics/SVG/1.1/DTD/svg11.dtd">
<svg version="1.1" id="XMLID_1_" xmlns="http://www.w3.org/2000/svg" xmlns:xlink="http://www.w3.org/1999/xlink" x="0px" y="0px"
	 viewBox="0 0 512 512" enable-background="new 0 0 512 512" xml:space="preserve">
<g id="Key-of-Aurora" sketch:type="MSPage">
	<g id="Homepage-1_1_" transform="translate(-548.000000, -22.000000)" sketch:type="MSArtboardGroup">
		<g id="Header-2_1_" transform="translate(-13.000000, 0.000000)" sketch:type="MSLayerGroup">
			<g id="Pageheader_1_" transform="translate(100.500000, 22.000000)" sketch:type="MSShapeGroup">
				<g id="Logo_1_" transform="translate(461.000000, 0.000000)">
					<path id="Fill-1_1_" fill="#404065" d="M161.6039,207.3058h-13.7361l-50.9346,48.2083v-48.2083H87.5v97.3504h9.4331v-36.1854
						l21.2534-20.1086l34.5944,56.294h11.1027l-38.6597-62.9409L161.6039,207.3058"/>
					<path id="Fill-2_1_" fill="#404065" d="M372.56,207.3058l-52.0018,97.3624l10.7267,0.0054l19.7346-37.4437h42.436
						l19.7328,37.4641H423.5L372.56,207.3058L372.56,207.3058z M355.8768,257.9927l16.3607-31.1062l16.36,31.1062H355.8768
						L355.8768,257.9927z"/>
					<path id="Fill-3_1_" fill="#404065" d="M242.9848,295.7319c-23.0323,0-41.7706-17.6596-41.7706-39.3749
						c0-21.7112,18.7383-39.3713,41.7706-39.3713c23.0341,0,41.7742,17.6602,41.7742,39.3713
						C284.759,278.0724,266.0189,295.7319,242.9848,295.7319 M242.6071,208.1131c-28.184,0-51.1106,21.4812-51.1106,47.888
						c0,26.4033,22.9266,47.8863,51.1106,47.8863c28.1804,0,51.1088-21.483,51.1088-47.8863
						C293.7159,229.5943,270.7874,208.1131,242.6071,208.1131"/>
				</g>
			</g>
		</g>
	</g>
	<rect fill="none" width="512" height="512"/>
</g>
</svg>
