<?xml version="1.0" encoding="utf-8"?>
<!-- Generator: Adobe Illustrator 18.1.1, SVG Export Plug-In . SVG Version: 6.00 Build 0)  -->
<!DOCTYPE svg PUBLIC "-//W3C//DTD SVG 1.1//EN" "http://www.w3.org/Graphics/SVG/1.1/DTD/svg11.dtd">
<svg version="1.1" id="XMLID_1_" xmlns="http://www.w3.org/2000/svg" xmlns:xlink="http://www.w3.org/1999/xlink" x="0px" y="0px"
	 viewBox="0 0 512 512" enable-background="new 0 0 512 512" xml:space="preserve">
<g id="Loterie-Romande">
	<path fill="#404065" d="M173.9212,325.1034c0-6.3101-3.5883-8.0649-8.441-8.0649c-3.8829,0-3.8829,1.0581-3.8829,5.2562v10.4045
		h3.3033C168.6685,332.6992,173.9212,331.6454,173.9212,325.1034z"/>
	<path fill="#404065" d="M200.8724,330.114c-6.8497,0-12.4218,5.6132-12.4218,12.5466c0,6.9292,5.572,12.5466,12.4218,12.5466
		c6.8689,0,12.425-5.6174,12.425-12.5466C213.2974,335.7272,207.7413,330.114,200.8724,330.114z M200.8724,348.1748
		c-4.0742,0-7.3894-3.3549-7.3894-7.4799c0-4.1205,3.3152-7.4797,7.3894-7.4797c4.0829,0,7.4056,3.3593,7.4056,7.4797
		C208.278,344.8199,204.9553,348.1748,200.8724,348.1748z"/>
	<path fill="#404065" d="M271.5547,346.9662c0,2.2839,1.1355,3.8754,2.955,3.8754c2.858,0,4.5764-2.6324,4.5764-6.0089v-2.886
		C277.314,341.9982,271.5547,342.2391,271.5547,346.9662z"/>
	<path fill="#404065" d="M237.9454,309.8082c7.1754,0,12.9906-5.8667,12.9906-13.1141c0-7.2433-5.8152-13.1144-12.9906-13.1144
		c-7.1765,0-12.9918,5.8711-12.9918,13.1144C224.9536,303.9415,230.7689,309.8082,237.9454,309.8082z M235.8936,289.4336
		c4.2798,0,7.7604,3.514,7.7604,7.8409c0,4.3185-3.4806,7.8326-7.7604,7.8326c-4.2776,0-7.7571-3.5142-7.7571-7.8326
		C228.1366,292.9476,231.616,289.4336,235.8936,289.4336z"/>
	<path fill="#404065" d="M289.4992,288.741c-4.2302,0-5.4066,4.4991-5.4066,6.6498h10.4133
		C294.5059,294.0917,294.3941,288.741,289.4992,288.741z"/>
	<path fill="#404065" d="M175.7127,143.8979h-31.7126v31.6404C150.4121,161.5552,161.708,150.2819,175.7127,143.8979z"/>
	<path fill="#404065" d="M157.4155,202.197c0,24.7662,20.0704,44.827,44.8323,44.827c24.7704,0,44.8463-20.0608,44.8463-44.827
		c0-24.777-20.0759-44.8494-44.8463-44.8494C177.4859,157.3477,157.4155,177.42,157.4155,202.197z M192.6895,175.4823
		c16.0961,0,29.121,13.0262,29.121,29.1235c0,16.0735-13.0249,29.1102-29.121,29.1102c-16.0876,0-29.1136-13.0367-29.1136-29.1102
		C163.5759,188.5085,176.6019,175.4823,192.6895,175.4823z"/>
	<path fill="#404065" d="M228.7849,143.8979c22.134,10.0905,37.5181,32.3911,37.5181,58.2949
		c0,35.3771-28.6597,64.066-64.0552,64.066c-25.8684,0-48.1323-15.3381-58.2477-37.4031v139.2462h224V143.8979H228.7849z
		 M329.7498,274.001c2.0172,0,3.802,1.6215,3.802,3.7334c0,2.099-1.7848,3.7764-3.8666,3.7764
		c-2.0172,0-3.6863-1.6774-3.6863-3.7764C325.999,275.6785,327.668,274.001,329.7498,274.001z M322.0615,288.1819l10.5421-1.9225
		v28.5942h-5.9508v-20.1252c0-4.2067-0.9548-5.2261-4.5913-5.3507V288.1819z M289.7186,286.8099
		c9.6346,0,10.424,7.0538,10.424,10.8518h-16.0499c0,5.686,2.3013,13.7682,10.2498,13.7682c2.3678,0,4.3398-0.5721,5.2947-0.9722
		v2.5118c-1.0665,0.3872-4.056,1.5312-7.9398,1.5312c-8.6238,0-13.8047-5.2904-13.8047-14.7874
		C277.8925,290.7324,282.1786,286.8099,289.7186,286.8099z M237.9454,277.9623c10.2539,0,18.5596,8.3873,18.5596,18.7318
		c0,10.3485-8.3056,18.7445-18.5596,18.7445c-10.254,0-18.5616-8.396-18.5616-18.7445
		C219.3837,286.3496,227.6914,277.9623,237.9454,277.9623z M190.371,275.9537l12.1079-1.3376v32.7104c0,4.37,0,4.37,3.8591,4.37
		h4.9646c3.6304,0,6.8066-0.2408,6.8066-5.7076h1.6119l-0.171,8.4432h-23.4167v-31.4977c0-4.886-0.1742-4.9419-5.7625-5.6991
		V275.9537z M175.4244,353.6157l-10.2367-18.1724h-3.5905v18.1724h-6.3646v-31.377c0-5.7853-0.1194-5.7853-5.498-6.6584v-1.2858
		h14.2445c4.3411,0,16.325,0,16.325,10.4646c0,6.6581-4.2955,8.8733-8.8656,9.6305l10.6519,19.2261H175.4244z M200.8724,360.5879
		c-9.7927,0-17.7489-8.0302-17.7489-17.9272c0-9.897,7.9562-17.9231,17.7489-17.9231c9.7992,0,17.7661,8.0261,17.7661,17.9231
		C218.6385,352.5577,210.6716,360.5879,200.8724,360.5879z M261.5717,352.9965h-5.8464v-16.0994c0-3.6473,0-7.9573-3.9227-7.9573
		c-4.4247,0-6.5205,6.1851-6.5205,10.4391v13.6176h-5.855v-15.2736c0-4.6539,0-8.7831-3.9098-8.7831
		c-4.027,0-6.5366,5.4797-6.5366,9.6692v14.3875h-5.8325v-19.7467c0-4.1377-0.9441-5.1399-4.5096-5.256v-1.1742l10.4572-1.8884
		v7.011h0.1172c0.9828-2.0602,3.6754-7.011,8.9229-7.011c5.4357,0,6.7905,3.9441,7.2012,6.6024h0.1216
		c1.2141-2.301,3.4302-6.6024,8.6831-6.6024c7.4302,0,7.4302,6.839,7.4302,11.024V352.9965z M263.5976,307.9244v-16.4866h-4.1464
		v-2.1505h4.1464v-4.2324l5.3182-4.7699v9.0023h6.9702v2.1505h-6.9702v15.6219c0,3.7592,0.2689,5.428,4.3593,5.428
		c0.6367,0,1.3335-0.0559,1.9701-0.215v2.1464c-1.1677,0.2192-2.3958,0.4215-3.5658,0.4215
		C266.5782,314.8407,263.5976,314.0405,263.5976,307.9244z M284.0045,352.9792h-4.9183v-2.9335
		c-0.8774,1.0365-2.5636,3.4796-6.3444,3.4796c-3.8495,0-6.6066-2.7828-6.6066-5.7118c0-7.0023,9.8024-7.5574,12.9509-7.6562
		v-2.5333c0-3.1355,0-6.6111-3.099-6.6111c-3.2454,0-3.4387,2.8862-3.4387,5.0669h-5.8733c0.5483-3.2776,2.172-6.7571,9.2625-6.7571
		c6.9808,0,8.0669,3.6345,8.0669,8.5464V352.9792z M311.9106,352.8373h-5.5894v-14.6455c0-4.469,0-8.4303-3.7528-8.4303
		c-3.7054,0-6.9056,5.256-6.9056,9.2776v13.7982h-5.6v-18.9425c0-3.9613-0.9421-4.9248-4.4775-5.0322v-1.1313l10.0775-1.8151v7.2433
		h0.114c0.8494-1.9742,3.8174-7.2433,9.3701-7.2433c5.0863,0,6.7637,3.626,6.7637,7.9786V352.8373z M311.5731,302.264v12.2152
		h-5.0669v-17.1185c0-3.5742-0.8044-4.4432-3.9915-4.5421v-1.0236l9.0583-1.6345v6.7399h0.103
		c0.7075-2.344,2.2775-6.7399,6.3228-6.7399c0.9161,0,1.8754,0.1031,2.7269,0.2582v4.8472
		c-0.8042-0.2495-1.7162-0.6064-2.5763-0.6064C313.0439,294.6594,311.5731,298.6897,311.5731,302.264z M335.4273,353.1599h-4.6755
		v-2.6367c-1.1526,1.1312-3.0709,3.1615-6.4344,3.1615c-6.0646,0-8.3466-5.1444-8.3466-11.024c0-5.9872,2.3745-11.923,8.5402-11.923
		c3.8193,0,5.2754,1.9788,6.1571,3.54h0.0837v-7.6819c0-3.3507-0.7311-4.1508-3.488-4.2798v-0.9548l8.1636-1.1656V353.1599z
		 M352.3459,350.4156c1.9161,0,3.5077-0.4558,4.2817-0.7784v2.0259c-0.8688,0.3268-3.2859,1.243-6.4302,1.243
		c-6.9506,0-11.1528-4.2841-11.1528-11.9573c0-7.2604,3.4645-10.4305,9.5615-10.4305c7.7914,0,8.4388,5.6949,8.4388,8.7831h-12.9789
		C344.0661,343.8951,345.9307,350.4156,352.3459,350.4156z M343.0705,299.9672c0,4.9851,2.0258,12.0562,8.9852,12.0562
		c2.0731,0,3.8064-0.5032,4.6365-0.8474v2.1981c-0.929,0.344-3.5463,1.342-6.9592,1.342c-7.5529,0-12.0994-4.6326-12.0994-12.951
		c0-7.8796,3.7572-11.3206,10.3768-11.3206c8.4366,0,9.1293,6.1807,9.1293,9.5227H343.0705z"/>
	<path fill="#404065" d="M325.8054,333.2841c-4.2881,0-4.7096,5.4153-4.7096,8.7141c0,3.626,0.3741,9.1401,4.7614,9.1401
		c4.4861,0,4.8947-5.8883,4.8947-8.3873v-1.9312C330.7518,338.1831,330.2508,333.2841,325.8054,333.2841z"/>
	<path fill="#404065" d="M348.4254,332.0797c-3.4086,0-4.3593,3.6304-4.3593,5.3723h8.4175
		C352.4836,336.3982,352.3954,332.0797,348.4254,332.0797z"/>
	<path fill="#404065" d="M347.8102,292.139c-3.7076,0-4.7397,3.9399-4.7397,5.8281h9.1356
		C352.2061,296.8231,352.103,292.139,347.8102,292.139z"/>
	<rect fill="none" width="512" height="512"/>
</g>
</svg>
