<?xml version="1.0" encoding="utf-8"?>
<!-- Generator: Adobe Illustrator 18.1.1, SVG Export Plug-In . SVG Version: 6.00 Build 0)  -->
<!DOCTYPE svg PUBLIC "-//W3C//DTD SVG 1.1//EN" "http://www.w3.org/Graphics/SVG/1.1/DTD/svg11.dtd">
<svg version="1.1" id="XMLID_2_" xmlns="http://www.w3.org/2000/svg" xmlns:xlink="http://www.w3.org/1999/xlink" x="0px" y="0px"
	 viewBox="0 0 512 512" enable-background="new 0 0 512 512" xml:space="preserve">
<g id="RDR">
	<path fill="#404065" d="M47.0588,248.6354c0.5817,0.2503,1.0752,0.6199,1.4806,1.1062c0.3338,0.4005,0.5984,0.844,0.7939,1.3304
		c0.1955,0.4864,0.2933,1.0395,0.2933,1.6617c0,0.751-0.1907,1.4901-0.5674,2.2149c-0.3815,0.7272-1.0061,1.2398-1.8787,1.5401
		c0.7295,0.2933,1.2469,0.7105,1.5497,1.2493c0.3052,0.5412,0.4578,1.3661,0.4578,2.4748v1.0609
		c0,0.7224,0.0286,1.2135,0.0858,1.471c0.0882,0.4053,0.2909,0.7057,0.6103,0.9012v0.3958h-3.6477
		c-0.1001-0.3505-0.1717-0.6342-0.2146-0.8488c-0.0858-0.4411-0.1335-0.8964-0.1383-1.3613l-0.0238-1.471
		c-0.0119-1.0061-0.186-1.6784-0.5221-2.017c-0.3338-0.3338-0.9608-0.5031-1.8811-0.5031h-3.2281v6.2011h-3.2281v-15.814h7.5625
		C45.645,248.2491,46.4747,248.385,47.0588,248.6354z M40.2282,250.9742v4.2486h3.5571c0.7057,0,1.235-0.0858,1.5878-0.2575
		c0.6246-0.3004,0.9394-0.8941,0.9394-1.781c0-0.9584-0.3028-1.6022-0.9084-1.9312c-0.3386-0.186-0.8488-0.2789-1.5282-0.2789
		H40.2282z"/>
	<path fill="#404065" d="M55.6894,250.9528h-3.1018v-2.8228h3.1018V250.9528z M52.5876,252.3475h3.1018v11.6942h-3.1018V252.3475z"
		/>
	<path fill="#404065" d="M65.6432,256.5412c-0.0572-0.4339-0.2027-0.8273-0.4387-1.1778c-0.3457-0.4721-0.8798-0.7105-1.6045-0.7105
		c-1.0323,0-1.738,0.5126-2.1171,1.5354c-0.2003,0.5412-0.3028,1.2636-0.3028,2.1624c0,0.8559,0.1025,1.5449,0.3028,2.0647
		c0.3648,0.9727,1.0538,1.4591,2.0647,1.4591c0.7176,0,1.2255-0.1931,1.5259-0.5793c0.3028-0.3862,0.484-0.8869,0.5507-1.502h3.1208
		c-0.0715,0.9298-0.4077,1.8096-1.0085,2.6393c-0.9608,1.3375-2.3818,2.0051-4.2652,2.0051c-1.8811,0-3.2687-0.5579-4.1556-1.6737
		c-0.8869-1.1158-1.3304-2.5606-1.3304-4.3391c0-2.0051,0.4888-3.5667,1.471-4.6825c0.9799-1.1158,2.3341-1.6737,4.0578-1.6737
		c1.4686,0,2.6702,0.329,3.6048,0.987c0.9322,0.658,1.4853,1.8215,1.657,3.4856H65.6432z"/>
	<path fill="#404065" d="M79.2758,252.4119c0.5865,0.2503,1.0681,0.6342,1.4472,1.1492c0.3195,0.4363,0.515,0.8869,0.5865,1.347
		c0.0715,0.4625,0.1073,1.2159,0.1073,2.2602v6.8735h-3.1232v-7.1214c0-0.6294-0.1049-1.1373-0.3195-1.5259
		c-0.2766-0.5436-0.8011-0.8154-1.5759-0.8154c-0.8011,0-1.409,0.2694-1.8263,0.8106c-0.4148,0.5412-0.6223,1.3137-0.6223,2.315
		v6.3371h-3.0565v-15.7592h3.0565v5.5789c0.4411-0.6795,0.9537-1.1539,1.533-1.4233c0.5793-0.267,1.1921-0.4029,1.831-0.4029
		C78.0336,252.0352,78.6869,252.1615,79.2758,252.4119z"/>
	<path fill="#404065" d="M83.088,254.6339v-2.1791h1.6308v-3.2615h3.0279v3.2615h1.8978v2.1791h-1.8978v6.1797
		c0,0.4792,0.0596,0.7772,0.1812,0.894c0.1216,0.1192,0.4935,0.1788,1.1158,0.1788c0.093,0,0.1907-0.0024,0.2956-0.0071
		c0.1025-0.0024,0.205-0.0071,0.3052-0.0167v2.2864l-1.4496,0.0548c-1.4448,0.0477-2.4318-0.2003-2.9611-0.7534
		c-0.3433-0.3481-0.515-0.8893-0.515-1.6188v-7.1978H83.088z"/>
	<path fill="#404065" d="M99.2287,252.5835c0.8154,0.3672,1.4877,0.9441,2.0194,1.7309c0.4792,0.6938,0.7915,1.4996,0.9322,2.4175
		c0.0835,0.5364,0.1168,1.3113,0.1001,2.3221h-8.5162c0.0477,1.173,0.4554,1.9932,1.2231,2.4652
		c0.4673,0.2957,1.03,0.4411,1.6856,0.4411c0.6962,0,1.2636-0.1788,1.6975-0.5364c0.2384-0.1931,0.4482-0.4625,0.6294-0.8058h3.1208
		c-0.0811,0.6962-0.4601,1.3995-1.1325,2.1147c-1.0466,1.1372-2.5129,1.7047-4.3988,1.7047c-1.5568,0-2.9301-0.4792-4.1198-1.4377
		c-1.1897-0.9584-1.7833-2.5201-1.7833-4.6825c0-2.0241,0.5364-3.5786,1.6093-4.6586c1.0753-1.0824,2.4676-1.6236,4.1818-1.6236
		C97.4954,252.0352,98.4133,252.2188,99.2287,252.5835z M94.6535,255.2252c-0.4315,0.4458-0.7033,1.049-0.8154,1.812h5.269
		c-0.0548-0.813-0.3266-1.4281-0.8154-1.8501c-0.4864-0.4196-1.0919-0.6294-1.812-0.6294
		C95.6954,254.5576,95.085,254.7793,94.6535,255.2252z"/>
	<path fill="#404065" d="M110.3245,252.0733c0.0405,0.0048,0.1264,0.0095,0.2646,0.0167v3.1328
		c-0.1955-0.0215-0.3672-0.0358-0.515-0.0429c-0.1526-0.0072-0.2742-0.0119-0.3672-0.0119c-1.2302,0-2.0551,0.4029-2.4771,1.2016
		c-0.236,0.453-0.3552,1.1468-0.3552,2.0837v5.5884h-3.0779v-11.6942h2.9182v2.0384c0.4721-0.7796,0.8821-1.3113,1.2326-1.5974
		c0.5722-0.4792,1.316-0.72,2.2316-0.72C110.2363,252.0685,110.2864,252.0709,110.3245,252.0733z"/>
	<path fill="#404065" d="M127.9958,248.571c1.1086,0.3648,2.0075,1.0347,2.6941,2.0051c0.5507,0.7892,0.9274,1.6403,1.1277,2.5558
		c0.2003,0.9155,0.3004,1.7881,0.3004,2.6178c0,2.1028-0.422,3.8814-1.266,5.3405c-1.1468,1.9693-2.9134,2.9516-5.3047,2.9516
		h-6.8187v-15.814h6.8187C126.5272,248.242,127.3426,248.3564,127.9958,248.571z M121.9377,250.9742v10.321h3.0517
		c1.5616,0,2.6488-0.7677,3.2663-2.3079c0.3362-0.8416,0.5054-1.8477,0.5054-3.0136c0-1.6093-0.2527-2.8443-0.7582-3.7074
		c-0.5054-0.8607-1.5092-1.2922-3.0136-1.2922H121.9377z"/>
	<path fill="#404065" d="M138.982,256.9274c0.5698-0.0691,0.9775-0.1597,1.2207-0.267c0.4411-0.1859,0.6604-0.4744,0.6604-0.8678
		c0-0.4792-0.1693-0.8106-0.5054-0.9942c-0.3385-0.1812-0.8321-0.2742-1.4853-0.2742c-0.7319,0-1.2493,0.1812-1.5545,0.5388
		c-0.2169,0.2646-0.3624,0.6199-0.4363,1.0729h-2.9492c0.0644-1.0228,0.3528-1.8644,0.8631-2.5224
		c0.8106-1.03,2.2053-1.5449,4.1794-1.5449c1.2851,0,2.4271,0.2551,3.426,0.7629c0.9989,0.5078,1.4996,1.4662,1.4996,2.8753v5.3643
		c0,0.3719,0.0048,0.8225,0.0191,1.3494c0.0238,0.4029,0.0835,0.6747,0.1836,0.8154c0.1001,0.1454,0.2503,0.2622,0.4506,0.3552
		v0.4506h-3.3259c-0.093-0.236-0.1573-0.4577-0.1931-0.6652s-0.0644-0.4435-0.0858-0.7081
		c-0.4244,0.4578-0.9131,0.8488-1.4686,1.1682c-0.6604,0.3791-1.409,0.5698-2.2435,0.5698c-1.0657,0-1.9455-0.3028-2.6393-0.906
		c-0.6938-0.6056-1.0395-1.4615-1.0395-2.5701c0-1.4377,0.5579-2.4771,1.6737-3.1208c0.6127-0.3505,1.5139-0.6008,2.7036-0.7534
		L138.982,256.9274z M140.8511,258.3555c-0.1955,0.1216-0.3934,0.2194-0.5913,0.2957c-0.2003,0.0739-0.4745,0.1454-0.8225,0.2074
		l-0.6962,0.1288c-0.6509,0.1168-1.1205,0.2551-1.4043,0.4196c-0.4816,0.2789-0.7224,0.7129-0.7224,1.297
		c0,0.5245,0.1478,0.9012,0.4411,1.1325c0.2932,0.2336,0.6509,0.3505,1.0729,0.3505c0.6676,0,1.2851-0.1955,1.8477-0.5817
		c0.5627-0.3862,0.8535-1.0896,0.875-2.1124V258.3555z"/>
	<path fill="#404065" d="M154.9772,252.4119c0.5865,0.2503,1.0681,0.6342,1.4472,1.1492c0.3195,0.4363,0.515,0.8869,0.5865,1.347
		c0.0715,0.4625,0.1073,1.2159,0.1073,2.2602v6.8735h-3.1232v-7.1214c0-0.6294-0.1049-1.1373-0.3195-1.5259
		c-0.2766-0.5436-0.8011-0.8154-1.5759-0.8154c-0.8011,0-1.409,0.2694-1.8262,0.8106c-0.4148,0.5412-0.6223,1.3137-0.6223,2.315
		v6.3371h-3.0565v-15.7592h3.0565v5.5789c0.4411-0.6795,0.9537-1.1539,1.533-1.4233c0.5794-0.267,1.1921-0.4029,1.831-0.4029
		C153.7351,252.0352,154.3883,252.1615,154.9772,252.4119z"/>
	<path fill="#404065" d="M163.1143,264.0417h-3.0565v-15.814h3.0565V264.0417z"/>
	<path fill="#404065" d="M182.5832,248.6354c0.5817,0.2503,1.0753,0.6199,1.4806,1.1062c0.3338,0.4005,0.5984,0.844,0.7939,1.3304
		c0.1955,0.4864,0.2932,1.0395,0.2932,1.6617c0,0.751-0.1907,1.4901-0.5674,2.2149c-0.3815,0.7272-1.0061,1.2398-1.8787,1.5401
		c0.7296,0.2933,1.2469,0.7105,1.5497,1.2493c0.3052,0.5412,0.4577,1.3661,0.4577,2.4748v1.0609
		c0,0.7224,0.0286,1.2135,0.0858,1.471c0.0882,0.4053,0.2909,0.7057,0.6104,0.9012v0.3958h-3.6478
		c-0.1001-0.3505-0.1717-0.6342-0.2146-0.8488c-0.0858-0.4411-0.1335-0.8964-0.1383-1.3613l-0.0238-1.471
		c-0.0119-1.0061-0.186-1.6784-0.5221-2.017c-0.3338-0.3338-0.9608-0.5031-1.8811-0.5031h-3.2281v6.2011h-3.2281v-15.814h7.5625
		C181.1694,248.2491,181.9991,248.385,182.5832,248.6354z M175.7527,250.9742v4.2486h3.5571c0.7057,0,1.235-0.0858,1.5878-0.2575
		c0.6246-0.3004,0.9393-0.8941,0.9393-1.781c0-0.9584-0.3028-1.6022-0.9084-1.9312c-0.3385-0.186-0.8488-0.2789-1.5282-0.2789
		H175.7527z"/>
	<path fill="#404065" d="M197.8227,262.6112c-0.987,1.2183-2.4867,1.8263-4.4941,1.8263c-2.0122,0-3.5095-0.608-4.4965-1.8263
		c-0.987-1.2183-1.4806-2.6845-1.4806-4.4011c0-1.6856,0.4935-3.1471,1.4806-4.3845c0.987-1.235,2.4843-1.8525,4.4965-1.8525
		c2.0074,0,3.5071,0.6175,4.4941,1.8525c0.987,1.2374,1.4806,2.6989,1.4806,4.3845
		C199.3033,259.9267,198.8098,261.3929,197.8227,262.6112z M195.3766,260.9209c0.4792-0.6342,0.7176-1.5378,0.7176-2.7108
		c0-1.1706-0.2384-2.0718-0.7176-2.7036c-0.4792-0.6318-1.1658-0.9489-2.0599-0.9489c-0.8941,0-1.5831,0.3171-2.0647,0.9489
		c-0.484,0.6318-0.7248,1.533-0.7248,2.7036c0,1.173,0.2408,2.0766,0.7248,2.7108c0.4816,0.6366,1.1706,0.9537,2.0647,0.9537
		C194.2107,261.8745,194.8974,261.5574,195.3766,260.9209z"/>
	<path fill="#404065" d="M208.4846,256.5412c-0.0572-0.4339-0.2027-0.8273-0.4387-1.1778
		c-0.3457-0.4721-0.8797-0.7105-1.6045-0.7105c-1.0323,0-1.7381,0.5126-2.1171,1.5354c-0.2003,0.5412-0.3028,1.2636-0.3028,2.1624
		c0,0.8559,0.1025,1.5449,0.3028,2.0647c0.3648,0.9727,1.0538,1.4591,2.0647,1.4591c0.7176,0,1.2255-0.1931,1.5259-0.5793
		c0.3028-0.3862,0.484-0.8869,0.5507-1.502h3.1208c-0.0715,0.9298-0.4077,1.8096-1.0085,2.6393
		c-0.9608,1.3375-2.3818,2.0051-4.2652,2.0051c-1.8811,0-3.2687-0.5579-4.1556-1.6737s-1.3304-2.5606-1.3304-4.3391
		c0-2.0051,0.4888-3.5667,1.471-4.6825c0.9799-1.1158,2.3341-1.6737,4.0578-1.6737c1.4686,0,2.6702,0.329,3.6048,0.987
		c0.9322,0.658,1.4853,1.8215,1.657,3.4856H208.4846z"/>
	<path fill="#404065" d="M222.1148,252.4119c0.5865,0.2503,1.0681,0.6342,1.4472,1.1492c0.3195,0.4363,0.515,0.8869,0.5865,1.347
		c0.0715,0.4625,0.1073,1.2159,0.1073,2.2602v6.8735h-3.1232v-7.1214c0-0.6294-0.1049-1.1373-0.3195-1.5259
		c-0.2766-0.5436-0.8011-0.8154-1.5759-0.8154c-0.8011,0-1.409,0.2694-1.8263,0.8106c-0.4148,0.5412-0.6223,1.3137-0.6223,2.315
		v6.3371h-3.0565v-15.7592h3.0565v5.5789c0.4411-0.6795,0.9537-1.1539,1.533-1.4233c0.5793-0.267,1.1921-0.4029,1.831-0.4029
		C220.8727,252.0352,221.5259,252.1615,222.1148,252.4119z"/>
	<path fill="#404065" d="M231.7634,256.9274c0.5698-0.0691,0.9775-0.1597,1.2207-0.267c0.4411-0.1859,0.6604-0.4744,0.6604-0.8678
		c0-0.4792-0.1693-0.8106-0.5054-0.9942c-0.3385-0.1812-0.8321-0.2742-1.4853-0.2742c-0.7319,0-1.2493,0.1812-1.5545,0.5388
		c-0.2169,0.2646-0.3624,0.6199-0.4363,1.0729h-2.9492c0.0644-1.0228,0.3529-1.8644,0.8631-2.5224
		c0.8106-1.03,2.2053-1.5449,4.1794-1.5449c1.2851,0,2.4271,0.2551,3.426,0.7629s1.4996,1.4662,1.4996,2.8753v5.3643
		c0,0.3719,0.0048,0.8225,0.0191,1.3494c0.0238,0.4029,0.0834,0.6747,0.1836,0.8154c0.1001,0.1454,0.2503,0.2622,0.4506,0.3552
		v0.4506h-3.3259c-0.093-0.236-0.1573-0.4577-0.1931-0.6652s-0.0644-0.4435-0.0858-0.7081
		c-0.4244,0.4578-0.9131,0.8488-1.4686,1.1682c-0.6604,0.3791-1.409,0.5698-2.2435,0.5698c-1.0657,0-1.9455-0.3028-2.6393-0.906
		c-0.6938-0.6056-1.0395-1.4615-1.0395-2.5701c0-1.4377,0.5579-2.4771,1.6737-3.1208c0.6127-0.3505,1.5139-0.6008,2.7036-0.7534
		L231.7634,256.9274z M233.6326,258.3555c-0.1955,0.1216-0.3934,0.2194-0.5913,0.2957c-0.2003,0.0739-0.4745,0.1454-0.8225,0.2074
		l-0.6962,0.1288c-0.6509,0.1168-1.1205,0.2551-1.4043,0.4196c-0.4816,0.2789-0.7224,0.7129-0.7224,1.297
		c0,0.5245,0.1478,0.9012,0.4411,1.1325c0.2933,0.2336,0.6509,0.3505,1.0729,0.3505c0.6676,0,1.2851-0.1955,1.8477-0.5817
		c0.5627-0.3862,0.8535-1.0896,0.875-2.1124V258.3555z"/>
	<path fill="#404065" d="M245.9276,257.4329c0.4721-0.6795,1.2445-1.3518,2.3174-2.0194l0.3338-0.2027
		c-0.4577-0.515-0.813-1.0419-1.0633-1.5783c-0.2503-0.5388-0.3743-1.0967-0.3743-1.6761c0-1.1539,0.391-2.0551,1.173-2.7036
		c0.782-0.6485,1.7953-0.9704,3.0398-0.9704c1.1372,0,2.0742,0.3314,2.8181,0.9942c0.7415,0.6628,1.111,1.5116,1.111,2.5463
		c0,0.9322-0.2217,1.688-0.6652,2.2697c-0.4458,0.5817-1.0991,1.1182-1.9598,1.6141l2.2721,2.7561
		c0.2623-0.3719,0.4625-0.7773,0.6032-1.2135c0.1407-0.4363,0.2146-0.8965,0.2217-1.3828h2.7155
		c-0.0501,0.9608-0.2813,1.9335-0.6962,2.9158c-0.2289,0.5531-0.5984,1.1635-1.1134,1.831l2.8705,3.4284h-3.7002l-1.0991-1.3399
		c-0.5364,0.4959-1.0347,0.8631-1.4972,1.1015c-0.8249,0.422-1.7762,0.6342-2.8514,0.6342c-1.6212,0-2.8848-0.4721-3.7956-1.4162
		c-0.9108-0.9441-1.3661-1.9908-1.3661-3.1423C245.2219,258.9277,245.4556,258.1124,245.9276,257.4329z M248.9174,261.2189
		c0.4339,0.4363,0.987,0.6556,1.6641,0.6556c0.5102,0,0.9918-0.1144,1.4472-0.3457c0.4554-0.2289,0.8249-0.4864,1.1086-0.7677
		l-2.9587-3.6024c-0.7748,0.5078-1.2874,0.9561-1.5354,1.3423c-0.2503,0.3862-0.3743,0.813-0.3743,1.2779
		C248.2689,260.3034,248.4835,260.7826,248.9174,261.2189z M250.2644,252.748c0.1335,0.2098,0.422,0.577,0.8678,1.1086
		c0.4435-0.3004,0.7629-0.5555,0.9561-0.7629c0.3719-0.3886,0.5579-0.8082,0.5579-1.2588c0-0.329-0.1121-0.6223-0.3362-0.8821
		c-0.2217-0.2575-0.5579-0.3862-1.0109-0.3862c-0.2837,0-0.546,0.0763-0.7915,0.2265c-0.3696,0.2217-0.5555,0.5722-0.5555,1.0538
		C249.9521,252.1329,250.057,252.4333,250.2644,252.748z"/>
	<path fill="#404065" d="M271.3927,248.2277h3.7383l5.5956,15.814h-3.5834l-1.0443-3.252h-5.8245l-1.0705,3.252h-3.457
		L271.3927,248.2277z M271.1734,258.067h4.0507l-1.9979-6.2226L271.1734,258.067z"/>
	<path fill="#404065" d="M284.8632,260.3082c0.0644,0.5436,0.205,0.9298,0.4196,1.1587c0.3814,0.4077,1.0848,0.6103,2.1147,0.6103
		c0.6032,0,1.0824-0.0882,1.4377-0.267c0.3552-0.1788,0.5341-0.4459,0.5341-0.8058c0-0.3433-0.1431-0.6032-0.4292-0.782
		c-0.2885-0.1788-1.3542-0.4864-3.1995-0.9227c-1.328-0.329-2.2649-0.7415-2.8085-1.2326
		c-0.5436-0.4864-0.8154-1.1873-0.8154-2.1028c0-1.08,0.4244-2.0098,1.2731-2.7847c0.8511-0.7772,2.0456-1.1635,3.5858-1.1635
		c1.4639,0,2.6536,0.2909,3.5762,0.8726c0.9203,0.5841,1.4496,1.5902,1.5854,3.0207h-3.0565
		c-0.0453-0.3934-0.155-0.7033-0.3338-0.9322c-0.3385-0.4148-0.9107-0.6246-1.7213-0.6246c-0.6676,0-1.142,0.1049-1.4257,0.3123
		c-0.2837,0.2074-0.4244,0.4506-0.4244,0.7296c0,0.3505,0.1502,0.6056,0.4506,0.7605c0.3004,0.1669,1.3661,0.4482,3.1924,0.8488
		c1.2183,0.2861,2.1314,0.72,2.7394,1.297c0.6008,0.5889,0.9012,1.3208,0.9012,2.2006c0,1.1587-0.4315,2.1052-1.2946,2.8371
		c-0.8654,0.7343-2.1982,1.0991-4.0054,1.0991c-1.843,0-3.2019-0.3862-4.0793-1.1635c-0.8773-0.7748-1.3184-1.7643-1.3184-2.9659
		H284.8632z"/>
	<path fill="#404065" d="M297.0843,260.3082c0.0644,0.5436,0.205,0.9298,0.4196,1.1587c0.3815,0.4077,1.0848,0.6103,2.1147,0.6103
		c0.6032,0,1.0824-0.0882,1.4376-0.267c0.3553-0.1788,0.5341-0.4459,0.5341-0.8058c0-0.3433-0.1431-0.6032-0.4291-0.782
		c-0.2885-0.1788-1.3542-0.4864-3.1995-0.9227c-1.328-0.329-2.265-0.7415-2.8085-1.2326c-0.5436-0.4864-0.8154-1.1873-0.8154-2.1028
		c0-1.08,0.4244-2.0098,1.2732-2.7847c0.8511-0.7772,2.0456-1.1635,3.5858-1.1635c1.4639,0,2.6535,0.2909,3.5762,0.8726
		c0.9203,0.5841,1.4496,1.5902,1.5854,3.0207h-3.0565c-0.0453-0.3934-0.155-0.7033-0.3338-0.9322
		c-0.3386-0.4148-0.9108-0.6246-1.7214-0.6246c-0.6675,0-1.142,0.1049-1.4257,0.3123c-0.2837,0.2074-0.4244,0.4506-0.4244,0.7296
		c0,0.3505,0.1502,0.6056,0.4506,0.7605c0.3004,0.1669,1.3661,0.4482,3.1924,0.8488c1.2183,0.2861,2.1314,0.72,2.7394,1.297
		c0.6008,0.5889,0.9012,1.3208,0.9012,2.2006c0,1.1587-0.4315,2.1052-1.2946,2.8371c-0.8654,0.7343-2.1982,1.0991-4.0054,1.0991
		c-1.843,0-3.2019-0.3862-4.0793-1.1635c-0.8773-0.7748-1.3184-1.7643-1.3184-2.9659H297.0843z"/>
	<path fill="#404065" d="M316.6844,262.6112c-0.987,1.2183-2.4867,1.8263-4.4941,1.8263c-2.0122,0-3.5095-0.608-4.4965-1.8263
		c-0.9871-1.2183-1.4806-2.6845-1.4806-4.4011c0-1.6856,0.4935-3.1471,1.4806-4.3845c0.987-1.235,2.4843-1.8525,4.4965-1.8525
		c2.0074,0,3.5071,0.6175,4.4941,1.8525c0.987,1.2374,1.4806,2.6989,1.4806,4.3845
		C318.1649,259.9267,317.6714,261.3929,316.6844,262.6112z M314.2382,260.9209c0.4792-0.6342,0.7176-1.5378,0.7176-2.7108
		c0-1.1706-0.2384-2.0718-0.7176-2.7036c-0.4792-0.6318-1.1658-0.9489-2.0599-0.9489c-0.894,0-1.5831,0.3171-2.0647,0.9489
		c-0.484,0.6318-0.7248,1.533-0.7248,2.7036c0,1.173,0.2408,2.0766,0.7248,2.7108c0.4816,0.6366,1.1706,0.9537,2.0647,0.9537
		C313.0724,261.8745,313.759,261.5574,314.2382,260.9209z"/>
	<path fill="#404065" d="M327.3463,256.5412c-0.0572-0.4339-0.2026-0.8273-0.4387-1.1778
		c-0.3457-0.4721-0.8798-0.7105-1.6046-0.7105c-1.0323,0-1.738,0.5126-2.1171,1.5354c-0.2003,0.5412-0.3028,1.2636-0.3028,2.1624
		c0,0.8559,0.1025,1.5449,0.3028,2.0647c0.3648,0.9727,1.0538,1.4591,2.0647,1.4591c0.7176,0,1.2254-0.1931,1.5258-0.5793
		c0.3028-0.3862,0.484-0.8869,0.5507-1.502h3.1208c-0.0715,0.9298-0.4077,1.8096-1.0085,2.6393
		c-0.9608,1.3375-2.3817,2.0051-4.2652,2.0051c-1.8811,0-3.2687-0.5579-4.1556-1.6737s-1.3304-2.5606-1.3304-4.3391
		c0-2.0051,0.4887-3.5667,1.471-4.6825c0.9799-1.1158,2.3341-1.6737,4.0578-1.6737c1.4686,0,2.6703,0.329,3.6048,0.987
		c0.9322,0.658,1.4853,1.8215,1.657,3.4856H327.3463z"/>
	<path fill="#404065" d="M335.717,250.9528h-3.1018v-2.8228h3.1018V250.9528z M332.6152,252.3475h3.1018v11.6942h-3.1018V252.3475z"
		/>
	<path fill="#404065" d="M346.2979,252.5835c0.8154,0.3672,1.4877,0.9441,2.0194,1.7309c0.4792,0.6938,0.7915,1.4996,0.9322,2.4175
		c0.0835,0.5364,0.1168,1.3113,0.1001,2.3221h-8.5162c0.0477,1.173,0.4554,1.9932,1.2231,2.4652
		c0.4673,0.2957,1.0299,0.4411,1.6856,0.4411c0.6962,0,1.2636-0.1788,1.6975-0.5364c0.2384-0.1931,0.4482-0.4625,0.6294-0.8058
		h3.1208c-0.0811,0.6962-0.4601,1.3995-1.1325,2.1147c-1.0466,1.1372-2.5129,1.7047-4.3987,1.7047
		c-1.5569,0-2.9301-0.4792-4.1198-1.4377c-1.1897-0.9584-1.7833-2.5201-1.7833-4.6825c0-2.0241,0.5364-3.5786,1.6093-4.6586
		c1.0753-1.0824,2.4676-1.6236,4.1818-1.6236C344.5646,252.0352,345.4825,252.2188,346.2979,252.5835z M341.7227,255.2252
		c-0.4315,0.4458-0.7033,1.049-0.8154,1.812h5.269c-0.0548-0.813-0.3266-1.4281-0.8154-1.8501
		c-0.4864-0.4196-1.0919-0.6294-1.812-0.6294C342.7646,254.5576,342.1542,254.7793,341.7227,255.2252z M347.1633,247.5625
		l-3.2615,3.2091h-2.2101l2.0599-3.2091H347.1633z"/>
	<path fill="#404065" d="M353.2691,260.3082c0.0644,0.5436,0.205,0.9298,0.4196,1.1587c0.3814,0.4077,1.0848,0.6103,2.1147,0.6103
		c0.6032,0,1.0824-0.0882,1.4377-0.267c0.3552-0.1788,0.5341-0.4459,0.5341-0.8058c0-0.3433-0.1431-0.6032-0.4292-0.782
		c-0.2885-0.1788-1.3542-0.4864-3.1995-0.9227c-1.328-0.329-2.2649-0.7415-2.8085-1.2326
		c-0.5436-0.4864-0.8154-1.1873-0.8154-2.1028c0-1.08,0.4244-2.0098,1.2731-2.7847c0.8512-0.7772,2.0456-1.1635,3.5858-1.1635
		c1.4639,0,2.6536,0.2909,3.5762,0.8726c0.9203,0.5841,1.4496,1.5902,1.5854,3.0207h-3.0565
		c-0.0453-0.3934-0.155-0.7033-0.3338-0.9322c-0.3385-0.4148-0.9107-0.6246-1.7213-0.6246c-0.6676,0-1.142,0.1049-1.4257,0.3123
		c-0.2837,0.2074-0.4244,0.4506-0.4244,0.7296c0,0.3505,0.1502,0.6056,0.4506,0.7605c0.3004,0.1669,1.3661,0.4482,3.1924,0.8488
		c1.2183,0.2861,2.1314,0.72,2.7394,1.297c0.6008,0.5889,0.9012,1.3208,0.9012,2.2006c0,1.1587-0.4315,2.1052-1.2946,2.8371
		c-0.8654,0.7343-2.1982,1.0991-4.0054,1.0991c-1.843,0-3.2019-0.3862-4.0793-1.1635c-0.8773-0.7748-1.3184-1.7643-1.3184-2.9659
		H353.2691z"/>
	<path fill="#404065" d="M373.8538,256.9274c0.5698-0.0691,0.9775-0.1597,1.2207-0.267c0.4411-0.1859,0.6604-0.4744,0.6604-0.8678
		c0-0.4792-0.1693-0.8106-0.5055-0.9942c-0.3385-0.1812-0.8321-0.2742-1.4853-0.2742c-0.7319,0-1.2493,0.1812-1.5544,0.5388
		c-0.217,0.2646-0.3624,0.6199-0.4363,1.0729h-2.9492c0.0644-1.0228,0.3528-1.8644,0.8631-2.5224
		c0.8106-1.03,2.2053-1.5449,4.1794-1.5449c1.285,0,2.4271,0.2551,3.426,0.7629c0.9989,0.5078,1.4996,1.4662,1.4996,2.8753v5.3643
		c0,0.3719,0.0048,0.8225,0.0191,1.3494c0.0239,0.4029,0.0835,0.6747,0.1836,0.8154c0.1001,0.1454,0.2503,0.2622,0.4506,0.3552
		v0.4506h-3.3259c-0.093-0.236-0.1574-0.4577-0.1931-0.6652c-0.0358-0.2074-0.0644-0.4435-0.0858-0.7081
		c-0.4244,0.4578-0.9131,0.8488-1.4686,1.1682c-0.6604,0.3791-1.409,0.5698-2.2435,0.5698c-1.0657,0-1.9455-0.3028-2.6393-0.906
		c-0.6938-0.6056-1.0395-1.4615-1.0395-2.5701c0-1.4377,0.5579-2.4771,1.6736-3.1208c0.6127-0.3505,1.5139-0.6008,2.7036-0.7534
		L373.8538,256.9274z M375.723,258.3555c-0.1955,0.1216-0.3934,0.2194-0.5913,0.2957c-0.2003,0.0739-0.4744,0.1454-0.8225,0.2074
		l-0.6962,0.1288c-0.6509,0.1168-1.1206,0.2551-1.4043,0.4196c-0.4816,0.2789-0.7224,0.7129-0.7224,1.297
		c0,0.5245,0.1478,0.9012,0.4411,1.1325c0.2932,0.2336,0.6509,0.3505,1.0729,0.3505c0.6675,0,1.285-0.1955,1.8477-0.5817
		c0.5627-0.3862,0.8535-1.0896,0.875-2.1124V258.3555z"/>
	<path fill="#404065" d="M387.9394,252.0733c0.0405,0.0048,0.1264,0.0095,0.2646,0.0167v3.1328
		c-0.1955-0.0215-0.3672-0.0358-0.515-0.0429c-0.1526-0.0072-0.2742-0.0119-0.3672-0.0119c-1.2302,0-2.0551,0.4029-2.4771,1.2016
		c-0.236,0.453-0.3552,1.1468-0.3552,2.0837v5.5884h-3.0779v-11.6942h2.9182v2.0384c0.472-0.7796,0.8821-1.3113,1.2326-1.5974
		c0.5722-0.4792,1.316-0.72,2.2316-0.72C387.8511,252.0685,387.9012,252.0709,387.9394,252.0733z"/>
	<path fill="#404065" d="M396.9872,256.5412c-0.0572-0.4339-0.2027-0.8273-0.4387-1.1778
		c-0.3457-0.4721-0.8798-0.7105-1.6045-0.7105c-1.0323,0-1.7381,0.5126-2.1171,1.5354c-0.2003,0.5412-0.3028,1.2636-0.3028,2.1624
		c0,0.8559,0.1025,1.5449,0.3028,2.0647c0.3648,0.9727,1.0538,1.4591,2.0647,1.4591c0.7176,0,1.2254-0.1931,1.5258-0.5793
		c0.3028-0.3862,0.484-0.8869,0.5508-1.502h3.1208c-0.0715,0.9298-0.4077,1.8096-1.0085,2.6393
		c-0.9608,1.3375-2.3817,2.0051-4.2652,2.0051c-1.8811,0-3.2687-0.5579-4.1556-1.6737s-1.3304-2.5606-1.3304-4.3391
		c0-2.0051,0.4888-3.5667,1.471-4.6825c0.9799-1.1158,2.3341-1.6737,4.0578-1.6737c1.4686,0,2.6703,0.329,3.6048,0.987
		c0.9322,0.658,1.4853,1.8215,1.657,3.4856H396.9872z"/>
	<path fill="#404065" d="M410.6198,252.4119c0.5865,0.2503,1.0681,0.6342,1.4472,1.1492c0.3195,0.4363,0.515,0.8869,0.5865,1.347
		c0.0715,0.4625,0.1073,1.2159,0.1073,2.2602v6.8735h-3.1232v-7.1214c0-0.6294-0.1049-1.1373-0.3195-1.5259
		c-0.2766-0.5436-0.8011-0.8154-1.5759-0.8154c-0.8011,0-1.409,0.2694-1.8263,0.8106c-0.4149,0.5412-0.6223,1.3137-0.6223,2.315
		v6.3371h-3.0565v-15.7592h3.0565v5.5789c0.4411-0.6795,0.9536-1.1539,1.533-1.4233c0.5793-0.267,1.1921-0.4029,1.831-0.4029
		C409.3776,252.0352,410.0309,252.1615,410.6198,252.4119z"/>
	<path fill="#404065" d="M418.7783,250.9528h-3.1018v-2.8228h3.1018V250.9528z M415.6765,252.3475h3.1018v11.6942h-3.1018V252.3475z
		"/>
	<path fill="#404065" d="M420.5378,254.6339v-2.1791h1.6307v-3.2615h3.0279v3.2615h1.8978v2.1791h-1.8978v6.1797
		c0,0.4792,0.0596,0.7772,0.1812,0.894c0.1216,0.1192,0.4935,0.1788,1.1158,0.1788c0.093,0,0.1907-0.0024,0.2956-0.0071
		c0.1025-0.0024,0.205-0.0071,0.3052-0.0167v2.2864l-1.4496,0.0548c-1.4448,0.0477-2.4318-0.2003-2.9611-0.7534
		c-0.3433-0.3481-0.515-0.8893-0.515-1.6188v-7.1978H420.5378z"/>
	<path fill="#404065" d="M436.6761,252.5835c0.8154,0.3672,1.4877,0.9441,2.0194,1.7309c0.4792,0.6938,0.7915,1.4996,0.9322,2.4175
		c0.0834,0.5364,0.1168,1.3113,0.1001,2.3221h-8.5162c0.0477,1.173,0.4554,1.9932,1.2231,2.4652
		c0.4673,0.2957,1.03,0.4411,1.6856,0.4411c0.6962,0,1.2636-0.1788,1.6975-0.5364c0.2384-0.1931,0.4482-0.4625,0.6294-0.8058h3.1208
		c-0.0811,0.6962-0.4601,1.3995-1.1324,2.1147c-1.0467,1.1372-2.5129,1.7047-4.3988,1.7047c-1.5568,0-2.9301-0.4792-4.1198-1.4377
		c-1.1897-0.9584-1.7834-2.5201-1.7834-4.6825c0-2.0241,0.5364-3.5786,1.6093-4.6586c1.0752-1.0824,2.4676-1.6236,4.1818-1.6236
		C434.9428,252.0352,435.8607,252.2188,436.6761,252.5835z M432.1009,255.2252c-0.4315,0.4458-0.7033,1.049-0.8154,1.812h5.269
		c-0.0548-0.813-0.3266-1.4281-0.8154-1.8501c-0.4864-0.4196-1.0919-0.6294-1.812-0.6294
		C433.1428,254.5576,432.5324,254.7793,432.1009,255.2252z"/>
	<path fill="#404065" d="M448.2702,256.5412c-0.0572-0.4339-0.2026-0.8273-0.4387-1.1778
		c-0.3457-0.4721-0.8797-0.7105-1.6045-0.7105c-1.0323,0-1.738,0.5126-2.1171,1.5354c-0.2003,0.5412-0.3028,1.2636-0.3028,2.1624
		c0,0.8559,0.1025,1.5449,0.3028,2.0647c0.3648,0.9727,1.0538,1.4591,2.0647,1.4591c0.7177,0,1.2255-0.1931,1.5258-0.5793
		c0.3028-0.3862,0.484-0.8869,0.5508-1.502h3.1208c-0.0715,0.9298-0.4077,1.8096-1.0085,2.6393
		c-0.9608,1.3375-2.3818,2.0051-4.2653,2.0051c-1.8811,0-3.2686-0.5579-4.1555-1.6737s-1.3304-2.5606-1.3304-4.3391
		c0-2.0051,0.4887-3.5667,1.471-4.6825c0.9799-1.1158,2.3341-1.6737,4.0578-1.6737c1.4686,0,2.6702,0.329,3.6048,0.987
		c0.9322,0.658,1.4853,1.8215,1.657,3.4856H448.2702z"/>
	<path fill="#404065" d="M452.2946,254.6339v-2.1791h1.6308v-3.2615h3.0279v3.2615h1.8978v2.1791h-1.8978v6.1797
		c0,0.4792,0.0596,0.7772,0.1812,0.894c0.1216,0.1192,0.4935,0.1788,1.1158,0.1788c0.093,0,0.1907-0.0024,0.2956-0.0071
		c0.1025-0.0024,0.205-0.0071,0.3052-0.0167v2.2864l-1.4496,0.0548c-1.4448,0.0477-2.4318-0.2003-2.9611-0.7534
		c-0.3433-0.3481-0.515-0.8893-0.515-1.6188v-7.1978H452.2946z"/>
	<path fill="#404065" d="M468.4329,252.5835c0.8154,0.3672,1.4877,0.9441,2.0194,1.7309c0.4792,0.6938,0.7915,1.4996,0.9322,2.4175
		c0.0834,0.5364,0.1168,1.3113,0.1001,2.3221h-8.5162c0.0477,1.173,0.4554,1.9932,1.2231,2.4652
		c0.4673,0.2957,1.03,0.4411,1.6856,0.4411c0.6962,0,1.2636-0.1788,1.6975-0.5364c0.2384-0.1931,0.4482-0.4625,0.6294-0.8058h3.1208
		c-0.0811,0.6962-0.4601,1.3995-1.1325,2.1147c-1.0467,1.1372-2.5129,1.7047-4.3988,1.7047c-1.5568,0-2.9301-0.4792-4.1198-1.4377
		c-1.1897-0.9584-1.7834-2.5201-1.7834-4.6825c0-2.0241,0.5364-3.5786,1.6093-4.6586c1.0752-1.0824,2.4676-1.6236,4.1818-1.6236
		C466.6996,252.0352,467.6176,252.2188,468.4329,252.5835z M463.8578,255.2252c-0.4315,0.4458-0.7033,1.049-0.8154,1.812h5.269
		c-0.0548-0.813-0.3266-1.4281-0.8154-1.8501c-0.4864-0.4196-1.0919-0.6294-1.812-0.6294
		C464.8996,254.5576,464.2893,254.7793,463.8578,255.2252z"/>
	<path fill="#404065" d="M475.4042,260.3082c0.0644,0.5436,0.205,0.9298,0.4196,1.1587c0.3815,0.4077,1.0848,0.6103,2.1147,0.6103
		c0.6032,0,1.0824-0.0882,1.4376-0.267c0.3553-0.1788,0.5341-0.4459,0.5341-0.8058c0-0.3433-0.143-0.6032-0.4291-0.782
		c-0.2885-0.1788-1.3542-0.4864-3.1995-0.9227c-1.328-0.329-2.265-0.7415-2.8085-1.2326c-0.5436-0.4864-0.8154-1.1873-0.8154-2.1028
		c0-1.08,0.4244-2.0098,1.2731-2.7847c0.8511-0.7772,2.0456-1.1635,3.5858-1.1635c1.4639,0,2.6536,0.2909,3.5762,0.8726
		c0.9203,0.5841,1.4496,1.5902,1.5855,3.0207h-3.0565c-0.0453-0.3934-0.155-0.7033-0.3338-0.9322
		c-0.3386-0.4148-0.9107-0.6246-1.7214-0.6246c-0.6675,0-1.142,0.1049-1.4257,0.3123c-0.2837,0.2074-0.4244,0.4506-0.4244,0.7296
		c0,0.3505,0.1502,0.6056,0.4506,0.7605c0.3004,0.1669,1.3661,0.4482,3.1924,0.8488c1.2183,0.2861,2.1314,0.72,2.7394,1.297
		c0.6008,0.5889,0.9012,1.3208,0.9012,2.2006c0,1.1587-0.4315,2.1052-1.2946,2.8371c-0.8654,0.7343-2.1982,1.0991-4.0054,1.0991
		c-1.8429,0-3.2019-0.3862-4.0793-1.1635c-0.8774-0.7748-1.3185-1.7643-1.3185-2.9659H475.4042z"/>
	<rect fill="none" width="512" height="512"/>
</g>
</svg>
