<?xml version="1.0" encoding="utf-8"?>
<!-- Generator: Adobe Illustrator 18.1.1, SVG Export Plug-In . SVG Version: 6.00 Build 0)  -->
<!DOCTYPE svg PUBLIC "-//W3C//DTD SVG 1.1//EN" "http://www.w3.org/Graphics/SVG/1.1/DTD/svg11.dtd">
<svg version="1.1" id="XMLID_2_" xmlns="http://www.w3.org/2000/svg" xmlns:xlink="http://www.w3.org/1999/xlink" x="0px" y="0px"
	 viewBox="0 0 512 512" enable-background="new 0 0 512 512" xml:space="preserve">
<g id="Rodondi-Joye">
	<path fill="#404065" d="M323.8687,304.5894l-58.4794-86.31h-45.9805v89.7232c0,0-4.2852-0.0709-9.13-0.5292
		c-2.3974-0.2237-8.6878-1.5237-8.6878-1.5237V96.0071h77.8725c35.9659,0,63.4821,22.8277,63.4821,60.9816
		c0,37.8272-28.1875,58.7867-59.4686,60.0404l61.9655,87.5602H323.8687z M324.1795,156.9887
		c0-26.2765-18.443-44.7248-46.284-44.7248h-58.4866v89.748h58.4866C305.7366,202.0119,324.1795,183.2511,324.1795,156.9887z"/>
	<path fill="#404065" d="M166.5575,282.3618l10.954-13.7669c9.3839,12.5096,22.199,23.151,41.5921,23.151
		c28.4537,0,46.284-19.7058,46.284-47.847V96h17.8232v147.8988c0,43.4639-28.4521,64.1073-63.1714,64.1073
		C197.5296,308.0062,180.3173,300.185,166.5575,282.3618z"/>
	<path fill="#404065" d="M212.7777,361.1133l-5.2621-7.7661h-4.1361v7.7661h-1.6037v-18.7679h7.006
		c3.2357,0,5.7114,2.0547,5.7114,5.4876c0,3.4044-2.3904,5.2887-5.2035,5.4024l5.429,7.878H212.7777z M212.8061,347.8329
		c0-2.3637-1.6605-4.0242-4.1645-4.0242h-5.2621v8.0751h5.2621C211.1456,351.8839,212.8061,350.1967,212.8061,347.8329z"/>
	<path fill="#404065" d="M221.7337,351.7435c0-5.4858,3.6016-9.7072,9.1158-9.7072c5.4876,0,9.1176,4.2214,9.1176,9.7072
		c0,5.4876-3.63,9.7072-9.1176,9.7072C225.3353,361.4507,221.7337,357.2311,221.7337,351.7435z M238.2782,351.7435
		c0-4.7559-2.9249-8.2438-7.4287-8.2438c-4.5286,0-7.4269,3.4879-7.4269,8.2438c0,4.7275,2.8983,8.2438,7.4269,8.2438
		C235.3532,359.9874,238.2782,356.471,238.2782,351.7435z"/>
	<path fill="#404065" d="M247.8842,361.1133v-18.7679h5.9937c5.8233,0,9.4817,4.2498,9.4817,9.3982
		c0,5.2052-3.6584,9.3698-9.4817,9.3698H247.8842z M261.6724,351.7435c0-4.3901-2.8148-7.9348-7.7945-7.9348h-4.3901V359.65h4.3901
		C258.8292,359.65,261.6724,356.1336,261.6724,351.7435z"/>
	<path fill="#404065" d="M270.6018,351.7435c0-5.4858,3.6016-9.7072,9.1176-9.7072c5.4858,0,9.114,4.2214,9.114,9.7072
		c0,5.4876-3.6282,9.7072-9.114,9.7072C274.2033,361.4507,270.6018,357.2311,270.6018,351.7435z M287.1463,351.7435
		c0-4.7559-2.9267-8.2438-7.4269-8.2438c-4.5322,0-7.4305,3.4879-7.4305,8.2438c0,4.7275,2.8983,8.2438,7.4305,8.2438
		C284.2195,359.9874,287.1463,356.471,287.1463,351.7435z"/>
	<path fill="#404065" d="M310.1729,361.1133l-11.817-16.1218v16.1218h-1.6037v-18.7679h1.6321l11.7602,15.898v-15.898h1.6054
		v18.7679H310.1729z"/>
	<path fill="#404065" d="M320.3702,361.1133v-18.7679h5.992c5.825,0,9.4834,4.2498,9.4834,9.3982
		c0,5.2052-3.6584,9.3698-9.4834,9.3698H320.3702z M334.1567,351.7435c0-4.3901-2.8148-7.9348-7.7945-7.9348h-4.3901V359.65h4.3901
		C331.3152,359.65,334.1567,356.1336,334.1567,351.7435z"/>
	<path fill="#404065" d="M343.7893,361.1133v-18.7679h1.6037v18.7679H343.7893z"/>
	<path fill="#404065" d="M198.8101,387.6705l0.9856-1.2378c0.8418,1.1259,1.9961,2.0814,3.7401,2.0814
		c2.5609,0,4.1663-1.7724,4.1663-4.3048V370.872h1.6019v13.3372c0,3.9106-2.5591,5.7682-5.683,5.7682
		C201.5965,389.9774,200.0479,389.2741,198.8101,387.6705z"/>
	<path fill="#404065" d="M221.723,380.2702c0-5.4876,3.6016-9.7072,9.1158-9.7072c5.4876,0,9.1176,4.2196,9.1176,9.7072
		s-3.63,9.7072-9.1176,9.7072C225.3246,389.9774,221.723,385.7578,221.723,380.2702z M238.2675,380.2702
		c0-4.7559-2.925-8.2438-7.4287-8.2438c-4.5286,0-7.4269,3.4879-7.4269,8.2438c0,4.7275,2.8983,8.2438,7.4269,8.2438
		C235.3426,388.514,238.2675,384.9977,238.2675,380.2702z"/>
	<path fill="#404065" d="M254.2615,389.64v-8.0183l-7.4571-10.7497h1.9429l6.3294,9.2295l6.3312-9.2295h1.9411l-7.4553,10.7497
		v8.0183H254.2615z"/>
	<path fill="#404065" d="M272.8714,389.64v-18.768h11.9022v1.4634h-10.3004v6.951h10.1015v1.4616h-10.1015v7.4287h10.3004v1.4634
		H272.8714z"/>
	<path fill="#404065" d="M206.8656,415.8064v-0.9182c-0.6908,0.7565-1.561,1.1117-2.639,1.1117
		c-1.3355,0-2.7189-0.9182-2.7189-2.5911c0-1.6907,1.3675-2.5751,2.7189-2.5751c1.078,0,1.9624,0.3534,2.639,1.11v-1.577
		c0-1.1597-0.9324-1.7866-2.076-1.7866c-0.9803,0-1.7368,0.3374-2.4472,1.1419l-0.4653-0.5789
		c0.8045-0.8684,1.7049-1.3035,2.9942-1.3035c1.577,0,2.8308,0.7565,2.8308,2.4952v5.4716H206.8656z M206.8656,414.2773v-1.7067
		c-0.547-0.7228-1.4154-1.078-2.3495-1.078c-1.2716,0-2.124,0.8205-2.124,1.9322c0,1.094,0.8524,1.9145,2.124,1.9145
		C205.4502,415.3394,206.3187,414.986,206.8656,414.2773z"/>
	<path fill="#404065" d="M213.536,415.8064l-3.2837-7.7732h0.9341l2.8326,6.7911l2.8006-6.7911h0.9483l-3.2819,7.7732H213.536z"/>
	<path fill="#404065" d="M219.8849,411.9118c0-2.2697,1.4474-4.0722,3.717-4.0722c2.3016,0,3.749,1.8026,3.749,4.0722
		c0,2.2696-1.4474,4.0882-3.749,4.0882C221.3323,416,219.8849,414.1815,219.8849,411.9118z M226.4505,411.9118
		c0-1.7227-1.0141-3.3157-2.8486-3.3157c-1.8026,0-2.8326,1.593-2.8326,3.3157c0,1.7386,1.03,3.3316,2.8326,3.3316
		C225.4365,415.2435,226.4505,413.6505,226.4505,411.9118z"/>
	<path fill="#404065" d="M230.2084,411.9118c0-2.2697,1.4793-4.0722,3.7667-4.0722c1.3515,0,2.124,0.531,2.7509,1.3195
		l-0.5789,0.515c-0.563-0.7725-1.2716-1.078-2.1258-1.078c-1.8185,0-2.9267,1.4492-2.9267,3.3157
		c0,1.8665,1.1082,3.3316,2.9267,3.3316c0.8542,0,1.5628-0.3214,2.1258-1.094l0.5789,0.515
		c-0.6269,0.8045-1.3994,1.3355-2.7509,1.3355C231.6877,416,230.2084,414.1815,230.2084,411.9118z"/>
	<path fill="#404065" d="M244.668,415.8064v-0.9182c-0.6926,0.7565-1.561,1.1117-2.6408,1.1117
		c-1.3355,0-2.7189-0.9182-2.7189-2.5911c0-1.6907,1.3675-2.5751,2.7189-2.5751c1.0798,0,1.9642,0.3534,2.6408,1.11v-1.577
		c0-1.1597-0.9341-1.7866-2.076-1.7866c-0.9821,0-1.7386,0.3374-2.4472,1.1419l-0.4653-0.5789
		c0.8027-0.8684,1.7049-1.3035,2.9924-1.3035c1.577,0,2.8326,0.7565,2.8326,2.4952v5.4716H244.668z M244.668,414.2773v-1.7067
		c-0.5488-0.7228-1.4172-1.078-2.3495-1.078c-1.2716,0-2.124,0.8205-2.124,1.9322c0,1.094,0.8524,1.9145,2.124,1.9145
		C243.2508,415.3394,244.1192,414.986,244.668,414.2773z"/>
	<path fill="#404065" d="M249.4061,414.3093v-5.5356h-1.2875v-0.7406h1.2875v-2.124h0.8542v2.124h1.577v0.7406h-1.577v5.4077
		c0,0.6269,0.2557,1.062,0.8027,1.062c0.3712,0,0.6926-0.1776,0.8702-0.3712l0.3214,0.6447
		c-0.3055,0.2895-0.6766,0.4831-1.3195,0.4831C249.9052,416,249.4061,415.3713,249.4061,414.3093z"/>
	<path fill="#404065" d="M254.1265,414.7604l0.499-0.6109c0.499,0.6269,1.4172,1.1419,2.5112,1.1419
		c1.3035,0,2.0743-0.6766,2.0743-1.577c0-2.124-4.9087-0.9182-4.9087-3.7188c0-1.1899,1.0158-2.156,2.7704-2.156
		c1.3355,0,2.2199,0.515,2.7829,1.1437l-0.4671,0.5949c-0.4511-0.6127-1.2858-1.03-2.3158-1.03
		c-1.2076,0-1.9322,0.6109-1.9322,1.4154c0,1.9482,4.8927,0.7566,4.8927,3.7508c0,1.2556-0.9661,2.2856-2.9143,2.2856
		C255.8651,416,254.899,415.6288,254.1265,414.7604z"/>
	<rect fill="none" width="512" height="512"/>
</g>
</svg>
