<?xml version="1.0" encoding="utf-8"?>
<!-- Generator: Adobe Illustrator 18.1.1, SVG Export Plug-In . SVG Version: 6.00 Build 0)  -->
<!DOCTYPE svg PUBLIC "-//W3C//DTD SVG 1.1//EN" "http://www.w3.org/Graphics/SVG/1.1/DTD/svg11.dtd">
<svg version="1.1" id="XMLID_2_" xmlns="http://www.w3.org/2000/svg" xmlns:xlink="http://www.w3.org/1999/xlink" x="0px" y="0px"
	 viewBox="0 0 512 512" enable-background="new 0 0 512 512" xml:space="preserve">
<g id="Uchitomi">
	<path fill="#404065" d="M106.5872,234.3833c-0.1968,0-0.4011,0.0176-0.6057,0.0349c-0.2515-1.5925-0.3164-2.729-0.3164-3.6636
		c0-0.4413,0.0151-0.845,0.0273-1.2336c0.0151-0.379,0.0249-0.7677,0.0249-1.1766c0-0.79-0.0522-1.6522-0.2441-2.6818
		c-0.7876-4.1472-2.4924-7.1429-4.8052-8.4315c-1.3608-0.7626-2.8662-0.8922-4.2373-0.3713
		c-1.6296,0.6281-3.666,1.8492-5.6377,3.0306c-1.3853,0.8374-2.8208,1.6924-3.616,2.0287c-1.321,0.5485-1.7048,0.5035-2.1584,0.4487
		l-0.3813-0.0398c-0.1147-0.0074-2.6792-0.2269-4.1846-0.2269c-1.498,0-4.0625,0.2195-4.1724,0.2269
		c-0.0098,0-0.3962,0.0398-0.3962,0.0398c-0.4485,0.0548-0.8347,0.0997-2.1558-0.4487c-0.7898-0.3363-2.2332-1.1913-3.6165-2.0261
		c-1.969-1.184-4.0076-2.4052-5.6377-3.0332c-1.3706-0.5209-2.8735-0.3912-4.2368,0.3713
		c-2.3052,1.2886-4.0127,4.2843-4.8003,8.4292c-0.1992,1.0293-0.2468,1.8917-0.2468,2.6841c0,0.4137,0.0125,0.8075,0.03,1.1989
		c0.0073,0.3937,0.02,0.8026,0.02,1.2487c0,1.5951-0.1719,3.7061-1.1465,7.6715c-0.4312,1.7371-0.5957,3.4518-0.5957,5.0543
		c0,3.4219,0.7476,6.3678,1.3062,8.0925c-1.9067,3.1478-2.8042,7.2466-2.8042,12.7097v7.7162c0,3.2004,0.4487,7.547,3.9453,9.9595
		c0.207,1.1963,0.3989,2.2631,0.5957,3.3597c-0.5933,0.9619-1.2285,2.3528-1.2285,3.9678c0,3.0406,2.5972,6.131,7.5615,6.131
		h35.1794c4.9622,0,7.5566-3.0903,7.5566-6.131c0-1.63-0.6506-3.0358-1.2437-4.0077c0.2766-1.7947,1.6548-10.8966,2.0911-13.7328
		c2.303-0.8922,4.5386-2.9508,4.6733-6.6497c0.0271-0.2041,2.5569-16.8518,2.729-18.0009c0.5107-0.8921,1.1687-2.4349,1.1687-4.5609
		C115.0286,238.5232,112.3868,234.3833,106.5872,234.3833z M81.3551,263.7518c1.2334,0.299,1.4055,1.5502,1.074,2.4672
		c-0.364,0.9972-1.762,1.6002-3.6462,1.64l-0.197-0.7474c0,0,1.7625-0.025,2.5623-0.5883c0.7603-0.5383,0.6582-1.1366,0.6057-1.4158
		c-0.0251-0.1646-0.1746-0.5732-0.8801-0.683c-0.5757-0.0995-1.5176,0.01-2.998,0.5435l-0.3218-0.7129
		C77.5538,264.2551,79.8868,263.3879,81.3551,263.7518z M78.3917,262.999l0.1594-0.693c0,0,2.2083,0.0848,3.1526,0.5735
		l-0.2812,0.6528C80.3653,263.059,78.3917,262.999,78.3917,262.999z M78.5709,270.9048l0.2769-0.9172l0.7974,0.2343l-0.207,0.683
		h3.3125v0.6678h-3.5093l-0.3662,1.2312c0.3164-0.2045,1.0469-0.5931,1.9365-0.5482c1.2734,0.0748,2.0662,0.6429,1.9565,1.8342
		c-0.1021,1.1316-1.8569,1.9391-4.115,1.3162l0.1223-0.6929c0,0,1.114,0.2939,1.8467,0.1893
		c0.7354-0.0997,1.4282-0.4785,1.3557-1.1365c-0.0647-0.6133-0.9346-0.9622-1.7297-0.7728
		c-0.8223,0.1897-1.1636,0.4736-1.7393,1.027l-0.7954-0.2294l0.6655-2.2181h-1.1165v-0.6678H78.5709z M78.6683,278.3318
		l0.7874-0.2343l0.5757,1.974c0.0825-0.0298,0.167-0.0599,0.2544-0.0847c0.9644-0.3042,1.8044-0.4637,1.8044-0.4637l0.1047,0.7478
		c-0.6555,0.0898-1.7297,0.4038-2.3081,0.623c-0.5706,0.2242-1.6646,0.6531-1.6223,1.356c0.0422,0.603,0.9619,0.6829,1.8467,0.7228
		c0.8875,0.025,2.4001-0.314,2.4001-0.314l0.0349,0.7626c-0.4011,0.1097-1.8518,0.2941-2.9558,0.2391
		c-1.0991-0.0697-2.2632-0.3438-2.106-1.6997c0.0571-0.4387,0.5706-1.1115,1.7671-1.6051L78.6683,278.3318z M82.8602,290.2054
		c-0.1394-0.0699-0.3364-0.1696-0.5632-0.2742c-0.0073,0.0498-0.0149,0.0996-0.0222,0.1445
		c-0.1946,1.0867-0.9026,1.6101-1.4011,1.7844l-0.4434-0.6082c0,0,0.6504-0.2192,0.9722-0.9071
		c0.1045-0.2343,0.167-0.4486,0.1941-0.6929c-0.4285-0.1647-0.8896-0.3142-1.3206-0.4038
		c-0.1001-0.0249-0.1897-0.0349-0.2817-0.0497c-0.167,0.613-0.3218,1.1763-0.4165,1.4603c-0.2642,0.7927-0.7175,0.9919-1.271,0.9622
		c-0.2268-0.0151-0.5208-0.1348-0.7427-0.4089c-0.3188-0.4185-0.3589-1.2411-0.1895-1.6448
		c0.3215-0.7578,1.0767-1.0717,2.0063-1.0916c0.1396-0.5485,0.269-1.062,0.3364-1.3361H77.786v-0.6879h2.8811
		c-0.0325,0.1993-0.2542,1.1166-0.4985,2.0637c0.0898,0.0099,0.177,0.0099,0.2668,0.0299c0.3613,0.0548,0.7751,0.1746,1.1611,0.309
		c-0.0022-0.0449-0.0046-0.0946-0.0125-0.1495c-0.0645-0.7228-0.1694-1.0668-0.1694-1.0668H82.15c0,0,0.1621,0.7029,0.1819,1.5055
		c0.491,0.1942,0.8398,0.3688,0.8398,0.3688L82.8602,290.2054z M111.0235,245.8632l-2.8362,18.7361
		c0,4.4164-4.3616,4.5609-4.3616,4.5609l-2.572,16.918c0,0,1.3982,1.5302,1.3982,3.245s-1.7148,3.1652-4.5984,3.1652
		c-1.7595,0-7.8909,0-12.397,0c6.6946-2.4574,11.5374-9.3412,11.5374-15.7863c0-9.2368-7.4971-16.7385-16.7412-16.7385
		c-7.4546,0-13.77,4.8799-15.9336,11.6243c0.4136,0.7177,0.6855,1.6647,0.6855,2.9258c0,1.8046-0.5732,3.2601-1.3484,4.272
		c0.8001,6.3752,5.1914,11.6392,11.0833,13.7028c-4.5134,0-10.3682,0-12.0654,0c-2.8882,0-4.6006-1.4503-4.6006-3.1652
		s1.3979-3.245,1.3979-3.245l-1.0566-5.9517c-2.3179-1.0171-3.6538-3.1055-3.6538-8.0903c0-1.6,0-2.6118,0-7.7162
		c0-6.7543,1.4482-10.1226,3.1455-12.3082c0,0-2.759-6.2734-1.1367-12.8431c2.1162-8.5885,0.7202-9.5132,1.3735-12.9575
		c0.9644-5.0619,3.292-7.2601,5.0791-6.5797c2.5547,0.9719,6.9937,4.1149,9.1646,5.0197c2.3228,0.9692,3.1453,0.7002,3.9453,0.6255
		c0.6704-0.0549,2.739-0.2144,3.9204-0.2144c1.186,0,3.2549,0.1594,3.9229,0.2144c0.7976,0.0747,1.6177,0.3438,3.9404-0.6255
		c2.1733-0.9048,6.6123-4.0477,9.1692-5.0197c1.7869-0.6804,4.1174,1.5178,5.0745,6.5797c0.623,3.2524-0.583,4.2169,1.0615,11.5868
		c0.7305-0.1843,2.0215-0.4535,2.9661-0.4535c3.9602,0,5.4832,2.5569,5.4832,5.0269
		C112.0704,244.6044,111.0235,245.8632,111.0235,245.8632z"/>
	<path fill="#404065" d="M78.3441,290.8483c0.1072,0.0548,0.3589-0.0248,0.531-0.5084c0.0522-0.1594,0.1792-0.6379,0.324-1.1814
		c-0.3765,0.025-0.6628,0.1348-0.8623,0.339C77.9854,289.8514,77.9105,290.5941,78.3441,290.8483z"/>
	<polygon fill="#404065" points="60.6436,288.3809 60.6436,290.8784 61.2418,290.8784 61.2418,288.3809 61.045,288.3809 	"/>
	<polygon fill="#404065" points="63.2008,288.3809 63.2008,290.8784 63.7965,290.8784 63.7965,288.3809 63.6019,288.3809 	"/>
	<polygon fill="#404065" points="66.3536,288.3809 66.1617,288.3809 65.7579,288.3809 65.7579,290.8784 66.3536,290.8784 	"/>
	<polygon fill="#404065" points="94.3175,288.3809 94.3175,290.8784 94.9132,290.8784 94.9132,288.3809 94.7188,288.3809 	"/>
	<polygon fill="#404065" points="96.8721,288.3809 96.8721,290.8784 97.4703,290.8784 97.4703,288.3809 97.2735,288.3809 	"/>
	<polygon fill="#404065" points="99.4268,288.3809 99.4268,290.8784 100.0274,290.8784 100.0274,288.3809 99.8282,288.3809 	"/>
	<polygon fill="#404065" points="104.1998,242.7477 103.8009,245.0133 104.3839,245.1205 104.8179,242.6531 104.2345,242.5607 	"/>
	<polygon fill="#404065" points="106.7144,243.1938 106.3079,245.4568 106.9036,245.5588 107.3399,243.104 106.7491,242.9993 	"/>
	<polygon fill="#404065" points="109.2364,243.6399 108.8355,245.903 109.4259,246.0127 109.8595,243.55 109.2691,243.4429 	"/>
	<polygon fill="#404065" points="64.1702,247.179 61.8946,247.5802 62.002,248.1685 64.4669,247.7297 64.3621,247.144 	"/>
	<polygon fill="#404065" points="61.7301,246.4587 64.2376,246.4587 64.2376,245.858 64.0382,245.858 61.7301,245.858 	"/>
	<polygon fill="#404065" points="64.4644,244.5845 61.9993,244.1458 61.962,244.3428 61.8922,244.7366 64.3621,245.1727 	"/>
	<polygon fill="#404065" points="96.6004,247.5179 96.5333,247.9169 98.9908,248.353 99.1002,247.7622 96.6329,247.3235 	"/>
	<polygon fill="#404065" points="96.7003,245.9479 96.7003,246.5509 99.2047,246.5509 99.2047,245.9479 99.0081,245.9479 	"/>
	<polygon fill="#404065" points="99.1002,244.734 98.9908,244.1458 98.7989,244.1833 96.5333,244.5845 96.6329,245.1727 	"/>
	<polygon fill="#404065" points="63.3355,276.8317 63.1409,276.8317 60.8428,276.8317 60.8428,277.4248 63.3355,277.4248 	"/>
	<polygon fill="#404065" points="60.8428,274.8676 63.3355,274.8676 63.3355,274.2744 63.1409,274.2744 60.8428,274.2744 	"/>
	<polygon fill="#404065" points="63.3355,271.7123 63.1409,271.7123 60.8428,271.7123 60.8428,272.3054 63.3355,272.3054 	"/>
	<path fill="#404065" d="M100.6954,228.7758c0.0249-0.9596,0.0498-1.4806-0.1272-2.4227c-0.5383-2.8337-1.4954-4.2693-2.2505-4.6904
		c-0.2939-0.1646-0.5383-0.1123-0.5881-0.0948c-1.0618,0.4037-2.6694,1.498-4.1299,2.475
		c-1.1538,0.7751-2.2505,1.2761-3.1577,1.7396c5.6301,1.6599,9.0049,4.7926,10.3406,6.6097
		C100.628,230.8442,100.6553,229.7427,100.6954,228.7758z"/>
	<path fill="#404065" d="M67.3082,224.0427c-1.4653-0.9769-3.0684-2.0713-4.1274-2.475c-0.0471-0.0175-0.2964-0.0697-0.5884,0.0948
		c-0.7598,0.4211-1.7144,1.8567-2.2529,4.6904c-0.1768,0.9421-0.1567,1.4631-0.1245,2.4227
		c0.0325,0.9669,0.0623,2.0685-0.0923,3.6163c1.3335-1.8171,4.7153-4.9498,10.3359-6.6097
		C69.5611,225.3188,68.4595,224.8179,67.3082,224.0427z"/>
	<path fill="#404065" d="M66.9217,248.1361c4.1199,9.5792,11.3352,9.5294,13.6606,9.5294c2.3127,0,9.5232,0.0498,13.6453-9.5294
		c0,0-7.9028,0.5782-13.6453,0.5782C74.8302,248.7144,66.9217,248.1361,66.9217,248.1361z"/>
	<path fill="#404065" d="M68.8482,242.7676l-0.0171,0.1521l0.8545,0.0896l0.0176-0.1495c0.0273-0.2616,0.3416-2.5123,2.2905-2.5123
		c2.0461,0,2.2056,2.2133,2.2056,2.8888v0.1544h0.8599v-0.1544c0-1.8094-0.8-3.741-3.0654-3.741
		C69.773,239.4952,68.9654,241.636,68.8482,242.7676z"/>
	<path fill="#404065" d="M87.7203,243.7844c0-0.673,0.1572-2.8837,2.2007-2.8837c2.019,0,2.2905,2.4773,2.2905,2.5049l0.0173,0.1595
		l0.8501-0.0947l-0.0149-0.1547c-0.1147-1.1365-0.9175-3.2723-3.1431-3.2723c-2.2578,0-3.0605,1.934-3.0605,3.741v0.157h0.8599
		V243.7844z"/>
	<path fill="#404065" d="M141.6693,231.7079c-5.2039,0-9.3635,4.1521-9.3635,9.3635c0,5.2029,4.1597,9.4049,9.3635,9.4049
		c5.2126,0,9.4236-4.202,9.4236-9.4049C151.0928,235.86,146.8819,231.7079,141.6693,231.7079z"/>
	<path fill="#404065" d="M184.8887,242.7512c0,3.8359,0,8.6235-5.4683,8.6235c-5.6238,0-5.6238-4.7876-5.6238-8.6235v-20.4608
		h-11.5706v23.0393c0,10.408,5.6772,15.4037,17.1372,15.4037c11.4746,0,17.0996-4.9957,17.0996-15.4037v-23.0393h-11.5742V242.7512z
		"/>
	<path fill="#404065" d="M237.3848,245.1166h-11.3577c-0.6951,3.5253-2.2156,6.2582-6.1111,6.2582
		c-5.4136,0-7.1431-5.2562-7.1431-10.3033c0-5.0519,1.7295-10.3107,7.1431-10.3107c4.79,0,5.8496,4.1547,6.0586,5.5206h11.2529
		c-1.0044-9.4149-6.6868-14.8245-16.9927-14.8755c-11.5667,0-19.0364,7.8282-19.0364,19.6655
		c0,11.0985,6.8914,19.662,19.0364,19.662C231.2262,260.7334,237.3848,252.6921,237.3848,245.1166z"/>
	<polygon fill="#404065" points="253.8043,244.9619 264.6634,244.9619 264.6634,259.8438 276.2652,259.8438 276.2652,222.2904 
		264.6634,222.2904 264.6634,235.3368 253.8043,235.3368 253.8043,222.2904 242.2249,222.2904 242.2249,259.8438 253.8043,259.8438 
			"/>
	<rect x="282.2144" y="222.2904" fill="#404065" width="11.5967" height="37.5533"/>
	<polygon fill="#404065" points="320.1378,259.8438 320.1378,231.9171 330.6553,231.9171 330.6553,222.2904 298.0259,222.2904 
		298.0259,231.9171 308.5635,231.9171 308.5635,259.8438 	"/>
	<path fill="#404065" d="M352.8494,260.7334c11.4099,0,19.0315-8.202,19.0315-19.662c0-11.4696-7.6216-19.6655-19.0315-19.6655
		c-11.4148,0-19.0413,8.1959-19.0413,19.6655C333.8082,252.5314,341.4346,260.7334,352.8494,260.7334z M352.8494,230.7607
		c2.9412,0,7.4597,1.9491,7.4597,10.3107c0,8.3594-4.5186,10.3033-7.4597,10.3033c-2.946,0-7.4744-1.944-7.4744-10.3033
		C345.3751,232.7098,349.9034,230.7607,352.8494,230.7607z"/>
	<polygon fill="#404065" points="398.6509,244.3788 398.5464,244.3788 393.178,222.2904 376.721,222.2904 376.721,259.8438 
		387.6649,259.8438 387.6649,235.7566 387.762,235.7566 394.2945,259.8438 402.9129,259.8438 409.4329,235.7566 409.5474,235.7566 
		409.5474,259.8438 420.4788,259.8438 420.4788,222.2904 404.0169,222.2904 	"/>
	<rect x="426.418" y="222.2904" fill="#404065" width="11.5645" height="37.5533"/>
	<path fill="#404065" d="M458.5767,231.7079c-5.2041,0-9.3586,4.1521-9.3586,9.3635c0,5.2029,4.1545,9.4049,9.3586,9.4049
		c5.2039,0,9.4233-4.202,9.4233-9.4049C468.0001,235.86,463.7806,231.7079,458.5767,231.7079z"/>
	<path fill="#404065" d="M210.6221,289.1562h13.3638v-15.2683h-13.3638V289.1562z M212.484,275.6351h9.6401v4.9647h-9.6401V275.6351
		z M212.484,282.3821h9.6401v5.1017h-9.6401V282.3821z"/>
	<path fill="#404065" d="M237.4122,277.9504h6.0789v-1.8094h-7.2129v-2.7216h-1.949v2.7216h-7.2129v1.8094h6.0762
		c-0.5229,1.2614-2.4448,5.2465-6.4175,8.1277l1.3481,1.5427c1.042-0.7153,1.9541-1.5502,2.7515-2.425v1.3508h3.4546v2.9857h1.949
		v-2.9857h3.4519v-1.3508c0.7998,0.8749,1.7146,1.7097,2.7563,2.425l1.3435-1.5427
		C239.8573,283.1969,237.9405,279.2118,237.4122,277.9504z M234.3292,284.7645h-3.0754c1.4231-1.6597,2.4299-3.4194,3.0754-4.7452
		V284.7645z M236.2782,284.7645v-4.7452c0.6379,1.3258,1.6499,3.0856,3.0754,4.7452H236.2782z"/>
	<path fill="#404065" d="M260.4339,283.6431l-1.3708,1.0742v-6.8217c1.1489,0.3142,1.9316,0.424,1.9316,0.424l0.4685-1.8394
		c-5.543-1.2488-7.2903-3.0608-7.2903-3.0608h-1.9487c0,0-1.7373,1.812-7.2725,3.0608l0.4731,1.8394c0,0,0.7778-0.1097,1.9268-0.424
		v9.7252c-1.4155,0.1371-2.3901,0.0648-2.3901,0.0648l0.2517,1.9664c0,0,4.1746,0.2045,7.6716-1.4606l-0.5234-1.8817
		c-1.0669,0.5035-2.1511,0.8075-3.1631,1.027v-2.2058h2.7593c0.6577,0.9297,3.2622,4.0253,9.082,4.4014l0.4409-1.8094
		c-0.9744-0.0922-1.8018-0.259-2.5596-0.4685l2.6792-2.1035L260.4339,283.6431z M254.1832,275.8271
		c1.1665,0.7401,2.4175,1.2734,3.519,1.6548h-0.4861h-3.0329V275.8271z M253.2037,275.1617
		c0.2563,0.1893,0.5083,0.3713,0.7676,0.5382h-1.5352C252.6976,275.5331,252.9544,275.3511,253.2037,275.1617z M257.2161,279.1569
		v1.2411h-8.0178v-1.2411H257.2161z M248.7125,277.4819c1.0991-0.3813,2.3477-0.9147,3.5117-1.6548v1.6548h-3.0259H248.7125z
		 M249.1983,283.3564v-1.2437h8.0178v1.2437H249.1983z M256.8201,286.4844c-0.8352-0.4237-1.5154-0.8875-2.0437-1.3534h3.7534
		L256.8201,286.4844z"/>
	<path fill="#404065" d="M264.9424,279.8049h12.6836v-6.2383h-12.6836V279.8049z M266.8692,275.2588h8.8301v2.7167h-8.8301V275.2588
		z"/>
	<path fill="#404065" d="M263.7613,288.9916h7.0156v-8.0253h-7.0156V288.9916z M265.6878,282.6687h3.1626v4.4935h-3.1626V282.6687z"
		/>
	<path fill="#404065" d="M271.9161,288.9916h7.011v-8.0253h-7.011V288.9916z M273.8526,282.6687h3.1479v4.4935h-3.1479V282.6687z"/>
	<path fill="#404065" d="M286.4063,269.0006c0,0,11.5371,0.4012,17.7156,3.1604l1.675-3.8359
		c-5.573-2.8212-18.4583-3.3545-18.4583-3.3545L286.4063,269.0006z"/>
	<path fill="#404065" d="M302.5269,272.6642c-6.4302-1.58-16.6641,2.2158-16.6641,2.2158l1.416,3.1179
		c6.4675-2.3354,10.6047-2.804,13.1343-2.39c3.0884,0.5232,3.751,2.2928,3.876,2.9957c0.2139,1.2238,0.6501,3.8531-2.667,6.1932
		c-3.5215,2.4751-11.2305,2.6221-11.2305,2.6221l0.8599,3.265c8.2522-0.1771,14.3882-2.8064,15.9783-7.1879
		C308.6905,279.4634,307.9378,273.9977,302.5269,272.6642z"/>
	<path fill="#404065" d="M325.2496,275.9667c-3.9155-0.2118-7.1057,1.4979-8.5142,2.3976l1.6104-5.3958h15.3901v-2.9236h-14.5178
		l0.8923-3.0059l-3.4744-1.0393l-1.2014,4.0452H309.67v2.9236h4.8926l-2.8965,9.7175l3.4795,1.0118
		c2.5146-2.4125,4.0276-3.6313,7.6216-4.4861c3.4841-0.8276,7.3049,0.7202,7.5989,3.3744c0.3167,2.8862-2.7166,4.5311-5.9441,4.9797
		c-3.2175,0.4513-8.1099-0.8075-8.1099-0.8075l-0.5508,3.0233c9.9243,2.7216,17.6279-0.8175,18.0742-5.7898
		C334.304,278.7506,330.8199,276.2732,325.2496,275.9667z"/>
	<path fill="#404065" d="M348.0694,286.943c-3.8958-0.1296-7.916-0.5061-8.0928-3.1254c-0.2095-3.098,4.6084-5.0022,7.0981-5.9667
		c2.5474-0.9846,7.25-2.3455,10.1238-2.7216l-0.4509-3.2676c0,0-3.6963,0.7029-7.9082,2.0137
		c-0.384,0.1149-0.7627,0.2419-1.1292,0.3613l-2.5022-8.6333l-3.4795,1.0118l2.5649,8.8728
		c-5.249,2.1559-7.5095,5.0918-7.7439,7.0458c-0.7002,5.9316,4.3989,7.1554,9.2341,7.4321
		c4.8301,0.2666,11.2104-0.5435,12.9526-1.0117l-0.1321-3.3523C358.6043,285.6021,351.9571,287.0775,348.0694,286.943z"/>
	<path fill="#404065" d="M385.1876,272.1086H381.96c0,0,0.4661,1.4952,0.76,4.6854c0.0173,0.2192,0.0349,0.4211,0.0498,0.6329
		c-1.7046-0.588-3.5017-1.1115-5.1067-1.3557c-0.3862-0.0597-0.7676-0.0873-1.1587-0.1421
		c1.0564-4.1547,2.0312-8.1774,2.1704-9.0471h-12.6133v3.0159h8.4661c-0.3113,1.2411-0.8821,3.489-1.4978,5.8569
		c-4.0601,0.1095-7.3799,1.4603-8.7852,4.8177c-0.7354,1.7645-0.571,5.3832,0.8374,7.1779
		c0.9595,1.2312,2.2754,1.7546,3.2571,1.8195c2.4202,0.1194,4.4138-0.7452,5.573-4.2172c0.4187-1.2687,1.0991-3.7136,1.812-6.4077
		c0.4038,0.0648,0.8074,0.1296,1.231,0.2118c1.9019,0.3938,3.9429,1.0518,5.8147,1.7595c-0.1245,1.0892-0.3962,2.0364-0.8599,3.0306
		c-1.4055,3.0133-4.2742,3.9678-4.2742,3.9678l1.959,2.7217c2.1682-0.7527,5.2886-3.0706,6.1484-7.8484
		c0.0273-0.2019,0.0549-0.4137,0.0874-0.6156c0.9944,0.4362,1.8618,0.8599,2.4697,1.184l1.3784-3.0557
		c0,0-1.5354-0.7574-3.6738-1.64C385.9102,275.1617,385.1876,272.1086,385.1876,272.1086z M370.8218,283.9271
		c-0.748,2.166-1.8469,2.4824-2.3154,2.2158c-1.894-1.0742-1.5728-4.3617-0.0325-5.9119c0.8674-0.8623,2.1184-1.3508,3.7834-1.4879
		C371.6216,281.1506,371.0611,283.2368,370.8218,283.9271z"/>
	<rect fill="none" width="512" height="512"/>
</g>
</svg>
