<?xml version="1.0" encoding="utf-8"?>
<!-- Generator: Adobe Illustrator 18.1.1, SVG Export Plug-In . SVG Version: 6.00 Build 0)  -->
<!DOCTYPE svg PUBLIC "-//W3C//DTD SVG 1.1//EN" "http://www.w3.org/Graphics/SVG/1.1/DTD/svg11.dtd">
<svg version="1.1" id="XMLID_1_" xmlns="http://www.w3.org/2000/svg" xmlns:xlink="http://www.w3.org/1999/xlink" x="0px" y="0px"
	 viewBox="0 0 512 512" enable-background="new 0 0 512 512" xml:space="preserve">
<g id="EHL">
	<polygon fill="#404065" points="279.0316,198.8596 239.6535,238.2391 262.659,238.2391 302.0296,198.8596 	"/>
	<polygon fill="#404065" points="283.8869,238.2265 304.8725,238.2265 322.683,220.4109 301.7007,220.4109 	"/>
	<path fill="#404065" d="M261.2932,148.0029c-44.421,0-80.4352,35.5285-80.4352,79.3586c0,3.6956,0.2601,7.3247,0.7621,10.8831
		h21.087v-0.0074h14.4722l61.1005-61.0987h-23.0051l-55.0384,55.0388c-2.1423-6.2138-3.2839-12.8774-3.2336-19.8048
		c0.2242-33.9352,28.7894-61.4435,63.7959-61.4435c35.0028,0,63.1958,27.5083,62.968,61.4435
		c-0.0178,2.715-0.2275,5.3811-0.5886,8.0039l17.8064,17.8086c0.4949-3.5403,0.7517-7.153,0.7517-10.8235
		C341.7361,183.5314,305.7215,148.0029,261.2932,148.0029"/>
	<path fill="#404065" d="M123.2112,293.1821v2.4061c-0.04,0-0.0903,0-0.0903,0c-5.8094,0.1228-7.3661,0.1517-7.3661,2.2832v31.7477
		c0,1.4812,0.6788,2.2832,4.2664,2.2832h1.9869c6.846,0,9.541-2.7238,11.9145-12.0628c0.2638,0.0399,2.4131,0.3795,2.7238,0.4298
		c-1.1993,4.5739-1.8641,9.5302-1.8785,14.039h-34.7679v-2.4098h0.047c2.6369-0.0614,5.3611-0.1191,5.3611-2.2795v-31.7477
		c0-2.1678-2.7242-2.2218-5.3611-2.2832c0,0-0.0292,0-0.047,0v-2.4061H123.2112z"/>
	<path fill="#404065" d="M158.7053,318.3332c0.2531,0.5997,0.455,1.2067,0.455,1.5101c0,0.6574-0.6067,0.8564-1.1594,0.8564h-7.2
		c-0.5527,0-0.8057-0.152-0.8057-0.6071c0-0.2493,0.2024-0.8057,0.4517-1.5571l3.8259-11.1269L158.7053,318.3332z
		 M139.1683,334.1926h11.7373v-2.3191h-0.6574c-2.4712,0-3.4249-0.7517-3.4249-1.8571c0-0.455,0.101-1.1631,0.4047-2.1171
		l1.2064-3.6269c0.3037-0.8527,0.8057-1.2574,1.8138-1.2574h8.9121c1.0588,0,1.5608,0.253,1.9115,1.3081l0.9608,2.5648
		c0.3973,1.1128,0.5996,2.2181,0.5996,2.6735c0,1.1053-0.8053,2.3121-4.0785,2.3121h-0.401v2.3191h18.9806v-2.3191
		c-1.6618-0.1517-3.7752-0.8057-4.9346-3.6235l-12.3336-30.0068h-4.8339l-10.3718,28.6954
		c-1.6617,4.3856-2.9225,4.7832-5.4909,4.9349V334.1926z"/>
	<path fill="#404065" d="M177.8416,299.4499h17.4128v2.3158h-1.203c-2.4638,0-2.8215,0.455-2.8215,1.9651v19.7867
		c0,6.044,4.5339,7.9514,8.7171,7.9514c8.3527,0,10.0145-4.8806,10.0145-12.4853v-14.6527c0-2.4641-2.5181-2.4641-4.7363-2.5651
		v-2.3158h11.8387v2.3158c-2.0665,0.101-4.3823,0.101-4.3823,2.6191v16.1158c0,10.8235-6.3473,14.494-15.3068,14.494
		c-8.5547,0-15.1081-4.6819-15.1081-12.637v-18.8289c0-1.3081-0.4513-1.7631-2.8648-1.7631h-1.5604V299.4499z"/>
	<path fill="#404065" d="M225.7233,323.4667c2.5144,6.3473,5.8886,9.2158,10.3215,9.2158c3.4211,0,6.8963-1.5608,6.8963-6.091
		c0-2.8718-1.6617-4.1832-5.4369-5.1876l-6.145-1.7124c-3.0675-0.856-8.3598-3.2225-8.3598-9.6712
		c0-5.4876,3.3742-11.3762,13.5437-11.3762c2.0158,0,3.7826,0.152,5.289,0.3c1.5101,0.2061,2.7708,0.3577,3.6742,0.3577h1.3114
		c0,3.3742,0.3033,6.694,0.708,10.0141l-2.8721,0.3033c-1.1054-4.4289-3.9812-8.3557-9.3135-8.3557
		c-3.3235,0-7.0014,1.4124-7.0014,5.3826c0,2.7275,1.8645,4.1329,4.8846,4.9386l6.6976,1.8134
		c5.9896,1.6617,8.9594,4.4292,8.9594,10.4188c0,8.0057-6.1416,11.1813-13.645,11.1813c-1.5064,0-3.4755-0.1987-6.1416-0.7044
		c-1.9111-0.3577-3.9772-0.6577-5.3862-0.6577c0-2.6661-0.4517-7.1964-1.0584-9.8192L225.7233,323.4667z"/>
	<path fill="#404065" d="M272.4926,318.3332c0.2531,0.5997,0.455,1.2067,0.455,1.5101c0,0.6574-0.6067,0.8564-1.156,0.8564h-7.2
		c-0.556,0-0.8054-0.152-0.8054-0.6071c0-0.2493,0.1987-0.8057,0.4513-1.5571l3.8259-11.1269L272.4926,318.3332z M252.9626,334.1926
		h11.7303v-2.3191h-0.6574c-2.4674,0-3.4248-0.7517-3.4248-1.8571c0-0.455,0.1047-1.1631,0.4047-2.1171l1.2101-3.6269
		c0.3033-0.8527,0.8057-1.2574,1.8101-1.2574h8.9121c1.0588,0,1.5608,0.253,1.9148,1.3081l0.9574,2.5648
		c0.401,1.1128,0.6034,2.2181,0.6034,2.6735c0,1.1053-0.802,2.3121-4.0822,2.3121h-0.3973v2.3191h18.9806v-2.3191
		c-1.6617-0.1517-3.7789-0.8057-4.9349-3.6235l-12.3336-30.0068h-4.8372l-10.3682,28.6954
		c-1.6654,4.3856-2.9225,4.7832-5.4876,4.9349V334.1926z"/>
	<path fill="#404065" d="M295.104,331.8735c3.4718,0,4.4762-0.347,4.4762-3.9272v-23.7601c0-2.3195-1.8607-2.4205-4.3785-2.4205
		v-2.3158h12.7849l16.6182,23.3628h0.101v-17.0695c0-3.8766-0.9537-3.9775-4.7322-3.9775v-2.3158h11.5819v2.3158
		c-2.4712,0-4.1255,0-4.1255,2.1171v30.9169h-4.6893l-20.339-28.3521h-0.0976v21.2498c0,4.1762,1.0547,4.1762,5.2383,4.1762v2.3191
		H295.104V331.8735z"/>
	<path fill="#404065" d="M338.5025,331.8735c3.4755,0,4.4836-0.347,4.4836-3.9272v-23.7601c0-2.3195-1.8645-2.4205-4.3822-2.4205
		v-2.3158h12.7886l16.6111,23.3628h0.1047v-17.0695c0-3.8766-0.9537-3.9775-4.7326-3.9775v-2.3158h11.5786v2.3158
		c-2.4675,0-4.1296,0-4.1296,2.1171v30.9169h-4.6819l-20.3353-28.3521h-0.1051v21.2498c0,4.1762,1.0551,4.1762,5.2349,4.1762v2.3191
		h-12.4349V331.8735z"/>
	<path fill="#404065" d="M417.8145,293.1277c-0.0144,0.5238-0.0289,1.0876-0.0289,1.7594c0,2.7312,0.1517,6.4017,0.4299,8.9594
		h-2.5507c-2.4456-6.4957-4.3349-8.5403-11.0366-8.5403h-4.848c-2.1097,0-2.7852,0.4987-2.7852,2.0591v12.4131
		c0,1.438,1.405,1.6329,2.7852,1.6329h1.8134c5.6756,0,6.2068-2.8178,6.6222-5.8742h2.3661
		c-0.1842,1.5645-0.2852,4.2775-0.2852,7.1135c0,2.8574,0.101,5.7513,0.2926,7.5973h-2.4856
		c-0.4047-4.0138-0.7983-6.6581-6.5101-6.6581h-1.8134c-1.1993,0-2.7852,0.1698-2.7852,1.6366v14.8333
		c0,2.0557,2.2721,2.0557,3.9339,2.0557h3.8151c7.4494,0,10.6249-6.752,12.5249-10.791l0.0074-0.0218
		c0.3359,0.0326,2.2363,0.246,2.7238,0.3037c-0.7117,3.3379-1.5282,8.5403-1.7339,12.6876h-36.1807v-2.1822
		c2.6949-0.0577,5.4514-0.141,5.4514-2.4131v-31.9682c0-2.2795-2.7564-2.3591-5.4514-2.4168v-2.1859H417.8145z"/>
	<path fill="#404065" d="M220.5213,355.2256c-0.0688-1.3765-0.7732-2.5363-2.2329-2.5363c-1.3259,0-2.1349,0.842-2.1349,1.9799
		c0,2.2507,4.7037,2.6876,4.7037,5.7077c0,1.4957-0.9393,3.6202-4.7037,3.6202c-0.7695,0-2.0302-0.2312-3.0671-0.553
		c0.1302-0.7044,0.2675-1.6943,0.2675-2.648c0-0.3034-0.0181-0.589-0.0325-0.8742l0.8346-0.0507
		c0.1517,1.9292,1.0258,3.3239,2.5866,3.3239c1.297,0,2.1675-0.6866,2.1675-1.9474c0-2.6842-4.3967-2.6335-4.3967-5.9896
		c0-1.7957,1.5426-3.3745,4.0752-3.3745c1.0728,0,2.2832,0.2712,2.9225,0.4192c-0.0684,0.6215-0.1842,1.9329-0.1842,2.8722
		L220.5213,355.2256z"/>
	<path fill="#404065" d="M225.9763,352.6712c0,0.5383,0.3503,0.9248,0.9174,0.9248c0.6578,0,1.0262-0.6393,1.0262-1.1379
		c0-0.5238-0.3507-0.9104-0.9215-0.9104C226.3448,351.5477,225.9763,352.1836,225.9763,352.6712 M223.4726,357.8084
		c0.7732-0.5671,1.1597-0.755,1.4775-0.755c0.2712,0,0.3866,0.1661,0.3866,0.4698c0,0.1876-0.0507,0.3866-0.2168,1.0077
		l-0.6067,2.2148c-0.3507,1.2715-0.4047,1.5966-0.4047,1.9144c0,0.8383,0.6755,1.2755,1.297,1.2755
		c0.6537,0,1.2752-0.2856,2.0772-1.0443l0.2852-1.1054c-0.65,0.6359-1.1919,0.9393-1.5929,0.9393
		c-0.253,0-0.4191-0.2168-0.4191-0.4336c0-0.1879,0.0507-0.4913,0.1842-0.9752l0.8886-3.3745
		c0.1842-0.6718,0.2531-0.9751,0.2531-1.2426c0-0.6215-0.4373-0.8527-1.0081-0.8527c-0.8198,0-1.5604,0.448-2.3987,1.2067
		L223.4726,357.8084z"/>
	<path fill="#404065" d="M229.9864,357.0534c0.802-0.6718,1.8134-1.2101,2.4349-1.2101c0.4839,0,0.802,0.2346,0.802,0.8705
		c0,0.1916-0.0795,0.7225-0.2168,1.2282l0.0359,0.0292c1.2718-1.5067,2.4638-2.3269,3.5081-2.3269
		c1.0514,0,1.5929,0.7084,1.5929,1.5933c0,0.4554-0.0866,0.9937-0.3033,1.7124l-0.755,2.601
		c-0.0977,0.3721-0.2024,0.7191-0.2024,0.9248c0,0.2493,0.1191,0.4517,0.4228,0.4517c0.3685,0,0.8201-0.253,1.3403-0.8238
		l-0.1842,0.8889c-0.7406,0.6718-1.344,0.9393-1.9111,0.9393c-0.8601,0-1.2104-0.6359-1.2104-1.3221
		c0-0.3903,0.1842-1.1561,0.3326-1.7124l0.4876-1.7269c0.253-0.896,0.3359-1.297,0.3359-1.5319
		c0-0.6215-0.3177-0.8849-0.8235-0.8849c-1.0081,0-2.8182,1.6906-3.5732,4.7l-0.5708,2.2795h-1.5423l1.0728-4.2812
		c0.3685-1.4956,0.4191-1.8279,0.4191-2.0157c0-0.1661-0.0507-0.2963-0.253-0.2963c-0.2997,0-0.6681,0.2168-1.4231,0.8164
		L229.9864,357.0534z"/>
	<path fill="#404065" d="M246.6693,362.4726c-1.1775,0.9101-2.5033,1.4594-3.5077,1.4594c-1.4272,0-2.6698-1.0406-2.6698-2.9661
		c0-2.5178,2.5507-5.3215,5.4695-5.3215c1.2104,0,1.6943,0.4698,1.6943,1.1201c0,0.6067-0.5164,1.0258-1.0403,1.0258
		c-1.203,0-0.9718-1.344-1.9617-1.344c-1.091,0-2.6154,2.1967-2.6154,4.0789c0,1.4124,0.7876,2.2,1.8929,2.2
		c0.9067,0,1.8822-0.4695,2.9695-1.4087L246.6693,362.4726z"/>
	<path fill="#404065" d="M254.2666,357.5051c0,1.5138-1.7269,2.2651-3.8403,2.3336c0.6034-2.8718,2.2004-3.4933,2.8037-3.4933
		C253.9344,356.3454,254.2666,356.7859,254.2666,357.5051 M255.0579,361.6524c-1.4919,0.9248-2.1963,1.0728-2.9695,1.0728
		c-1.0732,0-1.7631-0.9248-1.7631-1.846c0-0.1842,0.0181-0.2856,0.0363-0.4373c2.0446,0,5.4513-0.8379,5.4513-3.0708
		c0-1.257-0.8057-1.7268-1.9799-1.7268c-2.1493,0-5.1513,2.0124-5.1513,5.3866c0,1.257,0.7406,2.901,2.7852,2.901
		c1.3114,0,2.3842-0.6215,3.3561-1.2863L255.0579,361.6524z"/>
	<path fill="#404065" d="M263.2982,363.0286c2.0125-0.0648,2.1315-0.1876,2.3302-1.1091l1.4812-6.7302
		c0.047-0.2168,0.0651-0.3684,0.0651-0.455c0-0.3651-0.401-0.5852-1.2933-0.5852c-0.2674,0-0.5493,0.0178-0.8708,0.0866
		l0.1013-0.6936c1.745-0.1949,2.7346-0.3973,3.457-1.6584h0.9034c-0.2494,1.0369-0.5853,2.4349-0.7513,3.2225l-1.3765,6.3766
		c-0.1158,0.5345-0.1879,0.7732-0.1879,0.9899c0,0.2889,0.0865,0.556,1.2282,0.556h0.8708l-0.148,0.7047h-5.9611L263.2982,363.0286z
		"/>
	<path fill="#404065" d="M274.4432,361.2296c0-1.4235,0.7373-2.3265,2.2329-2.955c1.0728,0.6718,1.8604,1.6654,1.8604,2.7889
		c0,1.3258-0.889,2.1674-2.2111,2.1674C275.1624,363.231,274.4432,362.4726,274.4432,361.2296 M277.9657,351.8836
		c-2.247,0-3.5225,1.4635-3.5225,2.9155c0,1.3295,0.5205,2.1171,1.7957,3.0564c-1.8967,0.3721-3.1755,1.799-3.1755,3.2765
		c0,1.4923,1.0114,2.8,3.1899,2.8c2.5215,0,3.8292-1.6259,3.8292-3.2876c0-1.0909-0.6067-2.1134-1.9651-3.2043
		c2.0121-0.6396,2.8866-1.8967,2.8866-3.1393C281.004,352.6386,279.5265,351.8836,277.9657,351.8836 M275.9896,354.4161
		c0-1.156,0.8057-1.8278,1.9436-1.8278c1.1416,0,1.7809,0.8741,1.7809,1.8278c0,0.9248-0.6211,2.0302-2.0665,2.5688
		C276.3869,356.0779,275.9896,355.4745,275.9896,354.4161"/>
	<path fill="#404065" d="M287.3621,358.5635c-1.2212,0-1.7087-1.1235-1.7087-2.2688c0-1.9111,0.9936-3.7064,2.352-3.7064
		c1.0765,0,1.6906,0.9392,1.6906,2.7201C289.696,356.9017,288.8614,358.5635,287.3621,358.5635 M283.4715,363.4118
		c0.5416,0.3178,1.3762,0.5201,2.0842,0.5201c2.5145,0,5.6034-3.4067,5.6034-7.7202c0-2.3665-0.9392-4.3282-3.1899-4.3282
		c-2.6987,0-4.0608,2.5688-4.0608,4.5339c0,1.9617,1.2607,2.9554,2.7712,2.9554c0.8523,0,1.4953-0.2205,2.4349-0.7299
		c-0.5564,2.5577-1.7812,4.4869-3.6598,4.4869c-0.6574,0-1.2751-0.2024-1.9832-0.8383V363.4118z"/>
	<path fill="#404065" d="M295.4041,357.0353c0.1661,0.0363,0.3178,0.0363,0.455,0.0363c2.3661,0,3.3379-1.2426,3.3379-2.6047
		c0-0.9178-0.603-1.7775-1.7953-1.7775c-0.7188,0-1.3547,0.1661-2.247,1.1416h-0.1665l0.3507-1.3584
		c0.5345-0.2889,1.5138-0.5923,2.702-0.5923c1.4923,0,3.0057,0.7732,3.0057,2.5685c0,1.7664-1.4956,2.7926-3.0742,2.9876v0.0544
		c1.2752,0.3503,2.3484,1.2389,2.3484,2.5829c0,2.146-1.7091,3.8584-4.2739,3.8584c-2.0376,0-3.0094-0.9178-3.0094-1.7557
		c0-0.3577,0.2024-0.7732,0.8057-0.7732c1.3114,0,0.8053,1.8245,2.2181,1.8245c1.1561,0,2.4131-1.1742,2.4131-3.0852
		c0-1.1742-0.4839-2.3665-2.4493-2.3665c-0.2819,0-0.5345,0.0325-0.7876,0.047L295.4041,357.0353z"/>
	<rect x="308.637" y="358.0397" fill="#404065" width="109.7446" height="1.3691"/>
	<rect x="100.2745" y="358.0397" fill="#404065" width="105.9876" height="1.3691"/>
	<path fill="#404065" d="M126.1011,280.4079c1.0802-0.0218,2.1604-0.0218,2.1604-0.8383v-12.6802
		c0-0.8164-1.0802-0.8164-2.1604-0.8383v-1.1054h14.6964c-0.047,1.1054,0.0251,3.2658,0.1698,4.494h-1.2249
		c-0.9862-2.6443-1.7302-3.3886-4.299-3.3886h-1.9218c-0.7913,0-0.9826,0.1661-0.9826,0.6936v4.9242
		c0,0.3574,0.2382,0.5309,0.9826,0.5309h0.7225c2.2074,0,2.3517-1.0839,2.5182-2.3339h1.1775c-0.1661,1.1815-0.1661,4.639,0,6.0802
		h-1.2245c-0.1665-1.6836-0.2893-2.648-2.4712-2.648h-0.7225c-0.7443,0-0.9826,0.1986-0.9826,0.5309v5.8853
		c0,0.6285,0.5741,0.6936,1.4376,0.6936h1.5137c2.9299,0,4.1329-2.6591,4.9024-4.2957l1.2933,0.1446
		c-0.3107,1.4161-0.6467,3.6017-0.7188,5.2601h-14.8662V280.4079z"/>
	<path fill="#404065" d="M160.06,279.1867c-1.1775,1.0114-4.252,2.7168-7.1568,2.7168c-5.7151,0-8.1681-4.2306-8.1681-8.3165
		c0-5.6141,3.7249-9.0242,9.0786-9.0242c2.2832,0,4.299,0.3611,5.8383,0.6936c-0.1698,1.5604-0.1228,3.1933,0.0973,4.754
		c-0.4117-0.047-1.0835,0-1.4919,0.1228c-0.2168-1.1054-1.1309-4.4688-4.4436-4.4688c-2.9513,0-4.801,3.1685-4.801,7.4239
		c0,3.5551,1.344,6.8427,5.0433,6.8427c2.3047,0,4.3711-1.344,5.2815-1.8715L160.06,279.1867z"/>
	<path fill="#404065" d="M166.7795,273.1823c0-4.8047,0.4842-7.6118,3.2443-7.6118c2.7601,0,3.2402,2.8071,3.2402,7.6118
		c0,4.8051-0.4802,7.6154-3.2402,7.6154C167.2637,280.7978,166.7795,277.9874,166.7795,273.1823 M162.2204,273.0381
		c0,5.2816,3.3128,8.8618,7.8034,8.8618c4.494,0,7.8067-3.5802,7.8067-8.8618c0-4.6823-3.1211-8.4752-7.8067-8.4752
		C165.3415,264.5629,162.2204,268.3558,162.2204,273.0381"/>
	<path fill="#404065" d="M180.4715,280.4079c1.0802-0.0218,2.1604-0.0218,2.1604-0.8383v-12.6802
		c0-0.8164-1.0802-0.8164-2.1604-0.8383v-1.1054h9.4144v1.1054c-2.3772,0.047-2.9769,0.047-2.9769,0.8383v12.6802
		c0,0.5275,0.2131,0.8383,1.6296,0.8383h0.7909c2.742,0,3.7752-1.1057,4.7111-4.8265l1.2245,0.1949
		c-0.5057,1.8966-0.7695,3.9594-0.7695,5.7406h-14.0242V280.4079z"/>
	<path fill="#404065" d="M197.1148,280.4079c1.0802-0.0218,2.1604-0.0218,2.1604-0.8383v-12.6802
		c0-0.8164-1.0802-0.8164-2.1604-0.8383v-1.1054h14.6964c-0.047,1.1054,0.0215,3.2658,0.1661,4.494h-1.2249
		c-0.9825-2.6443-1.7269-3.3886-4.299-3.3886h-1.9181c-0.7913,0-0.9863,0.1661-0.9863,0.6936v4.9242
		c0,0.3574,0.2419,0.5309,0.9863,0.5309h0.7188c2.2111,0,2.3554-1.0839,2.5218-2.3339h1.1738c-0.1661,1.1815-0.1661,4.639,0,6.0802
		h-1.2245c-0.1661-1.6836-0.2856-2.648-2.4712-2.648h-0.7188c-0.7443,0-0.9863,0.1986-0.9863,0.5309v5.8853
		c0,0.6285,0.5778,0.6936,1.4413,0.6936h1.5138c2.9299,0,4.1292-2.6591,4.8987-4.2957l1.297,0.1446
		c-0.3107,1.4161-0.6467,3.6017-0.7225,5.2601h-14.8625V280.4079z"/>
	<path fill="#404065" d="M236.5468,280.4079c1.0584-0.0218,1.8967-0.0218,1.8967-0.8383v-5.9282
		c0-0.1916-0.1409-0.3433-0.3359-0.3433h-5.1154c-0.1916,0-0.3363,0.1517-0.3363,0.3433v5.9282
		c0,0.8164,0.8383,0.8164,1.8967,0.8383v1.1091h-8.3342v-1.1091c1.0839-0.0218,2.1641-0.0218,2.1641-0.8383v-12.6802
		c0-0.8164-1.0802-0.8164-2.1641-0.8383v-1.1054h8.3342v1.1054c-1.0584,0.0218-1.8967,0.0218-1.8967,0.8383v4.9456
		c0,0.1913,0.1447,0.3647,0.3363,0.3647h5.1154c0.195,0,0.3359-0.1735,0.3359-0.3647v-4.9456c0-0.8164-0.8383-0.8164-1.8967-0.8383
		v-1.1054h8.3342v1.1054c-1.0802,0.0218-2.1637,0.0218-2.1637,0.8383v12.6802c0,0.8164,1.0835,0.8164,2.1637,0.8383v1.1091h-8.3342
		V280.4079z"/>
	<path fill="#404065" d="M252.5653,273.1823c0-4.8047,0.4805-7.6118,3.244-7.6118c2.7564,0,3.2406,2.8071,3.2406,7.6118
		c0,4.8051-0.4843,7.6154-3.2406,7.6154C253.0459,280.7978,252.5653,277.9874,252.5653,273.1823 M248.0026,273.0381
		c0,5.2816,3.3128,8.8618,7.8067,8.8618c4.4906,0,7.8034-3.5802,7.8034-8.8618c0-4.6823-3.1249-8.4752-7.8034-8.4752
		C251.1237,264.5629,248.0026,268.3558,248.0026,273.0381"/>
	<path fill="#404065" d="M268.3671,280.4079h0.791c1.4919,0,1.8026-0.2386,1.8026-0.9322v-13.4245
		c-2.5684,0-3.3634,2.0158-3.9413,4.2013l-1.4161-0.3574c0.2675-1.0332,0.6248-3.3383,0.5057-4.9493h13.9772
		c-0.1228,1.6111,0.2386,3.9161,0.5023,4.9493l-1.4161,0.3574c-0.5782-2.1855-1.3695-4.2013-3.9342-4.2013v13.4245
		c0,0.6936,0.3107,0.9322,1.7953,0.9322h0.795v1.1091h-9.4614V280.4079z"/>
	<path fill="#404065" d="M283.8325,280.4079c1.0802-0.0218,2.1604-0.0218,2.1604-0.8383v-12.6802
		c0-0.8164-1.0802-0.8164-2.1604-0.8383v-1.1054h14.6964c-0.047,1.1054,0.0251,3.2658,0.1698,4.494h-1.2249
		c-0.9862-2.6443-1.7306-3.3886-4.3027-3.3886h-1.9181c-0.7913,0-0.9862,0.1661-0.9862,0.6936v4.9242
		c0,0.3574,0.2419,0.5309,0.9862,0.5309h0.7225c2.2074,0,2.3517-1.0839,2.5181-2.3339h1.1812c-0.1735,1.1815-0.1735,4.639,0,6.0802
		h-1.2282c-0.1698-1.6836-0.2856-2.648-2.4712-2.648h-0.7225c-0.7443,0-0.9862,0.1986-0.9862,0.5309v5.8853
		c0,0.6285,0.5779,0.6936,1.4413,0.6936h1.5138c2.9336,0,4.1292-2.6591,4.8987-4.2957l1.297,0.1446
		c-0.3108,1.4161-0.6466,3.6017-0.7188,5.2601h-14.8662V280.4079z"/>
	<path fill="#404065" d="M302.7558,280.4079c1.0799-0.0218,2.1601-0.0218,2.1601-0.8383v-12.6802
		c0-0.8164-1.0802-0.8164-2.1601-0.8383v-1.1054h9.4145v1.1054c-2.3772,0.047-2.9769,0.047-2.9769,0.8383v12.6802
		c0,0.5275,0.2131,0.8383,1.6292,0.8383h0.7983c2.7349,0,3.7682-1.1057,4.7038-4.8265l1.2248,0.1949
		c-0.5023,1.8966-0.7694,3.9594-0.7694,5.7406h-14.0242V280.4079z"/>
	<path fill="#404065" d="M319.6373,280.4079c1.6799-0.0218,2.2832-0.0218,2.2832-0.8383v-12.6802
		c0-0.8164-0.6034-0.8164-2.2832-0.8383v-1.1054h8.8403v1.1054c-1.6799,0.0218-2.2832,0.0218-2.2832,0.8383v12.6802
		c0,0.8164,0.6033,0.8164,2.2832,0.8383v1.1091h-8.8403V280.4079z"/>
	<path fill="#404065" d="M332.6068,280.4079c1.0802-0.0218,2.1604-0.0218,2.1604-0.8383v-12.6802
		c0-0.8164-1.0802-0.8164-2.1604-0.8383v-1.1054h14.696c-0.0504,1.1054,0.0292,3.2658,0.1665,4.494h-1.2212
		c-0.9862-2.6443-1.7306-3.3886-4.299-3.3886h-1.9218c-0.7913,0-0.9829,0.1661-0.9829,0.6936v4.9242
		c0,0.3574,0.2386,0.5309,0.9829,0.5309h0.7188c2.2108,0,2.3554-1.0839,2.5215-2.3339h1.1779c-0.1661,1.1815-0.1661,4.639,0,6.0802
		h-1.2248c-0.1698-1.6836-0.2889-2.648-2.4745-2.648h-0.7188c-0.7443,0-0.9829,0.1986-0.9829,0.5309v5.8853
		c0,0.6285,0.5745,0.6936,1.4379,0.6936h1.5138c2.9299,0,4.1329-2.6591,4.8987-4.2957l1.297,0.1446
		c-0.3145,1.4161-0.6466,3.6017-0.7224,5.2601h-14.8625V280.4079z"/>
	<path fill="#404065" d="M357.9677,266.6508c-0.0255-0.455,0.3359-0.5997,0.9607-0.5997c1.8027,0,3.4104,0.6215,3.4104,3.1429
		c0,2.2111-1.2751,3.3597-3.5332,3.3597c-0.5778,0-0.8379-0.0433-0.8379-0.2819V266.6508z M351.5297,281.5169h8.4789v-1.1091
		c-1.203-0.0218-2.0409-0.0218-2.0409-0.8383v-5.549c0-0.2386,0.0684-0.4554,0.7695-0.4554c0.6936,0,0.9104,0.1232,1.1272,0.5782
		l3.7929,7.3735h5.2131v-1.1091h-0.2889c-0.6215,0-0.9863-0.6215-1.4413-1.4379l-2.0665-3.6993
		c-0.8889-1.6077-1.5607-1.9185-2.0631-2.1097c-0.3104-0.1228-0.455-0.1446-0.455-0.2893c0-0.1443,0.5238-0.2419,1.0295-0.455
		c2.0916-0.8453,3.1718-1.8279,3.1718-3.75c0-2.8792-3.1212-3.7208-6.6037-3.7208h-8.6235v1.1054
		c1.0802,0.0218,2.1604,0.0218,2.1604,0.8383v12.6802c0,0.8164-1.0802,0.8164-2.1604,0.8383V281.5169z"/>
	<path fill="#404065" d="M371.8003,280.4079c1.0802-0.0218,2.1604-0.0218,2.1604-0.8383v-12.6802
		c0-0.8164-1.0802-0.8164-2.1604-0.8383v-1.1054h14.6964c-0.047,1.1054,0.0215,3.2658,0.1661,4.494h-1.2249
		c-0.9825-2.6443-1.7268-3.3886-4.299-3.3886h-1.9181c-0.7913,0-0.9826,0.1661-0.9826,0.6936v4.9242
		c0,0.3574,0.2382,0.5309,0.9826,0.5309h0.7224c2.2074,0,2.3517-1.0839,2.5182-2.3339h1.1775c-0.1661,1.1815-0.1661,4.639,0,6.0802
		h-1.2245c-0.1665-1.6836-0.2893-2.648-2.4712-2.648h-0.7224c-0.7444,0-0.9826,0.1986-0.9826,0.5309v5.8853
		c0,0.6285,0.5704,0.6936,1.4376,0.6936h1.5137c2.9299,0,4.1329-2.6591,4.9024-4.2957l1.2933,0.1446
		c-0.3107,1.4161-0.6467,3.6017-0.7225,5.2601h-14.8625V280.4079z"/>
	<rect fill="none" width="512" height="512"/>
</g>
</svg>
