<?xml version="1.0" encoding="utf-8"?>
<!-- Generator: Adobe Illustrator 18.1.1, SVG Export Plug-In . SVG Version: 6.00 Build 0)  -->
<!DOCTYPE svg PUBLIC "-//W3C//DTD SVG 1.1//EN" "http://www.w3.org/Graphics/SVG/1.1/DTD/svg11.dtd">
<svg version="1.1" id="XMLID_2_" xmlns="http://www.w3.org/2000/svg" xmlns:xlink="http://www.w3.org/1999/xlink" x="0px" y="0px"
	 viewBox="0 0 512 512" enable-background="new 0 0 512 512" xml:space="preserve">
<g id="DeRham_1_">
	<g>
		<g>
			<path fill="#404065" d="M133.7276,279.1164c-4.5136,5.3617-10.0481,8.6041-12.5195,8.6041c-1.7046,0-2.8946-1.3628-1.5338-7.9207
				l1.5338-7.2411l-0.171,0.0854c-3.83,5.1095-8.2602,8.8561-11.24,11.1548c-3.1507,2.5588-5.8764,3.9216-8.2604,3.9216
				c-2.811,0-5.5367-3.409-5.5367-10.2231c0-7.9165,3.6613-17.0291,9.8794-22.3978c4.003-3.4905,11.0712-6.5558,15.0743-6.5558
				c1.192,0,2.98,0.0833,5.1095,0.9356l2.7256-14.0512c0.7648-3.9156,0.5105-4.2572-3.1526-4.2572h-2.7238l0.1689-2.1318
				c7.1538-0.7648,11.7546-2.9797,13.03-2.9797c0.7669,0,0.9377,0.6813,0.5982,2.3859c-4.0051,17.1165-7.581,33.638-10.5628,50.1584
				c-0.3397,1.8754-0.2543,2.7256,0.3416,2.7256c1.0212,0,3.7469-1.8712,6.0453-4.1697L133.7276,279.1164z M118.0574,252.205
				c-2.5548,0-4.4282,0.6815-5.8743,1.79c-5.7077,4.0864-9.1146,14.7315-9.1146,21.8874c0,4.3407,1.192,6.2973,2.6402,6.2973
				c4.3446,0,13.7115-10.4753,16.5225-15.6662l2.7256-12.0933c-1.2774-1.192-4.3448-2.2151-6.8141-2.2151H118.0574z"/>
			<path fill="#404065" d="M164.3867,278.0954c-7.41,8.0059-13.7969,9.6251-17.8832,9.6251c-4.0049,0-9.4543-2.3026-9.4543-12.4361
				c0-7.8351,3.5759-16.7779,10.3046-21.8855c3.5779-2.811,8.0894-4.8551,11.7527-4.8551c4.5136,0,7.41,3.2361,7.41,6.8974
				c0,8.3466-14.2241,12.9437-22.4843,14.9899c-0.0854,1.021-0.0854,1.8712-0.0854,2.7256c0,4.5969,1.3628,9.5356,6.5577,9.5356
				c3.5759,0,8.1769-2.3839,12.5195-6.4723L164.3867,278.0954z M155.9557,252.1196c-1.2774,0-2.6403,0.3397-3.578,0.9377
				c-2.213,1.3628-6.4723,5.2784-8.004,14.7335c12.1779-3.2382,15.8391-7.0703,15.8391-11.0723c0-2.8946-1.7879-4.599-4.1718-4.599
				H155.9557z"/>
			<path fill="#404065" d="M263.4467,277.1313v-16.1097c0-10.9563-5.2478-15.649-12.7046-15.649
				c-4.9712,0-9.8509,3.403-13.1643,6.7185v-31.0232c-3.5921,1.1045-9.1146,2.5771-13.5326,3.2199v2.211
				c6.0757,0.5513,6.2588,0.9194,6.2588,6.7185v43.914c0,6.0574-1.0373,6.7612-5.9272,7.0703l0,0
				c-1.8204,0.0652-4.1982-0.8096-6.5904-3.5717c-2.3024-2.3961-4.1432-4.7883-7.4566-9.5764
				c-2.7602-4.1414-6.6291-10.3085-8.1931-13.2547c6.7204-3.0389,11.6896-7.9186,11.6896-15.8352
				c0-5.5225-2.3922-9.6657-6.1674-12.0598c-3.4048-2.3005-7.9163-3.1305-14.6369-3.1305h-22.8321v2.5771
				c7.1821,0.6469,7.9184,0.9214,7.9184,8.8401v36.9148c0,7.827-0.7363,8.3762-8.2867,8.9294v2.5792h24.1218v-2.5792
				c-7.2738-0.5532-8.1017-1.196-8.1017-8.9294v-14.6369h2.9454c4.6946,0,6.2588,1.1025,7.8249,3.6817
				c2.7623,4.5115,6.0757,10.2189,9.2977,14.7304c4.1432,5.9843,7.9165,7.2982,14.9135,7.6643
				c1.0131,0.0977,3.222,0.0692,3.222,0.0692h19.5166v-2.3961c-5.5244-0.549-5.9841-1.196-5.9841-7.0865v-21.8182
				c2.5771-2.9454,6.0757-4.6946,9.5743-4.6946c6.1671,0,9.023,3.7752,9.023,11.3224v15.1903c0,5.9841-0.7384,6.5375-6.0778,7.0865
				v2.3961h19.4252v-2.3961C264.183,283.7581,263.4467,283.209,263.4467,277.1313z M200.2023,254.8534
				c-2.3005,1.9323-5.3394,2.6706-9.9425,2.6706h-4.418v-22.7386c0-2.4876,0.2747-3.5921,1.011-4.0518
				c0.7384-0.5532,2.3024-0.9214,4.9711-0.9214c6.9055,0,13.4409,3.6837,13.4409,13.624
				C205.2649,248.5011,203.7923,252.0911,200.2023,254.8534z"/>
			<path fill="#404065" d="M300.916,287.7205c-1.3791,0-3.3134-0.83-4.3265-1.7534c-1.196-1.196-1.7492-2.4857-2.2089-4.1414
				c-3.6837,2.4857-8.1017,5.8947-10.8638,5.8947c-6.5354,0-11.0471-5.435-11.0471-11.2362c0-4.418,2.3943-7.2696,7.4568-9.0188
				c5.5246-1.8387,12.2431-4.3286,14.2689-5.9843v-1.5661c0-6.7174-3.0368-10.4033-7.7335-10.4033
				c-1.7492,0-3.1282,0.6469-4.0497,1.7515c-1.196,1.196-1.9325,3.2218-2.7623,5.9841c-0.4597,1.4726-1.3812,2.1143-2.6686,2.1143
				c-1.6577,0-3.9583-1.7481-3.9583-3.8635c0-1.3811,1.1043-2.3943,2.8537-3.6838c2.5771-1.8408,8.4677-5.2457,13.7175-6.4419
				c2.7602,0,5.5225,0.8279,7.5483,2.4836c3.222,2.7623,4.1413,6.444,4.1413,11.3224v17.0332c0,4.1414,1.6578,5.5204,3.222,5.5204
				c1.1066,0,2.394-0.5493,3.3155-1.1025l0.9194,2.392L300.916,287.7205z M294.1954,264.6097
				c-1.9344,1.0171-6.3523,2.9493-8.2846,3.8687c-3.5902,1.6557-5.616,3.3155-5.616,6.7164c0,4.7922,3.6817,6.9972,6.5354,6.9972
				c2.394,0,5.6179-1.5622,7.3652-3.3116V264.6097z"/>
			<path fill="#404065" d="M359.8361,286.6139v-2.3961c5.3392-0.549,6.3523-1.0087,6.3523-7.4527v-15.2838
				c0-6.5365-2.3026-10.6797-8.1017-10.6797c-3.3134,0-6.7203,1.9344-10.2189,4.7881c0.185,1.1045,0.2766,2.1153,0.2766,3.8658
				v17.8589c0,5.801,0.8277,6.3544,5.8905,6.9034v2.3961h-19.6997v-2.3961c5.7075-0.549,6.5375-1.0087,6.5375-7.0865v-15.7435
				c0-6.813-2.3961-10.5861-8.1017-10.5861c-3.5921,0-7.2738,2.4855-10.034,4.7881v21.5416c0,5.9841,0.8279,6.5375,5.3373,7.0865
				v2.3961h-19.4231v-2.3961c6.0738-0.549,6.9037-1.1024,6.9037-7.0865v-18.9644c0-5.8926-0.2766-6.3523-5.616-7.1803v-2.1154
				c4.0518-0.7384,8.6549-1.9364,12.7981-3.7752v7.4548c1.9325-1.2874,3.8669-2.9452,6.7185-4.6029
				c2.394-1.4728,4.6052-2.5752,7.4568-2.5752c4.4201,0,8.3763,2.8519,10.3106,7.5464c2.6706-2.0239,5.3394-3.7752,7.5504-5.1543
				c2.026-1.2897,4.3263-2.3922,6.9951-2.3922c7.0886,0,11.6917,5.0607,11.6917,14.0829v17.6758
				c0,6.1671,0.6446,6.5375,5.984,7.0865v2.3961H359.8361z"/>
		</g>
	</g>
	<polygon fill="#404065" points="391.0709,199.4643 416.0001,224.3996 391.0709,249.3371 366.1314,224.3996 	"/>
	<g>
		<g>
			<path fill="#404065" d="M177.2398,294.7012h2.5386v17.6393h-2.5386V294.7012z"/>
			<path fill="#404065" d="M205.1551,294.7012h2.3817v17.6393h-2.5384v-13.7217l-5.4188,6.8222h-0.4678l-5.4715-6.8222v13.7217
				h-2.5386v-17.6393h2.4367l5.8153,7.2494L205.1551,294.7012z"/>
			<path fill="#404065" d="M232.8343,294.7012h2.382v17.6393h-2.5384v-13.7217l-5.4188,6.8222h-0.4678l-5.4717-6.8222v13.7217
				h-2.5384v-17.6393h2.4368l5.8154,7.2494L232.8343,294.7012z"/>
			<path fill="#404065" d="M255.1703,294.4409c2.7215,0,4.9874,0.8625,6.7979,2.5873c1.8102,1.7248,2.7154,3.8891,2.7154,6.4887
				c0,2.6036-0.9133,4.7556-2.74,6.46c-1.8285,1.7046-4.1311,2.5588-6.9115,2.5588c-2.6565,0-4.8674-0.8542-6.637-2.5588
				c-1.7677-1.7044-2.6525-3.8401-2.6525-6.4073c0-2.6361,0.8908-4.8166,2.6727-6.5414
				C250.1949,295.3034,252.4467,294.4409,255.1703,294.4409z M255.2638,296.8493c-2.0158,0-3.6735,0.6305-4.9711,1.8917
				c-1.2979,1.2651-1.9467,2.876-1.9467,4.841c0,1.8998,0.6509,3.4823,1.9527,4.7475c1.3018,1.2612,2.9331,1.8958,4.8899,1.8958
				c1.9648,0,3.6042-0.6469,4.9203-1.9325c1.3138-1.2895,1.971-2.8922,1.971-4.8124c0-1.8715-0.6572-3.4417-1.971-4.7189
				C258.7928,297.4879,257.1798,296.8493,255.2638,296.8493z"/>
			<path fill="#404065" d="M281.2589,312.3406h-5.9578v-17.6393h4.6092c1.4503,0,2.5832,0.1954,3.3988,0.5859
				c0.8138,0.3905,1.4341,0.9316,1.8633,1.6151c0.4272,0.6876,0.6407,1.4807,0.6407,2.3799c0,1.7369-0.8908,2.9777-2.6769,3.7262
				c1.2855,0.2441,2.3068,0.7729,3.0674,1.5907c0.7588,0.8177,1.1391,1.7939,1.1391,2.9289c0,0.9031-0.2299,1.7046-0.6917,2.4124
				c-0.4616,0.708-1.141,1.2855-2.0339,1.729C283.7221,312.1169,282.6034,312.3406,281.2589,312.3406z M279.9978,296.947h-2.1581
				v5.3047h1.6698c1.3384,0,2.2885-0.2562,2.8537-0.7729c0.5636-0.5126,0.8463-1.1756,0.8463-1.9933
				C283.2095,297.793,282.1396,296.947,279.9978,296.947z M280.191,304.4973h-2.3513v5.5977h2.4774
				c1.373,0,2.3047-0.11,2.7948-0.3214c0.4903-0.2158,0.8848-0.5534,1.1818-1.005c0.297-0.4555,0.4455-0.9438,0.4455-1.4684
				c0-0.537-0.1566-1.0294-0.4699-1.4767c-0.3153-0.4476-0.7607-0.7811-1.3384-1.0008
				C282.3512,304.6071,281.4379,304.4973,280.191,304.4973z"/>
			<path fill="#404065" d="M297.3828,294.7012h2.5384v17.6393h-2.5384V294.7012z"/>
			<path fill="#404065" d="M311.3098,294.7012h2.5386v15.3286h7.9082v2.3107h-10.4468V294.7012z"/>
			<path fill="#404065" d="M331.5119,294.7012h2.5386v17.6393h-2.5386V294.7012z"/>
			<path fill="#404065" d="M345.4371,294.7012h9.9911v2.2457h-7.4527v5.4023h7.1923v2.2455h-7.1923v5.5002h7.6805v2.2455h-10.2189
				V294.7012z"/>
			<path fill="#404065" d="M365.9239,312.3406v-17.6393h4.4098c1.7819,0,3.1935,0.4395,4.2409,1.3264
				c1.0456,0.8827,1.5684,2.0746,1.5684,3.584c0,1.025-0.2564,1.9119-0.769,2.6604c-0.5105,0.7526-1.2447,1.3099-2.2008,1.6801
				c0.5593,0.3703,1.1085,0.8748,1.6434,1.5176c0.5372,0.6386,1.2918,1.7534,2.268,3.3438c0.6142,1.0048,1.1066,1.7575,1.4767,2.262
				l0.9335,1.2651h-3.0023l-0.7688-1.1635c-0.0244-0.0406-0.0752-0.114-0.1506-0.2156l-0.4922-0.6957l-0.7811-1.2895l-0.8442-1.3793
				c-0.5207-0.724-0.9966-1.2976-1.4257-1.7288c-0.4314-0.4272-0.8198-0.7365-1.1677-0.9275
				c-0.3457-0.1873-0.9296-0.2808-1.7492-0.2808h-0.6509v7.6806H365.9239z M369.2171,296.8493h-0.7546v5.5652h0.9539
				c1.2733,0,2.1478-0.11,2.6219-0.3295c0.4718-0.2197,0.84-0.5492,1.1043-0.9887c0.2645-0.4432,0.3968-0.9477,0.3968-1.5092
				c0-0.5572-0.1466-1.0577-0.4395-1.5092c-0.295-0.4474-0.7057-0.7688-1.2387-0.9519
				C371.3304,296.9388,370.4477,296.8493,369.2171,296.8493z"/>
		</g>
	</g>
	<rect fill="none" width="512" height="512"/>
</g>
</svg>
