<?xml version="1.0" encoding="utf-8"?>
<!-- Generator: Adobe Illustrator 18.1.1, SVG Export Plug-In . SVG Version: 6.00 Build 0)  -->
<!DOCTYPE svg PUBLIC "-//W3C//DTD SVG 1.1//EN" "http://www.w3.org/Graphics/SVG/1.1/DTD/svg11.dtd">
<svg version="1.1" id="XMLID_2_" xmlns="http://www.w3.org/2000/svg" xmlns:xlink="http://www.w3.org/1999/xlink" x="0px" y="0px"
	 viewBox="0 0 512 512" enable-background="new 0 0 512 512" xml:space="preserve">
<g id="Canton-de-Geneve">
	<path fill="#404065" d="M113.8091,369.1138c-2.9307,0-5.303,2.3766-5.303,5.303c0,2.922,2.3723,5.2985,5.303,5.2985
		c2.922,0,5.2942-2.3765,5.2942-5.2985C119.1033,371.4904,116.7311,369.1138,113.8091,369.1138z M113.8091,378.6893
		c-2.3636,0-4.2812-1.9177-4.2812-4.2726c0-2.3679,1.9176-4.277,4.2812-4.277c2.3549,0,4.2726,1.9091,4.2726,4.277
		C118.0817,376.7716,116.164,378.6893,113.8091,378.6893z"/>
	<path fill="#404065" d="M140.0638,370.7458c0,0,0.1775-0.1385,0.2858-0.1688h2.5194v8.7097c0,0.0952-0.1732,0.303-0.1732,0.303
		h1.3247c0,0-0.1646-0.2122-0.1646-0.303v-8.7097h2.5844c0.1039,0.0303,0.2858,0.1688,0.2858,0.1688v-1.1515h-6.6622V370.7458z"/>
	<path fill="#404065" d="M125.7828,370.7458c0,0,0.1775-0.1385,0.2814-0.1688h2.5194v8.7097c0,0.0952-0.1688,0.303-0.1688,0.303
		h1.3203c0,0-0.1644-0.2122-0.1644-0.303v-8.7097h2.5844c0.1039,0.0303,0.2856,0.1688,0.2856,0.1688v-1.1515h-6.6578V370.7458z"/>
	<path fill="#404065" d="M149.9034,369.6852h-1.1558c0,0,0.1687,0.1862,0.1687,0.29v9.2985c0,0.0952-0.1687,0.316-0.1687,0.316
		h1.0735h4.9349l0.0044-0.9913v-0.1731c0,0-0.2166,0.1731-0.3118,0.1731h-4.3375c-0.0605-0.0087-0.1428-0.0649-0.2078-0.1039
		v-3.3679h3.2856c0.0995,0,0.3116,0.1732,0.3116,0.1732v-1.3247c0,0-0.2295,0.1646-0.3116,0.1646h-3.2856v-3.4674
		c0.0692,0,0.1731,0,0.2294,0h4.3333c0.0996,0,0.3116,0.1731,0.3116,0.1731v-1.1602l-4.8743,0.0044V369.6852z"/>
	<path fill="#404065" d="M167.9289,369.6852h-1.1559c0,0,0.1688,0.1862,0.1688,0.29v9.2985c0,0.0952-0.1731,0.316-0.1731,0.316
		h1.0779h4.9349v-1.1644c0,0-0.2122,0.1731-0.3074,0.1731h-4.3375c-0.0607-0.0087-0.1428-0.0649-0.2078-0.1039v-3.3679h3.2856
		c0.0995,0,0.3116,0.1732,0.3116,0.1732v-1.3247c0,0-0.2295,0.1646-0.3116,0.1646h-3.2856v-3.4674c0.0692,0,0.1731,0,0.2294,0
		h4.3333c0.0996,0,0.3116,0.1731,0.3116,0.1731v-1.1602l-4.8743,0.0044V369.6852z"/>
	<path fill="#404065" d="M163.1194,369.6852c0,0,0.1688,0.2122,0.1688,0.3118v7.0431l-6.0431-7.6276v9.8743
		c0,0.0952-0.1688,0.3116-0.1688,0.3116h1.3246c0,0-0.1644-0.2164-0.1644-0.3116v-7.0951l6.0344,7.6274v-9.8221
		c0-0.0996,0.1732-0.3118,0.1732-0.3118h-0.1732H163.1194z"/>
	<path fill="#404065" d="M104.095,369.4558c-0.6104,0-1.4155,0.1082-1.8397,0.2424c-0.1646,0.0476-0.3203,0.0476-0.381,0.0476
		c-0.1039,0-0.2727-0.0476-0.2727-0.0476c-0.0909-0.0304-0.3116-0.1429-0.3116-0.1429v9.7314c0,0.0952-0.1688,0.3116-0.1688,0.3116
		h1.3203c0,0-0.1646-0.2164-0.1646-0.3116v-3.6709c0.5238,0.3073,1.1472,0.4718,1.8181,0.4718c1.8312,0,3.3116-1.4935,3.3116-3.3159
		C107.4067,370.9449,105.9262,369.4558,104.095,369.4558z M104.095,375.0834c-0.7098,0-1.3722-0.2424-1.8181-0.697v-3.6276
		c0.5325-0.2424,1.2338-0.2987,1.8181-0.2987c1.2771,0,2.3116,1.0347,2.3116,2.3116S105.3721,375.0834,104.095,375.0834z"/>
	<path fill="#404065" d="M123.4539,373.447c-1.2771-0.7013-1.9567-0.8657-1.9567-1.7792s0.8354-1.277,1.4371-1.277
		c0.5974,0,1.1039,0.0736,1.4849,0.6017v-1.5107c0,0-0.1732,0.1342-0.3247,0.1342c-0.1559,0-0.9135-0.1862-1.3766-0.1862
		c-0.4633,0-2.3376,0.2858-2.3376,2.238c0,1.4113,1.0216,2.0345,1.7965,2.4026c0.7749,0.3679,2.303,0.87,2.303,2.5107
		c0,1.6493-1.3939,2.1731-2.2683,2.1731c-0.8701,0-1.4675-0.329-1.8354-0.7533v1.7532c0,0,0.2122-0.1298,0.4069-0.1298
		c0.1948,0,0.8918,0.1904,1.3723,0.1904c0.8398,0,3.4414-0.3766,3.4414-3.212C125.5966,375.0098,124.8088,374.1917,123.4539,373.447
		z"/>
	<path fill="#404065" d="M180.699,374.0618c0.4199-0.2684,0.7749-0.7922,0.7749-1.4633c0-1.8311-1.1991-3.1427-3.329-3.1427
		c-0.6104,0-1.4111,0.1082-1.8397,0.2424c-0.1644,0.0476-0.3203,0.0476-0.381,0.0476c-0.0995,0-0.2683-0.0476-0.2683-0.0476
		c-0.0952-0.0304-0.316-0.1429-0.316-0.1429v9.7314c0,0.0952-0.1688,0.3116-0.1688,0.3116h1.3246v-0.0044h2.7186
		c1.4674,0,2.948-1.2078,2.948-2.9912C182.1623,375.2867,181.5692,374.3907,180.699,374.0618z M178.7814,378.7629h-2.4502v-8.0042
		c0.5281-0.2424,1.2338-0.2987,1.8137-0.2987c1.5498,0,2.329,0.8572,2.329,2.1384c0,0.5627-0.71,1.2251-1.4329,1.2251
		c-0.6406,0-0.7402,0.0131-1.264,0.0131v0.922l1.5411,0.0087c1.5801,0,1.8138,0.9177,1.8138,1.8788
		C181.132,377.6028,180.2446,378.7629,178.7814,378.7629z"/>
	<path fill="#404065" d="M188.898,375.1007c0.9437-0.381,1.5583-1.1385,1.5583-2.329c0-1.8268-1.0908-3.3159-3.3115-3.3159
		c-0.6105,0-1.4113,0.1082-1.8441,0.2424c-0.1602,0.0476-0.3118,0.0476-0.3767,0.0476c-0.0995,0-0.2727-0.0476-0.2727-0.0476
		c-0.0908-0.0304-0.3116-0.1429-0.3116-0.1429v9.7314c0,0.0952-0.1688,0.3116-0.1688,0.3116h1.3246c0,0-0.1688-0.2164-0.1688-0.3116
		v-8.528c0.5325-0.2424,1.2338-0.2987,1.8182-0.2987c1.554,0,2.3115,1.0347,2.3115,2.3116c0,1.0952-0.948,1.7402-2.3115,1.7402
		c-0.1775,0-0.1775,0-0.4502,0v0.9004c2.7704,0,3.4543,2.7964,3.4543,3.8613c0,0.0952,0,0.3074,0,0.3074h1.3507
		c0,0-0.2858-0.4589-0.2858-0.5585C191.0798,377.8539,190.6165,376.0098,188.898,375.1007z"/>
	<path fill="#404065" d="M196.9498,369.3693l-4.264,9.9044c-0.0823,0.1515-0.2294,0.3074-0.2294,0.3074h1.3722
		c0,0-0.1471-0.1775-0.1082-0.3074l0.9869-2.2943h4.515l0.9567,2.2943c0.0391,0.1299-0.1039,0.3074-0.1039,0.3074h1.3679
		c0,0-0.1428-0.1559-0.2294-0.3074L196.9498,369.3693z M195.0926,376.0876l1.8572-4.303l1.8613,4.303H195.0926z"/>
	<path fill="#404065" d="M205.5685,373.447c-1.2771-0.7013-1.9567-0.8657-1.9567-1.7792s0.8354-1.277,1.4371-1.277
		c0.5974,0,1.1039,0.0736,1.4891,0.6017v-1.5107c0,0-0.1774,0.1342-0.329,0.1342c-0.1558,0-0.9091-0.1862-1.3766-0.1862
		c-0.4631,0-2.3375,0.2858-2.3375,2.238c0,1.4113,1.0216,2.0345,1.7964,2.4026c0.7749,0.3679,2.303,0.87,2.303,2.5107
		c0,1.6493-1.3938,2.1731-2.2639,2.1731s-1.4719-0.329-1.8398-0.7533v1.7532c0,0,0.2164-0.1298,0.407-0.1298
		c0.1947,0,0.8917,0.1904,1.3722,0.1904c0.8398,0,3.4458-0.3766,3.4458-3.212C207.7156,375.0098,206.9278,374.1917,205.5685,373.447
		z"/>
	<path fill="#404065" d="M240.3555,379.2737l-2.9567-4.9999l2.541-4.2899c0.0607-0.0952,0.2684-0.3074,0.2684-0.3074h-1.4546
		c0,0,0.1603,0.1948,0.0996,0.3074l-2.0303,3.4285l-2.0303-3.4285c-0.0605-0.1125,0.0996-0.3074,0.0996-0.3074h-1.4545
		c0,0,0.2078,0.2122,0.2683,0.3074l2.5411,4.2899l-2.9567,4.9999c-0.0909,0.1515-0.2684,0.3074-0.2684,0.3074h1.4546
		c0,0-0.1688-0.1904-0.0996-0.3074l2.4458-4.1384l2.4458,4.1384c0.0693,0.1169-0.0995,0.3074-0.0995,0.3074h1.4545
		C240.6238,379.5811,240.4464,379.4252,240.3555,379.2737z"/>
	<path fill="#404065" d="M230.4466,369.9883v6.3894h0.0044c0,1.3506-1.0909,2.4458-2.4415,2.4458
		c-1.3463,0-2.4415-1.0952-2.4415-2.4458v-6.3894c0-0.0996,0.1732-0.3118,0.1732-0.3118h-1.3246c0,0,0.1688,0.2122,0.1688,0.3118
		v6.3894c0,1.8917,1.5323,3.4285,3.4241,3.4285c1.8961,0,3.4285-1.5367,3.4285-3.4285v-6.3894c0-0.0996,0.1688-0.3118,0.1688-0.3118
		h-1.3246C230.2822,369.6765,230.4466,369.8887,230.4466,369.9883z"/>
	<path fill="#404065" d="M218.408,378.5984v-8.6058c0-0.0995,0.1688-0.3116,0.1688-0.3116h-1.329c0,0,0.1688,0.2122,0.1688,0.3116
		v9.2811c0,0.0952-0.1688,0.3074-0.1688,0.3074h5.7791c0.0996,0,0.3116,0,0.3116,0v-1.1471c0,0-0.212,0.1644-0.3116,0.1644H218.408z
		"/>
	<path fill="#404065" d="M130.7524,221.6503c1.974,0,3.515-0.9004,4.6405-1.5541c0.2079-0.1255,0.407-0.2338,0.5887-0.3376
		c2.0823-1.1342,2.9567-0.8354,3.3766-0.6926l0.0649,0.026l0.2251,0.0779l0.1255-0.1991l0.3594-0.5714l0.1384-0.2251l-0.2034-0.1688
		c-0.052-0.0391-1.2424-0.9913-3.1818-0.9913c-0.9567,0-1.6926,0.2987-2.4675,0.619c-0.9264,0.3766-1.8873,0.7662-3.4285,0.7878
		c-2.7532,0.026-4.4543-1.8571-4.4717-1.8744l-0.3896-0.4373l-0.1255,0.5671c-0.2858,1.2727-0.0823,2.3462,0.6061,3.2076
		C127.7221,221.278,129.735,221.6503,130.7524,221.6503z"/>
	<path fill="#404065" d="M143.1199,196.928c0.4503,0,0.8701-0.1775,1.1906-0.4978c0.3159-0.316,0.4934-0.736,0.4934-1.1862
		c0-0.4458-0.1775-0.8744-0.4934-1.1904c-0.3204-0.316-0.7402-0.4935-1.1906-0.4935c-0.9263,0-1.6796,0.7576-1.6796,1.684
		c0,0.4502,0.1688,0.8701,0.4891,1.1862C142.2499,196.7505,142.6697,196.928,143.1199,196.928z"/>
	<path fill="#404065" d="M268.3373,194.3826h1.5714c1.3853,0,2.2511,0,3.0605,1.71l2.8008,6.0907h2.9869l-3.4587-6.9955
		c-0.5758-1.0822-0.9653-1.4589-1.7792-1.7618v-0.052c2.1211-0.3506,3.7704-1.8613,3.7704-3.9999
		c0-4.2032-3.4803-4.7573-7.095-4.7573h-4.4761v17.5665h2.6189V194.3826z M268.3373,186.8286h2.5151
		c2.4069,0,3.6622,1.0087,3.6622,2.593c0,1.6884-1.4675,2.7446-3.9523,2.7446h-2.2251V186.8286z"/>
	<polygon fill="#404065" points="292.2372,199.9669 284.6183,199.9669 284.6183,194.1792 291.5532,194.1792 291.5532,191.967 
		284.6183,191.967 284.6183,186.8286 292.2372,186.8286 292.2372,184.6167 281.9993,184.6167 281.9993,202.1832 292.2372,202.1832 	
		"/>
	<path fill="#404065" d="M307.9164,189.8762c0-3.9999-3.1168-5.2595-6.8569-5.2595h-4.7921v17.5665h2.6189v-7.0215h2.5627
		C304.7476,195.1617,307.9164,193.7766,307.9164,189.8762z M301.475,192.9454h-2.5887v-6.1168h2.2251
		c1.6233,0,4.0302,0.8053,4.0302,3.0216C305.1415,192.1663,303.0983,192.9454,301.475,192.9454z"/>
	<path fill="#404065" d="M318.1022,202.4863c4.5021,0,7.0908-2.645,7.0908-7.5756v-10.2941h-2.619v9.965
		c0,3.3722-1.0952,5.6882-4.4718,5.6882c-3.3809,0-4.4803-2.316-4.4803-5.6882v-9.965h-2.6146v10.2941
		C311.0073,199.8413,313.5959,202.4863,318.1022,202.4863z"/>
	<path fill="#404065" d="M341.5518,197.5038c0-2.4675-1.7532-4.0303-4.2379-4.2294v-0.052c2.303-0.5541,3.7704-1.7618,3.7704-4.1774
		c0-3.2466-2.6189-4.4283-6.4153-4.4283h-4.948v17.5665h4.87C338.3052,202.1832,341.5518,201.2786,341.5518,197.5038z
		 M332.34,186.6815h2.7488c1.5195,0,3.3766,0.5281,3.3766,2.6146c0,2.593-2.1471,2.8224-4.6882,2.8224H332.34V186.6815z
		 M332.34,200.1184v-5.9392h1.7012c2.2511,0,4.7358,0.3766,4.7358,3.0951c0,2.3679-2.1168,2.8441-4.4717,2.8441H332.34z"/>
	<polygon fill="#404065" points="356.1055,199.9669 348.4651,199.9669 348.4651,184.6167 345.8461,184.6167 345.8461,202.1832 
		356.1055,202.1832 	"/>
	<rect x="358.9627" y="184.614" fill="#404065" width="2.6173" height="17.5692"/>
	<path fill="#404065" d="M374.0921,202.4863c0.5238,0,0.9956-0.026,1.4675-0.0996l3.3982,3.0432h3.2466l-4.2379-3.6969
		c3.1644-1.3376,4.9219-4.4067,4.9219-8.3331c0-5.2119-3.2466-9.0863-8.7963-9.0863s-8.7963,3.8744-8.7963,9.0863
		C365.2958,198.7374,368.5165,202.4863,374.0921,202.4863z M374.0921,186.53c4.0302-0.026,6.0215,3.2942,6.0215,6.8699
		c0,3.4978-1.8052,6.87-6.0215,6.87s-6.0215-3.3722-6.0215-6.87C368.0706,189.8242,370.062,186.504,374.0921,186.53z"/>
	<path fill="#404065" d="M393.7237,202.4863c4.502,0,7.095-2.645,7.095-7.5756v-10.2941h-2.6189v9.965
		c0,3.3722-1.0996,5.6882-4.4761,5.6882c-3.3766,0-4.4762-2.316-4.4762-5.6882v-9.965h-2.6189v10.2941
		C386.6286,199.8413,389.2216,202.4863,393.7237,202.4863z"/>
	<polygon fill="#404065" points="415.8702,199.9669 408.2515,199.9669 408.2515,194.1792 415.1905,194.1792 415.1905,191.967 
		408.2515,191.967 408.2515,186.8286 415.8702,186.8286 415.8702,184.6167 405.6324,184.6167 405.6324,202.1832 415.8702,202.1832 	
		"/>
	<polygon fill="#404065" points="276.242,216.0443 276.242,213.8323 266.0085,213.8323 266.0085,231.3989 276.242,231.3989 
		276.242,229.1825 268.6274,229.1825 268.6274,223.3948 275.5623,223.3948 275.5623,221.1783 268.6274,221.1783 268.6274,216.0443 	
		"/>
	<polygon fill="#404065" points="287.9948,231.3989 287.9948,216.0443 293.6744,216.0443 293.6744,213.8323 279.6964,213.8323 
		279.6964,216.0443 285.3759,216.0443 285.3759,231.3989 	"/>
	<path fill="#404065" d="M319.0417,231.0742l-0.1559-2.4415c-0.9177,0.5282-2.6709,0.8529-3.9783,0.8529
		c-3.7964,0-6.8829-2.7402-6.8829-6.87c0-3.9523,2.8008-6.87,7.0128-6.87c1.3376,0,2.619,0.3247,3.7705,0.9784l0.2078-2.4415
		c-1.3074-0.5541-2.6969-0.7532-4.1082-0.7532c-5.5756,0-9.6621,3.5973-9.6621,9.0084c0,5.5885,3.8484,9.1642,9.6361,9.1642
		C315.9551,231.7019,317.6564,231.6283,319.0417,231.0742z"/>
	<path fill="#404065" d="M324.2233,231.3989l1.8615-4.4285h8.9521l1.8571,4.4285h2.8528l-7.7184-17.5667h-2.7533l-7.7963,17.5667
		H324.2233z M330.5609,216.1959l3.6362,8.7096h-7.2769L330.5609,216.1959z"/>
	<polygon fill="#404065" points="357.967,231.3989 357.967,213.8323 355.3481,213.8323 355.3481,227.9747 355.2961,227.9747 
		347.2357,213.8323 343.673,213.8323 343.673,231.3989 346.2921,231.3989 346.2921,216.9534 346.3439,216.9534 354.6164,231.3989 	
		"/>
	<polygon fill="#404065" points="370.1658,231.3989 370.1658,216.0443 375.8453,216.0443 375.8453,213.8323 361.8674,213.8323 
		361.8674,216.0443 367.5468,216.0443 367.5468,231.3989 	"/>
	<path fill="#404065" d="M396.4205,222.6156c0-5.212-3.2466-9.0863-8.7963-9.0863s-8.7963,3.8743-8.7963,9.0863
		c0,5.3375,3.2207,9.0863,8.7963,9.0863S396.4205,227.9531,396.4205,222.6156z M381.6027,222.6156
		c0-3.5757,1.9913-6.8959,6.0215-6.87c4.0302-0.0259,6.0214,3.2943,6.0214,6.87c0,3.4978-1.8051,6.87-6.0214,6.87
		S381.6027,226.1134,381.6027,222.6156z"/>
	<polygon fill="#404065" points="415.7144,231.3989 415.7144,213.8323 413.0953,213.8323 413.0953,227.9747 413.0435,227.9747 
		404.9786,213.8323 401.4205,213.8323 401.4205,231.3989 404.0394,231.3989 404.0394,216.9534 404.0914,216.9534 412.3594,231.3989 
			"/>
	<path fill="#404065" d="M271.1122,242.2947h-5.3938v17.571h5.3938c6.0171,0,9.7356-3.0476,9.7356-8.9348
		C280.8478,245.5198,276.532,242.2947,271.1122,242.2947z M271.0862,257.6493h-2.7489v-13.1382h3.0605
		c3.7705,0,6.6752,2.4155,6.6752,6.5193C278.0731,255.5627,275.5883,257.6493,271.0862,257.6493z"/>
	<polygon fill="#404065" points="286.7394,259.8657 296.9774,259.8657 296.9774,257.6493 289.3585,257.6493 289.3585,251.8616 
		296.2934,251.8616 296.2934,249.6451 289.3585,249.6451 289.3585,244.5111 296.9774,244.5111 296.9774,242.2947 286.7394,242.2947 
			"/>
	<path fill="#404065" d="M319.9074,252.316h3.8484v5.3333c-0.658,0.1255-1.1255,0.303-2.9349,0.303
		c-3.7965,0-6.8829-2.7445-6.8829-6.8699c0-3.9264,2.8008-6.8743,7.0171-6.8743c2.355,0,3.7401,0.4069,5.0259,1.212l0.2078-2.5454
		c-1.5194-0.5021-2.6969-0.8788-5.3678-0.8788c-5.5757,0-9.6577,3.5974-9.6577,9.0084c0,5.5886,3.8483,9.1643,9.6317,9.1643
		c2.8527,0,4.5842-0.4546,5.5756-0.7792v-9.1383h-6.463V252.316z"/>
	<polygon fill="#404065" points="332.9677,259.8657 343.2011,259.8657 343.2011,257.6493 335.5866,257.6493 335.5866,251.8616 
		342.5215,251.8616 342.5215,249.6451 335.5866,249.6451 335.5866,244.5111 343.2011,244.5111 343.2011,242.2947 332.9677,242.2947 
			"/>
	<polygon fill="#404065" points="360.8716,256.4415 360.8198,256.4415 352.7593,242.2947 349.1967,242.2947 349.1967,259.8657 
		351.8156,259.8657 351.8156,245.4202 351.8676,245.4202 360.1401,259.8657 363.4907,259.8657 363.4907,242.2947 360.8716,242.2947 
			"/>
	<polygon fill="#404065" points="370.088,259.8657 380.3214,259.8657 380.3214,257.6493 372.7026,257.6493 372.7026,251.8616 
		379.6418,251.8616 379.6418,249.6451 372.7026,249.6451 372.7026,244.5111 380.3214,244.5111 380.3214,242.2947 370.088,242.2947 	
		"/>
	<polygon fill="#404065" points="392.7842,257.6493 392.7281,257.6493 387.1004,242.2947 384.1697,242.2947 391.0571,259.8657 
		394.3253,259.8657 401.3165,242.2947 398.5677,242.2947 	"/>
	<polygon fill="#404065" points="416.0001,244.5111 416.0001,242.2947 405.7667,242.2947 405.7667,259.8657 416.0001,259.8657 
		416.0001,257.6493 408.3856,257.6493 408.3856,251.8616 415.3204,251.8616 415.3204,249.6451 408.3856,249.6451 408.3856,244.5111 
			"/>
	<path fill="#404065" d="M190.517,280.021v0.7186c0,0.8008,0.3116,1.554,0.8744,2.1168c0.5627,0.5627,1.3203,0.8744,2.1168,0.8744
		h1.6406c-1.6622,4.4587-5.1946,8.0042-9.6404,9.688v-1.6102c0-1.645-1.3419-2.9871-2.9913-2.9871h-0.7185
		c-0.8009,0-1.5498,0.3118-2.1125,0.8745c-0.5714,0.567-0.8831,1.3159-0.8831,2.1125v2.3982
		c-1.3723,0.0692-2.658,0.6233-3.6364,1.6104c-1.0475,1.0475-1.6276,2.4414-1.6276,3.9263c0,1.4805,0.5801,2.8744,1.6276,3.922
		c0.9784,0.9783,2.264,1.541,3.6364,1.6104v2.3982c0,0.7965,0.3116,1.5454,0.8831,2.1124c0.5627,0.5671,1.3116,0.8788,2.1125,0.8788
		h0.7185c0.8009,0,1.5498-0.3116,2.1168-0.8788c0.5629-0.567,0.8745-1.3159,0.8745-2.1124v-1.2208
		c2.1818,0.8225,4.186,2.0995,5.8787,3.7965c1.7098,1.7056,2.9912,3.7228,3.8093,5.9219h-1.2294
		c-1.6493,0-2.9956,1.3376-2.9956,2.9912v0.7186c0,0.7965,0.316,1.5454,0.8788,2.1125c0.5627,0.567,1.316,0.8788,2.1168,0.8788
		h2.3939c0.0692,1.3722,0.632,2.6578,1.6104,3.6405c1.0476,1.0476,2.4414,1.6277,3.9219,1.6277
		c1.4849,0,2.8788-0.5801,3.9264-1.6277c0.9783-0.9827,1.5454-2.2683,1.6146-3.6405h2.3895c0.8009,0,1.5541-0.3118,2.1168-0.8788
		c0.5627-0.5671,0.8745-1.316,0.8745-2.1125v-0.7186c0-0.8008-0.3118-1.5497-0.8745-2.1168
		c-0.5627-0.567-1.3159-0.8744-2.1168-0.8744h-1.6449c0.8137-2.1991,2.0995-4.2163,3.8051-5.9219
		c1.6969-1.697,3.6969-2.974,5.8787-3.7965v1.2208c0,0.7965,0.3116,1.5454,0.8787,2.1124c0.5629,0.5671,1.316,0.8788,2.1125,0.8788
		h0.7186c0.8008,0,1.5497-0.3116,2.1168-0.8788c0.567-0.567,0.8744-1.3159,0.8744-2.1124v-2.3982
		c1.3766-0.0693,2.6624-0.6321,3.6449-1.6104c1.0476-1.0476,1.6234-2.4415,1.6234-3.922c0-1.4849-0.5758-2.8788-1.6234-3.9263
		c-0.9825-0.9871-2.2683-1.5411-3.6449-1.6104v-2.3982c0-0.7966-0.3074-1.5455-0.8744-2.1125
		c-0.5671-0.5627-1.316-0.8745-2.1168-0.8745h-0.7186c-1.6493,0-2.9912,1.342-2.9912,2.9871v1.6493
		c-2.1948-0.8096-4.212-2.0996-5.9176-3.8008c-1.71-1.71-2.9913-3.7272-3.8094-5.9263h1.2294c0.8009,0,1.5498-0.3116,2.1168-0.8744
		c0.5671-0.5629,0.8745-1.316,0.8745-2.1168v-0.7186c0-0.7965-0.3074-1.5454-0.8745-2.1125
		c-0.567-0.5627-1.3159-0.8788-2.1168-0.8788h-3.134v-0.0087v-44.2283l2.4977,0.0175v11.2463h7.9263v-2.9912h3.3462v2.9912h7.9955
		v-8.4932h-3.4718v-2.8744h3.4718v-13.6447h-3.4718v-2.8744h3.4718v-8.502h-7.9955v2.9956h-3.3462v-2.9956h-7.9263v11.2551
		l-2.4977,0.0145v-15.6548c0-1.2727-0.4979-2.4762-1.4026-3.3809c-0.9048-0.9048-2.1082-1.4026-3.3853-1.4026
		c-2.6406,0-4.7877,2.1471-4.7877,4.7834v73.7382v0.0087h-3.1471C191.8589,277.0297,190.517,278.3717,190.517,280.021z
		 M213.4211,224.4294h3.2338v-8.1427h3.3462v8.1427h3.1124v2.87h-3.1124v8.1427h-3.3462v-8.1427h-3.2338V224.4294z
		 M201.6465,284.6486c1.0823,3.5713,3.0259,6.844,5.7401,9.5625c2.7229,2.7272,6.0128,4.6752,9.5972,5.7488
		c-7.3115,2.2251-13.0819,8.0084-15.2983,15.3242c-2.2163-7.3331-8.0084-13.1208-15.3373-15.3372
		c3.5714-1.078,6.844-3.026,9.5582-5.7358C198.6163,291.4926,200.5687,288.2198,201.6465,284.6486z"/>
	<path fill="#404065" d="M216.8973,178.5865l-21.8869-4.9825c0.1472-0.2034,0.4805-0.5454,1.342-1.2034
		c0.6364-0.4805,1.5411-0.6536,2.4934-0.8398c1.0693-0.2034,2.1774-0.4156,3.1342-1.0692c0.9783-0.6666,1.5065-1.5281,2.0259-2.3593
		c0.6234-1.0129,1.2684-2.0605,2.7662-2.8441c1.3502-0.7012,2.739-0.8765,3.7894-0.8766c1.0377-0.0001,1.7452,0.171,1.7603,0.1753
		l0.5757,0.1429l-0.2294-0.5541c-0.8257-1.9883-3.1442-3.3641-5.5417-3.3643c-0.1915,0-0.3831,0.0087-0.575,0.0267
		c-1.3549,0.1255-2.6406,0.9134-3.883,1.671c-1.0822,0.6623-2.1039,1.2813-3.1082,1.4631c-0.239,0.0408-0.475,0.0584-0.7111,0.0584
		c-0.6406,0-1.2828-0.1293-1.9945-0.2748c-0.8784-0.1794-1.8965-0.3841-3.1659-0.3841c-0.476,0-0.9871,0.0287-1.5396,0.0984
		l11.1729-17.6965l-18.9995,11.9564c-0.0433-0.2468-0.0606-0.7186,0.0952-1.8181c0.1039-0.7922,0.6234-1.5541,1.1688-2.3549
		c0.6104-0.9004,1.2467-1.8354,1.4588-2.9783c0.2208-1.1602-0.0129-2.1428-0.238-3.0952c-0.2771-1.1602-0.5585-2.3593-0.052-3.9696
		c0.9134-2.883,3.3982-4.4068,3.4242-4.4241l0.5065-0.303l-0.5498-0.2251c-0.5779-0.2384-1.2082-0.3521-1.853-0.3522
		c-1.7554-0.0001-3.6193,0.843-4.8351,2.3088c-0.8701,1.0476-1.2208,2.5195-1.5627,3.935c-0.2986,1.2294-0.5757,2.3939-1.1644,3.225
		c-0.5195,0.7402-1.2338,1.2164-2.0605,1.7706c-1.0303,0.6796-2.2814,1.5065-3.5367,3.1254l-4.6059-20.3934l-4.9739,21.8695
		c-0.2034-0.1428-0.5454-0.4632-1.2294-1.3593c-0.4849-0.632-0.6537-1.5367-0.8398-2.4934
		c-0.2034-1.0736-0.4155-2.1774-1.0692-3.1298c-0.6666-0.9783-1.5281-1.5107-2.3593-2.0259
		c-1.0129-0.6276-2.0649-1.2726-2.8441-2.7704c-1.3896-2.6839-0.7143-5.5193-0.7056-5.5453l0.1429-0.5801l-0.5498,0.2338
		c-2.1471,0.8917-3.5843,3.5237-3.3419,6.108c0.1255,1.3593,0.9134,2.6493,1.6752,3.8917c0.658,1.0823,1.2857,2.0995,1.4589,3.1038
		c0.1558,0.8875-0.013,1.7316-0.2121,2.7099c-0.2468,1.212-0.5455,2.6839-0.2858,4.7271l-17.6748-11.1642l11.939,18.9735
		c-0.0925,0.0146-0.2167,0.0256-0.394,0.0256c-0.2955,0-0.7385-0.0305-1.4285-0.1251c-0.7922-0.1082-1.5497-0.6234-2.3593-1.1731
		c-0.9004-0.6104-1.8311-1.2424-2.9739-1.4589c-0.3279-0.0612-0.642-0.0867-0.9454-0.0867c-0.77,0-1.4709,0.1646-2.1541,0.3291
		c-0.6898,0.1654-1.3951,0.3323-2.195,0.3323c-0.5403,0-1.1236-0.0762-1.7745-0.2803c-2.8787-0.9177-4.4025-3.3982-4.4198-3.4285
		l-0.3074-0.5021l-0.2251,0.5455c-0.8831,2.1558-0.0433,5.0258,1.9653,6.6881c1.0433,0.8745,2.5107,1.2207,3.9306,1.5627
		c1.2294,0.2986,2.3939,0.5801,3.225,1.1645c0.7402,0.5237,1.2164,1.2337,1.7662,2.0649c0.684,1.0389,1.5237,2.2943,3.1601,3.5626
		l-20.4064,4.606l17.2056,5.7618H96.0001v93.5082c0,19.874,7.7401,38.5618,21.7917,52.6177
		c14.0559,14.0559,32.7436,21.7916,52.6132,21.7916c19.8783,0,38.5618-7.7357,52.6177-21.7916
		c14.0558-14.0559,21.7916-32.7437,21.7916-52.6177V184.318h-45.1246L216.8973,178.5865z M213.1885,178.7678l-16.6633,5.5502
		h-2.6195c0.4556-1.8755,0.6934-3.807,0.6934-5.7488c0-1.4873-0.1398-2.9526-0.4018-4.3851
		c0.1407,0.1971,0.3492,0.3398,0.591,0.3949L213.1885,178.7678z M147.3753,178.5692c0-6.173,2.4025-11.9737,6.7661-16.3416
		c4.3679-4.3679,10.1686-6.7661,16.3459-6.7661c6.173,0,11.978,2.3982,16.3416,6.7661c4.3679,4.3679,6.7704,10.1685,6.7704,16.3416
		c0,1.9391-0.2452,3.8907-0.7172,5.7488h-44.7937C147.6163,182.4599,147.3753,180.5084,147.3753,178.5692z M184.3223,158.7299
		c0.1858,0,0.3708-0.0518,0.5327-0.1536l15.2668-9.6074l-8.8184,13.9673c-0.2065,0.3271-0.2058,0.7441,0.0018,1.0706
		c0.1849,0.2908,0.5046,0.4633,0.8435,0.4633c0.0416,0,0.0834-0.0026,0.1253-0.0079c0.4767-0.0601,0.9526-0.0905,1.4146-0.0905
		c1.1849,0,2.131,0.1933,2.9656,0.3638c0.7095,0.1451,1.4432,0.2951,2.1948,0.2951c0.3054,0,0.593-0.0238,0.8892-0.0744
		c1.2029-0.2178,2.3463-0.9175,3.4711-1.6059c1.1393-0.6946,2.3173-1.413,3.4349-1.5165c0.1607-0.015,0.3213-0.0223,0.4818-0.0223
		c1.4921,0.0001,2.9443,0.6339,3.8658,1.6089c-0.1366-0.0056-0.2805-0.0087-0.4305-0.0087
		c-1.5347,0.0001-3.0044,0.342-4.2529,0.9905c-1.7421,0.9113-2.4924,2.1304-3.1506,3.2001l-0.0276,0.0443
		c-0.4762,0.7622-0.926,1.4821-1.7144,2.0193c-0.7871,0.5378-1.7439,0.7198-2.7909,0.9191
		c-1.0132,0.1981-2.061,0.4028-2.8796,1.0209c-1.0373,0.7924-1.3706,1.1708-1.5451,1.4119
		c-0.0827,0.1143-0.1326,0.2442-0.1613,0.3781c-0.9719-4.4643-3.1942-8.5665-6.503-11.8753
		c-1.0566-1.0576-2.1975-1.9997-3.4028-2.8307C184.1967,158.7023,184.2581,158.7299,184.3223,158.7299z M166.5187,154.2722
		l3.9954-17.5672l3.6339,16.0895c0.0853,0.3775,0.3807,0.6719,0.7584,0.7559c0.0722,0.0161,0.145,0.0238,0.217,0.0238
		c0.3051,0,0.5984-0.1399,0.7902-0.3872c1.1565-1.4915,2.2937-2.2416,3.3187-2.918c0.8658-0.5802,1.6836-1.1283,2.3043-2.0128
		c0.6906-0.975,0.9901-2.2078,1.307-3.5129l0.0215-0.0887c0.3131-1.2962,0.6369-2.6365,1.3523-3.4979
		c0.9962-1.2011,2.554-1.9472,4.0654-1.9471c0.045,0,0.0898,0.0007,0.1343,0.002c-0.8931,0.8268-2.0355,2.1694-2.6161,4.0023
		c-0.5922,1.883-0.2454,3.3351,0.0347,4.5082c0.2094,0.8858,0.4072,1.7225,0.2261,2.6741c-0.1731,0.9324-0.7183,1.7366-1.3043,2.601
		c-0.5884,0.864-1.197,1.7574-1.3303,2.7744c-0.1838,1.2968-0.1447,1.8202-0.09,2.1313c0.0226,0.129,0.0759,0.2462,0.1434,0.354
		c-3.841-2.4672-8.3124-3.7952-12.9937-3.7952c-1.4775,0-2.9329,0.138-4.3561,0.3959
		C166.3244,154.7169,166.4645,154.5108,166.5187,154.2722z M140.905,148.9578l13.9448,8.808
		c0.1631,0.103,0.3486,0.1545,0.534,0.1545c0.1866,0,0.3733-0.0522,0.5371-0.1564c0.3265-0.2079,0.5037-0.5856,0.455-0.9697
		c-0.2393-1.8823,0.0332-3.2206,0.2736-4.4016c0.2094-1.0287,0.4072-2.0004,0.2177-3.0793
		c-0.202-1.1712-0.8567-2.2478-1.5499-3.3877l-0.0419-0.069c-0.7017-1.1443-1.4273-2.3275-1.5321-3.4623
		c-0.1525-1.6259,0.5059-3.3099,1.596-4.34c-0.0496,1.2253,0.0932,2.9741,0.9756,4.6785c0.9009,1.7318,2.1142,2.4835,3.2112,3.1632
		c0.7752,0.4805,1.5074,0.9344,2.0547,1.7375c0.5388,0.785,0.7197,1.7396,0.9121,2.7549l0.0107,0.0551
		c0.1959,1.0076,0.3985,2.0494,1.0158,2.8541c0.8065,1.0565,1.1984,1.3945,1.4498,1.571c0.1094,0.0768,0.2327,0.1204,0.3594,0.1486
		c-4.4738,0.9692-8.5829,3.1918-11.8942,6.5032c-1.0452,1.0461-1.9769,2.1744-2.8008,3.3651
		c0.0373-0.2361-0.0086-0.4811-0.1391-0.6885L140.905,148.9578z M127.8218,178.744l16.9166-3.8183
		c0.3776-0.0852,0.6721-0.3807,0.756-0.7585c0.084-0.3779-0.0576-0.7702-0.3635-1.0073c-1.5323-1.1877-2.3115-2.3712-2.9387-3.324
		c-0.5491-0.8303-1.1171-1.6888-2.025-2.3312c-0.983-0.6912-2.23-0.9941-3.5641-1.3182c-0.0007-0.0002-0.0496-0.012-0.0502-0.0121
		c-1.2894-0.3105-2.6226-0.6316-3.4789-1.3493c-1.282-1.061-2.0057-2.6987-1.9556-4.1992c0.8232,0.8937,2.161,2.0328,4.0057,2.6208
		c0.6997,0.2195,1.3781,0.3262,2.0738,0.3262c0.9271,0,1.7246-0.1912,2.4293-0.3601c0.615-0.1481,1.251-0.3013,1.9199-0.3013
		c0.261,0,0.5103,0.0228,0.7593,0.0693c0.9371,0.1774,1.7418,0.723,2.6022,1.3063c0.8645,0.5871,1.7584,1.1942,2.7811,1.3339
		c0.6589,0.0904,1.1707,0.1344,1.5644,0.1344c0.209,0,0.3889-0.0124,0.5499-0.0378c0.1361-0.0215,0.2603-0.0763,0.3735-0.1476
		c-2.4717,3.8464-3.8021,8.3201-3.8021,12.9993c0,1.9521,0.2364,3.8833,0.6891,5.7488h-2.5978L127.8218,178.744z M243.8143,185.318
		v92.5082c0,19.6112-7.6351,38.0468-21.4987,51.9105s-32.2992,21.4988-51.9106,21.4988c-19.6085,0-38.0425-7.635-51.9061-21.4987
		c-13.8637-13.8679-21.4988-32.3035-21.4988-51.9106V185.318h47.3035l3.063,1.0258h22.5406v38.6331
		c-1.2978-1.6747-3.0096-3-4.9957-3.8243c1.0563-0.6926,1.7662-1.8831,1.7662-3.2423c0-0.1646-0.0129-0.3291-0.0303-0.4849
		c0,0-0.3247,0.0087-0.4675,0.0087c-7.2838,0-8.1367-9.7109-17.9692-9.8645v-1.7932c0.6147-0.2251,1.1862-0.5801,1.6624-1.0605
		c0.8657-0.8615,1.3419-2.0173,1.3419-3.238c0-1.2294-0.4762-2.3766-1.3419-3.2467c-0.8658-0.8701-2.0173-1.3419-3.2424-1.3419
		c-0.9869,0-1.948,0.316-2.7704,0.9264c-0.1602,0.1212-0.4286,0.1125-0.6277,0.1082c-0.0391,0-0.078,0-0.1127,0
		c-0.4415,0-0.6882-0.0692-0.7445-0.1125c-0.7922-0.606-1.7489-0.922-2.7661-0.922c-2.5281,0-4.5886,2.0519-4.5886,4.5886
		c0,1.2207,0.4805,2.3766,1.3462,3.238c0.4719,0.4718,1.0347,0.8268,1.6407,1.0519v1.7878h-0.6407l-0.7136,1.1991h-8.2125
		c-0.4718,0-0.9264,0.238-1.2207,0.6406c-0.381,0.5411-0.4459,1.2684-0.1819,2.0692c0.4849,1.4459,2.0389,3.9827,2.1039,4.0865
		l0.0865,0.1428h1.1818v-1.0563c0-0.1385,0.0304-0.3982,0.2078-0.5801c0.1343-0.1255,0.3247-0.1991,0.5715-0.1991h3.4327
		c1.1688,0,2.5844,1.2727,2.9133,2.6146l0.5238,0.1125c0.381-0.4849,0.8009-0.7056,1.3506-0.7056
		c0.4459,0,0.8658,0.1818,1.1819,0.4934c0.3159,0.316,0.4891,0.736,0.4891,1.1819c0,0.4762-0.2338,1.0085-0.5627,1.2986
		c-0.8788,0.7706-1.9135,1.5887-3.1039,1.5887h-0.1515l-0.0909,0.1255l-0.1991,0.2814l-0.1688,0.2338l0.2251,0.1732
		c0.8485,0.6666,2.4718,0.9091,3.8008,0.3506l-0.0022-0.0105c0.412-0.1068,0.837-0.1802,1.2749-0.2102
		c4.2423-0.3334,7.9608,2.8831,8.3029,7.2725c0.0865,1.1168-0.078,2.1644-0.407,3.1602c0.5887,0.4718,1.303,0.7272,2.1168,0.7272
		c0.6926,0,1.2035-0.1688,1.7445-0.5238c-1.7574,2.1299-2.8094,4.8528-2.8094,7.8267c0,0.9913,0.1169,1.9437,0.3376,2.8657
		c-1.0432-0.8917-2.3982-1.4415-3.8787-1.4415c-1.9091,0-3.6233,0.8745-4.6925,2.29c-0.6277,0.8268-1.6104,1.3635-2.7272,1.3635
		c-0.7489,0-1.4329-0.238-1.9913-0.6449c1.3766-0.4417,2.3766-1.736,2.3766-3.264c0-0.8485-0.2511-1.5497-0.7618-2.1515
		l-27.9343-29.1161c-3.4718-3.7661-5.3246-7.6145-6.1947-9.8612c-2.7661,1.6624-4.6189,4.6838-4.6189,8.1427
		c0,3.1038,1.4935,5.8613,3.8052,7.5885l20.9215,18.3242l0.186,0.1342c-0.2294,0.4589-0.4458,0.9307-0.6406,1.4069
		c-0.4113-0.238-9.1296-5.3678-13.3373-7.818c-4.3073-2.5107-6.9349-4.4674-11.004-9.0127
		c-0.8961,1.4458-1.4069,3.1774-1.4069,5.0042c0,3.4978,1.9003,6.5583,4.7271,8.199l19.6835,8.9911
		c-0.0692,0.658-0.1039,1.329-0.1039,2.0043c0,0.026,0.0044,0.0563,0.0044,0.0865c-0.8356-0.1039-7.818-1.0129-9.0604-1.238
		c-1.316-0.238-8.2855-1.3506-15.887-4.4674c-0.0347,0.3247-0.052,0.6624-0.052,0.9956c0,5.2336,4.2423,9.4803,9.4802,9.4803
		l16.1382,0.0563c0.1731,0.6622,0.3853,1.3073,0.619,1.948c-0.3376,0.0779-13.6057,3.1774-15.7917,3.5842
		c-2.2122,0.4243-7.8224,1.5022-9.9781,1.2035c1.0216,4.134,4.7488,7.2076,9.2032,7.2076c1.1947,0,2.3289-0.2252,3.3809-0.6277
		l15.7052-6.7054c0.329,0.4458,0.5757,0.7792,0.9351,1.1904l-0.0044,0.0087c0,0-14.3718,12.545-16.3458,14.0428
		c-1.974,1.4934-4.1211,3.251-8.3115,5.1687c1.7402,2.0476,4.3333,3.3462,7.2336,3.3462c2.9349,0,5.5582-1.329,7.2942-3.4198
		l13.9908-15.6965l0.026,0.0347c0.4806,0.3246,0.974,0.632,1.4762,0.9133l-6.134,13.2378
		c-2.1558,4.5453-5.0778,11.2681-9.9219,16.1121c1.4156,0.8441,3.0692,1.329,4.8311,1.329c4.3419,0,7.9999-2.922,9.1254-6.9003
		l6.4543-22.0123c0.8225,0.2207,1.6709,0.3853,2.5367,0.4935c-0.0823,0.974-0.6061,6.7444-1.6926,13.2377
		c0.2771,0.0389,0.5714,0.0607,0.8657,0.0607c3.2987,0,5.9696-2.671,5.9696-5.9652l-0.2814-7.2986h-0.0389
		c2.9089-0.3376,5.6276-1.3116,8.004-2.7792l3.4199,9.5496c-3.5497,1.2771-7.2292,3.7488-9.6794,7.0172
		c-2.8744,3.8267-4.186,6.9219-9.9304,8.9954c1.0735,1.0303,2.5323,1.6666,4.1298,1.6666c0.2338,0,0.4589-0.0129,0.684-0.0389
		c0.5776,1.4225,1.4354,2.6914,2.4753,3.7859c-0.1987,0.1223-0.37,0.2654-0.4928,0.4218c-0.3982,0.5022-7.5582,9.0042-8.792,10.4673
		c-0.2294-0.1775-0.58-0.4633-0.9825-0.9004c-1.5931-1.7013-4-4.264-5.6189-5.186c-0.0304-0.0173-0.0693-0.0389-0.104-0.052
		c-0.7532-0.6536-1.6796-1.0605-2.6709-1.1039c-1.0563-0.0432-2.0648,0.3204-2.844,1.0389
		c-1.1819,1.0909-1.5845,2.7705-1.0173,4.2814l0.0736,0.2034l0.2164-0.0345l0.5281-0.0823l0.2251-0.0433v-0.2294
		c0-0.342,0.1602-0.697,0.4199-0.9351c0.3939-0.3679,0.9827-0.4199,1.4502-0.1602c0.1168,0.4371,0.3506,0.8657,0.6969,1.212
		c0.6321,0.6364,1.4891,0.8441,2.4329,0.6061l1.5627,1.4242c-2.5454-0.1515-7.7228-0.1125-8.0344-0.1125
		c-0.1255-0.0087-0.2554-0.0087-0.3853,0c-1.2987-0.0952-2.0432-0.0952-2.7878,0.2987c-0.9264,0.4891-1.6709,1.2467-2.0215,2.2336
		c-0.5411,1.5238-0.1127,3.1948,1.0951,4.2683l0.1646,0.1472l0.1731-0.1342l0.4286-0.3204l0.1819-0.1384l-0.1083-0.2035
		c-0.1646-0.3031-0.1904-0.6884-0.0692-1.0303c0.1948-0.5411,0.7618-0.8831,1.3506-0.8052c0.3203,0.3419,0.7229,0.5801,1.1818,0.71
		c0.6624,0.1775,1.3506,0.0865,1.9393-0.2555c0.5238-0.2987,0.9091-0.7576,1.1169-1.3073c1.7098,0.1299,2.9176,0.4026,3.6102,0.6017
		l-4.541,1.9091c-0.3766,0.1299-0.5151,0.1602-0.7229,0.2424c-1.1904,0.3895-1.8657,0.8008-2.4718,1.658
		c-0.6147,0.8528-0.8615,1.9004-0.6884,2.9393c0.2598,1.593,1.4502,2.8484,3.026,3.2034l0.212,0.0476l0.0909-0.2035l0.2164-0.4849
		l0.0909-0.212l-0.1906-0.1256c-0.29-0.1904-0.5021-0.5107-0.5583-0.8657c-0.0736-0.4546,0.1168-0.9048,0.4762-1.1818
		c0.3246,0.1125,0.6709,0.1602,1.0216,0.1255c1.277-0.1039,2.2467-1.1731,2.3375-2.5238l0.052-0.0216
		c1.2856-0.5498,4.2986-1.8224,7.3634-2.0865c2.974-0.251,4.5281-0.2424,5.3635-0.238h0.238c0.316,0,0.5325,0.0563,0.6537,0.1731
		c0.0823,0.0867,0.1256,0.2208,0.1256,0.4113c0,0.407-0.104,1.3247-0.1385,1.6277c-0.4546,0.4459-0.7273,1.0347-0.762,1.6797
		c-0.0173,0.3939,0.052,0.7748,0.1992,1.1255c-0.0304,0.6017-0.4286,1.1298-1.0131,1.2856
		c-0.3809,0.1083-0.8008,0.0433-1.1255-0.1644l-0.2164-0.1343l-0.1688,0.1948l-0.3982,0.4415l-0.1603,0.1818l0.1472,0.1948
		c1.0823,1.4329,2.9047,2.0476,4.6362,1.5758c1.1256-0.3031,2.0692-1.0347,2.6537-2.0563c0.567-0.9913,0.7229-2.1384,0.5323-3.264
		c-0.0043-0.355-0.0303-0.8268-0.0303-0.9956c0-4.0995-1.8873-5.6968-3.5929-6.3202l7.8265-9.8308l0.0173-0.0217l0.0087-0.0129
		c0.08-0.1343,0.1576-0.3123,0.2186-0.5126c1.3815,0.655,2.8914,1.0853,4.4956,1.1879c0-0.0996-0.0044-0.1819-0.0044-0.2771
		c0-5.2855,3.3203-9.7703,7.9739-11.5624c0.6233,5.6448,0.3679,11.2291-6.3938,17.2722c-2.3419,2.0952-4.0822,4.9436-4.0822,8.3331
		c0,0.5367,0.0519,1.0865,0.1255,1.5973c2.0173-2.1254,5.2207-4.147,8.0951-4.1903c-1.4459,1.6926-4.238,3.87-6.9219,6.9998
		c-1.5671,1.8138-2.5065,4.1775-2.5065,6.7661c0,4.0908,2.3635,7.6318,5.8051,9.3201c-0.1169-1.9133-0.1299-3.8613,0.8657-6.4501
		c1.0389-2.7228,7.3375-6.7617,8.056-13.8567c0.3896,1.3549,0.7576,2.7792,0.7576,4.2552c0,5.7185-2.2596,9.1643-5.9089,14.3417
		c0.7316,0.3333,1.5454,0.5237,2.3982,0.5237c1.0607,0,2.0563-0.2899,2.9133-0.7878c0.8616,4.2305,2.9779,7.9655,5.9221,10.8903
		V350.5h1V186.3438h22.7006l3.0796-1.0258H243.8143z M139.6829,209.4688h7.424v1.3203h-1.8051v0.0087
		c0,1.0563-0.8572,1.9047-1.9091,1.9047c-1.052,0-1.9091-0.8571-1.9091-1.9133h-1.8008V209.4688z M139.6093,203.1659
		c-0.4762,0-0.9221-0.1818-1.2598-0.5194c-0.3333-0.3376-0.5194-0.788-0.5194-1.2598s0.1862-0.922,0.5194-1.2554
		c0.3376-0.3334,0.7836-0.5194,1.2598-0.5194c0.4761,0,0.922,0.186,1.2554,0.5194c0.3376,0.3334,0.5194,0.7836,0.5194,1.2554v1.7705
		C140.8127,203.1572,139.6093,203.1659,139.6093,203.1659z M146.6135,203.1659c0,0-1.2078-0.0087-1.7792-0.0087v-1.7705
		c0-0.4718,0.1818-0.922,0.5194-1.2554c0.3334-0.3334,0.7836-0.5194,1.2598-0.5194c0.4718,0,0.922,0.186,1.2554,0.5194
		c0.3333,0.3334,0.5194,0.7836,0.5194,1.2554C148.3882,202.3694,147.5917,203.1659,146.6135,203.1659z"/>
	<path fill="#404065" d="M170.4742,163.0415c2.2684,0.0087,3.4545,1.7272,1.1862,2.8397h9.0171l-1.567-2.632l-5.1342,1.1168
		c0.9524-1.0736,0.7576-3.9783-3.489-3.9956c-0.0044,0-0.0087,0-0.0131,0c-0.0043,0-0.0085,0-0.0129,0
		c-4.2466,0.0173-4.4458,2.922-3.489,3.9956l-5.1384-1.1168l-1.5627,2.632h9.0171
		C167.0154,164.7687,168.2059,163.0502,170.4742,163.0415z"/>
	<polygon fill="#404065" points="160.2364,167.6215 155.5136,167.6215 156.5005,168.7167 156.5005,179.8678 155.5136,180.9674 
		160.2364,180.9674 159.2537,179.8678 159.2537,168.7167 	"/>
	<polygon fill="#404065" points="175.3788,167.6215 170.6517,167.6215 171.6387,168.7167 171.6387,172.8854 166.5219,172.8854 
		166.5219,168.7167 167.5046,167.6215 162.7818,167.6215 163.7687,168.7167 163.7687,179.8678 162.7818,180.9674 167.5046,180.9674 
		166.5219,179.8678 166.5219,175.6688 171.6387,175.6688 171.6387,179.8678 170.6517,180.9674 175.3788,180.9674 174.3919,179.8678 
		174.3919,168.7167 	"/>
	<polygon fill="#404065" points="181.8895,178.1752 184.1016,174.3096 181.9025,170.4741 186.2271,170.4741 184.6254,167.6517 
		177.0281,167.656 180.8246,174.3096 177.0281,180.9674 185.7336,180.9674 187.3266,178.1752 	"/>
	<rect fill="none" width="512" height="512"/>
</g>
</svg>
