<?xml version="1.0" encoding="utf-8"?>
<!-- Generator: Adobe Illustrator 18.1.1, SVG Export Plug-In . SVG Version: 6.00 Build 0)  -->
<!DOCTYPE svg PUBLIC "-//W3C//DTD SVG 1.1//EN" "http://www.w3.org/Graphics/SVG/1.1/DTD/svg11.dtd">
<svg version="1.1" id="XMLID_2_" xmlns="http://www.w3.org/2000/svg" xmlns:xlink="http://www.w3.org/1999/xlink" x="0px" y="0px"
	 viewBox="0 0 512 512" enable-background="new 0 0 512 512" xml:space="preserve">
<g id="Diams">
	<path fill="#404065" d="M214.5737,281.2371c-1.8467-0.6852-2.7703-1.7919-2.7703-3.3208v-0.4897
		c0-0.348,0.0793-0.6907,0.2375-1.0278c0.686-1.4126,1.6936-2.1191,3.0232-2.1191h0.364c0.6333,0,1.2981,0.2216,1.9946,0.6646
		c0.7698,0.8538,1.3135,1.2806,1.6299,1.2806c0.7703-0.1266,1.1555-0.4484,1.1555-0.965v-0.3633l-0.0632-0.2529
		c-1.3083-1.7712-2.9441-2.6565-4.9065-2.6565c-0.728,0-1.5144,0.1633-2.3584,0.49c-2.2583,1.1917-3.3875,2.8411-3.3875,4.9495
		v0.4269c0,2.1398,1.1504,3.8688,3.4507,5.1863l3.0864,0.8539c1.8149,0.991,2.7227,2.2823,2.7227,3.8741v0.601
		c0,0.2949-0.0793,0.738-0.2378,1.3281c-0.9812,1.8132-2.2739,2.7192-3.8777,2.7192h-0.5383c-0.823,0-1.7307-0.3418-2.7222-1.0277
		c-0.665-0.8431-1.2085-1.2646-1.6304-1.2646c-0.6331,0-1.0186,0.3794-1.1553,1.1382l0.1265,0.4905
		c1.498,1.9713,3.3923,2.9569,5.6821,2.9569c1.4138,0,2.7012-0.4009,3.8621-1.2018c1.8994-1.4126,2.8491-3.226,2.8491-5.4393
		c0-1.8026-0.7439-3.4573-2.2317-4.9648C217.3381,281.8594,215.9033,281.2371,214.5737,281.2371z"/>
	<path fill="#404065" d="M241.3552,278.7546c-0.2954,0-0.6069,0.1741-0.9338,0.522c-0.1899,0.4108-1.3352,3.9424-3.4348,10.5941
		h-0.0476l-2.9756-9.187c-0.2322-1.286-0.6963-1.9291-1.3926-1.9291c-0.3167,0.0422-0.6123,0.1793-0.8865,0.4109
		c-0.1482,0.1899-1.3137,3.7584-3.498,10.7052h-0.0476l-2.8647-8.7762c-0.2852-1.5596-0.7861-2.3398-1.5039-2.3398
		c-0.6226,0-1.0127,0.3901-1.1709,1.1703l4.3682,13.7404c0.2324,0.6958,0.6228,1.0439,1.1714,1.0439h0.0476
		c0.3586,0,0.6702-0.1741,0.9338-0.522l3.3872-10.4832h0.1108c0,0.1687,0.9338,3.0779,2.8018,8.728
		c0.2949,1.5182,0.8015,2.2771,1.519,2.2771h0.0476c0.2954,0,0.6067-0.1526,0.9341-0.4585l4.6057-14.3258
		C242.5264,279.3027,242.136,278.9126,241.3552,278.7546z"/>
	<path fill="#404065" d="M246.6265,278.4227c-0.6965,0-1.0923,0.453-1.187,1.3597v13.741c0.1477,0.7903,0.5222,1.1858,1.1238,1.1858
		h0.0632c0.7598-0.1265,1.1396-0.4846,1.1396-1.0754v-14.1992C247.7661,278.9501,247.3862,278.6121,246.6265,278.4227z"/>
	<path fill="#404065" d="M246.6265,274.3745c-0.6333,0-1.0288,0.3955-1.187,1.1858c0.1792,0.7909,0.5381,1.1863,1.0762,1.1863
		c0.8335-0.1157,1.2505-0.4529,1.2505-1.0123v-0.348C247.7661,274.9019,247.3862,274.5647,246.6265,274.3745z"/>
	<path fill="#404065" d="M259.6218,292.4482h-0.6492l-1.3289-0.1111c-0.9717-0.3372-1.4575-1.2493-1.4575-2.7354v-8.5226h2.1536
		l0.8699,0.0629c0.6543-0.2422,0.9822-0.627,0.9822-1.1543c-0.1899-0.7802-0.554-1.1702-1.092-1.1702l-0.5232,0.0635h-2.3904
		v-5.2178c0-0.4744-0.3479-0.7855-1.0442-0.9335h-0.2214c-0.5698,0-0.9023,0.4269-0.9973,1.2814v4.8699h-1.4404l-0.5857-0.0635
		v0.0635c-0.5698,0-0.9177,0.3694-1.0447,1.1067c0,0.5381,0.3271,0.9229,0.9814,1.1543l0.9341-0.0629h1.1553v8.8705
		c0,0.6638,0.0791,1.2439,0.2373,1.739c0.8967,2.014,2.269,3.0205,4.1162,3.0205h1.2178c0.613,0,0.9824-0.3688,1.1082-1.1068
		v-0.0475C260.4556,292.8169,260.1277,292.4482,259.6218,292.4482z"/>
	<path fill="#404065" d="M275.9712,278.7072l-0.5381,0.0636h-10.1143l-0.5864-0.0636v0.0636c-0.5686,0-0.918,0.3687-1.0437,1.1067
		c0,0.5481,0.3318,0.9381,0.9971,1.1697l0.9341-0.063h7.834l-7.375,9.282c-1.594,1.8341-2.3901,2.9041-2.3901,3.21
		c0.115,0.8223,0.4844,1.2332,1.1082,1.2332h11.1113c0.7373-0.1265,1.1067-0.4745,1.1067-1.0439v-0.1892
		c0-0.5588-0.3479-0.9067-1.0437-1.0439h-8.7214l8.4202-10.5627c0.8967-0.9695,1.345-1.5757,1.345-1.8179v-0.348
		C277.0149,279.2505,276.667,278.918,275.9712,278.7072z"/>
	<path fill="#404065" d="M287.1467,278.5017c-1.2031,0-2.4851,0.3372-3.8462,1.0117c-2.8074,1.7605-4.2112,4.1218-4.2112,7.084
		c0,1.4026,0.353,2.7461,1.061,4.0322c1.7517,2.7198,4.083,4.0796,6.9963,4.0796h0.4109c2.8384-0.3688,4.2583-1.0386,4.2583-2.0081
		v-0.1741c0-0.5793-0.3547-0.9381-1.0613-1.0752h-0.3479c-1.1816,0.5901-2.2322,0.8853-3.1504,0.8853
		c-0.7908,0-1.6406-0.1741-2.5479-0.522c-1.5403-0.8323-2.5427-2.0342-3.0071-3.6052h12.4885c0.6116,0,0.9863-0.3948,1.124-1.1857
		v-0.3004c0-1.3596-0.2957-2.6196-0.8872-3.7793C292.6963,279.9824,290.2688,278.5017,287.1467,278.5017z M281.5115,285.9016
		c0.095-0.7275,0.3533-1.4601,0.7761-2.1975c1.2231-1.8555,2.7849-2.7834,4.6838-2.7834h0.6489
		c1.2673,0,2.5496,0.6116,3.8477,1.8347c0.9487,1.286,1.4238,2.3345,1.4238,3.1462H281.5115z"/>
	<path fill="#404065" d="M306.3264,278.4067c-1.9846,0-3.8462,0.7748-5.5872,2.3245v-1.3127c0-0.4845-0.3801-0.8218-1.1401-1.0117
		c-0.696,0-1.092,0.4583-1.187,1.3757v13.741c0.1484,0.7903,0.522,1.1858,1.124,1.1858h0.063
		c0.76-0.1265,1.1401-0.4846,1.1401-1.0754v-7.0203c0-0.8225,0.1152-1.5552,0.3479-2.1981
		c1.0867-2.4142,2.7957-3.6212,5.1282-3.6212h0.3479c0.5486,0,1.3665,0.174,2.4543,0.5219h0.063c0.6221,0,0.9968-0.374,1.124-1.1228
		v-0.0629c0-0.3058-0.1592-0.6223-0.4751-0.9489C308.5264,278.665,307.3916,278.4067,306.3264,278.4067z"/>
	<path fill="#404065" d="M316.2549,292.3846h-1.2515V273.094c0-0.4851-0.3586-0.801-1.0757-0.949h-0.2383
		c-0.5796,0-0.9167,0.4324-1.0117,1.2969v20.0815c0.1472,0.7903,0.5273,1.1858,1.1387,1.1858h2.3113
		c0.6331,0,1.0129-0.3795,1.1401-1.1382v-0.0476C317.1084,292.764,316.7715,292.3846,316.2549,292.3846z"/>
	<path fill="#404065" d="M327.9043,278.5332c-1.1924,0-2.417,0.295-3.6724,0.8853c-2.9548,1.7611-4.4321,4.1431-4.4321,7.1475
		c0,1.3496,0.332,2.6879,0.9971,4.0161c1.8359,2.7515,4.1257,4.1272,6.8691,4.1272h0.459c2.0046,0,3.8782-0.8278,5.6191-2.4825
		v0.0629l-0.0627,1.4707v0.0637c0.2422,0.5901,0.6169,0.8853,1.1228,0.8853h0.0642c0.7493-0.1265,1.124-0.4797,1.124-1.0593v-6.847
		c0-1.3068-0.2756-2.5668-0.823-3.7792C333.3855,280.03,330.9634,278.5332,327.9043,278.5332z M333.6814,286.8029
		c0,0.8436-0.2329,1.7289-0.6973,2.6564c-1.2766,1.9612-2.896,2.9414-4.8591,2.9414h-0.459c-0.5903,0-1.2607-0.1372-2.01-0.4115
		c-2.3635-1.191-3.5452-2.9615-3.5452-5.3129v-0.1738c0-0.5266,0.1152-1.175,0.3481-1.9446
		c1.2029-2.4771,2.9961-3.7163,5.3809-3.7163h0.0645c0.8323,0,1.6406,0.1741,2.4207,0.522
		c2.2375,1.2018,3.3564,2.9362,3.3564,5.2024V286.8029z"/>
	<path fill="#404065" d="M347.0999,278.5332c-2.0261,0-3.8943,0.7695-5.6033,2.3083v-1.2966c0-0.4845-0.3745-0.8218-1.124-1.0117
		c-0.6973,0-1.092,0.4536-1.187,1.3596v13.6306c0.1472,0.7903,0.522,1.1858,1.124,1.1858h0.063
		c0.7495-0.1265,1.124-0.4797,1.124-1.0593v-6.1987c0-1.4861,0.1526-2.5667,0.459-3.2412c1.1711-2.2141,2.8279-3.3208,4.969-3.3208
		h0.1753c0.4846,0,1.0386,0.079,1.6609,0.2375c2.5547,0.9381,3.8313,2.8879,3.8313,5.8501v6.6096
		c0,0.6116,0.3733,0.9856,1.1228,1.1228h0.0642c0.7493-0.1472,1.124-0.4797,1.124-0.9963v-7.511
		c0-1.7075-0.6289-3.3362-1.884-4.8859C351.2993,279.4613,349.3254,278.5332,347.0999,278.5332z"/>
	<path fill="#404065" d="M374.4026,273.0303c0-0.4951-0.3599-0.8163-1.0774-0.9641h-0.2368c-0.4536,0-0.792,0.3425-1.0129,1.0278
		l0.0627,0.9487v6.7515c-1.8252-1.6333-3.7778-2.4504-5.856-2.4504c-1.614,0-3.1716,0.4951-4.6692,1.4861
		c-2.3525,1.8135-3.5303,4.043-3.5303,6.6887c0,1.7498,0.5808,3.4473,1.741,5.0913c1.9004,2.0662,3.9519,3.0994,6.1572,3.0994
		h0.4751c2.2578,0,4.2891-0.975,6.0945-2.9255c1.2766-1.7075,1.915-3.3416,1.915-4.9019l-0.063-2.0234V273.0303z M372.1382,286.7714
		c0,0.4215-0.1001,1.0177-0.301,1.7865c-1.2124,2.5515-3.0071,3.8268-5.3811,3.8268h-0.3638c-0.5488,0-1.1658-0.0997-1.8523-0.3004
		c-2.5532-1.1912-3.8301-3.0044-3.8301-5.4393v-0.3004c0-0.5693,0.1218-1.207,0.364-1.913
		c1.2139-2.5093,3.0071-3.7638,5.3811-3.7638h0.2383c0.4429,0,1.0598,0.1003,1.8521,0.3004c2.595,1.2018,3.8928,3.015,3.8928,5.4398
		V286.7714z"/>
	<path fill="#404065" d="M105.2656,262.5184c-2.6191-1.8553-3.8201-8.1853-3.8201-21.9371v-55.0065l-12.769,3.7109
		c-0.5457,0.2181-0.9824,0.4366-0.9824,0.8732c0,0.2181,0.3274,0.4363,1.8552,0.8729c3.1653,0.9822,3.8201,5.8936,3.8201,9.8226
		v15.1703c-4.3657-4.3653-12.4421-9.7133-21.6096-9.7133C53.6423,206.3114,40,218.4258,40,236.9795
		c0,17.1348,13.0967,29.3589,30.3408,29.3589c10.259,0,17.79-5.0203,23.0286-13.6426l2.6191,12.0054
		c1.5281,0,3.1653-0.4363,4.9114-0.4363c1.5278,0,3.1653,0.4363,4.9114,0.4363c0.7642,0,0.9822-0.2181,0.9822-0.655
		C106.7935,263.7189,106.1389,263.1729,105.2656,262.5184z M70.6685,263.6099c-14.1885,0-20.1909-13.97-20.1909-26.6304
		c0-12.9875,4.9111-27.9398,20.5181-27.9398c16.1528,0,22.1558,11.4597,22.1558,26.5213
		C93.1514,250.5132,87.3667,263.6099,70.6685,263.6099z"/>
	<path fill="#404065" d="M125.0166,199.8721c2.4014,0,5.1294-1.9645,5.1294-5.2386c0-3.2743-2.728-5.2388-5.1294-5.2388
		c-2.4011,0-5.1294,1.9645-5.1294,5.2388C119.8872,197.9077,122.6155,199.8721,125.0166,199.8721z"/>
	<path fill="#404065" d="M133.6387,263.6099c-2.6191-0.7642-4.5837-6.2208-4.5837-18.3352v-37.3262l-11.8962,3.1653
		c-0.4368,0.1091-0.7639,0.2181-0.7639,0.5457c0,0.3271,0.4365,0.4366,0.9822,0.6547c1.7461,0.9823,3.6016,1.3099,3.6016,3.4925
		v31.8688c0,9.7137-0.3276,13.7518-4.0381,15.4976c-1.0913,0.437-1.8555,0.7642-1.8555,1.3102c0,0.4362,0.3276,0.4362,0.873,0.4362
		c1.2007,0,3.4927-0.218,9.0586-0.218c3.165,0,7.2036,0.218,9.0586,0.218c0.5457,0,1.3098-0.109,1.3098-0.4362
		C135.385,263.937,134.6208,263.8279,133.6387,263.6099z"/>
	<path fill="#404065" d="M199.0112,263.2826c-2.9468-0.9823-3.8196-8.0769-3.8196-14.9521v-20.7367
		c0-12.6604-6.6577-21.2823-26.5212-21.2823c-7.094,0-16.0435,1.528-24.5564,5.2385l2.9468,10.3683
		c0.1091,0.3276,0.2185,0.3276,0.4368,0.3276c0.3274,0,0.5457-0.1091,0.5457-0.4365c0.9822-8.622,13.3152-12.7696,20.9548-12.7696
		c13.8608,0,17.4622,7.8582,17.4622,20.6276h-8.2947c-12.3325,0-37.2163,2.5103-37.2163,19.2084
		c0,11.8964,12.6599,17.4626,23.2466,17.4626c10.041,0,18.3354-3.1655,23.0286-12.5513h0.2183
		c0.3274,3.0559,1.8555,7.531,1.8555,10.259c0,0.3278,0.4365,0.873,1.3093,0.873c1.2007,0,2.6196-0.218,4.0386-0.218
		c1.2002,0,3.8196,0.218,4.2563,0.218c0.5457,0,0.9822-0.3271,0.9822-0.764C199.8845,263.8279,199.5571,263.5007,199.0112,263.2826z
		 M186.4602,237.198c0,13.3152-2.4011,26.4119-18.7722,26.4119c-8.8398,0-16.2615-4.9114-16.2615-14.516
		c0-14.5151,15.3887-16.6981,26.9575-16.6981h8.0762V237.198z"/>
	<path fill="#404065" d="M308.8035,263.3916c-2.8384-2.0735-3.1648-6.0026-3.1648-14.0789V230.213
		c0-13.6423-5.6755-23.9016-24.3389-23.9016c-8.6221,0-15.8257,4.9114-18.7727,15.3888h-0.218
		c-3.6013-9.6042-8.1851-15.3888-21.9368-15.3888c-7.9673,0-15.3889,5.0204-19.3176,14.4065h-0.2183v-12.7695l-11.0232,3.2744
		c-0.5457,0.109-0.7639,0.4366-0.7639,0.7637c0,0.4366,0.4365,0.5457,1.5281,1.0917c1.2004,0.6547,3.0559,1.4185,3.0559,7.5306
		v26.7393c0,6.7661-0.5459,13.7511-3.3835,15.9344c-0.7639,0.5453-1.5278,0.6544-1.5278,1.2004
		c0,0.3271,0.4365,0.4362,0.9822,0.4362c0.7639,0,2.2917-0.218,7.9673-0.218c6.0027,0,7.2031,0.218,7.8582,0.218
		c0.5457,0,1.2004-0.109,1.2004-0.4362c0-0.546-0.8733-0.6552-1.4189-0.9823c-3.0559-2.4015-3.6016-6.1117-3.6016-11.46v-18.3352
		c0-12.0054,8.2949-24.6658,18.6628-24.6658c6.3301,0,15.0613,4.8022,15.0613,18.3355v20.191c0,9.8228-0.5459,13.533-3.9287,15.7163
		c-0.9824,0.6544-1.7466,0.9823-1.7466,1.2004c0,0.3271,0.3276,0.4362,0.8733,0.4362c0.8733,0,4.9114-0.218,8.4041-0.218
		c3.4915,0,7.5303,0.218,9.385,0.218c0.5461,0,1.092-0.109,1.092-0.4362c0-0.2181-0.9822-0.8732-2.0742-1.4193
		c-2.5093-1.2003-3.2734-5.6747-3.2734-9.2766v-17.0258c0-16.371,3.9292-27.7216,16.8071-27.7216
		c7.4219,0,15.9343,4.8022,15.9343,22.9194v18.9902c0,6.4397-0.9822,10.9141-4.1472,12.5514
		c-0.7642,0.3271-1.2004,0.7642-1.2004,0.9823c0,0.3271,0.4363,0.4362,0.9824,0.4362c0.6543,0,4.6931-0.218,8.1858-0.218
		c3.4917,0,7.5305,0.218,9.2769,0.218c0.4363,0,0.7642-0.109,0.7642-0.4362C310.7681,264.2649,309.7856,264.0461,308.8035,263.3916z
		"/>
	<path fill="#404065" d="M374.2837,246.366c0-12.1147-12.3335-13.3152-21.5017-14.1884
		c-8.0762-0.6548-20.5178-0.9823-20.5178-11.7872c0-7.9672,8.186-11.3506,15.7163-11.3506c7.094,0,16.4805,2.8377,18.4448,9.4952
		c0.5461,1.7463,0.7642,2.5103,1.3088,2.5103c0.3279,0,0.6558-0.4363,0.9824-1.4187l2.8381-8.7313
		c-6.7673-2.9468-14.5156-4.5838-21.9375-4.5838c-10.8052,0-26.0837,4.2566-26.0837,17.5714
		c0,10.9141,12.1138,14.9521,21.064,15.8254c8.7307,0.5457,20.9541,0.6547,20.9541,11.3501
		c0,10.0409-10.8049,12.5515-18.8811,12.5515c-8.4028,0-19.2078-2.5106-22.2644-11.5691c-0.5459-1.4186-0.7642-2.2917-1.3088-2.2917
		c-0.6558,0-1.092,0.8732-1.9644,3.7109l-2.2925,7.094c8.5125,4.8022,18.4448,5.7844,28.0493,5.7844
		C358.6758,266.3384,374.2837,260.4448,374.2837,246.366z"/>
	<path fill="#404065" d="M473.0154,280.8503l-2.0339-24.1257l-8.196-18.9609l-0.2751-0.1779l-18.1096-19.072l-18.6223-9.0354
		l-24.0757-3.1309l-0.0164,0.004l-0.0378-0.0049l-8.9019,2.1452l-4.3213,4.2075l-1.498,7.5947l0.0044,0.1118l2.2178,68.9932
		l0.0005,0.0636l0.0515,0.0038l-0.0227,0.0216l53.2173,4.0563l2.8008,0.2192l13.1724,1.1136l7.6748-1.1442l4.4136-4.1132
		l1.064-3.6479l1.4927-5.0452l-0.0046-0.0558L473.0154,280.8503z M393.1633,280.1257l-0.3008,0.286l-0.3713-11.5494l4.9495-11.1497
		l-4.2705,23.9719L393.1633,280.1257z M401.5845,210.4766l3.731,0.4125l-13.5444,5.5189l0.3376-1.7122l2.6421-2.5724
		L401.5845,210.4766z M468.8574,280.8765l-1.176,3.9753l-0.7559,2.5918l-2.7,2.5162l-1.8159,0.2706l6.2026-13.2675
		L468.8574,280.8765z M451.5845,270.1333l-5.562-12.069l14.4336,6.2385L451.5845,270.1333z M437.8594,283.3528l-4.5876-5.1389
		l16.5457-5.1415l-3.0005,13.6743L437.8594,283.3528z M413.8276,265.9296l-2.0942-3.8843l3.4812,2.5702l2.4128,3.5815
		L413.8276,265.9296z M408.3279,229.7584l-5.9092,16.2445l-4.9409-4.8096l-2.9897-9.0718L408.3279,229.7584z M424.5388,254.3513
		l-8.6729,8.259l-6.3621-4.6971l-4.6943-8.5793L424.5388,254.3513z M425.9246,255.7935l4.1213,19.8842l-8.3838-5.0717
		l-4.4133-6.5507L425.9246,255.7935z M432.2461,276.4382l-4.4434-21.4368l15.5408,2.0283l6.4338,13.9607L432.2461,276.4382z
		 M427.4668,252.9407l-1.1782-13.8944l15.0449,15.7042L427.4668,252.9407z M404.1472,247.1017l6.2603-17.2097l13.6958,7.0548
		l1.3198,15.5658L404.1472,247.1017z M411.3518,228.1287l6.2476-8.5719l5.5889,14.6689L411.3518,228.1287z M392.9985,218.0674
		l16.1631-6.5859l7.3572,6.1626l-6.9524,9.5383L392.9985,218.0674z M406.8655,227.9791l-13.1616,2.2474l-2.6047-4.6733
		l-0.0935-2.9072l0.4558-3.1416L406.8655,227.9791z M392.2549,231.735l1.3911,4.2211l-1.5671-2.1609l-0.5378-3.3409
		L392.2549,231.735z M402.0244,248.4103l2.5146,4.5959l-3.8188-3.7977l-1.3906-3.4215L402.0244,248.4103z M407.9224,259.1914
		l3.9133,7.2581l-16.7646,15.9673l5.449-30.5868L407.9224,259.1914z M413.218,267.8949l7.0986,4.2357l7.0259,7.6998l-30.8843,4.0272
		L413.218,267.8949z M430.8445,278.4982l2.4961,2.796l-3.364-1.5443l-3.6189-3.9658L430.8445,278.4982z M447.1021,288.9935
		l1.2383,0.7629l-3.3169-0.6882l-2.0825-1.6512L447.1021,288.9935z M460.8293,288.8884l-8.3779-16.9316l9.8757-6.4905l5.875,7.6515
		L460.8293,288.8884z M417.8108,216.1174l-5.1462-4.3107l8.3142,1.0812L417.8108,216.1174z M391.98,237.0654l3.7441,5.1625
		l3.0601,7.5287l-6.4407,14.5093l-0.6802-21.161L391.98,237.0654z M436.7495,285.0598l5.0171,3.9783l-4.9578,0.0686l-21.9905-1.676
		l14.5278-5.7694L436.7495,285.0598z M448.6743,287.613l2.8547-13.0104l7.7874,15.7379l-3.3044,0.323l-2.7654-0.2339
		L448.6743,287.613z M463.9182,264.2545l3.4304-3.0082l0.7078,8.3977L463.9182,264.2545z M424.6174,213.3611l17.3831,8.4341
		l17.4839,18.413l7.5662,17.5037l0.0891,1.0574l-4.769,4.1823l-17.7678-7.6797l-18.6875-19.5062l-6.8752-18.0452l4.4233-4.5094
		L424.6174,213.3611z M395.7007,285.9734l25.8591-3.3719l-11.2878,4.4825L395.7007,285.9734z"/>
	<rect fill="none" width="512" height="512"/>
</g>
</svg>
