<?xml version="1.0" encoding="utf-8"?>
<!-- Generator: Adobe Illustrator 18.1.1, SVG Export Plug-In . SVG Version: 6.00 Build 0)  -->
<!DOCTYPE svg PUBLIC "-//W3C//DTD SVG 1.1//EN" "http://www.w3.org/Graphics/SVG/1.1/DTD/svg11.dtd">
<svg version="1.1" id="XMLID_2_" xmlns="http://www.w3.org/2000/svg" xmlns:xlink="http://www.w3.org/1999/xlink" x="0px" y="0px"
	 viewBox="0 0 512 512" enable-background="new 0 0 512 512" xml:space="preserve">
<g id="Cardis-Sothebys">
	<path fill="#404065" d="M154.384,191.799c10.7681,0,17.7544-6.63,20.3745-17.2603l-4.9482-1.0951
		c-2.3279,9.0293-7.3473,13.6947-15.3527,13.6947c-10.4781,0-17.3196-8.7466-17.3196-23.6622
		c0-13.8276,6.7653-22.8473,17.1722-22.8473c8.2217,0,12.2244,4.4397,14.6235,12.9558l4.9506-1.2399
		c-2.5465-9.9651-8.5873-16.4454-19.5027-16.4454c-13.4594,0-22.4103,11.4237-22.4103,27.7242
		C131.9714,180.7959,140.7749,191.8015,154.384,191.799z"/>
	<path fill="#404065" d="M181.1226,181.8198c0,5.9767,4.0002,9.6206,10.8464,9.6206c5.7488,0,10.6992-2.114,15.1366-6.1262
		c0,2.1855,0.3611,3.8696,0.8718,5.4661h5.1666c-0.8005-1.9645-1.0927-4.8032-1.0927-9.4734v-17.3933
		c0-7.6394-3.7129-12.2266-12.2955-12.2266c-7.5682,0-12.8774,2.9124-17.4622,7.1335l2.689,3.1285
		c4.0051-3.4921,8.2952-6.0409,14.3337-6.0409c5.0171,0,7.7869,2.5488,7.7869,7.8628v1.9622
		C187.6005,168.7168,181.1226,174.2468,181.1226,181.8198z M207.1008,181.2354c-3.9291,3.7891-8.6587,6.0481-14.0438,6.0481
		c-4.2949,0-6.9839-2.1119-6.9839-6.1217c0-5.024,4.5846-9.0981,21.0277-11.8632V181.2354z"/>
	<path fill="#404065" d="M227.3542,190.7825v-24.9756c2.9836-6.0387,7.9316-9.5305,14.1912-9.5305
		c0.1401,0,1.525,0.0713,1.525,0.0713l0.5083-4.6583h-0.8741c-7.5659,0-12.2242,3.5656-15.2079,8.2975h-0.1425v-7.5707h-5.0217
		v38.3663H227.3542z"/>
	<path fill="#404065" d="M262.7107,191.4333c5.7512,0,9.6755-2.9102,12.804-6.2643c0,2.0381,0.4395,4.2972,0.8718,5.611h5.314
		c-0.8718-1.967-1.1641-4.8081-1.1641-9.4734v-44.3882h-5.0217v20.7356c-2.9836-3.3447-7.4186-5.9648-12.3667-5.9648
		c-9.1718,0-16.2292,6.5493-16.2292,19.9375C246.9187,185.0266,253.9072,191.4382,262.7107,191.4333z M263.5825,155.9127
		c4.4375,0,8.1479,2.2543,11.9321,6.3282v18.6309c-3.637,3.865-7.2025,6.269-11.9321,6.2689
		c-6.4019,0-11.6398-4.884-11.6398-15.4406C251.9427,160.8608,256.8125,155.9127,263.5825,155.9127z"/>
	<rect x="291.447" y="152.4161" fill="#404065" width="5.0193" height="38.3641"/>
	<rect x="291.302" y="138.1584" fill="#404065" width="5.314" height="5.3828"/>
	<path fill="#404065" d="M319.366,187.281c-5.3115,0-9.022-2.1807-11.9343-5.5374l-3.2021,2.9172
		c2.9124,3.936,8.2239,6.8485,15.0603,6.8438c8.6611,0,14.9181-4.0051,14.9181-11.0033c0-7.4948-4.9506-9.8251-14.5521-12.153
		c-6.6965-1.6012-9.3167-3.1287-9.3167-6.8391c0-2.9124,2.3279-5.6798,8.2952-5.6798c4.6582,0,8.2952,1.8196,11.2051,4.7321
		l2.8412-3.3472c-3.4208-3.3447-7.642-5.53-14.1912-5.53c-8.2952,0-13.0223,4.587-13.0223,10.0435
		c0,6.6967,4.5134,9.0245,13.3146,11.2076c7.4969,1.746,10.5543,3.4182,10.5543,7.6418
		C329.3359,184.8745,325.9152,187.281,319.366,187.281z"/>
	<polygon fill="#404065" points="380.0287,167.9565 328.1221,132.9465 363.5547,167.9399 	"/>
	<rect x="182.0039" y="206.6697" fill="#404065" width="1.7197" height="17.9302"/>
	<path fill="#404065" d="M206.5211,224.6046v-17.9349h-2.2804l-5.9578,15.7019h-0.0498l-6.01-15.7019h-2.2306h-0.0001v17.9349
		h1.5988v-15.0748h0.0499c0.3848,1.2875,0.6769,2.0358,1.1116,3.1974l4.6537,11.8798h1.5748l4.6537-11.8798
		c0.4371-1.1639,0.8718-2.3494,1.1141-3.1476h0.0498v15.025H206.5211z"/>
	<path fill="#404065" d="M212.7141,224.6046h1.5986v-15.0748h0.0499c0.3849,1.2875,0.6769,2.0358,1.1117,3.1974l4.6583,11.8798
		h1.575l4.6512-11.8798c0.437-1.1639,0.8718-2.3494,1.114-3.1476h0.0475v15.025h1.7223v-17.9349h-2.2781l-5.9602,15.7019h-0.0498
		l-6.01-15.7019h-2.2305V224.6046z"/>
	<path fill="#404065" d="M234.6492,215.6348c0,5.6251,3.176,9.3118,7.5613,9.3118c4.3875,0,7.5612-3.689,7.5612-9.3118
		c0-5.6252-3.1737-9.3071-7.5612-9.3071C237.8276,206.3276,234.6492,210.012,234.6492,215.6348z M248.0564,215.6348
		c0,4.8722-2.4539,7.7583-5.8435,7.756c-3.3923,0-5.8391-2.8864-5.8391-7.756c0-4.8722,2.4492-7.7299,5.8391-7.7299
		C245.605,207.9049,248.0564,210.7626,248.0564,215.6348z"/>
	<rect x="255.1781" y="206.6698" fill="#404065" width="0.0024" height="0.0022"/>
	<path fill="#404065" d="M261.9412,224.6021c4.1475,0,6.1334-2.0359,6.1334-4.8721c0-2.5679-1.746-3.9504-3.9789-4.3638v-0.0475
		c1.8457-0.411,3.3922-1.7174,3.3922-4.1405c0-2.8362-2.0358-4.5061-6.0812-4.5061h-6.2263v17.9299H261.9412z M266.3785,219.6565
		c0,2.1831-1.3849,3.4183-4.4611,3.4183v-0.0024h-5.0386v-6.9293h4.5063C264.4639,216.1431,266.3785,217.2334,266.3785,219.6565z
		 M261.3118,208.2209c3.0975,0,4.48,0.9668,4.48,3.176c0,2.2258-1.6675,3.2473-4.5276,3.2473v0.0024h-4.3875v-6.4258H261.3118z"/>
	<rect x="273.5739" y="206.6697" fill="#404065" width="1.7198" height="17.9302"/>
	<polygon fill="#404065" points="281.5649,206.6697 281.5649,224.6046 292.0574,224.6046 292.0574,223.0273 283.2872,223.0273 
		283.2872,206.6697 	"/>
	<rect x="296.8964" y="206.6697" fill="#404065" width="1.7223" height="17.9302"/>
	<polygon fill="#404065" points="315.5985,208.2683 315.5985,206.6697 304.885,206.6697 304.885,224.6046 316.1069,224.6046 
		316.1069,223.0273 306.6096,223.0273 306.6096,215.9009 313.3181,215.9009 313.3181,214.3521 306.6096,214.3521 306.6096,208.2683 
			"/>
	<path fill="#404065" d="M333.1699,211.5181c0-3.1523-2.2283-4.8484-6.2285-4.8484h-6.0076v17.9326h1.696v-8.0481h4.4587
		l4.3828,8.0481h1.9385l-4.53-8.2429C331.4714,215.8772,333.1699,214.4233,333.1699,211.5181z M326.8226,215.0312h0.0026v0.0046
		h-4.1929v-6.7889h4.1643c3.0073,0,4.6558,0.8695,4.6558,3.3446C331.4524,214.1833,329.7754,215.0312,326.8226,215.0312z"/>
	<polygon fill="#404065" points="398.8998,287.5037 390.7551,287.5037 382.4744,304.5872 390.623,304.5872 	"/>
	<rect x="97.7365" y="374.9097" fill="#404065" width="2.3492" height="16.3613"/>
	<polygon fill="#404065" points="119.0299,387.5739 107.9514,374.9097 106.0813,374.9097 106.0813,391.271 108.2871,391.271 
		108.2871,378.6768 119.2261,391.271 121.2358,391.271 121.2358,374.9097 119.0299,374.9097 	"/>
	<polygon fill="#404065" points="125.8418,377.0232 131.4998,377.0232 131.4998,391.271 133.851,391.271 133.851,377.0232 
		139.5088,377.0232 139.5088,374.9097 125.8418,374.9097 	"/>
	<polygon fill="#404065" points="146.4661,384.0708 153.1572,384.0708 153.1572,381.9648 146.4661,381.9648 146.4661,377.0232 
		153.3947,377.0232 153.3947,374.9097 144.1149,374.9097 144.1149,391.271 153.6096,391.271 153.6096,389.1556 146.4661,389.1556 	
		"/>
	<path fill="#404065" d="M165.3179,383.4995c1.7515-0.6995,2.7356-2.1099,2.7356-4.0065c0-2.8319-2.0664-4.5834-5.3733-4.5834
		h-4.129v16.3613h2.3512v-7.1041h0.9822c1.201,0,2.1851,0.3846,4.3401,3.7426l2.1626,3.3616h2.8054
		c-1.1294-1.563-1.5347-2.1154-2.2324-3.239C167.7122,385.99,166.8054,384.4817,165.3179,383.4995z M162.4143,382.061h-1.512v-5.136
		h1.512c2.2756,0,3.1899,0.9373,3.2128,2.4719C165.6533,380.7638,164.9332,382.061,162.4143,382.061z"/>
	<polygon fill="#404065" points="188.3156,387.5739 177.2354,374.9097 175.365,374.9097 175.365,391.271 177.5708,391.271 
		177.5708,378.6768 188.5042,391.271 190.5215,391.271 190.5215,374.9097 188.3156,374.9097 	"/>
	<path fill="#404065" d="M201.7413,374.8192l-7.0267,16.4518h2.3999l2.0647-4.8229h6.9495l2.1851,4.8229h2.3982l-7.317-16.4518
		H201.7413z M200.0879,384.3347l2.449-5.9221l2.636,5.9221H200.0879z"/>
	<polygon fill="#404065" points="211.123,377.0232 216.7828,377.0232 216.7828,391.271 219.1339,391.271 219.1339,377.0232 
		224.7937,377.0232 224.7937,374.9097 211.123,374.9097 	"/>
	<rect x="229.4187" y="374.9097" fill="#404065" width="2.3529" height="16.3613"/>
	<path fill="#404065" d="M245.8488,374.6985c-5.3016,0-8.7775,3.8594-8.7775,8.3955c0,4.4309,3.3853,8.3918,8.7285,8.3918
		c5.543,0,8.8499-3.9819,8.8499-8.3918C254.6497,378.5316,251.2446,374.6985,245.8488,374.6985z M245.8488,389.3253
		c-3.6464,0-6.3536-2.6603-6.3536-6.2313c0-3.601,2.7073-6.2385,6.3536-6.2385c3.6689,0,6.3801,2.6376,6.3801,6.2385
		C252.2289,386.665,249.5177,389.3253,245.8488,389.3253z"/>
	<polygon fill="#404065" points="272.855,387.5739 261.7727,374.9097 259.9023,374.9097 259.9023,391.271 262.1083,391.271 
		262.1083,378.6768 273.0397,391.271 275.057,391.271 275.057,374.9097 272.855,374.9097 	"/>
	<path fill="#404065" d="M286.2788,374.8192l-7.0287,16.4518h2.4019l2.0626-4.8229h6.9534l2.1831,4.8229h2.3983l-7.3153-16.4518
		H286.2788z M284.6234,384.3347l2.4509-5.9221l2.6359,5.9221H284.6234z"/>
	<polygon fill="#404065" points="301.7727,374.9097 299.4236,374.9097 299.4236,391.271 309.1633,391.271 309.1633,389.1556 
		301.7727,389.1556 	"/>
	<path fill="#404065" d="M331.8257,383.4995c1.7498-0.6995,2.7336-2.1099,2.7336-4.0065c0-2.8319-2.0624-4.5834-5.3733-4.5834
		h-4.1288v16.3613h2.3529v-7.1041h0.9841c1.1992,0,2.1831,0.3846,4.3401,3.7426l2.1608,3.3616h2.8053
		c-1.1313-1.563-1.5345-2.1154-2.2323-3.239C334.22,385.99,333.3113,384.4817,331.8257,383.4995z M328.9221,382.061h-1.512v-5.136
		h1.512c2.2776,0,3.1902,0.9373,3.209,2.4719C332.1575,380.7638,331.441,382.061,328.9221,382.061z"/>
	<polygon fill="#404065" points="344.2466,384.0708 350.9359,384.0708 350.9359,381.9648 344.2466,381.9648 344.2466,377.0232 
		351.1733,377.0232 351.1733,374.9097 341.8936,374.9097 341.8936,391.271 351.3921,391.271 351.3921,389.1556 344.2466,389.1556 	
		"/>
	<path fill="#404065" d="M361.509,374.8192l-7.0287,16.4518h2.402l2.0625-4.8229h6.9534l2.1832,4.8229h2.3982l-7.319-16.4518
		H361.509z M359.8536,384.3347l2.4473-5.9221l2.6395,5.9221H359.8536z"/>
	<polygon fill="#404065" points="377.0029,374.9097 374.6538,374.9097 374.6538,391.271 384.3936,391.271 384.3936,389.1556 
		377.0029,389.1556 	"/>
	<polygon fill="#404065" points="385.0385,377.0232 390.6985,377.0232 390.6985,391.271 393.0513,391.271 393.0513,377.0232 
		398.7112,377.0232 398.7112,374.9097 385.0385,374.9097 	"/>
	<polygon fill="#404065" points="413.1721,374.9097 408.7339,380.547 404.3486,374.9097 401.5167,374.9097 407.5837,382.6113 
		407.5837,391.271 409.9368,391.271 409.9368,382.6323 416,374.9097 	"/>
	<path fill="#404065" d="M104.0375,301.6477c0-4.2439,3.9724-7.1567,9.5399-7.1567c4.0592,0,9.0046,1.4159,14.1292,6.2689v-9.7983
		c-4.2385-2.8263-8.833-4.2421-13.4258-4.2421c-11.037,0-18.2808,6.2744-18.2808,16.0747c0,16.5159,26.0522,17.928,26.0522,30.3789
		c0,3.356-3.092,7.5942-9.7982,7.5942c-5.9183,0-11.4801-3.0918-15.8976-8.7443v10.9484c5.032,3.801,10.3301,5.5675,16.8646,5.5675
		c9.7172,0,16.8684-6.8893,16.8684-16.3387C130.0895,313.0355,104.0375,313.2146,104.0375,301.6477z"/>
	<path fill="#404065" d="M156.1398,307.2944c-11.8364,0-20.9314,8.833-20.9314,20.2263c0,12.1871,8.7443,21.0182,20.9314,21.0182
		c12.7188,0,21.4576-8.4805,21.4576-21.0182C177.5974,315.7749,168.5928,307.2944,156.1398,307.2944z M156.0493,341.4763
		c-7.5944,0-12.8036-5.5675-12.8036-13.9556c0-7.5942,5.3883-13.1562,12.8036-13.1562c7.864,0,13.5125,5.562,13.5125,13.2429
		C169.5618,336.1727,164.3506,341.4763,156.0493,341.4763z"/>
	<path fill="#404065" d="M186.781,336.0861c0,7.1512,4.3287,12.4529,12.896,12.4529c2.5544,0,6.7986-1.15,9.5323-2.6471v-7.334
		c-3.1769,1.9437-6.0897,2.9185-8.916,2.9185c-2.2982,0-5.6542-1.3311-5.6542-6.005v-20.3129h12.5396v-7.0684h-12.5396v-8.2107
		l-14.7437,14.3928v0.8862h6.8855V336.0861z"/>
	<path fill="#404065" d="M241.0938,323.1901v24.5553h7.8583v-24.2896c0-10.8577-5.7389-16.1614-13.5115-16.1614
		c-4.4155,0-8.8329,2.2115-11.8307,6.005h-0.1792v-25.7806h-7.8582v60.2266h7.8582v-28.4353
		c3.7086-4.1516,6.448-5.7448,9.8906-5.7448C238.0896,313.5653,241.0938,317.3643,241.0938,323.1901z"/>
	<path fill="#404065" d="M292.1385,336.2651c-4.5966,2.9998-9.0988,4.7661-13.8688,4.7661c-7.5944,0-12.0966-4.063-13.3335-11.9229
		H292.84c0-14.657-6.7084-21.814-17.2212-21.814c-10.9501,0-18.5444,8.1299-18.5444,20.1396
		c0,10.9502,6.8929,21.1049,19.2533,21.1049c6.7122,0,11.0371-1.5026,15.8109-4.6794V336.2651z M275.796,314.1006
		c5.5619,0,9.0121,3.7936,9.276,9.7983h-19.9585C266.1732,317.6301,269.7932,314.1006,275.796,314.1006z"/>
	<path fill="#404065" d="M336.0225,327.0778c0-11.3895-7.2399-19.7833-17.1305-19.7833c-3.9744,0-7.5076,1.1521-10.9503,3.6218
		v-23.3975h-7.8582v58.0149c3.8838,1.8552,9.5325,3.0052,14.7437,3.0052C328.0739,348.5389,336.0225,340.5016,336.0225,327.0778z
		 M315.8867,341.1182c-2.2925,0-5.6486-0.5299-7.9451-1.2368v-21.4575c3.356-2.9995,5.7393-4.0593,9.0046-4.0593
		c6.6251,0,11.0408,5.4753,11.0408,13.8633C327.9871,335.7354,322.9569,341.1182,315.8867,341.1182z"/>
	<polygon fill="#404065" points="348.7375,368.0564 376.8182,308.0901 367.9872,308.0901 357.7458,330.4338 347.0593,308.0901 
		338.1416,308.0901 353.5112,339.2649 339.9968,368.0564 	"/>
	<path fill="#404065" d="M414.179,336.8816c0-4.0649-2.3832-6.8003-8.9255-11.1292c-6.972-4.0593-9.623-6.1765-9.623-7.9452
		c0-2.119,2.0288-3.6217,5.2075-3.6217c2.9186,0,7.0702,1.2388,11.4857,4.1515v-7.7714c-4.1516-2.2114-7.9489-3.2712-11.6591-3.2712
		c-7.9487,0-13.0657,4.0649-13.0657,10.7787c0,10.6844,18.5408,13.5973,18.5408,19.0724c0,2.8263-2.6471,4.3308-5.8296,4.5042
		c-3.1787,0-7.8582-1.6779-12.979-5.2111v8.4785c5.1208,2.651,8.9216,3.6218,13.7747,3.6218
		C408.6094,348.5389,414.179,343.8595,414.179,336.8816z"/>
	<rect fill="none" width="512" height="512"/>
</g>
</svg>
