<?xml version="1.0" encoding="utf-8"?>
<!-- Generator: Adobe Illustrator 18.1.1, SVG Export Plug-In . SVG Version: 6.00 Build 0)  -->
<!DOCTYPE svg PUBLIC "-//W3C//DTD SVG 1.1//EN" "http://www.w3.org/Graphics/SVG/1.1/DTD/svg11.dtd">
<svg version="1.1" id="XMLID_1_" xmlns="http://www.w3.org/2000/svg" xmlns:xlink="http://www.w3.org/1999/xlink" x="0px" y="0px"
	 viewBox="0 0 512 512" enable-background="new 0 0 512 512" xml:space="preserve">
<g id="DeRham-Sothebys">
	<polygon fill="#404065" points="390.623,304.5872 382.4744,304.5872 390.755,287.5036 398.8997,287.5036 	"/>
	<g>
		<g>
			<path fill="#404065" d="M100.0857,391.271h-2.3492v-16.3613h2.3492V391.271z"/>
			<path fill="#404065" d="M121.2358,391.271h-2.0098l-10.9389-12.5942v12.5942h-2.2059v-16.3613h1.8702l11.0785,12.6641v-12.6641
				h2.2059V391.271z"/>
			<path fill="#404065" d="M139.5088,377.0232h-5.6579v14.2478h-2.3511v-14.2478h-5.6581v-2.1134h13.6671V377.0232z"/>
			<path fill="#404065" d="M153.3946,377.0232h-6.9286v4.9417h6.6911v2.1059h-6.6911v5.0849h7.1437v2.1154h-9.4948v-16.3613h9.2797
				V377.0232z"/>
			<path fill="#404065" d="M162.6802,374.9098c3.307,0,5.3733,1.7515,5.3733,4.5833c0,1.8967-0.9842,3.307-2.7357,4.0064
				c1.4875,0.9823,2.3944,2.4905,3.6425,4.5325c0.6977,1.1236,1.103,1.676,2.2324,3.239h-2.8054l-2.1627-3.3616
				c-2.155-3.3579-3.139-3.7425-4.34-3.7425h-0.9823v7.1041h-2.3511v-16.3613H162.6802z M160.9023,382.061h1.5121
				c2.5189,0,3.239-1.2972,3.2128-2.6641c-0.0228-1.5347-0.9371-2.4718-3.2128-2.4718h-1.5121V382.061z"/>
			<path fill="#404065" d="M190.5215,391.271h-2.0173l-10.9333-12.5942v12.5942h-2.2059v-16.3613h1.8704l11.0802,12.6641v-12.6641
				h2.2059V391.271z"/>
			<path fill="#404065" d="M210.712,391.271h-2.3982l-2.1851-4.8229h-6.9495l-2.0646,4.8229h-2.4l7.0267-16.4518h1.6536
				L210.712,391.271z M200.0879,384.3347h5.0849l-2.6359-5.922L200.0879,384.3347z"/>
			<path fill="#404065" d="M224.7937,377.0232h-5.6598v14.2478h-2.3511v-14.2478h-5.6598v-2.1134h13.6707V377.0232z"/>
			<path fill="#404065" d="M231.7716,391.271h-2.3528v-16.3613h2.3528V391.271z"/>
			<path fill="#404065" d="M245.8488,374.6985c5.3959,0,8.8009,3.8331,8.8009,8.3955c0,4.4099-3.307,8.3918-8.85,8.3918
				c-5.3432,0-8.7283-3.9611-8.7283-8.3918C237.0714,378.5579,240.5471,374.6985,245.8488,374.6985z M245.8488,389.3253
				c3.669,0,6.3801-2.6602,6.3801-6.2313c0-3.601-2.7112-6.2386-6.3801-6.2386c-3.6464,0-6.3537,2.6376-6.3537,6.2386
				C239.4951,386.6651,242.2024,389.3253,245.8488,389.3253z"/>
			<path fill="#404065" d="M275.057,391.271h-2.0173l-10.9314-12.5942v12.5942h-2.206v-16.3613h1.8704l11.0822,12.6641v-12.6641
				h2.2021V391.271z"/>
			<path fill="#404065" d="M295.2494,391.271h-2.3982l-2.1831-4.8229h-6.9534l-2.0627,4.8229h-2.4019l7.0286-16.4518h1.6553
				L295.2494,391.271z M284.6234,384.3347h5.0868l-2.6359-5.922L284.6234,384.3347z"/>
			<path fill="#404065" d="M301.7728,389.1556h7.3906v2.1154h-9.7398v-16.3613h2.3492V389.1556z"/>
			<path fill="#404065" d="M329.1861,374.9098c3.3109,0,5.3733,1.7515,5.3733,4.5833c0,1.8967-0.984,3.307-2.7338,4.0064
				c1.4856,0.9823,2.3944,2.4905,3.6425,4.5325c0.6977,1.1236,1.101,1.676,2.2324,3.239h-2.8054l-2.1607-3.3616
				c-2.1569-3.3579-3.141-3.7425-4.3401-3.7425h-0.9843v7.1041h-2.3528v-16.3613H329.1861z M327.4101,382.061h1.5121
				c2.5189,0,3.2354-1.2972,3.2089-2.6641c-0.0187-1.5347-0.9313-2.4718-3.2089-2.4718h-1.5121V382.061z"/>
			<path fill="#404065" d="M351.1734,377.0232h-6.9269v4.9417h6.6894v2.1059h-6.6894v5.0849h7.1456v2.1154h-9.4985v-16.3613h9.2797
				V377.0232z"/>
			<path fill="#404065" d="M370.4796,391.271h-2.3982l-2.1831-4.8229h-6.9533l-2.0627,4.8229h-2.4019l7.0286-16.4518h1.6516
				L370.4796,391.271z M359.8537,384.3347h5.0868l-2.6395-5.922L359.8537,384.3347z"/>
			<path fill="#404065" d="M377.003,389.1556h7.3906v2.1154h-9.7398v-16.3613h2.3492V389.1556z"/>
			<path fill="#404065" d="M398.7112,377.0232h-5.6598v14.2478h-2.3528v-14.2478h-5.66v-2.1134h13.6727V377.0232z"/>
			<path fill="#404065" d="M413.1721,374.9098h2.828l-6.0633,7.7225v8.6388h-2.3531v-8.6596l-6.067-7.7016h2.8318l4.3854,5.6372
				L413.1721,374.9098z"/>
		</g>
	</g>
	<g>
		<path fill="#404065" d="M127.7065,300.7599c-5.1244-4.853-10.0699-6.2689-14.1291-6.2689c-5.5675,0-9.54,2.9129-9.54,7.1568
			c0,11.5668,26.052,11.3878,26.052,30.5525c0,9.4494-7.1512,16.3387-16.8684,16.3387c-6.5346,0-11.8326-1.7665-16.8646-5.5675
			v-10.9484c4.4174,5.6525,9.9792,8.7444,15.8975,8.7444c6.7062,0,9.7983-4.2383,9.7983-7.5943
			c0-12.451-26.0522-13.863-26.0522-30.379c0-9.8002,7.2437-16.0747,18.2807-16.0747c4.5928,0,9.1873,1.4159,13.4258,4.2422
			V300.7599z"/>
		<path fill="#404065" d="M177.5973,327.5208c0,12.5377-8.7388,21.0181-21.4575,21.0181c-12.1871,0-20.9314-8.8311-20.9314-21.0181
			c0-11.3934,9.095-20.2264,20.9314-20.2264C168.5927,307.2944,177.5973,315.7749,177.5973,327.5208z M143.2457,327.5208
			c0,8.388,5.2092,13.9555,12.8035,13.9555c8.3013,0,13.5125-5.3036,13.5125-13.8688c0-7.681-5.6484-13.2429-13.5125-13.2429
			C148.6341,314.3646,143.2457,319.9265,143.2457,327.5208z"/>
		<path fill="#404065" d="M194.6391,308.0901h12.5396v7.0684h-12.5396v20.3129c0,4.6739,3.356,6.005,5.6542,6.005
			c2.8262,0,5.7392-0.9748,8.916-2.9185v7.334c-2.7338,1.497-6.9779,2.6471-9.5325,2.6471c-8.5671,0-12.896-5.3017-12.896-12.4529
			v-20.9276h-6.8854v-0.8862l14.7436-14.393V308.0901z"/>
		<path fill="#404065" d="M223.4307,313.2995h0.1792c2.9977-3.7935,7.4151-6.005,11.8307-6.005
			c7.7725,0,13.5115,5.3036,13.5115,16.1615v24.2894h-7.8582v-24.5552c0-5.8258-3.0043-9.6247-7.7725-9.6247
			c-3.4427,0-6.1821,1.5931-9.8906,5.7448v28.4352h-7.8582v-60.2264h7.8582V313.2995z"/>
		<path fill="#404065" d="M292.1385,343.8595c-4.7738,3.1768-9.0988,4.6794-15.8108,4.6794
			c-12.3604,0-19.2534-10.1547-19.2534-21.1048c0-12.0098,7.5943-20.1397,18.5444-20.1397c10.5128,0,17.2212,7.157,17.2212,21.814
			h-27.9037c1.237,7.86,5.7392,11.9229,13.3335,11.9229c4.77,0,9.2722-1.7665,13.8688-4.7661V343.8595z M285.0721,323.899
			c-0.2639-6.0048-3.7141-9.7983-9.2761-9.7983c-6.0029,0-9.6228,3.5294-10.6825,9.7983H285.0721z"/>
		<path fill="#404065" d="M307.9417,310.9163c3.4427-2.4698,6.9759-3.6219,10.9503-3.6219c9.8906,0,17.1304,8.3938,17.1304,19.7833
			c0,13.4238-7.9486,21.4612-21.1954,21.4612c-5.2111,0-10.8597-1.1501-14.7436-3.0052v-58.0149h7.8582V310.9163z
			 M307.9417,339.8813c2.2965,0.707,5.6525,1.2369,7.9451,1.2369c7.0701,0,12.1002-5.3828,12.1002-12.8904
			c0-8.388-4.4156-13.8633-11.0407-13.8633c-3.2655,0-5.6486,1.0597-9.0046,4.0593V339.8813z"/>
		<path fill="#404065" d="M348.7375,368.0564h-8.7407l13.5144-28.7916l-15.3695-31.1747h8.9178l10.6864,22.3437l10.2414-22.3437
			h8.8311L348.7375,368.0564z"/>
		<path fill="#404065" d="M412.3236,318.3371c-4.4155-2.9128-8.5671-4.1514-11.4857-4.1514c-3.1788,0-5.2075,1.5026-5.2075,3.6216
			c0,1.7686,2.6509,3.8858,9.623,7.9451c6.5423,4.3289,8.9255,7.0644,8.9255,11.1293c0,6.9779-5.5695,11.6573-13.0732,11.6573
			c-4.853,0-8.6538-0.9709-13.7746-3.6219v-8.4785c5.1208,3.5332,9.8002,5.2111,12.979,5.2111
			c3.1824-0.1734,5.8295-1.6779,5.8295-4.5041c0-5.4751-18.5407-8.388-18.5407-19.0725c0-6.7137,5.1169-10.7787,13.0657-10.7787
			c3.7103,0,7.5074,1.0598,11.659,3.2713V318.3371z"/>
	</g>
	<g>
		<g>
			<path fill="#404065" d="M134.4127,193.71c-4.5165,5.3677-10.0547,8.6087-12.5274,8.6087c-1.7053,0-2.8969-1.3632-1.5347-7.9261
				l1.5347-7.2435l-0.1707,0.0828c-3.8338,5.1152-8.2654,8.865-11.249,11.1652c-3.1523,2.5585-5.8786,3.9216-8.2656,3.9216
				c-2.812,0-5.5392-3.4087-5.5392-10.2282c0-7.9223,3.6641-17.0418,9.886-22.4132c4.0045-3.4917,11.0775-6.5593,15.083-6.5593
				c1.1935,0,2.9836,0.083,5.1131,0.9352l2.7272-14.0592c0.7664-3.9197,0.511-4.2611-3.1533-4.2611h-2.7262l0.1697-2.1324
				c7.1588-0.7653,11.761-2.9827,13.0373-2.9827c0.7684,0,0.9391,0.6825,0.5987,2.3869
				c-4.0064,17.1287-7.5858,33.6616-10.5684,50.1926c-0.3404,1.8777-0.2554,2.7282,0.3411,2.7282
				c1.0219,0,3.75-1.8723,6.0492-4.1725L134.4127,193.71z M118.733,166.7813c-2.5565,0-4.4325,0.6825-5.8795,1.791
				c-5.7108,4.0894-9.1195,14.7399-9.1195,21.9006c0,4.3456,1.1924,6.3046,2.6423,6.3046c4.3468,0,13.72-10.4827,16.5319-15.6788
				l2.7282-12.1004c-1.2783-1.1935-4.3478-2.2171-6.8176-2.2171H118.733z"/>
			<path fill="#404065" d="M165.0925,192.6882c-7.4142,8.0129-13.8067,9.6305-17.8959,9.6305c-4.0064,0-9.4589-2.304-9.4589-12.4434
				c0-7.8412,3.5784-16.7893,10.3111-21.8987c3.5794-2.8129,8.0949-4.8586,11.76-4.8586c4.5163,0,7.4152,3.2373,7.4152,6.9024
				c0,8.3503-14.2336,12.9526-22.4991,14.9982c-0.0857,1.0219-0.0857,1.8721-0.0857,2.728c0,4.6004,1.364,9.5438,6.563,9.5438
				c3.5775,0,8.1806-2.3868,12.5265-6.4782L165.0925,192.6882z M156.6555,166.6964c-1.2783,0-2.6424,0.3394-3.5794,0.9371
				c-2.2154,1.3649-6.4763,5.2828-8.0099,14.7436c12.1861-3.239,15.8502-7.074,15.8502-11.0785
				c0-2.8979-1.7901-4.6022-4.1752-4.6022H156.6555z"/>
			<path fill="#404065" d="M264.2198,191.7229v-16.1199c0-10.9634-5.2527-15.6579-12.7149-15.6579
				c-4.9737,0-9.8568,3.4048-13.1722,6.7213v-31.0427c-3.5945,1.1049-9.1205,2.5791-13.5406,3.222v2.2117
				c6.0784,0.5524,6.2622,0.9199,6.2622,6.7232v43.9424c0,6.0616-1.0389,6.7666-5.9313,7.0777l0,0
				c-1.8214,0.0641-4.2006-0.8126-6.5952-3.5745c-2.3029-2.3983-4.1468-4.7908-7.4622-9.5854
				c-2.7621-4.1422-6.6319-10.3148-8.1986-13.2617c6.7251-3.0411,11.6988-7.9242,11.6988-15.8466
				c0-5.526-2.3944-9.672-6.1718-12.0683c-3.4077-2.3021-7.9223-3.1317-14.6465-3.1317h-22.847v2.5793
				c7.1871,0.6465,7.9223,0.9219,7.9223,8.8461v36.9402c0,7.83-0.7352,8.3824-8.2909,8.9347v2.5811h24.1365v-2.5811
				c-7.2784-0.5524-8.1071-1.1991-8.1071-8.9347v-14.6475h2.9479c4.6984,0,6.2631,1.103,7.8298,3.684
				c2.7641,4.5153,6.0805,10.2263,9.3045,14.7417c4.1468,5.9861,7.9223,7.3003,14.9237,7.6679
				c1.0143,0.0961,3.2249,0.0697,3.2249,0.0697h19.5296v-2.4c-5.528-0.5487-5.989-1.1935-5.989-7.091v-21.8307
				c2.5803-2.9486,6.0795-4.6984,9.5805-4.6984c6.1709,0,9.0291,3.7782,9.0291,11.3293v15.1998c0,5.99-0.739,6.5423-6.0822,7.091
				v2.4h19.4383v-2.4C264.9552,198.3538,264.2198,197.8051,264.2198,191.7229z M200.9326,169.4321
				c-2.3031,1.9326-5.3432,2.6716-9.9491,2.6716h-4.4223v-22.7545c0-2.4888,0.2763-3.5937,1.0134-4.0535
				c0.7373-0.5543,2.304-0.9221,4.9737-0.9221c6.9109,0,13.4503,3.686,13.4503,13.6333
				C205.9986,163.0747,204.5251,166.6663,200.9326,169.4321z"/>
			<path fill="#404065" d="M301.7125,202.3187c-1.3802,0-3.3184-0.8276-4.3289-1.7514c-1.1954-1.1972-1.7497-2.4868-2.2134-4.1441
				c-3.684,2.4868-8.1034,5.8955-10.8673,5.8955c-6.5384,0-11.0559-5.4355-11.0559-11.2406c0-4.4211,2.3982-7.2775,7.4625-9.027
				c5.5278-1.8403,12.2512-4.3308,14.2797-5.988v-1.565c0-6.7232-3.0429-10.4109-7.7376-10.4109
				c-1.7534,0-3.1334,0.6466-4.0535,1.7515c-1.1991,1.1972-1.9381,3.224-2.7639,5.988c-0.4639,1.4742-1.3839,2.1171-2.6696,2.1171
				c-1.6592,0-3.9632-1.7495-3.9632-3.8669c0-1.382,1.1049-2.3963,2.8544-3.6859c2.5793-1.842,8.4768-5.2507,13.7294-6.446
				c2.7602,0,5.5241,0.8277,7.549,2.4849c3.2239,2.7639,4.1479,6.4479,4.1479,11.331v17.042c0,4.1439,1.659,5.526,3.2239,5.526
				c1.1049,0,2.3943-0.5506,3.3145-1.103l0.9238,2.3943L301.7125,202.3187z M294.9891,179.1947
				c-1.9382,1.0161-6.3574,2.9506-8.2918,3.8705c-3.5898,1.6555-5.6183,3.3164-5.6183,6.7215c0,4.7945,3.684,7.0022,6.5385,7.0022
				c2.3982,0,5.6222-1.5628,7.3717-3.3126V179.1947z"/>
			<path fill="#404065" d="M360.6718,201.2138v-2.4c5.3432-0.5487,6.3576-1.0087,6.3576-7.4549V176.063
				c0-6.5404-2.304-10.6864-8.1071-10.6864c-3.3145,0-6.7271,1.9364-10.2263,4.7908c0.1848,1.1066,0.279,2.1173,0.279,3.8707
				v17.8695c0,5.8052,0.8259,6.3575,5.8938,6.9062v2.4h-19.7136v-2.4c5.7127-0.5487,6.5423-1.0087,6.5423-7.091v-15.7523
				c0-6.8174-2.3982-10.5939-8.1109-10.5939c-3.5898,0-7.2738,2.4868-10.0377,4.7908v21.5554c0,5.99,0.8257,6.5423,5.3393,7.091v2.4
				h-19.4344v-2.4c6.0786-0.5487,6.908-1.101,6.908-7.091v-18.9763c0-5.8956-0.279-6.3556-5.6183-7.1852v-2.1154
				c4.0536-0.739,8.6577-1.9382,12.8055-3.7782v7.4586c1.9345-1.2877,3.8688-2.9469,6.7232-4.6061
				c2.3945-1.4725,4.6078-2.5753,7.4586-2.5753c4.4269,0,8.3862,2.8525,10.3205,7.5509c2.6697-2.0248,5.3432-3.7782,7.5566-5.1584
				c2.0248-1.2897,4.3289-2.3924,6.9985-2.3924c7.0927,0,11.7005,5.064,11.7005,14.0932v17.6847
				c0,6.1708,0.6448,6.5423,5.9842,7.091v2.4H360.6718z"/>
		</g>
	</g>
	
		<rect x="374.7254" y="127.2847" transform="matrix(-0.7071 -0.7071 0.7071 -0.7071 566.0187 521.7224)" fill="#404065" width="32.6851" height="32.6865"/>
	<g>
		<g>
			<path fill="#404065" d="M177.7736,208.7894h2.3529v16.3499h-2.3529V208.7894z"/>
			<path fill="#404065" d="M205.3246,208.7894h2.2077v16.3499h-2.3529v-12.7188l-5.0227,6.3236h-0.4336l-5.0715-6.3236v12.7188
				h-2.3531v-16.3499h2.2596l5.3893,6.7193L205.3246,208.7894z"/>
			<path fill="#404065" d="M232.6568,208.7894h2.2086v16.3499h-2.3528v-12.7188l-5.0237,6.3236h-0.4317l-5.0725-6.3236v12.7188
				h-2.353v-16.3499h2.2596l5.3903,6.7193L232.6568,208.7894z"/>
			<path fill="#404065" d="M255.0381,208.548c2.5226,0,4.6248,0.7993,6.3027,2.4c1.6781,1.5989,2.517,3.6049,2.517,6.0145
				c0,2.4133-0.8464,4.408-2.5415,5.9879c-1.693,1.58-3.8292,2.37-6.4064,2.37c-2.4604,0-4.5099-0.79-6.1502-2.37
				c-1.6403-1.5798-2.4585-3.5595-2.4585-5.9407c0-2.4417,0.8257-4.4626,2.4774-6.0616
				C250.4284,209.3473,252.5154,208.548,255.0381,208.548z M255.1268,210.7802c-1.8684,0-3.405,0.5863-4.6078,1.7553
				c-1.203,1.1727-1.8044,2.666-1.8044,4.4852c0,1.7628,0.6033,3.2297,1.81,4.4024c1.2066,1.169,2.7168,1.7553,4.5323,1.7553
				c1.8214,0,3.341-0.5977,4.559-1.7911c1.2198-1.1935,1.8287-2.681,1.8287-4.4609c0-1.7327-0.6089-3.19-1.8287-4.3721
				C258.3978,211.3724,256.9008,210.7802,255.1268,210.7802z"/>
			<path fill="#404065" d="M280.8979,225.1393h-5.5204v-16.3499h4.2686c1.346,0,2.3982,0.1809,3.1523,0.5448
				c0.7541,0.362,1.3273,0.8616,1.7269,1.497c0.396,0.6373,0.5958,1.3725,0.5958,2.2059c0,1.6082-0.8296,2.7583-2.4849,3.452
				c1.1916,0.2262,2.1418,0.7184,2.8432,1.4763c0.705,0.756,1.0595,1.6609,1.0595,2.7148c0,0.8354-0.2148,1.58-0.6448,2.236
				c-0.4261,0.6543-1.0558,1.1898-1.8854,1.6026C283.1791,224.9338,282.1422,225.1393,280.8979,225.1393z M279.7289,210.8708
				h-1.9984v4.9171h1.5461c1.2404,0,2.1229-0.2377,2.6432-0.7147c0.5242-0.4749,0.7881-1.0916,0.7881-1.8495
				C282.7079,211.655,281.7124,210.8708,279.7289,210.8708z M279.9061,217.8693h-2.1756v5.1886h2.2926
				c1.2744,0,2.138-0.1,2.5905-0.2979c0.4562-0.1998,0.8221-0.511,1.0972-0.9313c0.2753-0.4224,0.4149-0.875,0.4149-1.3594
				c0-0.4996-0.1471-0.956-0.4375-1.3707c-0.294-0.4129-0.7051-0.722-1.2406-0.9257
				C281.9122,217.9711,281.0637,217.8693,279.9061,217.8693z"/>
			<path fill="#404065" d="M297.5194,208.7894h2.3528v16.3499h-2.3528V208.7894z"/>
			<path fill="#404065" d="M312.1084,208.7894h2.353v14.208h7.3302v2.1418h-9.6833V208.7894z"/>
			<path fill="#404065" d="M332.5081,208.7894h2.353v16.3499h-2.353V208.7894z"/>
			<path fill="#404065" d="M347.0934,208.7894h9.261v2.0814h-6.908v5.0075h6.6666v2.0816h-6.6666v5.098h7.1192v2.0814h-9.4722
				V208.7894z"/>
			<path fill="#404065" d="M367.7609,225.1393v-16.3499h4.0875c1.6516,0,2.96,0.4091,3.929,1.2292
				c0.9692,0.8182,1.4555,1.925,1.4555,3.322c0,0.952-0.2375,1.7741-0.7126,2.4679c-0.4751,0.6958-1.1539,1.2142-2.0399,1.5573
				c0.5203,0.3433,1.0255,0.8109,1.5233,1.4047c0.4977,0.5919,1.1991,1.6271,2.1003,3.1013
				c0.5693,0.9296,1.0257,1.6291,1.3688,2.0967l0.8672,1.1707h-2.7828l-0.7126-1.0784c-0.0226-0.0377-0.0716-0.1037-0.1396-0.1979
				l-0.4562-0.6448l-0.724-1.1953l-0.7844-1.2785c-0.4827-0.6711-0.9238-1.2047-1.3198-1.6024
				c-0.3997-0.396-0.7616-0.6825-1.0821-0.8597c-0.3205-0.1736-0.8636-0.2622-1.6215-0.2622h-0.6033v7.1192H367.7609z
				 M370.8115,210.7802h-0.6977v5.1584h0.8862c1.1804,0,1.9872-0.1018,2.4283-0.3035c0.4375-0.2037,0.7806-0.5091,1.0219-0.9182
				c0.2452-0.4091,0.3695-0.8767,0.3695-1.3989c0-0.5147-0.1357-0.9804-0.4072-1.3972c-0.2715-0.4166-0.656-0.7126-1.1501-0.8823
				C372.7722,210.8652,371.954,210.7802,370.8115,210.7802z"/>
		</g>
	</g>
	<rect fill="none" width="512" height="512"/>
</g>
</svg>
