<?xml version="1.0" encoding="utf-8"?>
<!-- Generator: Adobe Illustrator 18.1.1, SVG Export Plug-In . SVG Version: 6.00 Build 0)  -->
<!DOCTYPE svg PUBLIC "-//W3C//DTD SVG 1.1//EN" "http://www.w3.org/Graphics/SVG/1.1/DTD/svg11.dtd">
<svg version="1.1" id="XMLID_2_" xmlns="http://www.w3.org/2000/svg" xmlns:xlink="http://www.w3.org/1999/xlink" x="0px" y="0px"
	 viewBox="0 0 512 512" enable-background="new 0 0 512 512" xml:space="preserve">
<g id="Confederation-suisse">
	<g>
		<path fill="#404065" d="M118.5304,219.8734c0.8795,0.5575,1.908,0.8795,3.3027,0.8795c1.8456,0,3.3691-0.9439,3.3691-3.0672
			c0-2.9404-6.8651-3.3047-6.8651-7.2294c0-2.4031,2.1032-3.9045,4.7418-3.9045c0.7286,0,1.908,0.1067,2.9384,0.4931l-0.2355,1.3525
			c-0.6642-0.3663-1.7168-0.5575-2.7251-0.5575c-1.5437,0-3.2383,0.644-3.2383,2.5742c0,3.0049,6.8651,3.025,6.8651,7.4024
			c0,3.025-2.5943,4.2265-4.9128,4.2265c-1.4592,0-2.5943-0.2999-3.3893-0.644L118.5304,219.8734z"/>
		<path fill="#404065" d="M138.3105,212.2978c-0.7286-0.322-1.6081-0.5575-2.3387-0.5575c-2.6385,0-4.1198,1.91-4.1198,4.5687
			c0,2.4896,1.5014,4.5707,3.9689,4.5707c0.8594,0,1.6524-0.1932,2.4675-0.4931l0.1288,1.2659
			c-0.9238,0.322-1.7812,0.3864-2.8096,0.3864c-3.5201,0-5.2348-2.6828-5.2348-5.7279c0-3.3691,2.1676-5.7279,5.4079-5.7279
			c1.3082,0,2.2521,0.2999,2.6385,0.4287L138.3105,212.2978z"/>
		<path fill="#404065" d="M142.3861,205.6904h1.3525v6.9939h0.0443c0.5796-1.2015,1.8013-2.1032,3.4114-2.1032
			c2.9404,0,3.7334,1.9523,3.7334,4.6552v6.543h-1.3505v-6.5189c0-1.8878-0.3643-3.5181-2.5963-3.5181
			c-2.4031,0-3.2403,2.2743-3.2403,4.1843v5.8567h-1.3505v-16.093H142.3861z"/>
		<path fill="#404065" d="M167.232,221.7813h-1.6302l-2.9827-9.4613h-0.0443l-2.9827,9.4613h-1.6302l-3.5181-10.9426h1.4793
			l2.874,9.4634h0.0443l3.0471-9.4634h1.6302l2.8962,9.4634h0.0423l3.025-9.4634h1.3525L167.232,221.7813z"/>
		<path fill="#404065" d="M181.6927,221.4392c-0.9439,0.3864-2.1676,0.5998-3.1759,0.5998c-3.6247,0-4.9772-2.4453-4.9772-5.7279
			c0-3.347,1.8456-5.7279,4.6129-5.7279c3.0894,0,4.3553,2.4896,4.3553,5.4281v0.6863h-7.489c0,2.3185,1.2458,4.1842,3.6046,4.1842
			c0.9862,0,2.4252-0.4086,3.0693-0.8151V221.4392z M181.0265,215.5381c0-1.91-0.7729-3.7978-2.7875-3.7978
			c-1.9965,0-3.2182,1.9945-3.2182,3.7978H181.0265z"/>
		<path fill="#404065" d="M188.1049,207.9224h-1.3505v-1.8013h1.3505V207.9224z M186.7545,210.8407h1.3505v10.9426h-1.3505V210.8407
			z"/>
		<path fill="#404065" d="M192.1825,220.6462l6.5873-8.6483h-6.3297v-1.1573h7.8955V212l-6.5853,8.6241h6.5853v1.1593h-8.1511
			v-1.1371H192.1825z"/>
		<path fill="#404065" d="M211.7271,221.4392c-0.9439,0.3864-2.1676,0.5998-3.1759,0.5998c-3.6247,0-4.9772-2.4453-4.9772-5.7279
			c0-3.347,1.8456-5.7279,4.6129-5.7279c3.0894,0,4.3553,2.4896,4.3553,5.4281v0.6863h-7.489c0,2.3185,1.2458,4.1842,3.6046,4.1842
			c0.9862,0,2.4252-0.4086,3.0693-0.8151V221.4392z M211.061,215.5381c0-1.91-0.7728-3.7978-2.7875-3.7978
			c-1.9965,0-3.2182,1.9945-3.2182,3.7978H211.061z"/>
		<path fill="#404065" d="M216.7889,213.286c0-1.2015,0-1.6524-0.0845-2.4453h1.3505v2.1012h0.0423
			c0.4931-1.2217,1.4169-2.3588,2.8116-2.3588c0.322,0,0.7085,0.0644,0.9439,0.1288v1.4169
			c-0.2798-0.0865-0.644-0.1288-0.9862-0.1288c-2.1455,0-2.7251,2.4031-2.7251,4.3775v5.4079h-1.3525L216.7889,213.286
			L216.7889,213.286z"/>
		<path fill="#404065" d="M226.9587,207.9224h-1.3525v-1.8013h1.3525V207.9224z M225.6062,210.8407h1.3525v10.9426h-1.3525V210.8407
			z"/>
		<path fill="#404065" d="M231.2074,220.1954c0.8151,0.4086,1.8033,0.6863,2.8539,0.6863c1.2881,0,2.4232-0.7085,2.4232-1.9522
			c0-2.5943-5.257-2.1877-5.257-5.3637c0-2.1676,1.759-2.9827,3.5623-2.9827c0.5796,0,1.7389,0.1288,2.703,0.4951l-0.1288,1.1794
			c-0.7084-0.322-1.6725-0.5152-2.4232-0.5152c-1.3948,0-2.3608,0.4287-2.3608,1.8234c0,2.0388,5.3858,1.7812,5.3858,5.3637
			c0,2.3185-2.1676,3.1095-3.82,3.1095c-1.0506,0-2.1032-0.1288-3.0693-0.5132L231.2074,220.1954z"/>
		<path fill="#404065" d="M249.1841,212.2978c-0.7286-0.322-1.6081-0.5575-2.3387-0.5575c-2.6385,0-4.1198,1.91-4.1198,4.5687
			c0,2.4896,1.5014,4.5707,3.9689,4.5707c0.8594,0,1.6524-0.1932,2.4675-0.4931l0.1288,1.2659
			c-0.9218,0.322-1.7812,0.3864-2.8096,0.3864c-3.5201,0-5.2348-2.6828-5.2348-5.7279c0-3.3691,2.1676-5.7279,5.4079-5.7279
			c1.3082,0,2.2521,0.2999,2.6385,0.4287L249.1841,212.2978z"/>
		<path fill="#404065" d="M253.2597,205.6904h1.3525v6.9939h0.0423c0.5797-1.2015,1.8033-2.1032,3.4114-2.1032
			c2.9405,0,3.7335,1.9523,3.7335,4.6552v6.543h-1.3505v-6.5189c0-1.8878-0.3643-3.5181-2.5943-3.5181
			c-2.4031,0-3.2403,2.2743-3.2403,4.1843v5.8567h-1.3525v-16.093H253.2597z"/>
		<path fill="#404065" d="M274.2011,221.4392c-0.9439,0.3864-2.1676,0.5998-3.1759,0.5998c-3.6248,0-4.9772-2.4453-4.9772-5.7279
			c0-3.347,1.8456-5.7279,4.6129-5.7279c3.0894,0,4.3553,2.4896,4.3553,5.4281v0.6863h-7.489c0,2.3185,1.2458,4.1842,3.6046,4.1842
			c0.9862,0,2.4252-0.4086,3.0693-0.8151V221.4392z M273.5349,215.5381c0-1.91-0.7729-3.7978-2.7875-3.7978
			c-1.9965,0-3.2182,1.9945-3.2182,3.7978H273.5349z"/>
		<path fill="#404065" d="M286.4077,206.8074h7.336v1.2881h-5.8568v5.3435h5.5569v1.2881h-5.5569v5.7722h6.1143v1.2881h-7.5937
			L286.4077,206.8074z"/>
		<path fill="#404065" d="M300.009,207.9224h-1.3525v-1.8013h1.3525V207.9224z M298.6585,210.8407h1.3525v10.9426h-1.3525V210.8407z
			"/>
		<path fill="#404065" d="M313.7613,221.7813h-1.3525v-1.7369h-0.0423c-0.7306,1.3947-1.8456,1.9945-3.4114,1.9945
			c-3.0028,0-4.5043-2.4876-4.5043-5.7279c0-3.3249,1.2881-5.7279,4.5043-5.7279c2.1454,0,3.2182,1.5658,3.4114,2.1032h0.0423
			v-6.9959h1.3525V221.7813z M309.1705,220.8817c2.4031,0,3.2383-2.5762,3.2383-4.5707c0-1.9945-0.8372-4.5686-3.2383-4.5686
			c-2.5742,0-3.2403,2.4453-3.2403,4.5686C305.9301,218.4363,306.5943,220.8817,309.1705,220.8817z"/>
		<path fill="#404065" d="M327.3626,220.8817c0,3.0471-1.3746,5.5347-5.1282,5.5347c-1.437,0-2.7452-0.4086-3.3047-0.5796
			l0.1067-1.3505c0.8352,0.4307,2.0388,0.7729,3.2182,0.7729c3.4758,0,3.7757-2.5319,3.7757-5.6213h-0.0443
			c-0.7286,1.588-1.9301,2.1455-3.3248,2.1455c-3.498,0-4.613-3.0471-4.613-5.4703c0-3.3249,1.2881-5.7279,4.5043-5.7279
			c1.4592,0,2.4031,0.1932,3.4114,1.5014h0.0422v-1.2458h1.3525v10.041H327.3626z M322.6853,220.6241
			c2.4453,0,3.3248-2.3185,3.3248-4.3131c0-2.6385-0.7729-4.5686-3.2383-4.5686c-2.5742,0-3.2403,2.4453-3.2403,4.5686
			C319.5315,218.4565,320.3889,220.6241,322.6853,220.6241z"/>
		<path fill="#404065" d="M339.6356,221.4392c-0.9439,0.3864-2.1676,0.5998-3.1759,0.5998c-3.6247,0-4.9772-2.4453-4.9772-5.7279
			c0-3.347,1.8456-5.7279,4.6129-5.7279c3.0894,0,4.3553,2.4896,4.3553,5.4281v0.6863h-7.489c0,2.3185,1.2458,4.1842,3.6046,4.1842
			c0.9862,0,2.4252-0.4086,3.0692-0.8151V221.4392z M338.9694,215.5381c0-1.91-0.7729-3.7978-2.7875-3.7978
			c-1.9965,0-3.2202,1.9945-3.2202,3.7978H338.9694z"/>
		<path fill="#404065" d="M344.6974,213.4148c0-0.8372,0-1.6946-0.0846-2.5762h1.3082v1.9522h0.0443
			c0.4488-0.9862,1.2639-2.2099,3.5382-2.2099c2.705,0,3.7334,1.8013,3.7334,4.2044v6.9939h-1.3505v-6.6477
			c0-2.0589-0.7286-3.3893-2.5963-3.3893c-2.4675,0-3.2403,2.1676-3.2403,3.991v6.05h-1.3505v-8.3685H344.6974z"/>
		<path fill="#404065" d="M362.5675,210.5831c3.5402,0,5.106,2.7452,5.106,5.7279s-1.5658,5.7279-5.106,5.7279
			c-3.5382,0-5.106-2.7452-5.106-5.7279S359.0293,210.5831,362.5675,210.5831z M362.5675,220.8817
			c2.3608,0,3.6247-2.0388,3.6247-4.5707c0-2.5319-1.2639-4.5686-3.6247-4.5686c-2.3588,0-3.6248,2.0388-3.6248,4.5686
			C358.9427,218.8429,360.2087,220.8817,362.5675,220.8817z"/>
		<path fill="#404065" d="M371.0648,220.1954c0.8151,0.4086,1.8013,0.6863,2.8539,0.6863c1.2881,0,2.4232-0.7085,2.4232-1.9522
			c0-2.5943-5.257-2.1877-5.257-5.3637c0-2.1676,1.759-2.9827,3.5623-2.9827c0.5796,0,1.7389,0.1288,2.703,0.4951l-0.1288,1.1794
			c-0.7084-0.322-1.6725-0.5152-2.4232-0.5152c-1.3947,0-2.3608,0.4287-2.3608,1.8234c0,2.0388,5.3838,1.7812,5.3838,5.3637
			c0,2.3185-2.1676,3.1095-3.8179,3.1095c-1.0506,0-2.1032-0.1288-3.0673-0.5132L371.0648,220.1954z"/>
		<path fill="#404065" d="M381.0836,220.1954c0.8151,0.4086,1.8013,0.6863,2.8539,0.6863c1.2881,0,2.4232-0.7085,2.4232-1.9522
			c0-2.5943-5.257-2.1877-5.257-5.3637c0-2.1676,1.759-2.9827,3.5624-2.9827c0.5796,0,1.7389,0.1288,2.7029,0.4951l-0.1288,1.1794
			c-0.7085-0.322-1.6725-0.5152-2.4232-0.5152c-1.3947,0-2.3608,0.4287-2.3608,1.8234c0,2.0388,5.3838,1.7812,5.3838,5.3637
			c0,2.3185-2.1676,3.1095-3.818,3.1095c-1.0506,0-2.1032-0.1288-3.0672-0.5132L381.0836,220.1954z"/>
		<path fill="#404065" d="M399.2778,221.4392c-0.9439,0.3864-2.1676,0.5998-3.1759,0.5998c-3.6248,0-4.9773-2.4453-4.9773-5.7279
			c0-3.347,1.8456-5.7279,4.613-5.7279c3.0894,0,4.3553,2.4896,4.3553,5.4281v0.6863h-7.489c0,2.3185,1.2458,4.1842,3.6046,4.1842
			c0.9862,0,2.4252-0.4086,3.0692-0.8151V221.4392z M398.6116,215.5381c0-1.91-0.7729-3.7978-2.7875-3.7978
			c-1.9966,0-3.2182,1.9945-3.2182,3.7978H398.6116z"/>
		<path fill="#404065" d="M404.3396,213.4148c0-0.8372,0-1.6946-0.0845-2.5762h1.3082v1.9522h0.0422
			c0.4489-0.9862,1.2639-2.2099,3.5382-2.2099c2.705,0,3.7334,1.8013,3.7334,4.2044v6.9939h-1.3525v-6.6477
			c0-2.0589-0.7285-3.3893-2.5963-3.3893c-2.4675,0-3.2404,2.1676-3.2404,3.991v6.05h-1.3525v-8.3685H404.3396z"/>
		<path fill="#404065" d="M417.1057,220.1954c0.8151,0.4086,1.8033,0.6863,2.8539,0.6863c1.2881,0,2.4232-0.7085,2.4232-1.9522
			c0-2.5943-5.257-2.1877-5.257-5.3637c0-2.1676,1.759-2.9827,3.5623-2.9827c0.5796,0,1.7389,0.1288,2.703,0.4951l-0.1288,1.1794
			c-0.7084-0.322-1.6725-0.5152-2.4232-0.5152c-1.3947,0-2.3608,0.4287-2.3608,1.8234c0,2.0388,5.3838,1.7812,5.3838,5.3637
			c0,2.3185-2.1676,3.1095-3.818,3.1095c-1.0506,0-2.1032-0.1288-3.0673-0.5132L417.1057,220.1954z"/>
		<path fill="#404065" d="M435.0845,212.2978c-0.7286-0.322-1.6081-0.5575-2.3387-0.5575c-2.6385,0-4.1198,1.91-4.1198,4.5687
			c0,2.4896,1.5014,4.5707,3.9689,4.5707c0.8594,0,1.6524-0.1932,2.4675-0.4931l0.1288,1.2659
			c-0.9238,0.322-1.7812,0.3864-2.8096,0.3864c-3.5201,0-5.2348-2.6828-5.2348-5.7279c0-3.3691,2.1676-5.7279,5.4079-5.7279
			c1.3082,0,2.2521,0.2999,2.6385,0.4287L435.0845,212.2978z"/>
		<path fill="#404065" d="M439.16,205.6904h1.3505v6.9939h0.0443c0.5797-1.2015,1.8013-2.1032,3.4114-2.1032
			c2.9404,0,3.7334,1.9523,3.7334,4.6552v6.543h-1.3525v-6.5189c0-1.8878-0.3663-3.5181-2.5943-3.5181
			c-2.4031,0-3.2403,2.2743-3.2403,4.1843v5.8567h-1.3505v-16.093H439.16z"/>
		<path fill="#404065" d="M459.0468,220.0223h-0.0423c-0.5998,1.3082-2.1253,2.0166-3.4758,2.0166
			c-3.1095,0-3.6046-2.1032-3.6046-3.0894c0-3.667,3.9065-3.8381,6.7383-3.8381h0.2576v-0.5595
			c0-1.8677-0.6642-2.8096-2.4876-2.8096c-1.1371,0-2.2079,0.2576-3.2202,0.8997v-1.3082c0.8372-0.4086,2.2541-0.7507,3.2202-0.7507
			c2.7029,0,3.8401,1.2237,3.8401,4.0776v4.8283c0,0.8795,0,1.5437,0.1087,2.2944h-1.3324v-1.761H459.0468z M458.918,216.2687
			h-0.3844c-2.3387,0-5.1261,0.2375-5.1261,2.6406c0,1.437,1.0284,1.9744,2.2722,1.9744c3.1739,0,3.2383-2.7674,3.2383-3.9488
			V216.2687z"/>
		<path fill="#404065" d="M466.085,211.9979h-2.2079v-1.1573h2.2079v-0.793c0-2.2944,0.0865-4.6129,2.8982-4.6129
			c0.4267,0,1.0083,0.0644,1.2639,0.2154l-0.0865,1.1794c-0.2798-0.151-0.6863-0.2355-1.0728-0.2355
			c-1.8456,0-1.6504,1.9945-1.6504,3.3027v0.9439h2.4655V212h-2.4655v9.7834h-1.3545v-9.7854H466.085z"/>
		<path fill="#404065" d="M478.6981,211.9979h-2.4876v7.0824c0,0.9862,0.3663,1.8013,1.4612,1.8013
			c0.5132,0,0.8574-0.1067,1.2418-0.2576L479,221.739c-0.322,0.1288-0.9862,0.2999-1.6524,0.2999
			c-2.401,0-2.4876-1.6524-2.4876-3.6469v-6.3941h-2.1435v-1.1573h2.1435v-2.6386l1.3525-0.473v3.1095h2.4876v1.1593H478.6981z"/>
		<path fill="#404065" d="M129.0424,238.0735c-0.9439-0.4931-2.2964-0.644-3.347-0.644c-3.8824,0-6.0721,2.7472-6.0721,6.4585
			c0,3.7757,2.1253,6.4565,6.0721,6.4565c0.9862,0,2.4896-0.1288,3.347-0.644l0.0845,1.2881
			c-0.8151,0.4951-2.4876,0.644-3.4335,0.644c-4.7196,0-7.5514-3.1115-7.5514-7.7446c0-4.5485,2.9183-7.7446,7.5514-7.7446
			c0.8795,0,2.6607,0.151,3.4335,0.5575L129.0424,238.0735z"/>
		<path fill="#404065" d="M138.3307,240.1767c3.5402,0,5.1081,2.7452,5.1081,5.7279s-1.5658,5.7279-5.1081,5.7279
			c-3.5382,0-5.106-2.7452-5.106-5.7279S134.7925,240.1767,138.3307,240.1767z M138.3307,250.4753
			c2.3608,0,3.6247-2.0388,3.6247-4.5707c0-2.5319-1.2639-4.5687-3.6247-4.5687c-2.3588,0-3.6247,2.0388-3.6247,4.5687
			C134.7059,248.4366,135.9719,250.4753,138.3307,250.4753z"/>
		<path fill="#404065" d="M147.6632,243.0085c0-0.8372,0-1.6946-0.0845-2.5762h1.3082v1.9522h0.0443
			c0.4488-0.9862,1.2639-2.2099,3.5382-2.2099c2.705,0,3.7334,1.8013,3.7334,4.2044v6.9939h-1.3505v-6.6517
			c0-2.0589-0.7286-3.3893-2.5963-3.3893c-2.4675,0-3.2403,2.1676-3.2403,3.991v6.05h-1.3525V243.0085z"/>
		<path fill="#404065" d="M162.1884,241.5916h-2.2099v-1.1593h2.2099v-0.793c0-2.2944,0.0845-4.6129,2.8962-4.6129
			c0.4307,0,1.0083,0.0644,1.2659,0.2133l-0.0845,1.1814c-0.2798-0.151-0.6863-0.2355-1.0727-0.2355
			c-1.8436,0-1.6524,1.9945-1.6524,3.3027v0.9439h2.4675v1.1593h-2.4675v9.7834h-1.3505v-9.7834H162.1884z"/>
		<path fill="#404065" d="M177.4219,251.0308c-0.9439,0.3864-2.1676,0.5998-3.1759,0.5998c-3.6247,0-4.9772-2.4453-4.9772-5.7279
			c0-3.347,1.8456-5.7279,4.6129-5.7279c3.0894,0,4.3553,2.4896,4.3553,5.4281v0.6863h-7.489c0,2.3185,1.2458,4.1842,3.6046,4.1842
			c0.9862,0,2.4252-0.4086,3.0693-0.8151V251.0308z M176.7557,245.1318c0-1.91-0.7729-3.7978-2.7875-3.7978
			c-1.9965,0-3.2202,1.9945-3.2202,3.7978H176.7557z M174.5036,236.2058h1.6946l-2.705,3.0894h-0.9862L174.5036,236.2058z"/>
		<path fill="#404065" d="M191.1521,251.375h-1.3525v-1.7389h-0.0423c-0.7306,1.3947-1.8456,1.9945-3.4114,1.9945
			c-3.0028,0-4.5043-2.4876-4.5043-5.7279c0-3.3249,1.2881-5.7279,4.5043-5.7279c2.1455,0,3.2182,1.5658,3.4114,2.1032h0.0423
			v-6.9939h1.3525V251.375z M186.5592,250.4753c2.4031,0,3.2383-2.5762,3.2383-4.5707s-0.8373-4.5687-3.2383-4.5687
			c-2.5741,0-3.2403,2.4453-3.2403,4.5687C183.3189,248.028,183.9851,250.4753,186.5592,250.4753z"/>
		<path fill="#404065" d="M203.423,251.0308c-0.9439,0.3864-2.1676,0.5998-3.1759,0.5998c-3.6247,0-4.9772-2.4453-4.9772-5.7279
			c0-3.347,1.8456-5.7279,4.6129-5.7279c3.0894,0,4.3553,2.4896,4.3553,5.4281v0.6863h-7.489c0,2.3185,1.2458,4.1842,3.6046,4.1842
			c0.9862,0,2.4252-0.4086,3.0693-0.8151V251.0308z M202.7569,245.1318c0-1.91-0.7729-3.7978-2.7875-3.7978
			c-1.9965,0-3.2182,1.9945-3.2182,3.7978H202.7569z M200.5047,236.2058h1.6946l-2.703,3.0894h-0.9862L200.5047,236.2058z"/>
		<path fill="#404065" d="M208.4868,242.8777c0-1.2015,0-1.6524-0.0845-2.4453h1.3505v2.1032h0.0423
			c0.4931-1.2237,1.4169-2.3608,2.8116-2.3608c0.322,0,0.7084,0.0644,0.9439,0.1288v1.4169
			c-0.2798-0.0865-0.644-0.1288-0.9862-0.1288c-2.1455,0-2.7251,2.4031-2.7251,4.3775v5.4079h-1.3525L208.4868,242.8777
			L208.4868,242.8777z"/>
		<path fill="#404065" d="M223.5896,249.616h-0.0443c-0.5997,1.3082-2.1233,2.0166-3.4758,2.0166
			c-3.1095,0-3.6026-2.1032-3.6026-3.0894c0-3.667,3.9045-3.8381,6.7363-3.8381h0.2576v-0.5575
			c0-1.8677-0.6662-2.8096-2.4896-2.8096c-1.1371,0-2.2099,0.2576-3.2182,0.8996v-1.3082c0.8372-0.4086,2.2521-0.7507,3.2182-0.7507
			c2.703,0,3.8401,1.2237,3.8401,4.0776v4.8283c0,0.8795,0,1.5437,0.1067,2.2944h-1.3304v-1.7631H223.5896z M223.4608,245.8624
			h-0.3864c-2.3387,0-5.1282,0.2355-5.1282,2.6385c0,1.437,1.0305,1.9744,2.2743,1.9744c3.1739,0,3.2403-2.7674,3.2403-3.9488
			V245.8624z"/>
		<path fill="#404065" d="M234.4256,241.5916h-2.4896v7.0804c0,0.9862,0.3663,1.8013,1.4592,1.8013
			c0.5152,0,0.8594-0.1067,1.2458-0.2576l0.0845,1.115c-0.322,0.1288-0.9862,0.2999-1.6524,0.2999
			c-2.4031,0-2.4896-1.6524-2.4896-3.6469v-6.3941h-2.1455v-1.1593h2.1455v-2.6385l1.3505-0.473v3.1115h2.4896v1.1613H234.4256z"/>
		<path fill="#404065" d="M239.8737,237.514h-1.3525v-1.8013h1.3525V237.514z M238.5212,240.4323h1.3525v10.9427h-1.3525V240.4323z"
			/>
		<path fill="#404065" d="M249.2264,240.1767c3.5402,0,5.106,2.7452,5.106,5.7279s-1.5658,5.7279-5.106,5.7279
			c-3.5382,0-5.106-2.7452-5.106-5.7279C244.1204,242.922,245.6862,240.1767,249.2264,240.1767z M249.2264,250.4753
			c2.3608,0,3.6247-2.0388,3.6247-4.5707c0-2.5319-1.2639-4.5687-3.6247-4.5687c-2.3588,0-3.6248,2.0388-3.6248,4.5687
			C245.5997,248.4366,246.8656,250.4753,249.2264,250.4753z"/>
		<path fill="#404065" d="M258.559,243.0085c0-0.8372,0-1.6946-0.0845-2.5762h1.3082v1.9522h0.0423
			c0.4488-0.9862,1.2639-2.2099,3.5382-2.2099c2.705,0,3.7334,1.8013,3.7334,4.2044v6.9939h-1.3525v-6.6517
			c0-2.0589-0.7285-3.3893-2.5943-3.3893c-2.4675,0-3.2403,2.1676-3.2403,3.991v6.05h-1.3525v-8.3645H258.559z"/>
		<path fill="#404065" d="M278.7476,249.787c0.8151,0.4086,1.8013,0.6863,2.8539,0.6863c1.2881,0,2.4232-0.7085,2.4232-1.9523
			c0-2.5943-5.257-2.1877-5.257-5.3636c0-2.1676,1.7591-2.9827,3.5623-2.9827c0.5797,0,1.7389,0.1288,2.703,0.4931l-0.1288,1.1814
			c-0.7084-0.322-1.6725-0.5152-2.4232-0.5152c-1.3947,0-2.3608,0.4287-2.3608,1.8234c0,2.0388,5.3838,1.7812,5.3838,5.3637
			c0,2.3185-2.1676,3.1115-3.818,3.1115c-1.0506,0-2.1032-0.1288-3.0672-0.5132L278.7476,249.787z"/>
		<path fill="#404065" d="M298.1413,248.8008c0,0.8373,0,1.6946,0.0865,2.5742h-1.3102v-1.9523h-0.0422
			c-0.4508,0.9862-1.266,2.2079-3.5402,2.2079c-2.703,0-3.7334-1.8033-3.7334-4.2044v-6.9939h1.3505v6.6517
			c0,2.0609,0.7306,3.3913,2.5963,3.3913c2.4675,0,3.2383-2.1676,3.2383-3.991v-6.05h1.3525v8.3665H298.1413z"/>
		<path fill="#404065" d="M304.5555,237.514h-1.3505v-1.8013h1.3505V237.514z M303.2051,240.4323h1.3505v10.9427h-1.3505V240.4323z"
			/>
		<path fill="#404065" d="M308.8042,249.787c0.8151,0.4086,1.8013,0.6863,2.8539,0.6863c1.2881,0,2.4232-0.7085,2.4232-1.9523
			c0-2.5943-5.257-2.1877-5.257-5.3636c0-2.1676,1.759-2.9827,3.5623-2.9827c0.5797,0,1.7389,0.1288,2.703,0.4931l-0.1288,1.1814
			c-0.7085-0.322-1.6725-0.5152-2.4232-0.5152c-1.3947,0-2.3608,0.4287-2.3608,1.8234c0,2.0388,5.3858,1.7812,5.3858,5.3637
			c0,2.3185-2.1676,3.1115-3.8199,3.1115c-1.0506,0-2.1032-0.1288-3.0692-0.5132L308.8042,249.787z"/>
		<path fill="#404065" d="M318.8231,249.787c0.8151,0.4086,1.8033,0.6863,2.8539,0.6863c1.2881,0,2.4232-0.7085,2.4232-1.9523
			c0-2.5943-5.257-2.1877-5.257-5.3636c0-2.1676,1.759-2.9827,3.5623-2.9827c0.5796,0,1.7389,0.1288,2.703,0.4931l-0.1288,1.1814
			c-0.7084-0.322-1.6725-0.5152-2.4232-0.5152c-1.3947,0-2.3608,0.4287-2.3608,1.8234c0,2.0388,5.3858,1.7812,5.3858,5.3637
			c0,2.3185-2.1676,3.1115-3.8199,3.1115c-1.0506,0-2.1032-0.1288-3.0692-0.5132L318.8231,249.787z"/>
		<path fill="#404065" d="M337.0152,251.0308c-0.9439,0.3864-2.1676,0.5998-3.1759,0.5998c-3.6248,0-4.9773-2.4453-4.9773-5.7279
			c0-3.347,1.8456-5.7279,4.613-5.7279c3.0894,0,4.3553,2.4896,4.3553,5.4281v0.6863h-7.489c0,2.3185,1.2458,4.1842,3.6046,4.1842
			c0.9862,0,2.4252-0.4086,3.0692-0.8151V251.0308z M336.351,245.1318c0-1.91-0.7729-3.7978-2.7875-3.7978
			c-1.9966,0-3.2202,1.9945-3.2202,3.7978H336.351z"/>
		<path fill="#404065" d="M129.0424,267.6652c-0.9439-0.4931-2.2964-0.644-3.347-0.644c-3.8824,0-6.0721,2.7472-6.0721,6.4585
			c0,3.7757,2.1253,6.4565,6.0721,6.4565c0.9862,0,2.4896-0.1288,3.347-0.644l0.0845,1.2881
			c-0.8151,0.4951-2.4876,0.644-3.4335,0.644c-4.7196,0-7.5514-3.1095-7.5514-7.7446c0-4.5486,2.9183-7.7446,7.5514-7.7446
			c0.8795,0,2.6607,0.1489,3.4335,0.5575L129.0424,267.6652z"/>
		<path fill="#404065" d="M138.3307,269.7684c3.5402,0,5.1081,2.7452,5.1081,5.7279c0,2.9827-1.5658,5.7279-5.1081,5.7279
			c-3.5382,0-5.106-2.7452-5.106-5.7279C133.2246,272.5136,134.7925,269.7684,138.3307,269.7684z M138.3307,280.067
			c2.3608,0,3.6247-2.0388,3.6247-4.5707s-1.2639-4.5687-3.6247-4.5687c-2.3588,0-3.6247,2.0388-3.6247,4.5687
			C134.7059,278.0282,135.9719,280.067,138.3307,280.067z"/>
		<path fill="#404065" d="M147.6632,272.6001c0-0.8372,0-1.6946-0.0845-2.5761h1.3082v1.9522h0.0443
			c0.4488-0.9862,1.2639-2.2099,3.5382-2.2099c2.705,0,3.7334,1.8013,3.7334,4.2044v6.9979h-1.3505v-6.6517
			c0-2.0589-0.7286-3.3893-2.5963-3.3893c-2.4675,0-3.2403,2.1676-3.2403,3.9911v6.05h-1.3525V272.6001z"/>
		<path fill="#404065" d="M162.1884,271.1833h-2.2099v-1.1593h2.2099v-0.793c0-2.2944,0.0845-4.6129,2.8962-4.6129
			c0.4307,0,1.0083,0.0644,1.2659,0.2153l-0.0845,1.1794c-0.2798-0.1509-0.6863-0.2355-1.0727-0.2355
			c-1.8436,0-1.6524,1.9945-1.6524,3.3027v0.9439h2.4675v1.1593h-2.4675v9.7854h-1.3505v-9.7854H162.1884z"/>
		<path fill="#404065" d="M177.4219,280.6245c-0.9439,0.3864-2.1676,0.5998-3.1759,0.5998c-3.6247,0-4.9772-2.4453-4.9772-5.7279
			c0-3.347,1.8456-5.7279,4.6129-5.7279c3.0894,0,4.3553,2.4896,4.3553,5.428v0.6863h-7.489c0,2.3185,1.2458,4.1843,3.6046,4.1843
			c0.9862,0,2.4252-0.4086,3.0693-0.8151V280.6245z M176.7557,274.7255c0-1.91-0.7729-3.7978-2.7875-3.7978
			c-1.9965,0-3.2202,1.9945-3.2202,3.7978H176.7557z"/>
		<path fill="#404065" d="M191.1521,280.9687h-1.3525v-1.7389h-0.0423c-0.7306,1.3947-1.8456,1.9945-3.4114,1.9945
			c-3.0028,0-4.5043-2.4876-4.5043-5.7279c0-3.3249,1.2881-5.7279,4.5043-5.7279c2.1455,0,3.2182,1.5658,3.4114,2.1032h0.0423
			v-6.9939h1.3525V280.9687z M186.5592,280.067c2.4031,0,3.2383-2.5762,3.2383-4.5707s-0.8373-4.5687-3.2383-4.5687
			c-2.5741,0-3.2403,2.4453-3.2403,4.5687C183.3189,277.6216,183.9851,280.067,186.5592,280.067z"/>
		<path fill="#404065" d="M203.423,280.6245c-0.9439,0.3864-2.1676,0.5998-3.1759,0.5998c-3.6247,0-4.9772-2.4453-4.9772-5.7279
			c0-3.347,1.8456-5.7279,4.6129-5.7279c3.0894,0,4.3553,2.4896,4.3553,5.428v0.6863h-7.489c0,2.3185,1.2458,4.1843,3.6046,4.1843
			c0.9862,0,2.4252-0.4086,3.0693-0.8151V280.6245z M202.7569,274.7255c0-1.91-0.7729-3.7978-2.7875-3.7978
			c-1.9965,0-3.2182,1.9945-3.2182,3.7978H202.7569z"/>
		<path fill="#404065" d="M208.4868,272.4713c0-1.2015,0-1.6524-0.0845-2.4453h1.3505v2.1032h0.0423
			c0.4931-1.2216,1.4169-2.3588,2.8116-2.3588c0.322,0,0.7084,0.0644,0.9439,0.1288v1.4169
			c-0.2798-0.0865-0.644-0.1288-0.9862-0.1288c-2.1455,0-2.7251,2.4031-2.7251,4.3774v5.4039h-1.3525L208.4868,272.4713
			L208.4868,272.4713z"/>
		<path fill="#404065" d="M223.5896,279.2096h-0.0443c-0.5997,1.3082-2.1233,2.0166-3.4758,2.0166
			c-3.1095,0-3.6026-2.1032-3.6026-3.0894c0-3.667,3.9045-3.8381,6.7363-3.8381h0.2576v-0.5575
			c0-1.8677-0.6662-2.8096-2.4896-2.8096c-1.1371,0-2.2099,0.2576-3.2182,0.8996v-1.3082c0.8372-0.4086,2.2521-0.7507,3.2182-0.7507
			c2.703,0,3.8401,1.2237,3.8401,4.0756v4.8283c0,0.8795,0,1.5437,0.1067,2.2944h-1.3304v-1.761H223.5896z M223.4608,275.454
			h-0.3864c-2.3387,0-5.1282,0.2375-5.1282,2.6406c0,1.437,1.0305,1.9744,2.2743,1.9744c3.1739,0,3.2403-2.7674,3.2403-3.9488
			V275.454z"/>
		<path fill="#404065" d="M228.6956,279.8315l6.5873-8.6483h-6.3297v-1.1593h7.8955v1.1593l-6.5853,8.6241h6.5853v1.1613h-8.1511
			v-1.1371H228.6956z"/>
		<path fill="#404065" d="M242.2547,267.1077h-1.3525v-1.8013h1.3525V267.1077z M240.9042,270.026h1.3525v10.9427h-1.3525V270.026z"
			/>
		<path fill="#404065" d="M251.6073,269.7684c3.5402,0,5.106,2.7452,5.106,5.7279c0,2.9827-1.5658,5.7279-5.106,5.7279
			c-3.5382,0-5.106-2.7452-5.106-5.7279C246.5013,272.5136,248.0692,269.7684,251.6073,269.7684z M251.6073,280.067
			c2.3608,0,3.6248-2.0388,3.6248-4.5707s-1.2639-4.5687-3.6248-4.5687c-2.3588,0-3.6247,2.0388-3.6247,4.5687
			C247.9826,278.0282,249.2486,280.067,251.6073,280.067z"/>
		<path fill="#404065" d="M260.9399,272.6001c0-0.8372,0-1.6946-0.0845-2.5761h1.3082v1.9522h0.0423
			c0.4488-0.9862,1.2639-2.2099,3.5382-2.2099c2.705,0,3.7334,1.8013,3.7334,4.2044v6.9979h-1.3525v-6.6517
			c0-2.0589-0.7286-3.3893-2.5943-3.3893c-2.4675,0-3.2404,2.1676-3.2404,3.9911v6.05h-1.3525v-8.3685H260.9399z"/>
		<path fill="#404065" d="M281.8813,280.6245c-0.9439,0.3864-2.1676,0.5998-3.1759,0.5998c-3.6248,0-4.9772-2.4453-4.9772-5.7279
			c0-3.347,1.8456-5.7279,4.6129-5.7279c3.0894,0,4.3553,2.4896,4.3553,5.428v0.6863h-7.489c0,2.3185,1.2458,4.1843,3.6046,4.1843
			c0.9862,0,2.4252-0.4086,3.0692-0.8151V280.6245z M281.2151,274.7255c0-1.91-0.7729-3.7978-2.7875-3.7978
			c-1.9965,0-3.2202,1.9945-3.2202,3.7978H281.2151z"/>
		<path fill="#404065" d="M294.108,279.0587c0.8795,0.5575,1.908,0.8795,3.3027,0.8795c1.8456,0,3.3691-0.9439,3.3691-3.0672
			c0-2.9405-6.8651-3.3047-6.8651-7.2314c0-2.4031,2.1032-3.9045,4.7418-3.9045c0.7285,0,1.908,0.1067,2.9384,0.4931l-0.2355,1.3525
			c-0.6662-0.3663-1.7168-0.5575-2.7251-0.5575c-1.5437,0-3.2383,0.644-3.2383,2.5742c0,3.0049,6.8651,3.025,6.8651,7.4024
			c0,3.025-2.5943,4.2265-4.9128,4.2265c-1.4592,0-2.5963-0.2999-3.3893-0.644L294.108,279.0587z"/>
		<path fill="#404065" d="M310.5652,280.9687h-1.588l-3.7113-10.9427h1.4813l3.025,9.4634h0.0423l3.1759-9.4634h1.4149
			L310.5652,280.9687z"/>
		<path fill="#404065" d="M319.3181,267.1077h-1.3505v-1.8013h1.3505V267.1077z M317.9657,270.026h1.3505v10.9427h-1.3505V270.026z"
			/>
		<path fill="#404065" d="M323.3937,279.8315l6.5873-8.6483h-6.3297v-1.1593h7.8955v1.1593l-6.5853,8.6241h6.5853v1.1613h-8.1511
			v-1.1371H323.3937z"/>
		<path fill="#404065" d="M334.592,279.8315l6.5873-8.6483h-6.3297v-1.1593h7.8955v1.1593l-6.5853,8.6241h6.5853v1.1613h-8.1511
			v-1.1371H334.592z"/>
		<path fill="#404065" d="M354.1366,280.6245c-0.9439,0.3864-2.1676,0.5998-3.1759,0.5998c-3.6247,0-4.9772-2.4453-4.9772-5.7279
			c0-3.347,1.8456-5.7279,4.613-5.7279c3.0894,0,4.3553,2.4896,4.3553,5.428v0.6863h-7.489c0,2.3185,1.2458,4.1843,3.6046,4.1843
			c0.9862,0,2.4252-0.4086,3.0692-0.8151V280.6245z M353.4704,274.7255c0-1.91-0.7728-3.7978-2.7875-3.7978
			c-1.9965,0-3.2182,1.9945-3.2182,3.7978H353.4704z"/>
		<path fill="#404065" d="M359.2003,272.4713c0-1.2015,0-1.6524-0.0845-2.4453h1.3505v2.1032h0.0422
			c0.4931-1.2216,1.4169-2.3588,2.8116-2.3588c0.3221,0,0.7085,0.0644,0.9439,0.1288v1.4169
			c-0.2798-0.0865-0.644-0.1288-0.9862-0.1288c-2.1454,0-2.7251,2.4031-2.7251,4.3774v5.4039h-1.3505v-8.4973H359.2003z"/>
		<path fill="#404065" d="M374.3031,279.2096h-0.0443c-0.5998,1.3082-2.1233,2.0166-3.4758,2.0166
			c-3.1095,0-3.6026-2.1032-3.6026-3.0894c0-3.667,3.9045-3.8381,6.7363-3.8381h0.2576v-0.5575
			c0-1.8677-0.6662-2.8096-2.4896-2.8096c-1.1371,0-2.2099,0.2576-3.2182,0.8996v-1.3082c0.8372-0.4086,2.2521-0.7507,3.2182-0.7507
			c2.703,0,3.8401,1.2237,3.8401,4.0756v4.8283c0,0.8795,0,1.5437,0.1067,2.2944h-1.3303v-1.761H374.3031z M374.1743,275.454
			h-0.3864c-2.3387,0-5.1282,0.2375-5.1282,2.6406c0,1.437,1.0305,1.9744,2.2743,1.9744c3.1739,0,3.2403-2.7674,3.2403-3.9488
			V275.454z"/>
		<path fill="#404065" d="M129.0424,297.2568c-0.9439-0.4931-2.2964-0.644-3.347-0.644c-3.8824,0-6.0721,2.7473-6.0721,6.4585
			c0,3.7757,2.1253,6.4565,6.0721,6.4565c0.9862,0,2.4896-0.1288,3.347-0.644l0.0845,1.2881
			c-0.8151,0.4951-2.4876,0.644-3.4335,0.644c-4.7196,0-7.5514-3.1095-7.5514-7.7446c0-4.5486,2.9183-7.7446,7.5514-7.7446
			c0.8795,0,2.6607,0.149,3.4335,0.5575L129.0424,297.2568z"/>
		<path fill="#404065" d="M138.3307,299.36c3.5402,0,5.1081,2.7452,5.1081,5.7279c0,2.9827-1.5658,5.7279-5.1081,5.7279
			c-3.5382,0-5.106-2.7452-5.106-5.7279C133.2246,302.1053,134.7925,299.36,138.3307,299.36z M138.3307,309.6587
			c2.3608,0,3.6247-2.0388,3.6247-4.5707c0-2.5319-1.2639-4.5687-3.6247-4.5687c-2.3588,0-3.6247,2.0388-3.6247,4.5687
			C134.7059,307.6198,135.9719,309.6587,138.3307,309.6587z"/>
		<path fill="#404065" d="M147.6632,302.1918c0-0.8372,0-1.6946-0.0845-2.5762h1.3082v1.9522h0.0443
			c0.4488-0.9862,1.2639-2.2098,3.5382-2.2098c2.705,0,3.7334,1.8033,3.7334,4.2044v6.9939h-1.3505v-6.6517
			c0-2.0589-0.7286-3.3893-2.5963-3.3893c-2.4675,0-3.2403,2.1676-3.2403,3.989v6.05h-1.3525V302.1918z"/>
		<path fill="#404065" d="M162.1884,300.7749h-2.2099v-1.1593h2.2099v-0.793c0-2.2944,0.0845-4.6129,2.8962-4.6129
			c0.4307,0,1.0083,0.0644,1.2659,0.2154l-0.0845,1.1794c-0.2798-0.1509-0.6863-0.2355-1.0727-0.2355
			c-1.8436,0-1.6524,1.9945-1.6524,3.3027v0.9439h2.4675v1.1593h-2.4675v9.7834h-1.3505v-9.7834H162.1884z"/>
		<path fill="#404065" d="M177.4219,310.2162c-0.9439,0.3864-2.1676,0.5998-3.1759,0.5998c-3.6247,0-4.9772-2.4453-4.9772-5.7279
			c0-3.347,1.8456-5.7279,4.6129-5.7279c3.0894,0,4.3553,2.4896,4.3553,5.428v0.6863h-7.489c0,2.3165,1.2458,4.1842,3.6046,4.1842
			c0.9862,0,2.4252-0.4066,3.0693-0.8151V310.2162z M176.7557,304.3151c0-1.91-0.7729-3.7978-2.7875-3.7978
			c-1.9965,0-3.2202,1.9945-3.2202,3.7978H176.7557z"/>
		<path fill="#404065" d="M191.1521,310.5603h-1.3525v-1.7389h-0.0423c-0.7306,1.3948-1.8456,1.9945-3.4114,1.9945
			c-3.0028,0-4.5043-2.4876-4.5043-5.7279c0-3.3249,1.2881-5.7279,4.5043-5.7279c2.1455,0,3.2182,1.5658,3.4114,2.1032h0.0423
			v-6.9939h1.3525V310.5603z M186.5592,309.6587c2.4031,0,3.2383-2.5762,3.2383-4.5707c0-1.9945-0.8373-4.5687-3.2383-4.5687
			c-2.5741,0-3.2403,2.4453-3.2403,4.5687C183.3189,307.2133,183.9851,309.6587,186.5592,309.6587z"/>
		<path fill="#404065" d="M203.423,310.2162c-0.9439,0.3864-2.1676,0.5998-3.1759,0.5998c-3.6247,0-4.9772-2.4453-4.9772-5.7279
			c0-3.347,1.8456-5.7279,4.6129-5.7279c3.0894,0,4.3553,2.4896,4.3553,5.428v0.6863h-7.489c0,2.3165,1.2458,4.1842,3.6046,4.1842
			c0.9862,0,2.4252-0.4066,3.0693-0.8151V310.2162z M202.7569,304.3151c0-1.91-0.7729-3.7978-2.7875-3.7978
			c-1.9965,0-3.2182,1.9945-3.2182,3.7978H202.7569z"/>
		<path fill="#404065" d="M208.4868,302.063c0-1.2015,0-1.6524-0.0845-2.4453h1.3505v2.1032h0.0423
			c0.4931-1.2216,1.4169-2.3588,2.8116-2.3588c0.322,0,0.7084,0.0644,0.9439,0.1288v1.4169
			c-0.2798-0.0865-0.644-0.1288-0.9862-0.1288c-2.1455,0-2.7251,2.4031-2.7251,4.3774v5.4079h-1.3525L208.4868,302.063
			L208.4868,302.063z"/>
		<path fill="#404065" d="M223.5896,308.7993h-0.0443c-0.5997,1.3082-2.1233,2.0166-3.4758,2.0166
			c-3.1095,0-3.6026-2.1032-3.6026-3.0894c0-3.667,3.9045-3.8401,6.7363-3.8401h0.2576v-0.5575
			c0-1.8657-0.6662-2.8096-2.4896-2.8096c-1.1371,0-2.2099,0.2576-3.2182,0.8996v-1.3082c0.8372-0.4086,2.2521-0.7507,3.2182-0.7507
			c2.703,0,3.8401,1.2237,3.8401,4.0776v4.8283c0,0.8795,0,1.5437,0.1067,2.2944h-1.3304v-1.761H223.5896z M223.4608,305.0457
			h-0.3864c-2.3387,0-5.1282,0.2375-5.1282,2.6406c0,1.437,1.0305,1.9744,2.2743,1.9744c3.1739,0,3.2403-2.7673,3.2403-3.9488
			V305.0457z"/>
		<path fill="#404065" d="M228.6956,309.4232l6.5873-8.6483h-6.3297v-1.1593h7.8955v1.1593l-6.5853,8.6241h6.5853v1.1593h-8.1511
			v-1.1351H228.6956z"/>
		<path fill="#404065" d="M242.2547,296.6993h-1.3525v-1.8013h1.3525V296.6993z M240.9042,299.6176h1.3525v10.9427h-1.3525V299.6176
			z"/>
		<path fill="#404065" d="M255.8761,307.9841c0,0.8372,0,1.6946,0.0865,2.5742h-1.3102v-1.9522h-0.0423
			c-0.4508,0.9862-1.2659,2.2079-3.5402,2.2079c-2.703,0-3.7334-1.8013-3.7334-4.2044v-6.9939h1.3525v6.6517
			c0,2.0609,0.7306,3.3913,2.5963,3.3913c2.4675,0,3.2383-2.1676,3.2383-3.9911v-6.05h1.3505v8.3665H255.8761z"/>
		<path fill="#404065" d="M260.9399,302.1918c0-0.8372,0-1.6946-0.0845-2.5762h1.3082v1.9522h0.0423
			c0.4488-0.9862,1.2639-2.2098,3.5382-2.2098c2.705,0,3.7334,1.8033,3.7334,4.2044v6.9939h-1.3525v-6.6517
			c0-2.0589-0.7286-3.3893-2.5943-3.3893c-2.4675,0-3.2404,2.1676-3.2404,3.989v6.05h-1.3525v-8.3625H260.9399z"/>
		<path fill="#404065" d="M281.1286,308.9724c0.8151,0.4085,1.8013,0.6863,2.8539,0.6863c1.2881,0,2.4232-0.7085,2.4232-1.9523
			c0-2.5963-5.257-2.1877-5.257-5.3636c0-2.1676,1.7591-2.9827,3.5623-2.9827c0.5797,0,1.7389,0.1288,2.703,0.4931l-0.1288,1.1794
			c-0.7084-0.322-1.6725-0.5152-2.4232-0.5152c-1.3947,0-2.3608,0.4287-2.3608,1.8234c0,2.0388,5.3838,1.7812,5.3838,5.3636
			c0,2.3185-2.1676,3.1095-3.818,3.1095c-1.0506,0-2.1032-0.1288-3.0672-0.5132L281.1286,308.9724z"/>
		<path fill="#404065" d="M295.7805,310.5603h-1.588l-3.7113-10.9427h1.4813l3.025,9.4634h0.0423l3.1759-9.4634h1.4149
			L295.7805,310.5603z"/>
		<path fill="#404065" d="M304.5354,296.6993h-1.3505v-1.8013h1.3505V296.6993z M303.1829,299.6176h1.3505v10.9427h-1.3505V299.6176
			z"/>
		<path fill="#404065" d="M308.611,309.4232l6.5873-8.6483h-6.3297v-1.1593h7.8955v1.1593l-6.5853,8.6241h6.5853v1.1593h-8.1511
			v-1.1351H308.611z"/>
		<path fill="#404065" d="M320.8176,302.063c0-1.2015,0-1.6524-0.0846-2.4453h1.3525v2.1032h0.0423
			c0.4931-1.2216,1.4169-2.3588,2.8116-2.3588c0.322,0,0.7085,0.0644,0.9439,0.1288v1.4169
			c-0.2798-0.0865-0.644-0.1288-0.9862-0.1288c-2.1454,0-2.7251,2.4031-2.7251,4.3774v5.4079h-1.3525v-8.5013H320.8176z"/>
		<path fill="#404065" d="M335.9203,308.7993h-0.0422c-0.5998,1.3082-2.1233,2.0166-3.4758,2.0166
			c-3.1115,0-3.6026-2.1032-3.6026-3.0894c0-3.667,3.9045-3.8401,6.7362-3.8401h0.2576v-0.5575
			c0-1.8657-0.6662-2.8096-2.4896-2.8096c-1.1371,0-2.2099,0.2576-3.2182,0.8996v-1.3082c0.8372-0.4086,2.2521-0.7507,3.2182-0.7507
			c2.7029,0,3.8401,1.2237,3.8401,4.0776v4.8283c0,0.8795,0,1.5437,0.1067,2.2944h-1.3304L335.9203,308.7993L335.9203,308.7993z
			 M335.7935,305.0457h-0.3864c-2.3387,0-5.1282,0.2375-5.1282,2.6406c0,1.437,1.0305,1.9744,2.2743,1.9744
			c3.1739,0,3.2403-2.7673,3.2403-3.9488V305.0457z"/>
	</g>
	<path fill="#404065" d="M93.8032,206.1533c0,0-11.3472-4.9692-30.3442-4.9692h-0.0061c-18.9993,0-30.3484,4.9692-30.3484,4.9692
		s-1.0164,22.004,3.2906,34.4461c7.6078,21.8772,27.0537,28.0217,27.0537,28.0217h0.006h0.0061c0,0,19.4419-6.1445,27.0537-28.0217
		C94.8218,228.1572,93.8032,206.1533,93.8032,206.1533z M83.6213,237.2463H69.4767v14.1448H57.3525v-14.1448H43.2079v-12.124
		h14.1447v-14.1407h12.1221l0.0021,14.1407h14.1447V237.2463z"/>
	<rect fill="none" width="512" height="512"/>
</g>
</svg>
