<?xml version="1.0" encoding="utf-8"?>
<!-- Generator: Adobe Illustrator 18.1.1, SVG Export Plug-In . SVG Version: 6.00 Build 0)  -->
<!DOCTYPE svg PUBLIC "-//W3C//DTD SVG 1.1//EN" "http://www.w3.org/Graphics/SVG/1.1/DTD/svg11.dtd">
<svg version="1.1" id="XMLID_1_" xmlns="http://www.w3.org/2000/svg" xmlns:xlink="http://www.w3.org/1999/xlink" x="0px" y="0px"
	 viewBox="0 0 512 512" enable-background="new 0 0 512 512" xml:space="preserve">
<g id="Redbull">
	<path fill="#404065" d="M325.0163,193.6749h-13.5508v26.5965c0,8.6691,9.2583,16.0757,20.7049,16.0757
		c11.4466,0,21.4624-7.4908,21.4624-16.0757v-26.5965h-13.5508v23.9874c0,3.9558-3.3667,7.1541-7.4908,7.1541
		c-4.2083,0-7.575-3.1983-7.575-7.2383V193.6749z"/>
	<path fill="#404065" d="M110.0558,179.03v55.213H96v-66.5755h25.334c11.0258,0,20.0316,8.9216,20.0316,19.7791
		c0,9.2583-6.4808,17.0016-15.2341,19.0216l19.5266,27.7749H128.909l-14.0558-21.7991v-15.9074h3.2825
		c5.2183,0,9.4266-3.8716,9.4266-8.6691c0-4.7975-3.9558-8.8374-9.1741-8.8374H110.0558z"/>
	<path fill="#404065" d="M239.4193,234.243v-69.7738H226.121v32.909c-3.535-3.4508-7.9958-5.3866-13.1299-5.3866
		c-10.9416,0-19.8632,9.6791-19.8632,21.7149c0,11.9516,8.9216,21.7149,19.8632,21.7149c5.2183,0,10.0999-2.02,13.1299-5.7233v4.545
		H239.4193z M216.7785,224.0589c-5.3866,0-9.7633-4.7975-9.7633-10.6891c0-5.8916,4.3766-10.6891,9.7633-10.6891
		c5.3866,0,9.7633,4.7975,9.7633,10.6891C226.4577,219.2614,222.081,224.0589,216.7785,224.0589"/>
	<path fill="#404065" d="M295.3056,198.0516c3.6191-3.3667,5.8916-7.9116,5.8916-12.8774c0-4.545-1.7675-8.6691-4.7975-11.9516
		c-3.1983-3.4508-8.7533-5.555-16.3282-5.555h-22.6407v66.5755h29.2898c11.1941-0.1683,20.2841-8.6691,20.2841-19.1057
		C306.9206,207.5623,304.2272,202.1757,295.3056,198.0516 M284.0273,222.7122h-12.7091v-43.0931h8.9216
		c3.8716,0,7.1541,2.9458,7.1541,6.9016s-3.2825,7.1541-7.1541,7.1541h-4.7133v12.0358h8.6691c4.7133,0,8.2483,3.8716,8.2483,8.585
		C292.2756,219.0089,289.1615,222.4598,284.0273,222.7122"/>
	<path fill="#404065" d="M157.4413,208.7407c0-4.4608,3.6192-8.08,8.08-8.08c4.4608,0,8.08,3.6191,8.08,8.08H157.4413z
		 M186.7312,216.3156c0.0842-0.9258,0.1683-1.8517,0.1683-2.7775c0.1683-14.3924-9.2583-22.2199-21.3782-22.2199
		s-21.9674,9.9316-21.9674,22.2199c0,12.2883,9.8474,22.2199,21.9674,22.2199c9.2583,0,16.4966-4.2083,20.1999-10.7733
		l-10.7733-4.9658c-1.3467,2.9458-4.545,5.05-8.3325,5.05c-4.9658,0-9.09-3.7875-9.09-8.7533
		C157.8622,216.3156,186.7312,216.3156,186.7312,216.3156"/>
	<rect x="359.8611" y="164.4692" fill="#404065" width="13.2983" height="69.7738"/>
	<rect x="382.5018" y="164.4692" fill="#404065" width="13.2983" height="69.7738"/>
	<g>
		<path fill="#404065" d="M220.2294,290.2977c0.0841,1.1783,0.7574,2.1884,1.6832,3.4508c0.5051-1.9358,2.1042-2.6934,2.6093-4.1241
			C222.6702,289.7085,221.4918,290.1294,220.2294,290.2977z"/>
		<path fill="#404065" d="M276.1157,290.2977c-0.0842-0.0841-2.2725,0.1683-4.2083-0.2526c0.8416,1.2626,1.3467,2.525,2.1041,3.8717
			C274.769,292.4861,275.4424,291.1394,276.1157,290.2977z"/>
		<path fill="#404065" d="M273.0857,296.6101c0.2526,1.1785-0.5891,3.3667-2.6932,3.4509
			c-1.4308,0.0842-3.7875-1.3467-5.1342-1.4309c-1.4309-0.0841-4.04,1.01-5.5549-1.2625c-2.02,2.4409-4.3767,3.1141-6.3967,3.03
			c-1.1782,0-2.4408-0.6733-0.6733-2.1884c-3.8716,1.2626-3.8716-1.3467-3.1982-1.8517c0.4208-0.3367,0.9258-0.5891,2.3567-2.02
			c5.3865-5.639,3.3666-15.4023,9.2583-21.8832c2.2725-2.525,4.124-3.9558,8.7532-7.2383c1.5791-1.0804,3.1575-2.6495,4.6555-3.7423
			c-5.9011-8.2815-15.5771-13.6802-26.5387-13.6802c-10.7509,0-20.2697,5.1897-26.1991,13.2024l0.0234,0.0117
			c0.5049,0.2526,1.01,0.5051,1.5991,0.8418c2.4408,1.6832,4.04,3.114,7.7433,6.2283c1.0941,1.0941,2.3566,2.8616,3.2825,3.9558
			c2.0199,2.5249,3.4508,4.2925,3.7032,6.3966c0.5892,4.2084,1.1785,6.5649,2.7776,10.8574c0.1682,0.4208,0.8416,1.01,1.2625,1.515
			c1.01,1.2625,1.4309,3.2825,3.2825,4.3767c1.01,0.5891,1.1783,0.6733,1.515,0.9258c0.505,0.4208-0.3367,1.9358-2.9459,1.5991
			c1.3467,0.6733,1.1785,2.1884-0.7573,2.2725c-3.7876,0.1683-6.1443-2.02-6.6492-2.6091c-0.2526-0.2524-1.01,0.7576-2.3567,1.2625
			c-1.3467,0.6733-3.1982,0-4.6292,0.2526c-1.3467,0.2526-3.1141,1.0941-4.5449,1.1783c-2.525,0.0841-2.8617-1.6833-2.8617-3.1984
			c0-0.3367,0-0.5892,0-0.6733c-0.2406,0.882-1.0829,2.3586-1.1631,2.4983c5.8607,8.5892,15.7211,14.2509,26.918,14.2509
			c11.0597,0,20.8116-5.4951,26.697-13.903c-0.4213-0.7716-0.7389-1.8136-0.9421-2.7621
			C273.5908,296.526,273.4224,296.6101,273.0857,296.6101z"/>
		<path fill="#404065" d="M164.8479,299.2194c-0.5049,0.2526-1.0099,0.6732-1.094,1.1783
			c-0.1685,0.9258,0.0841,1.7675-0.6733,2.4408c0,0.1683-0.1685,0.3367,0,0.505c0.5891,0.2524,1.2625,0.5049,2.0199,0.5891
			c0.3367-1.1782,0.5892-2.3567,1.01-3.3667v-0.2524C165.7738,299.8926,165.4371,299.3035,164.8479,299.2194z"/>
		<path fill="#404065" d="M166.7838,299.051c0.3367,0.1683,0.7574,0.1683,1.0941,0.0842c0.9258-0.5051,1.515-1.5151,1.9358-2.3567
			c-0.0841-0.3367-0.3367-0.5051-0.6733-0.7576c-0.0841-0.1683-0.4208-0.0842-0.5891,0c-0.6733,0.5891-1.3467,1.01-2.02,1.4309
			c-0.3367,0.1682-0.1682,0.5891-0.2524,0.9258C166.2788,298.7144,166.6155,298.8827,166.7838,299.051z"/>
		<path fill="#404065" d="M208.6986,296.1893c0.5891,0.6733,0.505,1.5992,1.1783,2.1041c0.9258,0.0842,1.6833-0.2524,2.3567-0.7574
			c0.3367-0.3367-0.1685-0.7574-0.2526-1.0941c-0.3367-0.5891-0.0841-1.6833-1.01-1.5991
			c-0.9259,0.1682-1.8517,0.1682-2.7775,0.1682l-0.2524,0.1685C207.7727,295.6843,208.5303,295.6843,208.6986,296.1893z"/>
		<path fill="#404065" d="M218.6301,289.9611c-0.5049-0.1683-1.0099-0.4208-1.5149-0.4208
			c-0.2524,0.0841-0.5891,0.0841-0.7576,0.3367l2.2725,4.5449c0.1685,0.3367,0.3367,0.8417,0.2526,1.2625
			c-0.3365,1.01-0.8417,1.9358-1.5991,2.6091c-0.1683,0.0842-0.3367,0.1685-0.4208,0c0.2524-1.0099,0.7574-2.104,0.6733-3.1982
			l-2.1885-4.04c-0.2524-0.5891-0.6733-1.01-0.6733-1.6833c0-0.2524,0.2526-0.5049,0.5051-0.5891
			c1.01-0.2524,2.1882-0.2524,2.9458-1.01c1.01-1.5991,1.5991-3.0299,1.8516-4.8816c0.0842-0.0842,0.0842-0.2524,0.2526-0.2524
			s0.1683,0.1682,0.2526,0.2524c0.3367,1.9358-0.0842,3.9558-1.2626,5.5549c-0.0841,0.1685-0.1683,0.4209,0.0842,0.5892
			c1.0941,0.3365,2.2725,0,3.1984-0.505c1.1782,0,2.2725-0.2524,3.3666-0.4209c0.1683,0,0.2526,0.1685,0.2526,0.2526
			c-0.7576,0.8417-1.1785,1.7675-1.3467,2.7775c-0.8418,0.8417-2.1042,1.6833-2.1884,2.9458c0.1683,0.5891,0.7574,0,1.0941,0.0842
			c0.1683,0,0.2524,0.1682,0.2524,0.3367l-0.8416,1.2625c-0.4209,0.7576,0.0842,1.5991,0.0842,2.3567
			c0.2524,0.5891,0.9258,0.8416,1.5149,0.8416c1.2625,0,2.4409-0.5049,3.6191-0.9258c1.2625-0.505,2.7776-0.505,4.2083-0.2524
			c1.3467-0.0842,2.3567-0.9258,3.3667-1.8517c0.5891,0,1.0942,0.3367,1.4309,0.7574c1.5991,1.6833,3.6191,2.4409,5.8916,2.3567
			l0.1683-0.0842c0.1683-0.1682,0.0841-0.4208-0.0841-0.5049l-1.3467-0.6733c-0.9259-0.5892-2.1042-1.3467-2.4409-2.4409
			c-0.2524-1.01-0.7574-2.02-1.3467-2.9458c-0.1682-0.4208-0.6733-0.7574-0.8416-1.2625c0,0,0.0841-0.0842,0.1682-0.0842
			c1.5151,0.5892,2.4409,2.02,3.1143,3.3667c1.0941,1.5149,2.6932,2.7775,4.7974,2.4408l0.1685-0.1683
			c0.0841-0.0842,0.0841-0.2524,0-0.3367l-1.01-0.5049c-1.7676-1.01-2.4409-2.9459-3.535-4.4609
			c-0.3367-0.5049-1.01-0.9258-1.3467-1.4308c-1.2625-3.3666-2.2725-6.7333-2.6091-10.6049c-0.2526-1.01-0.505-1.9359-1.01-2.8618
			c-1.5992-2.6091-3.6191-4.8816-5.5551-7.2383c-0.1682-0.0841-0.4207-0.2524-0.5049-0.5049l-6.8175-5.7234
			c-0.8417-0.6733-1.8517-1.0941-2.7775-1.5149c-1.4309-0.5892-3.3667-0.4209-4.7975,0.1682
			c-1.515,0.7576-2.7775,1.9358-4.3766,2.4409c-2.2725,1.01-4.7976,1.1782-6.7334,2.9458c-1.1782,1.01-2.1041,2.5249-3.7874,2.2725
			c-1.8518-0.0842-3.5352,0.5891-4.9658,1.7675c-1.2626,1.1783-2.5251,2.525-4.1243,2.8617
			c-1.5149,0.5891-3.1982,0.3367-4.7133,0.8416c-2.2726,0.5894-4.1241,2.4409-6.1442,3.8718
			c-2.02,1.1782-3.8716,2.4407-6.3966,2.3566c-1.5992-0.0841-3.1984-1.1783-3.7032-2.7775
			c-0.4209-1.8517,0.0841-3.7034,1.5149-4.8816c1.4309-1.7676,3.7876-2.7776,4.9658-4.7976c0.6733-1.01,0.5891-2.7773-0.2524-3.7874
			c-1.515-1.5992-3.7034-1.5992-5.7234-2.1042c-1.2625-0.3367-2.2725-1.3467-3.6191-2.5249
			c-0.4208,0.6733-0.5891,1.3467-0.5049,2.1882c0.2524,1.8518,1.5991,3.535,3.3666,4.1243c1.01,0.4208,2.1884,0.0841,3.1984,0.3367
			c0.2524,0.1682,0.5891,0.4208,0.5891,0.7574c-0.0842,0.2526-0.0842,0.5892-0.3367,0.7574
			c-1.6833,1.4309-3.3667,2.6934-4.7134,4.3767c-1.4308,1.5991-1.5991,4.3766-0.8416,6.3125
			c0.8416,2.2725,3.1982,3.7874,5.4707,4.0399c1.6833,0.2526,3.1143-0.1683,4.6292-0.505c0.1685,0,0.2526,0.2524,0.3367,0.3367
			c0.1685,1.3467,0,2.5249,0.2526,3.7034c0.2526,1.1782,0.5892,1.9358,1.0099,3.0299c0.0842,0.4208,0,0.8417-0.2524,1.0941
			c-0.8416,0.6733-1.6833,1.0942-2.6091,1.5151l-2.2725,0.1682l-0.4209,0.1683c-0.8416,1.01-0.8416,2.02-1.3467,3.1141
			c-0.6733,1.1783-1.9358,1.6833-3.0299,2.3567c-0.3367,0.5891-0.6733,1.1783-1.1783,1.5991
			c-0.4209,0.3367-0.8417,0.4209-1.3467,0.5051c-0.8416,0.9258-1.01,2.104-1.1782,3.3666c1.2625,0.0841,2.6091,0.7574,3.8716,0.0841
			c1.0942-0.5049,1.2625-1.8516,2.1041-2.6091c0.6733-0.6733,1.5992-0.1683,2.3567,0c1.0941,0.0842,1.9358-0.6733,2.8617-1.0941
			c0.6733-0.4208,1.2625-1.1783,1.9358-1.5992c1.3467-0.5891,3.1982-0.2524,4.5449,0c1.0942,0.2526,2.2725,0.0842,3.1984-0.3367
			c0.9259-0.5049,1.7675-1.1782,2.7775-1.4307c0.8417-0.5051,1.2625-1.5151,1.6833-2.3567c0.3367-0.7576,1.0941-1.3467,1.01-2.2725
			c-0.2524-0.1685-0.505-0.5892-0.8417-0.5892c-0.4208,0.6733-0.7574,1.2626-1.2626,1.8517
			c-1.9358,2.6091-4.9658,3.1141-7.9957,3.1141c-3.1984-0.1683-5.9758,0.8417-8.1642,3.2825c-0.0841,0.0841-0.3367,0-0.4208-0.0841
			c-0.0841-0.3367,0.1683-0.5892,0.3367-0.8418c2.0199-2.7773,4.9658-3.3666,8.1642-3.4507
			c1.7675-0.1685,3.4507-0.4209,4.8816-1.1785c1.5991-0.8416,2.7775-2.5249,3.4508-4.124c0.4208-1.8518,0.505-3.7876,1.01-5.5551
			c0.0841-0.1683,0.2526-0.2526,0.4208-0.1683c0.1685,0,0.3367,0.1683,0.3367,0.3367c-0.3367,1.7676-0.5049,3.8716,0.1683,5.6392
			c1.3467,1.8517,3.8717,0.5891,5.7233,0.505c1.9359-0.1683,3.7034,0.5892,5.5551,0.6733c0.9258-0.0841,1.9358,0.2526,2.6932-0.3367
			c0.1685-0.2526,0-0.6733-0.0841-1.01c0-0.505-0.4208-1.2625,0.0841-1.6832c0.0842-0.0842,0.4209-0.0842,0.5051,0.0841
			c0.2524,0.6733,0.3367,1.4308,0.8416,2.1041c0.9258,1.1783,2.2725,2.1042,3.535,2.7776c1.2626,0.8416,2.2725,2.0199,2.3566,3.5349
			c0,0.7574-0.6733,1.2625-1.2625,1.5991c-1.01,0.505-2.02,0.8417-3.1982,0.7576c-1.515-0.7576-1.9358-2.3567-2.9458-3.535
			c-0.5051-0.505-1.3467-0.6733-2.1042-0.5892c-0.8416,0.0842-1.6833,0.0842-2.4408,0.3367
			c-0.2526,0.1685-0.2526,0.4209-0.2526,0.6733c0.5051,1.01,1.0942,1.9358,1.6833,2.8617c0.6733,0.4208,1.5991-0.2526,2.1884,0.505
			c0.505,0.7576,0.8417,1.5991,1.5992,2.1882c0.7574,0.5892,1.8516,0.9259,2.7773,0.5051c2.1885-0.6733,4.2925-1.3467,6.3125-2.4409
			h0.2526c0.8417-0.0841,1.6832,0,2.2725-0.5891c0.6733-0.9258,1.1783-1.7675,1.6833-2.7775
			c0.505-0.5892,0.2526-1.5992,0.0841-2.3567C219.7244,292.7385,219.1353,291.3077,218.6301,289.9611z M231.4235,283.0593
			c0.505-0.5049,0.4208-1.9358,1.515-1.5149c0.7574,0.505,0.9258,1.3467,1.4308,1.8517c0.9259,1.0941,1.5992,2.2725,1.2626,3.7032
			c-0.1685,0.2526-0.0842,0.7576-0.5051,0.8417c-0.1682,0.0841-0.3367-0.0841-0.3367-0.2526
			c-0.0841-0.7573-0.0841-1.5991-0.5049-2.1882c-0.5051-0.505-1.0942-1.515-1.9359-1.515
			c-0.5891,0.1683-1.0099,0.8417-1.3466,1.2626c0,0.0841-0.0842,0.0841-0.1685,0
			C230.4976,284.406,231.1709,283.7327,231.4235,283.0593z M230.1609,294.8428c0.2526-0.7576,1.01-1.5992,1.8518-1.7676
			c0.1682,0,0.5049,0,0.5891,0.3367c0.0842,0.505,0.0842,1.2625-0.4209,1.5991c-0.5049,0.1683-1.1782,0.2526-1.7675,0.1683
			C230.2451,295.0952,230.0768,295.011,230.1609,294.8428z M219.1353,270.3503c0.1682-0.1683,0.5049-0.1683,0.7573-0.0842
			c0.4209,0.4209,0.6735,0.8417,1.01,1.3467c0.5051,1.2625,0.5051,2.9458,0.1685,4.2925c-0.0842,0.0842-0.1685,0.0842-0.2526,0
			c-0.2526-1.1782-0.505-2.3567-0.9259-3.5349C219.6401,271.697,218.7986,271.1079,219.1353,270.3503z"/>
		<path fill="#404065" d="M326.6997,296.1893c-0.5892-0.505-1.1785,0.1683-1.4309,0.5892c0.1683,0.6733,0.7576,1.2625,1.1783,1.9358
			c0.2526,0.3367,0.5892,0.5891,1.0099,0.5891c0.4209,0,0.7576-0.1682,1.01-0.4208c0.1685-0.2526,0.4209-0.5892,0.3367-0.9259
			C328.2988,297.1993,327.3729,296.7786,326.6997,296.1893z"/>
		<path fill="#404065" d="M324.2588,298.3777c-0.6733-0.8417-2.1041-1.3467-2.1041-2.6091c-0.2526-0.505-0.2526-1.2625-0.505-1.9358
			c-0.1683-0.5051-0.4209-1.2626-1.0942-1.3467c-1.2625-0.1685-2.7773,0.1682-3.5349-1.01
			c-0.7576-0.8417,0.0842-1.8517,0.2524-2.6934c0.3367-1.0941,0.3367-2.5249,0.1685-3.6191c0-0.5891-0.4209-1.0942-0.3367-1.7675
			c0.3367-0.5892,1.01-0.1683,1.4308-0.0842c1.5992,0.4208,3.4508,0.1683,4.9658-0.4208c2.02-1.01,3.6191-3.03,3.535-5.3867
			c-0.2526-3.0299-2.4409-5.5549-4.7976-7.4907c-0.4208-0.4209-0.9258-0.7576-1.0941-1.3467
			c-0.0841-1.1783,1.2626-0.6733,1.9359-0.9258c0.7574-0.1685,1.5991-0.3367,2.2725-0.8417
			c1.7675-1.1783,2.1041-3.2826,1.7675-5.3025c-0.0841-0.1683-0.0841-0.4208-0.3367-0.4208
			c-0.2526,0.2524-0.5892,0.5891-1.01,0.8416c-1.0941,0.6733-2.6091,0.5051-3.7875,1.0942
			c-1.515,0.5891-3.2825,1.5149-3.9558,3.1982c-0.1683,0.7576,0.0842,1.6833,0.4209,2.3567c1.7673,2.8617,5.5549,4.6292,6.144,8.08
			c0.2524,1.4308-0.4209,2.4408-1.5149,3.1984c-1.5992,0.9258-4.04,0.5891-5.6392-0.2524
			c-3.1143-1.5151-5.8076-4.1243-9.1742-5.2184c-2.1041-0.9259-4.7133-0.7574-6.5649-2.1884
			c-1.4308-0.9258-2.6934-2.1041-4.2925-2.5249c-1.0941-0.3367-2.3567-0.3367-3.3666-0.8418
			c-1.0942-0.9258-2.1885-1.7675-3.3667-2.3566c-1.6833-0.8417-3.535-1.2626-5.3867-1.6833
			c-1.0941-0.2526-1.4308-1.515-2.3567-2.1041c-1.5149-1.2625-3.1982-2.1042-5.3865-1.9358c-0.8418,0-1.5151,0.5891-2.1885,1.1782
			c-4.4607,3.8717-9.5107,6.4808-13.5507,10.9417c-2.6934,2.7776-3.4508,6.3125-4.4608,9.7633
			c-1.4309,5.2184-2.02,10.9415-7.2383,14.14c-0.0842,0.1682-0.0842,0.4208,0.0842,0.5049
			c1.4307,0.3367,2.7773-0.2524,3.7032-1.1782c0.9258-1.3467,1.8517-2.7776,3.1141-4.04l0.2524-0.1683
			c0.1685,0.0841,0.3367,0.1683,0.2526,0.3367c-0.4208,1.0941-1.4308,1.9358-1.7675,3.1141
			c-0.5051,1.4309-1.8517,2.4409-2.9458,3.4508v0.1683c0,0.1683,0.0841,0.3367,0.2524,0.3367
			c2.5249,0.0842,4.3767-1.7676,6.0599-3.4508c0.1683-0.1683,0.4208-0.1683,0.6733-0.0841
			c0.7574,0.5049,1.4308,1.4307,2.4408,1.5991c1.01-0.0842,2.1042-0.2526,3.1984-0.1685c1.515,0.4209,3.0299,1.0942,4.5449,1.5992
			c0.7574,0,1.3467-0.7574,1.7675-1.4308c0.3367-0.6733-0.1682-1.4309-0.0841-2.1884c0.4208-0.2526,0.8417,0,1.2626-0.0841
			c0.1682-0.0842,0.3367-0.3367,0.3367-0.5051c-0.2526-1.3467-1.5151-2.2725-1.8518-3.5349
			c-0.5891-1.515-2.4407-2.525-2.7773-4.2083c0.0841-0.0842,0.1682-0.2526,0.3367-0.1685c1.2625,0.9259,2.3566,2.1042,3.8716,2.3567
			c1.0941,0.1683,2.2725,0.2524,3.4508,0.1683c0.1683-0.0841,0.3367-0.3367,0.2526-0.505c-0.5051-1.01-1.01-2.1041-1.2626-3.1982
			c-0.4208-1.4309-0.6733-3.3667-0.2526-4.9658c0.0842-0.0842,0.2526-0.3367,0.4209-0.2526
			c0.2524,0.0841,0.4209,0.3367,0.4209,0.505c0.1682,2.4408,0.3367,4.7134,1.7675,6.6492c0.6733,1.01,1.7675,1.2625,2.525,2.02
			c0.3367,0.4208,0.3367,1.0941,0.1682,1.5149l-1.7675,2.6091c-0.3367,0.5892-0.7574,1.1785-0.9259,1.8518
			c-0.1682,0.7573-0.0841,1.4307,0,2.104c-0.0841,0.0842-0.1682-0.0841-0.2524-0.1682c-0.5049-0.9259-1.01-2.1884-0.5049-3.2825
			l2.2725-3.4509l0.0841-0.2524c-0.505-0.2524-1.0941-0.505-1.5992-0.5891c-0.2524,0.0841-0.4207,0.3367-0.5891,0.5891
			l-2.1882,3.9558c-0.1685,0.4209-0.2526,0.7574-0.1685,1.2625c0.0842,0.5891,0.2526,1.1783,0.5051,1.6833
			c0.1682,0.8417,0.3367,1.3467,0.6733,2.1042c0.5891,0.5891,1.3467,0.0841,2.0199,0.2524c0.7574,0.1682,1.01,1.01,1.6833,1.1782
			c1.5992,0.5051,3.1984,0.8418,4.7975,1.4309c0.8417,0.2524,1.9358,0.5891,2.6934-0.0842c1.01-0.5049,1.2625-1.5991,1.4308-2.6091
			c0.3367-0.4209,0.9258-0.2524,1.4308-0.4209c0.8417-0.5049,1.0942-1.5991,1.7676-2.3566l0.0841-0.4208
			c-0.1683-0.2526-0.3367-0.4209-0.5892-0.5051h-2.9458c-1.3467,0.1685-1.4308,1.6833-2.0199,2.6091
			c-0.3367,0.5892-0.9259,0.8418-1.5992,0.7576c-1.3467-0.4209-3.114-0.5891-3.7032-2.1041
			c-0.0841-0.3367-0.0841-0.8417,0.1683-1.0941c0.7576-0.8418,1.5991-1.7676,2.5249-2.4409
			c1.2626-0.2524,2.5251-1.2625,3.1985-2.3567c0.3365-0.5049,0.2524-1.2625,0.8416-1.5991c0.1683,0,0.4209,0,0.505,0.1685
			c0.2526,0.8416-0.2526,1.5991-0.505,2.3566c3.1143,0.2526,5.8075-0.9259,8.8374-0.8417c1.3467,0,2.5251,0.2524,3.7876,0.1683
			s2.6091-0.5892,3.03-1.9358c0.5891-1.6833,0.0841-3.6193-0.1685-5.2184l0.1685-0.2524c0.1682-0.0842,0.3367,0.0842,0.5049,0.1683
			c0.5891,1.515,0.9258,3.3666,1.1783,5.0499c0.2526,1.4309,0.8417,2.7776,1.6833,4.04c1.515,2.1882,4.0399,3.03,6.649,2.5249
			c3.1143-0.2524,5.8076,1.01,7.7434,3.4509v0.1682c-0.0842,0.1685-0.1683,0.2526-0.3367,0.2526
			c-1.5991-1.2626-3.2825-2.6091-5.3867-2.8617c-2.2725-0.4208-4.2083,0.6733-6.3125-0.1682
			c-2.2725-0.7576-4.0398-3.1143-4.9657-5.2184h-0.2526c-0.1682,0.0841-0.3367,0.2526-0.3367,0.4208l0.2526,1.7676
			c0.3367,1.4308,0.7574,3.1141,2.3566,3.7875c1.1785,0.6733,2.3567,1.7675,3.8718,1.3467
			c2.6091-0.5892,5.3024,0.1683,7.3224,1.6832c0.6732,0.4209,1.1783,1.0942,1.9358,1.3467
			c0.7574,0.3367,1.6833,0.1685,2.3566-0.3367c1.5151-0.5049,1.8518,1.3467,2.8618,2.02c0.8416,0.8417,2.4407,0.5051,3.619,0.5051
			l0.1683-0.1685c-0.1683-1.1782-0.4208-2.1041-0.9258-3.1141C325.8579,300.9027,325.1005,299.3035,324.2588,298.3777z
			 M265.7632,295.0952c-0.3365,0.2524-0.9258,0.0842-1.3466,0.0842c-0.505-0.2526-0.6733-0.9259-0.6733-1.5151
			c0-0.1682,0-0.2524,0.1683-0.4208c0.5891,0,1.1783,0.1683,1.5991,0.6733C265.6791,294.2535,266.0157,294.6743,265.7632,295.0952z
			 M266.3524,285.416c-0.0841,0.1685-0.2526,0.3367-0.505,0.1685c-0.5891-0.1685-0.505-1.0942-1.2625-1.01
			c-0.505,0-0.8417,0.4208-1.2625,0.6733c-0.7576,0.6733-1.7676,1.3467-1.9359,2.3567c-0.1683,0.3367-0.0841,0.9258-0.4208,1.0941
			c-0.1683,0.0841-0.4209-0.0842-0.4209-0.2526c-0.0841-1.3467,0.3367-2.6091,1.2625-3.5349
			c0.9259-0.7576,1.5992-1.8517,2.3567-2.7776c0.5051-0.0841,0.8418,0.2526,1.01,0.5892c0.5051,0.6733,0.9259,1.3466,1.2625,2.1884
			C266.5208,285.0793,266.4365,285.2478,266.3524,285.416z M277.9674,269.0879c-1.1783,1.0941-2.6093,2.2725-3.4508,3.6191
			c-0.3367,0.4208-0.5892,0.9258-0.7576,1.4308c0,0.0841-0.0842,0.0841-0.1682,0.0841c-0.2526-0.6733,0.0841-1.4308,0.2524-2.1041
			c0.5891-1.5991,1.9358-3.1141,3.3667-4.2084c0.1682-0.0841,0.7574-0.1682,0.9258,0.2526
			C278.3882,268.4987,278.1357,268.8353,277.9674,269.0879z"/>
		<path fill="#404065" d="M331.413,302.1652c-0.1683-0.6733,0-1.5992-0.4208-2.1884c-0.4209-0.2524-0.7576-0.7574-1.1785-0.5891
			c-0.4208,0.3367-1.01,0.7576-0.9258,1.3467c0.3367,1.01,0.5891,1.7675,0.7576,2.8616c0.1682,0.1685,0,0.5891,0.3367,0.5891
			l1.8516-0.5891C332.1704,303.0911,331.4971,302.6702,331.413,302.1652z"/>
		<path fill="#404065" d="M283.1016,295.2635c-0.3367,0.505-0.6733,1.1783-0.5892,1.8517c0.0841,0.7574,0.9259,0.8416,1.4308,1.01
			c0.5051,0.0841,1.2626,0.2524,1.5151-0.2526c0.3367-0.7574,0.5891-1.515,0.6732-2.3566c0-0.2526-0.2524-0.3367-0.5892-0.3367
			C284.7849,295.3477,283.859,295.1794,283.1016,295.2635z"/>
	</g>
	<polygon fill="#404065" points="112.8332,347.9516 124.5323,347.9516 124.5323,345.5108 115.5266,345.5108 115.5266,337.2625 
		124.1957,337.2625 124.1957,334.8217 115.5266,334.8217 115.5266,328.7617 124.5323,328.7617 124.5323,326.3209 112.8332,326.3209 
			"/>
	<polygon fill="#404065" points="135.979,347.9516 138.6723,347.9516 138.6723,331.7917 155.0005,348.8774 155.0005,326.3209 
		152.3072,326.3209 152.3072,342.3125 135.979,325.2267 	"/>
	<polygon fill="#404065" points="166.6155,347.9516 178.2304,347.9516 178.2304,345.5108 169.3088,345.5108 169.3088,337.2625 
		177.9779,337.2625 177.9779,334.8217 169.3088,334.8217 169.3088,328.7617 178.2304,328.7617 178.2304,326.3209 166.6155,326.3209 
			"/>
	<path fill="#404065" d="M195.9053,338.525c3.1142-0.3367,5.2183-2.9458,5.2183-6.06c0-2.1042-1.01-4.1241-2.8616-5.2183
		c-1.6833-1.01-3.7875-1.01-5.7233-1.01h-3.2825v21.7149h2.6933v-9.1741h1.0942l6.3966,9.1741h3.2825L195.9053,338.525z
		 M191.9495,328.6776h0.7575c2.6933,0,5.8916,0.505,5.8916,3.8716c0,3.4508-3.03,3.9558-5.7233,3.9558h-0.8417v-7.8275H191.9495z"/>
	<path fill="#404065" d="M222.1652,337.01v2.4408h5.6391c-0.0842,3.535-3.7033,6.3966-7.07,6.3966
		c-4.7133,0-8.4166-4.2925-8.4166-8.8375c0-4.8816,3.7875-8.8374,8.6691-8.8374c2.6933,0,5.3025,1.4308,6.8175,3.535l1.9358-1.8517
		c-2.1042-2.6933-5.4708-4.2083-8.8375-4.2083c-6.2283,0-11.2783,5.1342-11.2783,11.3624c0,5.9758,4.8816,11.2783,10.9416,11.2783
		s10.2683-4.545,10.2683-10.5208v-0.8417h-8.6691V337.01z"/>
	<polygon fill="#404065" points="245.6476,338.525 245.6476,347.9516 248.3409,347.9516 248.3409,338.525 255.4108,326.3209 
		252.2967,326.3209 246.9942,335.5792 241.6076,326.3209 238.4934,326.3209 	"/>
	<path fill="#404065" d="M274.0116,347.9516h4.3766c6.8175,0,12.2883-3.535,12.2883-10.9416c0-7.2383-5.555-10.7733-12.2041-10.7733
		h-4.4608V347.9516z M276.7049,328.7617h0.9258c5.555,0,10.2683,2.02,10.2683,8.4166c0,6.3125-4.7975,8.3325-10.2683,8.3325h-0.9258
		V328.7617z"/>
	<path fill="#404065" d="M307.5939,338.525c3.1142-0.3367,5.2183-2.9458,5.2183-6.06c0-2.1042-1.01-4.1241-2.8616-5.2183
		c-1.6833-1.01-3.7875-1.01-5.7233-1.01h-3.2825v21.7149h2.6933v-9.1741h1.0941l6.3966,9.1741h3.2825L307.5939,338.525z
		 M303.6381,328.6776h0.7575c2.6933,0,5.8916,0.505,5.8916,3.8716c0,3.4508-3.03,3.9558-5.7233,3.9558h-0.8417v-7.8275H303.6381z"/>
	<rect x="322.9121" y="326.3209" fill="#404065" width="2.6933" height="21.7149"/>
	<polygon fill="#404065" points="336.4629,347.9516 339.1562,347.9516 339.1562,331.7917 355.4003,348.8774 355.4003,326.3209 
		352.707,326.3209 352.707,342.3125 336.4629,325.2267 	"/>
	<polygon fill="#404065" points="369.0352,335.6633 369.0352,326.3209 366.3419,326.3209 366.3419,347.9516 369.0352,347.9516 
		369.0352,338.9458 370.1294,337.8517 378.2935,347.9516 381.9127,347.9516 371.981,336 381.7443,326.3209 378.2094,326.3209 	"/>
	<path fill="#404065" d="M409.6875,164.0484c1.515,0,2.7775,0.505,3.7875,1.5992c1.01,1.01,1.5992,2.3567,1.5992,3.7875
		c0,1.515-0.505,2.7775-1.5992,3.7875c-1.01,1.0942-2.3566,1.5992-3.7875,1.5992c-1.515,0-2.7775-0.505-3.8716-1.5992
		c-1.01-1.01-1.5992-2.3567-1.5992-3.7875c0-1.515,0.505-2.7775,1.5992-3.7875S408.1725,164.0484,409.6875,164.0484 M416,169.435
		c0-1.6833-0.5892-3.1983-1.8517-4.4608c-1.2625-1.1783-2.6933-1.8517-4.4608-1.8517s-3.1983,0.5892-4.4608,1.8517
		c-1.2625,1.2625-1.8517,2.6933-1.8517,4.4608c0,1.7675,0.5892,3.1983,1.8517,4.4608c1.2625,1.2625,2.6933,1.8517,4.4608,1.8517
		c1.7675,0,3.1983-0.5892,4.4608-1.8517C415.3267,172.7175,416,171.2025,416,169.435 M411.3708,168.0884
		c0,0.505-0.2525,0.9258-0.7575,1.0942c-0.2525,0.0842-0.6733,0.1683-1.1783,0.1683h-1.0942v-2.525h1.01
		c0.6733,0,1.1783,0.0842,1.515,0.2525C411.2025,167.3309,411.3708,167.5834,411.3708,168.0884 M407.1625,165.9842v6.9016h1.1783
		v-2.6933h0.9258c0.6733,0,1.0941,0.0842,1.3467,0.2525c0.4208,0.2525,0.6733,0.7575,0.6733,1.5992v0.505v0.1683v0.0842v0.0842
		h1.1783l-0.0842-0.0842c0-0.0842-0.0842-0.1683-0.0842-0.3367c0-0.1683,0-0.3367,0-0.505v-0.505
		c0-0.3367-0.1683-0.6733-0.3367-1.0941c-0.2525-0.3367-0.6733-0.5892-1.1783-0.6733c0.4208-0.0842,0.7575-0.1683,1.01-0.3367
		c0.4208-0.2525,0.6733-0.7575,0.6733-1.3466c0-0.8417-0.3366-1.4308-1.0941-1.7675c-0.4208-0.1683-1.01-0.2525-1.9358-0.2525
		H407.1625z"/>
	<rect fill="none" width="512" height="512"/>
</g>
</svg>
