<?xml version="1.0" encoding="utf-8"?>
<!-- Generator: Adobe Illustrator 18.1.1, SVG Export Plug-In . SVG Version: 6.00 Build 0)  -->
<!DOCTYPE svg PUBLIC "-//W3C//DTD SVG 1.1//EN" "http://www.w3.org/Graphics/SVG/1.1/DTD/svg11.dtd">
<svg version="1.1" id="XMLID_1_" xmlns="http://www.w3.org/2000/svg" xmlns:xlink="http://www.w3.org/1999/xlink" x="0px" y="0px"
	 viewBox="0 0 512 512" enable-background="new 0 0 512 512" xml:space="preserve">
<g id="RTS_1_">
	<path id="RTS" fill="#404065" d="M128.0001,168.7273v174.5454h256V168.7273H128.0001z M203.0439,294.9888l-20.6482-31.446
		l2.9495-12.1873c4.4047,0,7.7286-0.7697,9.9701-2.3202c2.2417-1.5432,3.3634-4.2502,3.3634-8.1212
		c0-3.09-0.8464-5.4324-2.5375-7.0198c-1.6929-1.5839-4.6611-2.3757-8.9083-2.3757h-10.266v63.4702h-17.9365v-78.0919h31.0339
		c9.2792,0,16.1071,2.1068,20.4722,6.3239c4.3652,4.217,6.5488,9.9185,6.5488,17.1152c0,4.6405-0.9064,8.5483-2.7136,11.7194
		c-1.8108,3.1713-4.0317,5.4288-6.6685,6.7843c-2.6349,1.3552-4.974,2.2651-7.0189,2.7255l23.0098,33.4237H203.0439z
		 M288.1778,232.0968h-22.4178v62.892h-18.1705v-62.892h-22.4198v-15.2h63.0082V232.0968z M348.3666,287.5011
		c-3.0674,3.8306-6.9812,6.3055-11.7379,7.4288c-4.7603,1.1196-9.3859,1.72-13.868,1.7974c-5.1088,0-9.8317-0.3501-14.1555-1.0425
		c-4.326-0.696-7.5714-1.3147-9.7343-1.8561c-2.1667-0.5414-3.3259-0.8508-3.4832-0.932l2.8313-14.1538
		c4.4851,1.16,8.6163,1.9924,12.3917,2.4933c3.7753,0.5046,7.1967,0.7515,10.264,0.7515c5.1134,0,8.6902-0.6151,10.7351-1.8525
		c2.0488-1.2377,3.0674-3.5984,3.0674-7.0826c0-3.0128-0.8464-5.1011-2.5354-6.2649c-1.6929-1.1566-4.15-2.1251-7.3737-2.8986
		l-8.6107-1.9705c-6.3746-1.4695-11.1537-4.0809-14.3391-7.8339c-3.1836-3.7529-4.7791-8.8356-4.7791-15.2589
		c0-3.6351,0.5505-6.9021,1.6516-9.8043s2.8335-5.3773,5.1948-7.425c2.3578-2.0479,5.3466-3.6168,8.9664-4.6996
		c3.6161-1.0828,7.944-1.6241,12.9788-1.6241c7.1534,0,15.2997,1.1233,24.4235,3.3662l-2.4832,13.5721
		c-2.8278-0.6925-6.2885-1.2928-10.3748-1.7972c-4.0898-0.5011-7.8728-0.7551-11.3334-0.7551c-3.3025,0-6.0328,0.5635-8.1976,1.6832
		c-2.165,1.1233-3.2437,3.3846-3.2437,6.7878c0,2.7843,0.7866,4.7953,2.3596,6.0364c1.573,1.2339,3.6179,2.1658,6.1368,2.7845
		l9.1996,2.0846c7.6293,1.7826,12.9813,4.5853,16.0487,8.4121c3.0713,3.834,4.6031,8.8025,4.6031,14.9127
		C352.9698,278.6285,351.4379,283.6744,348.3666,287.5011z"/>
	<rect fill="none" width="512" height="512"/>
</g>
</svg>
