<?xml version="1.0" encoding="utf-8"?>
<!-- Generator: Adobe Illustrator 18.1.1, SVG Export Plug-In . SVG Version: 6.00 Build 0)  -->
<!DOCTYPE svg PUBLIC "-//W3C//DTD SVG 1.1//EN" "http://www.w3.org/Graphics/SVG/1.1/DTD/svg11.dtd">
<svg version="1.1" id="XMLID_1_" xmlns="http://www.w3.org/2000/svg" xmlns:xlink="http://www.w3.org/1999/xlink" x="0px" y="0px"
	 viewBox="0 0 512 512" enable-background="new 0 0 512 512" xml:space="preserve">
<g id="Picturepark">
	<polyline fill="#404065" points="87.9187,253.4255 87.9187,223.7357 87.7285,223.0071 87.5383,222.2786 87.1579,221.55 
		86.7775,220.8214 86.2069,220.457 85.4461,219.9106 84.6853,219.7285 83.9245,219.7285 35.8041,219.7285 35.0433,219.7285 
		34.2825,219.9106 33.7119,220.457 33.1413,220.8214 32.5707,221.55 32.1903,222.2786 32.0001,223.0071 32.0001,223.7357 
		32.0001,253.4255 87.9187,253.4255 	"/>
	<polyline fill="#404065" points="32.0001,261.8041 32.0001,271.4578 32.0001,272.3684 32.1903,273.097 32.5707,273.8256 
		33.1413,274.372 33.7119,274.9185 34.2825,275.2829 35.0433,275.6471 35.8041,275.6471 83.9245,275.6471 84.6853,275.6471 
		85.4461,275.2829 86.2069,274.9185 86.7775,274.372 87.1579,273.8256 87.5383,273.097 87.7285,272.3684 87.9187,271.4578 
		87.9187,261.8041 32.0001,261.8041 	"/>
	<path fill="#404065" d="M135.545,231.6962c-1.4045-6.2796-7.2898-8.2389-13.1092-8.6537
		c-6.6195-0.4719-13.3179-0.1841-19.9471-0.1841v53.2105h7.7893v-22.2784c6.7063,0,15.4953,0.9875,21.1015-3.5385
		C136.6751,245.9767,136.8114,237.813,135.545,231.6962z M128.1369,240.3499c-1.6548,8.7913-10.7671,7.5487-17.859,7.5487v-19.1483
		c4.3646,0,9.3363-0.5059,13.5797,0.7261C128.5333,230.8339,128.4257,236.4091,128.1369,240.3499z"/>
	<rect x="144.6668" y="238.5086" fill="#404065" width="7.9782" height="37.5603"/>
	<path fill="#404065" d="M152.8338,223.0424c-0.2547-0.4201-0.571-0.7884-0.9479-1.1046c-2.2266-0.43-4.2335-0.4328-6.4601,0
		c-1.463,1.2134-1.8428,3.3393-1.5214,5.1552c0.4285,2.4214,1.5876,2.8763,3.7653,3.1778c1.8929,0.2621,4.1065,0.1929,5.1642-1.5206
		C153.7482,227.269,153.7513,224.5195,152.8338,223.0424z"/>
	<path fill="#404065" d="M171.6441,250.1082c2.3049-8.3191,10.4112-6.9203,17.2889-5.7079l0.5701-5.5236
		c-5.6857-1.5035-14.1858-2.7288-19.3958,0.8803c-5.5353,3.8345-7.4474,11.3423-7.001,17.8687
		c0.4265,6.2345,0.4568,13.8327,6.6573,17.2693c5.8073,3.2187,13.3892,2.1135,19.5506,0.6216l-0.759-5.5236
		c-4.286,0.8293-12.4529,2.9636-15.3485-1.7118C169.9946,263.095,170.5918,255.8857,171.6441,250.1082z"/>
	<path fill="#404065" d="M213.4411,270.9137c-1.1378,0.0788-2.276,0.1957-3.4173,0.1841l-0.9513-0.1841l-0.5701-0.3683
		l-0.5701-0.5522l-0.3778-0.5524l-0.3812-0.9207l-0.1889-1.1046c0-7.7944,0-15.5888,0-23.3832h9.1184v-5.5236h-9.1184v-12.8884
		l-7.7926,1.1048v11.7836h-5.6977v5.5236h5.6977v23.3832l0.1923,2.3935l0.3778,2.2094c0.3696,0.8033,0.7259,1.6121,1.1402,2.3937
		l0.5701,0.5524c0.4574,0.2875,0.9016,0.5944,1.3325,0.9205l1.707,0.5524l1.9026,0.3681l2.4693,0.1843
		c1.3932-0.123,2.7865-0.2457,4.1797-0.3683l3.7985-0.7365l-0.759-5.5236L213.4411,270.9137z"/>
	<path fill="#404065" d="M249.5402,266.6789c-5.7447,3.4797-17.4778,7.8813-17.4778-2.9696c0-8.4002,0-16.8005,0-25.2007h-7.9816
		c0,5.9953,0,11.9907,0,17.986c0,4.8667-0.3413,9.7339,1.0423,14.453c1.2585,4.2925,6.8485,6.4193,10.9353,6.0228
		c5.3881-0.5228,9.636-2.3212,14.4331-4.768l0.3778,3.8664h6.4601v-37.5603h-7.7893V266.6789z"/>
	<path fill="#404065" d="M289.6302,237.7722c-4.2492-1.9883-9.4989,2.1096-12.5391,4.6028l-0.5701-3.8664h-6.4601v37.5603h7.9782
		v-28.3544c4.0326-2.6046,7.8726-4.8521,12.5391-2.3935l0.9513-6.8124C290.9321,238.1852,290.2867,237.9455,289.6302,237.7722z"/>
	<path fill="#404065" d="M327.0585,250.1082c-0.6243-3.3168-1.0539-6.6776-3.4207-9.2061
		c-2.5573-2.7321-5.8284-3.2235-9.4052-3.4061c-7.1971-0.3674-14.3044,1.4987-17.0804,8.9061
		c-1.2987,3.4655-1.387,7.2493-1.6216,10.9075c-0.1894,2.9536,0.076,7.5498,1.2087,10.2972
		c1.2455,3.0209,2.7787,6.2812,6.0188,7.6278c3.0696,1.2758,6.6586,1.9274,10.0056,1.747c4.2508-0.229,8.4453-0.6464,12.5844-1.6493
		l-0.759-5.5236c-4.7409,0.9839-10.5952,2.2959-15.3896,0.9207c-5.3325-1.5295-5.6346-6.8701-5.89-11.5995h23.749
		C327.1883,256.0937,327.0585,253.1379,327.0585,250.1082z M303.4984,254.1588c0.3562-5.9013,1.605-11.0472,8.5431-11.0472
		c2.7003,0,5.0205,0.3669,6.5615,2.7617c1.5057,2.3399,1.4519,5.5965,1.6142,8.2855H303.4984z"/>
	<path fill="#404065" d="M370.5657,249.5558c-1.659-5.8938-3.3834-9.9317-9.7251-11.6882
		c-5.6177-1.5559-11.4939,1.5271-16.1154,4.3233l-0.5667-3.6823h-6.4601v53.7629h7.7893c0-5.9091,0.1267-11.7876-0.3812-17.6756
		l0.1923-0.1841c6.0691,3.211,16.3686,4.1338,21.0466-2.2267C371.3693,265.3542,371.2636,257.7178,370.5657,249.5558z
		 M363.1577,257.1047c0,4.3285-0.4848,9.6658-4.372,12.336c-4.2852,2.9437-9.1191,1.2903-13.2981-0.9207v-20.8055
		c3.833-2.2281,8.4838-5.3078,13.1092-3.4983C363.2495,246.0366,363.1577,252.9543,363.1577,257.1047z"/>
	<path fill="#404065" d="M408.3752,245.3211c-2.728-11.0072-18.0921-7.7369-26.2184-6.26l0.759,5.7076
		c4.201-0.7269,8.5008-1.7785,12.7763-1.2601c5.5091,0.668,5.2716,5.508,5.2716,9.9136c-9.6777,0-23.4887,0.7251-22.5126,13.8091
		c0.3778,5.0648,3.6333,8.7086,8.6444,9.5741c5.4536,0.942,10.2791-1.5951,14.8195-4.2347l0.3812,3.4983h6.4568
		c0-5.5889,0-11.1777,0-16.7666C408.7531,254.8296,409.3431,249.7482,408.3752,245.3211z M400.9638,267.4154
		c-4.507,2.8094-14.3709,7.3901-15.4841-1.2889c-1.0719-8.3577,10.0289-7.733,15.4841-7.733V267.4154z"/>
	<path fill="#404065" d="M440.4836,237.7722c-4.5033-1.7081-9.283,1.9325-12.5391,4.6028l-0.5701-3.8664h-6.4601v37.5603h7.7892
		v-28.3544c3.7721-2.25,8.2564-5.2664,12.5391-2.3935l1.1402-6.8124C441.7495,238.2637,441.1165,238.0182,440.4836,237.7722z"/>
	<polygon fill="#404065" points="464.0437,255.8158 479.6223,238.5086 470.6927,238.5086 456.4434,255.0794 456.4434,219.7285 
		448.4618,219.7285 448.4618,276.0689 456.4434,276.0689 456.4434,257.2888 470.6927,276.0689 480.0001,276.0689 	"/>
	<rect fill="none" width="512" height="512"/>
</g>
</svg>
