<?xml version="1.0" encoding="utf-8"?>
<!-- Generator: Adobe Illustrator 18.1.1, SVG Export Plug-In . SVG Version: 6.00 Build 0)  -->
<!DOCTYPE svg PUBLIC "-//W3C//DTD SVG 1.1//EN" "http://www.w3.org/Graphics/SVG/1.1/DTD/svg11.dtd">
<svg version="1.1" id="XMLID_1_" xmlns="http://www.w3.org/2000/svg" xmlns:xlink="http://www.w3.org/1999/xlink" x="0px" y="0px"
	 viewBox="0 0 512 512" enable-background="new 0 0 512 512" xml:space="preserve">
<g id="Lavey-les-Bains">
	<path fill="#404065" d="M368.7197,357.8782h12.8743v-12.8776h-12.8743V357.8782z M370.8703,350.1554h3.0201v-3.0167h2.5742v3.0167
		h2.9886v2.5807h-2.9886v2.9851h-2.5742v-2.9851h-3.0201V350.1554z"/>
	<path fill="#404065" d="M127.7605,311.2146c0-8.7424,0.057-13.6538,0.3954-22.2175h-9.9887
		c0.3954,8.5637,0.4508,13.4751,0.4508,22.2175c0,8.085-0.1124,12.7572-0.4508,20.7219h24.3209l2.3702-7.3669
		c-4.3452,0.3005-11.116,0.4191-16.9854,0.4191C127.7605,320.2578,127.7605,316.0657,127.7605,311.2146z"/>
	<path fill="#404065" d="M172.7858,331.9365l2.3705-7.1865c-4.4022,0.2386-10.7775,0.2988-16.647,0.2988
		c-0.1124-3.8328-0.1124-7.4857-0.1124-11.7373c5.4171,0,10.4391,0,14.5013,0.2986v-7.3652
		c-4.0051,0.1787-8.9718,0.2988-14.5013,0.2988c0-3.8329,0-7.1865,0.1124-10.6606c5.5311,0,11.342,0,14.9534,0.1201v-7.0061h-24.659
		c0.3954,8.5637,0.4504,13.4751,0.4504,22.2175c0,8.085-0.112,12.7572-0.4504,20.7219H172.7858z"/>
	<path fill="#404065" d="M191.6262,325.7681c-3.5544,0-7.6736-1.0784-10.7775-2.5757l-2.2581,6.7678
		c3.5563,1.7361,8.295,2.6356,13.657,2.6356c8.8594,0,15.7996-5.2701,15.7996-12.9359c0-6.1097-2.8779-10.0612-9.1409-12.6971
		l-3.4424-1.5577c-4.9096-2.0947-5.9819-3.5923-5.9819-5.988c0-2.3953,2.0872-4.3118,6.3203-4.3118
		c3.499,0,6.6583,0.7778,8.9718,1.9165l2.3148-6.7678c-3.2729-1.3773-6.8293-1.9763-11.7374-1.9763
		c-9.1425,0-15.5181,5.7493-15.5181,12.4568c0,5.6892,2.7639,9.7024,8.2383,12.0979l4.2312,1.8562
		c4.7973,2.0369,6.0386,3.7729,6.0386,6.3488C198.3415,323.7917,196.0283,325.7681,191.6262,325.7681z"/>
	<path fill="#404065" d="M238.8492,331.9365c12.3005,0,18.0577-4.4922,18.0577-12.7555c0-5.152-4.0068-9.0431-10.3838-10.422
		c4.6837-0.8381,8.6334-4.8513,8.6334-9.2817c0-6.8879-6.2062-10.4802-16.1379-10.4802h-13.7694
		c0.3954,8.5637,0.4507,13.4751,0.4507,22.2175c0,8.085-0.1124,12.7572-0.4507,20.7219H238.8492z M234.8978,295.7646
		c0.6784,0,1.8057,0,2.6535,0c6.3199,0,8.407,1.975,8.407,5.2687c0,3.8928-2.5392,5.5104-8.5211,5.5104
		c-1.0152,0-1.975,0-2.7086-0.0599C234.7288,302.771,234.7288,299.3572,234.8978,295.7646z M237.608,313.2512
		c6.8831,0,9.8181,1.9165,9.8181,5.8093c0,3.9531-2.2565,6.1084-9.5933,6.1084c-1.1292,0-2.0875,0-2.8779-0.0602
		c-0.1691-4.3119-0.2261-7.9647-0.2261-11.8575C235.6317,313.2512,236.5915,313.2512,237.608,313.2512z"/>
	<path fill="#404065" d="M259.2139,331.9365h9.0289c1.1288-2.9346,2.4825-6.7676,3.7238-10.2998h15.5181
		c1.0168,3.4121,2.2581,7.2451,3.33,10.2998h11.173c-5.4171-12.876-12.2448-30.9618-16.252-43.24h-8.9719
		C271.9095,301.5139,263.8405,321.3362,259.2139,331.9365z M285.3975,314.7488H274.28c2.1441-5.8093,4.2898-12.0979,5.8125-16.709
		C281.6168,302.8911,283.5915,309.0596,285.3975,314.7488z"/>
	<path fill="#404065" d="M316.0856,331.9365c-0.283-7.9647-0.3954-12.637-0.3954-20.7219c0-8.7424,0.0554-13.6538,0.3954-22.2175
		h-9.9886c0.3954,8.5637,0.4508,13.4751,0.4508,22.2175c0,8.085-0.1124,12.7572-0.4508,20.7219H316.0856z"/>
	<path fill="#404065" d="M349.8259,331.9365h9.1979c-0.3384-7.9647-0.4524-12.637-0.4524-20.7219
		c0-8.7424,0.057-13.6538,0.4524-22.2175h-8.5781c0.4521,10.4802,0.5091,18.4449,0.5091,28.9252
		c-4.2328-7.5457-11.2869-19.4032-17.4932-28.9252h-10.5528c0.3951,8.5637,0.4505,13.4751,0.4505,22.2175
		c0,8.085-0.1124,12.7572-0.4505,20.7219h8.5765c-0.3938-11.3184-0.4508-19.2847-0.4508-31.6814
		C336.1689,308.4003,343.7317,321.2161,349.8259,331.9365z"/>
	<path fill="#404065" d="M384.6919,306.9628l-3.4424-1.5577c-4.9097-2.0947-5.9819-3.5923-5.9819-5.988
		c0-2.3953,2.0887-4.3118,6.3203-4.3118c3.4991,0,6.6584,0.7778,8.9719,1.9165l2.3148-6.7678
		c-3.273-1.3773-6.8293-1.9763-11.7374-1.9763c-9.1425,0-15.5198,5.7493-15.5198,12.4568c0,5.6892,2.7656,9.7024,8.24,12.0979
		l4.2312,1.8562c4.7973,2.0369,6.0389,3.7729,6.0389,6.3488c0,2.7545-2.3135,4.7308-6.7157,4.7308
		c-3.5544,0-7.6736-1.0784-10.7775-2.5757l-2.2581,6.7678c3.5563,1.7361,8.2953,2.6356,13.657,2.6356
		c8.8597,0,15.7996-5.2701,15.7996-12.9359C393.8328,313.5502,390.9548,309.5988,384.6919,306.9628z"/>
	<path fill="#404065" d="M163.5138,350.9728h-9.6661c0.1833,6.5511,0.1833,10.3068,0.1833,16.9951c0,6.1842,0,9.7562-0.1833,15.8485
		h9.7578c12.5042,0,19.3763-6.6412,19.3763-17.5894C182.9817,356.0122,175.3318,350.9728,163.5138,350.9728z M163.2385,380.6558
		c-1.6949,0-4.489,0-5.2212-0.046c-0.0917-4.1681-0.0917-8.7947-0.0917-13.559c0-5.0378,0-9.6184,0.0917-12.917
		c1.2364,0,3.0217,0,4.625,0c10.2147,0,16.1697,4.214,16.1697,12.8711C178.812,376.2124,173.4532,380.6558,163.2385,380.6558z"/>
	<path fill="#404065" d="M193.5222,368.5165c4.579,0,10.534,0.046,13.7407,0.1837v-3.4347
		c-3.1606,0.1376-9.07,0.1836-13.7407,0.1836c0-3.9865,0-7.4667,0.0917-11.3153c5.0836,0,11.3135,0,14.1075,0.0916v-3.2526h-18.2772
		c0.1833,6.5511,0.1833,10.3068,0.1833,16.9951c0,6.1842,0,9.7562-0.1833,15.8485h18.3688l1.5117-3.3442
		c-3.4816,0.1376-10.8105,0.1836-15.7108,0.1836C193.5222,376.6709,193.5222,373.0055,193.5222,368.5165z"/>
	<path fill="#404065" d="M228.4749,367.9679c0-6.6884,0-10.444,0.182-16.9951h-4.2601c0.1836,6.5511,0.1836,10.3068,0.1836,16.9951
		c0,6.1842,0,9.7562-0.1836,15.8485h18.3692l1.5117-3.3442c-3.3903,0.1376-10.7649,0.1836-15.7112,0.1836
		C228.4749,376.2581,228.4749,372.9598,228.4749,367.9679z"/>
	<path fill="#404065" d="M260.8156,350.7451c-4.2597,10.0315-11.0385,25.0104-15.069,33.0713h3.8932
		c1.5116-3.2067,3.1606-6.8245,4.8558-10.4897h15.069c1.4657,3.5276,2.9317,7.1455,4.353,10.4897h4.4417
		c-4.7167-10.6733-9.9395-23.6361-13.5114-33.0713H260.8156z M255.8696,370.2574c2.3812-5.4962,4.8099-11.0386,6.5952-15.4816
		c1.741,4.5347,3.7571,9.9854,5.955,15.4816H255.8696z"/>
	<path fill="#404065" d="M289.3505,379.9236c-3.0233-8.4294-7.329-19.6516-11.1305-28.9508h-4.6722
		c4.6266,10.5817,9.8937,23.5903,13.3753,33.0272h4.3057c4.1224-9.9855,10.6716-24.8728,14.6121-33.0272h-4.3513
		C297.595,359.6301,292.6031,371.6315,289.3505,379.9236z"/>
	<path fill="#404065" d="M314.0002,368.5165c4.579,0,10.534,0.046,13.7406,0.1837v-3.4347
		c-3.1606,0.1376-9.0696,0.1836-13.7406,0.1836c0-3.9865,0-7.4667,0.0916-11.3153c5.0836,0,11.3135,0,14.1075,0.0916v-3.2526
		h-18.2772c0.1833,6.5511,0.1833,10.3068,0.1833,16.9951c0,6.1842,0,9.7562-0.1833,15.8485h18.3691l1.5117-3.3442
		c-3.4818,0.1376-10.8109,0.1836-15.7111,0.1836C314.0002,376.6709,314.0002,373.0055,314.0002,368.5165z"/>
	<path fill="#404065" d="M357.0585,350.9728c-2.5648,3.5278-7.3734,10.3524-10.1231,14.3387
		c-2.7024-4.032-7.6943-11.0402-10.0314-14.3387h-5.0376c4.0764,5.452,9.114,12.2769,12.7335,17.4077
		c0,4.671,0,10.1691-0.1833,15.4359h4.2597c-0.1836-5.2212-0.1836-10.8109-0.1836-15.3916c4.124-5.588,9.3909-12.4585,13.33-17.452
		H357.0585z"/>
	<polygon fill="#404065" points="195.7184,136.3174 227.0137,136.3174 227.0137,128 187.3884,128 187.3884,167.6191 
		195.7184,167.6191 	"/>
	<polygon fill="#404065" points="227.0137,254.4978 195.7184,254.4978 195.7184,223.1959 187.3884,223.1959 187.3884,262.8086 
		227.0137,262.8086 	"/>
	<polygon fill="#404065" points="322.2097,223.1959 313.8926,223.1959 313.8926,254.4978 282.597,254.4978 282.597,262.8086 
		322.2097,262.8086 	"/>
	<polygon fill="#404065" points="313.8926,167.6191 322.2097,167.6191 322.2097,128 282.597,128 282.597,136.3174 
		313.8926,136.3174 	"/>
	<path fill="#404065" d="M223.8577,196.4795c-3.6746-7.9248-11.7957-11.9348-11.7957-11.9348
		c-4.75,6.4767-7.59,14.6801-7.59,23.6169c0,20.8911,15.534,37.8545,34.6985,37.8545c5.4774,0,10.6509-1.385,15.2556-3.8519
		c4.592,2.4352,9.7277,3.795,15.1606,3.795c19.1646,0,34.7112-16.9508,34.7112-37.8481c0-17.6085-11.0308-32.4022-25.9573-36.6338
		c4.4841-2.8083,7.4695-7.7859,7.4695-13.4718c0-8.7792-7.1156-15.8944-15.8944-15.8944c-8.7727,0-15.8944,7.1152-15.8944,15.8944
		c0,5.5909,2.8967,10.5182,7.2736,13.3456c-9.3041,2.4918-17.1341,9.0635-21.7892,17.8674
		c-0.0065,0.0254-0.0253,0.038-0.0317,0.0635l-0.0253-0.0635C229.6262,187.2708,223.8577,196.4795,223.8577,196.4795z
		 M229.5692,236.0417c0.8037,1.9858,2.1066,3.9353,4.2294,4.7937c-2.1351-0.425-4.1929-1.0931-6.1456-1.9875
		C228.4665,238.1465,229.1019,237.2021,229.5692,236.0417z M223.5554,219.4368c2.6037-0.4016,4.6201-2.4526,5.824-5.7534
		c0.9855,2.5536,2.7255,4.9187,5.5751,5.6216c-0.3347,2.7378-1.5377,8.913-5.6888,8.913
		C224.3747,228.2179,223.6298,220.4072,223.5554,219.4368z M210.8599,219.3884c0.8195-0.2253,1.6762-0.6018,2.4858-1.2272
		c1.1703-0.8981,2.0369-2.1567,2.6312-3.7443c0.937,2.2784,2.5594,4.4836,5.3691,4.9937c-0.0037,3.8016-0.8945,6.4319-2.6493,7.8206
		c-1.1311,0.8965-2.4447,1.1133-3.3978,1.1282C213.4266,225.6644,211.9188,222.6459,210.8599,219.3884z M216.8406,230.4114
		c1.0221-0.1949,2.1497-0.6073,3.1971-1.4282c1.1574-0.9106,2.024-2.1755,2.6121-3.7568c0.9763,2.4006,2.6873,4.7212,5.673,5.1292
		c-0.001,3.5701-0.8291,6.0159-2.3903,7.0587c-0.1678,0.1128-0.342,0.202-0.5181,0.2814
		C222.1688,235.8491,219.2646,233.3762,216.8406,230.4114z M239.1705,241.3738c-0.8054,0-1.6006-0.0454-2.39-0.1139
		c3.3359-0.276,5.7664-3.1185,6.8844-7.9894c1.8305,2.2406,3.9011,4.2434,6.1692,5.959
		C246.5134,240.6211,242.9273,241.3738,239.1705,241.3738z M259.018,239.217c2.002-1.5244,3.8388-3.2837,5.5014-5.2224
		c1.2204,4.5248,3.6498,7.1104,6.9196,7.2659c-0.6133,0.0413-1.2298,0.0688-1.8524,0.0688
		C265.8738,241.3293,262.3004,240.5767,259.018,239.217z M293.4556,228.3171c-0.8877,0.085-2.6758,0.0732-4.1543-1.0986
		c-1.7557-1.3958-2.6471-4.0286-2.6495-7.8215c2.8063-0.512,4.4274-2.7151,5.3694-4.9863c0.5881,1.5813,1.4608,2.8335,2.6247,3.7318
		c1.0477,0.8075,2.175,1.207,3.1964,1.3905C296.7855,222.7198,295.2939,225.6732,293.4556,228.3171z M280.5842,239.0282
		c-2.2094,0.9594-4.5449,1.6376-6.9734,1.9965c2.473-0.7147,3.942-2.834,4.8116-4.9956
		C278.9401,237.3059,279.653,238.3154,280.5842,239.0282z M271.3478,222.3512c1.0622,4.6106,3.192,7.359,6.1744,7.9363
		l-0.0483-0.0012c0,0.0884-0.525,8.7853-5.7241,8.7853c-3.5403,0-4.9325-4.3706-5.4664-7.2856
		C268.3669,228.947,270.0775,225.7729,271.3478,222.3512z M273.0464,219.2913c2.843-0.7026,4.5822-3.0601,5.5722-5.6016
		c1.2056,3.3281,3.2062,5.3464,5.8243,5.7368c-0.0718,0.9436-0.805,8.7788-5.7042,8.7788
		C274.6,228.2053,273.3834,222.0098,273.0464,219.2913z M263.5529,227.6233c-1.3536-0.6133-11.7328-5.6923-11.7328-19.6133
		c0-14.895,11.2393-20.0372,11.2393-20.0372c3.8834,5.5975,6.1985,12.5927,6.1985,20.1888
		C269.2579,215.4291,267.1391,222.1395,263.5529,227.6233z M282.996,237.845c-0.3186-0.0996-0.6332-0.2375-0.9305-0.437
		c-1.5621-1.0437-2.3844-3.4851-2.3844-7.0651h-0.0002c2.9852-0.4076,4.6916-2.7284,5.6738-5.1292
		c0.582,1.5809,1.4482,2.8397,2.6059,3.7506c1.2738,1.0006,2.671,1.3998,3.8493,1.5315
		C289.3206,233.5077,286.3334,236.0059,282.996,237.845z M267.493,174.9685v-1.2584v-3.3776v-1.3597
		c-5.0469-1.1134-8.8105-5.5975-8.8105-10.9673c0-6.205,5.0285-11.2267,11.2332-11.2267s11.2328,5.0217,11.2328,11.2267
		c0,5.3698-3.7695,9.8539-8.8041,10.9673v1.4042v3.3331v1.3156c15.319,1.5308,27.3235,15.7616,27.3235,33.0854
		c0,3.2251-0.4243,6.339-1.2006,9.2874c-0.7928-0.1113-1.6884-0.3896-2.493-1.0144c-1.7332-1.3472-2.625-3.9087-2.6564-7.6213
		l-2.2137-0.0632c-0.0191,0.3539-0.6011,8.6082-5.718,8.6082c-4.2312,0-5.376-6.0214-5.6733-8.6082h-2.2137
		c-0.0225,0.3153-0.5123,6.8868-4.584,8.3198c0.6251-2.8424,0.9661-5.8057,0.9661-8.8577c0-10.0817-3.6179-19.2529-9.5252-26.0396
		c-6.1477,1.6761-17.6907,11.2837-17.6907,26.1787c0,14.9016,13.8261,23.1807,13.8261,23.1807l0.0126,0.1014
		c-1.8086,2.0049-3.8582,3.7633-6.0845,5.2179c-8.9243-5.7684-14.9139-16.4573-14.9139-28.6897
		C239.5057,190.5405,251.8519,176.1577,267.493,174.9685z M241.868,230.8579c-0.3932,2.7969-1.6688,8.2324-5.626,8.2324
		c-5.193,0-5.7115-8.7092-5.718-8.7979l-0.0324,0.0007c3.2416-0.6582,5.5328-3.9678,6.4498-9.3588
		C238.1287,224.5265,239.7977,227.8636,241.868,230.8579z M237.4438,193.7853c-1.6509,4.421-2.5618,9.2596-2.5618,14.3258
		c0,3.1494,0.3579,6.2065,1.0226,9.1313c-4.8217-0.7778-5.3818-8.2073-5.4058-8.5369l-2.2198-0.0443
		c-0.2089,2.0304-1.2523,8.6591-5.6736,8.6591c-5.1042,0-5.6859-8.2543-5.7115-8.6021l-2.2198,0.0631
		c-0.0253,3.7067-0.9236,6.2743-2.6564,7.6217c-0.5668,0.4414-1.179,0.7065-1.769,0.8655
		c-0.7457-2.8949-1.1533-5.9473-1.1533-9.1069c0-5.9326,1.4106-11.5111,3.8838-16.3372c0,0,1.8403,0.6642,4.5602,3.4851
		c3.9213,4.0605,4.0984,9.9679,4.0984,9.9679h3.6052C228.3865,194.3229,236.2421,193.8105,237.4438,193.7853z"/>
	<rect fill="none" width="512" height="512"/>
</g>
</svg>
