<?xml version="1.0" encoding="utf-8"?>
<!-- Generator: Adobe Illustrator 18.1.1, SVG Export Plug-In . SVG Version: 6.00 Build 0)  -->
<!DOCTYPE svg PUBLIC "-//W3C//DTD SVG 1.1//EN" "http://www.w3.org/Graphics/SVG/1.1/DTD/svg11.dtd">
<svg version="1.1" id="XMLID_1_" xmlns="http://www.w3.org/2000/svg" xmlns:xlink="http://www.w3.org/1999/xlink" x="0px" y="0px"
	 viewBox="0 0 512 512" enable-background="new 0 0 512 512" xml:space="preserve">
<g id="Medecins-sans-Frontieres">
	<path fill="#404065" d="M183.4527,211.5337c0.3457,0.2351,0.7388,0.3562,0.9338,0.6477c0.2856,0.4271,0.1716,0.5571,0.5527,0.6666
		c0.5862,0.1682,0.6565-0.0092,1.7307,0.0194c0.1631,0.0044,0.9077,0.1227,1.1289,0.076c0.3638-0.077,0.5793-0.288,0.8755-0.0955
		c0.1841,0.1193,0.1306,0.191,0.248,0.4005c0.1919,0.3428,1.2031,0.2933,1.4819,0.2661c1.0518-0.1008,1.9526-0.3704,2.4631-1.2194
		c0.1506-0.2506,0.7815-1.2872,1.5273-1.6117c0.3953-0.1716,0.4707-0.1002,0.6399-0.2438c0.3442-0.2935,0.7288-1.0919,0.8579-1.2727
		c0.1118-0.1581,0.9492-0.8976,1.4534-1.3678c2.4983-2.3312,5.8547-9.5608,5.0891-13.6111
		c-0.1646-0.8679-0.7954-3.7329-1.2773-4.4504c-0.2056-0.3069-0.5696-0.6144-0.686-0.9528
		c-0.0342-0.0994-0.0469-0.2012-0.0767-0.3049c-0.4658-1.6523-3.4072-5.2828-5.0732-5.297c-0.1711-0.0015-0.3223,0.0253-0.4727,0
		c-0.1416-0.0228-0.6987-0.3054-0.8757-0.3427c-0.1736-0.0365-0.9446,0.0018-1.106,0.0955
		c-0.6331,0.3447-1.2063,0.5682-1.9055,0.7428c-0.3203,0.0795-0.4436,0.0479-0.6777,0.222
		c-0.2153,0.1599-0.4165,0.4204-0.6157,0.5634c-0.1128,0.0809-0.6555,0.2662-0.9941,0.415
		c-2.9985,1.3153-6.416,5.3285-7.5276,8.2496c-0.3835,1.0081-2.0774,6.4165-2.0774,7.3925
		C179.0694,203.6913,180.4049,209.4608,183.4527,211.5337z"/>
	<path fill="#404065" d="M225.7428,261.7173c-0.9707,0.3064-3.748,1.1942-3.8311,1.5243c-0.0737,0.2963,0.7366,1.0861,0.9233,1.2675
		c0.5605,0.545,1.4404,1.3148,1.6809,1.5956c2.3457,2.819,3.9199,5.5486,5.1858,8.9891c0.0132,0.0377,25.9438-0.4175,26.1096-0.4587
		c12.6618-4.3214,23.5054-7.5267,36.4829-10.7839c0.5671-0.2051,0.9468-0.334,1.1433-0.7999
		c1.8301-4.3458-0.1348-12.9421-2.4399-16.6895c-0.6665-1.0842-1.4282-1.075-2.7632-0.7622
		c-2.5322,0.593-18.3662,3.9801-22.3745,4.8965C251.6068,253.8807,239.6844,257.2159,225.7428,261.7173z"/>
	<path fill="#404065" d="M199.4996,241.6998c-0.105,0.2793,0.1252,0.5178,0.2668,0.6415c0.2151,0.1881,3.8381,2.4945,4.1736,2.7627
		c0.2461,0.1943,0.4397,0.3762,0.6482,0.6099c1.0686,1.1952,1.0842,1.5549,2.0393,2.2478c1.0332,0.75,0.5764,0.4188,1.5432,1.4788
		c0.3103,0.3403,1.79,1.6112,2.0586,1.9122c0.3835,0.4307,0.4136,0.5111,0.8389,0.7627c0.1372,0.0815,6.6355,6.5183,6.7466,6.6676
		c0.5217,0.7059,1.1675,2.0271,1.9399,1.9437c0.1121-0.0126,16.3418-7.9073,17.2324-8.3826
		c4.1038-1.9592,7.583-3.5824,11.7214-5.468c6.606-2.9193,19.0766-8.542,20.3537-9.0691c1.1729-0.4844,1.7886-0.833,1.7148-1.9932
		c-0.2104-3.3247-4.1492-13.2048-7.4329-15.1729c-0.8042-0.4829-1.6609-0.1575-2.668,0.1328
		C252.168,223.2296,200.2598,239.6713,199.4996,241.6998z"/>
	<path fill="#404065" d="M124.9058,253.3915c0.1465,0.0499,0.3159,0.0601,0.4575,0.1145c0.1616,0.062,0.3188,0.189,0.4575,0.2288
		c0.4067,0.1169,0.4727-0.0121,0.667,0.2477c0.1282,0.1707,0.4094,0.9829,0.6289,1.1239c0.2183,0.1406,0.5251,0.1338,0.6289,0.2861
		c0.0161,0.0253,0.0278,0.048,0.0378,0.076c0.0608,0.146,0.3511,2.1198,0.3511,2.3831c0.0005,0.1819-0.1077,1.2523,0.1638,1.4459
		c0.2314,0.1658,0.8071,0.0325,1.0671-0.038c1.0935-0.2933,1.0371-0.7365,2.363-1.6382l3.2783-1.8484
		c0.1968-0.1304,0.6567-0.2957,0.7241-0.3616c0.0747-0.0878,0.1318-0.1674,0.1907-0.2667c0.2144-0.3035,0.5139-0.3865,0.991-0.5338
		c0.4307-0.1318,0.449-0.0093,0.915,0.3434c0.9575,0.7252,1.7412,1.2402,2.8586,0.4193c0.4998-0.3165,0.9363-0.5605,1.4675-0.8195
		c34.9092-16.5599,65.8752-27.4879,103.4475-36.5045c0.6848-0.1277,6.3618-1.5089,6.4988-1.5812
		c0.8181-0.433,0.6047-1.3507,0.3333-2.4237c-0.0256-0.0994-0.0242-0.1213,0.0095-0.2183l0.6484-1.8419
		c0.0212-0.0494,0.0337-0.0931,0.042-0.146c0.0464-0.4072-0.1885-0.3922-0.3665-0.6481c-0.1433-0.2076-0.1697-1.0754-0.1899-1.1428
		c-0.033-0.1038-0.0796-0.1863-0.1523-0.2672c-0.3254-0.3864-0.8218-0.7379-0.9531-1.0283
		c-0.0525-0.1149-0.1775-1.8318-0.2288-1.9437c-0.0549-0.1178-0.271-0.3511-0.4092-0.5406
		c-0.0366-0.0475-0.0623-0.0907-0.0864-0.1449c-0.0698-0.1639-0.1265-0.6235-0.1692-0.677
		c-0.0535-0.0673-0.2439-0.1385-0.2886-0.1997c-0.031-0.0432-0.0544-0.208-0.0457-0.3273c0.0303-0.4159,0.1011-0.6172-0.1443-0.8538
		c-0.3899-0.3752-0.5852-0.3119-0.7244-0.7622c-0.2656-0.8582-1.6895-1.2911-2.688-1.1428
		c-0.1838,0.0271-1.2456,0.4878-1.6384,0.5906c-0.3899,0.0664-0.7249,0.0945-1.1204,0.0951
		c-1.0647-0.0364-1.073-0.0447-2.3101,0.4761c-0.2886,0.1221-9.187,2.6498-10.5962,3.0104
		c-37.2119,10.7137-67.6323,23.3964-101.4331,42.2885c-0.5415,0.3302-1.5728,0.941-1.958,1.437
		c-0.3872,0.4985-0.4656,0.8785-0.8188,1.1239c-0.1262,0.0878-0.5591,0.238-0.877,0.3811c-0.126,0.0568-1.1372,0.8751-1.2002,0.9716
		c-0.0825,0.1256-0.2148,0.4709-0.0386,0.724C124.741,253.3226,124.8302,253.3662,124.9058,253.3915z"/>
	<path fill="#404065" d="M160.6212,301.2896c0.1194-0.4651,0.2644-1.4473,0.3623-1.7339c0.0801-0.2356,0.3921-0.7878,0.6099-1.2194
		c0.1746-0.3477,0.7957-2.1619,1.219-3.1627c0.1453-0.3436,0.2996-0.6549,0.4197-0.991c0.1951-0.5459,0.3779-1.4675,0.5522-1.9432
		l8.8816-22.158l4.3074-10.4596c0.6494-2.0549,0.5713-2.6144,1.7339-4.5726c0.1812-0.3055,1.5718-4.6904,1.6199-5.0308
		c0.0872-0.6119,0.6638-1.3407,0.064-1.4852c-0.2715-0.0654-0.8291,0.0874-1.1311,0.1907c-0.803,0.2972-1.4717,0.5745-2.2488,0.9338
		c-23.5212,10.9211-43.0815,20.7863-65.8462,33.2081c-1.5771,0.8892-2.8916,1.6698-4.427,2.6288
		c-1.0654,0.608-1.6494,1.6877-1.5762,2.9115c0.2952,3.9579,1.2483,7.2616,3.1069,10.7684c0.6621,1.1689,1.5178,1.056,2.8774,0.7051
		c0.2966-0.0771,6.5352-2.5493,8.6519-3.4294l16.3337-5.7352c0.1243-0.0382,0.2322-0.061,0.3616-0.0756
		c0.0156-0.001,0.002,0.0334-0.0159,0.0597c-0.0315,0.045-0.0906,0.0673-0.1445,0.0823
		c-0.1711,0.0471-24.6199,13.0105-26.6282,14.0253l-8.0879,4.5609c-0.9565,0.5522-1.5225,1.4565-1.6006,2.5581
		c-0.2166,3.3293,1.769,7.9365,3.8687,10.7596c0.5742,0.7725,1.8848,2.469,2.9922,2.7627c0.5735,0.1519,1.0244-0.001,1.5249-0.1522
		c0.2544-0.0776,25.1824-11.7584,28.3391-13.28c8.1521-3.5869,15.0479-6.5841,23.2322-10.0974
		C160.4044,301.74,160.5247,301.6648,160.6212,301.2896z"/>
	<path fill="#404065" d="M213.1676,300.2242c0.0166-0.0372-0.2871-0.6187-0.3843-0.8591c-0.1113-0.2738-0.1021-0.9711-0.0674-1.1257
		c0.041-0.1876-0.0303-0.1945-0.104-0.4106c-0.0251-0.0732,0.0552-0.5367,0.0378-0.7646c-0.0076-0.1008-0.3899-0.8596-0.4187-1.0133
		c-0.0293-0.1484,0.0234-0.5092,0-0.7627c-0.0166-0.1377-0.0454-0.2522-0.0957-0.381l-1.6011-4.8394l-0.6694-2.1643
		c-0.0562-0.1785-1.0981-1.8774-1.1597-2.0656c-1.1406-3.4603-4.7153-9.2252-8.3667-11.5267
		c-0.1201-0.0756-1.1118-1.2794-1.2703-1.3972c-0.2075-0.1543-0.8271-0.437-0.9216-0.5271
		c-0.2783-0.2643-0.4858-0.7559-0.9219-0.6473c-0.094,0.0228-0.166,0.0723-0.2219,0.1519c-0.092,0.1183-1.1702,2.8151-1.3528,3.1437
		c-0.1948,0.3496-0.4517,0.702-0.5527,0.9338c-0.1519,0.4242-0.248,0.7942-0.3237,1.2383
		c-1.0571,4.2556-9.0132,17.8535-11.0347,21.663l-7.5471,14.2128c-1.3872,2.2046-1.2422-0.0643-1.7344-0.2855
		c-0.6736-0.303-0.5276,0.2177-0.9148,0.4956c-0.478,0.3422-1.6523,0.5696-2.1348,0.5522c-0.0708-0.0024-0.8652,0.4324-1.0793,0.495
		c-0.2507,0.0737-0.468,0.0232-0.4834-0.2473c-0.0063-0.1178,0.093-0.4456,0.115-0.6289c0.0188-0.1605-0.0396-0.2676-0.1528-0.3811
		c-0.1616-0.1619-0.2241-0.0581-0.5337,0.0951c-0.2935,0.1454-0.3264,0.0209-0.5334-0.2667
		c-0.2258-0.3116-2.7366-0.8838-3.0115-0.7616c-0.3621,0.1604-1.0059,0.7637-1.2769,0.4c-0.106-0.1426-0.0645-0.5005-0.1143-0.7627
		c-0.0356-0.223-0.2065-0.3893-0.4309-0.4189c-0.4294-0.0204-0.782,0.1814-0.865,0c-0.1357-0.2952,0.001-0.462-0.1714-0.5905
		c-0.0815-0.0607-0.6436-0.2061-0.7241-0.2667c-0.2207-0.1639-0.2168-0.3801-0.4575-0.4955
		c-0.0505-0.0228-0.0972-0.0349-0.1523-0.0378c-0.5439-0.047-0.8267,0.1124-1.1021-0.0446
		c-0.3157-0.1786-0.5098-0.5964-0.6328-1.0798c-0.0955-0.3772-0.1802-1.326-0.2283-1.4094c-0.0344-0.0602-0.1357-0.101-0.2095-0.115
		c-0.179-0.0328-0.5444,0.1339-0.7249,0.2101c-0.3162,0.1337-9.7744,5.4346-10.0625,5.6392
		c-1.0081,0.7185-1.3677,1.0861-1.4866,2.2294c-0.3308,3.182,1.2537,12.4805,5.6414,13.6984
		c0.5854,0.1628,0.9453,0.0087,1.4863-0.2283l43.4526-21.2626c1.4729-0.7356,14.146-6.7035,14.4844-6.8208
		C212.3238,300.7354,213.1463,300.2728,213.1676,300.2242z"/>
	<path fill="#404065" d="M256.991,284.3602c0.1292-0.3834,0.2551-0.7133,0.387-0.9896h5.7847c0.384,0,1.4001,0.031,2.9905,0.123
		l1.0391-3.7124h-12.5935c-2.1963,8.5284-4.1682,15.3091-5.8569,20.3092h12.5935l1.1145-4.0188l0,0l0,0
		c-0.9607,0.1073-1.9841,0.1841-3.0713,0.2339c-1.0874,0.0499-2.2383,0.0729-3.4541,0.0729c-0.896,0-1.6821-0.0304-2.3909-0.0615
		l0.1052-0.4291c0.2188-0.8896,0.4731-1.7183,0.72-2.5159l0.6482-2.1168h5.6055c0.7932,0,1.6125,0,2.4092,0.0922l1.0439-3.8352l0,0
		l0,0c-0.4761,0.0615-0.9507,0.0924-1.428,0.1078c-0.4773,0.0155-0.9573,0.0154-1.4438,0.0154h-5.1699l0.5588-1.9636
		C256.7291,285.1807,256.8619,284.7437,256.991,284.3602z"/>
	<path fill="#404065" d="M231.0655,307.3781c-0.0029-0.5703-0.0283-1.1254-0.0132-1.7035l0,0h-5.1089l0,0
		c-0.2632,0.5476-0.5093,1.0267-0.7354,1.4374s-0.4321,0.7528-0.6147,1.0265l-11.3682,17.6727l0,0h3.8838
		c0.5813-1.2169,1.1108-2.2206,1.6455-3.042l3.1084-4.9274h5.876l0.3281,5.5964c0.0295,0.3958-0.0378,1.1865-0.1523,2.3729h4.0874
		l-0.9233-16.7296C231.0484,308.5341,231.0684,307.9484,231.0655,307.3781z M223.7149,314.5869l3.7747-6.1749l0.2874,6.1749
		H223.7149z"/>
	<path fill="#404065" d="M254.0465,306.7467c0.1226-0.3574,0.2388-0.7072,0.3672-1.0721l0,0h-3.4998
		c-0.0979,0.3951-0.1702,0.7908-0.2605,1.1562c-0.158,0.6388-0.3213,1.2471-0.4858,1.8363
		c-0.1648,0.5892-0.3311,1.1593-0.4958,1.722l-3.467,12.167l-2.1116-16.8816h-5.6204c-0.6519,2.327-1.2603,4.4924-1.8293,6.4957
		c-1.7068,6.0098-3.0569,10.5608-4.1438,13.6409l0,0h3.4995c0.2419-0.928,0.499-1.9165,0.7798-2.9622
		c0.2808-1.0455,0.5852-2.1482,0.9219-3.3041l3.0962-10.7671l1.3882,11.4363c0.1133,0.9885,0.2295,1.9391,0.3228,2.8667
		c0.0933,0.9277,0.1636,1.8326,0.1846,2.7303l0,0h5.9004l0,0c0.1016-0.411,0.1929-0.8064,0.2788-1.1791
		c0.0857-0.3726,0.166-0.7223,0.2449-1.0415c0.1167-0.4716,0.2263-0.8898,0.3281-1.2625c0.1018-0.3726,0.1953-0.6997,0.2795-0.9886
		l3.3196-11.4672C253.3304,308.8683,253.6785,307.819,254.0465,306.7467z"/>
	<path fill="#404065" d="M356.9156,309.051l0.988-3.3765h-13.4631l-1.0132,3.3765l0,0l0,0c0.9807-0.0913,1.9238-0.137,2.8369-0.1597
		c0.3042-0.0076,0.6184-0.0227,0.9121-0.0227c0.4089,0,0.8181,0,1.2185,0.0305c-1.5227,5.7484-3.2532,11.406-5.1755,16.912l0,0
		h3.9849c0.1167-0.5784,0.2676-1.1864,0.4253-1.8254c0.3159-1.2771,0.7024-2.7374,1.1772-4.3496l3.114-10.7369
		c0.5183-0.0305,1.0291-0.0305,1.5657-0.0305C354.6358,308.8687,355.7706,308.9293,356.9156,309.051z"/>
	<path fill="#404065" d="M375.8643,313.3395c-0.4749,0.061-0.9487,0.0917-1.425,0.1069c-0.4763,0.0154-0.9553,0.0153-1.4407,0.0153
		h-5.1604l0.5576-1.9471c0.2917-0.9731,0.531-1.7334,0.7942-2.2812h5.7729c0.0957,0,0.231,0.002,0.4048,0.0062
		c0.5215,0.0129,1.3896,0.0471,2.5796,0.1155l1.0376-3.6804l0,0h-12.5688l0,0c-1.0959,4.2278-2.136,8.0225-3.1128,11.3799
		c-0.9766,3.3574-1.8901,6.2777-2.7329,8.7567h12.5688l0,0l1.1125-3.985c-1.9177,0.2134-4.0857,0.3044-6.5125,0.3044
		c-0.8945,0-1.6792-0.0309-2.387-0.0609l0.1057-0.4258c0.2183-0.882,0.4722-1.7032,0.7185-2.4945l0.6467-2.0984h5.5942
		c0.792,0,1.6099,0,2.4048,0.0911l0,0l0,0L375.8643,313.3395z"/>
	<path fill="#404065" d="M413.6439,308.9633c0.5632-0.3536,1.321-0.5513,2.2534-0.5513c0.2683,0,0.5371,0.0228,0.8093,0.0662
		c0.8169,0.1299,1.6636,0.4437,2.6104,0.8768l0.6831-3.5889c-1.4321-0.3044-2.7917-0.4873-4.1206-0.4873l0,0l0,0
		c-0.9326,0-1.7798,0.114-2.5381,0.3336c-1.8958,0.549-3.2363,1.7574-3.9631,3.4917c-0.1453,0.3469-0.2664,0.7148-0.3621,1.1027
		c-0.1279,0.5171-0.1938,0.9905-0.1997,1.4368c-0.0125,0.8925,0.2144,1.6766,0.6636,2.4856
		c0.2244,0.4044,0.5044,0.8151,0.8381,1.2485l2.8455,3.681c0.1201,0.1597,0.2207,0.3213,0.302,0.4823
		c0.0811,0.1611,0.1428,0.3217,0.1853,0.4794c0.0845,0.3156,0.0923,0.6196,0.0249,0.8933
		c-0.0752,0.3042-0.2061,0.5819-0.3872,0.8271c-0.1812,0.2454-0.4128,0.4581-0.6892,0.6331
		c-0.5527,0.3499-1.2849,0.5476-2.1533,0.5476c-1.2004,0-2.7844-0.5173-4.5759-1.6427l-0.7578,3.8933
		c0.8462,0.608,2.5396,1.0947,4.7622,1.0947l0,0l0,0c2.3792,0,4.3508-0.8555,5.6841-2.2618
		c0.2666-0.2814,0.5076-0.5846,0.7212-0.9075c0.4277-0.6459,0.7456-1.3701,0.939-2.1533c0.1187-0.4791,0.1763-0.9315,0.1753-1.3674
		c-0.001-0.4358-0.0601-0.8552-0.1753-1.2677c-0.2305-0.8251-0.6843-1.6235-1.3423-2.4751l-3.1055-4.0756
		c-0.2671-0.3651-0.3337-0.8214-0.2129-1.3082C412.712,309.8264,413.0806,309.3169,413.6439,308.9633z"/>
	<path fill="#404065" d="M360.3721,315.6058l1.6729-5.7335c0.3818-1.3386,0.8555-2.7375,1.3696-4.1978l0,0h-3.96l0,0
		c-2.2827,8.8212-4.2759,15.5432-5.8711,20.1366l0,0h4.0107l0,0c0.1304-0.5782,0.2573-1.1183,0.3762-1.6125
		s0.2297-0.9429,0.3274-1.3383c0.1128-0.4564,0.209-0.8298,0.3047-1.1749c0.0322-0.115,0.0642-0.2394,0.0967-0.3459
		L360.3721,315.6058z"/>
	<path fill="#404065" d="M318.5753,305.9199c-1.082-0.443-2.4019-0.6711-3.9539-0.6711c-2.2417,0-4.2976,0.5861-6.0798,1.6747
		s-3.291,2.6798-4.438,4.6903c-0.7646,1.3403-1.3687,2.8671-1.7861,4.5553c-0.7932,3.209-0.5596,5.7258,0.645,7.4404
		c0.6023,0.8573,1.4473,1.5139,2.5283,1.9564c0.5405,0.2212,1.1399,0.3889,1.7974,0.5012s1.373,0.1693,2.146,0.1693l0,0l0,0
		c0.7471,0,1.4736-0.0651,2.1763-0.1921c4.9189-0.8895,8.667-4.8149,10.1204-10.697
		C322.9263,310.5112,321.8216,307.2488,318.5753,305.9199z M317.866,315.3777c-0.4426,1.7908-1.1028,3.2694-1.9573,4.4181
		c-1.4238,1.9146-3.3865,2.9128-5.7812,2.9128c-1.322,0-2.356-0.338-3.0771-0.9802c-0.2407-0.2141-0.4463-0.4619-0.6167-0.7424
		c-0.6807-1.1217-0.792-2.7644-0.2769-4.8479c0.5864-2.3724,1.5566-4.205,2.8467-5.4445s2.8997-1.886,4.7646-1.886
		c2.3308,0,3.76,0.903,4.2471,2.6199c0.1948,0.6868,0.2393,1.5038,0.1299,2.4453
		C318.0904,314.3435,317.9976,314.8453,317.866,315.3777z"/>
	<path fill="#404065" d="M285.7623,313.3395L285.7623,313.3395c-0.4075,0.0458-0.8494,0.0764-1.3267,0.0955
		c-0.4775,0.0192-0.9902,0.0267-1.5391,0.0267h-4.1641l0.5581-1.9471c0.2915-0.9731,0.5303-1.7334,0.7932-2.2812h4.752
		c0.3831,0,1.3972,0.0305,2.9841,0.1217l0,0l0,0l0.5317-1.8402l0.5317-1.8402l0,0h-11.5728l0,0
		c-0.8223,3.1709-1.6128,6.0981-2.3687,8.7799c-1.26,4.4697-2.4238,8.2579-3.4773,11.3567h3.8574
		c0.1628-0.7607,0.3435-1.491,0.5237-2.2206c0.3906-1.582,0.8032-3.0419,1.2251-4.4412l0.3232-1.0492l0.3232-1.0492h4.5986
		c0.396,0,0.792,0,1.1882,0.0114s0.7932,0.0342,1.1904,0.0797L285.7623,313.3395L285.7623,313.3395z"/>
	<path fill="#404065" d="M288.0338,279.7812c-0.5491,2.1321-1.084,4.155-1.6042,6.0681c-0.26,0.9567-0.5164,1.8857-0.7688,2.7874
		c-0.5051,1.8033-0.9946,3.4966-1.4678,5.0792c-0.2368,0.7914-0.4692,1.5552-0.6978,2.2911
		c-0.4568,1.4722-0.8965,2.8334-1.3188,4.0834l0,0h12.594l1.1145-4.0188l0,0l0,0c-0.9607,0.1073-1.9841,0.1841-3.0713,0.2339
		c-1.0874,0.0499-2.2383,0.0729-3.4541,0.0729c-0.448,0-0.8687-0.0076-1.2656-0.019c-0.3972-0.0115-0.771-0.027-1.1255-0.0425
		l0.1055-0.4291c0.2188-0.8896,0.4731-1.7183,0.72-2.5159l0.6477-2.1168h5.6055c0.7935,0,1.613,0,2.4092,0.0922l1.0439-3.8352
		c-0.9512,0.1232-1.8982,0.1232-2.8713,0.1232h-5.1704l0.5591-1.9636c0.2922-0.9818,0.532-1.7483,0.7957-2.301h5.7847
		c0.1919,0,0.542,0.0077,1.043,0.027c0.5005,0.0193,1.1523,0.05,1.9475,0.0961l1.0391-3.7124H288.0338L288.0338,279.7812z"/>
	<path fill="#404065" d="M344.5147,289.5679l2.8513,3.712c0.4814,0.6443,0.6487,1.3192,0.5134,1.8715
		c-0.3015,1.2271-1.4956,2.0248-3.2363,2.0248c-1.2029,0-2.7898-0.5219-4.5842-1.6569l-0.7595,3.9269
		c0.2119,0.1533,0.4766,0.2991,0.7898,0.4314c0.6262,0.2646,1.4446,0.4758,2.4155,0.5872c0.4856,0.0557,1.009,0.0864,1.5657,0.0864
		l0,0l0,0c0.9536,0,1.8418-0.1381,2.6499-0.3945c2.4238-0.7694,4.1272-2.6045,4.7092-4.9747
		c0.3562-1.4495,0.1628-2.6572-0.512-3.8954c-0.2249-0.4127-0.5034-0.8289-0.833-1.2584l-3.1123-4.1111
		c-0.2676-0.368-0.3335-0.8281-0.2134-1.3187c0.0774-0.3145,0.2083-0.6001,0.3906-0.8518c0.1821-0.2517,0.4155-0.4692,0.6978-0.6477
		c0.5642-0.3567,1.3235-0.5563,2.2578-0.5563c0.2686,0,0.5381,0.0231,0.811,0.0667c0.8184,0.131,1.667,0.4475,2.6152,0.8845
		l0.6851-3.6199c-1.4351-0.3069-2.7979-0.4911-4.1289-0.4911c-1.4014,0-2.6108,0.2589-3.6157,0.7474
		c-1.6748,0.8143-2.7812,2.2667-3.2612,4.2222c-0.1282,0.5216-0.1943,0.9991-0.2004,1.4492
		c-0.0061,0.4502,0.0476,0.8729,0.1592,1.2852C343.3922,287.9111,343.8465,288.6935,344.5147,289.5679z"/>
	<path fill="#404065" d="M299.2735,290.3965c-0.2024,0.8245-0.3433,1.6014-0.4224,2.33c-0.2383,2.1855,0.0767,3.9349,0.9395,5.2206
		c0.8623,1.2856,2.2725,2.1078,4.2251,2.4384c0.6509,0.1102,1.3618,0.1658,2.1331,0.1658c0.7424,0,1.4978-0.0537,2.2639-0.1382
		c0.7664-0.0845,1.5435-0.1996,2.3286-0.3225l0.7078-2.1013l0.7078-2.1013l0,0l0,0c-1.6562,0.4906-3.1494,0.7361-4.481,0.7361
		c-0.5151,0-0.9912-0.0364-1.4282-0.1088c-1.7471-0.2893-2.8647-1.1528-3.3257-2.5562c-0.3459-1.0525-0.3223-2.4086,0.0815-4.0537
		c0.2788-1.1351,0.6709-2.1514,1.1636-3.0372c0.9854-1.7716,2.3735-3.0216,4.0659-3.6582c0.4229-0.1591,0.8647-0.2799,1.3242-0.361
		c0.4595-0.0809,0.9365-0.1222,1.4292-0.1222c1.1199,0,2.1108,0.1556,3.0049,0.3982c0.5364,0.1456,1.0464,0.3148,1.5044,0.522l0,0
		l0,0l0.3977-1.9329l0.3977-1.9327c-0.8198-0.1533-1.5659-0.2681-2.2383-0.3447c-0.6724-0.0765-1.2705-0.1149-1.7954-0.1149l0,0l0,0
		c-3.353,0-6.1602,0.9818-8.3481,2.8569c-1.6411,1.4065-2.9346,3.3153-3.8486,5.6897
		C299.7557,288.6598,299.493,289.5029,299.2735,290.3965z"/>
	<path fill="#404065" d="M391.9053,312.9373c0.314-0.5879,0.5559-1.2249,0.7251-1.9092c0.594-2.4028,0.1978-4.1061-0.8994-4.8362
		c-0.1807-0.1217-0.3794-0.215-0.5962-0.2863c-0.4333-0.1427-0.938-0.1979-1.5098-0.2188
		c-0.2861-0.0105-0.5889-0.0123-0.9082-0.0123l0,0h-7.5361c-2.2676,8.7601-4.2612,15.4825-5.8457,20.1366h3.9597
		c0.9712-3.6199,1.5005-5.6581,1.6465-6.1444l2.1877-7.8173c0.1406-0.5171,0.2944-1.0114,0.46-1.4867
		c0.1653-0.4752,0.3418-0.9315,0.5276-1.3724c0.8069-0.061,1.5554-0.0912,2.1941-0.0912c0.2969,0,0.5713,0.0056,0.8232,0.0195
		c0.7556,0.0416,1.3083,0.1572,1.6592,0.4137c0.468,0.3422,0.5769,0.9352,0.3286,1.9391c-0.2559,1.0339-0.7625,1.8171-1.521,2.3418
		c-0.7588,0.5247-1.7695,0.7909-3.0342,0.7909c-0.4854,0-0.9634-0.03-1.4517-0.1217l1.2634,11.5287h4.0103
		c-0.2498-1.521-0.4714-3.0266-0.6711-4.5171c-0.2-1.4905-0.3779-2.9658-0.541-4.4259c0.7339-0.2814,1.3994-0.616,1.9951-1.0023
		C390.3636,315.093,391.2779,314.1132,391.9053,312.9373z"/>
	<path fill="#404065" d="M301.3726,306.1919c-0.1807-0.1217-0.3799-0.215-0.5964-0.2863c-0.4333-0.1427-0.9377-0.1979-1.5095-0.2188
		c-0.2861-0.0105-0.5889-0.0123-0.9084-0.0123h-7.5359l0,0c-0.8506,3.285-1.6624,6.2836-2.4287,8.9939
		c-1.2769,4.5171-2.4272,8.2339-3.4177,11.1427h3.9597l0,0c0.3645-1.3574,0.6665-2.4924,0.9097-3.4066
		c0.0811-0.3048,0.1553-0.585,0.2236-0.8407c0.272-1.0228,0.4409-1.6539,0.5137-1.8971l2.1877-7.8173
		c0.1404-0.5171,0.2944-1.0114,0.4597-1.4867c0.1655-0.4752,0.3423-0.9315,0.5278-1.3724c0.8069-0.061,1.5552-0.0912,2.1938-0.0912
		c0.8911,0,1.5789,0.0513,2.0645,0.2212c0.8093,0.2833,1.0569,0.8964,0.7468,2.1511c-0.2556,1.0339-0.762,1.8171-1.5208,2.3418
		s-1.7695,0.7909-3.0342,0.7909c-0.4854,0-0.9636-0.03-1.4519-0.1217l1.2637,11.5287h4.0105
		c-0.25-1.521-0.4717-3.0266-0.6719-4.5171c-0.1997-1.4905-0.3779-2.9658-0.5405-4.4259c0.7336-0.2814,1.3989-0.616,1.9951-1.0023
		c1.1919-0.7728,2.1064-1.7527,2.7339-2.9286c0.314-0.5879,0.5559-1.2249,0.7251-1.9092
		C302.8658,308.6252,302.4698,306.922,301.3726,306.1919z"/>
	<path fill="#404065" d="M262.2061,305.2788L262.2061,305.2788L262.2061,305.2788c-1.8647,0-3.3889,0.4563-4.5427,1.3004
		c-0.2883,0.2111-0.554,0.4463-0.7957,0.7047c-0.7251,0.7754-1.2378,1.7593-1.5254,2.9229
		c-0.1277,0.5171-0.1934,0.9905-0.1997,1.4368c-0.0181,1.3387,0.5015,2.4338,1.5017,3.7341l2.8459,3.681
		c0.1802,0.2395,0.3018,0.4819,0.3943,0.7219c0.1541,0.4,0.2019,0.7909,0.1174,1.1331c-0.1128,0.4563-0.3867,0.8264-0.7317,1.1437
		c-0.3452,0.3173-0.7617,0.5818-1.303,0.7216c-0.3606,0.0931-0.7607,0.1426-1.1951,0.1426c-1.2004,0-2.7839-0.5173-4.5754-1.6427
		l-0.7578,3.8933c0.8462,0.608,2.5391,1.0947,4.7622,1.0947c1.4272,0,2.708-0.308,3.792-0.8582
		c0.7229-0.3668,1.3584-0.8412,1.8916-1.4037c0.7998-0.8439,1.3701-1.886,1.6604-3.0608c0.1184-0.4791,0.176-0.9315,0.175-1.3674
		c-0.0024-1.3075-0.5308-2.4653-1.5176-3.7428l-3.105-4.0756c-0.2676-0.3651-0.3337-0.8214-0.2134-1.3082
		c0.3083-1.2474,1.4744-2.0382,3.3391-2.0382c0.5364,0,1.0759,0.0914,1.6389,0.255s1.1499,0.3993,1.7808,0.688l0.6831-3.5889
		c-0.7161-0.1522-1.4141-0.2739-2.0991-0.3578C263.5421,305.3246,262.8702,305.2788,262.2061,305.2788z"/>
	<path fill="#404065" d="M339.5298,305.6746c-0.0972,0.3951-0.1697,0.7908-0.2598,1.1562
		c-0.1577,0.6388-0.3208,1.2471-0.4858,1.8363c-0.1648,0.5892-0.3315,1.1593-0.4966,1.722l-3.4666,12.1672l-2.1116-16.8818l0,0
		h-5.6201l0,0c-0.3262,1.1635-0.6411,2.2866-0.9458,3.3693c-0.9143,3.2479-1.7354,6.1316-2.4751,8.6495
		c-0.9863,3.3573-1.8281,6.0645-2.5527,8.1178l0,0h3.4998c0.4844-1.856,1.0291-3.9543,1.7024-6.2662l3.0957-10.7673l1.3882,11.4365
		c0.2263,1.9772,0.4653,3.8016,0.5066,5.597h5.9016c0.1016-0.411,0.1929-0.8064,0.2783-1.1791
		c0.0857-0.3726,0.1658-0.7223,0.2446-1.0415c0.1167-0.4716,0.2266-0.8898,0.3281-1.2625c0.1016-0.3726,0.1953-0.6997,0.2795-0.9886
		l3.3196-11.4672c0.1912-0.6693,0.4053-1.3538,0.6357-2.0533s0.4771-1.4143,0.7341-2.1444H339.5298L339.5298,305.6746z"/>
	<path fill="#404065" d="M321.5023,296.4901c-0.425,1.3647-0.8174,2.5649-1.1804,3.6003h3.5068
		c0.2424-0.9358,0.5-1.9327,0.7812-2.9874c0.2815-1.0546,0.5864-2.1667,0.9238-3.3325l3.1016-10.8593l1.3911,11.5342
		c0.2275,1.9943,0.4663,3.8351,0.5088,5.645l0,0h5.9126c0.1016-0.4143,0.1929-0.813,0.2788-1.1887s0.1663-0.7285,0.2451-1.0507
		c0.1172-0.4757,0.2271-0.8975,0.3286-1.2732c0.1021-0.3757,0.1958-0.7056,0.28-0.9969l3.3264-11.5656
		c0.1917-0.6749,0.406-1.3652,0.6367-2.0709c0.231-0.7057,0.4785-1.4268,0.7361-2.1632h-3.5071
		c-0.0977,0.3989-0.1702,0.7975-0.2607,1.166c-0.1582,0.6442-0.3213,1.2578-0.4866,1.8522
		c-0.1653,0.5945-0.3323,1.1697-0.4973,1.7372l-1.7368,6.1357l-1.7368,6.1355l-1.0579-8.5132l-1.0579-8.5134l0,0h-5.6318
		c-0.9795,3.5204-1.8618,6.674-2.6587,9.4594c-0.531,1.8568-1.0244,3.5502-1.4829,5.0791
		C321.9356,295.0842,321.7149,295.8077,321.5023,296.4901z"/>
	<path fill="#404065" d="M396.001,319.1494l0.6465-2.0984h5.5945c0.7922,0,1.6091,0,2.4043,0.0911l1.0422-3.8026l0,0l0,0
		c-0.4751,0.061-0.949,0.0917-1.4253,0.1069c-0.4766,0.0154-0.9553,0.0153-1.4404,0.0153h-5.1602l0.5576-1.9471
		c0.292-0.9731,0.5303-1.7334,0.7937-2.2812h5.7737c0.1914,0,0.5405,0.0076,1.0405,0.0266c0.4998,0.019,1.1499,0.0494,1.9434,0.0951
		l0,0l0,0l1.0376-3.6804l0,0h-12.5686c-1.3704,5.2848-2.6531,9.8927-3.8337,13.8159c-0.7085,2.354-1.3801,4.4614-2.0122,6.3207l0,0
		h12.5688l0,0l1.1128-3.985c-1.9175,0.2134-4.0859,0.3044-6.5129,0.3044c-0.894,0-1.6785-0.0309-2.3865-0.0609l0.1052-0.4258
		C395.5001,320.762,395.7542,319.9407,396.001,319.1494z"/>
	<path fill="#404065" d="M315.2559,293.9745c-0.7061,2.3395-1.3616,4.3787-1.9609,6.116l0,0h4.0188
		c0.1304-0.5828,0.2578-1.1272,0.3772-1.6257c0.1191-0.4985,0.2305-0.9512,0.3281-1.3502c0.1509-0.6134,0.271-1.104,0.4016-1.5336
		l3.3523-11.5656c0.3828-1.3499,0.8574-2.7612,1.3726-4.2341l0,0h-3.9675c-1.1433,4.4484-2.2146,8.3676-3.1997,11.7537
		C315.732,292.3815,315.4913,293.1946,315.2559,293.9745z"/>
	<path fill="#404065" d="M279.9749,295.5697c1.3083-1.7274,2.3169-3.9004,2.9382-6.4314c0.2224-0.9052,0.3672-1.7545,0.437-2.5444
		c0.0703-0.79,0.0657-1.5205-0.0105-2.1876c-0.1521-1.3344-0.5906-2.4155-1.2908-3.2131c-0.884-1.0127-2.0181-1.3004-3.437-1.3811
		c-0.4727-0.0269-0.9771-0.0308-1.5146-0.0308l0,0h-7.6792l0,0c-0.8521,3.3132-1.6655,6.3375-2.4331,9.071
		c-1.2798,4.556-2.4321,8.3046-3.4243,11.2382h7.7812l0,0c2.064,0,3.9741-0.5909,5.6431-1.6857
		C278.0975,297.675,279.1026,296.7214,279.9749,295.5697z M268.5303,296.5317l0.2861-1.1656
		c0.2632-1.0739,0.5376-2.0862,0.8193-3.1292l2.5173-8.8964h3.1228c0.8574,0,1.5806,0,2.1709,0.1111
		c0.2949,0.0557,0.5571,0.1389,0.7859,0.264c0.2288,0.125,0.4246,0.2917,0.5876,0.514c0.1763,0.2454,0.3145,0.5369,0.4131,0.8734
		c0.197,0.673,0.2363,1.5265,0.1099,2.5522c-0.063,0.5129-0.1675,1.069-0.3145,1.6672c-0.1641,0.6671-0.366,1.2941-0.604,1.8793
		c-0.7144,1.7557-1.7539,3.1365-3.0664,4.1027c-0.4126,0.2991-0.8137,0.5254-1.2129,0.6965
		c-1.1978,0.5134-2.3779,0.5306-3.7986,0.5306H268.5303z"/>
	<path fill="#404065" d="M245.7115,288.3097l-2.2385,8.2831c-0.259,0.9513-0.5964,2.1173-1.0891,3.4977l0,0h3.5579
		c0.2654-1.2882,0.511-2.3932,0.7219-3.2518c0.1208-0.4906,0.2517-0.9208,0.334-1.2577l3.1807-11.5961
		c0.0554-0.1995,0.1196-0.4352,0.1943-0.7085c0.0747-0.2732,0.1597-0.5839,0.2568-0.933c0.1938-0.698,0.4348-1.5496,0.7344-2.5621
		h-5.6052c-0.4946,1.074-0.9358,1.9331-1.2805,2.6079l-7.0981,13.3755l0.7908-13.9583c0.01-0.0922,0.0242-0.3069,0.0496-0.6444
		c0.0249-0.3374,0.061-0.7977,0.1147-1.3807h-5.8613c-2.5508,8.9275-4.7273,15.7076-6.446,20.3092h3.5066l0,0
		c0.3323-1.1967,0.6287-2.2472,0.8892-3.1522c0.2607-0.9049,0.4854-1.6643,0.6743-2.2781l3.6848-11.5656l-0.7971,14.818
		c-0.03,0.6443-0.1084,1.3804-0.2021,2.1779h4.5054l0,0c0.3896-0.8591,0.7905-1.6566,1.2168-2.4542l7.3484-14.0814
		c-0.2532,1.135-0.5017,2.1473-0.7278,3.0676L245.7115,288.3097z"/>
	<path fill="#404065" d="M215.0201,320.9442c0.2368-0.9583,0.2302-1.8101,0-2.6351c-0.2305-0.8251-0.6846-1.6235-1.3423-2.4751
		l-3.1055-4.0756c-0.2673-0.3651-0.3337-0.8214-0.2129-1.3082c0.1538-0.6238,0.5225-1.1333,1.0857-1.4869
		s1.321-0.5513,2.2532-0.5513c0.2686,0,0.5374,0.0228,0.8096,0.0662c0.8169,0.1299,1.6636,0.4437,2.6104,0.8768l0,0l0,0
		l0.6831-3.5889c-1.4324-0.3044-2.7922-0.4873-4.1206-0.4873l0,0l0,0c-2.7974,0-4.8281,1.0267-5.9922,2.849
		c-0.3882,0.6074-0.6797,1.3032-0.8716,2.079c-0.3833,1.5513-0.2095,2.709,0.4639,3.9224c0.2246,0.4044,0.5044,0.8151,0.8379,1.2485
		l2.8457,3.681c0.4814,0.6385,0.6477,1.3076,0.5125,1.855c-0.3005,1.2169-1.4924,2.0078-3.2295,2.0078
		c-0.3,0-0.6243-0.0322-0.9697-0.0984c-1.0359-0.1982-2.2625-0.7003-3.6057-1.5443v0.0001v-0.0001l-0.7583,3.8933
		c0.8462,0.608,2.5396,1.0947,4.7622,1.0947l0,0l0,0c0.9517,0,1.8379-0.1368,2.6443-0.3911
		c0.4031-0.1272,0.7864-0.2837,1.1477-0.467c0.7229-0.3668,1.3584-0.8412,1.8916-1.4037
		C214.1595,323.1611,214.7298,322.119,215.0201,320.9442z"/>
	<rect fill="none" width="512" height="512"/>
</g>
</svg>
