<?xml version="1.0" encoding="utf-8"?>
<!-- Generator: Adobe Illustrator 18.1.1, SVG Export Plug-In . SVG Version: 6.00 Build 0)  -->
<!DOCTYPE svg PUBLIC "-//W3C//DTD SVG 1.1//EN" "http://www.w3.org/Graphics/SVG/1.1/DTD/svg11.dtd">
<svg version="1.1" id="XMLID_1_" xmlns="http://www.w3.org/2000/svg" xmlns:xlink="http://www.w3.org/1999/xlink" x="0px" y="0px"
	 viewBox="0 0 512 512" enable-background="new 0 0 512 512" xml:space="preserve">
<g id="Pierre-Etoile">
	<path fill="#404065" d="M187.4798,234.1564c-0.7318-1.4801-1.7184-2.6683-2.962-3.5657c-1.2495-0.8979-2.6981-1.5284-4.3409-1.8958
		c-1.6437-0.3621-3.3842-0.5483-5.2106-0.5483c-0.6986,0-1.421,0.0183-2.1693,0.0524c-0.7463,0.0314-1.4951,0.0741-2.2415,0.1238
		c-0.7501,0.0485-1.4631,0.1056-2.1429,0.1754c-0.684,0.0654-1.2726,0.1309-1.7723,0.1968v35.8998
		c0.3986,0.0654,0.8242,0.1082,1.2731,0.1233c0.4465,0.0214,0.8702,0.0253,1.2703,0.0253c0.8953,0,1.7435-0.0491,2.5432-0.1486
		v-12.96c0.564,0.0629,1.0859,0.1062,1.5675,0.1207c0.4835,0.0206,1.0419,0.027,1.672,0.027c1.6938,0,3.3595-0.1904,4.9835-0.5734
		c1.6279-0.3829,3.0878-1.0375,4.3667-1.9712c1.2783-0.9293,2.307-2.168,3.0917-3.7141c0.7778-1.5468,1.1726-3.4802,1.1726-5.8059
		C188.5808,237.4888,188.2098,235.6371,187.4798,234.1564z M182.5699,243.579c-0.4779,0.9828-1.1211,1.7537-1.9191,2.3209
		c-0.7998,0.5658-1.7021,0.9537-2.7163,1.17c-1.0135,0.2156-2.0385,0.3226-3.0677,0.3226c-0.7638,0-1.3479-0.0145-1.7441-0.0485
		c-0.4011-0.0315-0.8677-0.0811-1.3959-0.1515v-14.5068c0.9313-0.0994,2.0059-0.1503,3.2395-0.1503
		c1.1976,0,2.3113,0.1176,3.3438,0.3508c1.0273,0.2301,1.9064,0.63,2.6382,1.1934c0.7325,0.5671,1.3085,1.3141,1.7216,2.2446
		c0.4163,0.9313,0.6212,2.0768,0.6212,3.4407C183.291,241.3275,183.0501,242.5975,182.5699,243.579z"/>
	<path fill="#404065" d="M197.4017,264.796c0.4678,0,0.9048-0.017,1.3247-0.0527c0.417-0.0303,0.8237-0.0831,1.2173-0.1486V228.746
		c-0.3936-0.0629-0.8116-0.1169-1.2397-0.1509c-0.4358-0.0315-0.8702-0.0472-1.3022-0.0472c-0.4319,0-0.864,0.0157-1.2941,0.0472
		c-0.4288,0.0339-0.845,0.088-1.2487,0.1509v35.8488c0.3684,0.0654,0.7747,0.1183,1.2249,0.1486
		C196.5302,264.7791,196.9698,264.796,197.4017,264.796z"/>
	<path fill="#404065" d="M213.8048,260.1576v-12.264h11.6711c0.0673-0.3325,0.1139-0.7009,0.1497-1.0996
		c0.0314-0.3993,0.0509-0.7784,0.0509-1.1469c0-0.3629-0.0195-0.7363-0.0509-1.1187c-0.0358-0.3822-0.0824-0.7413-0.1497-1.0757
		h-11.6711v-10.2678h14.6136c0.0654-0.3326,0.1069-0.6997,0.1239-1.0991c0.0157-0.3979,0.0239-0.7827,0.0239-1.1442
		c0-0.798-0.0503-1.5298-0.1478-2.1957h-19.6959v35.8488h20.0946c0.0635-0.3307,0.1083-0.6953,0.1245-1.0964
		c0.0114-0.3975,0.0258-0.781,0.0258-1.1456c0-0.7992-0.0483-1.528-0.1503-2.1951H213.8048z"/>
	<path fill="#404065" d="M250.0573,249.1882c0.8004-0.3999,1.6191-0.903,2.4685-1.5197c0.8464-0.6168,1.6028-1.3381,2.2667-2.1711
		c0.6672-0.8325,1.2129-1.7769,1.6487-2.8389c0.4319-1.0632,0.6456-2.2434,0.6456-3.5419c0-2.161-0.4055-3.9454-1.2203-5.3621
		c-0.8174-1.4091-1.8687-2.5327-3.1697-3.3613c-1.2938-0.8325-2.774-1.4135-4.4352-1.7479
		c-1.6625-0.3308-3.3425-0.4988-5.0352-0.4988c-0.7659,0-1.4619,0.0183-2.0957,0.0524c-0.6312,0.0314-1.2373,0.0741-1.8197,0.1238
		c-0.5797,0.0485-1.1675,0.1056-1.7693,0.1754c-0.5985,0.0654-1.2637,0.1309-1.9944,0.1968v35.8998
		c0.4005,0.0654,0.8312,0.1082,1.2985,0.1233c0.4652,0.0214,0.8953,0.0253,1.2977,0.0253c0.3967,0,0.823-0.0157,1.2706-0.0491
		c0.4446-0.0341,0.8539-0.0662,1.2186-0.0995v-31.9586c0.5991-0.068,1.1381-0.1157,1.619-0.1509
		c0.4835-0.0321,1.0098-0.0491,1.5731-0.0491c2.3938,0,4.2926,0.5803,5.7112,1.7435c1.4114,1.167,2.115,2.942,2.115,5.3345
		c0,1.2977-0.2822,2.4044-0.845,3.3174c-0.5647,0.9148-1.27,1.6969-2.1221,2.3434c-0.8463,0.6494-1.7667,1.1738-2.7666,1.5706
		c-0.9984,0.4-1.9421,0.7144-2.8419,0.9475l-0.3956,0.0988v0.2018l11.4662,16.6012c0.8979,0.0995,1.7982,0.1486,2.6924,0.1486
		c1.1318,0,2.1454-0.0491,3.0425-0.1486l-10.4254-15.1072L250.0573,249.1882z"/>
	<path fill="#404065" d="M289.648,264.5947l-10.4218-15.1072l0.5974-0.2993c0.7972-0.3999,1.6165-0.903,2.4666-1.5197
		c0.8513-0.6168,1.6027-1.3381,2.2686-2.1711c0.6653-0.8325,1.2148-1.7769,1.6454-2.8389c0.4333-1.0632,0.6471-2.2434,0.6471-3.5419
		c0-2.161-0.4067-3.9454-1.2205-5.3621c-0.8186-1.4091-1.8693-2.5327-3.1652-3.3613c-1.2927-0.8325-2.7742-1.4135-4.4353-1.7479
		c-1.6599-0.3308-3.3438-0.4988-5.0352-0.4988c-0.7701,0-1.4657,0.0183-2.0989,0.0524c-0.6293,0.0314-1.2367,0.0741-1.8176,0.1238
		c-0.5797,0.0485-1.1708,0.1056-1.7725,0.1754c-0.5973,0.0654-1.2595,0.1309-1.9913,0.1968v35.8998
		c0.3999,0.0654,0.8293,0.1082,1.2971,0.1233c0.4646,0.0214,0.8992,0.0253,1.2959,0.0253s0.8206-0.0157,1.2708-0.0491
		c0.449-0.0341,0.8571-0.0662,1.2205-0.0995v-31.9586c0.5979-0.068,1.1361-0.1157,1.6216-0.1509
		c0.4816-0.0321,1.0034-0.0491,1.5687-0.0491c2.3925,0,4.2938,0.5803,5.7097,1.7435c1.4116,1.167,2.1208,2.942,2.1208,5.3345
		c0,1.2977-0.2855,2.4044-0.845,3.3174c-0.5679,0.9148-1.2759,1.6969-2.124,2.3434c-0.8451,0.6494-1.7687,1.1738-2.7672,1.5706
		c-0.9972,0.4-1.9415,0.7144-2.8375,0.9475l-0.4019,0.0988v0.2018l11.4662,16.6012c0.8966,0.0995,1.7982,0.1486,2.6973,0.1486
		C287.7347,264.7433,288.7502,264.6942,289.648,264.5947z"/>
	<path fill="#404065" d="M315.2003,263.4983c0.0144-0.3975,0.0277-0.781,0.0277-1.1456c0-0.7992-0.0579-1.528-0.1534-2.1951
		h-15.0092v-12.264h11.6672c0.066-0.3325,0.1182-0.7009,0.1503-1.0996c0.0315-0.3993,0.0516-0.7784,0.0516-1.1469
		c0-0.3629-0.0201-0.7363-0.0516-1.1187c-0.0321-0.3822-0.0842-0.7413-0.1503-1.0757h-11.6672v-10.2678h14.6079
		c0.066-0.3326,0.1095-0.6997,0.1271-1.0991c0.0138-0.3979,0.0282-0.7827,0.0282-1.1442c0-0.798-0.0527-1.5298-0.1553-2.1957
		h-19.6915v35.8488h20.0928C315.1393,264.264,315.1789,263.8994,315.2003,263.4983z"/>
	<path fill="#404065" d="M353.7435,263.4983c0.0106-0.3975,0.0238-0.781,0.0238-1.1456c0-0.7992-0.0515-1.528-0.1522-2.1951
		h-15.0048v-12.264h11.6667c0.0648-0.3325,0.1138-0.7009,0.1477-1.0996c0.0347-0.3993,0.0515-0.7784,0.0515-1.1469
		c0-0.3629-0.0168-0.7363-0.0515-1.1187c-0.0339-0.3822-0.0829-0.7413-0.1477-1.0757h-11.6667v-10.2678h14.6062
		c0.0659-0.3326,0.1125-0.6997,0.1245-1.0991c0.0194-0.3979,0.0245-0.7827,0.0245-1.1442c0-0.798-0.0459-1.5298-0.149-2.1957
		h-19.6941v35.8488h20.0927C353.6817,264.264,353.7258,263.8994,353.7435,263.4983z"/>
	<path fill="#404065" d="M341.353,225.9568c0.4622,0,0.9287-0.0203,1.3947-0.0547c0.4672-0.0321,0.9124-0.0786,1.3442-0.149
		l6.7825-5.3828c-0.4666-0.0668-0.9816-0.1252-1.5436-0.1749c-0.5653-0.0515-1.1708-0.0765-1.7964-0.0765
		c-0.6011,0-1.1935,0.025-1.7932,0.0765c-0.603,0.0497-1.1676,0.1082-1.6971,0.1749l-5.2871,5.3828
		c0.4646,0.0704,0.8984,0.1169,1.2952,0.149C340.4514,225.9365,340.8864,225.9568,341.353,225.9568z"/>
	<path fill="#404065" d="M380.8367,228.746h-23.7283c-0.0703,0.3326-0.1169,0.6909-0.1508,1.0707
		c-0.0333,0.3829-0.0491,0.7565-0.0491,1.125c0,0.3615,0.0157,0.7462,0.0491,1.1442c0.0338,0.3994,0.0804,0.7665,0.1508,1.0991
		h9.3247v31.4098c0.7921,0.0995,1.6573,0.1486,2.5929,0.1486c0.8953,0,1.7253-0.0491,2.4924-0.1486v-31.4098h9.3182
		c0.0704-0.3326,0.1169-0.7054,0.1547-1.1255c0.0314-0.4131,0.0491-0.8048,0.0491-1.1708c0-0.3634-0.0177-0.7305-0.0491-1.0964
		C380.9537,229.4263,380.9072,229.0786,380.8367,228.746z"/>
	<path fill="#404065" d="M409.8378,233.4082c-1.2476-1.6449-2.8245-2.9331-4.7146-3.8638c-1.8976-0.9312-4.141-1.3978-6.7365-1.3978
		c-2.5905,0-4.8352,0.4667-6.7278,1.3978c-1.8938,0.9307-3.4633,2.2189-4.7107,3.8638c-1.2476,1.6448-2.1755,3.5978-2.793,5.8562
		c-0.6174,2.2637-0.9242,4.7397-0.9242,7.4296c0,2.6924,0.3068,5.1715,0.9242,7.4307c0.6174,2.2623,1.5454,4.214,2.793,5.8613
		c1.2474,1.6423,2.8169,2.9219,4.7107,3.838c1.8926,0.9154,4.1373,1.3688,6.7278,1.3688c2.5955,0,4.8389-0.4534,6.7365-1.3688
		c1.8901-0.9161,3.467-2.1957,4.7146-3.838c1.2399-1.6473,2.1641-3.599,2.7651-5.8613c0.5974-2.2592,0.8942-4.7383,0.8942-7.4307
		c0-2.6898-0.2968-5.1659-0.8942-7.4296C412.0019,237.006,411.0777,235.053,409.8378,233.4082z M407.5163,252.5779
		c-0.3998,1.7297-0.9983,3.2079-1.7957,4.4423c-0.7998,1.2255-1.8033,2.1655-3.0156,2.8131
		c-1.2146,0.6469-2.6509,0.9764-4.3182,0.9764c-1.66,0-3.0935-0.3296-4.3083-0.9764c-1.2148-0.6476-2.2157-1.5876-3.0168-2.8131
		c-0.7959-1.2344-1.397-2.7125-1.7943-4.4423c-0.4-1.7252-0.5999-3.6877-0.5999-5.8839c0-2.1572,0.1998-4.1108,0.5999-5.8569
		c0.3973-1.7473,0.9984-3.2218,1.7943-4.4373c0.8011-1.2129,1.802-2.1459,3.0168-2.7935c1.2148-0.6459,2.6483-0.9702,4.3083-0.9702
		c1.6674,0,3.1036,0.3243,4.3182,0.9702c1.2123,0.6476,2.2158,1.5806,3.0156,2.7935c0.7974,1.2155,1.3959,2.6899,1.7957,4.4373
		c0.3949,1.7461,0.5961,3.6997,0.5961,5.8569C408.1124,248.8901,407.9112,250.8527,407.5163,252.5779z"/>
	<path fill="#404065" d="M423.4719,228.5479c-0.4338,0-0.8652,0.0157-1.2953,0.0472c-0.4376,0.0339-0.85,0.088-1.2474,0.1509
		v35.8488c0.3622,0.0654,0.7709,0.1183,1.2223,0.1486c0.4452,0.0358,0.8866,0.0527,1.3204,0.0527
		c0.4652,0,0.9054-0.017,1.3179-0.0527c0.4175-0.0303,0.8237-0.0831,1.2249-0.1486V228.746
		c-0.4011-0.0629-0.8199-0.1169-1.25-0.1509C424.3345,228.5636,423.9019,228.5479,423.4719,228.5479z"/>
	<path fill="#404065" d="M454.0346,262.3527c0-0.3334-0.0087-0.6986-0.0275-1.0978c-0.0153-0.3987-0.0554-0.7804-0.1233-1.1475
		h-14.0618V228.746c-0.3998-0.0629-0.8123-0.1169-1.2461-0.1509c-0.4288-0.0315-0.8652-0.0472-1.2953-0.0472
		c-0.464,0-0.9041,0.0157-1.3191,0.0472c-0.4175,0.0339-0.8074,0.088-1.1746,0.1509v35.8488h19.0968
		C453.9858,263.8994,454.0346,263.1499,454.0346,262.3527z"/>
	<path fill="#404065" d="M479.6882,263.4983c0.0177-0.3975,0.0253-0.781,0.0253-1.1456c0-0.7992-0.0504-1.528-0.151-2.1951h-15.0098
		v-12.264H476.22c0.0704-0.3325,0.1194-0.7009,0.1509-1.0996c0.0352-0.3993,0.0529-0.7784,0.0529-1.1469
		c0-0.3629-0.0177-0.7363-0.0529-1.1187c-0.0315-0.3822-0.0804-0.7413-0.1509-1.0757h-11.6674v-10.2678h14.6124
		c0.0629-0.3326,0.1069-0.6997,0.1245-1.0991c0.0188-0.3979,0.0226-0.7827,0.0226-1.1442c0-0.798-0.0479-1.5298-0.1471-2.1957
		H459.471v35.8488h20.0914C479.633,264.264,479.6694,263.8994,479.6882,263.4983z"/>
	<path fill="#404065" d="M32.0001,286.0582v0.0339v1.4204c1.9474-0.5137,4.4247-1.2437,7.0636-2.0215
		c5.5632-1.6423,11.8635-3.504,16.0127-4.1713c0.53-0.0868,1.3851-0.2672,2.4623-0.4899c4.6974-0.9795,13.4327-2.8009,22.609-2.8009
		c0.5085-0.0063,1.0155-0.0171,1.5203-0.0171c7.8469,0,13.5649,1.2247,16.5894,1.7781l1.5348-8.7428
		c0.3005-1.9996-0.6721-3.2992-1.4066-4.382c-1.0846-1.348-1.7328-2.2698-3.3928-4.4761c-2.2207-2.952-3.1594-3.0061-5.0646-2.2278
		c-0.7407,0.3911-2.2083,3.484-2.4182,3.6702c-0.9023,0.6187-1.6072,1.1908-1.9265,1.5007
		c-0.5497,0.3673-1.2494,1.306-2.2479,1.2753c-1.0287,0.0288-1.6776-0.1899-2.8287-0.595c-1.1558-0.3998-1.455,1.0325-3.1571,1.6123
		c-1.8064,0.618-4.3491-0.7834-5.2615,0.2892c0,0-2.1736,3.0923-4.373,5.3118c-1.6089,1.6216-4.0391-0.6816-6.7773-0.5439
		c-4.1064,0.2037-7.964,4.4039-7.964,4.4039l-3.4185,1.1335c0,0-2.8208-0.5538-4.6943,1.3268
		c-1.0752,1.0707-3.2836,2.0146-5.5803,3.6991c-0.4878,0.2745-1.0039,0.5867-1.5601,0.9052
		c2.8083-2.1051,6.4941-5.8456,8.3312-7.0237c1.9147-1.2249,4.6377,0.1044,6.3455-0.9991c1.5593-0.9979,3.1582-3.6455,4.3744-4.407
		c2.0615-1.2871,4.1127-0.9784,4.1127-0.9784s3.858,1.2311,6.184,0.6866c1.6096-0.381,2.8086-4.1133,4.0428-4.9521l0.7224-0.4666
		c1.3324-0.8204,2.59,0.6238,4.5095,0.3081c1.775-0.354,2.2611-2.3666,3.5381-2.1384c2.1113,0.188,2.3081,1.3268,3.531,0.874
		c0.6578-0.2452,1.1847-0.5244,1.9542-2.063c0.7527-1.0419,1.9065-3.0143,3.9801-6.6812c0.3999,0,1.1331,0.6833,1.6876,1.4473
		c1.1091,1.9668,2.2063-0.8495,2.8313-0.0729c1.6008,2.1567,2.6238,4.3365,3.5167,5.8318c1.1367,2.0391,2.9916,3.7964,3.3318,1.563
		l0.4432-3.1726l9.5012-7.3722l-1.626,36.5807h2.62l0.0836-10.5079l21.9337,3.4714l0.6495,7.0365h8.965v-69.2061H32.0001V286.0582z
		 M111.9555,254.3127l19.9185,10.0576l0.7721,8.3833l-20.7812-7.0114l-0.005,0.0195L111.9555,254.3127z M111.848,267.1614
		l20.9302,7.0636l0.6985,7.5708l-21.7212-3.4368L111.848,267.1614z M62.4908,239.1665l1.3008,0.5922l0.4119-3.6719l0.5471,3.6505
		l1.2744-0.6332l-0.5879,1.3003l2.0717,0.4075l-2.0598,0.5508l0.6377,1.272l-1.2972-0.5872l-0.4087,3.6757l-0.5444-3.6562
		l-1.2789,0.6332l0.5873-1.2997l-2.068-0.4061l2.0524-0.5464L62.4908,239.1665z M58.6427,250.9689l0.7188-5.9254l0.8242,5.9141
		l2.0687-1.0042l-0.9678,2.0839l3.3356,0.6947l-3.3186,0.8451l1.001,2.0736l-2.0836-0.9658l-0.718,5.9286l-0.8237-5.9159
		l-2.075,1.0042l0.9689-2.0863l-3.3354-0.6929l3.3235-0.8525l-1.0059-2.0662L58.6427,250.9689z M44.9765,234.6469l2.9426,1.3342
		l0.9425-8.3254l1.2179,8.2933l2.8981-1.4341l-1.3425,2.9413l4.6943,0.9355l-4.6566,1.2286l1.4343,2.8917l-2.942-1.3336
		l-0.9387,8.3291l-1.2267-8.297l-2.8949,1.438l1.3392-2.9408l-4.6918-0.9393l4.6572-1.2292L44.9765,234.6469z"/>
	<path fill="#404065" d="M75.6344,278.5924c-12.132,0.9795-18.1222,2.637-20.9598,3.355c-6.0399,1.5284-13.0121,3.6764-22.6744,6.78
		v1.5145h64.7482l1.509-9.8896c-1.074-0.2849-7.3755-1.9291-16.5894-1.9291C81.175,278.4232,77.4075,278.4741,75.6344,278.5924z"/>
	<path fill="#404065" d="M175.7534,282.6622v-0.0433c0.4081-0.0892,0.7747-0.2421,1.1041-0.4596
		c0.3269-0.2177,0.61-0.4835,0.8514-0.7974c0.2407-0.313,0.4269-0.6633,0.557-1.0487c0.1313-0.3867,0.1968-0.7834,0.1968-1.1908
		c0-0.7277-0.1383-1.3368-0.4155-1.8235c-0.2761-0.4885-0.6445-0.8822-1.1029-1.1808c-0.4585-0.2975-0.9902-0.5093-1.5952-0.6332
		c-0.6035-0.1239-1.2336-0.1849-1.8893-0.1849h-6.597v15.5978h6.597c0.845,0,1.5686-0.0762,2.173-0.2295
		c0.6055-0.1534,1.1147-0.3502,1.5292-0.5891c0.4148-0.2408,0.7462-0.5212,0.9946-0.8425c0.2483-0.3195,0.4376-0.6451,0.5677-0.9714
		c0.1307-0.3282,0.2194-0.6483,0.2628-0.9614c0.0439-0.3125,0.0647-0.5941,0.0647-0.8413c0-1.0192-0.2974-1.8744-0.8953-2.5659
		C177.5587,283.2056,176.7583,282.7919,175.7534,282.6622z M168.3465,276.5664h5.1133c2.3433,0,3.5159,0.9752,3.5159,2.927
		c0,0.3658-0.071,0.7073-0.2174,1.028c-0.1453,0.3207-0.3635,0.6005-0.6553,0.8406c-0.2898,0.2396-0.6565,0.4288-1.0922,0.5673
		c-0.4382,0.1389-0.9532,0.2087-1.551,0.2087h-5.1133V276.5664z M177.2392,287.9817c-0.2181,0.4149-0.517,0.7457-0.8954,0.9928
		c-0.3792,0.2489-0.8168,0.4193-1.3116,0.5143c-0.4954,0.0942-1.0198,0.1421-1.5724,0.1421h-5.1133v-6.2266h5.1133
		c1.3241,0,2.3414,0.2509,3.0476,0.7538c0.7067,0.5029,1.0599,1.2563,1.0599,2.2598
		C177.5673,287.046,177.458,287.566,177.2392,287.9817z"/>
	<polygon fill="#404065" points="195.4367,271.825 197.3149,274.0544 198.7353,274.0544 196.2441,270.9741 194.737,270.9741 
		192.2464,274.0544 193.5141,274.0544 	"/>
	<path fill="#404065" d="M194.737,275.3l-6.2701,15.5978h1.5745l1.8762-4.8503h7.1007l1.9014,4.8503h1.594L196.3969,275.3H194.737z
		 M192.3773,284.7799l3.1243-7.9948l3.0149,7.9948H192.3773z"/>
	<polygon fill="#404065" points="211.0113,276.5664 216.4293,276.5664 216.4293,290.8978 217.915,290.8978 217.915,276.5664 
		223.3551,276.5664 223.3551,275.3 211.0113,275.3 	"/>
	<rect x="233.6674" y="275.3" fill="#404065" width="1.4857" height="15.5978"/>
	<path fill="#404065" d="M258.855,289.0071c-0.0453-0.3835-0.0736-0.7665-0.0874-1.1469c-0.0144-0.3778-0.0291-0.6973-0.0435-0.9601
		c-0.0302-0.4679-0.0924-0.899-0.186-1.3003c-0.0951-0.4011-0.2484-0.7545-0.4585-1.0594
		c-0.2112-0.3055-0.4846-0.5577-0.8198-0.7533c-0.3357-0.1968-0.7583-0.3326-1.2663-0.4042v-0.0441
		c1.0035-0.2037,1.7612-0.6703,2.2711-1.3972c0.5111-0.7286,0.7645-1.5875,0.7645-2.5797c0-0.6974-0.1263-1.3059-0.3828-1.8235
		c-0.254-0.5162-0.5967-0.9393-1.0261-1.2662c-0.4288-0.3276-0.9325-0.5721-1.5066-0.7332c-0.5759-0.1598-1.1847-0.239-1.8235-0.239
		h-7.1445v15.5978h1.4845v-6.9246h5.6376c0.6997-0.0303,1.248,0.0873,1.649,0.3484c0.4,0.2615,0.7069,0.6079,0.9181,1.038
		c0.2094,0.4308,0.3483,0.9174,0.4143,1.4644c0.0648,0.5453,0.1119,1.0961,0.1416,1.65c0.0144,0.1589,0.0288,0.3483,0.0446,0.567
		c0.0145,0.2189,0.0333,0.4402,0.0541,0.6659c0.0226,0.2264,0.0585,0.4438,0.1088,0.6545c0.0529,0.2131,0.1195,0.3905,0.2081,0.5364
		h1.6373c-0.1597-0.1893-0.2874-0.4552-0.3811-0.7972C258.9676,289.7579,258.8984,289.3938,258.855,289.0071z M255.4692,282.4983
		c-0.4081,0.1382-0.8375,0.2061-1.2891,0.2061h-5.55v-6.1379h5.55c1.1355,0,1.9807,0.2767,2.5339,0.83
		c0.5538,0.554,0.8293,1.311,0.8293,2.2717c0,0.4816-0.0912,0.9067-0.2736,1.2783c-0.1823,0.3704-0.425,0.6879-0.73,0.9507
		C256.2337,282.1593,255.8759,282.3591,255.4692,282.4983z"/>
	<polygon fill="#404065" points="286.7519,275.3 285.2662,275.3 285.2662,290.8978 295.4911,290.8978 295.4911,289.6309 
		286.7519,289.6309 	"/>
	<path fill="#404065" d="M310.3008,275.3l-6.2679,15.5978h1.5724l1.8776-4.8503h7.1006l1.9021,4.8503h1.5933L311.9622,275.3
		H310.3008z M307.9424,284.7799l3.1249-7.9948l3.0144,7.9948H307.9424z"/>
	<path fill="#404065" d="M356.9205,283.0986c0-1.0776-0.1527-2.1051-0.4583-3.0803c-0.3063-0.9751-0.7646-1.8379-1.3759-2.5892
		c-0.6129-0.7501-1.3763-1.3475-2.2949-1.7906c-0.9167-0.444-1.9875-0.6659-3.2098-0.6659c-1.223,0-2.2981,0.2219-3.2224,0.6659
		c-0.9255,0.4431-1.6934,1.0405-2.3057,1.7906c-0.6112,0.7513-1.0708,1.6141-1.3763,2.5892
		c-0.3063,0.9752-0.459,2.0027-0.459,3.0803c0,1.0778,0.1527,2.1044,0.459,3.0803c0.3055,0.9752,0.7651,1.8353,1.3763,2.5779
		c0.6123,0.7419,1.3801,1.3368,2.3057,1.7812c0.9243,0.4432,1.9994,0.6659,3.2224,0.6659c1.6304,0,2.9778-0.3804,4.0404-1.1375
		l2.4258,1.8147l0.7419-0.918l-2.229-1.6814c0.7874-0.7582,1.3765-1.6719,1.7706-2.7427
		C356.7256,285.4691,356.9205,284.3217,356.9205,283.0986z M354.965,286.0255c-0.3119,0.9463-0.8187,1.7485-1.5171,2.4031
		l-2.2731-1.7252l-0.7645,0.9401l2.0535,1.5498c-0.8148,0.5106-1.7762,0.7651-2.8822,0.7651c-1.0356,0-1.9233-0.1967-2.6666-0.5903
		c-0.7418-0.3936-1.3506-0.9124-1.8234-1.5625c-0.4729-0.6464-0.8225-1.3827-1.0487-2.2057
		c-0.2257-0.8224-0.3383-1.6569-0.3383-2.5012c0-0.8589,0.1125-1.6964,0.3383-2.5118c0.2262-0.8162,0.5758-1.5475,1.0487-2.197
		c0.4728-0.6469,1.0815-1.1669,1.8234-1.5612c0.7433-0.3923,1.631-0.5891,2.6666-0.5891c1.0331,0,1.9171,0.1968,2.6541,0.5891
		c0.7344,0.3943,1.3386,0.9143,1.8127,1.5612c0.4728,0.6495,0.8229,1.3809,1.0487,2.197c0.2244,0.8154,0.3389,1.653,0.3389,2.5118
		C355.436,284.1028,355.2794,285.0793,354.965,286.0255z"/>
	<path fill="#404065" d="M378.46,284.9548c0,0.9041-0.1006,1.6724-0.3055,2.3049c-0.2051,0.6332-0.5031,1.1514-0.8954,1.5519
		c-0.3937,0.3998-0.8739,0.6915-1.4412,0.8733c-0.5696,0.1824-1.2173,0.2734-1.9441,0.2734c-0.7156,0-1.3557-0.0911-1.9252-0.2734
		c-0.566-0.1818-1.0463-0.4735-1.4387-0.8733c-0.3949-0.4005-0.6929-0.9187-0.8953-1.5519
		c-0.2063-0.6326-0.3069-1.4009-0.3069-2.3049V275.3h-1.4865v9.983c0,0.8021,0.1119,1.5623,0.3384,2.283
		c0.2275,0.7218,0.5834,1.3512,1.0726,1.8894c0.4854,0.54,1.1128,0.9651,1.8774,1.2783c0.7645,0.3124,1.6864,0.4702,2.764,0.4702
		c1.0914,0,2.0195-0.1578,2.7854-0.4702c0.7645-0.3132,1.3896-0.7383,1.8762-1.2783c0.4893-0.5382,0.8463-1.1676,1.0714-1.8894
		c0.2277-0.7207,0.3396-1.4808,0.3396-2.283V275.3H378.46V284.9548z"/>
	<path fill="#404065" d="M396.2438,275.3l-6.2725,15.5978h1.5757l1.8776-4.8503h7.1l1.9,4.8503h1.5972L397.9039,275.3H396.2438z
		 M393.8835,284.7799l3.1224-7.9948l3.0155,7.9948H393.8835z"/>
	<polygon fill="#404065" points="415.6639,275.3 414.1788,275.3 414.1788,290.8978 424.4024,290.8978 424.4024,289.6309 
		415.6639,289.6309 	"/>
	<rect x="434.7568" y="275.3" fill="#404065" width="1.4877" height="15.5978"/>
	<polygon fill="#404065" points="446.5751,276.5664 451.9937,276.5664 451.9937,290.8978 453.4788,290.8978 453.4788,276.5664 
		458.9189,276.5664 458.9189,275.3 446.5751,275.3 	"/>
	<polygon fill="#404065" points="470.605,289.6309 470.605,283.469 479.3008,283.469 479.3008,282.2034 470.605,282.2034 
		470.605,276.5664 479.8919,276.5664 479.8919,275.3 469.1213,275.3 469.1213,290.8978 480.0001,290.8978 480.0001,289.6309 	"/>
	<polygon fill="#404065" points="473.8383,274.0544 476.723,270.9741 475.019,270.9741 472.7253,274.0544 	"/>
	<rect fill="none" width="512" height="512"/>
</g>
</svg>
