<?xml version="1.0" encoding="utf-8"?>
<!-- Generator: Adobe Illustrator 18.1.1, SVG Export Plug-In . SVG Version: 6.00 Build 0)  -->
<!DOCTYPE svg PUBLIC "-//W3C//DTD SVG 1.1//EN" "http://www.w3.org/Graphics/SVG/1.1/DTD/svg11.dtd">
<svg version="1.1" id="XMLID_1_" xmlns="http://www.w3.org/2000/svg" xmlns:xlink="http://www.w3.org/1999/xlink" x="0px" y="0px"
	 viewBox="0 0 512 512" enable-background="new 0 0 512 512" xml:space="preserve">
<g id="Prateo">
	<path fill="#404065" d="M102.2381,284.446l-7.2361,17.2238h1.5649l2.0908-5.0282h8.9595l2.0908,5.0282h1.6133l-7.2363-17.2238
		H102.2381z M99.2598,295.2109l3.876-9.3066l3.876,9.3066H99.2598z"/>
	<path fill="#404065" d="M123.5443,296.7585c0,0.6328-0.0999,1.1693-0.282,1.6371c-0.1855,0.4814-0.4438,0.8735-0.7773,1.1831
		c-0.3301,0.3232-0.7393,0.5571-1.2036,0.7153c-0.4678,0.1582-0.9734,0.2477-1.5271,0.2477s-1.0696-0.0895-1.5271-0.2477
		c-0.4678-0.1582-0.8735-0.3921-1.207-0.7153c-0.3301-0.3096-0.5881-0.7017-0.7739-1.1831c-0.1855-0.4678-0.282-1.0043-0.282-1.6371
		v-6.6653h-1.4031v6.7891c0,0.8254,0.134,1.5408,0.4194,2.153c0.2683,0.6329,0.6396,1.1488,1.1074,1.5684
		c0.4678,0.4127,1.0215,0.7223,1.6475,0.9354c0.6294,0.2202,1.3035,0.3164,2.0188,0.3164c0.7119,0,1.3894-0.0962,2.0188-0.3164
		c0.626-0.2131,1.1694-0.5227,1.6475-0.9354c0.4678-0.4196,0.8357-0.9354,1.1211-1.5684c0.2683-0.6122,0.4058-1.3275,0.4058-2.153
		v-6.7891h-1.4031V296.7585z"/>
	<path fill="#404065" d="M139.5059,292.3219c-0.4678-0.7291-1.0835-1.3069-1.8469-1.7471c-0.7737-0.4471-1.6853-0.6672-2.741-0.6672
		c-0.8152,0-1.5752,0.1444-2.2769,0.4402c-0.7017,0.3096-1.3174,0.7291-1.8367,1.2588c-0.5159,0.5297-0.9216,1.1693-1.2175,1.8916
		c-0.3062,0.7291-0.4539,1.527-0.4539,2.3868c0,0.8667,0.1477,1.6646,0.4539,2.3868c0.2959,0.7291,0.7017,1.355,1.2175,1.8846
		c0.5193,0.5297,1.135,0.9492,1.8367,1.245c0.7017,0.3096,1.4617,0.454,2.2769,0.454c1.0557,0,1.9673-0.2201,2.741-0.6671
		c0.7634-0.4265,1.3792-1.0181,1.8469-1.7472v2.2286h1.3928v-17.719h-1.3928V292.3219z M139.2479,297.7354
		c-0.22,0.564-0.5295,1.0592-0.9353,1.4719c-0.406,0.4196-0.8735,0.7429-1.4272,0.9768s-1.1558,0.3577-1.8091,0.3577
		c-0.6536,0-1.2554-0.1238-1.8091-0.3577s-1.0317-0.5709-1.4412-0.9836c-0.4058-0.4196-0.7119-0.9149-0.9319-1.4789
		c-0.2236-0.5641-0.3337-1.1831-0.3337-1.8365c0-0.6466,0.1101-1.2656,0.3337-1.8297c0.22-0.5641,0.5261-1.0593,0.9319-1.4789
		c0.3955-0.4196,0.8772-0.7498,1.4309-0.9974c0.5537-0.2338,1.1553-0.3577,1.8193-0.3577c0.6533,0,1.2554,0.1239,1.8091,0.3577
		c0.5537,0.2339,1.0212,0.5709,1.4272,0.9768c0.4058,0.4127,0.7153,0.908,0.9353,1.472c0.2202,0.5778,0.3337,1.1968,0.3337,1.8572
		C139.5816,296.5522,139.4681,297.1644,139.2479,297.7354z"/>
	<path fill="#404065" d="M146.8316,284.9138c-0.2822,0-0.5298,0.0962-0.7119,0.2888c-0.186,0.1995-0.2856,0.4471-0.2856,0.7291
		s0.0996,0.5297,0.2856,0.7153c0.1821,0.1858,0.4297,0.2821,0.7119,0.2821c0.2817,0,0.5295-0.0963,0.7256-0.2821
		c0.1855-0.1857,0.2854-0.4333,0.2854-0.7153s-0.0999-0.5297-0.2854-0.7291C147.3612,285.01,147.1134,284.9138,146.8316,284.9138z"
		/>
	<rect x="146.13" y="290.0933" fill="#404065" width="1.4031" height="11.5765"/>
	<path fill="#404065" d="M159.2369,300.2941c-0.4438,0.1582-0.9114,0.2477-1.417,0.2477c-0.3818,0-0.7358-0.0619-1.0454-0.172
		c-0.3198-0.11-0.5884-0.2958-0.8118-0.5297c-0.2339-0.2339-0.406-0.5297-0.5295-0.8873c-0.124-0.3577-0.1824-0.7772-0.1824-1.2656
		v-6.3145h5.3376v-1.2794h-5.3376v-3.7832h-1.4031v3.7832h-2.6587v1.2794h2.6587v6.3351c0,1.4032,0.3438,2.4487,1.0317,3.1298
		c0.6772,0.6741,1.6265,1.0179,2.8303,1.0179c0.7017,0,1.3311-0.11,1.895-0.3164c0.5537-0.2131,1.0457-0.4952,1.4651-0.8391
		l-0.6636-1.0455C160.0623,299.9226,159.6668,300.1359,159.2369,300.2941z"/>
	<polygon fill="#404065" points="164.6502,304.7377 165.8678,304.7377 167.0474,298.7946 165.4137,298.7946 	"/>
	<polygon fill="#404065" points="176.8768,285.8699 183.0811,285.8699 183.0811,301.6698 184.5806,301.6698 184.5806,285.8699 
		190.7955,285.8699 190.7955,284.446 176.8768,284.446 	"/>
	<path fill="#404065" d="M201.6256,292.3219c-0.4678-0.7291-1.0833-1.3069-1.8467-1.7471
		c-0.7739-0.4471-1.6853-0.6672-2.7412-0.6672c-0.8149,0-1.5752,0.1444-2.2769,0.4402c-0.7017,0.3096-1.3171,0.7291-1.8364,1.2588
		c-0.5161,0.5297-0.9219,1.1693-1.2175,1.8916c-0.3062,0.7291-0.4539,1.527-0.4539,2.3868c0,0.8667,0.1477,1.6646,0.4539,2.3868
		c0.2957,0.7291,0.7014,1.355,1.2175,1.8846c0.5193,0.5297,1.1348,0.9492,1.8364,1.245c0.7017,0.3096,1.4619,0.454,2.2769,0.454
		c1.0559,0,1.9673-0.2201,2.7412-0.6671c0.7634-0.4265,1.3789-1.0181,1.8467-1.7472v2.2286h1.3931v-11.5765h-1.3931V292.3219z
		 M201.3678,297.7354c-0.2202,0.564-0.5298,1.0592-0.9355,1.4719c-0.4058,0.4196-0.8735,0.7429-1.4272,0.9768
		s-1.1558,0.3577-1.8091,0.3577s-1.2554-0.1238-1.8091-0.3577s-1.0317-0.5709-1.4409-0.9836
		c-0.4058-0.4196-0.7119-0.9149-0.9321-1.4789c-0.2236-0.5641-0.3335-1.1831-0.3335-1.8365c0-0.6466,0.1099-1.2656,0.3335-1.8297
		c0.2202-0.5641,0.5264-1.0593,0.9321-1.4789c0.3955-0.4196,0.877-0.7498,1.4307-0.9974c0.5537-0.2338,1.1555-0.3577,1.8193-0.3577
		c0.6533,0,1.2554,0.1239,1.8091,0.3577c0.5537,0.2339,1.0215,0.5709,1.4272,0.9768c0.4058,0.4127,0.7153,0.908,0.9355,1.472
		c0.2202,0.5778,0.3335,1.1968,0.3335,1.8572C201.7012,296.5522,201.588,297.1644,201.3678,297.7354z"/>
	<polygon fill="#404065" points="217.9105,290.0933 216.2493,290.0933 212.3492,294.7913 208.4595,290.0933 206.7364,290.0933 
		211.4,295.7543 206.5782,301.6698 208.2257,301.6698 212.2735,296.7723 216.3492,301.6698 218.0721,301.6698 213.2469,295.7405 	
		"/>
	<path fill="#404065" d="M241.7203,293.2299l-1.1313-0.7153l-2.8306,4.1753l-4.2578-4.1615
		c0.4299-0.3234,0.8599-0.6536,1.2656-0.9836c0.4058-0.3302,0.7637-0.6879,1.0835-1.0731c0.3096-0.3783,0.5674-0.7772,0.7498-1.2037
		c0.1858-0.4333,0.2854-0.8873,0.2854-1.3894c0-0.5159-0.0996-0.9974-0.2959-1.4445c-0.2095-0.4265-0.4814-0.8118-0.8354-1.1418
		c-0.3579-0.3234-0.7876-0.5779-1.2935-0.7635c-0.5054-0.1857-1.0454-0.2683-1.637-0.2683c-0.6018,0-1.1453,0.0963-1.637,0.2958
		c-0.5056,0.1926-0.9355,0.4678-1.2932,0.798c-0.3542,0.3302-0.6399,0.7291-0.8357,1.1831c-0.21,0.454-0.3062,0.9354-0.3062,1.4376
		c0,0.4196,0.0481,0.7979,0.1582,1.1555c0.1099,0.3577,0.2717,0.7017,0.4814,1.0455c0.2065,0.3577,0.4917,0.7155,0.822,1.0868
		c0.3337,0.3646,0.7153,0.7704,1.1589,1.2037c-0.4575,0.3302-0.8975,0.6879-1.3311,1.0593
		c-0.4297,0.3715-0.7979,0.7635-1.1313,1.1831c-0.3335,0.4127-0.6021,0.8735-0.7979,1.3619
		c-0.21,0.4952-0.3096,1.0387-0.3096,1.6165c0,0.6398,0.1099,1.2175,0.3438,1.7196c0.2236,0.5159,0.5435,0.963,0.9597,1.3138
		c0.4058,0.3715,0.9114,0.6534,1.489,0.8391c0.5781,0.1996,1.2314,0.2958,1.957,0.2958c0.6157,0,1.1831-0.0756,1.6992-0.2476
		c0.5054-0.1582,0.9834-0.3646,1.4133-0.6534c0.4333-0.2683,0.8391-0.5847,1.2073-0.9562c0.3577-0.3715,0.7017-0.7634,1.0215-1.1831
		l2.9302,2.8546h2.0293l-4.1101-4.0239L241.7203,293.2299z M230.7664,289.6461c-0.1824-0.2544-0.3062-0.5159-0.3921-0.7704
		c-0.0859-0.2614-0.1238-0.5295-0.1238-0.8116c0-0.3577,0.062-0.6809,0.1855-0.9905c0.124-0.3026,0.2959-0.5641,0.5298-0.7842
		s0.5022-0.3921,0.8115-0.5297c0.3062-0.1238,0.6641-0.1857,1.0457-0.1857c0.3818,0,0.7395,0.0619,1.0593,0.172
		c0.3198,0.1238,0.5881,0.2958,0.822,0.509c0.2234,0.2063,0.3955,0.4677,0.5193,0.7498c0.1204,0.282,0.1821,0.5984,0.1821,0.9354
		c0,0.3577-0.072,0.7017-0.22,1.0181c-0.1616,0.3301-0.3679,0.6396-0.6294,0.9354c-0.2581,0.3096-0.564,0.5916-0.908,0.8735
		c-0.3474,0.2821-0.7153,0.5641-1.0972,0.853c-0.416-0.4059-0.7739-0.7773-1.0696-1.1006
		C231.1861,290.217,230.9522,289.9213,230.7664,289.6461z M236.0113,298.9666c-0.3096,0.3302-0.6396,0.5984-0.9731,0.8323
		c-0.3442,0.2339-0.7156,0.4196-1.1077,0.5435c-0.3955,0.1376-0.8254,0.1995-1.3035,0.1995c-0.4917,0-0.9355-0.0757-1.3413-0.2133
		c-0.4058-0.1307-0.7634-0.3302-1.0454-0.5916c-0.2959-0.2545-0.5298-0.5641-0.6914-0.9218
		c-0.1582-0.3577-0.2441-0.736-0.2441-1.1693c0-0.4402,0.0859-0.8599,0.2441-1.2518c0.1616-0.3853,0.3818-0.7498,0.6638-1.0938
		c0.2717-0.3508,0.5916-0.6809,0.9597-0.9905c0.3574-0.3026,0.7393-0.6122,1.145-0.9218l4.6018,4.4779
		C236.6131,298.2719,236.3175,298.6295,236.0113,298.9666z"/>
	<polygon fill="#404065" points="253.5928,301.6698 255.0924,301.6698 255.0924,293.7114 264.9009,293.7114 264.9009,292.2806 
		255.0924,292.2806 255.0924,285.8699 265.3067,285.8699 265.3067,284.446 253.5928,284.446 	"/>
	<path fill="#404065" d="M278.8848,292.3219c-0.4675-0.7291-1.0833-1.3069-1.8467-1.7471
		c-0.7739-0.4471-1.6853-0.6672-2.7412-0.6672c-0.8149,0-1.5752,0.1444-2.2769,0.4402c-0.7014,0.3096-1.3169,0.7291-1.8364,1.2588
		c-0.5159,0.5297-0.9216,1.1693-1.2173,1.8916c-0.3062,0.7291-0.4541,1.527-0.4541,2.3868c0,0.8667,0.1479,1.6646,0.4541,2.3868
		c0.2957,0.7291,0.7014,1.355,1.2173,1.8846c0.5195,0.5297,1.135,0.9492,1.8364,1.245c0.7017,0.3096,1.4619,0.454,2.2769,0.454
		c1.0559,0,1.9673-0.2201,2.7412-0.6671c0.7634-0.4265,1.3792-1.0181,1.8467-1.7472v2.2286h1.3931v-11.5765h-1.3931V292.3219z
		 M278.627,297.7354c-0.2202,0.564-0.5298,1.0592-0.9355,1.4719c-0.4058,0.4196-0.8735,0.7429-1.4272,0.9768
		s-1.1555,0.3577-1.8091,0.3577c-0.6533,0-1.2554-0.1238-1.8091-0.3577s-1.0317-0.5709-1.4409-0.9836
		c-0.4058-0.4196-0.7119-0.9149-0.9321-1.4789c-0.2236-0.5641-0.3335-1.1831-0.3335-1.8365c0-0.6466,0.1099-1.2656,0.3335-1.8297
		c0.2202-0.5641,0.5264-1.0593,0.9321-1.4789c0.3955-0.4196,0.877-0.7498,1.4307-0.9974c0.5537-0.2338,1.1558-0.3577,1.8193-0.3577
		c0.6536,0,1.2554,0.1239,1.8091,0.3577c0.5537,0.2339,1.0215,0.5709,1.4272,0.9768c0.4058,0.4127,0.7153,0.908,0.9355,1.472
		c0.2202,0.5778,0.3335,1.1968,0.3335,1.8572C278.9605,296.5522,278.8472,297.1644,278.627,297.7354z"/>
	<path fill="#404065" d="M303.5616,291.1594c-0.4297-0.4058-0.9355-0.7085-1.5374-0.9354
		c-0.6018-0.2064-1.2656-0.3164-1.9949-0.3164c-0.4539,0-0.8975,0.0481-1.3413,0.1444c-0.4399,0.1101-0.8596,0.2751-1.2551,0.4814
		c-0.3921,0.2202-0.7498,0.5022-1.0798,0.8392c-0.3337,0.3439-0.6055,0.7498-0.8152,1.2312
		c-0.1721-0.4333-0.406-0.8116-0.6877-1.1487c-0.2822-0.3302-0.626-0.5984-1.0078-0.8323s-0.8152-0.4059-1.2827-0.5297
		c-0.4783-0.1238-0.9839-0.1857-1.5239-0.1857c-0.4058,0-0.8013,0.0343-1.1934,0.1238c-0.3955,0.0825-0.7773,0.2201-1.1313,0.4059
		c-0.3579,0.1857-0.6914,0.4058-0.9976,0.6877c-0.3096,0.2821-0.5776,0.6122-0.8115,0.9974v-2.0292h-1.3931v11.5765h1.4033v-6.5964
		c0-0.5641,0.0996-1.08,0.3096-1.5615c0.196-0.4677,0.4678-0.8735,0.822-1.2174c0.344-0.3302,0.7532-0.6053,1.2312-0.791
		c0.4678-0.1788,0.9731-0.2683,1.5132-0.2683c0.5918,0,1.1213,0.0895,1.5752,0.2614c0.4575,0.172,0.8496,0.4197,1.1694,0.7361
		c0.3198,0.3301,0.5674,0.7291,0.7256,1.1968c0.1616,0.4678,0.2476,0.9905,0.2476,1.5752v6.6653h1.4033v-6.5964
		c0-0.5641,0.0962-1.08,0.3062-1.5615c0.196-0.4677,0.4678-0.8735,0.8254-1.2174c0.344-0.3302,0.7498-0.6053,1.2312-0.791
		c0.4678-0.1788,0.9697-0.2683,1.5132-0.2683c0.5918,0,1.1179,0.0895,1.5854,0.2614c0.4575,0.172,0.8496,0.4197,1.1694,0.7361
		c0.3096,0.3301,0.5537,0.7291,0.7256,1.1968c0.1619,0.4678,0.2478,0.9905,0.2478,1.5752v6.6653h1.4031v-7.0986
		c0-0.7153-0.1235-1.3688-0.3574-1.9467C304.3253,292.0468,303.9949,291.5653,303.5616,291.1594z"/>
	<path fill="#404065" d="M310.7393,284.9138c-0.282,0-0.5298,0.0962-0.7119,0.2888c-0.1855,0.1995-0.2854,0.4471-0.2854,0.7291
		s0.0999,0.5297,0.2854,0.7153c0.1821,0.1858,0.4299,0.2821,0.7119,0.2821c0.2822,0,0.5298-0.0963,0.7256-0.2821
		c0.1858-0.1857,0.2856-0.4333,0.2856-0.7153s-0.0999-0.5297-0.2856-0.7291C311.2691,285.01,311.0215,284.9138,310.7393,284.9138z"
		/>
	<rect x="310.0377" y="290.0933" fill="#404065" width="1.4033" height="11.5765"/>
	<rect x="317.126" y="283.9508" fill="#404065" width="1.4033" height="17.719"/>
	<polygon fill="#404065" points="327.7808,297.7078 323.1172,290.0933 321.5421,290.0933 326.9796,299.0903 322.5499,306.6292 
		324.1009,306.6292 333.6861,290.0933 332.1487,290.0933 	"/>
	<path fill="#404065" d="M357.9879,286.7091c-0.7876-0.7773-1.7231-1.3827-2.7927-1.8091
		c-1.0833-0.4333-2.2527-0.6534-3.5081-0.6534s-2.4248,0.2201-3.4941,0.6534c-1.0835,0.4264-2.019,1.0317-2.8066,1.8091
		c-0.7876,0.7704-1.4031,1.7058-1.8433,2.7926c-0.4575,1.08-0.6777,2.2631-0.6777,3.5562c0,1.2932,0.2202,2.4832,0.6777,3.5563
		c0.4402,1.0798,1.0557,2.0085,1.8433,2.7789c0.7876,0.7772,1.7231,1.3894,2.8066,1.8228c1.0693,0.4333,2.2388,0.6534,3.4941,0.6534
		s2.4248-0.2201,3.5081-0.6534c1.0696-0.4333,2.0051-1.0455,2.7927-1.8228c0.7876-0.7704,1.4033-1.6991,1.8606-2.7789
		c0.4402-1.0731,0.6638-2.2631,0.6638-3.5563c0-1.2931-0.2236-2.4762-0.6638-3.5562
		C359.3912,288.4149,358.7755,287.4795,357.9879,286.7091z M358.3834,296.0569c-0.3818,0.9011-0.8872,1.6785-1.5374,2.3319
		c-0.6536,0.6465-1.4275,1.1418-2.3044,1.4995c-0.8838,0.3577-1.833,0.5297-2.8545,0.5297s-1.981-0.172-2.8545-0.5297
		c-0.8838-0.3577-1.6475-0.853-2.3008-1.4995c-0.6536-0.6534-1.1694-1.4308-1.5376-2.3319
		c-0.3818-0.8942-0.5674-1.9053-0.5674-2.999c0-1.0936,0.1855-2.1047,0.5674-3.0059c0.3682-0.8942,0.884-1.6715,1.5376-2.325
		c0.6533-0.6534,1.417-1.1418,2.3008-1.4995c0.8735-0.3577,1.833-0.5297,2.8545-0.5297s1.9707,0.172,2.8545,0.5297
		c0.877,0.3577,1.6509,0.8461,2.3044,1.4995c0.6501,0.6534,1.1555,1.4308,1.5374,2.325c0.3679,0.9011,0.5537,1.9122,0.5537,3.0059
		C358.9371,294.1516,358.7513,295.1627,358.3834,296.0569z"/>
	<path fill="#404065" d="M370.1695,283.765c-0.6877,0-1.2793,0.1101-1.7607,0.3234c-0.478,0.2063-0.8735,0.5021-1.1797,0.8804
		c-0.3062,0.3853-0.54,0.8392-0.6775,1.3689c-0.134,0.5297-0.2097,1.1212-0.2097,1.7609v1.9948h-2.8408v1.2794h2.8408v10.2971
		h1.4031v-10.2971h4.9836v-1.2794h-4.9836v-1.9948c0-0.4814,0.0515-0.9011,0.1479-1.2794c0.0859-0.3715,0.2339-0.6879,0.4436-0.9492
		c0.196-0.2545,0.4541-0.454,0.7739-0.5916c0.3096-0.1307,0.6912-0.1926,1.145-0.1926c0.4817,0,0.9495,0.0688,1.3931,0.2064
		c0.4299,0.1376,0.8115,0.3094,1.1418,0.5021l0.5056-1.1693c-0.4058-0.2407-0.8599-0.454-1.3792-0.6122
		C371.3873,283.8545,370.8094,283.765,370.1695,283.765z"/>
	<path fill="#404065" d="M381.337,283.765c-0.688,0-1.2795,0.1101-1.761,0.3234c-0.478,0.2063-0.8735,0.5021-1.1797,0.8804
		c-0.3059,0.3853-0.5398,0.8392-0.6775,1.3689c-0.1343,0.5297-0.21,1.1212-0.21,1.7609v1.9948h-2.8408v1.2794h2.8408v10.2971h1.4033
		v-10.2971h4.9834v-1.2794h-4.9834v-1.9948c0-0.4814,0.0518-0.9011,0.1479-1.2794c0.0859-0.3715,0.2339-0.6879,0.4436-0.9492
		c0.196-0.2545,0.4539-0.454,0.7739-0.5916c0.3093-0.1307,0.6912-0.1926,1.1453-0.1926c0.4814,0,0.9492,0.0688,1.3928,0.2064
		c0.4299,0.1376,0.8118,0.3094,1.1418,0.5021l0.5056-1.1693c-0.406-0.2407-0.8599-0.454-1.3792-0.6122
		C382.5543,283.8545,381.9766,283.765,381.337,283.765z"/>
	<path fill="#404065" d="M388.4561,284.9138c-0.282,0-0.5298,0.0962-0.7119,0.2888c-0.1855,0.1995-0.2854,0.4471-0.2854,0.7291
		s0.0999,0.5297,0.2854,0.7153c0.1821,0.1858,0.4299,0.2821,0.7119,0.2821s0.5298-0.0963,0.7256-0.2821
		c0.1858-0.1857,0.2856-0.4333,0.2856-0.7153s-0.0999-0.5297-0.2856-0.7291C388.9859,285.01,388.7381,284.9138,388.4561,284.9138z"
		/>
	<rect x="387.7545" y="290.0933" fill="#404065" width="1.4033" height="11.5765"/>
	<path fill="#404065" d="M396.1602,292.542c0.4058-0.4058,0.8735-0.7428,1.4272-0.9767c0.5435-0.2339,1.1313-0.344,1.7607-0.344
		c0.688,0,1.3174,0.1239,1.8813,0.3715c0.5537,0.2614,1.0591,0.6053,1.5132,1.0593l0.9116-0.9492
		c-0.5161-0.5779-1.1455-1.0319-1.8711-1.3413c-0.7361-0.3096-1.5374-0.454-2.3972-0.454c-0.877,0-1.6646,0.1444-2.3904,0.454
		c-0.7256,0.3094-1.3516,0.7291-1.8811,1.2588c-0.5295,0.5295-0.9355,1.1693-1.2175,1.8915
		c-0.2959,0.7291-0.4436,1.5271-0.4436,2.3732c0,0.8529,0.1477,1.6371,0.4436,2.3662c0.282,0.7222,0.688,1.3619,1.2175,1.8916
		c0.5295,0.5295,1.1555,0.9492,1.8811,1.2587c0.7258,0.3096,1.5134,0.454,2.3904,0.454c0.8599,0,1.6611-0.1444,2.387-0.4677
		c0.7256-0.3096,1.3516-0.7498,1.8813-1.3276l-0.8738-0.9629c-0.4436,0.4333-0.9458,0.791-1.5271,1.0455
		c-0.5776,0.2614-1.2173,0.3989-1.9053,0.3989c-0.6294,0-1.2173-0.1238-1.7607-0.3577c-0.5537-0.2339-1.0215-0.5573-1.4272-0.963
		c-0.406-0.4059-0.7119-0.8942-0.9355-1.472c-0.2339-0.5709-0.344-1.1831-0.344-1.864c0-0.6741,0.1101-1.2863,0.344-1.871
		C395.4483,293.45,395.7542,292.9617,396.1602,292.542z"/>
	<path fill="#404065" d="M416.2178,291.5583c-0.4814-0.5227-1.0593-0.9286-1.7129-1.2174
		c-0.6636-0.2889-1.3755-0.4333-2.1528-0.4333c-0.8118,0-1.5615,0.1444-2.2632,0.4402s-1.3171,0.7017-1.8228,1.2312
		c-0.5159,0.5297-0.9216,1.1694-1.2036,1.8986c-0.2959,0.736-0.4438,1.5338-0.4438,2.4075c0,0.8873,0.1479,1.699,0.4302,2.4281
		c0.2817,0.7222,0.6877,1.3551,1.207,1.8846c0.5159,0.5228,1.1313,0.9355,1.8433,1.2175c0.7156,0.2958,1.4893,0.4402,2.3389,0.4402
		c0.4194,0,0.8391-0.0206,1.2451-0.0825c0.4058-0.0619,0.8115-0.165,1.2173-0.3094c0.3921-0.1514,0.7876-0.344,1.1694-0.5916
		c0.3818-0.2477,0.7498-0.5573,1.1177-0.9218l-0.7495-0.963c-0.5161,0.509-1.0938,0.9148-1.7334,1.2106
		c-0.6399,0.2889-1.3655,0.4403-2.1807,0.4403c-0.5881,0-1.1418-0.0963-1.6611-0.2821c-0.5298-0.1857-0.9836-0.4677-1.3894-0.8391
		c-0.406-0.3577-0.7258-0.798-0.9734-1.3275c-0.2578-0.5297-0.4058-1.1212-0.4541-1.7953h9.709
		c0.0139-0.0895,0.0139-0.1858,0.0244-0.2821v-0.2958c-0.0105-0.8667-0.1479-1.6646-0.4302-2.3868
		C417.0674,292.7002,416.6959,292.088,416.2178,291.5583z M408.0704,295.1833c0.0618-0.5846,0.22-1.1281,0.4539-1.6233
		c0.2336-0.4884,0.5295-0.9218,0.9011-1.2794c0.3679-0.3577,0.7979-0.626,1.2896-0.8323c0.4814-0.1995,1.0215-0.2958,1.613-0.2958
		c0.5435,0,1.0457,0.0963,1.5134,0.2958c0.4678,0.1926,0.8872,0.4678,1.2449,0.8185c0.3542,0.3577,0.6399,0.7773,0.8599,1.2726
		c0.22,0.5021,0.3577,1.0455,0.4058,1.6439H408.0704z"/>
	<path fill="#404065" d="M109.5706,223.045c0-9.0968-7.5422-16.5635-16.7112-16.5635H76.963c-0.5193,0-0.9629,0.4437-0.9629,0.9596
		v49.8417c0,0.5159,0.4436,0.9595,0.9629,0.9595h1.3276c0.7429,0,1.1831-0.4436,1.1831-0.9595V239.832h13.4614
		C102.0284,239.832,109.5706,232.2864,109.5706,223.045z M92.7115,236.4271H79.4737v-26.4684h13.1655
		c7.3188,0,13.4543,5.7642,13.4543,13.014C106.0936,230.4395,99.9581,236.4271,92.7115,236.4271z"/>
	<path fill="#404065" d="M178.7169,256.9114l-10.7925-19.1498c7.0229-1.9982,12.1992-7.986,12.1992-15.4559
		c0-9.0212-7.4668-15.8241-16.4912-15.8241H145.294c-0.5913,0-0.9595,0.4437-0.9595,0.9596v49.8417
		c0,0.5159,0.4438,0.9595,0.9595,0.9595h1.3345c0.7361,0,1.1831-0.4436,1.1831-0.9595v-19.0054h13.6057
		c0.9597,0,1.7747,0,2.7341-0.0757l10.7202,19.3768c0.2236,0.4402,0.5195,0.6637,1.0386,0.6637h2.2905
		C178.9405,258.2423,179.0882,257.5029,178.7169,256.9114z M163.4879,235.1719h-15.604v-25.2888h15.5283
		c7.1743,0,13.1621,5.3997,13.1621,12.4226C176.5743,229.6244,170.5865,235.1719,163.4879,235.1719z"/>
	<path fill="#404065" d="M253.8575,257.355l-22.5547-51.465c-0.22-0.4436-0.5913-0.5193-0.9629-0.5193h-0.2202
		c-0.3713,0-0.7393,0.2235-0.8872,0.5193l-22.7747,51.465c-0.2202,0.5916,0,0.8873,0.5159,0.8873h2.0703
		c0.5195,0,0.8875-0.3679,1.0386-0.6637l5.9155-13.6057h28.2432l5.9912,13.6057c0.1479,0.2958,0.5161,0.6637,1.0352,0.6637h1.9229
		C254.002,258.2423,254.002,257.7987,253.8575,257.355z M217.3258,241.0874l12.8696-29.8011h0.1445l12.646,29.8011H217.3258z"/>
	<path fill="#404065" d="M306.9664,206.4816h-31.7993c-0.5156,0-0.9595,0.368-0.9595,0.9596v1.1108
		c0,0.6638,0.2236,1.111,0.9595,1.111h14.125v47.6199c0,0.5159,0.4438,0.9595,0.9597,0.9595h1.3342
		c0.7363,0,1.1831-0.4436,1.1831-0.9595V209.663h14.1973c0.5918,0,0.9597-0.4471,0.9597-0.963v-1.2588
		C307.9261,206.9253,307.5582,206.4816,306.9664,206.4816z"/>
	<path fill="#404065" d="M366.4244,257.2828v-1.1831c0-0.5194-0.4404-0.963-0.9595-0.963h-27.0635v-21.8875h23.4419
		c0.5156,0,0.9595-0.4436,0.9595-0.9629v-1.2554c0-0.5193-0.4438-0.9596-0.9595-0.9596h-23.4419V209.663h27.0635
		c0.519,0,0.9595-0.4471,0.9595-0.963v-1.2588c0-0.5159-0.4404-0.9596-0.9595-0.9596H335.815c-0.5195,0-0.9629,0.4437-0.9629,0.9596
		v49.8417c0,0.5159,0.4434,0.9595,0.9629,0.9595h29.6499C365.9839,258.2423,366.4244,257.7987,366.4244,257.2828z"/>
	<path fill="#404065" d="M417.3082,205.7422c-14.7891,0-26.6201,11.9067-26.6201,26.6954c0,14.8611,11.8311,26.5442,26.6201,26.5442
		c14.8608,0,26.6919-11.6831,26.6919-26.5442C444.0001,217.6489,432.169,205.7422,417.3082,205.7422z M417.3082,255.7283
		c-12.9419,0-23.3665-10.3522-23.3665-23.2906c0-12.9419,10.4246-23.4419,23.3665-23.4419s23.4385,10.5,23.4385,23.4419
		C440.7466,245.3761,430.2501,255.7283,417.3082,255.7283z"/>
	<rect fill="none" width="512" height="512"/>
</g>
</svg>
