<?xml version="1.0" encoding="utf-8"?>
<!-- Generator: Adobe Illustrator 18.1.1, SVG Export Plug-In . SVG Version: 6.00 Build 0)  -->
<!DOCTYPE svg PUBLIC "-//W3C//DTD SVG 1.1//EN" "http://www.w3.org/Graphics/SVG/1.1/DTD/svg11.dtd">
<svg version="1.1" id="XMLID_2_" xmlns="http://www.w3.org/2000/svg" xmlns:xlink="http://www.w3.org/1999/xlink" x="0px" y="0px"
	 viewBox="0 0 512 512" enable-background="new 0 0 512 512" xml:space="preserve">
<g id="Tennis-Club-de-Lausanne">
	<path fill="#404065" d="M180.1114,377.5392c-1.2881-1.7059-2.1086-3.2678-1.1033-4.9408c0.9441-1.5717,3.0438-2.1388,4.7683-1.1023
		c1.2179,0.7316,1.6792,1.8019,2.2517,3.6642l1.3406-2.2303c-0.3956-0.8933-1.0348-2.2428-2.5815-3.1726
		c-2.5868-1.5538-5.9603-0.8214-7.5444,1.8143c-1.8126,3.0162,0.3982,5.8279,1.2196,6.8743
		c1.6686,2.1058,2.3975,3.6482,1.3014,5.4733c-1.2339,2.0525-3.7354,2.4819-5.5364,1.4c-1.344-0.8071-1.9316-2.1263-2.7014-4.1763
		l-1.3094,2.1797c0.3947,0.8926,1.1752,2.6384,3.0001,3.7354c2.8163,1.6917,6.5454,0.8276,8.3278-2.1379
		c1.7822-2.9655,0.048-5.4216-0.5308-6.1835L180.1114,377.5392z"/>
	<path fill="#404065" d="M189.8017,382.0328l2.2936,1.1689l0.7111-1.3966l-2.2935-1.1689l1.8668-3.6625l-1.6082-0.8187
		l-1.8667,3.6625l-1.6873-0.8605l-0.7112,1.3965l1.6873,0.8596l-4.4847,8.8007c-0.7245,1.4222-0.377,2.761,1.0463,3.4865
		c0.7903,0.4027,1.4126,0.4871,1.8081,0.5564l0.8054-1.5806c-0.5422,0.0223-0.9254-0.0071-1.3734-0.2355
		c-0.712-0.3627-0.92-0.9335-0.5574-1.6445L189.8017,382.0328z"/>
	<path fill="#404065" d="M199.2771,384.4934c-1.1974-0.5085-2.1371-0.4899-3.8892-0.3014l-0.7974,1.8774
		c1.017-0.2747,2.5308-0.6595,3.9745-0.048c1.3342,0.5671,1.9956,2.0366,1.3716,3.506l-0.4622,1.0898
		c-3.3478-0.9724-7.0619-2.0668-8.5642,1.4722c-0.9014,2.1228-0.0924,4.4589,1.9229,5.3141
		c1.825,0.7743,3.3282-0.1938,4.0251-0.7014l0.0551,0.024c-0.3431,0.8818-0.7316,2.0988,0.9032,2.7921
		c0.6267,0.2659,1.0774,0.265,1.4072,0.2445l0.6124-1.4427c-0.2639,0.0151-0.5439-0.0062-0.7893-0.1102
		c-0.4899-0.208-0.5308-0.6427-0.3689-1.0249l2.8313-6.6689C202.5609,388.0394,202.0826,385.6837,199.2771,384.4934z
		 M198.2032,393.6113c-0.8783,2.0686-2.642,3.1184-4.3033,2.4144c-1.3068-0.5548-1.8438-1.9397-1.2775-3.274
		c0.9707-2.2855,3.3575-1.6259,6.2972-0.8285L198.2032,393.6113z"/>
	<path fill="#404065" d="M216.5449,384.2223l-2.2847,7.0315c-0.4924-0.7822-1.1644-1.7778-2.5157-2.217
		c-2.8135-0.9138-5.9568,1.3912-7.236,5.3284c-1.1698,3.6002-0.3085,7.3632,2.4481,8.2583c1.8571,0.6045,3.2794-0.519,3.9114-1.1227
		l0.0569,0.0187l-0.6035,1.8561l1.7166,0.5574l6.2235-19.1523L216.5449,384.2223z M211.9846,398.2561
		c-0.713,2.1938-2.5371,3.4047-4.1976,2.865c-2.0819-0.6764-2.3389-3.6198-1.489-6.236c0.9779-3.009,3.1256-4.8304,5.2919-4.1265
		c0.9574,0.3112,1.6632,0.9138,2.1406,2.1255L211.9846,398.2561z"/>
	<path fill="#404065" d="M225.0031,392.701c-3.113-0.7183-6.0626,1.6659-7.0271,5.8439c-0.8845,3.8323,0.329,7.3899,3.7584,8.1819
		c1.9611,0.4525,3.5265-0.2782,4.58-0.7635l0.4854-2.1041c-0.9005,0.6124-2.61,1.705-4.5701,1.2524
		c-1.6721-0.3857-3.322-2.3148-2.4509-6.0892l0.16-0.6917l8.1588,1.8828l0.1991-0.864
		C228.9954,396.3235,227.9722,393.3865,225.0031,392.701z M226.5473,398.2472l-6.0538-1.3975
		c0.2908-0.601,0.5833-1.0791,1.0552-1.5468c1.0161-0.9796,2.1238-1.1787,3.0465-0.9663c0.6934,0.16,1.6063,0.6747,1.9806,1.9442
		C226.7589,396.9307,226.6557,397.5138,226.5473,398.2472z"/>
	
		<rect x="231.2493" y="400.5228" transform="matrix(-0.9903 -0.1393 0.1393 -0.9903 410.7173 831.6239)" fill="#404065" width="6.4204" height="1.834"/>
	<polygon fill="#404065" points="244.5814,389.4164 242.6336,389.2795 241.2291,409.3696 250.644,410.0275 250.7675,408.2585 
		243.3004,407.7358 	"/>
	<path fill="#404065" d="M264.2253,408.2968c-0.5316,0.0187-0.7521-0.3591-0.7662-0.7726l-0.2534-7.2404
		c-0.0934-2.6901-1.5227-4.6217-4.5682-4.515c-1.3005,0.0453-2.145,0.4587-3.6527,1.3699l0.071,2.0383
		c0.8054-0.6782,2.0144-1.6667,3.5807-1.7219c1.449-0.0507,2.6704,1.0018,2.7264,2.5975l0.0409,1.1824
		c-3.4447,0.5342-7.2733,1.1111-7.1391,4.9541c0.0809,2.3041,1.8002,4.0793,3.9888,4.0029
		c1.9806-0.0695,2.9343-1.5815,3.3522-2.3372l0.0596-0.0017c0.0623,0.9458,0.2249,2.2117,1.9993,2.1494
		c0.6801-0.0231,1.0872-0.2159,1.3778-0.3733l-0.0551-1.5663C264.7551,408.1892,264.492,408.287,264.2253,408.2968z
		 M258.6374,408.4915c-1.4188,0.0497-2.4908-0.9779-2.5415-2.426c-0.0872-2.4828,2.3557-2.8934,5.3577-3.4126l0.064,1.833
		C261.5958,406.7313,260.441,408.4292,258.6374,408.4915z"/>
	<path fill="#404065" d="M274.6321,394.7892l0.9806,7.9836c0.3021,2.4659-0.7041,4.4661-2.73,4.715
		c-1.674,0.2053-2.4456-0.9814-2.6224-2.4197l-1.1787-9.598l-1.7913,0.2205l1.1787,9.598c0.296,2.4064,1.7122,4.2286,4.267,3.9158
		c1.9966-0.2454,2.8296-1.7184,3.283-2.6384l0.0586-0.0071l0.2302,1.8793l1.7913-0.2205l-1.6757-13.6489L274.6321,394.7892z"/>
	<path fill="#404065" d="M286.2214,398.6472c-2.0223-0.0782-3.2722-0.3662-3.5389-1.5183c-0.2791-1.2108,0.6481-2.457,2.2909-2.8358
		c1.7014-0.3928,3.0375,0.2703,3.7922,0.6418l-0.4596-1.9877c-1.1423-0.3448-2.3281-0.6151-3.77-0.2827
		c-2.5361,0.585-4.1746,2.6936-3.6562,4.9391c0.3396,1.4702,1.4108,2.5583,4.3353,2.7344c0.1573,0.0249,1.0179,0.0675,1.1753,0.0907
		c1.4774,0.0853,2.6099,0.5226,2.8633,1.6161c0.312,1.3547-0.7032,2.7433-2.6349,3.1895c-1.6721,0.3859-3.0597-0.2346-4.1202-0.7484
		l0.4658,2.0161c0.792,0.272,2.2756,0.7787,4.1202,0.3538c2.6517-0.6134,4.5238-2.8961,3.9514-5.3728
		C290.683,399.9557,289.5629,398.7876,286.2214,398.6472z"/>
	<path fill="#404065" d="M304.3505,400.4954c-0.5084,0.1555-0.8196-0.1511-0.9404-0.5468l-2.1184-6.9285
		c-0.7867-2.5735-2.6677-4.0704-5.5817-3.1797c-1.2445,0.3804-1.953,0.9983-3.1736,2.2694l0.5964,1.9513
		c0.6019-0.865,1.5139-2.1335,3.0127-2.5913c1.3867-0.4241,2.8394,0.2773,3.306,1.8037l0.3458,1.1316
		c-3.1896,1.4072-6.7383,2.9557-5.6138,6.6324c0.6738,2.2046,2.7948,3.474,4.8883,2.834c1.8953-0.5796,2.425-2.2864,2.6331-3.1246
		l0.0569-0.017c0.3058,0.897,0.7903,2.0775,2.4873,1.5592c0.6508-0.1991,0.9956-0.4897,1.2356-0.7183l-0.4586-1.4988
		C304.8342,400.2544,304.6057,400.418,304.3505,400.4954z M299.0035,402.1301c-1.3583,0.4152-2.6597-0.3005-3.0837-1.6854
		c-0.7262-2.3754,1.5272-3.4047,4.2919-4.683l0.537,1.7539C301.4055,399.6642,300.7289,401.6029,299.0035,402.1301z"/>
	<path fill="#404065" d="M309.1713,384.9663c-1.9611,0.832-2.2463,2.4304-2.4321,3.5051l-0.0552,0.0231l-0.8987-1.7379
		l-1.5255,0.6472l5.3738,12.6577l1.6614-0.7058l-3.2811-7.7303c-0.7982-1.8792-0.3085-4.2064,1.4624-4.9576
		c1.1982-0.5084,2.5317-0.0151,3.1913,1.537l3.8011,8.9553l1.6614-0.705l-3.801-8.9553
		C313.3929,385.2943,311.5403,383.9609,309.1713,384.9663z"/>
	<path fill="#404065" d="M320.9534,379.542c-1.897,0.9672-2.0713,2.5814-2.1815,3.6669l-0.0533,0.0266l-1.0178-1.672l-1.4766,0.752
		l6.2432,12.2524l1.608-0.8197l-3.8126-7.4822c-0.9264-1.8188-0.6001-4.1754,1.1138-5.0483
		c1.1602-0.5912,2.5255-0.1912,3.2909,1.3112l4.4172,8.6681l1.608-0.8196l-4.4171-8.6681
		C325.1874,379.5748,323.2469,378.3739,320.9534,379.542z"/>
	<path fill="#404065" d="M338.8586,383.6311c-1.4392,0.9343-3.9727,0.7805-6.083-2.4686l-0.3867-0.5947l7.0217-4.5593
		l-0.4827-0.7441c-1.6917-2.6036-4.514-3.9087-7.0698-2.249c-2.6792,1.7397-3.0135,5.5168-0.6782,9.1135
		c2.1423,3.298,5.5443,4.8981,8.4974,2.9806c1.6873-1.0961,2.2482-2.7299,2.6312-3.8242l-1.1752-1.8108
		C340.9476,380.5465,340.5458,382.535,338.8586,383.6311z M331.3292,377.3071c0.001-1.4108,0.6277-2.3468,1.4224-2.8624
		c0.5947-0.3867,1.5992-0.6863,2.7744-0.0737c0.5947,0.3191,0.9414,0.7992,1.3938,1.3867l-5.2109,3.3843
		C331.4786,378.5153,331.3372,377.9712,331.3292,377.3071z"/>
	<polygon fill="#404065" points="184.772,159.0209 197.0866,175.3606 198.8228,174.0521 186.5091,157.7124 190.6667,154.5797 
		189.4764,153.001 179.4251,160.5748 180.6145,162.1536 	"/>
	<path fill="#404065" d="M210.4254,166.9672c1.9592-1.0863,2.7103-2.8589,3.2197-4.0447l-1.1663-2.1041
		c-0.2889,1.177-0.889,3.3567-2.8491,4.442c-1.6713,0.9263-4.4741,0.5592-6.5667-3.2153l-0.3832-0.6924l8.1553-4.5204l-0.4791-0.864
		c-1.6775-3.026-4.7133-4.6954-7.6805-3.0509c-3.1122,1.7255-3.7754,5.8982-1.4597,10.0763
		C203.3404,166.8258,206.9967,168.8678,210.4254,166.9672z M203.5573,154.5762c0.6917-0.3832,1.8303-0.6383,3.0873,0.1343
		c0.6365,0.4009,0.985,0.9609,1.4419,1.6489l-6.052,3.354c-0.207-0.712-0.3218-1.3281-0.2791-2.0668
		C201.8657,156.0785,202.6346,155.0873,203.5573,154.5762z"/>
	<path fill="#404065" d="M219.9708,161.7357l-3.353-8.7347c-0.8152-2.1219-0.1796-4.6946,1.8197-5.4626
		c1.3538-0.5192,2.8197,0.0828,3.4927,1.8348l3.8846,10.1198l1.8766-0.7201l-3.8848-10.1198
		c-0.9564-2.4908-2.9663-4.0491-5.6421-3.0215c-2.2144,0.8499-2.5948,2.6188-2.8438,3.8091l-0.0613,0.0232l-0.9326-1.9708
		l-1.7228,0.6614l5.4902,14.3022L219.9708,161.7357z"/>
	<path fill="#404065" d="M233.9975,157.059l-1.9459-9.1526c-0.4729-2.2233,0.5583-4.6652,2.6527-5.1106
		c1.4178-0.3013,2.7726,0.5227,3.1628,2.3594l2.2534,10.6024l1.9664-0.4178l-2.2544-10.6024
		c-0.5547-2.61-2.2961-4.4634-5.0999-3.8678c-2.3202,0.4933-2.9718,2.1814-3.4047,3.3175l-0.0641,0.0143l-0.6134-2.0935
		l-1.8046,0.384l3.1852,14.985L233.9975,157.059z"/>
	
		<rect x="245.701" y="139.4674" transform="matrix(0.9962 -0.0872 0.0872 0.9962 -11.8856 22.0646)" fill="#404065" width="2.0096" height="15.3196"/>
	<path fill="#404065" d="M245.7547,136.4452c1.2144-0.1067,1.0703-1.7477,1.0481-2.0099c-0.0525-0.5912-0.3253-1.8241-1.3431-1.7344
		c-0.9841,0.0853-1.1104,1.2872-1.0472,2.0099C244.4498,135.1367,244.7041,136.5367,245.7547,136.4452z"/>
	<path fill="#404065" d="M256.1767,152.8997c-1.9111-0.033-3.2446-1.0784-4.2508-1.9193l-0.0409,2.3059
		c0.7831,0.5077,2.248,1.4562,4.3575,1.4926c3.0304,0.0533,5.668-1.9103,5.7178-4.7434c0.0302-1.7467-0.8658-3.3104-4.4386-4.3612
		c-2.1645-0.632-3.4375-1.2792-3.4153-2.5974c0.0249-1.3833,1.3618-2.4802,3.2394-2.4473c1.9441,0.0337,3.21,1.1102,3.9255,1.7156
		l0.0391-2.2729c-1.1422-0.6792-2.3503-1.2926-3.9976-1.3219c-2.8998-0.0507-5.2377,1.7867-5.2829,4.3558
		c-0.0294,1.6801,0.8356,3.1451,3.9496,4.1229c0.1636,0.0685,1.0801,0.3485,1.2436,0.4169c1.5734,0.489,2.6802,1.2659,2.6588,2.5184
		C259.8543,151.7119,258.3831,152.9387,256.1767,152.8997z"/>
	
		<rect x="268.264" y="143.8726" transform="matrix(-0.1393 0.9902 -0.9902 -0.1393 452.8134 -98.6677)" fill="#404065" width="2.0423" height="7.1493"/>
	<path fill="#404065" d="M281.7437,158.6511c1.8054,0.5182,3.3629,0.1075,4.4349-0.1671l0.7361-2.5647
		c-0.9609,0.4783-2.6757,1.3228-4.4812,0.8054c-3.0721-0.881-3.9594-5.0768-2.4703-10.2709
		c0.5627-1.9637,3.041-9.4104,7.8547-8.0299c1.6161,0.4631,2.5691,1.7993,3.2739,2.9265l0.7174-2.5016
		c-0.4515-0.5751-1.5912-1.8615-3.4918-2.4064c-4.9718-1.4259-8.8049,3.3353-10.4299,9.0042
		C276.1255,151.5911,276.9612,157.2804,281.7437,158.6511z"/>
	
		<rect x="283.0122" y="149.7401" transform="matrix(-0.3907 0.9205 -0.9205 -0.3907 547.9573 -61.1944)" fill="#404065" width="22.4366" height="2.0095"/>
	<path fill="#404065" d="M297.9937,165.1991c1.9779,1.0516,3.6775,0.2391,4.6803-0.3103l0.0577,0.0311l-0.9902,1.8615l1.7743,0.9441
		l7.1925-13.5271l-1.7743-0.9432l-4.2074,7.9126c-1.2988,2.4427-3.4962,3.626-5.5035,2.5583
		c-1.657-0.8818-1.6028-2.457-0.8453-3.882l5.0581-9.5127l-1.7753-0.9431l-5.0581,9.5117
		C295.3349,161.2859,295.4628,163.8531,297.9937,165.1991z"/>
	<path fill="#404065" d="M308.4992,170.9541l1.2214-0.7832c0.3761,1.7806,0.6721,2.6064,1.7379,3.3807
		c2.7726,2.0134,6.8867,0.4418,9.5393-3.21c2.5184-3.4652,2.85-7.621,0.2115-9.5385c-1.7317-1.2588-3.5078-0.5529-4.5221-0.1094
		l-0.0533-0.0382l5.4803-7.5427l-1.6249-1.1814l-13.1893,18.1505L308.4992,170.9541z M314.233,163.9608
		c1.5299-2.106,3.9274-3.0518,5.5532-1.8704c1.8926,1.3751,1.3931,4.4731-0.5049,7.0848c-1.9557,2.6926-4.9061,4.1737-7.0912,2.5859
		c-1.1733-0.8516-1.2792-2.1094-1.3467-3.1361L314.233,163.9608z"/>
	<polygon fill="#404065" points="262.0931,372.0573 262.0931,264.7736 250.1857,256.4589 250.1857,363.7427 	"/>
	<polygon fill="#404065" points="284.9387,256.4589 273.0317,264.7736 273.0317,347.5999 284.9387,339.2855 	"/>
	<polygon fill="#404065" points="307.7836,314.8284 307.7836,256.4589 295.8771,264.7736 295.8771,323.1425 	"/>
	<polygon fill="#404065" points="216.4022,323.1425 216.4022,264.7736 204.4952,256.4589 204.4952,314.8284 	"/>
	<polygon fill="#404065" points="227.3402,339.2855 239.2476,347.5999 239.2476,264.7736 227.3402,256.4589 	"/>
	<path fill="#404065" d="M239.0502,247.4995c-1.6534,0-3.3593-0.6089-5.0723-1.8098l-0.0969-0.0676l-1.6686,4.0509l-0.0302,0.072
		l0.0667,0.0427c1.8668,1.1992,3.9896,1.8073,6.3107,1.8073c2.6721,0,4.8323-0.6614,6.4199-1.9664
		c1.6063-1.3093,2.4207-3.002,2.4207-5.0287c-0.001-1.1255-0.1965-2.1575-0.5823-3.0652c-0.3876-0.9209-0.9583-1.7343-1.697-2.417
		c-0.7378-0.6917-1.9521-1.4534-3.611-2.2659c-3.0962-1.5085-4.6669-2.9709-4.6669-4.347c0-0.8258,0.2693-1.5032,0.8009-2.0116
		c0.5422-0.5219,1.3174-0.7867,2.3024-0.7867c1.6873,0.0009,3.314,0.5529,4.8341,1.6401l0.1022,0.0729l1.401-3.9709l-0.0525-0.0417
		c-1.3547-1.0792-3.4979-1.6268-6.3693-1.6268c-2.2135,0-4.0563,0.6454-5.4768,1.9183c-1.4125,1.2766-2.129,2.9052-2.129,4.8403
		c0,1.0348,0.1787,1.9922,0.5316,2.8456c0.3645,0.8534,0.8837,1.6036,1.5459,2.2312c0.6685,0.6116,1.9672,1.4081,3.8624,2.3663
		c1.8846,0.937,3.1433,1.7939,3.7407,2.545c0.5929,0.7468,0.8934,1.5406,0.8934,2.3602
		C242.8292,246.6453,241.5927,247.4995,239.0502,247.4995z"/>
	<polygon fill="#404065" points="263.7524,226.2021 263.7524,251.1727 279.5383,251.1727 279.5383,247.0764 268.3393,247.0764 
		268.3393,226.2021 	"/>
	<path fill="#404065" d="M399.947,278.3643v0.1078l-8.0267-5.651l-7.9298,5.5828v-9.2753v-2.1757v-9.4598l-6.6826-4.705
		l6.3403-4.464v-0.0703l7.9272-5.5812v-11.6355l-8.0267,5.6512v0.0701l-7.9268,5.5813l-8.0267-5.6514v0.1077l-8.0267,5.6512v0.0704
		l-7.485,5.2703v-11.006l-8.0262-5.6512l-8.0272,5.6512v11.6356l8.0272-5.6512l7.5845,5.3403v0.1658l-7.6846,5.4106v0.0702
		l-7.9271,5.5813v9.4597v2.1759v9.4595l8.0272,5.6515l8.0262-5.6515v-0.0699l0.1045-0.0739v9.3337l-0.0032-0.0022v11.6356
		l6.4818,4.5636l-6.4818,4.5635l-7.9263-5.5811v-0.0704l-8.0267-5.6512v0.0016l-7.9272-5.5808v-0.0707l-8.0267-5.6512
		l-8.0262,5.6512v9.4597v2.1759v9.4597l7.9268,5.5813v0.0699l7.6849,5.4105v0.166l-7.5854,5.3405l-8.0262-5.6514v11.6355
		l8.0262,5.6515l8.0267-5.6515v-11.0059l7.4855,5.2704v0.0702l8.0262,5.6515v0.1075l8.0272-5.6512l7.9268,5.5813v0.0699
		l8.0262,5.6512v-11.6354l-7.9268-5.5813v-0.0702l-6.3403-4.4641l6.6821-4.705v-9.4597v-2.1759v-9.2753l7.9303,5.5833l7.825-5.5095
		v0.2318l0.2894-0.204l7.9387,5.5895l8.0267,5.6512V295.16l-7.7521-5.4579l7.4507-5.2457l8.0267,5.6515v-0.108l8.0269-5.6512
		l8.0262-5.6515v-11.6354l-8.0262,5.6512L399.947,278.3643z M343.8162,325.5333v-0.1078l-7.9268-5.5813v-0.0702l-7.6849-5.4105
		v-0.1733l-7.9268-5.5813v-0.0702l-6.4813-4.5635l6.4813-4.5634l7.9268,5.5808v0.0704l8.0272,5.6515v-0.0016l7.9268,5.5808v0.0707
		l6.3403,4.4639L343.8162,325.5333z M351.9835,268.7943v0.0699l-7.9263,5.5813l-6.4818-4.5635l6.4818-4.5636v-0.0702l7.9263-5.5811
		v-0.1738l7.6844-5.4103v-0.0703l7.9272-5.5812v-0.1075l6.6826,4.7047l-6.3405,4.4642v0.0703l-7.9271,5.5811v-0.0016
		L351.9835,268.7943z M375.9637,272.6042v11.2892l-7.8219,5.5076l-7.9271-5.5813v-0.0699l-6.4734-4.5577l6.2689-4.4136v0.0016
		l8.0272-5.6515v-0.0702l7.9263-5.5808l6.4817,4.5631L375.9637,272.6042z"/>
	<polygon fill="#404065" points="407.9738,249.7748 399.947,255.426 399.947,267.0618 407.9738,261.4105 416.0001,267.0618 
		416.0001,255.426 	"/>
	<polygon fill="#404065" points="383.5486,213.7502 375.5223,219.4012 375.5223,231.0371 383.5486,225.3856 391.5754,231.0371 
		391.5754,219.4015 	"/>
	<polygon fill="#404065" points="384.1949,312.4471 376.1682,306.7957 376.1682,318.4313 384.1949,324.0825 392.2216,318.4313 
		392.2216,306.7957 384.1949,312.4469 	"/>
	<polygon fill="#404065" points="351.7435,342.8202 351.7435,354.4559 359.7702,360.1072 367.7964,354.4559 367.7964,342.8202 
		359.7702,348.4717 	"/>
	<polygon fill="#404065" points="112.0535,267.0618 112.0535,255.426 104.0268,249.7748 96.0001,255.426 96.0001,267.0618 
		104.0268,261.4105 	"/>
	<polygon fill="#404065" points="136.4782,231.0371 136.4782,219.4012 128.4515,213.7502 120.4248,219.4015 120.4248,231.0371 
		128.4515,225.3856 	"/>
	<polygon fill="#404065" points="127.8053,324.0825 135.832,318.4313 135.832,306.7957 127.8053,312.4471 127.8053,312.4469 
		119.7785,306.7957 119.7785,318.4313 	"/>
	<path fill="#404065" d="M176.2102,331.3397l7.4855-5.2704v11.0059l8.0267,5.6515l8.0262-5.6515v-11.6355l-8.0262,5.6514
		l-7.585-5.3405v-0.166l7.6844-5.4105v-0.0702l7.9268-5.5811v-9.4597v-2.1759v-9.4597l-8.0262-5.6512l-8.0267,5.6512v0.0707
		l-7.9272,5.5808v-0.0016l-8.0267,5.6512v0.0704l-7.9268,5.5811l-6.4813-4.5635l6.4813-4.5636v-11.6356l-0.0027,0.0022v-9.334
		l0.1045,0.0739v0.0702l8.0267,5.6515l8.0267-5.6515v-9.4595v-2.1759v-9.4597l-7.9268-5.5813v-0.0702l-7.6849-5.4106v-0.166
		l7.585-5.3401l8.0267,5.6512V236.782l-8.0267-5.6512l-8.0267,5.6512v11.0059l-7.485-5.2699v-0.0707l-8.0267-5.6512v-0.1077
		l-8.0267,5.6514l-7.9268-5.5811v-0.0703l-8.0267-5.6512v11.6355l7.9268,5.5812v0.0703l6.3408,4.464l-6.6826,4.705v9.4598v2.1757
		v9.2753l-7.9298-5.5828l-8.0264,5.651v-0.1078l-8.0267-5.6512l-8.0267-5.6512v11.6354l8.0267,5.6515l8.0267,5.6512v0.108
		l8.0264-5.6515l7.4507,5.2458l-7.7521,5.4578v11.6356l8.0267-5.6512l7.9387-5.5895l0.2898,0.204v-0.2318l7.825,5.5095
		l7.9294-5.5833v9.2753v2.1759v9.4597l6.6826,4.705l-6.3403,4.4641v0.0704l-7.9272,5.5811v11.6354l8.0272-5.6512v-0.0702
		l7.9263-5.5811l8.0267,5.6512v-0.1075l8.0267-5.6515V331.3397z M144.405,248.3241v0.1075l7.9268,5.5812v0.0703l7.6849,5.4103
		v0.1738l7.9268,5.5811v0.0702l6.4818,4.5636l-6.4818,4.5635l-7.9268-5.5811v-0.0702l-8.0267-5.6515v0.0016l-7.9271-5.5813v-0.0701
		l-6.3405-4.4642L144.405,248.3241z M151.7855,283.7498v0.0702l-7.9268,5.5811l-7.8223-5.5076v-11.2892l-6.4813-4.5636
		l6.4813-4.5631l7.9268,5.5808v0.0702l8.0267,5.6515v-0.0016l6.2689,4.4136L151.7855,283.7498z M176.1107,319.8445l-7.9272,5.5811
		v0.1078l-6.6821-4.7047l6.3403-4.4641v-0.0707l7.9268-5.5808v0.0016l8.0267-5.6515v-0.0704l7.9272-5.5808l6.4813,4.5634
		l-6.4813,4.5635v0.0702l-7.9272,5.5813v0.1735l-7.6844,5.4104V319.8445z"/>
	<polygon fill="#404065" points="152.2304,360.1072 160.2567,354.4559 160.2567,342.8202 152.2304,348.4717 144.2032,342.8202 
		144.2032,354.4559 	"/>
	<polygon fill="#404065" points="237.5738,190.5048 237.5,190.5048 231.6529,182.2021 219.4637,182.2021 225.3841,190.6094 
		225.4578,190.6094 231.3045,198.9121 241.2144,198.9121 243.4941,198.9121 253.4046,198.9121 265.5938,198.9121 277.7835,198.9121 
		283.6306,190.6094 283.7043,190.6094 289.6247,182.2021 277.435,182.2021 271.588,190.5048 271.5142,190.5048 265.6418,182.1653 
		272.6658,173.7946 260.4761,173.7946 260.449,173.827 254.5788,165.4921 247.4837,173.7948 235.294,173.7948 241.2144,182.2021 
		241.2883,182.2021 247.1348,190.5048 242.3546,197.2936 	"/>
	<path fill="#404065" d="M239.6303,117.483h1.3761v-15.4116h-1.1908v0.4625c-0.0009,0.7247-0.1929,1.2719-0.5782,1.642
		c-0.3857,0.3623-0.9098,0.5435-1.573,0.5435h-0.6008v1.1097h2.5668V117.483z"/>
	<path fill="#404065" d="M250.0483,111.4709c1.2948,0,2.4513-0.7976,3.4688-2.3929c0,1.1254-0.0463,2.0615-0.1387,2.8092
		c-0.085,0.7402-0.316,1.4955-0.6938,2.2661c-0.3702,0.7709-0.8174,1.3334-1.3414,1.688s-1.0867,0.5319-1.6881,0.5319
		c-0.8561,0-1.6459-0.3467-2.3704-1.0406v1.6302c0.9022,0.5165,1.7423,0.7745,2.521,0.7745
		c0.9944-0.0005,1.9037-0.3544,2.7286-1.0636c0.8246-0.709,1.4414-1.7148,1.85-3.0176c0.4084-1.3098,0.6129-2.6898,0.6129-4.1392
		c0-1.4102-0.1619-2.7128-0.4858-3.9076c-0.316-1.2025-0.8325-2.135-1.549-2.798c-0.7174-0.6704-1.5615-1.0057-2.5326-1.0057
		c-1.2103,0.0004-2.2007,0.478-2.9713,1.4336c-0.7632,0.9558-1.145,2.1353-1.145,3.5378c0,1.3645,0.3542,2.4896,1.0636,3.376
		C248.0865,111.0315,248.9768,111.4709,250.0483,111.4709z M248.522,104.1526c0.5009-0.6704,1.1174-1.0056,1.8499-1.0056
		c0.8014,0,1.457,0.3696,1.9655,1.1097c0.5165,0.7322,0.8712,1.7111,1.0641,2.9365c-0.3627,0.979-0.8364,1.7191-1.4222,2.22
		c-0.5784,0.4934-1.1602,0.7399-1.746,0.7399c-0.7249,0-1.3147-0.3314-1.7689-0.9944c-0.4552-0.6626-0.6824-1.4799-0.6824-2.451
		C247.7819,105.6672,248.0286,104.8157,248.522,104.1526z"/>
	<path fill="#404065" d="M265.704,116.1304h-6.9956v-0.6475c0-0.6858,0.2351-1.3718,0.7054-2.058
		c0.4702-0.6857,1.4916-1.6764,3.0642-2.9713c1.1329-0.925,1.9152-1.6996,2.3472-2.3239c0.4392-0.6318,0.6592-1.4103,0.6592-2.3354
		c0-1.2488-0.3818-2.2235-1.1449-2.9249c-0.7637-0.709-1.7192-1.0637-2.8678-1.0637c-1.0094,0-2.1583,0.3816-3.4456,1.1444v1.665
		c1.1947-0.9785,2.2975-1.4681,3.3069-1.4681c0.7169,0,1.3334,0.254,1.8503,0.7629c0.5236,0.5085,0.7863,1.1676,0.7863,1.9768
		c0,0.5474-0.1387,1.0486-0.4165,1.5031c-0.2698,0.4551-0.7249,0.9636-1.364,1.5261c-1.8655,1.6342-3.0104,2.6592-3.4344,3.0753
		c-0.4165,0.4088-0.7672,0.9794-1.0521,1.7113c-0.2853,0.7247-0.428,1.6993-0.428,2.9249v0.8556h8.4294V116.1304z"/>
	<path fill="#404065" d="M269.8203,116.7546c0.7552,0.6553,1.5802,0.9827,2.4745,0.9827c1.4178-0.0005,2.5552-0.6971,3.4109-2.0925
		c0.8632-1.4028,1.2952-3.2836,1.2952-5.642c0-1.3025-0.1508-2.6282-0.4512-3.9774c-0.2933-1.3563-0.8134-2.3966-1.561-3.1215
		c-0.748-0.7321-1.6459-1.0983-2.6938-1.0983c-0.7401,0.0004-1.4686,0.2622-2.1855,0.7861c-0.7094,0.5242-1.2911,1.403-1.7458,2.636
		c-0.4471,1.2334-0.6708,2.6902-0.6708,4.3701c0,1.4647,0.1654,2.8597,0.4974,4.1854
		C268.5286,115.1016,269.0722,116.092,269.8203,116.7546z M270.0168,104.9041c0.5466-1.1866,1.3564-1.7804,2.4281-1.7804
		c0.8325,0.0002,1.5494,0.5515,2.1509,1.6532c0.6089,1.1023,0.913,2.694,0.913,4.775c0,1.1023-0.1156,2.2544-0.3468,3.4568
		c-0.2311,1.2024-0.6129,2.0697-1.1444,2.6012c-0.5245,0.5243-1.0952,0.7864-1.7113,0.7864c-0.9712,0-1.7343-0.5781-2.2894-1.7341
		c-0.5476-1.1561-0.8209-2.771-0.8209-4.8445C269.1959,107.7291,269.4692,106.0913,270.0168,104.9041z"/>
	<polygon fill="#404065" points="320.7534,265.0878 320.7534,203.5531 191.5255,203.5531 191.5255,265.0878 199.8682,271.5032 
		199.8682,211.8879 312.4182,211.8879 312.4182,271.4969 	"/>
	<rect fill="none" width="512" height="512"/>
</g>
</svg>
