<?xml version="1.0" encoding="UTF-8" standalone="no"?>
<svg width="60px" height="60px" viewBox="0 0 60 60" version="1.1" xmlns="http://www.w3.org/2000/svg" xmlns:xlink="http://www.w3.org/1999/xlink" xmlns:sketch="http://www.bohemiancoding.com/sketch/ns">
    <!-- Generator: Sketch 3.3.2 (12043) - http://www.bohemiancoding.com/sketch -->
    <title>pingpong</title>
    <desc>Created with Sketch.</desc>
    <defs></defs>
    <g id="Page-1" stroke="none" stroke-width="1" fill="none" fill-rule="evenodd" sketch:type="MSPage">
        <g id="pingpong" sketch:type="MSLayerGroup" fill="#000000">
            <path d="M19.361,20.893 C22.032,20.893 24.544,19.853 26.433,17.964 C30.332,14.064 30.332,7.721 26.433,3.821 C24.544,1.933 22.032,0.893 19.361,0.893 C16.69,0.893 14.179,1.933 12.29,3.821 C8.391,7.721 8.391,14.064 12.29,17.964 C14.179,19.853 16.69,20.893 19.361,20.893 L19.361,20.893 Z M19.361,4.893 C19.914,4.893 20.361,5.34 20.361,5.893 C20.361,6.445 19.914,6.893 19.361,6.893 C17.155,6.893 15.361,8.687 15.361,10.893 C15.361,11.445 14.914,11.893 14.361,11.893 C13.809,11.893 13.361,11.445 13.361,10.893 C13.361,7.584 16.053,4.893 19.361,4.893 L19.361,4.893 Z" id="Fill-813" sketch:type="MSShapeGroup"></path>
            <path d="M12.621,33.418 C13.408,35.109 13.619,36.841 13.23,38.424 C12.486,41.444 10.673,43.719 7.524,45.583 C6.369,46.268 4.862,47.193 3.44,48.287 L1.85,49.511 C1.18,50.026 0.765,50.805 0.71,51.647 C0.656,52.49 0.967,53.315 1.564,53.911 L6.792,59.141 C7.347,59.695 8.083,60 8.866,60 C9.804,60 10.662,59.568 11.222,58.816 L12.868,56.603 C13.665,55.53 14.456,54.309 15.285,52.869 C17.087,49.739 19.276,47.915 22.171,47.128 C23.706,46.71 25.448,46.887 27.153,47.624 C29.695,48.724 32.302,49.281 34.905,49.281 C35.261,49.281 35.617,49.27 35.974,49.249 L10.811,24.086 C10.619,27.226 11.204,30.375 12.621,33.418" id="Fill-814" sketch:type="MSShapeGroup"></path>
            <path d="M54.08,5.951 C50.258,2.129 44.882,0.024 38.941,0.024 C35.202,0.024 31.413,0.851 27.831,2.407 C27.839,2.416 27.849,2.423 27.858,2.432 C32.536,7.11 32.536,14.724 27.858,19.402 C25.591,21.669 22.578,22.917 19.372,22.917 C16.446,22.917 13.688,21.867 11.504,19.962 C11.352,20.495 11.226,21.031 11.12,21.567 L38.474,48.921 C42.921,48.041 47.294,45.539 51.29,41.543 C61.693,31.141 62.97,14.842 54.08,5.951" id="Fill-815" sketch:type="MSShapeGroup"></path>
        </g>
    </g>
</svg>