<?xml version="1.0" encoding="utf-8"?>
<!-- Generator: Adobe Illustrator 18.1.1, SVG Export Plug-In . SVG Version: 6.00 Build 0)  -->
<!DOCTYPE svg PUBLIC "-//W3C//DTD SVG 1.1//EN" "http://www.w3.org/Graphics/SVG/1.1/DTD/svg11.dtd">
<svg version="1.1" id="XMLID_2_" xmlns="http://www.w3.org/2000/svg" xmlns:xlink="http://www.w3.org/1999/xlink" x="0px" y="0px"
	 viewBox="0 0 275.6655 256" enable-background="new 0 0 275.6655 256" xml:space="preserve">
<g id="lavey">
	<g>
		<g>
			<g>
				<rect x="250.5525" y="217.0007" fill="#E1001A" width="12.8744" height="12.8776"/>
				<polygon fill="#FFFFFF" points="261.2859,222.1554 258.2973,222.1554 258.2973,219.1386 255.7231,219.1386 255.7231,222.1554 
					252.703,222.1554 252.703,224.7361 255.7231,224.7361 255.7231,227.7211 258.2973,227.7211 258.2973,224.7361 
					261.2859,224.7361 				"/>
			</g>
		</g>
		<g>
			<path fill="#00659C" d="M9.7056,196.9887c5.8695,0,12.6402-0.1185,16.9854-0.419l-2.3701,7.3669H0
				c0.3384-7.9647,0.4508-12.637,0.4508-20.7218c0-8.7426-0.0554-13.6538-0.4508-22.2176h9.9887
				c-0.3384,8.5638-0.3954,13.4751-0.3954,22.2176C9.5933,188.0657,9.5933,192.2578,9.7056,196.9887z"/>
			<path fill="#00659C" d="M40.342,167.8831c-0.1124,3.4741-0.1124,6.8278-0.1124,10.6606c5.5295,0,10.4961-0.1201,14.5013-0.2989
				v7.3653c-4.0622-0.2986-9.0842-0.2986-14.5013-0.2986c0,4.2516,0,7.9045,0.1124,11.7374c5.8695,0,12.2448-0.0602,16.647-0.2989
				l-2.3705,7.1865H30.6363c0.3384-7.9647,0.4505-12.637,0.4505-20.7218c0-8.7426-0.0551-13.6538-0.4505-22.2176h24.659v7.0061
				C51.6839,167.8831,45.8731,167.8831,40.342,167.8831z"/>
			<path fill="#00659C" d="M86.6069,169.0217c-2.3135-1.1386-5.4728-1.9165-8.9718-1.9165c-4.2332,0-6.3203,1.9165-6.3203,4.3119
				c0,2.3957,1.0722,3.8931,5.9819,5.988l3.4424,1.5576c6.263,2.636,9.1409,6.5874,9.1409,12.6972
				c0,7.6658-6.9401,12.9359-15.7995,12.9359c-5.3621,0-10.1007-0.8996-13.6571-2.6357l2.2581-6.7678
				c3.104,1.4974,7.2231,2.5758,10.7775,2.5758c4.4022,0,6.7153-1.9763,6.7153-4.7309c0-2.5758-1.2413-4.3119-6.0385-6.3488
				l-4.2312-1.8562c-5.4744-2.3954-8.2383-6.4087-8.2383-12.0978c0-6.7076,6.3756-12.4569,15.5181-12.4569
				c4.908,0,8.4644,0.5991,11.7374,1.9764L86.6069,169.0217z"/>
			<path fill="#00659C" d="M107.5327,183.2147c0-8.7426-0.0554-13.6538-0.4508-22.2176h13.7694
				c9.9317,0,16.1379,3.5923,16.1379,10.4802c0,4.4303-3.9498,8.4437-8.6334,9.2817c6.377,1.3789,10.3837,5.2701,10.3837,10.422
				c0,8.2633-5.7571,12.7555-18.0576,12.7555h-13.6001C107.4203,195.9718,107.5327,191.2995,107.5327,183.2147z M116.7306,167.7646
				c-0.169,3.5926-0.169,7.0064-0.169,10.7192c0.7335,0.0599,1.6933,0.0599,2.7085,0.0599c5.9819,0,8.521-1.6175,8.521-5.5103
				c0-3.2937-2.0871-5.2688-8.4071-5.2688C118.5363,167.7646,117.409,167.7646,116.7306,167.7646z M119.4407,185.2513
				c-1.0165,0-1.9764,0-2.8792,0c0,3.8928,0.057,7.5457,0.226,11.8575c0.7905,0.0602,1.7487,0.0602,2.8779,0.0602
				c7.3368,0,9.5933-2.1554,9.5933-6.1085C129.2587,187.1677,126.3238,185.2513,119.4407,185.2513z"/>
			<path fill="#00659C" d="M141.0466,203.9365c4.6266-10.6004,12.6956-30.4226,17.5499-43.24h8.9718
				c4.0071,12.2782,10.8348,30.364,16.252,43.24h-11.1729c-1.0719-3.0548-2.3131-6.8876-3.33-10.2999h-15.5181
				c-1.2413,3.5324-2.5949,7.3653-3.7238,10.2999H141.0466z M156.1127,186.7487h11.1176
				c-1.806-5.6891-3.7808-11.8575-5.3051-16.7089C160.4025,174.6509,158.2568,180.9394,156.1127,186.7487z"/>
			<path fill="#00659C" d="M197.9184,203.9365h-9.9886c0.3384-7.9647,0.4508-12.637,0.4508-20.7218
				c0-8.7426-0.0554-13.6538-0.4508-22.2176h9.9886c-0.34,8.5638-0.3954,13.4751-0.3954,22.2176
				C197.523,191.2995,197.6354,195.9718,197.9184,203.9365z"/>
			<path fill="#00659C" d="M232.2785,160.9971h8.578c-0.3954,8.5638-0.4524,13.4751-0.4524,22.2176
				c0,8.0848,0.114,12.7571,0.4524,20.7218h-9.1979c-6.0942-10.7205-13.6571-23.5363-18.7915-31.6813
				c0,12.3967,0.057,20.363,0.4508,31.6813h-8.5764c0.3381-7.9647,0.4505-12.637,0.4505-20.7218
				c0-8.7426-0.0554-13.6538-0.4505-22.2176h10.5528c6.2063,9.522,13.2604,21.3795,17.4932,28.9252
				C232.7876,179.442,232.7306,171.4773,232.2785,160.9971z"/>
			<path fill="#00659C" d="M272.3925,169.0217c-2.3135-1.1386-5.4728-1.9165-8.9718-1.9165c-4.2315,0-6.3203,1.9165-6.3203,4.3119
				c0,2.3957,1.0722,3.8931,5.9819,5.988l3.4424,1.5576c6.263,2.636,9.1409,6.5874,9.1409,12.6972
				c0,7.6658-6.9398,12.9359-15.7995,12.9359c-5.3617,0-10.1007-0.8996-13.6571-2.6357l2.2581-6.7678
				c3.1039,1.4974,7.2231,2.5758,10.7775,2.5758c4.4022,0,6.7157-1.9763,6.7157-4.7309c0-2.5758-1.2416-4.3119-6.0388-6.3488
				l-4.2312-1.8562c-5.4744-2.3954-8.24-6.4087-8.24-12.0978c0-6.7076,6.3773-12.4569,15.5198-12.4569
				c4.9081,0,8.4644,0.5991,11.7374,1.9764L272.3925,169.0217z"/>
		</g>
		<g>
			<path fill="#00659C" d="M35.6804,255.8164c0.1833-6.0923,0.1833-9.6642,0.1833-15.8484c0-6.6885,0-10.444-0.1833-16.9951h9.6661
				c11.818,0,19.4679,5.0395,19.4679,15.2542c0,10.9482-6.8721,17.5894-19.3763,17.5894H35.6804z M39.7584,239.0508
				c0,4.7643,0,9.3909,0.0916,13.5589c0.7322,0.046,3.5262,0.046,5.2212,0.046c10.2147,0,15.5735-4.4433,15.5735-13.6509
				c0-8.6571-5.955-12.8711-16.1697-12.8711c-1.6033,0-3.3886,0-4.625,0C39.7584,229.4323,39.7584,234.013,39.7584,239.0508z"/>
			<path fill="#00659C" d="M75.4466,226.1337c-0.0916,3.8488-0.0916,7.329-0.0916,11.3154c4.6707,0,10.58-0.0459,13.7406-0.1836
				v3.4346c-3.2066-0.1376-9.1616-0.1836-13.7406-0.1836c0,4.489,0,8.1545,0.0916,12.1393c4.9003,0,12.2293-0.046,15.7108-0.1836
				l-1.5117,3.3442H71.2769c0.1833-6.0923,0.1833-9.6642,0.1833-15.8484c0-6.6885,0-10.444-0.1833-16.9951h18.2772v3.2526
				C86.76,226.1337,80.5301,226.1337,75.4466,226.1337z"/>
			<path fill="#00659C" d="M110.3993,252.6558c4.9463,0,12.3209-0.046,15.7111-0.1836l-1.5117,3.3442h-18.3692
				c0.1836-6.0923,0.1836-9.6642,0.1836-15.8484c0-6.6885,0-10.444-0.1836-16.9951h4.26c-0.182,6.5512-0.182,10.3067-0.182,16.9951
				C110.3076,244.9598,110.3076,248.2581,110.3993,252.6558z"/>
			<path fill="#00659C" d="M127.5793,255.8164c4.0304-8.0609,10.8093-23.0398,15.069-33.0712h4.0324
				c3.5719,9.4352,8.7947,22.398,13.5113,33.0712h-4.4417c-1.4213-3.3442-2.8873-6.9621-4.353-10.4896h-15.069
				c-1.6953,3.6651-3.3442,7.283-4.8559,10.4896H127.5793z M137.7024,242.2574h12.5502c-2.1979-5.4961-4.214-10.9469-5.955-15.4815
				C142.5123,231.2189,140.0835,236.7613,137.7024,242.2574z"/>
			<path fill="#00659C" d="M171.1833,251.9236c3.2526-8.2921,8.2445-20.2934,12.1389-28.9508h4.3514
				c-3.9404,8.1545-10.4896,23.0417-14.612,33.0272h-4.3057c-3.4815-9.4369-8.7487-22.4456-13.3753-33.0272h4.6723
				C163.8543,232.272,168.16,243.4942,171.1833,251.9236z"/>
			<path fill="#00659C" d="M195.9245,226.1337c-0.0916,3.8488-0.0916,7.329-0.0916,11.3154c4.671,0,10.58-0.0459,13.7406-0.1836
				v3.4346c-3.2066-0.1376-9.1616-0.1836-13.7406-0.1836c0,4.489,0,8.1545,0.0916,12.1393c4.9003,0,12.2293-0.046,15.7111-0.1836
				l-1.5117,3.3442h-18.3692c0.1833-6.0923,0.1833-9.6642,0.1833-15.8484c0-6.6885,0-10.444-0.1833-16.9951h18.2772v3.2526
				C207.238,226.1337,201.0081,226.1337,195.9245,226.1337z"/>
			<path fill="#00659C" d="M218.7367,222.9728c2.3371,3.2986,7.329,10.3067,10.0314,14.3387
				c2.7497-3.9864,7.5583-10.8109,10.1231-14.3387h4.7643c-3.9391,4.9935-9.206,11.864-13.33,17.4521
				c0,4.5806,0,10.1703,0.1836,15.3915h-4.2597c0.1833-5.2668,0.1833-10.7649,0.1833-15.4359
				c-3.6195-5.1308-8.6571-11.9556-12.7335-17.4077H218.7367z"/>
		</g>
	</g>
	<g>
		<g>
			<polygon fill="#00659C" points="108.8465,0 69.2212,0 69.2212,39.6192 77.5512,39.6192 77.5512,8.3174 108.8465,8.3174 			"/>
			<polygon fill="#00659C" points="69.2212,95.1959 69.2212,134.8086 108.8465,134.8086 108.8465,126.4977 77.5512,126.4977 
				77.5512,95.1959 			"/>
			<polygon fill="#00659C" points="164.4297,134.8086 204.0424,134.8086 204.0424,95.1959 195.7254,95.1959 195.7254,126.4977 
				164.4297,126.4977 			"/>
			<polygon fill="#00659C" points="204.0424,39.6192 204.0424,0 164.4297,0 164.4297,8.3174 195.7254,8.3174 195.7254,39.6192 			
				"/>
		</g>
	</g>
	<g>
		<g>
			<g>
				<path fill="#00659C" d="M160.1732,43.4773c4.4841-2.8083,7.4696-7.7859,7.4696-13.4718c0-8.7791-7.1156-15.8944-15.8944-15.8944
					c-8.7727,0-15.8944,7.1153-15.8944,15.8944c0,5.591,2.8967,10.5181,7.2736,13.3455
					c-9.3041,2.4919-17.1341,9.0635-21.7892,17.8675c-0.0065,0-0.0253,0-0.0253,0s0.0188,0,0.0253,0
					c-0.0065,0.0253-0.0253,0.0379-0.0317,0.0635l-0.0252-0.0635c-9.8225-1.9478-15.591,7.2611-15.591,7.2611
					c-3.6745-7.9249-11.7957-11.9349-11.7957-11.9349c-4.75,6.4767-7.59,14.68-7.59,23.6169
					c0,20.8912,15.534,37.8546,34.6985,37.8546c5.4773,0,10.6509-1.385,15.2555-3.852c4.592,2.4352,9.7276,3.795,15.1606,3.795
					c19.1645,0,34.7111-16.9508,34.7111-37.8482C186.1305,62.5026,175.0997,47.7089,160.1732,43.4773z M121.0032,113.3737
					c-16.6156,0-30.0751-14.8633-30.0751-33.2121c0-5.9326,1.4106-11.511,3.8837-16.3371c0,0,1.8404,0.6642,4.5602,3.4851
					c3.9213,4.0606,4.0985,9.9679,4.0985,9.9679h3.6052c3.1435-10.9546,10.999-11.467,12.2008-11.4922
					c-1.6509,4.421-2.5619,9.2597-2.5619,14.3257c0,12.8964,5.9139,24.2815,14.9521,31.1186
					C128.3462,112.6211,124.76,113.3737,121.0032,113.3737z M151.4194,113.3293c-3.7128,0-7.2863-0.7526-10.5686-2.1124
					c8.9877-6.8436,14.8633-18.1969,14.8633-31.0554c0-10.0816-3.6179-19.2529-9.5253-26.0395
					c-6.1476,1.6762-17.6907,11.2836-17.6907,26.1788c0,14.9016,13.8261,23.1807,13.8261,23.1807l0.0126,0.1014
					c-1.8086,2.0049-3.8582,3.7633-6.0845,5.2179c-8.9242-5.7685-14.9139-16.4573-14.9139-28.6898
					c0-17.5706,12.3462-31.9533,27.9874-33.1424v-1.2585v-3.3776v-1.3597c-5.047-1.1133-8.8106-5.5975-8.8106-10.9673
					c0-6.205,5.0285-11.2267,11.2332-11.2267c6.2047,0,11.2328,5.0217,11.2328,11.2267c0,5.3698-3.7694,9.854-8.8041,10.9673v1.4041
					v3.3332v1.3155c15.319,1.5308,27.3235,15.7617,27.3235,33.0854C181.5006,98.4595,168.0285,113.3293,151.4194,113.3293z
					 M133.6528,80.01c0-14.8951,11.2393-20.0372,11.2393-20.0372c3.8834,5.5975,6.1985,12.5926,6.1985,20.1888
					c0,7.2675-2.1189,13.9779-5.705,19.4618C144.0321,99.01,133.6528,93.931,133.6528,80.01z"/>
				<path fill="#00659C" d="M121.2814,61.2185c0.0126,0,0.0191,0,0.0317,0C121.294,61.2185,121.2814,61.2185,121.2814,61.2185z"/>
			</g>
			<g>
				<g>
					<path fill="#00659C" d="M104.4381,89.3203c-5.1043,0-5.6859-8.2542-5.7115-8.602l-2.2199,0.0631
						c-0.0253,3.7066-0.9236,6.2743-2.6564,7.6218c-2.0304,1.581-4.6551,0.955-4.6804,0.9485l-0.544,2.138
						c0.1519,0.0379,3.6622,0.9044,6.5525-1.3284c1.1703-0.898,2.0369-2.1567,2.6311-3.7442
						c1.069,2.5994,3.0298,5.1043,6.6286,5.1043c3.0677,0,5.4268-2.1444,6.774-5.8381c1.1765,3.0486,3.422,5.8381,7.3559,5.8381
						v-2.2011c-5.5975,0-6.2111-8.2669-6.2364-8.6146l-2.2199-0.0444C109.9028,82.6917,108.8595,89.3203,104.4381,89.3203z"/>
				</g>
				<g>
					<path fill="#00659C" d="M111.0984,100.2179c-5.1865,0-5.7115-8.7914-5.7179-8.8863l-2.2011,0.0567
						c0,3.8141-0.8915,6.4514-2.6499,7.8429c-2.0431,1.6192-4.6869,1.0246-4.7121,1.0185l-0.5185,2.1441
						c0.1516,0.0314,3.6746,0.8601,6.5716-1.4106c1.1574-0.9106,2.024-2.1755,2.612-3.7568
						c1.0751,2.6438,3.036,5.1988,6.6159,5.1988c4.1933,0,7.0712-3.9909,7.887-10.942l-2.1885-0.2529
						C116.4744,93.931,115.2853,100.2179,111.0984,100.2179z"/>
				</g>
				<g>
					<path fill="#00659C" d="M110.1558,102.3494c0,3.5735-0.8284,6.0214-2.3905,7.0648c-1.9291,1.2966-4.5541,0.2341-4.5793,0.2215
						l-0.854,2.0366c0.1519,0.0631,3.7192,1.5308,6.6412-0.4109c1.0751-0.7147,1.8659-1.8216,2.4288-3.2196
						c1.0751,2.6565,3.0424,5.2497,6.6729,5.2497c4.1869,0,7.0583-3.8708,7.8744-10.6195l-2.1885-0.2655
						c-0.3161,2.612-1.5052,8.6839-5.6859,8.6839c-5.193,0-5.7115-8.7092-5.7179-8.7979L110.1558,102.3494z"/>
				</g>
			</g>
			<g>
				<g>
					<path fill="#00659C" d="M159.3319,80.6995c-0.0253,0.3539-0.6263,8.6082-6.2364,8.6082v2.2008
						c3.9278,0,6.1732-2.7827,7.3559-5.8187c1.3472,3.7189,3.681,5.8187,6.7675,5.8187c3.5991,0,5.5596-2.5045,6.635-5.0978
						c0.5881,1.5813,1.4608,2.8335,2.6247,3.7319c2.8967,2.2325,6.4135,1.3724,6.5654,1.3345l-0.544-2.1379
						c-0.0253,0.0065-2.6564,0.6263-4.693-0.955c-1.7332-1.3471-2.625-3.9087-2.6564-7.6214l-2.2137-0.0631
						c-0.0191,0.3539-0.601,8.6082-5.7179,8.6082c-4.2312,0-5.376-6.0214-5.6732-8.6082H159.3319z"/>
				</g>
				<g>
					<path fill="#00659C" d="M152.6846,91.5084c0.8536,7.0272,3.6493,10.9041,7.887,10.9041c3.58,0,5.5343-2.5551,6.6159-5.1988
						c0.5819,1.581,1.4482,2.8397,2.6059,3.7506c2.8902,2.2704,6.4197,1.4482,6.5716,1.4167l-0.5188-2.1441
						c-0.0253,0.0062-2.6691,0.6007-4.7121-1.0185c-1.7581-1.3977-2.6499-4.0353-2.6499-7.8365l-2.2011-0.057
						c-0.0065,0.0884-0.5249,8.8802-5.7115,8.8802c-4.1619,0-5.3698-6.2681-5.6988-8.9624L152.6846,91.5084z"/>
				</g>
				<g>
					<path fill="#00659C" d="M153.5826,111.0716c-4.1681,0-5.3633-6.0657-5.6797-8.6716l-2.1885,0.2659
						c0.8287,6.7422,3.6936,10.613,7.8682,10.613c3.6305,0,5.604-2.5933,6.6726-5.2497c0.5693,1.4041,1.3601,2.5045,2.4352,3.2192
						c2.922,1.942,6.4832,0.4744,6.6347,0.4113l-0.8475-2.0304c-0.0317,0.0065-2.6564,1.069-4.5793-0.2212
						c-1.5622-1.0437-2.3844-3.4851-2.3844-7.0651l-2.2072-0.0567C159.3067,102.3746,158.7817,111.0716,153.5826,111.0716z"/>
				</g>
			</g>
		</g>
	</g>
</g>
</svg>
