<?xml version="1.0" encoding="utf-8"?>
<!-- Generator: Adobe Illustrator 18.1.1, SVG Export Plug-In . SVG Version: 6.00 Build 0)  -->
<!DOCTYPE svg PUBLIC "-//W3C//DTD SVG 1.1//EN" "http://www.w3.org/Graphics/SVG/1.1/DTD/svg11.dtd">
<svg version="1.1" id="XMLID_2_" xmlns="http://www.w3.org/2000/svg" xmlns:xlink="http://www.w3.org/1999/xlink" x="0px" y="0px"
	 viewBox="0 0 512 512" enable-background="new 0 0 512 512" xml:space="preserve">
<g id="Tehran-Watch">
	<g>
		<polygon fill="#404065" points="94.6135,349.6216 87.3953,349.6216 87.3953,280.1201 76.0001,280.1201 76.0001,273.0536 
			105.9617,273.0536 105.9617,280.1201 94.6135,280.1201 94.6135,349.6216 		"/>
		<polygon fill="#404065" points="136.5369,349.6216 110.8748,349.6216 110.8748,273.0536 136.5369,273.0536 136.5369,280.1201 
			118.0944,280.1201 118.0944,305.5078 133.6325,305.5078 133.6325,312.5743 118.0944,312.5743 118.0944,342.5552 
			136.5369,342.5552 136.5369,349.6216 		"/>
		<polygon fill="#404065" points="169.7022,349.6216 162.8973,349.6216 162.8973,313.8726 149.3216,313.8726 149.3216,349.6216 
			142.102,349.6216 142.102,273.0536 149.3216,273.0536 149.3216,306.8061 162.8973,306.8061 162.8973,273.0536 170.1155,273.0536 
			170.1155,349.6216 		"/>
		<path fill="#404065" d="M197.2447,349.6508l-7.7256-34.5805h-4.3003v34.5512h-7.2182v-76.5679h13.54
			c8.575,0,12.6921,8.8087,12.6921,21.4046c0,9.457-3.2208,16.5969-7.5574,19.4094l8.1232,35.7833H197.2447z M185.2189,308.0046
			h6.7372c2.323,0,5.1254-4.8333,5.1254-13.8927c0-8.1075-2.5054-13.9918-5.9556-13.9918h-5.9071V308.0046L185.2189,308.0046z"/>
		<path fill="#404065" d="M207.2683,349.6301l13.9804-76.5223h5.0293l14.0616,76.4803l-7.7184,0.0421l-3.483-19.2811h-11.2342
			l-3.4587,19.2805L207.2683,349.6301z M219.1167,323.3824h8.7701l-4.4805-25.6342L219.1167,323.3824L219.1167,323.3824z"/>
		<path fill="#404065" d="M329.2205,349.6301l13.9803-76.5223h5.0279l14.063,76.4803l-7.7198,0.0421l-3.4816-19.2811h-11.2342
			l-3.4587,19.2805L329.2205,349.6301z M341.0689,323.3824h8.7701l-4.482-25.6342L341.0689,323.3824L341.0689,323.3824z"/>
		<polygon fill="#404065" points="251.1868,349.6216 243.9686,349.6216 243.9686,273.0287 249.5722,273.0287 263.3815,320.2471 
			263.3815,273.0536 270.6012,273.0536 270.6012,349.6287 265.2342,349.6301 251.1868,301.6956 251.1868,349.6216 		"/>
		<polygon fill="#404065" points="316.0211,349.6295 309.618,300.9966 303.2605,349.6301 296.9402,349.6287 286.9287,273.0287 
			294.6329,273.0287 300.7909,323.0304 307.1426,273.0287 312.8573,273.0287 319.296,323.0304 325.4525,273.0287 332.3244,273.0287 
			322.3044,349.6287 		"/>
		<polygon fill="#404065" points="373.9378,349.6216 367.1329,349.6216 367.1329,280.1201 355.3229,280.1201 355.3229,273.0536 
			385.6993,273.0536 385.6993,280.1201 373.9378,280.1201 373.9378,349.6216 		"/>
		<polygon fill="#404065" points="444.0001,349.6216 437.1952,349.6216 437.1952,313.8726 423.6195,313.8726 423.6195,349.6216 
			416.8145,349.6216 416.8145,273.0536 423.6195,273.0536 423.6195,306.8061 437.1952,306.8061 437.1952,273.0536 
			444.0001,273.0536 444.0001,349.6216 		"/>
		<path fill="#404065" d="M414.6805,279.4752"/>
		<path fill="#404065" d="M408.3736,335.2165c-1.0824,3.9839-3.0833,7.9237-7.0258,7.9237c-4.8561,0-10.6556-9.8675-10.6556-31.5528
			c0-22.7178,5.31-32.0516,10.848-32.0516c2.8203,0,4.8611,3.2065,6.0503,6.0703l5.704-2.5523
			c-1.9011-6.2463-6.3817-10.5844-12.0023-10.5844c-10.7361,0-17.8197,13.5229-17.8197,39.1181
			c0,24.0623,6.0611,38.6185,17.7926,38.6185c7.241,0,11.0952-4.5996,13.1738-12.6629L408.3736,335.2165z"/>
	</g>
	<g>
		<path fill="#404065" d="M194.4865,384.0952c-2.3045,0-4.6288-0.8044-6.4544-2.4341l1.9766-2.3693
			c1.3696,1.1301,2.8047,1.8476,4.5433,1.8476c1.3681,0,2.1947-0.5437,2.1947-1.4344v-0.0434c0-0.8473-0.5216-1.282-3.064-1.9346
			c-3.0654-0.7817-5.0421-1.6296-5.0421-4.6502v-0.0441c0-2.7597,2.216-4.5853,5.3242-4.5853c2.216,0,4.1072,0.6954,5.6506,1.9346
			l-1.7386,2.5211c-1.3481-0.9349-2.6735-1.5-3.9561-1.5c-1.2812,0-1.9553,0.5872-1.9553,1.3261v0.0428
			c0,1.0011,0.6513,1.3261,3.282,1.9994c3.0854,0.8045,4.824,1.9125,4.824,4.5647v0.0428
			C200.0714,382.4,197.7685,384.0952,194.4865,384.0952z"/>
		<path fill="#404065" d="M205.7463,383.8779v-15.2125h3.3461v15.2125H205.7463z"/>
		<path fill="#404065" d="M226.1767,383.8779l-7.3679-9.6702v9.6702h-3.3034v-15.2125h3.0868l7.1284,9.3666v-9.3666h3.3034v15.2125
			H226.1767z"/>
		<path fill="#404065" d="M242.4145,384.1394c-4.4777,0-7.8025-3.456-7.8025-7.8246v-0.0434c0-4.3238,3.2592-7.8674,7.9322-7.8674
			c2.8688,0,4.5861,0.9563,5.9983,2.3472l-2.1291,2.4555c-1.1743-1.0646-2.37-1.7166-3.8906-1.7166
			c-2.5652,0-4.4121,2.1306-4.4121,4.7378v0.0435c0,2.6079,1.8042,4.7812,4.4121,4.7812c1.7386,0,2.8032-0.6954,3.9989-1.7821
			l2.1291,2.1519C247.086,383.0955,245.3474,384.1394,242.4145,384.1394z"/>
		<path fill="#404065" d="M253.9352,383.8779v-15.2125h11.475v2.9763h-8.1502v3.0868h7.1726v2.9771h-7.1726v3.1951h8.2586v2.9771
			H253.9352z"/>
		<path fill="#404065" d="M283.2997,368.5564h2.283v15.3215h-3.3034v-11.9304l-2.6522,0.6506l-0.6955-2.737L283.2997,368.5564z"/>
		<path fill="#404065" d="M296.7556,384.1394c-2.2175,0-3.7166-0.7397-4.9993-1.805l1.7601-2.5417
			c1.1087,0.8907,2.0436,1.3033,3.3262,1.3033c1.8684,0,2.8688-1.4123,3.0854-3.456c-0.7383,0.6306-1.76,1.0432-3.0854,1.0432
			c-3.3034,0-5.4339-1.8255-5.4339-4.933c0-3.0861,2.3686-5.3463,5.8031-5.3463c2.0422,0,3.2379,0.5002,4.3893,1.6517
			c1.0874,1.0867,1.8042,2.7383,1.8042,5.7589C303.4052,380.7697,301.0794,384.1394,296.7556,384.1394z M297.3199,371.2727
			c-1.6517,0-2.5866,0.9562-2.5866,2.3258c0,1.3688,1.0004,2.3029,2.6522,2.3029s2.608-0.9562,2.608-2.2808
			C299.9935,372.251,298.993,371.2727,297.3199,371.2727z"/>
		<path fill="#404065" d="M314.665,384.1394c-4.0644,0-6.7365-3.4125-6.7365-7.846c0-4.4335,2.7163-7.8894,6.7807-7.8894
			c4.063,0,6.7365,3.4117,6.7365,7.8453C321.4458,380.6834,318.7295,384.1394,314.665,384.1394z M314.665,371.4252
			c-2.0208,0-3.3034,2.0208-3.3034,4.824c0,2.8039,1.3253,4.8682,3.3476,4.8682c2.0208,0,3.3034-2.0422,3.3034-4.8241
			S316.6859,371.4252,314.665,371.4252z"/>
		<path fill="#404065" d="M329.6844,368.5564h2.2831v15.3215h-3.3034v-11.9304l-2.6522,0.6506l-0.6954-2.737L329.6844,368.5564z"/>
	</g>
	<g>
		<path fill="#404065" d="M322.6856,127.8614l-125.6818-0.0007l0.0036,126.1727h125.6782V127.8614z M317.2944,133.2504v115.054
			l-115.2363-0.0014V133.2497L317.2944,133.2504z"/>
		<path fill="#404065" d="M313.3967,244.4052v-0.0028V137.1517l-107.4381-0.0007v107.25v0.0029l53.7184-0.0015L313.3967,244.4052z
			 M310.4481,140.0995v101.3564l-101.5431-0.0007V140.0995H310.4481z"/>
		<path fill="#404065" d="M268.6815,193.5493l0.1005,1.5754h-0.1226H250.661h-0.0221v-1.5754c0,0,2.8474-0.1917,3.7623-0.4354
			c0.6506-0.1731,1.1929-0.9719,1.1929-2.1192c0-0.4439-0.0078-32.0252-0.0078-32.0252s-29.1978,0-30.1291,0
			c-0.9306,0-1.7658,0.8935-1.8627,1.6531c-0.0976,0.761-0.409,3.8557-0.409,3.8557h-0.0057h-1.5249l0,0v-12.4036l0,0h75.9972l0,0
			v12.4036h-1.5241h-0.0058c0,0-0.31-3.0946-0.4082-3.8557c-0.0998-0.7582-0.9321-1.6531-1.862-1.6531
			c-0.9327,0-30.1263,0-30.1263,0s0,31.5813,0,32.0252c0,1.1472,0.543,1.946,1.1921,2.1192
			C265.8327,193.3576,268.6815,193.5493,268.6815,193.5493z"/>
		<path fill="#404065" d="M234.3213,185.2572h-12.665h-0.0007v43.3521h0.0007h5.8587l32.1635-19.9118l32.162,19.9131h5.8173
			l0.0014-43.3535h-0.0014h-12.8438h-0.0114v1.733c0,0,2.6015,0.2295,3.2022,0.3912c0.818,0.2174,1.9852,1.3076,1.9852,2.3963
			v28.5836l-30.3115-18.5885l-30.1463,18.5878c0,0,0-27.7093,0-28.5829c0-1.0902,0.7881-2.1548,1.5983-2.397
			c0.7089-0.2123,3.2029-0.3905,3.2029-0.3905L234.3213,185.2572z"/>
	</g>
	<rect fill="none" width="512" height="512"/>
</g>
</svg>
