<?xml version="1.0" encoding="utf-8"?>
<!-- Generator: Adobe Illustrator 18.1.1, SVG Export Plug-In . SVG Version: 6.00 Build 0)  -->
<!DOCTYPE svg PUBLIC "-//W3C//DTD SVG 1.1//EN" "http://www.w3.org/Graphics/SVG/1.1/DTD/svg11.dtd">
<svg version="1.1" id="XMLID_1_" xmlns="http://www.w3.org/2000/svg" xmlns:xlink="http://www.w3.org/1999/xlink" x="0px" y="0px"
	 viewBox="0 0 512 512" enable-background="new 0 0 512 512" xml:space="preserve">
<g id="Urturn">
	<path fill="#404065" d="M204.4178,211.9882c0-3.5487,2.8648-6.4151,6.4195-6.4151c3.5455,0,6.4103,2.8664,6.4103,6.4151v20.4665
		h19.3824c3.2742,0,5.8598,2.5964,5.8598,5.7356c0,3.2819-2.5856,5.8719-5.7232,5.8719h-19.519v37.6638
		c0,3.0027,0.6823,6.415,2.3217,8.6017c2.0459,2.8632,5.7232,4.5009,9.4145,4.5009c3.1424,0,6.0069-1.3677,8.7291-3.5487
		c1.6393-1.3617,3.4213-2.4534,5.0498-2.4534c3.4245,0,5.7401,2.4534,5.7401,5.8627c0,1.7743-0.9555,3.4153-2.1914,4.6404
		c-4.5041,4.5073-10.6321,7.0974-17.3276,7.0974c-8.0525,0-14.6009-2.86-19.5158-8.8685
		c-3.4044-4.0975-5.0501-9.1414-5.0501-16.5115V211.9882z"/>
	<path fill="#404065" d="M392.4051,231.7723c-8.6448,0-15.1031,4.8793-19.5981,11.0676v-3.9641c0-3.5518-2.745-6.4211-6.3-6.4211
		c-3.5363,0-6.2905,2.8692-6.2905,6.4211v60.457c0,3.5423,2.8661,6.4119,6.4179,6.4119c3.5483,0,6.4055-2.8696,6.4055-6.4119
		v-30.7402v-0.0095c0-16.1424,7.0195-25.2063,18.5587-25.2063c9.7496,0,15.5752,6.424,15.5752,19.356v36.6
		c0,3.5423,2.8724,6.4119,6.4207,6.4119c3.5426,0,6.4055-2.8696,6.4055-6.4119v-37.2264
		C420.0001,243.1502,409.5374,231.7723,392.4051,231.7723"/>
	<path fill="#404065" d="M193.6914,235.4697c-2.6307-2.6923-8.9228-3.6973-13.5245-3.6973c-7.4744,0-14.114,3.4772-18.7607,8.7196
		c-0.6575,0.7474-1.2703,1.5107-1.8487,2.2984v-3.9146c0-3.5518-2.753-6.4211-6.2985-6.4211c-3.5487,0-6.3017,2.8692-6.3017,6.4211
		v30.7402c0,16.1488-7.0166,25.2098-18.5638,25.2098c-9.7445,0-15.564-6.4211-15.564-19.3499v-36.6
		c0-3.5518-2.8708-6.4211-6.4163-6.4211c-3.5547,0-6.4131,2.8692-6.4131,6.4211v37.2172c0,18.959,10.4595,30.334,27.5994,30.334
		c8.656,0,15.1003-4.8764,19.586-11.0647v3.9641c0,3.5487,2.7574,6.4182,6.3061,6.4182c3.5471,0,6.3017-2.8696,6.3017-6.4182
		v-31.466c0.2341-17.9263,8.9025-24.4837,18.6801-24.4837c3.0459,0,5.194,0.5336,7.2136,1.4672
		c1.0453,0.4838,2.334,0.9027,3.5315,0.9027c3.015,0,6.1403-2.6428,6.1403-6.058
		C195.3587,238.0505,194.7335,236.5398,193.6914,235.4697"/>
	<path fill="#404065" d="M349.6543,235.4697c-2.6243-2.6923-8.9183-3.6973-13.5248-3.6973c-7.4661,0-14.1045,3.4772-18.7544,8.7196
		c-0.6635,0.7474-1.2715,1.5107-1.8423,2.2984v-3.9146c0-3.5518-2.7578-6.4211-6.3-6.4211c-3.5579,0-6.3033,2.8692-6.3033,6.4211
		v30.7402c0,16.1488-7.0198,25.2098-18.5622,25.2098c-9.7401,0-15.5653-6.4211-15.5653-19.3499v-36.6
		c0-3.5518-2.8648-6.4211-6.4167-6.4211c-3.5487,0-6.4131,2.8692-6.4131,6.4211v37.2172c0,18.959,10.4659,30.334,27.601,30.334
		c8.6484,0,15.1006-4.8764,19.5888-11.0647v3.9641c0,3.5487,2.7514,6.4182,6.3001,6.4182c3.5582,0,6.2972-2.8696,6.2972-6.4182
		v-31.466c0.2481-17.9263,8.9085-24.4837,18.689-24.4837c3.0525,0,5.1896,0.5336,7.2123,1.4672
		c1.0453,0.4838,2.3296,0.9027,3.5236,0.9027c3.015,0,6.1387-2.6428,6.1387-6.058
		C351.3229,238.0505,350.7025,236.5398,349.6543,235.4697"/>
	<rect fill="none" width="512" height="512"/>
</g>
</svg>
