<?xml version="1.0" encoding="utf-8"?>
<!-- Generator: Adobe Illustrator 18.1.1, SVG Export Plug-In . SVG Version: 6.00 Build 0)  -->
<!DOCTYPE svg PUBLIC "-//W3C//DTD SVG 1.1//EN" "http://www.w3.org/Graphics/SVG/1.1/DTD/svg11.dtd">
<svg version="1.1" id="XMLID_2_" xmlns="http://www.w3.org/2000/svg" xmlns:xlink="http://www.w3.org/1999/xlink" x="0px" y="0px"
	 viewBox="0 0 512 512" enable-background="new 0 0 512 512" xml:space="preserve">
<g id="Vaudoise_1_">
	<path id="Vaudoise" fill="#404065" d="M143.2478,192.5086c-1.832-2.756-4.2616-4.2777-7.0551-4.2701
		c-4.2418,0.0161-9.0927,3.3697-14.2371,10.3331c-8.6876,11.796-18.2817,34.1016-29.2278,60.0773
		c-4.3281-7.4609-14.4205-18.3023-28.8196-18.3176c-3.5547,0-7.3517,0.6626-11.3695,2.1996
		c-15.3904,5.8842-20.544,20.1075-20.5386,29.6772c0,16.2754,12.3264,29.7444,27.1482,30.0432
		c0.159,0.0046,0.3187,0.0046,0.4754,0.0046c8.8191,0,15.0533-4.8181,19.0406-9.5872c2.8829-3.4438,4.6239-6.8778,5.3744-8.537
		c5.9821,14.5336,12.3126,26.3044,16.7447,31.8791c3.9957,5.0053,8.2803,7.7452,12.5175,7.7506h0.0053
		c4.0071,0,7.8217-2.4954,11.0607-7.5244c8.7832-13.6005,14.8531-34.1353,19.2416-53.8546
		c2.5856-11.6645,4.3396-28.0118,4.3396-42.3498c0-5.671-0.2751-11.0263-0.882-15.6525
		C146.386,199.2572,145.0882,195.2661,143.2478,192.5086z M81.5326,282.4068c-2.0185,3.9621-7.0949,12.052-14.9379,13.7655
		c-0.9179,0.2033-1.897,0.3057-2.9203,0.3057c-7.0406-0.0054-15.7855-4.8952-17.6466-15.0151
		c-0.2316-1.2504-0.347-2.542-0.347-3.8405c0.0099-7.3035,3.7114-14.8577,12.4204-17.6382
		c1.4246-0.4532,2.8187-0.6695,4.1776-0.6695c8.3139-0.0305,15.6548,8.2421,20.2008,21.0966
		C82.3504,280.7094,82.0393,281.427,81.5326,282.4068z M133.4665,274.806c-4.3518,6.4873-9.8685,9.5054-14.5795,9.5023
		c-0.3057,0-0.6099-0.013-0.9156-0.0382c-11.5522-0.921-20.0296-16.3374-23.3443-22.3538
		c2.1851-5.3148,5.8559-13.9719,10.9002-21.6056c5.1054-7.7399,11.6194-14.3792,19.2951-15.5333
		c0.6596-0.1032,1.3085-0.149,1.9329-0.149c4.4772,0.0023,8.0021,2.4824,10.4516,6.2564c2.448,3.771,3.774,8.8191,3.774,13.7854
		C140.9802,258.3914,137.8092,268.3233,133.4665,274.806z M195.0151,261.2468l3.1764,1.0471
		c0.9057,0.3493,1.4613,1.0463,1.4613,2.2302c0,0.6275-0.1368,1.3214-0.4142,2.1606l-9.0002,22.8705l-9.7645-30.6807h-13.738
		c-0.2775,0.8361-0.1108,2.0628,0.0565,2.717c3.2704,1.1266,4.345,0.8591,5.5021,3.8948l11.8105,33.3396l6.971-2.0192
		l12.1391-29.0085c1.2542-3.2023,2.5779-5.8521,3.761-7.1797c0.0772-0.2774,0.0772-1.4666,0.0772-1.7441h-11.9633
		C194.8837,259.7114,194.8837,260.3419,195.0151,261.2468z M286.7759,291.7884l-0.3554-13.8053v-15.9697
		c0-2.7224-1.7433-3.9047-4.4573-3.9047c-3.3468,0-7.3983,0.9034-10.8093,1.8778v2.7904h5.7849v15.1336l-0.2109,10.4638
		c-2.1629,0.9722-5.0114,2.2974-9.0728,2.2974c-4.6422,0-5.2888-3.3804-5.3607-7.4265v-21.2991
		c0-2.6551-1.5362-3.8375-4.3908-3.8375c-3.278,0-7.2554,0.8361-11.0905,1.8778v2.7904h5.9309v21.8937
		c0,6.5515,0.7612,12.9034,11.089,12.9034c5.4379,0,9.4122-3.0617,12.9699-6.5515c0.0726,4.0438,2.02,6.4101,5.7184,6.4101
		c4.5995,0,7.9455-2.1522,10.4593-3.6938l-0.211-1.9497h-5.9935V291.7884z M331.6509,291.7884l-0.2828-14.2944v-37.307
		c0-2.7896-0.9829-3.4882-3.625-3.4882c-3.2795,0-8.5088,0.6986-12.2775,1.4705v3.2773h6.4162v17.4983
		c-1.6746-0.2797-3.3468-0.4861-5.9989-0.4861c-10.9453,0-19.6681,8.0823-19.6681,20.9154c0,14.6445,7.5343,18.1992,15.0664,18.1992
		c4.7408,0,8.1595-2.717,10.5288-5.366c0,2.5779,0.9103,5.366,4.4573,5.366c5.1628,0,8.6532-1.7441,11.6553-3.411l-0.4891-2.3739
		L331.6509,291.7884L331.6509,291.7884z M321.8803,277.4214l-0.2079,11.7868c-1.7387,0.5633-3.9047,1.4613-6.4177,1.4613
		c-5.2942,0-8.9911-3.972-8.9911-12.7567c0-10.2529,2.6528-15.2024,9.8295-15.2024c2.7231,0,4.3289,0.6328,5.7871,1.1166
		L321.8803,277.4214L321.8803,277.4214z M359.2187,258.0368c-10.6702,0-19.1102,10.3201-19.1102,20.5034
		c0,13.2481,6.9756,19.033,18.4827,19.033c11.0172,0,19.315-10.3178,19.315-20.4293
		C377.9062,264.1068,371.6268,258.0368,359.2187,258.0368z M359.7025,293.116c-7.532,0-9.4764-7.6734-9.4764-15.9025
		c0-7.5267,1.8779-14.8531,8.4316-14.8531c7.4036,0,8.9979,7.3929,8.9979,16.1799
		C367.6556,285.7903,366.4052,293.116,359.7025,293.116z M398.2721,290.739l-0.1391-12.8285V261.175
		c0-2.4404-1.1166-3.0663-3.2773-3.0663c-3.3468,0-8.8565,0.697-12.6252,1.5362v3.2046h6.4154v15.061l-0.2064,12.3416
		c0,1.5362-0.6274,2.7193-1.8802,3.1404l-4.257,1.3245c0,0.9057,0.1391,1.3245,0.2774,2.2302h21.6178
		c0.3501-0.9057,0.4226-1.741,0.4226-2.4403l-5.1628-1.2534C398.6909,293.0464,398.2721,292.555,398.2721,290.739z
		 M480.0001,276.0999c0-9.9036-4.7408-18.1984-15.6908-18.1984c-11.5782,0-19.4755,10.087-19.4755,21.1072
		c0,11.3359,6.9275,18.5645,19.5473,18.5645c6.4896,0,12.1338-2.714,15.1305-6.274l-1.0417-2.367
		c-4.1852,0.9722-8.0204,1.433-10.6083,1.433c-7.3211,0-12.4754-3.1099-13.1037-12.5947H480L480.0001,276.0999L480.0001,276.0999z
		 M454.6908,274.0058c0.2064-8.2268,3.5578-11.9916,8.0204-11.9916c5.1497,0,7.1101,4.9465,7.1101,11.9916H454.6908z
		 M393.253,249.8078c3.1045,0,5.6075-2.5122,5.6075-5.6144c0-3.0999-2.5023-5.6129-5.6075-5.6129
		c-3.1,0-5.6205,2.5137-5.6205,5.6129C387.6325,247.2956,390.1538,249.8078,393.253,249.8078z M417.8782,266.4042
		c0-2.717,2.0934-4.4634,5.8521-4.4634c6.8472,0,8.3552,3.7664,9.3296,8.0204l2.3051,0.2064l1.1831-9.2708
		c-4.108-2.0964-7.6245-2.9257-12.1177-2.9257c-7.8049,0-14.7087,4.6667-14.7087,11.9244c0,13.0364,19.6788,12.1284,19.6788,18.6157
		c0,3.2047-2.6673,5.0206-6.5086,5.0206c-5.4096,0-8.9521-3.7656-9.8593-9.2035l-2.717-0.0695l-0.6244,10.3201
		c4.1776,1.8779,8.1511,2.9891,13.0677,2.9891c7.1812,0,15.917-3.4057,15.917-12.5427
		C438.6752,272.961,417.8782,273.8698,417.8782,266.4042z M240.2654,291.7884l-0.4853-13.9452v-9.0002
		c0-9.5482-8.0227-10.8062-13.7426-10.8062c-5.992,0-11.997,3.1374-14.85,5.1628l1.0478,2.7193
		c3.6242-0.9775,7.0406-1.4613,9.5528-1.4613c5.7161,0,8.5791,1.8052,8.5791,6.5461v4.5559l-6.1441,0.6971
		c-7.5244,0.9057-15.758,3.2688-15.758,12.4425c0,4.8823,3.6319,8.8741,9.4855,8.8741c6.0615,0,10.0412-3.4859,12.5473-6.5568
		c0.2789,4.0492,1.6119,6.4873,6.7035,6.4873c2.7155,0,6.971-1.8137,9.1302-3.8329l-0.2751-1.8832h-5.791V291.7884z
		 M230.3671,288.9308c-2.2371,1.044-4.6767,1.9527-7.6016,1.9527c-2.9333,0-4.7431-1.9474-4.7431-4.9029
		c0-3.761,3.6219-5.8185,8.015-6.511l4.3297-0.7696V288.9308z"/>
	<rect fill="none" width="512" height="512"/>
</g>
</svg>
