<svg id="XMLID_1_" xmlns="http://www.w3.org/2000/svg" viewBox="0 0 106 74.4995"><g id="Antistatique-ferme"><path fill="#000032" d="M102 16.5H4c-2.2 0-4 1.8-4 4v50c0 2.2 1.8 4 4 4h98c2.2 0 4-1.8 4-4v-50c0-2.2-1.8-4-4-4zm-80 11c-1.105 0-2-.896-2-2s.895-2 2-2 2 .895 2 2-.895 2-2 2zm62 0c-1.105 0-2-.896-2-2s.895-2 2-2 2 .895 2 2-.895 2-2 2z"/><path fill="#808098" d="M84 26c-.11 0-.222-.037-.314-.11L53 1.14 22.314 25.89c-.212.17-.53.14-.704-.077-.172-.215-.14-.53.077-.703l31-25c.18-.147.445-.147.627 0l31 25c.215.174.25.488.076.703-.1.123-.245.187-.39.187z"/><g fill="#FFF"><path d="M29.004 48.486c-.757 0-3.277.294-5.84.504.59-3.614 1.345-7.268 1.975-9.788 3.696-.252 8.316-.546 8.694 0 .59-1.597.084-4.2-1.092-4.2-.798 0-3.864.335-6.846.545-.757-.63-2.31-1.26-3.194-1.26-.252 0-.504.588-.84 1.512-1.26.04-2.226.04-2.562-.127-.294.378-.588 3.613 1.64 3.74-.632 2.855-1.304 6.468-1.85 9.83-.756.04-1.345 0-1.597-.127-.252.336-.462 2.772 1.177 3.108-.42 3.11-.672 5.67-.588 6.553.168 1.177 3.11 2.31 4.116 1.848-.252-1.68 0-4.915.504-8.485 3.15-.126 7.058-.336 7.31-.042.504-1.47.042-3.612-1.008-3.612zM89.13 37.732c-.084-1.05-2.1-1.975-3.15-2.06.04.715-3.236 5.672-3.908 5.588.084.126 1.386.924 1.89.924.967 0 5.126-3.906 5.168-4.452zM90.768 49.788c-.966 2.898-3.78 8.317-6.93 8.317-1.85 0-2.774-1.85-2.774-3.612v-.546c3.53 1.805 6.68-3.152 6.68-7.058 0-1.85-.715-3.445-2.48-3.908-.42 0-1.09.337-1.47.883-.42-.168-.84-.252-1.176-.252-2.735 0-5.383 5.273-5.53 9.81-.885 1.81-2.028 3.632-3.043 3.632-1.975 0 .924-8.822 1.638-10.124 0-.755-3.15-3.15-4.58-3.15-.84 0-3.444 4.16-5.04 8.318.504-2.94 1.218-5.503 1.638-6.217 0-.755-2.94-3.15-4.41-3.15-.84 0-3.486 4.495-5.082 8.78.504-2.604 1.302-5.335 1.68-6.218-1.176-1.09-2.983-1.3-3.78-1.3-.642 0-1.69 5.395-1.924 9.107-.946 2.01-2.196 4.207-3.152 4.207-.38 0-.883-.42-.883-1.43 0-2.687 2.1-7.812 2.604-8.736-.126-.67-2.773-2.35-3.57-2.35-.336.125-2.017.838-3.193.838.42-1.133 1.177-3.066 1.47-3.276-.587-.882-1.763-1.512-2.772-1.512-1.302 0-2.184 2.353-2.184 3.78 0 1.177.63 2.06 1.932 2.48-.42 1.344-.924 3.023-1.134 3.61.022.448.226.754.46.915-1.304 2.897-3.643 6.48-6.205 6.48-1.848 0-2.772-1.85-2.772-3.612v-.546c3.528 1.805 6.68-3.152 6.68-7.058 0-1.85-.715-3.445-2.48-3.908-.42 0-1.092.337-1.47.883-.42-.168-.84-.252-1.176-.252-2.816 0-5.546 5.587-5.546 10.208 0 3.403 1.932 6.68 5.67 6.68 6.554 0 9.16-9.957 9.16-9.957-.062-.214-.306-.514-.677-.663l.792-2.57c.713.04 1.553-.043 2.56-.21-1.175 2.226-1.973 7.393-1.847 8.988.21 2.647 2.436 3.614 4.074 3.614 1.47 0 2.802-1.602 3.852-3.47.533 1.485 1.98 2.755 3.618 2.755.378-5.42 2.856-10.417 4.2-12.308.63-.925 1.093-.84.883.04-.588 2.228-1.512 8.403-1.386 10.377.21 1.68 1.765 2.73 4.033 2.73.336-5.418 2.94-10.207 4.242-12.098.67-.925 1.134-.84.88.04-.587 2.186-1.552 5.168-1.258 7.94.25 2.1 2.016 3.74 4.285 3.74 1.384 0 2.607-1.402 3.575-3.098.73 2.33 2.51 4.148 5.292 4.148 6.554 0 9.158-9.956 9.158-9.956-.084-.294-.505-.756-1.134-.756zm-6.3-3.697c1.175 1.22-.127 7.226-3.278 6.638.462-2.94 1.974-5.88 3.277-6.637zm-46.28 0c1.175 1.22-.127 7.226-3.277 6.638.463-2.94 1.975-5.88 3.278-6.637z"/></g></g></svg>