<svg id="XMLID_2_" xmlns="http://www.w3.org/2000/svg" viewBox="0 0 106 74.4995"><g id="Antistatique-open"><path fill="#EF2678" d="M102 16.5H4c-2.2 0-4 1.8-4 4v50c0 2.2 1.8 4 4 4h98c2.2 0 4-1.8 4-4v-50c0-2.2-1.8-4-4-4zm-80 11c-1.105 0-2-.896-2-2s.895-2 2-2 2 .895 2 2-.895 2-2 2zm62 0c-1.105 0-2-.896-2-2s.895-2 2-2 2 .895 2 2-.895 2-2 2z"/><path fill="#808098" d="M84 26c-.11 0-.222-.037-.314-.11L53 1.14 22.314 25.89c-.213.17-.53.14-.704-.077-.172-.215-.14-.53.077-.703l31-25c.18-.147.445-.147.627 0l31 25c.215.174.25.488.076.703-.1.123-.245.187-.39.187z"/><g fill="#FFF"><path d="M38.956 37.185c-.336-.378-1.554-1.176-3.15-1.554-1.302-.755-2.73-1.133-3.78-1.133-1.723 0-3.278 1.176-4.16 2.814-2.268.548-5.04 7.815-5.04 14.116 0 5.503 2.814 9.41 7.855 9.41 7.31 0 10.25-9.704 10.25-16.845 0-3.066-.67-5.628-1.974-6.805zm-8.82 21.382c-2.564 0-3.488-2.73-3.488-5.923 0-5.88 2.94-13.442 4.747-13.442-.042-.336-.378-.714-.882-1.05.588-.673 1.47-1.345 2.772-1.345 2.647 0 3.78 3.276 3.78 7.31 0 6.385-2.73 14.45-6.93 14.45zM84.933 49.872s-2.69 7.603-4.453 7.603c-1.974 0 1.008-9.536 1.722-10.838 0-.756-2.772-3.15-4.62-3.15-.84 0-3.487 3.864-5.125 7.897.546-2.394 1.302-4.747 1.68-5.63-1.176-1.09-2.857-1.3-3.655-1.3-.608 0-1.63 4.83-1.95 8.486-1.358 2.563-3.38 5.165-5.562 5.165-1.85 0-2.773-1.85-2.773-3.612v-.546c3.53 1.805 6.68-3.152 6.68-7.058 0-1.85-.715-3.445-2.48-3.908-.42 0-1.09.337-1.47.883-.42-.168-.84-.252-1.176-.252-2.704 0-5.324 5.158-5.524 9.662-.722.867-1.53 1.48-2.41 1.848.84-2.395 1.133-5.125.923-7.058-.38-3.066-2.27-4.41-3.907-4.41-1.933 0-3.444 3.15-4.62 6.678-.043-.084-.085-.126-.043-.21.672-3.024 1.177-5 1.555-5.502-.294-.545-2.563-1.26-3.782-1.26-.756 0-4.2 17.937-3.864 23.23.125 1.68 3.527 2.143 3.905 1.68-.336-1.596.126-5.712.715-9.45.84.966 2.142 1.68 3.612 1.68 2.017 0 3.53-1.387 4.58-3.32 1.226-.24 2.427-.815 3.475-1.707.528 2.737 2.386 5.027 5.51 5.027 3.006 0 5.18-2.096 6.653-4.363.34 1.65 1.81 2.85 3.633 2.85.378-5.42 3.15-10.08 4.452-11.972.673-.924 1.135-.84.883.042-.59 2.185-1.765 6.3-1.47 9.073.25 2.1 1.974 3.74 4.284 3.74 3.193 0 5.713-8.696 5.755-9.452.042-.294-.798-.63-1.134-.546zM63.6 46.092c1.175 1.217-.126 7.224-3.277 6.636.462-2.94 1.974-5.88 3.277-6.637zM47.094 58.146c-.798 0-1.512-.84-1.764-2.353h-.042l.42-.965c.756 1.048 1.765 1.72 2.94 2.1-.504.755-1.007 1.217-1.554 1.217zm2.436-3.108c-1.092-.463-2.14-1.26-2.982-2.396 1.345-3.234 2.94-6.637 3.865-6.637 1.134 0 .504 5.46-.883 9.032z"/></g></g></svg>