<svg id="XMLID_1_" xmlns="http://www.w3.org/2000/svg" viewBox="0 0 106 74.4995"><g id="Antistatique-closed"><path fill="#000032" d="M102 16.5H4c-2.2 0-4 1.8-4 4v50c0 2.2 1.8 4 4 4h98c2.2 0 4-1.8 4-4v-50c0-2.2-1.8-4-4-4zm-80 11c-1.105 0-2-.896-2-2s.895-2 2-2 2 .895 2 2-.895 2-2 2zm62 0c-1.105 0-2-.896-2-2s.895-2 2-2 2 .895 2 2-.895 2-2 2z"/><path fill="#808098" d="M84 26c-.11 0-.222-.037-.314-.11L53 1.14 22.314 25.89c-.213.17-.53.14-.704-.077-.172-.215-.14-.53.077-.703l31-25c.18-.147.445-.147.627 0l31 25c.215.174.25.488.076.703-.1.123-.245.187-.39.187z"/><path fill="#FFF" d="M93.664 49.872s-2.477 7.1-4.326 7.1c-.378 0-.672-.463-.672-.926-.17-3.99 2.982-18.188 4.032-19.953-.504-.714-2.562-1.344-3.57-1.344-.757 0-1.89 4.872-2.773 9.955-1.218-.714-2.604-1.218-3.403-1.218-3.706 0-5.833 5.662-6.146 9.99-1.347 2.376-3.234 4.628-5.265 4.628-1.848 0-2.77-1.848-2.77-3.612v-.546c3.527 1.806 6.677-3.15 6.677-7.058 0-1.85-.714-3.445-2.478-3.908-.42 0-1.093.337-1.47.883-.422-.168-.842-.252-1.178-.252-2.75 0-5.414 5.335-5.533 9.89-.52.865-1.09 1.635-1.706 2.25.042-.42.042-.84 0-1.26-.336-2.815-2.815-5.84-2.815-7.226 0-1.26 1.3-2.394 2.226-2.352.336-.798-1.933-2.227-3.403-2.227h-.168c-1.554.084-2.1 1.345-2.815 3.53-.63 1.973-1.385 3.99-1.595 4.535 0 .132.023.247.056.353-.72 1.395-1.746 2.28-2.893 2.63.168-.966.295-1.974.295-2.94 0-2.184-.505-3.99-1.555-4.915-.546-.462-2.94-2.057-4.747-2.057-.924 0-1.848.714-2.185 1.805H43.4c-1.408 0-3.16 3.977-3.303 7.748-1.05 2.202-2.535 4.603-4.037 4.603-1.3 0-1.72-1.85-1.68-4.454 3.403-3.024 6.595-12.35 6.637-15.71 0-2.27-.46-3.655-1.427-3.655-.252 0-.59.253-.8.547-.63-.42-1.343-.63-1.847-.63-2.692 0-5.406 9.26-5.964 16.443-1.234 3.2-4.426 8.047-8.82 8.047-3.32 0-4.243-3.402-4.243-6.47 0-6.763 4.452-14.996 8.15-15.08.125.8.25 1.723.25 2.52 0 2.06-.756 4.412-1.553 4.874.126.42.545.924 1.134.924 1.554 0 4.033-3.612 4.033-6.846 0-2.773-2.352-3.025-3.528-3.025-1.01-.462-2.058-.715-2.856-.715-4.873 0-9.578 9.285-9.578 17.098 0 4.83 3.15 9.367 8.36 9.367 3.688 0 6.866-3.55 8.587-6.842.036.606.096 1.172.19 1.676.503 2.73 2.015 4.327 4.158 4.327 2.28 0 3.988-1.858 5.185-3.98.672 2.285 2.305 4.274 5.138 4.274 2.647 0 4.495-2.142 5.503-4.873.31-.054.615-.137.916-.244-.013 2.115 1.785 5.2 5.323 5.2 2.352-.083 3.863-.964 4.746-2.14 1.095-.476 2.118-1.38 3-2.546.67 2.468 2.477 4.435 5.372 4.435 2.902 0 5.028-1.952 6.497-4.127.583 2.693 2.58 3.874 3.908 3.874 2.057 0 3.234-2.268 4.074-5.083 0 .252-.042.504 0 .63.252 2.017 1.89 3.572 4.117 3.572 3.444 0 5.797-8.655 5.755-8.95-.043-.334-.757-.544-1.136-.544zm-21.493-3.78c1.177 1.217-.125 7.224-3.275 6.636.46-2.94 1.973-5.88 3.276-6.637zm-33.42-9.663c.335 1.89-1.807 10.627-4.2 14.702.67-6.3 3.19-14.703 4.2-14.703zm6.374 22.137c-.924 0-1.302-1.092-1.302-2.647 0-.88.126-1.89.336-2.898.924 1.22 2.058 2.06 3.444 2.52-.67 1.765-1.554 3.025-2.478 3.025zm3.108-5.04c-1.343-.59-2.394-1.723-3.192-3.362.504-1.3 1.176-2.268 1.85-2.562.083-.084.083-.126.083-.21 0-.252-.378-.588-.883-.84.463-.42.967-.672 1.386-.672.966 0 1.386 1.345 1.386 3.152 0 1.344-.252 2.982-.63 4.494zm7.92 5.04c-1.553 0-1.72-2.185-1.302-2.48.294-.21 1.47.17 3.823 1.052-.714 1.175-2.016 1.427-2.52 1.427zm2.983-2.815c-1.453-.58-3.248-1.53-4.576-1.94.82-.908 1.443-2.08 1.696-3.478 0-.07-.035-.138-.082-.205l1.03-3.03c.167 3.024 1.763 5.208 1.973 7.477.042.42 0 .84-.042 1.175zm26.59-7.308c-.966 2.94-3.11 9.24-4.41 9.24-1.765 0 .335-11.76 3.15-11.76.63 0 1.05.713 1.302 2.183 0 .084-.042.21-.042.337z"/></g></svg>