<svg id="XMLID_2_" xmlns="http://www.w3.org/2000/svg" viewBox="0 0 106 74.4995"><g id="Antistatique-ouvert"><path fill="#EF2678" d="M102 16.5H4c-2.2 0-4 1.8-4 4v50c0 2.2 1.8 4 4 4h98c2.2 0 4-1.8 4-4v-50c0-2.2-1.8-4-4-4zm-80 11c-1.105 0-2-.896-2-2s.895-2 2-2 2 .895 2 2-.895 2-2 2zm62 0c-1.105 0-2-.896-2-2s.895-2 2-2 2 .895 2 2-.895 2-2 2z"/><path fill="#808098" d="M84 26c-.11 0-.222-.037-.314-.11L53 1.14 22.314 25.89c-.212.17-.53.14-.704-.077-.172-.215-.14-.53.077-.703l31-25c.18-.147.445-.147.627 0l31 25c.215.174.25.488.076.703-.1.123-.245.187-.39.187z"/><g fill="#FFF"><path d="M26.883 35.63c-1.302-.755-2.73-1.133-3.78-1.133-1.723 0-3.278 1.176-4.16 2.814-2.268.548-5.04 7.815-5.04 14.116 0 5.503 2.814 9.41 7.855 9.41 7.31 0 10.25-9.704 10.25-16.845 0-3.066-.672-5.628-1.975-6.805-.336-.378-1.553-1.176-3.15-1.554zm-5.67 22.937c-2.564 0-3.487-2.73-3.487-5.923 0-5.88 2.94-13.442 4.746-13.442-.042-.336-.378-.714-.882-1.05.588-.673 1.47-1.345 2.772-1.345 2.647 0 3.782 3.276 3.782 7.31 0 6.385-2.732 14.45-6.932 14.45zM93.855 49.788c-1.428 4.075-3.78 8.023-5.503 8.023-1.933 0-.924-6.09.378-11.3 1.68-.125 3.234-.21 3.444 0 .505-1.47.085-2.98-.966-2.98-.378 0-1.008.083-1.723.167.59-2.185 1.177-3.865 1.43-4.327-.63-.84-2.564-1.344-3.613-1.344-.505 0-1.345 2.772-2.143 6.217-.967.084-1.808.084-2.144-.084-.293.335-.545 2.645 1.555 2.645h.043c-.346 1.788-.64 3.612-.83 5.227-.964 2.206-2.506 5.275-3.637 5.275-.38 0-.882-.42-.882-1.43 0-2.687 2.1-7.812 2.604-8.736-.126-.67-2.772-2.35-3.57-2.35-.336.125-2.017.84-3.193.84.42-1.135 1.176-3.068 1.47-3.278-.588-.882-1.764-1.512-2.772-1.512-1.302 0-2.185 2.353-2.185 3.78 0 1.178.63 2.06 1.933 2.48-.42 1.344-.923 3.024-1.133 3.61.02.448.225.754.46.915-1.304 2.898-3.644 6.48-6.205 6.48-1.85 0-2.773-1.85-2.773-3.612v-.546c3.527 1.806 6.678-3.152 6.678-7.058 0-1.85-.714-3.445-2.48-3.908-.42 0-1.09.337-1.468.883-.42-.168-.84-.252-1.177-.252-2.484 0-4.9 4.35-5.433 8.55-.324.172-.676.27-1.053.27-.505 0-.883-.167-1.177-.42.798-2.393 1.26-4.83 1.22-6.552-.085-1.007-1.094-2.604-2.396-2.604-1.765 0-3.53 6.554-1.807 9.116-.46 1.68-1.722 5.503-3.024 5.503-2.143 0 .252-10.922.882-11.468-.966-.84-2.815-1.47-3.36-1.47-1.254 0-1.948 4.754-2.04 8.415-.866 2.045-2.05 4.355-2.986 4.355-.38 0-.59-.42-.59-1.43 0-2.687 1.47-9.534 1.975-10.46-.63-.88-2.773-1.132-3.36-1.132s-1.05 1.09-1.387 2.604c-.882 2.856-3.11 9.45-4.494 9.45-.252 0-.42-.21-.462-.672-.295-2.226 1.93-9.956 2.435-10.88-.546-.84-2.435-1.595-3.444-1.595-1.176 0-3.067 9.41-2.69 12.18.295 2.018 1.514 3.572 3.74 3.572 1.806 0 3.067-2.016 3.95-4.41 0 .672 0 1.217.04 1.553.21 2.647 2.563 3.614 3.78 3.614 1.443 0 2.685-1.54 3.65-3.364.35 2.325 2.1 3.53 3.688 3.53 2.354 0 4.453-2.645 5.882-5.837.462.21.966.294 1.554.294.504 0 .953-.092 1.372-.225.103 3.3 2.025 6.4 5.66 6.4 6.555 0 9.16-9.957 9.16-9.957-.062-.214-.306-.514-.676-.663l.79-2.57c.715.04 1.555-.043 2.564-.21-1.177 2.225-1.975 7.392-1.85 8.988.21 2.647 2.438 3.613 4.075 3.613 1.52 0 2.892-1.702 3.957-3.65.003.038.003.087.007.122.252 2.1 1.765 4.033 4.537 4.033 3.908 0 6.807-9.073 6.85-9.83 0-.294-.8-.67-1.135-.587zM67.302 46.09c1.176 1.22-.126 7.226-3.277 6.638.462-2.94 1.974-5.88 3.277-6.637z"/></g></g></svg>