<svg width="667" height="66" viewBox="0 0 667 66" xmlns="http://www.w3.org/2000/svg"><title>nous-socialisons</title><g id="Page-1" fill="none" fill-rule="evenodd"><g id="nous-socialisons" fill="#EF2678"><g id="Shape"><path d="M0 0h14.81c10.146 18.465 18.556 32.725 25.046 45.98-.548-15.905-.548-30.806-.548-45.98H51.83v64.537H37.023c-8.684-15.54-19.653-34.92-25.047-45.98.64 16.088.366 30.805.55 45.98H0V0zM60.425 41.593c0-13.804 7.953-24.316 22.488-24.316 14.717 0 22.488 10.42 22.488 24.316C105.4 55.396 97.63 66 82.914 66 67.92 66 60.425 55.396 60.425 41.593zm31.995 0c0-8.684-3.2-14.81-9.507-14.81-6.4 0-9.507 6.126-9.507 14.81 0 8.775 3.108 14.808 9.78 14.808 6.217 0 9.234-6.032 9.234-14.807zM112.988 18.648h12.433v26.144c0 6.856 2.377 10.238 7.222 10.238 5.85 0 9.232-4.662 9.232-13.53V18.65h12.433v45.89h-11.7v-7.77c-2.377 5.21-6.217 8.866-14.078 8.866-10.514 0-15.541-6.4-15.541-17.917v-29.07h-.002zM167.198 50.734c2.834 3.2 8.32 6.124 13.803 6.124 3.292 0 6.766-1.28 6.766-4.48 0-8.5-24.773-3.746-24.773-20.75 0-9.963 8.96-14.35 18.374-14.35 7.68 0 13.53 2.01 18.19 5.575L193.8 31.08c-2.47-2.377-7.954-4.753-12.89-4.753-2.834 0-5.302 1.097-5.302 3.93 0 7.77 24.682 4.297 24.682 20.568 0 10.238-9.6 15.175-18.74 15.175-8.228 0-15.175-2.377-20.202-6.856l5.85-8.41zM231.097 50.734c2.833 3.2 8.319 6.124 13.803 6.124 3.29 0 6.764-1.28 6.764-4.48 0-8.5-24.772-3.746-24.772-20.75 0-9.963 8.96-14.35 18.374-14.35 7.68 0 13.53 2.01 18.19 5.575L257.7 31.08c-2.468-2.377-7.953-4.753-12.89-4.753-2.833 0-5.3 1.097-5.3 3.93 0 7.77 24.68 4.297 24.68 20.568 0 10.238-9.598 15.175-18.74 15.175-8.227 0-15.174-2.377-20.2-6.856l5.85-8.41zM269.308 41.593c0-13.804 7.954-24.316 22.488-24.316 14.718 0 22.488 10.42 22.488 24.316 0 13.803-7.77 24.407-22.488 24.407-14.99 0-22.488-10.604-22.488-24.407zm31.995 0c0-8.684-3.2-14.81-9.507-14.81-6.4 0-9.506 6.126-9.506 14.81 0 8.775 3.107 14.808 9.78 14.808 6.217 0 9.233-6.032 9.233-14.807zM362.733 54.756C358.528 62.434 351.58 66 342.623 66c-15.724 0-22.58-10.787-22.58-24.225 0-14.534 8.136-24.498 22.58-24.498 9.323 0 15.63 4.113 19.835 11.518l-10.33 5.027c-1.92-4.844-5.118-7.038-9.14-7.038-7.04 0-10.055 6.125-10.055 14.26 0 7.13 2.376 15.357 10.786 15.357 4.844 0 7.86-2.74 9.69-7.22l9.323 5.576zM369.316.548h12.432v10.147h-12.432V.548zm0 18.1h12.432v45.89h-12.432v-45.89zM419.593 64.537c-.73-1.646-1.19-4.296-1.37-6.49-1.92 4.48-6.4 7.953-13.44 7.953-9.415 0-14.9-6.125-14.9-14.627 0-9.415 7.04-13.163 17.46-14.717l10.147-1.554v-1.736c0-5.394-2.925-6.582-7.04-6.582-6.123 0-10.236 2.65-13.344 5.85l-5.942-8.227c3.747-3.656 10.786-7.13 20.84-7.13 12.8 0 18.01 5.485 18.01 17.002v17.185c0 6.947.183 9.324 1.737 13.072h-12.157zm-2.103-21.573l-7.953 1.462c-5.484 1.006-7.77 2.925-7.77 6.49 0 3.474 2.286 6.217 6.216 6.217 5.21 0 9.507-4.297 9.507-11.153v-3.016zM440.253 0h12.432v64.537h-12.432V0zM462.65.548h12.43v10.147h-12.43V.548zm0 18.1h12.43v45.89h-12.43v-45.89zM487.97 50.734c2.835 3.2 8.32 6.124 13.804 6.124 3.29 0 6.765-1.28 6.765-4.48 0-8.5-24.774-3.746-24.774-20.75 0-9.963 8.96-14.35 18.374-14.35 7.68 0 13.53 2.01 18.19 5.575l-5.758 8.227c-2.468-2.377-7.952-4.753-12.89-4.753-2.833 0-5.3 1.097-5.3 3.93 0 7.77 24.68 4.297 24.68 20.568 0 10.238-9.598 15.175-18.74 15.175-8.226 0-15.174-2.377-20.2-6.856l5.85-8.41zM526.183 41.593c0-13.804 7.953-24.316 22.487-24.316 14.718 0 22.488 10.42 22.488 24.316 0 13.803-7.77 24.407-22.488 24.407-14.99 0-22.487-10.604-22.487-24.407zm31.994 0c0-8.684-3.2-14.81-9.507-14.81-6.398 0-9.506 6.126-9.506 14.81 0 8.775 3.108 14.808 9.78 14.808 6.217 0 9.233-6.032 9.233-14.807zM579.02 18.648h11.06l1.007 7.404c2.56-4.753 7.953-8.775 14.717-8.775 9.964 0 14.717 6.4 14.717 18.557v28.703h-12.43V38.85c0-7.587-2.652-10.695-7.588-10.695-5.21 0-9.05 3.93-9.05 13.712v22.67H579.02v-45.89zM633.23 50.734c2.833 3.2 8.318 6.124 13.802 6.124 3.29 0 6.765-1.28 6.765-4.48 0-8.5-24.773-3.746-24.773-20.75 0-9.963 8.96-14.35 18.374-14.35 7.68 0 13.53 2.01 18.19 5.575l-5.758 8.227c-2.468-2.377-7.953-4.753-12.89-4.753-2.833 0-5.3 1.097-5.3 3.93 0 7.77 24.68 4.297 24.68 20.568 0 10.238-9.598 15.175-18.74 15.175-8.226 0-15.174-2.377-20.2-6.856l5.85-8.41z"/></g></g></g></svg>