<svg width="491" height="66" viewBox="0 0 491 66" xmlns="http://www.w3.org/2000/svg"><title>we_socialize</title><g id="Page-1" fill="none" fill-rule="evenodd"><g id="we_socialize" fill="#EF2678"><path d="M.235.375h14.01c3.324 14.37 8.354 34.13 10.6 45.355C26.1 35.762 32.388 14.656 36.43.375h10.598c4.67 17.693 10.508 35.387 12.484 45.535 1.347-11.495 5.3-26.225 9.7-45.535h13.74l-17.87 63.41H53.224c-4.76-16.887-9.88-32.065-12.214-43.29-1.796 11.494-7.364 29.727-11.136 43.29H18.02L.234.374" id="Fill-1"/><path d="M95.344 44.115c.898 8.352 5.12 11.945 10.957 11.945 4.402 0 7.546-1.977 9.79-6.018l9.072 5.12c-4.13 6.556-10.957 10.06-19.49 10.06-14.908 0-22.812-10.42-22.812-23.8 0-13.564 7.994-24.072 22.094-24.072 13.652 0 21.016 10.06 21.016 24.16 0 1.527-.09 2.245-.09 2.605H95.344zm0-7.006h18.232c0-5.66-2.694-10.778-8.89-10.778-5.57 0-8.623 4.04-9.342 10.777z" id="Fill-2"/><path d="M156.86 50.222c2.785 3.143 8.174 6.018 13.563 6.018 3.233 0 6.646-1.258 6.646-4.402 0-8.352-24.34-3.682-24.34-20.388 0-9.788 8.802-14.1 18.053-14.1 7.544 0 13.292 1.976 17.872 5.478l-5.658 8.083c-2.425-2.333-7.814-4.668-12.664-4.668-2.784 0-5.21 1.078-5.21 3.862 0 7.633 24.25 4.22 24.25 20.208 0 10.058-9.43 14.91-18.41 14.91-8.084 0-14.91-2.337-19.85-6.737l5.748-8.263" id="Fill-3"/><path d="M194.4 41.24c0-13.56 7.815-23.89 22.095-23.89 14.46 0 22.095 10.24 22.095 23.89 0 13.562-7.635 23.98-22.095 23.98-14.73 0-22.094-10.418-22.094-23.98zm31.436 0c0-8.532-3.143-14.55-9.34-14.55-6.288 0-9.34 6.018-9.34 14.55 0 8.623 3.052 14.55 9.61 14.55 6.106 0 9.07-5.927 9.07-14.55z" id="Fill-4"/><path d="M286.187 54.173c-4.132 7.545-10.958 11.048-19.76 11.048-15.447 0-22.183-10.598-22.183-23.8 0-14.28 7.993-24.07 22.184-24.07 9.16 0 15.358 4.042 19.49 11.316l-10.15 4.94c-1.886-4.76-5.03-6.915-8.98-6.915-6.917 0-9.88 6.018-9.88 14.012 0 7.006 2.335 15.09 10.598 15.09 4.76 0 7.723-2.696 9.52-7.097l9.16 5.478" id="Fill-5"/><path d="M292.65.914h12.215v9.97H292.65V.913zm0 17.783h12.215v45.086H292.65V18.697z" id="Fill-6"/><path d="M342.046 63.784c-.718-1.617-1.167-4.222-1.347-6.377-1.887 4.4-6.287 7.814-13.203 7.814-9.25 0-14.64-6.017-14.64-14.37 0-9.25 6.916-12.933 17.155-14.46l9.97-1.526v-1.707c0-5.3-2.875-6.466-6.917-6.466-6.017 0-10.06 2.605-13.112 5.748l-5.838-8.083c3.682-3.592 10.597-7.005 20.477-7.005 12.574 0 17.693 5.388 17.693 16.705V50.94c0 6.826.18 9.16 1.707 12.844h-11.946zm-2.065-21.197l-7.813 1.438c-5.39.988-7.634 2.873-7.634 6.377 0 3.41 2.245 6.107 6.107 6.107 5.12 0 9.34-4.223 9.34-10.96v-2.963z" id="Fill-7"/><path d="M362.34.375h12.215v63.41H362.34V.374z" id="Fill-8"/><path d="M384.344.914h12.214v9.97h-12.214V.913zm0 17.783h12.214v45.086h-12.214V18.697z" id="Fill-9"/><path d="M404.37 55.072l24.25-27.303h-23.17v-9.073h37.72v8.713l-24.788 27.302h25.956v9.072H404.37v-8.712" id="Fill-10"/><path d="M460.232 44.115c.898 8.352 5.12 11.945 10.957 11.945 4.4 0 7.543-1.977 9.79-6.018l9.07 5.12c-4.132 6.556-10.957 10.06-19.49 10.06-14.908 0-22.812-10.42-22.812-23.8 0-13.564 7.993-24.072 22.094-24.072 13.652 0 21.016 10.06 21.016 24.16 0 1.527-.09 2.245-.09 2.605h-30.536zm0-7.006h18.232c0-5.66-2.694-10.778-8.89-10.778-5.57 0-8.623 4.04-9.342 10.777z" id="Fill-11"/></g></g></svg>