<?xml version="1.0" encoding="utf-8"?>
<!-- Generator: Adobe Illustrator 18.1.1, SVG Export Plug-In . SVG Version: 6.00 Build 0)  -->
<!DOCTYPE svg PUBLIC "-//W3C//DTD SVG 1.1//EN" "http://www.w3.org/Graphics/SVG/1.1/DTD/svg11.dtd">
<svg version="1.1" id="XMLID_2_" xmlns="http://www.w3.org/2000/svg" xmlns:xlink="http://www.w3.org/1999/xlink" x="0px" y="0px"
	 viewBox="0 0 90 73.5" enable-background="new 0 0 90 73.5" xml:space="preserve">
<g id="Antistatique-open">
	<path fill="#EF2678" d="M86,16.5H4c-2.2002,0-4,1.8-4,4v49c0,2.2002,1.7998,4,4,4h82c2.2002,0,4-1.7998,4-4v-49
		C90,18.3,88.2002,16.5,86,16.5z M14,29.5c-1.1045,0-2-0.8953-2-2c0-1.1045,0.8955-2,2-2s2,0.8955,2,2
		C16,28.6047,15.1045,29.5,14,29.5z M76,29.5c-1.1045,0-2-0.8953-2-2c0-1.1045,0.8955-2,2-2s2,0.8955,2,2
		C78,28.6047,77.1045,29.5,76,29.5z"/>
	<g>
		<path fill="#FFFFFF" d="M27.0762,37.7969c-0.3965-0.3135-1.7344-0.8887-3.3721-0.9834c-1.4131-0.5195-2.8857-0.6426-3.9199-0.4609
			c-1.6963,0.2988-3.0225,1.7285-3.6064,3.4941c-2.1396,0.9326-3.6084,8.5693-2.5137,14.7754
			c0.9551,5.4199,4.4053,8.7783,9.3701,7.9023c7.1982-1.2695,8.4082-11.335,7.1689-18.3682
			C29.6699,41.1367,28.5645,38.7295,27.0762,37.7969z M22.1016,60.3857c-2.5234,0.4443-3.9062-2.084-4.4609-5.2285
			c-1.0215-5.791,0.5615-13.748,2.3398-14.0605c-0.1006-0.3242-0.4961-0.6387-1.0508-0.8818
			c0.4619-0.7646,1.2148-1.5791,2.4961-1.8057c2.6064-0.459,4.2939,2.5703,4.9941,6.542
			C27.5283,51.2393,26.2383,59.6553,22.1016,60.3857z"/>
		<path fill="#FFFFFF" d="M75.7695,42.6475c-0.0088-0.2969-0.8955-0.4814-1.2119-0.3398c0,0-1.3271,7.9531-3.0645,8.2598
			c-1.9443,0.3428-0.6621-9.5654-0.1865-10.9717c-0.1309-0.7441-3.2764-2.6211-5.0967-2.2998
			c-0.8281,0.1455-2.7627,4.4102-3.6758,8.667c0.1221-2.4531,0.458-4.9014,0.6768-5.835c-1.3477-0.8721-3.0391-0.7871-3.8242-0.6484
			c-0.5996,0.106-0.7666,5.041-0.4487,8.6975c-0.8911,2.7593-2.4292,5.6736-4.5796,6.0525
			c-1.8213,0.3203-3.0518-1.3398-3.3574-3.0762l-0.0947-0.5381c3.7881,1.165,6.0293-4.2637,5.3516-8.1104
			c-0.3213-1.8203-1.3018-3.2676-3.1201-3.417c-0.4131,0.0732-1.0166,0.5215-1.2939,1.124
			c-0.4434-0.0918-0.8721-0.1016-1.2021-0.043c-2.6646,0.4695-4.3481,6.0046-3.7642,10.4749
			c-0.5596,0.9788-1.2495,1.7224-2.0522,2.238c0.4111-2.5049,0.2266-5.2441-0.3154-7.1113c-0.9043-2.9551-3-3.9492-4.6133-3.665
			c-1.9033,0.335-2.8447,3.7002-3.3916,7.3799c-0.0557-0.0752-0.1035-0.1094-0.0771-0.1992c0.1357-3.0957,0.29-5.1279,0.5762-5.6895
			c-0.3848-0.4863-2.7422-0.7959-3.9434-0.584c-0.7441,0.1309-1.0215,18.3936,0.2285,23.5479
			c0.416,1.6328,3.8467,1.4971,4.1387,0.9756c-0.6084-1.5137-0.8682-5.6475-0.9375-9.4316
			c0.9951,0.8057,2.4004,1.2832,3.8496,1.0273c1.9854-0.3496,3.2344-1.9775,3.9326-4.0625c1.1665-0.4512,2.2495-1.2251,3.127-2.2861
			c0.9956,2.6035,3.2227,4.5359,6.2988,3.9932c2.9604-0.5217,4.7363-2.9622,5.7944-5.4512
			c0.6216,1.5662,2.2788,2.4927,4.0728,2.1758c-0.5693-5.4023,1.3525-10.4746,2.3047-12.5625
			c0.502-1.0273,0.9727-1.0254,0.8779-0.1133c-0.2012,2.2539-0.6445,6.5117,0.126,9.1914c0.6143,2.0254,2.5947,3.3398,4.8701,2.9385
			C74.8877,52.4014,75.8604,43.3994,75.7695,42.6475z M38.7314,57.0273c-0.7861,0.1387-1.6357-0.5654-2.1465-2.0107l-0.041,0.0068
			L36.79,54c0.9258,0.9023,2.0371,1.3896,3.2598,1.5576C39.6855,56.3896,39.2695,56.9326,38.7314,57.0273z M40.5908,53.542
			c-1.1553-0.2646-2.3281-0.8672-3.3535-1.8398c0.7627-3.418,1.7432-7.0459,2.6543-7.207
			C41.0078,44.2988,41.3359,49.7861,40.5908,53.542z M52.8926,42.2881c1.3691,0.9951,1.1309,7.1367-2.0742,7.1055
			C50.7627,46.417,51.7402,43.2588,52.8926,42.2881z"/>
	</g>
	<path fill="#808098" d="M76,28c-0.1162,0-0.2334-0.04-0.3281-0.123L45,1.1631L14.3281,27.877
		c-0.209,0.1836-0.5244,0.1602-0.7051-0.0488c-0.1816-0.208-0.1592-0.5234,0.0488-0.7051l31-27
		c0.1875-0.1641,0.4688-0.1641,0.6562,0l31,27c0.208,0.1816,0.2305,0.4971,0.0488,0.7051C76.2783,27.9424,76.1396,28,76,28z"/>
</g>
</svg>
