<?xml version="1.0" encoding="utf-8"?>
<!-- Generator: Adobe Illustrator 18.1.1, SVG Export Plug-In . SVG Version: 6.00 Build 0)  -->
<!DOCTYPE svg PUBLIC "-//W3C//DTD SVG 1.1//EN" "http://www.w3.org/Graphics/SVG/1.1/DTD/svg11.dtd">
<svg version="1.1" id="XMLID_1_" xmlns="http://www.w3.org/2000/svg" xmlns:xlink="http://www.w3.org/1999/xlink" x="0px" y="0px"
	 viewBox="0 0 106 74.4995" enable-background="new 0 0 106 74.4995" xml:space="preserve">
<g id="Antistatique-ferme">
	<path fill="#000032" d="M102,16.4995H4c-2.2002,0-4,1.8-4,4v50c0,2.2,1.7998,4,4,4h98c2.2002,0,4-1.8,4-4v-50
		C106,18.2996,104.2002,16.4995,102,16.4995z M22,27.4995c-1.1045,0-2-0.8955-2-2s0.8955-2,2-2s2,0.8955,2,2
		S23.1045,27.4995,22,27.4995z M84,27.4995c-1.1045,0-2-0.8955-2-2s0.8955-2,2-2s2,0.8955,2,2S85.1045,27.4995,84,27.4995z"/>
	<path fill="#808098" d="M84,25.9995c-0.1104,0-0.2217-0.0361-0.3135-0.1104L53,1.1421L22.3135,25.8892
		c-0.2119,0.1719-0.5283,0.1406-0.7031-0.0762c-0.1729-0.2148-0.1396-0.5293,0.0762-0.7031l31-25
		c0.1816-0.1465,0.4453-0.1465,0.627,0l31,25c0.2158,0.1738,0.249,0.4883,0.0762,0.7031C84.29,25.936,84.1455,25.9995,84,25.9995z"
		/>
	<g>
		<path fill="#FFFFFF" d="M29.0039,48.4858c-0.7568,0-3.2773,0.2939-5.8398,0.5039c0.5889-3.6133,1.3447-7.2676,1.9746-9.7881
			c3.6973-0.252,8.3174-0.5459,8.6953,0c0.5889-1.5967,0.084-4.2002-1.0918-4.2002c-0.7979,0-3.8643,0.3359-6.8467,0.5459
			c-0.7568-0.6309-2.3105-1.2607-3.1934-1.2607c-0.252,0-0.5039,0.5879-0.8398,1.5127c-1.2598,0.042-2.2266,0.042-2.5625-0.126
			c-0.2939,0.3779-0.5879,3.6123,1.6387,3.7383c-0.6309,2.8564-1.3027,6.4697-1.8486,9.8301c-0.7559,0.042-1.3447,0-1.5967-0.126
			c-0.252,0.3359-0.4619,2.7725,1.1768,3.1084c-0.4199,3.1084-0.6719,5.6709-0.5879,6.5527
			c0.168,1.1768,3.1084,2.3105,4.1162,1.8486c-0.252-1.6807,0-4.915,0.5039-8.4854c3.1504-0.126,7.0576-0.3359,7.3096-0.042
			C30.5156,50.6274,30.0537,48.4858,29.0039,48.4858z"/>
		<path fill="#FFFFFF" d="M89.1299,37.7319c-0.084-1.0508-2.1006-1.9746-3.1514-2.0586c0.042,0.7139-3.2344,5.6709-3.9062,5.5869
			c0.084,0.126,1.3857,0.9238,1.8906,0.9238C84.9287,42.1841,89.0879,38.2778,89.1299,37.7319z"/>
		<path fill="#FFFFFF" d="M90.7676,49.7876c-0.9658,2.8984-3.7803,8.3174-6.9307,8.3174c-1.8486,0-2.7725-1.8486-2.7725-3.6123
			v-0.5459c3.5283,1.8057,6.6787-3.1514,6.6787-7.0576c0-1.8486-0.7139-3.4443-2.4785-3.9072c-0.4199,0-1.0918,0.3369-1.4697,0.8828
			c-0.4209-0.168-0.8408-0.252-1.1768-0.252c-2.7349,0-5.3828,5.2732-5.5308,9.8115c-0.8848,1.8088-2.0273,3.6309-3.0425,3.6309
			c-1.9746,0,0.9238-8.8223,1.6377-10.124c0-0.7559-3.1504-3.1504-4.5781-3.1504c-0.8408,0-3.4453,4.1582-5.041,8.3174
			c0.5039-2.9404,1.2178-5.5029,1.6377-6.2168c0-0.7568-2.9404-3.1514-4.4102-3.1514c-0.8408,0-3.4873,4.4951-5.083,8.7803
			c0.5039-2.6045,1.3018-5.335,1.6797-6.2178c-1.1758-1.0918-2.9824-1.3018-3.7803-1.3018c-0.6411,0-1.688,5.3962-1.9229,9.1079
			c-0.9463,2.0125-2.1963,4.2085-3.1523,4.2085c-0.3789,0-0.8828-0.4199-0.8828-1.4287c0-2.6885,2.1006-7.8135,2.6045-8.7373
			c-0.126-0.6719-2.7725-2.3525-3.5703-2.3525c-0.3359,0.126-2.0166,0.8398-3.1924,0.8398
			c0.4199-1.1338,1.1758-3.0664,1.4697-3.2764c-0.5879-0.8818-1.7637-1.5117-2.7725-1.5117c-1.3018,0-2.1846,2.3525-2.1846,3.7803
			c0,1.1768,0.6309,2.0586,1.9326,2.4785c-0.4199,1.3447-0.9238,3.0244-1.1338,3.6123c0.0215,0.4468,0.2256,0.7522,0.46,0.9136
			c-1.3042,2.8975-3.6436,6.48-6.2051,6.48c-1.8486,0-2.7725-1.8486-2.7725-3.6123v-0.5459
			c3.5283,1.8057,6.6787-3.1514,6.6787-7.0576c0-1.8486-0.7139-3.4443-2.4785-3.9072c-0.4199,0-1.0918,0.3369-1.4697,0.8828
			c-0.4209-0.168-0.8408-0.252-1.1768-0.252c-2.8145,0-5.5449,5.5869-5.5449,10.208c0,3.4023,1.9326,6.6787,5.6709,6.6787
			c6.5537,0,9.1582-9.9561,9.1582-9.9561c-0.061-0.2144-0.3052-0.5144-0.6753-0.6631l0.7915-2.5713
			c0.7139,0.042,1.5537-0.042,2.5625-0.21c-1.1768,2.2266-1.9746,7.3936-1.8486,8.9893c0.21,2.6465,2.4365,3.6133,4.0742,3.6133
			c1.4697,0,2.8018-1.6011,3.8516-3.4709c0.5342,1.4863,1.981,2.7561,3.6191,2.7561c0.3779-5.4189,2.8564-10.417,4.2002-12.3076
			c0.6299-0.9238,1.0928-0.8398,0.8828,0.042c-0.5889,2.2266-1.5127,8.4014-1.3867,10.376c0.21,1.6797,1.7646,2.7305,4.0332,2.7305
			c0.3359-5.4189,2.9404-10.208,4.2422-12.0986c0.6719-0.9238,1.1348-0.8398,0.8818,0.042
			c-0.5879,2.1846-1.5537,5.167-1.2598,7.9395c0.252,2.1006,2.0166,3.7393,4.2852,3.7393c1.3843,0,2.6069-1.4019,3.5752-3.0977
			c0.729,2.3311,2.5093,4.1475,5.292,4.1475c6.5537,0,9.1582-9.9561,9.1582-9.9561C91.8184,50.2495,91.3975,49.7876,90.7676,49.7876
			z M84.4668,46.0913c1.1758,1.2178-0.126,7.2246-3.2764,6.6367C81.6523,49.7876,83.1641,46.8472,84.4668,46.0913z M38.1875,46.0913
			c1.1758,1.2178-0.126,7.2246-3.2764,6.6367C35.373,49.7876,36.8848,46.8472,38.1875,46.0913z"/>
	</g>
</g>
</svg>
