<?xml version="1.0" encoding="utf-8"?>
<!-- Generator: Adobe Illustrator 18.1.1, SVG Export Plug-In . SVG Version: 6.00 Build 0)  -->
<!DOCTYPE svg PUBLIC "-//W3C//DTD SVG 1.1//EN" "http://www.w3.org/Graphics/SVG/1.1/DTD/svg11.dtd">
<svg version="1.1" id="XMLID_1_" xmlns="http://www.w3.org/2000/svg" xmlns:xlink="http://www.w3.org/1999/xlink" x="0px" y="0px"
	 viewBox="0 0 90 73.5" enable-background="new 0 0 90 73.5" xml:space="preserve">
<g id="Antistatique-close">
	<path fill="#000032" d="M86,16.5H4c-2.2002,0-4,1.7998-4,4v49c0,2.2002,1.7998,4,4,4h82c2.2002,0,4-1.7998,4-4v-49
		C90,18.2998,88.2002,16.5,86,16.5z M14,29.5c-1.1045,0-2-0.8955-2-2s0.8955-2,2-2s2,0.8955,2,2S15.1045,29.5,14,29.5z M76,29.5
		c-1.1045,0-2-0.8955-2-2s0.8955-2,2-2s2,0.8955,2,2S77.1045,29.5,76,29.5z"/>
	<path fill="#FFFFFF" d="M75.6807,42.0234c-0.4473,3.0225-2.2783,8.8477-5.3809,9.3955c-1.8203,0.3203-3.0518-1.3398-3.3574-3.0762
		l-0.0947-0.5391c3.7881,1.166,6.0293-4.2627,5.3516-8.1094c-0.3213-1.8203-1.3018-3.2676-3.1191-3.418
		c-0.4141,0.0732-1.0166,0.5225-1.2949,1.125c-0.4434-0.0918-0.8721-0.1016-1.2021-0.0439
		c-2.709,0.478-4.4053,6.1938-3.7324,10.7012c-0.3594,0.9409-0.7891,1.7983-1.2881,2.5107
		c-0.0312-0.4199-0.1035-0.834-0.2188-1.2402c-0.8184-2.7129-3.7852-5.2617-4.0264-6.627c-0.2188-1.2402,0.8662-2.585,1.7842-2.7031
		c0.1924-0.8447-2.2891-1.8574-3.7383-1.6025l-0.165,0.0293c-1.5156,0.3525-1.834,1.6885-2.1592,3.9639
		c-0.2773,2.0537-0.6719,4.1699-0.7832,4.7451c0.0229,0.1299,0.0654,0.2383,0.1162,0.3369
		c-0.4692,1.4995-1.3247,2.5488-2.3936,3.0938c-0.002-0.9805-0.0527-1.9961-0.2207-2.9482
		c-0.3789-2.1504-1.1895-3.8418-2.3838-4.5693c-0.6182-0.3604-3.2529-1.5156-5.0322-1.2021
		c-0.9092,0.1602-1.6953,1.0234-1.8379,2.1572l-0.082,0.0146c-1.3882,0.2441-2.4238,4.4639-1.9097,8.2031
		c-0.6514,2.3516-1.6968,4.9731-3.1753,5.2334c-1.2822,0.2266-2.0166-1.5215-2.4277-4.0928
		c2.8252-3.5693,4.3496-13.3076,3.8076-16.624c-0.3936-2.2344-1.0898-3.5195-2.041-3.3516c-0.248,0.043-0.5361,0.3496-0.6914,0.6768
		c-0.6934-0.3047-1.4326-0.3877-1.9287-0.2998c-2.6514,0.4673-3.7168,10.0605-3.019,17.2295
		c-0.6587,3.3667-2.9609,8.6924-7.2886,9.4551c-3.2676,0.5771-4.7686-2.6143-5.3008-5.6338
		c-1.1738-6.6602,1.7803-15.542,5.4062-16.2656c0.2637,0.7637,0.5479,1.6523,0.6865,2.4375
		c0.3574,2.0273,0.0205,4.4766-0.6855,5.0693c0.1982,0.3916,0.6982,0.8145,1.2783,0.7119c1.5312-0.2695,3.3438-4.2578,2.7822-7.4414
		c-0.4814-2.7305-2.8418-2.5703-4-2.3662c-1.0732-0.2803-2.1514-0.3467-2.9375-0.208c-4.7988,0.8457-7.8203,10.8057-6.4639,18.501
		c0.8389,4.7578,4.7295,8.6768,9.8594,7.7725c3.6333-0.6406,6.1465-4.6885,7.2686-8.2295c0.1411,0.5898,0.2988,1.1372,0.4775,1.6182
		c0.9717,2.6006,2.7373,3.9102,4.8477,3.5381c2.2451-0.3955,3.6045-2.5229,4.415-4.8208c1.0581,2.1348,3.0117,3.8105,5.8027,3.3179
		c2.6055-0.459,4.0547-2.8906,4.5723-5.7549c0.2959-0.1074,0.5835-0.2427,0.8613-0.3999c0.354,2.085,2.6611,4.812,6.1455,4.1978
		c2.3018-0.4902,3.6377-1.6211,4.3027-2.9336c0.9961-0.6572,1.8462-1.7251,2.5127-3.0264c1.0884,2.313,3.209,3.9365,6.0605,3.4346
		c6.4541-1.1387,7.29-11.3955,7.29-11.3955C76.7959,42.2959,76.3008,41.9141,75.6807,42.0234z M34.2422,35.7666
		c0.6592,1.8027,0.0674,10.7793-1.584,15.208C32.2266,44.6523,33.25,35.9404,34.2422,35.7666z M44.3643,56.46
		c-0.9102,0.1602-1.4717-0.8496-1.7412-2.3799c-0.1533-0.8691-0.2041-1.8828-0.1729-2.9131c1.1211,1.04,2.3838,1.6699,3.8301,1.8838
		C45.9248,54.9053,45.2734,56.2998,44.3643,56.46z M46.5498,50.9561c-1.4248-0.3457-2.6562-1.2793-3.7275-2.7549
		c0.2705-1.3701,0.7646-2.4385,1.376-2.8447c0.0684-0.0977,0.0605-0.1387,0.0459-0.2217c-0.043-0.248-0.4736-0.5137-1.0146-0.6738
		c0.3838-0.4932,0.8359-0.8291,1.249-0.9014c0.9512-0.168,1.5986,1.082,1.9121,2.8613
		C46.624,47.7441,46.6592,49.4014,46.5498,50.9561z M55.2246,54.5449c-1.5303,0.2695-2.0742-1.8525-1.7119-2.2148
		c0.2529-0.2578,1.4775-0.0898,3.9463,0.3721C56.9609,53.9834,55.7217,54.457,55.2246,54.5449z M52.8306,50.1396
		c0.6519-1.0381,1.061-2.2993,1.0669-3.7207c-0.0117-0.0674-0.0576-0.1289-0.1152-0.1875l0.4863-3.1621
		c0.6904,2.9492,2.6416,4.8242,3.2422,7.0205c0.1143,0.4072,0.1455,0.8271,0.1631,1.165
		C56.1426,50.9351,54.21,50.3135,52.8306,50.1396z M68.834,39.4775c1.3691,0.9941,1.1309,7.1367-2.0742,7.1045
		C66.7041,43.6064,67.6816,40.4482,68.834,39.4775z"/>
	<path fill="#808098" d="M76,28c-0.1162,0-0.2334-0.04-0.3281-0.123L45,1.1631L14.3281,27.877
		c-0.208,0.1826-0.5244,0.1602-0.7051-0.0488c-0.1816-0.208-0.1592-0.5234,0.0488-0.7051l31-27
		c0.1875-0.1641,0.4688-0.1641,0.6562,0l31,27c0.208,0.1816,0.2305,0.4971,0.0488,0.7051C76.2783,27.9424,76.1396,28,76,28z"/>
</g>
</svg>
