<?xml version="1.0" encoding="utf-8"?>
<!-- Generator: Adobe Illustrator 18.1.1, SVG Export Plug-In . SVG Version: 6.00 Build 0)  -->
<!DOCTYPE svg PUBLIC "-//W3C//DTD SVG 1.1//EN" "http://www.w3.org/Graphics/SVG/1.1/DTD/svg11.dtd">
<svg version="1.1" id="XMLID_2_" xmlns="http://www.w3.org/2000/svg" xmlns:xlink="http://www.w3.org/1999/xlink" x="0px" y="0px"
	 viewBox="0 0 106 74.4995" enable-background="new 0 0 106 74.4995" xml:space="preserve">
<g id="Antistatique-ouvert">
	<path fill="#EF2678" d="M102,16.4995H4c-2.2002,0-4,1.8-4,4v50c0,2.2,1.7998,4,4,4h98c2.2002,0,4-1.8,4-4v-50
		C106,18.2996,104.2002,16.4995,102,16.4995z M22,27.4995c-1.1045,0-2-0.8955-2-2s0.8955-2,2-2s2,0.8955,2,2
		S23.1045,27.4995,22,27.4995z M84,27.4995c-1.1045,0-2-0.8955-2-2s0.8955-2,2-2s2,0.8955,2,2S85.1045,27.4995,84,27.4995z"/>
	<path fill="#808098" d="M84,25.9995c-0.1104,0-0.2217-0.0361-0.3135-0.1104L53,1.1421L22.3135,25.8892
		c-0.2119,0.1719-0.5283,0.1396-0.7031-0.0762c-0.1729-0.2148-0.1396-0.5293,0.0762-0.7031l31-25
		c0.1816-0.1465,0.4453-0.1465,0.627,0l31,25c0.2158,0.1738,0.249,0.4883,0.0762,0.7031C84.29,25.936,84.1455,25.9995,84,25.9995z"
		/>
	<g>
		<path fill="#FFFFFF" d="M26.8828,35.6313c-1.3018-0.7568-2.7305-1.1348-3.7803-1.1348c-1.7227,0-3.2773,1.1768-4.1592,2.8145
			c-2.2686,0.5469-5.041,7.8135-5.041,14.1152c0,5.5029,2.8145,9.4092,7.8555,9.4092c7.3096,0,10.25-9.7031,10.25-16.8447
			c0-3.0664-0.6719-5.6289-1.9746-6.8057C29.6973,36.8071,28.4795,36.0093,26.8828,35.6313z M21.2119,58.5669
			c-2.5625,0-3.4863-2.7305-3.4863-5.9229c0-5.8809,2.9404-13.4424,4.7461-13.4424c-0.042-0.3359-0.3779-0.7139-0.8818-1.0498
			c0.5879-0.6729,1.4707-1.3447,2.7725-1.3447c2.6465,0,3.7812,3.2764,3.7812,7.3096
			C28.1436,50.5015,25.4121,58.5669,21.2119,58.5669z"/>
		<path fill="#FFFFFF" d="M93.8545,49.7876c-1.4277,4.0752-3.7803,8.0234-5.5029,8.0234c-1.9326,0-0.9238-6.0908,0.3779-11.2998
			c1.6807-0.126,3.2344-0.21,3.4443,0c0.5049-1.4707,0.085-2.9824-0.9658-2.9824c-0.3779,0-1.0078,0.084-1.7227,0.168
			c0.5889-2.1846,1.1768-3.8652,1.4287-4.3271c-0.6299-0.8398-2.5625-1.3438-3.6123-1.3438c-0.5049,0-1.3447,2.7725-2.1426,6.2168
			c-0.9658,0.084-1.8066,0.084-2.1426-0.084c-0.2939,0.3359-0.5459,2.6465,1.5547,2.6465h0.042
			c-0.3457,1.7883-0.6401,3.6118-0.8301,5.2271c-0.9639,2.2061-2.5059,5.2749-3.6367,5.2749c-0.3789,0-0.8828-0.4199-0.8828-1.4287
			c0-2.6885,2.1006-7.8135,2.6045-8.7373c-0.126-0.6719-2.7725-2.3525-3.5703-2.3525c-0.3359,0.126-2.0166,0.8398-3.1924,0.8398
			c0.4199-1.1338,1.1758-3.0664,1.4697-3.2764c-0.5879-0.8818-1.7637-1.5117-2.7725-1.5117c-1.3018,0-2.1846,2.3525-2.1846,3.7803
			c0,1.1768,0.6309,2.0586,1.9326,2.4785c-0.4199,1.3447-0.9238,3.0244-1.1338,3.6123c0.0215,0.4468,0.2256,0.7522,0.46,0.9136
			c-1.3042,2.8975-3.6436,6.48-6.2051,6.48c-1.8486,0-2.7725-1.8486-2.7725-3.6123v-0.5459
			c3.5283,1.8057,6.6787-3.1514,6.6787-7.0576c0-1.8486-0.7139-3.4443-2.4785-3.9072c-0.4199,0-1.0918,0.3369-1.4697,0.8828
			c-0.4209-0.168-0.8408-0.252-1.1768-0.252c-2.4834,0-4.8989,4.3503-5.4331,8.5488c-0.3242,0.1729-0.6758,0.2725-1.0532,0.2725
			c-0.5049,0-0.8828-0.168-1.1768-0.4199c0.7979-2.3945,1.2607-4.8311,1.2188-6.5537c-0.084-1.0078-1.0928-2.6045-2.3945-2.6045
			c-1.7646,0-3.5293,6.5537-1.8066,9.1162c-0.4619,1.6797-1.7227,5.5029-3.0244,5.5029c-2.1426,0,0.252-10.9219,0.8818-11.4678
			c-0.9658-0.8408-2.8145-1.4707-3.3604-1.4707c-1.2534,0-1.9478,4.7544-2.04,8.4153c-0.8652,2.0452-2.0488,4.3552-2.9854,4.3552
			c-0.3779,0-0.5889-0.4199-0.5889-1.4287c0-2.6885,1.4707-9.5352,1.9746-10.46c-0.6299-0.8818-2.7725-1.1338-3.3604-1.1338
			s-1.0498,1.0918-1.3867,2.6045c-0.8818,2.8564-3.1084,9.4512-4.4941,9.4512c-0.252,0-0.4199-0.21-0.4619-0.6719
			c-0.2949-2.2266,1.9316-9.9561,2.4355-10.8799c-0.5459-0.8398-2.4355-1.5957-3.4443-1.5957
			c-1.1758,0-3.0664,9.4092-2.6885,12.1816c0.2939,2.0166,1.5127,3.5703,3.7393,3.5703c1.8057,0,3.0664-2.0156,3.9482-4.4102
			c0,0.6719,0,1.2178,0.042,1.5537c0.21,2.6465,2.5625,3.6133,3.7803,3.6133c1.4414,0,2.6841-1.5405,3.6489-3.3633
			c0.3511,2.3247,2.1011,3.5312,3.688,3.5312c2.3525,0,4.4521-2.6465,5.8809-5.8389c0.4619,0.21,0.9658,0.2939,1.5537,0.2939
			c0.5044,0,0.9531-0.0923,1.3721-0.2256c0.103,3.3003,2.0254,6.4004,5.6611,6.4004c6.5537,0,9.1582-9.9561,9.1582-9.9561
			c-0.061-0.2144-0.3052-0.5144-0.6753-0.6631l0.7915-2.5713c0.7139,0.042,1.5537-0.042,2.5625-0.21
			c-1.1768,2.2266-1.9746,7.3936-1.8486,8.9893c0.21,2.6465,2.4365,3.6133,4.0742,3.6133c1.5176,0,2.8906-1.7029,3.9556-3.6501
			c0.0034,0.0371,0.0034,0.0854,0.0073,0.1208c0.252,2.1006,1.7646,4.0332,4.5371,4.0332c3.9062,0,6.8057-9.0732,6.8477-9.8301
			C94.9893,50.0815,94.1904,49.7036,93.8545,49.7876z M67.3018,46.0913c1.1758,1.2178-0.126,7.2246-3.2764,6.6367
			C64.4873,49.7876,65.999,46.8472,67.3018,46.0913z"/>
	</g>
</g>
</svg>
