<?xml version="1.0" encoding="utf-8"?>
<!-- Generator: Adobe Illustrator 18.1.1, SVG Export Plug-In . SVG Version: 6.00 Build 0)  -->
<!DOCTYPE svg PUBLIC "-//W3C//DTD SVG 1.1//EN" "http://www.w3.org/Graphics/SVG/1.1/DTD/svg11.dtd">
<svg version="1.1" id="XMLID_1_" xmlns="http://www.w3.org/2000/svg" xmlns:xlink="http://www.w3.org/1999/xlink" x="0px" y="0px"
	 viewBox="0 0 106 74.4995" enable-background="new 0 0 106 74.4995" xml:space="preserve">
<g id="Antistatique-closed">
	<path fill="#000032" d="M102,16.4995H4c-2.2002,0-4,1.8-4,4v50c0,2.2,1.7998,4,4,4h98c2.2002,0,4-1.8,4-4v-50
		C106,18.2996,104.2002,16.4995,102,16.4995z M22,27.4995c-1.1045,0-2-0.8955-2-2s0.8955-2,2-2s2,0.8955,2,2
		S23.1045,27.4995,22,27.4995z M84,27.4995c-1.1045,0-2-0.8955-2-2s0.8955-2,2-2s2,0.8955,2,2S85.1045,27.4995,84,27.4995z"/>
	<path fill="#808098" d="M84,25.9995c-0.1104,0-0.2217-0.0361-0.3135-0.1104L53,1.1421L22.3135,25.8892
		c-0.2129,0.1719-0.5283,0.1406-0.7031-0.0762c-0.1729-0.2148-0.1396-0.5293,0.0762-0.7031l31-25
		c0.1816-0.1465,0.4453-0.1465,0.627,0l31,25c0.2158,0.1738,0.249,0.4883,0.0762,0.7031C84.29,25.936,84.1455,25.9995,84,25.9995z"
		/>
	<path fill="#FFFFFF" d="M93.6641,49.8716c0,0-2.4775,7.0996-4.3262,7.0996c-0.3779,0-0.6719-0.4619-0.6719-0.9248
		c-0.1689-3.9902,2.9824-18.1885,4.0322-19.9531c-0.5039-0.7139-2.5625-1.3447-3.5703-1.3447c-0.7568,0-1.8906,4.873-2.7725,9.9561
		c-1.2188-0.7139-2.6045-1.2178-3.4033-1.2178c-3.7065,0-5.8335,5.6621-6.146,9.989c-1.3467,2.3767-3.2344,4.6292-5.2651,4.6292
		c-1.8486,0-2.7725-1.8486-2.7725-3.6123v-0.5459c3.5283,1.8057,6.6787-3.1514,6.6787-7.0576c0-1.8486-0.7139-3.4443-2.4785-3.9072
		c-0.4199,0-1.0918,0.3369-1.4697,0.8828c-0.4209-0.168-0.8408-0.252-1.1768-0.252c-2.751,0-5.4141,5.3347-5.5337,9.8906
		c-0.5171,0.8645-1.0894,1.634-1.7046,2.249c0.042-0.4199,0.042-0.8398,0-1.2598c-0.3359-2.8145-2.8145-5.8389-2.8145-7.2256
		c0-1.2598,1.3018-2.3945,2.2266-2.3525c0.3359-0.7979-1.9326-2.2266-3.4033-2.2266h-0.168
		c-1.5537,0.084-2.0996,1.3447-2.8145,3.5293c-0.6299,1.9736-1.3857,3.9902-1.5957,4.5361c0,0.1318,0.0234,0.2466,0.0562,0.3523
		c-0.7222,1.3953-1.7466,2.2798-2.894,2.6301c0.168-0.9658,0.2949-1.9736,0.2949-2.9404c0-2.1836-0.5049-3.9902-1.5547-4.9141
		c-0.5459-0.4629-2.9404-2.0586-4.7471-2.0586c-0.9238,0-1.8477,0.7139-2.1846,1.8057h-0.084c-1.4092,0-3.1616,3.9761-3.3042,7.7471
		c-1.0498,2.2026-2.5352,4.6035-4.0366,4.6035c-1.3018,0-1.7217-1.8486-1.6797-4.4531c3.4023-3.0244,6.5947-12.3496,6.6367-15.71
		c0-2.2686-0.4619-3.6553-1.4277-3.6553c-0.252,0-0.5889,0.252-0.7988,0.5459c-0.6299-0.4199-1.3438-0.6299-1.8477-0.6299
		c-2.6924,0-5.4067,9.2617-5.9644,16.4429c-1.2329,3.2014-4.4248,8.0474-8.8198,8.0474c-3.3184,0-4.2422-3.4023-4.2422-6.4688
		c0-6.7637,4.4521-14.9971,8.1494-15.0811c0.126,0.7988,0.252,1.7227,0.252,2.5205c0,2.0586-0.7568,4.4111-1.5547,4.873
		c0.126,0.4199,0.5459,0.9238,1.1348,0.9238c1.5537,0,4.0322-3.6123,4.0322-6.8467c0-2.7725-2.3525-3.0244-3.5283-3.0244
		c-1.0088-0.4619-2.0586-0.7148-2.8564-0.7148c-4.873,0-9.5781,9.2842-9.5781,17.0977c0,4.8311,3.1504,9.3672,8.3594,9.3672
		c3.689,0,6.8672-3.5496,8.5874-6.842c0.0366,0.6047,0.0967,1.1707,0.189,1.675c0.5049,2.7305,2.0166,4.3271,4.1592,4.3271
		c2.2798,0,3.9883-1.8589,5.1851-3.981c0.6719,2.2859,2.3047,4.2749,5.1382,4.2749c2.6465,0,4.4951-2.1426,5.5029-4.873
		c0.3101-0.0542,0.6162-0.1377,0.9175-0.2444c-0.0137,2.115,1.7842,5.2014,5.3228,5.2014c2.3525-0.084,3.8643-0.9658,4.7471-2.1426
		c1.0952-0.4746,2.1177-1.3789,3-2.5444c0.6699,2.4673,2.4766,4.4351,5.3721,4.4351c2.9014,0,5.0273-1.9517,6.4971-4.1265
		c0.582,2.6929,2.5796,3.8745,3.9072,3.8745c2.0576,0,3.2344-2.2686,4.0742-5.083c0,0.252-0.042,0.5039,0,0.6299
		c0.252,2.0166,1.8906,3.5713,4.1172,3.5713c3.4443,0,5.7969-8.6543,5.7549-8.9482C94.7568,50.0815,94.043,49.8716,93.6641,49.8716z
		 M72.1709,46.0913c1.1758,1.2178-0.126,7.2246-3.2764,6.6367C69.3564,49.7876,70.8682,46.8472,72.1709,46.0913z M38.749,36.4292
		c0.3359,1.8906-1.8057,10.6279-4.2002,14.7031C35.2207,44.8306,37.7412,36.4292,38.749,36.4292z M45.124,58.5669
		c-0.9238,0-1.3018-1.0918-1.3018-2.6465c0-0.8818,0.126-1.8896,0.3359-2.8984c0.9238,1.2188,2.0576,2.0586,3.4443,2.5205
		C46.9307,57.3071,46.0479,58.5669,45.124,58.5669z M48.2324,53.5259c-1.3438-0.5879-2.3945-1.7217-3.1924-3.3604
		c0.5039-1.3018,1.1758-2.2686,1.8486-2.5625c0.084-0.084,0.084-0.126,0.084-0.21c0-0.252-0.3779-0.5879-0.8828-0.8398
		c0.4629-0.4199,0.9668-0.6719,1.3867-0.6719c0.9658,0,1.3857,1.3438,1.3857,3.1504
		C48.8623,50.3755,48.6104,52.0142,48.2324,53.5259z M56.1523,58.5669c-1.5537,0-1.7217-2.1846-1.3018-2.4785
		c0.2939-0.21,1.4697,0.168,3.8223,1.0508C57.959,58.3149,56.6572,58.5669,56.1523,58.5669z M59.1348,55.7524
		c-1.4526-0.5811-3.248-1.5291-4.5757-1.9392c0.8218-0.9094,1.4443-2.0806,1.6968-3.4797c0-0.0684-0.0347-0.1372-0.0815-0.2048
		l1.0288-3.0295c0.168,3.0244,1.7637,5.209,1.9736,7.4775C59.2188,54.9966,59.1768,55.4165,59.1348,55.7524z M85.7246,48.4438
		c-0.9658,2.9404-3.1084,9.2412-4.4102,9.2412c-1.7646,0,0.3359-11.7617,3.1504-11.7617c0.6299,0,1.0498,0.7139,1.3018,2.1836
		C85.7666,48.1909,85.7246,48.3169,85.7246,48.4438z"/>
</g>
</svg>
