<?xml version="1.0" encoding="utf-8"?>
<!-- Generator: Adobe Illustrator 18.1.1, SVG Export Plug-In . SVG Version: 6.00 Build 0)  -->
<!DOCTYPE svg PUBLIC "-//W3C//DTD SVG 1.1//EN" "http://www.w3.org/Graphics/SVG/1.1/DTD/svg11.dtd">
<svg version="1.1" id="XMLID_2_" xmlns="http://www.w3.org/2000/svg" xmlns:xlink="http://www.w3.org/1999/xlink" x="0px" y="0px"
	 viewBox="0 0 106 74.4995" enable-background="new 0 0 106 74.4995" xml:space="preserve">
<g id="Antistatique-open">
	<path fill="#EF2678" d="M102,16.4995H4c-2.2002,0-4,1.8-4,4v50c0,2.2,1.7998,4,4,4h98c2.2002,0,4-1.8,4-4v-50
		C106,18.2996,104.2002,16.4995,102,16.4995z M22,27.4995c-1.1045,0-2-0.8955-2-2s0.8955-2,2-2s2,0.8955,2,2
		S23.1045,27.4995,22,27.4995z M84,27.4995c-1.1045,0-2-0.8955-2-2s0.8955-2,2-2s2,0.8955,2,2S85.1045,27.4995,84,27.4995z"/>
	<path fill="#808098" d="M84,25.9995c-0.1104,0-0.2217-0.0361-0.3135-0.1104L53,1.1421L22.3135,25.8892
		c-0.2129,0.1719-0.5283,0.1396-0.7031-0.0762c-0.1729-0.2148-0.1396-0.5293,0.0762-0.7031l31-25
		c0.1816-0.1465,0.4453-0.1465,0.627,0l31,25c0.2158,0.1738,0.249,0.4883,0.0762,0.7031C84.29,25.936,84.1455,25.9995,84,25.9995z"
		/>
	<g>
		<path fill="#FFFFFF" d="M38.9561,37.1851c-0.3359-0.3779-1.5537-1.1758-3.1504-1.5537c-1.3018-0.7568-2.7305-1.1348-3.7803-1.1348
			c-1.7227,0-3.2773,1.1768-4.1592,2.8145c-2.2686,0.5469-5.041,7.8135-5.041,14.1152c0,5.5029,2.8145,9.4092,7.8555,9.4092
			c7.3096,0,10.25-9.7031,10.25-16.8447C40.9307,40.9243,40.2588,38.3618,38.9561,37.1851z M30.1348,58.5669
			c-2.5625,0-3.4863-2.7305-3.4863-5.9229c0-5.8809,2.9404-13.4424,4.7461-13.4424c-0.042-0.3359-0.3779-0.7139-0.8818-1.0498
			c0.5879-0.6729,1.4707-1.3447,2.7725-1.3447c2.6465,0,3.7803,3.2764,3.7803,7.3096
			C37.0654,50.5015,34.335,58.5669,30.1348,58.5669z"/>
		<path fill="#FFFFFF" d="M84.9326,49.8716c0,0-2.6885,7.6035-4.4521,7.6035c-1.9746,0,1.0078-9.5361,1.7217-10.8379
			c0-0.7559-2.7725-3.1504-4.6201-3.1504c-0.8408,0-3.4873,3.8643-5.125,7.8975c0.5459-2.3945,1.3018-4.7471,1.6797-5.6289
			c-1.1758-1.0928-2.8564-1.3027-3.6543-1.3027c-0.6084,0-1.6299,4.8311-1.9517,8.4873c-1.3569,2.5625-3.3779,5.165-5.561,5.165
			c-1.8486,0-2.7725-1.8486-2.7725-3.6123v-0.5459c3.5283,1.8057,6.6787-3.1514,6.6787-7.0576c0-1.8486-0.7139-3.4443-2.4785-3.9072
			c-0.4199,0-1.0918,0.3369-1.4697,0.8828c-0.4209-0.168-0.8408-0.252-1.1768-0.252c-2.7051,0-5.3247,5.1582-5.5254,9.6621
			c-0.7212,0.8667-1.5298,1.4792-2.4102,1.8477c0.8398-2.3945,1.1338-5.125,0.9238-7.0576
			c-0.3779-3.0664-2.2686-4.4102-3.9062-4.4102c-1.9326,0-3.4443,3.1504-4.6211,6.6787c-0.042-0.084-0.084-0.126-0.042-0.21
			c0.6719-3.0244,1.1768-4.999,1.5547-5.5029c-0.2939-0.5459-2.5625-1.2598-3.7812-1.2598c-0.7559,0-4.2002,17.9365-3.8643,23.2295
			c0.126,1.6807,3.5283,2.1426,3.9062,1.6807c-0.3359-1.5967,0.126-5.7129,0.7148-9.4521c0.8398,0.9668,2.1416,1.6807,3.6123,1.6807
			c2.0166,0,3.5283-1.3867,4.5791-3.3184c1.2266-0.2417,2.4277-0.8159,3.4756-1.708c0.5283,2.7371,2.3862,5.0264,5.5098,5.0264
			c3.0059,0,5.1792-2.0952,6.6533-4.3628c0.3403,1.6501,1.811,2.8501,3.6328,2.8501c0.3779-5.4189,3.1504-10.0811,4.4521-11.9717
			c0.6729-0.9238,1.1348-0.8398,0.8828,0.042c-0.5889,2.1846-1.7646,6.3008-1.4707,9.0732c0.252,2.1006,1.9746,3.7393,4.2852,3.7393
			c3.1924,0,5.7129-8.6953,5.7549-9.4521C86.1094,50.1235,85.2686,49.7876,84.9326,49.8716z M63.5996,46.0913
			c1.1758,1.2178-0.126,7.2246-3.2764,6.6367C60.7852,49.7876,62.2969,46.8472,63.5996,46.0913z M47.0938,58.147
			c-0.7979,0-1.5117-0.8398-1.7637-2.3525h-0.042l0.4199-0.9658c0.7559,1.0498,1.7646,1.7227,2.9404,2.1006
			C48.1445,57.6851,47.6406,58.147,47.0938,58.147z M49.5303,55.0386c-1.0918-0.4619-2.1416-1.2598-2.9824-2.3945
			c1.3447-3.2344,2.9404-6.6367,3.8652-6.6367C51.5469,46.0073,50.917,51.4683,49.5303,55.0386z"/>
	</g>
</g>
</svg>
