<?xml version="1.0" encoding="utf-8"?>
<!-- Generator: Adobe Illustrator 18.1.1, SVG Export Plug-In . SVG Version: 6.00 Build 0)  -->
<!DOCTYPE svg PUBLIC "-//W3C//DTD SVG 1.1//EN" "http://www.w3.org/Graphics/SVG/1.1/DTD/svg11.dtd">
<svg version="1.1" id="XMLID_1_" xmlns="http://www.w3.org/2000/svg" xmlns:xlink="http://www.w3.org/1999/xlink" x="0px" y="0px"
	 viewBox="0 0 512 512" enable-background="new 0 0 512 512" xml:space="preserve">
<g id="AXA">
	<path fill="#404065" d="M282.8079,254.623h-12.8645L355.416,144.002H144v195.3195c0.1897-0.1936,0.324-0.3319,0.3911-0.3793
		c0.3042-0.2252,14.3936-17.7085,27.3333-34.9548c11.6279-15.0376,22.5408-29.6604,23.4968-31.0513
		c2.3193-3.3701,5.6619-10.6401,5.6619-10.6401h17.2107c0,0,0.5334,6.6892,1.0352,8.313
		c0.4465,1.4343,10.9365,35.8439,11.1816,36.2153l5.8-7.4163l-9.9133-30.5137c0,0-2.3232-5.741-3.0776-6.6023h20.1067
		c0,0-0.158,2.9514,0.656,5.4683c0.8179,2.5168,5.1284,18.0681,5.1284,18.0681s13.7139-17.1909,14.5161-18.4237
		c1.5093-2.0704,1.6948-5.1127,1.6948-5.1127h16.7524c0,0-3.0659,2.2402-8.4434,9.04
		c-1.8057,2.2876-19.4983,24.7729-19.4983,24.7729s1.5447,5.2628,2.2957,7.8823c0.2053,0.7507,0.3477,1.2604,0.3477,1.3157
		c0,0.0237,0.3911-0.4543,1.0627-1.3157c4.5635-5.7843,25.3262-33.007,26.5864-35.3381c1.0154-1.8845,2.509-4.0261,3.3821-6.3533
		h16.3455c0,0,0.3792,4.8796,0.8772,6.2308l10.2292,35.4606c3.9036,10.9246,11.948,39.3484,15.1482,41.6123h-21.1221
		c0,0-0.0791-4.2-0.9919-7.4556c-0.9087-3.2478-8.55-27.8271-8.55-27.8271H266.095l-5.2747,7.4792
		c0,0,6.3374,19.8342,6.7285,20.8062c0.6836,1.7502,3.7061,6.9973,3.7061,6.9973h-20.2412c0,0-0.5254-3.0305-0.7229-4.2908
		c-0.158-1.0194-1.9163-6.5983-1.9163-6.5983s-4.5872,5.0258-5.8396,7.3568c-1.2605,2.3271-1.8215,3.5322-1.8215,3.5322h-15.8357
		c0,0-0.5295-3.0305-0.7268-4.2908c-0.1543-1.0194-2.0903-7.0447-2.0903-7.0447s-4.4331,5.3812-5.6934,7.7084
		c-1.2524,2.3312-1.7937,3.6271-1.7937,3.6271h-15.6619c0,0,4.425-4.2118,5.9739-6.0214
		c2.6077-3.066,12.3274-15.7687,12.3274-15.7687l-3.896-13.4888h-33.2954c0,0-18.9846,24.9429-19.7314,25.7173
		c-0.7544,0.7585-6.29,8.7002-6.4124,9.5654H144v22.3945h223.9961v-223.991L282.8079,254.623z"/>
	<path fill="#404065" d="M204.3323,278.2186c-2.3982,5.1639-16.5271,22.359-16.5271,22.359h22.3706
		c0,0-4.3342-13.3546-5.0889-16.3652c-0.6006-2.3943-0.4385-5.4802-0.4385-5.8477
		C204.6484,278.0923,204.593,277.6458,204.3323,278.2186z"/>
	<path fill="#404065" d="M240.1367,310.7751l-5.9543,7.7244l3.8286,11.861l6.1597-8.4591
		C243.6016,321.2928,240.1367,310.7751,240.1367,310.7751z"/>
	<path fill="#404065" d="M290.2871,278.2186c-2.3982,5.1639-16.5271,22.359-16.5271,22.359h22.3708
		c0,0-4.3384-13.3546-5.093-16.3652c-0.6006-2.3943-0.4385-5.4802-0.4385-5.8477
		C290.5991,278.0923,290.5479,277.6458,290.2871,278.2186z"/>
	<rect fill="none" width="512" height="512"/>
</g>
</svg>
