<?xml version="1.0" encoding="utf-8"?>
<!-- Generator: Adobe Illustrator 18.1.1, SVG Export Plug-In . SVG Version: 6.00 Build 0)  -->
<!DOCTYPE svg PUBLIC "-//W3C//DTD SVG 1.1//EN" "http://www.w3.org/Graphics/SVG/1.1/DTD/svg11.dtd">
<svg version="1.1" id="XMLID_1_" xmlns="http://www.w3.org/2000/svg" xmlns:xlink="http://www.w3.org/1999/xlink" x="0px" y="0px"
	 viewBox="0 0 512 512" enable-background="new 0 0 512 512" xml:space="preserve">
<g id="Canton-de-Vaud">
	<g>
		<g>
			<g>
				<path fill="#404065" d="M203.5403,286.3737c0,3.0106-1.5554,5.234-4.2684,6.1004c-1.0595,0.3407-2.4307,0.5067-4.1956,0.5067
					c-1.7635,0-3.1853-0.1698-4.2315-0.5067c-2.7116-0.8664-4.2674-3.0898-4.2674-6.1004c0-2.3121,1.0332-4.2874,2.7633-5.2856
					c0.1814-0.1088,0.3752-0.1574,0.6269-0.1574c0.5517,0,0.9854,0.4313,0.9854,0.9819c0,0.396-0.1952,0.7271-0.5834,0.9847
					c-1.1495,0.8159-1.6879,1.9218-1.6879,3.4763c0,2.023,0.9844,3.4,2.8427,3.9858c0.9083,0.3006,1.9363,0.4227,3.552,0.4227
					c1.5917,0,2.6086-0.1222,3.5126-0.4218c1.8631-0.5868,2.8451-1.9638,2.8451-3.9868c0-1.5554-0.536-2.6614-1.6898-3.4801
					c-0.3824-0.2509-0.58-0.583-0.58-0.981c0-0.5506,0.434-0.9819,0.9868-0.9819c0.2517,0,0.447,0.0487,0.6293,0.1593
					C202.5071,282.0863,203.5403,284.0616,203.5403,286.3737"/>
				<path fill="#404065" d="M203.5407,273.7587c0,3.4085-1.921,5.61-4.8929,5.61c-3.1763,0-4.9259-2.2043-4.9259-6.2083v-4.0622
					l-1.1495-0.0153c-2.7867,0-3.9238,1.1432-3.9238,3.9438c0,1.3961,0.5049,2.7415,0.9772,3.5345
					c0.1412,0.2137,0.2244,0.481,0.2244,0.7262c0,0.5983-0.4183,1.0163-1.0184,1.0163c-0.3211,0-0.6389-0.1565-0.8729-0.4304
					c-0.8676-1.1384-1.3811-2.9848-1.3811-4.9458c0-4.0546,1.8621-5.942,5.861-5.942h6.4435c0.8916,0,1.1926-0.1011,1.6199-0.314
					l1.1988-0.6298c0.1469-0.0754,0.3771-0.1555,0.5867-0.1555c0.6197,0,1.0509,0.459,1.0509,1.1155
					c0,0.437-0.2087,0.7624-0.6566,1.0239l-1.1026,0.6651C202.9526,269.9789,203.5407,271.5067,203.5407,273.7587
					 M195.7272,272.8951c0,3.0182,0.8744,4.3083,2.9207,4.3083c2.3306,0,2.8197-2.0354,2.8197-3.7444
					c0-2.6995-1.285-4.3761-3.3528-4.3761h-2.3708L195.7272,272.8951z"/>
				<path fill="#404065" d="M203.3388,251.6573c0,0.667-0.4413,1.083-1.1514,1.083h-8.9143c-3.0891,0-4.5918,1.2988-4.5918,3.9776
					c0,2.44,1.7506,4.1433,4.2578,4.1433h9.2483c0.7102,0,1.1514,0.4142,1.1514,1.0831c0,0.666-0.4413,1.0811-1.1514,1.0811h-14.256
					c-0.7121,0-1.1543-0.4151-1.1543-1.0811c0-0.6689,0.4422-1.0831,1.1543-1.0831h0.5685
					c-1.2591-0.9943-1.9229-2.5535-1.9229-4.5431c0-3.5958,2.3416-5.7438,6.2621-5.7438h9.3483
					C202.8975,250.5742,203.3388,250.9902,203.3388,251.6573"/>
				<path fill="#404065" d="M203.3062,241.5385v0.4332c0,3.0536-1.2495,4.2435-4.4564,4.2435h-9.9504l-0.0163,1.3159
					c0,0.6365-0.3862,1.0478-0.9863,1.0478c-0.5987,0-0.9858-0.4113-0.9858-1.0478v-1.2987l-4.087-0.0172
					c-0.7126,0-1.1557-0.4151-1.1557-1.0812c0-0.668,0.4431-1.0831,1.1557-1.0831h4.0712l0.0158-2.545
					c0-0.6374,0.3871-1.0496,0.9858-1.0496c0.6001,0,0.9863,0.4122,0.9863,1.0496v2.5307l9.9001,0.0143
					c1.921,0,2.4177-0.5162,2.4177-2.5125c0-0.667,0.4236-1.1145,1.0538-1.1145
					C202.8837,240.424,203.3062,240.8715,203.3062,241.5385"/>
				<path fill="#404065" d="M203.5403,232.4198c0,2.9867-1.5554,5.2101-4.2665,6.0995c-1.2342,0.3846-2.4594,0.541-4.23,0.541
					c-1.7506,0-2.9652-0.1565-4.1971-0.5401c-2.714-0.8893-4.2693-3.1127-4.2693-6.1004c0-3.0078,1.5553-5.2426,4.2684-6.1339
					c1.239-0.3846,2.455-0.542,4.198-0.542c1.7649,0,2.9891,0.1575,4.2272,0.541
					C201.9849,227.1772,203.5403,229.412,203.5403,232.4198 M188.6817,232.4198c0,1.9533,1.038,3.419,2.8451,4.0192
					c0.9174,0.3044,1.9028,0.4227,3.517,0.4227c1.6367,0,2.6302-0.1183,3.5448-0.4227c1.8094-0.6002,2.8456-2.0659,2.8456-4.0192
					c0-2.0049-1.0098-3.4439-2.8446-4.0527c-0.9203-0.3054-1.9142-0.4246-3.5457-0.4246c-1.6094,0-2.5958,0.1193-3.517,0.4246
					C189.692,228.9759,188.6817,230.4149,188.6817,232.4198"/>
				<path fill="#404065" d="M203.3388,211.3511c0,0.667-0.4413,1.0821-1.1514,1.0821h-8.9143c-3.0891,0-4.5918,1.3016-4.5918,3.9782
					c0,2.439,1.7506,4.1433,4.2578,4.1433h9.2483c0.7102,0,1.1514,0.4151,1.1514,1.0831c0,0.667-0.4413,1.0812-1.1514,1.0812
					h-14.256c-0.7121,0-1.1543-0.4142-1.1543-1.0812c0-0.668,0.4422-1.0831,1.1543-1.0831h0.5685
					c-1.2591-0.9943-1.9229-2.5536-1.9229-4.5431c0-3.5966,2.3416-5.7426,6.2621-5.7426h9.3483
					C202.8975,210.2691,203.3388,210.6841,203.3388,211.3511"/>
				<path fill="#404065" d="M203.5403,195.3323c0,2.7625-1.4448,4.7626-4.0664,5.6348c-1.3529,0.4132-2.5948,0.5745-4.4301,0.5745
					c-1.7918,0-3.0652-0.1661-4.3961-0.5735c-2.6264-0.8732-4.0702-2.8732-4.0702-5.6358c0-2.1451,0.638-3.6595,1.9454-4.609
					h-7.3685c-0.7126,0-1.1543-0.4151-1.1543-1.0831c0-0.667,0.4417-1.0811,1.1543-1.0811h21.033
					c0.7107,0,1.1519,0.4142,1.1519,1.0811c0,0.668-0.4413,1.0831-1.1519,1.0831h-0.5939
					C202.9019,191.6728,203.5403,193.1881,203.5403,195.3323 M188.6817,195.0327c0,1.919,0.9763,3.2998,2.7465,3.8866
					c0.9428,0.3054,1.9559,0.4237,3.6156,0.4237c1.7023,0,2.69-0.1145,3.6467-0.4237c1.7702-0.5869,2.7436-1.9677,2.7436-3.8866
					c0-1.9781-0.9136-3.3341-2.6436-3.92c-0.8351-0.2548-2.1315-0.3893-3.7467-0.3893c-1.5721,0-2.8934,0.1384-3.7199,0.3913
					C189.5972,191.6986,188.6817,193.0546,188.6817,195.0327"/>
				<path fill="#404065" d="M203.5407,178.7915c0,3.1548-1.4879,5.3113-4.3009,6.2341c-1.1036,0.3645-2.2804,0.5077-4.1966,0.5077
					c-1.8817,0-3.059-0.1431-4.1971-0.5077c-2.714-0.8788-4.2693-3.0784-4.2693-6.0327c0-2.9763,1.5553-5.1882,4.2684-6.067
					c1.0447-0.3455,2.2741-0.5077,3.8635-0.5077c0.6001,0,1.0184,0.418,1.0184,1.0163v9.885
					c1.3505,0.0153,1.9836-0.0592,2.7298-0.3073c1.9483-0.647,2.9777-2.1413,2.9777-4.3189c0-1.732-0.5226-2.9763-1.7477-4.1634
					c-0.2546-0.2558-0.3891-0.5306-0.3891-0.7968c0-0.5611,0.4097-0.9838,0.9529-0.9838c0.2752,0,0.5154,0.0821,0.7164,0.2415
					C202.6253,174.299,203.5407,176.3582,203.5407,178.7915 M188.6147,178.9929c0,2.0182,1.0213,3.4572,2.8786,4.0517
					c0.6331,0.2004,1.3161,0.2901,2.2129,0.2901l0.0148-8.7027c-0.9116-0.0153-1.5946,0.0744-2.2277,0.2748
					C189.636,175.5023,188.6147,176.9527,188.6147,178.9929"/>
			</g>
			<path fill="#404065" d="M254.6113,277.2397l-39.3883,15.0952c-0.5743,0.1927-0.9595,0.2872-1.4366,0.2872
				c-1.2467,0-2.4924-0.8597-2.4924-2.5793c0-1.3369,0.8624-2.1012,1.9157-2.4857l36.034-13.7563v-0.0954l-36.034-13.4729
				c-1.0533-0.3807-1.9157-1.1461-1.9157-2.4829c0-1.7205,1.2457-2.5803,2.4924-2.5803c0.4771,0,0.8624,0.0945,1.4366,0.2863
				l39.3883,15.0951c2.3957,0.8607,3.1624,1.7205,3.1624,3.3456C257.7737,275.5202,257.007,276.3809,254.6113,277.2397"/>
			<path fill="#404065" d="M255.2823,215.175c1.4367,0,2.4914,1.0516,2.4914,2.6757c0,1.0516-0.4795,1.815-1.63,2.4839
				l-3.6409,2.1967v0.1918c3.7386,3.3446,5.8461,7.3572,5.8461,14.5235c0,8.7886-4.7914,15.5723-13.5137,15.5723
				c-9.0066,0-13.6076-6.3047-13.6076-17.2918v-11.6579c0-0.3817-0.1914-0.5726-0.5743-0.5726h-3.259
				c-7.5709,0-11.7883,2.8665-11.7883,11.8459c0,3.9191,1.3415,7.8353,2.8762,10.4155c0.3824,0.5735,0.5738,1.2434,0.5738,1.8149
				c0,1.4342-0.9576,2.3875-2.3967,2.3875c-0.7653,0-1.5319-0.3817-2.1071-1.0497c-2.1081-2.7711-3.8333-7.6425-3.8333-13.8527
				c0-11.2763,5.079-16.5303,16.2916-16.5303h18.4967c2.5881,0,3.5471-0.2872,4.8862-0.9552l3.4514-1.8149
				C254.2275,215.3659,254.8018,215.175,255.2823,215.175 M243.3038,223.2965h-6.8053c-0.3819,0-0.5752,0.1908-0.5752,0.5726
				v10.8917c0,9.0777,2.7786,12.8994,8.9119,12.8994c5.6557,0,8.6247-3.9171,8.6247-11.2743
				C253.4599,228.5516,249.6275,223.2965,243.3038,223.2965"/>
			<path fill="#404065" d="M254.9951,177.7266h-3.1633v0.0955c4.1214,2.5783,6.5171,6.8781,6.5171,13.2801
				c0,10.0338-6.3257,15.764-17.4409,15.764h-26.8345c-1.82,0-2.7795-1.0506-2.7795-2.5783c0-1.5297,0.9595-2.5803,2.7795-2.5803
				h25.5864c9.1062,0,13.7052-3.8217,13.7052-11.7514c0-6.881-4.8871-12.2296-12.7452-12.2296h-26.5464
				c-1.82,0-2.7795-1.0515-2.7795-2.5802c0-1.5306,0.9595-2.5812,2.7795-2.5812h40.9216c1.8185,0,2.7786,1.0506,2.7786,2.5812
				C257.7737,176.675,256.8137,177.7266,254.9951,177.7266"/>
			<path fill="#404065" d="M254.9951,133.2142h-3.3548v0.0945c3.929,2.1967,6.7085,6.2102,6.7085,13.6628
				c0,7.7398-4.1214,13.2802-11.3076,15.6696c-3.7376,1.147-7.2847,1.6232-12.5547,1.6232c-5.1753,0-8.7224-0.4762-12.459-1.6232
				c-7.1874-2.3894-11.3088-7.9297-11.3088-15.6696c0-7.4526,2.7786-11.4661,6.7085-13.6628v-0.0945h-22.808
				c-1.8229,0-2.7795-1.0515-2.7795-2.5812c0-1.5277,0.9566-2.5783,2.7795-2.5783h60.3758c1.8185,0,2.7786,1.0506,2.7786,2.5783
				C257.7737,132.1626,256.8137,133.2142,254.9951,133.2142 M245.4113,134.3593c-2.4914-0.7634-6.3257-1.1451-10.9247-1.1451
				c-4.5043,0-8.3395,0.3817-10.83,1.1451c-5.3664,1.8159-7.9541,6.0203-7.9541,11.7524c0,5.8284,3.0667,9.9374,8.2422,11.657
				c2.9709,0.9552,6.0376,1.2415,10.5419,1.2415c4.599,0,7.6647-0.2863,10.6366-1.2415c5.1752-1.7195,8.2419-5.8285,8.2419-11.657
				C253.3651,140.3795,250.779,136.1752,245.4113,134.3593"/>
		</g>
		<g>
			<path fill="#404065" d="M258.1838,301.3624c-0.0168-0.635-0.5384-1.1413-1.1758-1.1413h-68.6948
				c-0.6372,0-1.1584,0.5057-1.1756,1.1408c-0.001,0.0324-0.0876,3.3217,0.0247,8.101c0.1017,4.3957,0.401,11.0086,1.249,17.5441
				c0.3142,2.5173,0.7793,5.0155,1.3953,7.5858h-0.0235l0.3807,1.4633l0.0009,0.0038l0.0002,0.001
				c1.5307,5.8839,3.8422,11.6589,6.8699,17.1658c4.219,7.6778,9.9147,15.1852,17.4091,22.9475
				c0.4659,0.4862,0.9071,0.9509,1.3256,1.3918c1.2763,1.3445,2.3787,2.5059,3.3143,3.3709c1.4688,1.376,2.5273,1.991,3.54,2.0578
				L222.7014,383l0.0775-0.0057c1.0122-0.0668,2.0276-0.6642,3.5021-2.0583c0.783-0.7338,1.6826-1.6699,2.725-2.7539
				c0.5906-0.6145,1.2328-1.2825,1.9439-2.0068c7.492-7.8095,13.1764-15.3156,17.3777-22.9476
				c3.0408-5.515,5.3638-11.2906,6.9038-17.1658l0.3848-1.4691h-0.0244c0.6145-2.5516,1.0926-5.0971,1.4084-7.5886
				c0.6346-5.193,1.0289-11.0949,1.1725-17.5447C258.2705,304.6817,258.1848,301.3954,258.1838,301.3624z M217.4778,375.9539
				c-0.4207-0.4427-0.8641-0.9103-1.3357-1.4027c-7.3513-7.6138-12.9266-14.9577-17.0444-22.4518
				c-1.725-3.1371-3.2064-6.3643-4.4382-9.6478l27.7581,38.0904c-0.3316-0.156-0.8705-0.5153-1.7291-1.3197
				C219.8041,378.4044,218.7259,377.2688,217.4778,375.9539z M224.6655,379.2317c-0.3283,0.3102-0.604,0.5492-0.8447,0.7424
				l-30.7137-42.1469c-0.0883-0.2968-0.1821-0.5926-0.2663-0.8893h3.9319l29.5884,40.6019
				C225.7346,378.1859,225.166,378.7622,224.6655,379.2317z M227.3961,376.4673l-28.8069-39.5294h4.3134l26.9496,36.9806
				c-0.1981,0.209-0.3924,0.417-0.5934,0.626C228.5849,375.232,227.9685,375.8728,227.3961,376.4673z M245.8162,336.9379
				l4.5981,6.3099c-0.491,1.2572-1.0193,2.5053-1.584,3.7439l-7.3264-10.0539H245.8162z M239.6862,336.9379l8.4338,11.5735
				c-0.5638,1.1651-1.16,2.3202-1.7884,3.4644l-10.9587-15.0379H239.6862z M233.5558,336.9379l11.9857,16.4473
				c-0.6203,1.0797-1.273,2.1575-1.9564,3.2349l-14.3427-19.6822H233.5558z M227.4253,336.9379l15.306,21.0042
				c-0.6681,1.0144-1.3672,2.0292-2.0942,3.045l-17.5256-24.0493H227.4253z M221.2949,336.9379l18.4349,25.2979
				c-0.7097,0.9604-1.4463,1.9218-2.2101,2.8857l-20.5387-28.1835H221.2949z M215.164,336.9379l21.4039,29.3706
				c-0.7446,0.9141-1.5137,1.8312-2.3081,2.751l-23.4091-32.1216H215.164z M209.0335,336.9379l24.2356,33.2567
				c-0.7738,0.8755-1.5731,1.7539-2.3933,2.6361l-26.1556-35.8928H209.0335z M251.0331,341.6027l-3.3993-4.6648h4.9192
				C252.1055,338.5028,251.594,340.0573,251.0331,341.6027z M255.8211,309.41c-0.1416,6.3705-0.5302,12.1942-1.1553,17.3051
				c-0.3264,2.5802-0.826,5.2264-1.4864,7.8777h-60.9609c-0.6642-2.6809-1.1474-5.2669-1.4735-7.881
				c-0.8358-6.4397-1.1308-12.9638-1.2311-17.3033c-0.072-3.0626-0.0615-5.5007-0.045-6.8423h66.3838
				C255.8699,303.9088,255.8834,306.3478,255.8211,309.41z"/>
			<g>
				<path fill="#404065" d="M201.7035,307.8765c0-0.3225,0.1941-0.5162,0.4745-0.5162c0.2804,0,0.4853,0.1937,0.4853,0.5162v5.8905
					c0,0.0435,0.0215,0.0649,0.0646,0.0649h3.181c0.291,0,0.4743,0.1937,0.4743,0.4408c0,0.2576-0.1833,0.4514-0.4743,0.4514
					h-3.7417c-0.2912,0-0.4637-0.1827-0.4637-0.4733V307.8765z"/>
				<path fill="#404065" d="M208.1506,307.8765c0-0.3225,0.1941-0.5162,0.4853-0.5162c0.2805,0,0.4745,0.1937,0.4745,0.5162v6.3853
					c0,0.3226-0.1941,0.5158-0.4745,0.5158c-0.2912,0-0.4853-0.1932-0.4853-0.5158V307.8765z"/>
				<path fill="#404065" d="M211.568,307.8441c0-0.2581,0.1618-0.4299,0.4314-0.4299h2.2751c1.4663,0,2.2105,0.7524,2.2105,1.9137
					c0,0.8493-0.3881,1.376-0.9921,1.6012v0.022c0.5283,0.1393,1.1213,0.731,1.1213,1.6876c0,1.376-0.8842,2.0855-2.3721,2.0855
					h-2.2428c-0.2697,0-0.4314-0.1613-0.4314-0.4299V307.8441z M214.253,310.5747c0.8088,0,1.2831-0.4623,1.2831-1.1398
					c0-0.6985-0.4743-1.1499-1.2831-1.1499h-1.6606c-0.0431,0-0.0646,0.0215-0.0646,0.0644v2.1609
					c0,0.0429,0.0215,0.0645,0.0646,0.0645H214.253z M212.5924,313.8534h1.7145c0.8734,0,1.3479-0.4728,1.3479-1.2038
					c0-0.7205-0.4745-1.2042-1.3479-1.2042h-1.7145c-0.0431,0-0.0646,0.0215-0.0646,0.0644v2.2792
					C212.5278,313.832,212.5493,313.8534,212.5924,313.8534z"/>
				<path fill="#404065" d="M218.7267,307.8441c0-0.2581,0.1618-0.4299,0.4314-0.4299h3.774c0.2909,0,0.4742,0.1932,0.4742,0.4404
					c0,0.2586-0.1833,0.4518-0.4742,0.4518h-3.1811c-0.043,0-0.0646,0.0215-0.0646,0.0644v2.1499
					c0,0.0429,0.0216,0.0649,0.0646,0.0649h2.6527c0.291,0,0.4743,0.1932,0.4743,0.4404c0,0.2581-0.1833,0.4518-0.4743,0.4518
					h-2.6527c-0.043,0-0.0646,0.021-0.0646,0.0644v2.2248c0,0.0435,0.0216,0.0649,0.0646,0.0649h3.1811
					c0.2909,0,0.4742,0.1937,0.4742,0.4408c0,0.2576-0.1833,0.4514-0.4742,0.4514h-3.774c-0.2697,0-0.4314-0.1717-0.4314-0.4299
					V307.8441z"/>
				<path fill="#404065" d="M225.4431,314.2618v-6.4177c0-0.2581,0.1618-0.4299,0.4312-0.4299h2.2971
					c1.4233,0,2.3181,0.8278,2.3181,2.107c0,0.9781-0.5178,1.6876-1.3912,1.9672l1.3155,2.5802
					c0.0431,0.0859,0.0647,0.1613,0.0647,0.2577c0,0.2366-0.1728,0.4513-0.4637,0.4513c-0.1938,0-0.3446-0.0964-0.4632-0.3006
					l-1.4453-2.8489h-1.6386c-0.0431,0-0.0651,0.0215-0.0651,0.0644v2.5693c0,0.3226-0.1938,0.5158-0.4743,0.5158
					C225.6369,314.7776,225.4431,314.5844,225.4431,314.2618z M229.5406,309.5212c0-0.7634-0.5068-1.2148-1.3587-1.2148h-1.7142
					c-0.0431,0-0.0651,0.0215-0.0651,0.0644v2.3007c0,0.0429,0.022,0.0644,0.0651,0.0644h1.7142
					C229.0338,310.7359,229.5406,310.2841,229.5406,309.5212z"/>
				<path fill="#404065" d="M236.9149,307.4142c0.291,0,0.4747,0.1932,0.4747,0.4513c0,0.2477-0.1838,0.4409-0.4747,0.4409h-1.6927
					c-0.0431,0-0.0646,0.0215-0.0646,0.0644v5.891c0,0.3226-0.1943,0.5158-0.4747,0.5158c-0.291,0-0.4853-0.1932-0.4853-0.5158
					v-5.891c0-0.0429-0.021-0.0644-0.0641-0.0644h-1.6932c-0.291,0-0.4748-0.1932-0.4748-0.4409
					c0-0.2581,0.1838-0.4513,0.4748-0.4513H236.9149z"/>
				<path fill="#404065" d="M239.1244,307.8441c0-0.2581,0.1618-0.4299,0.4312-0.4299h3.774c0.291,0,0.4748,0.1932,0.4748,0.4404
					c0,0.2586-0.1838,0.4518-0.4748,0.4518h-3.1805c-0.0431,0-0.0651,0.0215-0.0651,0.0644v2.1499
					c0,0.0429,0.022,0.0649,0.0651,0.0649h2.6522c0.2909,0,0.4747,0.1932,0.4747,0.4404c0,0.2581-0.1838,0.4518-0.4747,0.4518
					h-2.6522c-0.0431,0-0.0651,0.021-0.0651,0.0644v2.2248c0,0.0435,0.022,0.0649,0.0651,0.0649h3.1805
					c0.291,0,0.4748,0.1937,0.4748,0.4408c0,0.2576-0.1838,0.4514-0.4748,0.4514h-3.774c-0.2694,0-0.4312-0.1717-0.4312-0.4299
					V307.8441z M241.8417,305.1565c0.0751-0.0859,0.1617-0.1398,0.2914-0.1398c0.2048,0,0.3666,0.1508,0.3666,0.3549
					c0,0.1074-0.043,0.2042-0.1082,0.2796l-0.7437,0.8168c-0.0977,0.1078-0.1943,0.1613-0.3235,0.1613
					c-0.1838,0-0.3455-0.1508-0.3455-0.344c0-0.1074,0.0431-0.2042,0.1187-0.2906L241.8417,305.1565z"/>
				<path fill="#404065" d="M218.7259,317.1131c0-0.1761,0.1103-0.2935,0.2941-0.2935h2.6285c0.1981,0,0.323,0.1598,0.323,0.3283
					c0,0.176-0.1249,0.3359-0.323,0.3359h-2.1689c-0.0292,0-0.044,0.0143-0.044,0.0439v1.2715c0,0.0291,0.0148,0.0439,0.044,0.0439
					h1.808c0.1991,0,0.3235,0.1598,0.3235,0.3283c0,0.176-0.1244,0.3354-0.3235,0.3354h-1.808c-0.0292,0-0.044,0.0143-0.044,0.0439
					v1.3231c0,0.0291,0.0148,0.0439,0.044,0.0439h2.1689c0.1981,0,0.323,0.1598,0.323,0.3283c0,0.176-0.1249,0.3354-0.323,0.3354
					H219.02c-0.1838,0-0.2941-0.1174-0.2941-0.2929V317.1131z"/>
				<path fill="#404065" d="M226.528,316.8197c0.1986,0,0.3513,0.1598,0.3513,0.3359c0,0.1684-0.1526,0.3283-0.3513,0.3283h-1.1543
					c-0.0292,0-0.0441,0.0143-0.0441,0.0439v3.711c0,0.2195-0.1598,0.3793-0.3513,0.3793c-0.1981,0-0.3579-0.1599-0.3579-0.3793
					v-3.711c0-0.0295-0.0148-0.0439-0.0441-0.0439h-1.1543c-0.1986,0-0.3513-0.1599-0.3513-0.3283
					c0-0.1761,0.1526-0.3359,0.3513-0.3359H226.528z"/>
				<path fill="#404065" d="M205.4981,324.0776c0-0.2581,0.1617-0.4299,0.4314-0.4299h2.2643c1.4663,0,2.3507,0.8813,2.3507,2.1819
					c0,1.3011-0.8844,2.1823-2.3507,2.1823h-1.6714c-0.0431,0-0.0646,0.0219-0.0646,0.0649v2.4185
					c0,0.3225-0.1941,0.5158-0.4745,0.5158c-0.2912,0-0.4852-0.1932-0.4852-0.5158V324.0776z M209.5956,325.8296
					c0-0.7949-0.5283-1.2897-1.434-1.2897h-1.6391c-0.0431,0-0.0646,0.0215-0.0646,0.0645v2.451
					c0,0.0434,0.0215,0.0644,0.0646,0.0644h1.6391C209.0673,327.1197,209.5956,326.6254,209.5956,325.8296z"/>
				<path fill="#404065" d="M211.3199,330.3556l2.2536-6.2245c0.1187-0.3435,0.302-0.5372,0.6255-0.5372
					c0.3235,0,0.5283,0.1937,0.647,0.5372l2.2213,6.2245c0.0215,0.0649,0.0431,0.1398,0.0431,0.2151
					c0,0.2686-0.2048,0.4404-0.453,0.4404c-0.2156,0-0.3881-0.1178-0.4635-0.3436l-0.4961-1.4084h-3.0085l-0.496,1.4084
					c-0.0754,0.2257-0.2479,0.3436-0.4635,0.3436c-0.2482,0-0.453-0.1718-0.453-0.4404
					C211.2768,330.4954,211.2983,330.4205,211.3199,330.3556z M215.3851,328.3774l-1.1646-3.3217h-0.0323l-1.1861,3.3217H215.3851z"
					/>
				<path fill="#404065" d="M222.4037,323.6477c0.291,0,0.4748,0.1932,0.4748,0.4514c0,0.2476-0.1838,0.4408-0.4748,0.4408h-1.6927
					c-0.0431,0-0.0646,0.0215-0.0646,0.0645v5.891c0,0.3225-0.1943,0.5158-0.4748,0.5158c-0.291,0-0.4853-0.1932-0.4853-0.5158
					v-5.891c0-0.0429-0.0211-0.0645-0.0641-0.0645h-1.6931c-0.2912,0-0.4745-0.1932-0.4745-0.4408
					c0-0.2581,0.1833-0.4514,0.4745-0.4514H222.4037z"/>
				<path fill="#404065" d="M224.6128,330.4954v-6.4177c0-0.2581,0.1618-0.4299,0.4317-0.4299h2.2966
					c1.4233,0,2.3187,0.8278,2.3187,2.107c0,0.9781-0.5178,1.6876-1.3917,1.9671l1.3161,2.5803
					c0.0431,0.0859,0.0641,0.1613,0.0641,0.2576c0,0.2367-0.1723,0.4514-0.4632,0.4514c-0.1943,0-0.345-0.0964-0.4637-0.3006
					l-1.4448-2.8488h-1.6391c-0.0431,0-0.0647,0.0215-0.0647,0.0644v2.5693c0,0.3225-0.1943,0.5158-0.4747,0.5158
					C224.8071,331.0111,224.6128,330.8179,224.6128,330.4954z M228.7103,325.7547c0-0.7634-0.5063-1.2148-1.3582-1.2148h-1.7147
					c-0.0431,0-0.0647,0.0215-0.0647,0.0645v2.3007c0,0.0429,0.0216,0.0644,0.0647,0.0644h1.7147
					C228.204,326.9695,228.7103,326.5176,228.7103,325.7547z"/>
				<path fill="#404065" d="M231.9119,324.1101c0-0.3225,0.1943-0.5163,0.4852-0.5163c0.2805,0,0.4748,0.1937,0.4748,0.5163v6.3853
					c0,0.3225-0.1943,0.5158-0.4748,0.5158c-0.2909,0-0.4852-0.1932-0.4852-0.5158V324.1101z"/>
				<path fill="#404065" d="M235.3294,324.0776c0-0.2581,0.1618-0.4299,0.4312-0.4299h3.774c0.2909,0,0.4747,0.1932,0.4747,0.4404
					c0,0.2586-0.1838,0.4518-0.4747,0.4518h-3.1806c-0.0431,0-0.0651,0.0215-0.0651,0.0645v2.1499
					c0,0.0429,0.022,0.0649,0.0651,0.0649h2.6522c0.291,0,0.4748,0.1932,0.4748,0.4404c0,0.2581-0.1838,0.4518-0.4748,0.4518
					h-2.6522c-0.0431,0-0.0651,0.0209-0.0651,0.0644v2.2248c0,0.0434,0.022,0.0649,0.0651,0.0649h3.1806
					c0.2909,0,0.4747,0.1937,0.4747,0.4409c0,0.2576-0.1838,0.4514-0.4747,0.4514h-3.774c-0.2694,0-0.4312-0.1718-0.4312-0.4299
					V324.0776z"/>
			</g>
		</g>
	</g>
	<path fill="#404065" d="M330.8237,382.9929c-0.6494,0-1.1763-0.5253-1.1763-1.1728V129.1725c0-0.6477,0.5269-1.1725,1.1763-1.1725
		S332,128.5248,332,129.1725v252.6476C332,382.4676,331.4731,382.9929,330.8237,382.9929L330.8237,382.9929z"/>
	<rect fill="none" width="512" height="512"/>
</g>
</svg>
