<svg width="324" height="58" viewBox="0 0 324 58" xmlns="http://www.w3.org/2000/svg"><title>logo_white</title><g id="Page-1" fill="none" fill-rule="evenodd"><g id="logo_white" fill="#FFF"><path d="M152 38.3c-1.1 0-2.1-.6-2.1-1.8V20.7h5.1v-6.4h-5.1V4.1l-7.4 4v6.2H138v6.4h4.5V38c0 3.4 2.1 7 8.1 7 2.8 0 4.6-.7 4.6-.7v-6.6c0-.1-2.1.6-3.2.6zm-64 0c-1.1 0-2.1-.6-2.1-1.8V20.7H91v-6.4h-5V4.1l-7.4 4v6.2h-4.5v6.4h4.5V38c0 3.4 2.1 7 8.1 7 2.8 0 4.6-.7 4.6-.7v-6.6c-.1-.1-2.1.6-3.3.6zM58.6 13.5c-2.9 0-6.4 1.8-8 4.4l-.5-3.7h-6.6V45h7.4V27.2c0-4.2 3.5-6.8 6.7-6.8 4.2 0 5.7 3.6 5.7 7V45h7.4V27c0-8.7-4.3-13.5-12.1-13.5zM282.4 31c0 4.2-3.6 6.8-6.8 6.8-3.5 0-4.7-1.8-4.7-7V14.3h-7.4v17.3c0 9.1 3.7 13.5 11.2 13.5 3.1 0 6.3-1.4 8.1-4.1l.3 3.4h6.6V14.3h-7.4V31h.1zm-75.6 7.3c-1.1 0-2.1-.6-2.1-1.8V20.7h5.1v-6.4h-5.1V4.1l-7.4 4v6.2h-4.5v6.4h4.5V38c0 3.4 2.1 7 8.1 7 2.8 0 4.6-.7 4.6-.7v-6.6c.1-.1-2 .6-3.2.6zM96.9 14.2h7.4V45h-7.4V14.2zM100.6.8c-2.5 0-4.5 2-4.5 4.5s2 4.5 4.5 4.5 4.5-2 4.5-4.5S103 .8 100.6.8zm115.3 13.4h7.4V45h-7.4V14.2zM219.6.8c-2.5 0-4.5 2-4.5 4.5s2 4.5 4.5 4.5 4.5-2 4.5-4.5-2-4.5-4.5-4.5zm103.8 29.8c0-5.1-1.2-9.4-3.6-12.4-2.3-2.9-5.7-4.7-10.3-4.7-4.1 0-7.9 1.6-10.6 4.7-2.7 3-4.2 7.1-4.2 11.6 0 10.1 7.6 15.9 14.6 15.9 7.1 0 11.6-3.1 13.2-7.7l-7-2c-1.2 1.8-2.9 2.9-6.3 2.9-4.1 0-6.6-3.4-6.8-6.7h20.8c.2 0 .2-.9.2-1.6zm-20.7-4.2c.5-2.9 2.3-6.1 6.7-6.1s6 3 6.3 6.1h-13zM16.1 2.3L.6 45h8.1l3-8.6H28l3 8.6h8.6L24.1 2.3h-8zm-2 26.9l5.7-16.5 5.6 16.5H14.1zm94.5 7.1c.9 5.8 6 9.5 13.2 9.5 8.8 0 13-4 13-9.3 0-5.6-3.9-8.3-10.1-10-6.6-1.8-7.6-2.4-7.6-3.9 0-1 1.1-2.6 4.2-2.6 3.4 0 5.2 1.6 5.8 3.5l7.2-1.2c-1.4-5.2-5.9-8.6-13-8.6-6.6 0-11.5 4.2-11.5 9.2 0 5.2 3.3 7.5 9.6 9 6.5 1.6 8.1 2.8 8.1 4.3 0 1.7-1.7 2.9-5.5 2.9-3.1 0-5.5-1.6-6-4.1l-7.4 1.3zm141.8-18.4c-1.2-2.4-4.1-4.3-7.7-4.3-8.1 0-14.3 7-14.3 16.3 0 9.2 5.9 15.9 13.9 15.9 3.2 0 6.5-2 7.8-4.8v16.2h7.4V14.3h-6.6l-.5 3.6zm-7.3 20.9c-4.1 0-7.4-4.1-7.4-9.2s3.3-9.2 7.4-9.2c4.1 0 7.4 4.1 7.4 9.2s-3.3 9.2-7.4 9.2zm-53.8-.5c-.8 0-1.5-.5-1.5-1.4V14.3h-6.6l-.5 3.6c-1.5-2.8-4.6-4.3-7.8-4.3-8.1 0-14.3 7-14.3 16.3 0 9.2 5.9 15.9 13.9 15.9 3.6 0 7.3-2.5 8.4-5 0 2.1 2 4.2 5.7 4.2 2.7 0 5-.7 5-.7v-6.6c.2-.1-1.3.6-2.3.6zm-15.9.5c-4.1 0-7.4-4.1-7.4-9.2s3.3-9.2 7.4-9.2c4.1 0 7.4 4.1 7.4 9.2s-3.3 9.2-7.4 9.2z" id="Shape"/></g></g></svg>