<?xml version="1.0" encoding="UTF-8" standalone="no"?>
<svg width="667px" height="66px" viewBox="0 0 667 66" version="1.1" xmlns="http://www.w3.org/2000/svg" xmlns:xlink="http://www.w3.org/1999/xlink" xmlns:sketch="http://www.bohemiancoding.com/sketch/ns">
    <!-- Generator: Sketch 3.3.2 (12043) - http://www.bohemiancoding.com/sketch -->
    <title>nous-socialisons</title>
    <desc>Created with Sketch.</desc>
    <defs></defs>
    <g id="Page-1" stroke="none" stroke-width="1" fill="none" fill-rule="evenodd" sketch:type="MSPage">
        <g id="nous-socialisons" sketch:type="MSLayerGroup" fill="#EF2678">
            <g id="Shape" sketch:type="MSShapeGroup">
                <path d="M0,0 L14.8093,0 C24.9561,18.4654 33.3657,32.7253 39.8559,45.9801 C39.3078,30.0745 39.3078,15.1741 39.3078,0 L51.8311,0 L51.8311,64.5371 L37.0224,64.5371 C28.3378,48.9969 17.3685,29.6174 11.9752,18.5564 C12.615,34.6453 12.3412,49.3623 12.5239,64.5371 L0,64.5371 L0,0 L0,0 Z"></path>
                <path d="M60.4252,41.5926 C60.4252,27.7891 68.3783,17.2768 82.9126,17.2768 C97.6303,17.2768 105.4007,27.698 105.4007,41.5926 C105.4007,55.3961 97.6303,66 82.9127,66 C67.9212,66 60.4252,55.3961 60.4252,41.5926 L60.4252,41.5926 Z M92.4197,41.5926 C92.4197,32.9087 89.2201,26.7839 82.9126,26.7839 C76.5141,26.7839 73.4062,32.9087 73.4062,41.5926 C73.4062,50.3682 76.5141,56.4013 83.187,56.4013 C89.4035,56.4013 92.4197,50.3682 92.4197,41.5926 L92.4197,41.5926 Z"></path>
                <path d="M112.9884,18.6481 L125.4207,18.6481 L125.4207,44.7922 C125.4207,51.6478 127.7971,55.0301 132.6423,55.0301 C138.4927,55.0301 141.8744,50.3682 141.8744,41.501 L141.8744,18.6481 L154.3067,18.6481 L154.3067,64.5371 L142.6059,64.5371 L142.6059,56.7673 C140.2295,61.9773 136.3901,65.6339 128.5287,65.6339 C118.0164,65.6339 112.9885,59.2354 112.9885,47.7173 L112.9885,18.6481 L112.9884,18.6481 Z"></path>
                <path d="M167.1984,50.7336 C170.0319,53.9332 175.5169,56.8584 181.0013,56.8584 C184.2925,56.8584 187.7659,55.5788 187.7659,52.3792 C187.7659,43.878 162.9931,48.6315 162.9931,31.6284 C162.9931,21.6649 171.952,17.2768 181.3674,17.2768 C189.0461,17.2768 194.8965,19.2878 199.5584,22.8528 L193.799,31.0803 C191.3309,28.7032 185.8465,26.3268 180.9103,26.3268 C178.0761,26.3268 175.608,27.4237 175.608,30.2572 C175.608,38.0276 200.2898,34.5536 200.2898,50.8253 C200.2898,61.0631 190.6911,66 181.55,66 C173.3225,66 166.3753,63.6229 161.348,59.1438 L167.1984,50.7336 L167.1984,50.7336 Z"></path>
                <path d="M231.097,50.7336 C233.9305,53.9332 239.4155,56.8584 244.8999,56.8584 C248.1911,56.8584 251.6645,55.5788 251.6645,52.3792 C251.6645,43.878 226.8917,48.6315 226.8917,31.6284 C226.8917,21.6649 235.8506,17.2768 245.266,17.2768 C252.9447,17.2768 258.7951,19.2878 263.457,22.8528 L257.6976,31.0803 C255.2295,28.7032 249.7451,26.3268 244.8089,26.3268 C241.9747,26.3268 239.5066,27.4237 239.5066,30.2572 C239.5066,38.0276 264.1884,34.5536 264.1884,50.8253 C264.1884,61.0632 254.5897,66 245.4487,66 C237.2212,66 230.274,63.6229 225.2467,59.1438 L231.097,50.7336 L231.097,50.7336 Z"></path>
                <path d="M269.3085,41.5926 C269.3085,27.7891 277.2616,17.2768 291.7959,17.2768 C306.5136,17.2768 314.284,27.698 314.284,41.5926 C314.284,55.3961 306.5136,66 291.7959,66 C276.8045,66 269.3085,55.3961 269.3085,41.5926 L269.3085,41.5926 Z M301.303,41.5926 C301.303,32.9087 298.1034,26.7839 291.796,26.7839 C285.3975,26.7839 282.2896,32.9087 282.2896,41.5926 C282.2896,50.3682 285.3975,56.4013 292.0704,56.4013 C298.2867,56.4013 301.303,50.3682 301.303,41.5926 L301.303,41.5926 Z"></path>
                <path d="M362.7328,54.7557 C358.528,62.4344 351.5807,66 342.6224,66 C326.8995,66 320.0433,55.2127 320.0433,41.7753 C320.0433,27.241 328.1791,17.2768 342.6224,17.2768 C351.9461,17.2768 358.2536,21.3905 362.4584,28.7949 L352.1288,33.8222 C350.2094,28.9776 347.0098,26.7839 342.9878,26.7839 C335.9489,26.7839 332.9326,32.9087 332.9326,41.0439 C332.9326,48.1745 335.3091,56.4014 343.7193,56.4014 C348.5638,56.4014 351.5807,53.6589 353.4091,49.1798 L362.7328,54.7557 L362.7328,54.7557 Z"></path>
                <path d="M369.3159,0.5481 L381.7475,0.5481 L381.7475,10.695 L369.3159,10.695 L369.3159,0.5481 L369.3159,0.5481 Z M369.3159,18.6481 L381.7475,18.6481 L381.7475,64.5371 L369.3159,64.5371 L369.3159,18.6481 L369.3159,18.6481 Z"></path>
                <path d="M419.593,64.5371 C418.8616,62.8915 418.4045,60.2407 418.2218,58.0469 C416.3018,62.5261 411.8226,66 404.7843,66 C395.3683,66 389.8839,59.8752 389.8839,51.3734 C389.8839,41.958 396.9222,38.2103 407.3434,36.6564 L417.4903,35.1024 L417.4903,33.3657 C417.4903,27.9718 414.5651,26.7838 410.4514,26.7838 C404.3273,26.7838 400.2135,29.4346 397.1056,32.6342 L391.1636,24.4067 C394.9113,20.7507 401.9502,17.2767 412.0054,17.2767 C424.8037,17.2767 430.0137,22.7617 430.0137,34.2791 L430.0137,51.465 C430.0137,58.4123 430.197,60.7893 431.751,64.537 L419.593,64.537 L419.593,64.5371 Z M417.4903,42.9638 L409.5372,44.4261 C404.0529,45.4319 401.7674,47.3513 401.7674,50.9169 C401.7674,54.3902 404.0528,57.1327 407.9832,57.1327 C413.1938,57.1327 417.4902,52.8363 417.4902,45.98 L417.4902,42.9638 L417.4903,42.9638 Z"></path>
                <path d="M440.2534,0 L452.685,0 L452.685,64.5371 L440.2534,64.5371 L440.2534,0 L440.2534,0 Z"></path>
                <path d="M462.6498,0.5481 L475.0814,0.5481 L475.0814,10.695 L462.6498,10.695 L462.6498,0.5481 L462.6498,0.5481 Z M462.6498,18.6481 L475.0814,18.6481 L475.0814,64.5371 L462.6498,64.5371 L462.6498,18.6481 L462.6498,18.6481 Z"></path>
                <path d="M487.9713,50.7336 C490.8049,53.9332 496.2898,56.8584 501.7742,56.8584 C505.0654,56.8584 508.5388,55.5788 508.5388,52.3792 C508.5388,43.878 483.766,48.6315 483.766,31.6284 C483.766,21.6649 492.7249,17.2768 502.1403,17.2768 C509.819,17.2768 515.6694,19.2878 520.3313,22.8528 L514.572,31.0803 C512.1039,28.7032 506.6195,26.3268 501.6833,26.3268 C498.8491,26.3268 496.381,27.4237 496.381,30.2572 C496.381,38.0276 521.0628,34.5536 521.0628,50.8253 C521.0627,61.0631 511.464,66 502.323,66 C494.0955,66 487.1483,63.6229 482.121,59.1438 L487.9713,50.7336 L487.9713,50.7336 Z"></path>
                <path d="M526.1829,41.5926 C526.1829,27.7891 534.136,17.2768 548.6703,17.2768 C563.388,17.2768 571.1583,27.698 571.1583,41.5926 C571.1583,55.3961 563.3879,66 548.6703,66 C533.6789,66 526.1829,55.3961 526.1829,41.5926 L526.1829,41.5926 Z M558.1774,41.5926 C558.1774,32.9087 554.9778,26.7839 548.6704,26.7839 C542.2718,26.7839 539.1639,32.9087 539.1639,41.5926 C539.1639,50.3682 542.2718,56.4013 548.9447,56.4013 C555.1611,56.4013 558.1774,50.3682 558.1774,41.5926 L558.1774,41.5926 Z"></path>
                <path d="M579.0204,18.6481 L590.0814,18.6481 L591.0866,26.0525 C593.6464,21.299 599.0397,17.2769 605.8043,17.2769 C615.7678,17.2769 620.5213,23.676 620.5213,35.8339 L620.5213,64.5371 L608.089,64.5371 L608.089,38.8501 C608.089,31.263 605.4382,28.1551 600.5019,28.1551 C595.2913,28.1551 591.452,32.0855 591.452,41.8669 L591.452,64.537 L579.0204,64.537 L579.0204,18.6481 L579.0204,18.6481 Z"></path>
                <path d="M633.2292,50.7336 C636.0627,53.9332 641.5477,56.8584 647.0321,56.8584 C650.3234,56.8584 653.7966,55.5788 653.7966,52.3792 C653.7966,43.878 629.0238,48.6315 629.0238,31.6284 C629.0238,21.6649 637.9827,17.2768 647.3981,17.2768 C655.0768,17.2768 660.9272,19.2878 665.5891,22.8528 L659.8298,31.0803 C657.3617,28.7032 651.8773,26.3268 646.9411,26.3268 C644.1069,26.3268 641.6389,27.4237 641.6389,30.2572 C641.6389,38.0276 666.3207,34.5536 666.3207,50.8253 C666.3207,61.0632 656.722,66 647.581,66 C639.3535,66 632.4063,63.6229 627.379,59.1438 L633.2292,50.7336 L633.2292,50.7336 Z"></path>
            </g>
        </g>
    </g>
</svg>