<?xml version="1.0" encoding="utf-8"?>
<!-- Generator: Adobe Illustrator 18.1.1, SVG Export Plug-In . SVG Version: 6.00 Build 0)  -->
<!DOCTYPE svg PUBLIC "-//W3C//DTD SVG 1.1//EN" "http://www.w3.org/Graphics/SVG/1.1/DTD/svg11.dtd">
<svg version="1.1" id="XMLID_1_" xmlns="http://www.w3.org/2000/svg" xmlns:xlink="http://www.w3.org/1999/xlink" x="0px" y="0px"
	 viewBox="0 0 512 512" enable-background="new 0 0 512 512" xml:space="preserve">
<g id="Orbium">
	<path fill="#404065" d="M150.41,256.4443v41.8104h14.9244v-38.8492c0-3.2389,2.6991-5.9256,5.9315-5.9256h22.457v-14.9332h-25.4242
		C158.4118,238.5467,150.41,246.5485,150.41,256.4443z"/>
	<path fill="#404065" d="M108.319,236.1621c-17.8483,0-32.319,14.4642-32.319,32.325c0,17.8421,14.4706,32.3063,32.319,32.3063
		c17.8544,0,32.3186-14.4642,32.3186-32.3063C140.6376,250.6264,126.1734,236.1621,108.319,236.1621z M108.319,279.0892
		c-5.8581,0-10.6087-4.7472-10.6087-10.6021c0-5.8703,4.7506-10.6147,10.6087-10.6147c5.8611,0,10.6147,4.7444,10.6147,10.6147
		C118.9337,274.342,114.1801,279.0892,108.319,279.0892z"/>
	<path fill="#404065" d="M426.0222,238.5467h-54.387v59.7081h14.9364v-44.7748h13.7458v44.7748h14.9176v-44.7748h7.8195
		c3.3287,0,6.0219,2.6867,6.0219,5.9256v38.8492h14.9236v-41.8104C444.0001,246.5485,435.912,238.5467,426.0222,238.5467z"/>
	<path fill="#404065" d="M244.4267,238.5467h-26.8864v-18.1629h-14.933v77.871h59.7111v-41.8104
		C262.3183,246.5485,254.3165,238.5467,244.4267,238.5467z M247.3943,283.3307h-29.854v-29.8508h23.9067
		c3.2516,0,5.9473,2.6867,5.9473,5.9256V283.3307z"/>
	<path fill="#404065" d="M344.8132,283.3307h-23.9188c-3.2331,0-5.9353-2.6991-5.9353-6.0213v-38.7627h-14.9236v41.8196
		c0,9.8804,8.0078,17.8884,17.8913,17.8884h41.8198v-59.7081h-14.9334V283.3307z"/>
	<path fill="#404065" d="M281.1754,211.2065c-5.0285,0-9.1062,4.0749-9.1062,9.1124c0,5.0374,4.0777,9.1122,9.1062,9.1122
		c5.0312,0,9.1089-4.0749,9.1089-9.1122C290.2843,215.2814,286.2066,211.2065,281.1754,211.2065z"/>
	<rect x="273.7103" y="238.5467" fill="#404065" width="14.933" height="59.7081"/>
	<rect fill="none" width="512" height="512"/>
</g>
</svg>
