<?xml version="1.0" encoding="UTF-8" standalone="no"?>
<svg width="491px" height="66px" viewBox="0 0 491 66" version="1.1" xmlns="http://www.w3.org/2000/svg" xmlns:xlink="http://www.w3.org/1999/xlink" xmlns:sketch="http://www.bohemiancoding.com/sketch/ns">
    <!-- Generator: Sketch 3.3.2 (12043) - http://www.bohemiancoding.com/sketch -->
    <title>we_socialize</title>
    <desc>Created with Sketch.</desc>
    <defs></defs>
    <g id="Page-1" stroke="none" stroke-width="1" fill="none" fill-rule="evenodd" sketch:type="MSPage">
        <g id="we_socialize" sketch:type="MSLayerGroup" fill="#EF2678">
            <path d="M0.235,0.375 L14.246,0.375 C17.569,14.745 22.599,34.504 24.844,45.73 C26.102,35.762 32.389,14.656 36.43,0.375 L47.028,0.375 C51.698,18.068 57.536,35.762 59.512,45.91 C60.859,34.415 64.811,19.685 69.212,0.375 L82.953,0.375 L65.081,63.784 L53.225,63.784 C48.465,46.898 43.346,31.72 41.011,20.494 C39.214,31.989 33.646,50.222 29.874,63.784 L18.019,63.784 L0.235,0.375" id="Fill-1" sketch:type="MSShapeGroup"></path>
            <path d="M95.344,44.115 C96.242,52.467 100.464,56.06 106.301,56.06 C110.702,56.06 113.846,54.083 116.091,50.042 L125.162,55.162 C121.031,61.718 114.205,65.221 105.673,65.221 C90.764,65.221 82.86,54.802 82.86,41.421 C82.86,27.858 90.854,17.35 104.954,17.35 C118.606,17.35 125.97,27.41 125.97,41.51 C125.97,43.037 125.88,43.755 125.88,44.115 L95.344,44.115 L95.344,44.115 Z M95.344,37.109 L113.576,37.109 C113.576,31.45 110.882,26.332 104.685,26.332 C99.116,26.332 96.063,30.373 95.344,37.109 L95.344,37.109 Z" id="Fill-2" sketch:type="MSShapeGroup"></path>
            <path d="M156.861,50.222 C159.645,53.365 165.034,56.24 170.423,56.24 C173.656,56.24 177.069,54.982 177.069,51.838 C177.069,43.486 152.73,48.156 152.73,31.45 C152.73,21.662 161.532,17.35 170.783,17.35 C178.327,17.35 184.075,19.326 188.655,22.828 L182.997,30.911 C180.572,28.577 175.183,26.242 170.333,26.242 C167.549,26.242 165.124,27.32 165.124,30.104 C165.124,37.737 189.374,34.325 189.374,50.312 C189.374,60.37 179.943,65.221 170.962,65.221 C162.879,65.221 156.053,62.885 151.113,58.485 L156.861,50.222" id="Fill-3" sketch:type="MSShapeGroup"></path>
            <path d="M194.401,41.241 C194.401,27.679 202.215,17.35 216.495,17.35 C230.955,17.35 238.59,27.589 238.59,41.241 C238.59,54.802 230.955,65.221 216.495,65.221 C201.766,65.221 194.401,54.802 194.401,41.241 L194.401,41.241 Z M225.836,41.241 C225.836,32.708 222.693,26.691 216.495,26.691 C210.208,26.691 207.155,32.708 207.155,41.241 C207.155,49.863 210.208,55.791 216.765,55.791 C222.872,55.791 225.836,49.863 225.836,41.241 L225.836,41.241 Z" id="Fill-4" sketch:type="MSShapeGroup"></path>
            <path d="M286.187,54.173 C282.055,61.718 275.229,65.221 266.428,65.221 C250.98,65.221 244.244,54.622 244.244,41.421 C244.244,27.14 252.237,17.35 266.428,17.35 C275.589,17.35 281.786,21.392 285.917,28.666 L275.768,33.606 C273.882,28.846 270.739,26.691 266.787,26.691 C259.871,26.691 256.908,32.708 256.908,40.702 C256.908,47.708 259.243,55.791 267.506,55.791 C272.265,55.791 275.229,53.096 277.026,48.695 L286.187,54.173" id="Fill-5" sketch:type="MSShapeGroup"></path>
            <path d="M292.65,0.914 L304.865,0.914 L304.865,10.883 L292.65,10.883 L292.65,0.914 Z M292.65,18.697 L304.865,18.697 L304.865,63.783 L292.65,63.783 L292.65,18.697 Z" id="Fill-6" sketch:type="MSShapeGroup"></path>
            <path d="M342.046,63.784 C341.328,62.167 340.879,59.562 340.699,57.407 C338.813,61.807 334.413,65.221 327.497,65.221 C318.246,65.221 312.857,59.203 312.857,50.85 C312.857,41.6 319.773,37.917 330.012,36.391 L339.981,34.864 L339.981,33.157 C339.981,27.858 337.107,26.691 333.065,26.691 C327.048,26.691 323.006,29.295 319.953,32.438 L314.115,24.355 C317.797,20.763 324.712,17.35 334.592,17.35 C347.166,17.35 352.285,22.738 352.285,34.055 L352.285,50.94 C352.285,57.766 352.465,60.101 353.992,63.784 L342.046,63.784 L342.046,63.784 Z M339.981,42.587 L332.167,44.025 C326.778,45.013 324.533,46.898 324.533,50.402 C324.533,53.813 326.778,56.509 330.64,56.509 C335.76,56.509 339.981,52.287 339.981,45.551 L339.981,42.587 L339.981,42.587 Z" id="Fill-7" sketch:type="MSShapeGroup"></path>
            <path d="M362.341,0.375 L374.555,0.375 L374.555,63.784 L362.341,63.784 L362.341,0.375 Z" id="Fill-8" sketch:type="MSShapeGroup"></path>
            <path d="M384.344,0.914 L396.558,0.914 L396.558,10.883 L384.344,10.883 L384.344,0.914 Z M384.344,18.697 L396.558,18.697 L396.558,63.783 L384.344,63.783 L384.344,18.697 Z" id="Fill-9" sketch:type="MSShapeGroup"></path>
            <path d="M404.371,55.072 L428.621,27.769 L405.449,27.769 L405.449,18.697 L443.17,18.697 L443.17,27.41 L418.382,54.712 L444.338,54.712 L444.338,63.784 L404.371,63.784 L404.371,55.072" id="Fill-10" sketch:type="MSShapeGroup"></path>
            <path d="M460.232,44.115 C461.13,52.467 465.352,56.06 471.189,56.06 C475.59,56.06 478.733,54.083 480.979,50.042 L490.05,55.162 C485.918,61.718 479.093,65.221 470.561,65.221 C455.652,65.221 447.748,54.802 447.748,41.421 C447.748,27.858 455.741,17.35 469.842,17.35 C483.494,17.35 490.858,27.41 490.858,41.51 C490.858,43.037 490.769,43.755 490.769,44.115 L460.232,44.115 L460.232,44.115 Z M460.232,37.109 L478.464,37.109 C478.464,31.45 475.77,26.332 469.573,26.332 C464.004,26.332 460.951,30.373 460.232,37.109 L460.232,37.109 Z" id="Fill-11" sketch:type="MSShapeGroup"></path>
        </g>
    </g>
</svg>