<?xml version="1.0" encoding="UTF-8" standalone="no"?>
<svg width="466px" height="65px" viewBox="0 0 466 65" version="1.1" xmlns="http://www.w3.org/2000/svg" xmlns:xlink="http://www.w3.org/1999/xlink" xmlns:sketch="http://www.bohemiancoding.com/sketch/ns">
    <!-- Generator: Sketch 3.3.2 (12043) - http://www.bohemiancoding.com/sketch -->
    <title>we_socialize_left</title>
    <desc>Created with Sketch.</desc>
    <defs></defs>
    <g id="Page-1" stroke="none" stroke-width="1" fill="none" fill-rule="evenodd" sketch:type="MSPage">
        <g id="we_socialize_left" sketch:type="MSLayerGroup" fill="#EF2678">
            <path d="M80.01,16.95 C65.93,16.95 57.948,27.445 57.948,40.987 C57.948,54.349 65.84,64.751 80.727,64.751 C89.247,64.751 96.063,61.253 100.189,54.705 L91.131,49.594 C88.888,53.63 85.75,55.602 81.355,55.602 C75.526,55.602 71.311,52.016 70.414,43.675 L100.906,43.675 C100.906,43.317 100.996,42.6 100.996,41.076 C100.996,26.996 93.642,16.95 80.01,16.95 L80.01,16.95 Z M70.414,36.681 C71.131,29.953 74.181,25.919 79.741,25.919 C85.929,25.919 88.619,31.032 88.619,36.681 L70.414,36.681 L70.414,36.681 Z" id="Fill-1" sketch:type="MSShapeGroup"></path>
            <path d="M140.107,29.687 C140.107,26.906 142.528,25.83 145.309,25.83 C150.151,25.83 155.532,28.16 157.953,30.492 L163.603,22.421 C159.03,18.923 153.29,16.95 145.757,16.95 C136.52,16.95 127.731,21.255 127.731,31.032 C127.731,47.712 152.035,43.049 152.035,51.388 C152.035,54.529 148.627,55.783 145.398,55.783 C140.017,55.783 134.636,52.912 131.856,49.774 L126.117,58.026 C131.049,62.418 137.865,64.751 145.936,64.751 C154.905,64.751 164.321,59.908 164.321,49.865 C164.321,33.899 140.107,37.309 140.107,29.687" id="Fill-2" sketch:type="MSShapeGroup"></path>
            <path d="M191.412,16.95 C177.153,16.95 169.35,27.265 169.35,40.807 C169.35,54.349 176.704,64.751 191.412,64.751 C205.851,64.751 213.474,54.349 213.474,40.807 C213.474,27.175 205.851,16.95 191.412,16.95 L191.412,16.95 Z M191.681,55.334 C185.134,55.334 182.085,49.415 182.085,40.807 C182.085,32.285 185.134,26.277 191.412,26.277 C197.6,26.277 200.739,32.285 200.739,40.807 C200.739,49.415 197.78,55.334 191.681,55.334 L191.681,55.334 Z" id="Fill-3" sketch:type="MSShapeGroup"></path>
            <path d="M242.358,55.334 C234.108,55.334 231.776,47.262 231.776,40.268 C231.776,32.285 234.735,26.277 241.641,26.277 C245.587,26.277 248.726,28.429 250.609,33.183 L260.743,28.249 C256.618,20.985 250.43,16.95 241.282,16.95 C227.112,16.95 219.131,26.726 219.131,40.987 C219.131,54.169 225.857,64.751 241.282,64.751 C250.071,64.751 256.887,61.253 261.012,53.72 L251.865,48.251 C250.071,52.645 247.111,55.334 242.358,55.334" id="Fill-4" sketch:type="MSShapeGroup"></path>
            <path d="M267.476,18.297 L279.672,18.297 L279.672,63.316 L267.476,63.316 L267.476,18.297 Z" id="Fill-5" sketch:type="MSShapeGroup"></path>
            <path d="M267.476,0.539 L279.672,0.539 L279.672,10.494 L267.476,10.494 L267.476,0.539 Z" id="Fill-6" sketch:type="MSShapeGroup"></path>
            <path d="M327.028,33.632 C327.028,22.331 321.917,16.95 309.361,16.95 C299.496,16.95 292.59,20.357 288.914,23.947 L294.743,32.017 C297.792,28.878 301.828,26.277 307.836,26.277 C311.872,26.277 314.742,27.445 314.742,32.735 L314.742,34.438 L304.787,35.962 C294.564,37.488 287.658,41.165 287.658,50.402 C287.658,58.741 293.039,64.751 302.276,64.751 C309.181,64.751 313.576,61.343 315.459,56.948 C315.639,59.101 316.087,61.703 316.805,63.315 L328.732,63.315 C327.208,59.64 327.028,57.307 327.028,50.492 L327.028,33.632 L327.028,33.632 Z M314.742,45.112 C314.742,51.837 310.527,56.052 305.415,56.052 C301.558,56.052 299.317,53.361 299.317,49.953 C299.317,46.456 301.558,44.574 306.939,43.586 L314.742,42.151 L314.742,45.112 L314.742,45.112 Z" id="Fill-7" sketch:type="MSShapeGroup"></path>
            <path d="M337.08,0.001 L349.276,0.001 L349.276,63.315 L337.08,63.315 L337.08,0.001 Z" id="Fill-8" sketch:type="MSShapeGroup"></path>
            <path d="M359.055,0.539 L371.252,0.539 L371.252,10.494 L359.055,10.494 L359.055,0.539 Z" id="Fill-9" sketch:type="MSShapeGroup"></path>
            <path d="M359.055,18.297 L371.252,18.297 L371.252,63.316 L359.055,63.316 L359.055,18.297 Z" id="Fill-10" sketch:type="MSShapeGroup"></path>
            <path d="M417.8,26.996 L417.8,18.297 L380.134,18.297 L380.134,27.354 L403.271,27.354 L379.057,54.618 L379.057,63.315 L418.965,63.315 L418.965,54.259 L393.048,54.259 L417.8,26.996" id="Fill-11" sketch:type="MSShapeGroup"></path>
            <path d="M465.428,41.076 C465.428,26.996 458.074,16.95 444.442,16.95 C430.362,16.95 422.381,27.445 422.381,40.987 C422.381,54.349 430.273,64.751 445.159,64.751 C453.68,64.751 460.495,61.253 464.621,54.705 L455.563,49.594 C453.32,53.63 450.182,55.602 445.787,55.602 C439.958,55.602 435.743,52.016 434.846,43.675 L465.338,43.675 C465.338,43.317 465.428,42.6 465.428,41.076 L465.428,41.076 Z M434.846,36.681 C435.564,29.953 438.613,25.919 444.173,25.919 C450.362,25.919 453.052,31.032 453.052,36.681 L434.846,36.681 L434.846,36.681 Z" id="Fill-12" sketch:type="MSShapeGroup"></path>
            <path d="M44.303,0.001 C39.909,19.283 35.963,33.989 34.617,45.469 C32.644,35.337 26.815,17.668 22.152,0.001 L11.569,0.001 C7.533,14.261 1.256,35.337 0,45.289 L0,63.315 L5.022,63.315 C8.789,49.774 14.349,31.57 16.143,20.09 C18.475,31.301 23.586,46.456 28.34,63.315 L40.178,63.315 L58.024,0.001 L44.303,0.001" id="Fill-13" sketch:type="MSShapeGroup"></path>
        </g>
    </g>
</svg>