<svg id="Calque_1" xmlns="http://www.w3.org/2000/svg" viewBox="0 0 1280 125"><style>.st0{fill:#E72A78;}</style><path class="st0" d="M135.7 84.3c1.7 16.1 9.9 23 21.1 23 8.5 0 14.5-3.8 18.9-11.6l17.5 9.9c-8 12.6-21.1 19.4-37.6 19.4-28.7 0-44-20.1-44-45.9 0-26.1 15.4-46.4 42.6-46.4 26.3 0 40.5 19.4 40.5 46.6 0 2.9-.2 4.3-.2 5h-58.8zm0-13.5h35.1c0-10.9-5.2-20.8-17.1-20.8-10.7 0-16.6 7.8-18 20.8zM229.9 84.3c1.7 16.1 9.9 23 21.1 23 8.5 0 14.5-3.8 18.9-11.6l17.5 9.9c-8 12.6-21.1 19.4-37.6 19.4-28.7 0-44-20.1-44-45.9 0-26.1 15.4-46.4 42.6-46.4 26.3 0 40.5 19.4 40.5 46.6 0 2.9-.2 4.3-.2 5h-58.8zm0-13.5H265c0-10.9-5.2-20.8-17.1-20.8-10.7 0-16.6 7.8-18 20.8zM308.1 50.6h-14.2V35.3h2.8c15.9 0 17.5-10.6 20.1-24.9h14.7v24.9h18.4v15.2h-18.4V96c0 6.9 1.9 10.7 9.2 10.7 2.3 0 5.2-.3 8.3-1.7l1.7 16.6c-5.7 2.4-11.6 3.3-17.7 3.3-19.7 0-24.9-10.9-24.9-25.8V50.6zM66.5 0C56.1 25.6 41.7 62 36.7 77 31.5 62 17.1 25.3 6.9 0H0v35.5C5.9 53 22.7 91.9 35.1 122.4h2.3c12.1-30.1 28.6-67.9 35-86.9-.9 18.4-.9 57.3-.9 86.7h23.7V0H66.5z"/><g><path class="st0" d="M649.7 50.6h-14.2V35.3h2.8c15.9 0 17.5-10.6 20.1-24.9h14.7v24.9h18.4v15.2h-18.4V96c0 6.9 1.9 10.7 9.2 10.7 2.3 0 5.2-.3 8.3-1.7l1.7 16.6c-5.7 2.4-11.6 3.3-17.7 3.3-19.7 0-24.9-10.9-24.9-25.8V50.6zM704.4 0h23.5v48.8c4.2-8.7 13.2-16.1 27.2-16.1 19 0 27.9 13 27.9 35.7v53.8h-23.5V72.4c0-12.1-4.7-19-14.4-19-10 0-17.1 8.3-17.1 24.9v44h-23.5V0zM821.6 84.3c1.7 16.1 9.9 23 21.1 23 8.5 0 14.5-3.8 18.9-11.6l17.5 9.9c-8 12.6-21.1 19.4-37.6 19.4-28.7 0-44-20.1-44-45.9 0-26.1 15.4-46.4 42.6-46.4 26.3 0 40.5 19.4 40.5 46.6 0 2.9-.2 4.3-.2 5h-58.8zm0-13.5h35.1c0-10.9-5.2-20.8-17.1-20.8-10.7 0-16.6 7.8-18 20.8zM941.6 50.6h-14.2V35.3h2.8c15.9 0 17.5-10.6 20.1-24.9H965v24.9h18.4v15.2H965V96c0 6.9 1.9 10.7 9.2 10.7 2.3 0 5.2-.3 8.3-1.7l1.7 16.6c-5.7 2.4-11.6 3.3-17.7 3.3-19.7 0-24.9-10.9-24.9-25.8V50.6zM1015 84.3c1.7 16.1 9.9 23 21.1 23 8.5 0 14.5-3.8 18.9-11.6l17.5 9.9c-8 12.6-21.1 19.4-37.6 19.4-28.7 0-44-20.1-44-45.9 0-26.1 15.4-46.4 42.6-46.4 26.3 0 40.5 19.4 40.5 46.6 0 2.9-.2 4.3-.2 5H1015zm0-13.5h35.1c0-10.9-5.2-20.8-17.1-20.8-10.8 0-16.7 7.8-18 20.8zM1140.8 122.2c-1.4-3.1-2.3-8.1-2.6-12.3-3.6 8.5-12.1 15.1-25.5 15.1-17.8 0-28.2-11.6-28.2-27.7 0-17.8 13.3-24.9 33.1-27.9l19.2-2.9v-3.3c0-10.2-5.5-12.5-13.3-12.5-11.6 0-19.4 5-25.3 11.1L1087 46.2c7.1-6.9 20.4-13.5 39.5-13.5 24.2 0 34.1 10.4 34.1 32.2v32.5c0 13.2.3 17.7 3.3 24.8h-23.1zm-4-40.8l-15.1 2.8c-10.4 1.9-14.7 5.5-14.7 12.3 0 6.6 4.3 11.8 11.8 11.8 9.9 0 18-8.1 18-21.1v-5.8zM1280 32.7c-16.1 0-23.4 8.3-27.4 17.1-2.9-9.2-10.4-17.1-24.4-17.1-12.3 0-20.8 6.4-25.5 16.6l-1.9-14h-20.9v86.9h23.5V79.1c0-19.9 7.8-25.8 15.4-25.8 8.8 0 13 6.6 13 20.4v48.5h23.5V77.4c0-18.5 7.6-24.1 15.2-24.1 4.1 0 7.2 1.3 9.3 4V32.7z"/></g></svg>