<svg id="monochrome-midnight-blue" xmlns="http://www.w3.org/2000/svg" viewBox="0 0 512 512">
  <defs>
    <style>
      .cls-1 {
        fill: #404065;
      }

      .cls-2 {
        fill: none;
      }
    </style>
  </defs>
  <title>Cardis-Sothebys</title>
  <g id="Cardis-Sothebys.svg">
    <path class="cls-1" d="M154.38,191.8c10.77,0,17.75-6.63,20.37-17.26l-4.95-1.1c-2.33,9-7.35,13.69-15.35,13.69-10.48,0-17.32-8.75-17.32-23.66,0-13.83,6.77-22.85,17.17-22.85,8.22,0,12.22,4.44,14.62,13l5-1.24c-2.55-10-8.59-16.45-19.5-16.45-13.46,0-22.41,11.42-22.41,27.72C132,180.8,140.77,191.8,154.38,191.8Z"/>
    <path class="cls-1" d="M181.12,181.82c0,6,4,9.62,10.85,9.62a21.89,21.89,0,0,0,15.14-6.13,17.14,17.14,0,0,0,.87,5.47h5.17c-.8-2-1.09-4.8-1.09-9.47V163.91c0-7.64-3.71-12.23-12.3-12.23-7.57,0-12.88,2.91-17.46,7.13l2.69,3.13c4-3.49,8.3-6,14.33-6,5,0,7.79,2.55,7.79,7.86v2C187.6,168.72,181.12,174.25,181.12,181.82Zm26-.58a20,20,0,0,1-14,6c-4.29,0-7-2.11-7-6.12,0-5,4.58-9.1,21-11.86Z"/>
    <path class="cls-1" d="M227.35,190.78v-25c3-6,7.93-9.53,14.19-9.53l1.53.07.51-4.66h-.87A16.87,16.87,0,0,0,227.5,160h-.14v-7.57h-5v38.37Z"/>
    <path class="cls-1" d="M262.71,191.43c5.75,0,9.68-2.91,12.8-6.26a19.92,19.92,0,0,0,.87,5.61h5.31c-.87-2-1.16-4.81-1.16-9.47V136.92h-5v20.74a17,17,0,0,0-12.37-6c-9.17,0-16.23,6.55-16.23,19.94S253.91,191.44,262.71,191.43Zm.87-35.52c4.44,0,8.15,2.25,11.93,6.33v18.63c-3.64,3.86-7.2,6.27-11.93,6.27-6.4,0-11.64-4.88-11.64-15.44C251.94,160.86,256.81,155.91,263.58,155.91Z"/>
    <rect class="cls-1" x="291.45" y="152.42" width="5.02" height="38.36"/>
    <rect class="cls-1" x="291.3" y="138.16" width="5.31" height="5.38"/>
    <path class="cls-1" d="M319.37,187.28a15,15,0,0,1-11.93-5.54l-3.2,2.92c2.91,3.94,8.22,6.85,15.06,6.84,8.66,0,14.92-4,14.92-11,0-7.49-5-9.83-14.55-12.15-6.7-1.6-9.32-3.13-9.32-6.84,0-2.91,2.33-5.68,8.3-5.68a15.28,15.28,0,0,1,11.21,4.73l2.84-3.35c-3.42-3.34-7.64-5.53-14.19-5.53-8.3,0-13,4.59-13,10,0,6.7,4.51,9,13.31,11.21,7.5,1.75,10.55,3.42,10.55,7.64S325.92,187.28,319.37,187.28Z"/>
    <polygon class="cls-1" points="380.03 167.96 328.12 132.95 363.56 167.94 380.03 167.96"/>
    <rect class="cls-1" x="182" y="206.67" width="1.72" height="17.93"/>
    <path class="cls-1" d="M206.52,224.6V206.67h-2.28l-6,15.7h0l-6-15.7H190V224.6h1.6V209.53h0c.38,1.29.68,2,1.11,3.2l4.65,11.88H199l4.65-11.88c.44-1.16.87-2.35,1.11-3.15h0v15Z"/>
    <path class="cls-1" d="M212.71,224.6h1.6V209.53h0c.38,1.29.68,2,1.11,3.2l4.66,11.88h1.57l4.65-11.88c.44-1.16.87-2.35,1.11-3.15h0v15h1.72V206.67H227l-6,15.7h0l-6-15.7h-2.23Z"/>
    <path class="cls-1" d="M234.65,215.63c0,5.63,3.18,9.31,7.56,9.31s7.56-3.69,7.56-9.31-3.17-9.31-7.56-9.31S234.65,210,234.65,215.63Zm13.41,0c0,4.87-2.45,7.76-5.84,7.76s-5.84-2.89-5.84-7.76,2.45-7.73,5.84-7.73S248.06,210.76,248.06,215.63Z"/>
    <rect class="cls-1" x="255.18" y="206.67"/>
    <path class="cls-1" d="M261.94,224.6c4.15,0,6.13-2,6.13-4.87,0-2.57-1.75-4-4-4.36v0a4,4,0,0,0,3.39-4.14c0-2.84-2-4.51-6.08-4.51h-6.23V224.6Zm4.44-4.95c0,2.18-1.38,3.42-4.46,3.42h-5v-6.93h4.51C264.46,216.14,266.38,217.23,266.38,219.66Zm-5.07-11.44c3.1,0,4.48,1,4.48,3.18s-1.67,3.25-4.53,3.25h-4.39v-6.43Z"/>
    <rect class="cls-1" x="273.57" y="206.67" width="1.72" height="17.93"/>
    <polygon class="cls-1" points="281.56 206.67 281.56 224.6 292.06 224.6 292.06 223.03 283.29 223.03 283.29 206.67 281.56 206.67"/>
    <rect class="cls-1" x="296.9" y="206.67" width="1.72" height="17.93"/>
    <polygon class="cls-1" points="315.6 208.27 315.6 206.67 304.88 206.67 304.88 224.6 316.11 224.6 316.11 223.03 306.61 223.03 306.61 215.9 313.32 215.9 313.32 214.35 306.61 214.35 306.61 208.27 315.6 208.27"/>
    <path class="cls-1" d="M333.17,211.52c0-3.15-2.23-4.85-6.23-4.85h-6V224.6h1.7v-8h4.46l4.38,8h1.94l-4.53-8.24C331.47,215.88,333.17,214.42,333.17,211.52ZM326.82,215h-4.19v-6.79h4.16c3,0,4.66.87,4.66,3.34S329.78,215,326.82,215Z"/>
    <polygon class="cls-1" points="398.9 287.5 390.75 287.5 382.47 304.59 390.62 304.59 398.9 287.5"/>
    <rect class="cls-1" x="97.74" y="374.91" width="2.35" height="16.36"/>
    <polygon class="cls-1" points="119.03 387.57 107.95 374.91 106.08 374.91 106.08 391.27 108.29 391.27 108.29 378.68 119.23 391.27 121.24 391.27 121.24 374.91 119.03 374.91 119.03 387.57"/>
    <polygon class="cls-1" points="125.84 377.02 131.5 377.02 131.5 391.27 133.85 391.27 133.85 377.02 139.51 377.02 139.51 374.91 125.84 374.91 125.84 377.02"/>
    <polygon class="cls-1" points="146.47 384.07 153.16 384.07 153.16 381.96 146.47 381.96 146.47 377.02 153.4 377.02 153.4 374.91 144.12 374.91 144.12 391.27 153.61 391.27 153.61 389.16 146.47 389.16 146.47 384.07"/>
    <path class="cls-1" d="M165.32,383.5a4.1,4.1,0,0,0,2.74-4c0-2.83-2.07-4.58-5.37-4.58h-4.13v16.36h2.35v-7.1h1c1.2,0,2.19.38,4.34,3.74l2.16,3.36h2.81c-1.13-1.56-1.53-2.12-2.23-3.24C167.71,386,166.81,384.48,165.32,383.5Zm-2.9-1.44H160.9v-5.14h1.51c2.28,0,3.19.94,3.21,2.47C165.65,380.76,164.93,382.06,162.41,382.06Z"/>
    <polygon class="cls-1" points="188.32 387.57 177.24 374.91 175.37 374.91 175.37 391.27 177.57 391.27 177.57 378.68 188.5 391.27 190.52 391.27 190.52 374.91 188.32 374.91 188.32 387.57"/>
    <path class="cls-1" d="M201.74,374.82l-7,16.45h2.4l2.06-4.82h6.95l2.19,4.82h2.4l-7.32-16.45Zm-1.65,9.52,2.45-5.92,2.64,5.92Z"/>
    <polygon class="cls-1" points="211.12 377.02 216.78 377.02 216.78 391.27 219.13 391.27 219.13 377.02 224.79 377.02 224.79 374.91 211.12 374.91 211.12 377.02"/>
    <rect class="cls-1" x="229.42" y="374.91" width="2.35" height="16.36"/>
    <path class="cls-1" d="M245.85,374.7a8.4,8.4,0,1,0,0,16.79c5.54,0,8.85-4,8.85-8.39C254.65,378.53,251.24,374.7,245.85,374.7Zm0,14.63a6.24,6.24,0,1,1,6.38-6.23A6.13,6.13,0,0,1,245.85,389.33Z"/>
    <polygon class="cls-1" points="272.86 387.57 261.77 374.91 259.9 374.91 259.9 391.27 262.11 391.27 262.11 378.68 273.04 391.27 275.06 391.27 275.06 374.91 272.86 374.91 272.86 387.57"/>
    <path class="cls-1" d="M286.28,374.82l-7,16.45h2.4l2.06-4.82h7l2.18,4.82h2.4l-7.32-16.45Zm-1.66,9.52,2.45-5.92,2.64,5.92Z"/>
    <polygon class="cls-1" points="301.77 374.91 299.42 374.91 299.42 391.27 309.16 391.27 309.16 389.16 301.77 389.16 301.77 374.91"/>
    <path class="cls-1" d="M331.83,383.5a4.1,4.1,0,0,0,2.73-4c0-2.83-2.06-4.58-5.37-4.58h-4.13v16.36h2.35v-7.1h1c1.2,0,2.18.38,4.34,3.74l2.16,3.36h2.81c-1.13-1.56-1.53-2.12-2.23-3.24C334.22,386,333.31,384.48,331.83,383.5Zm-2.9-1.44h-1.51v-5.14h1.51c2.28,0,3.19.94,3.21,2.47C332.16,380.76,331.44,382.06,328.92,382.06Z"/>
    <polygon class="cls-1" points="344.25 384.07 350.94 384.07 350.94 381.96 344.25 381.96 344.25 377.02 351.17 377.02 351.17 374.91 341.89 374.91 341.89 391.27 351.39 391.27 351.39 389.16 344.25 389.16 344.25 384.07"/>
    <path class="cls-1" d="M361.51,374.82l-7,16.45h2.4l2.06-4.82h7l2.18,4.82h2.4l-7.32-16.45Zm-1.66,9.52,2.45-5.92,2.64,5.92Z"/>
    <polygon class="cls-1" points="377 374.91 374.65 374.91 374.65 391.27 384.39 391.27 384.39 389.16 377 389.16 377 374.91"/>
    <polygon class="cls-1" points="385.04 377.02 390.7 377.02 390.7 391.27 393.05 391.27 393.05 377.02 398.71 377.02 398.71 374.91 385.04 374.91 385.04 377.02"/>
    <polygon class="cls-1" points="413.17 374.91 408.73 380.55 404.35 374.91 401.52 374.91 407.58 382.61 407.58 391.27 409.94 391.27 409.94 382.63 416 374.91 413.17 374.91"/>
    <path class="cls-1" d="M104,301.65c0-4.24,4-7.16,9.54-7.16,4.06,0,9,1.42,14.13,6.27V291a24.09,24.09,0,0,0-13.43-4.24c-11,0-18.28,6.27-18.28,16.07,0,16.52,26.05,17.93,26.05,30.38,0,3.36-3.09,7.59-9.8,7.59-5.92,0-11.48-3.09-15.9-8.74V343a26.53,26.53,0,0,0,16.86,5.57c9.72,0,16.87-6.89,16.87-16.34C130.09,313,104,313.21,104,301.65Z"/>
    <path class="cls-1" d="M156.14,307.29c-11.84,0-20.93,8.83-20.93,20.23,0,12.19,8.74,21,20.93,21,12.72,0,21.46-8.48,21.46-21C177.6,315.77,168.59,307.29,156.14,307.29ZM156,341.48c-7.59,0-12.8-5.57-12.8-14,0-7.59,5.39-13.16,12.8-13.16,7.86,0,13.51,5.56,13.51,13.24C169.56,336.17,164.35,341.48,156,341.48Z"/>
    <path class="cls-1" d="M186.78,336.09c0,7.15,4.33,12.45,12.9,12.45a23.61,23.61,0,0,0,9.53-2.65v-7.33a17.11,17.11,0,0,1-8.92,2.92c-2.3,0-5.65-1.33-5.65-6V315.16h12.54v-7.07H194.64v-8.21L179.9,314.27v.89h6.89Z"/>
    <path class="cls-1" d="M241.09,323.19v24.56H249V323.46c0-10.86-5.74-16.16-13.51-16.16a15.33,15.33,0,0,0-11.83,6h-.18V287.52h-7.86v60.23h7.86V319.31c3.71-4.15,6.45-5.74,9.89-5.74C238.09,313.57,241.09,317.36,241.09,323.19Z"/>
    <path class="cls-1" d="M292.14,336.27c-4.6,3-9.1,4.77-13.87,4.77-7.59,0-12.1-4.06-13.33-11.92h27.9c0-14.66-6.71-21.81-17.22-21.81-11,0-18.54,8.13-18.54,20.14,0,11,6.89,21.1,19.25,21.1a25.83,25.83,0,0,0,15.81-4.68ZM275.8,314.1c5.56,0,9,3.79,9.28,9.8h-20C266.17,317.63,269.79,314.1,275.8,314.1Z"/>
    <path class="cls-1" d="M336,327.08c0-11.39-7.24-19.78-17.13-19.78a18.12,18.12,0,0,0-11,3.62v-23.4h-7.86v58a36.55,36.55,0,0,0,14.74,3C328.07,348.54,336,340.5,336,327.08Zm-20.14,14a31,31,0,0,1-7.95-1.24V318.42c3.36-3,5.74-4.06,9-4.06,6.63,0,11,5.48,11,13.86C328,335.74,323,341.12,315.89,341.12Z"/>
    <polygon class="cls-1" points="348.74 368.06 376.82 308.09 367.99 308.09 357.75 330.43 347.06 308.09 338.14 308.09 353.51 339.26 340 368.06 348.74 368.06"/>
    <path class="cls-1" d="M414.18,336.88c0-4.06-2.38-6.8-8.93-11.13-7-4.06-9.62-6.18-9.62-7.95,0-2.12,2-3.62,5.21-3.62,2.92,0,7.07,1.24,11.49,4.15v-7.77a24.6,24.6,0,0,0-11.66-3.27c-7.95,0-13.07,4.06-13.07,10.78,0,10.68,18.54,13.6,18.54,19.07,0,2.83-2.65,4.33-5.83,4.5-3.18,0-7.86-1.68-13-5.21v8.48c5.12,2.65,8.92,3.62,13.77,3.62C408.61,348.54,414.18,343.86,414.18,336.88Z"/>
    <rect class="cls-2" width="512" height="512"/>
  </g>
</svg>
