<?xml version="1.0" encoding="UTF-8" standalone="no"?>
<svg width="60px" height="60px" viewBox="0 0 60 60" version="1.1" xmlns="http://www.w3.org/2000/svg" xmlns:xlink="http://www.w3.org/1999/xlink" xmlns:sketch="http://www.bohemiancoding.com/sketch/ns">
    <g id="Page-1" stroke="none" stroke-width="1" fill="none" fill-rule="evenodd" sketch:type="MSPage">
        <g id="65---Profile-(Webby)" sketch:type="MSLayerGroup" transform="translate(1.000000, 1.000000)">
            <path d="M0,0 L58,0 L58,58 L0,58 L0,0 Z" id="Fill-1559" fill="#FFFFFF" sketch:type="MSShapeGroup"></path>
            <path d="M0,0 L58,0 L58,58 L0,58 L0,0 Z" id="Stroke-1560" stroke="#ef2678" stroke-width="2" sketch:type="MSShapeGroup"></path>
            <path d="M0,0 L58,0 L58,12 L0,12 L0,0 Z" id="Fill-1561" fill="#FFD5E6" sketch:type="MSShapeGroup"></path>
            <path d="M0,0 L58,0 L58,12 L0,12 L0,0 Z" id="Stroke-1562" stroke="#ef2678" stroke-width="2" sketch:type="MSShapeGroup"></path>
            <path d="M35,46 L22,46 M40,50 L17,50" id="Stroke-1563" stroke="#ef2678" stroke-width="2" stroke-linecap="round" sketch:type="MSShapeGroup"></path>
            <path d="M9,6 C9,7.657 7.657,9 6,9 C4.343,9 3,7.657 3,6 C3,4.343 4.343,3 6,3 C7.657,3 9,4.343 9,6 L9,6 Z" id="Fill-1564" fill="#FFFFFF" sketch:type="MSShapeGroup"></path>
            <path d="M9,6 C9,7.657 7.657,9 6,9 C4.343,9 3,7.657 3,6 C3,4.343 4.343,3 6,3 C7.657,3 9,4.343 9,6 L9,6 Z" id="Stroke-1565" stroke="#ef2678" stroke-width="2" sketch:type="MSShapeGroup"></path>
            <path d="M18,6 C18,7.657 16.657,9 15,9 C13.343,9 12,7.657 12,6 C12,4.343 13.343,3 15,3 C16.657,3 18,4.343 18,6 L18,6 Z" id="Fill-1566" fill="#FFFFFF" sketch:type="MSShapeGroup"></path>
            <path d="M18,6 C18,7.657 16.657,9 15,9 C13.343,9 12,7.657 12,6 C12,4.343 13.343,3 15,3 C16.657,3 18,4.343 18,6 L18,6 Z" id="Stroke-1567" stroke="#ef2678" stroke-width="2" sketch:type="MSShapeGroup"></path>
            <path d="M27,6 C27,7.657 25.657,9 24,9 C22.343,9 21,7.657 21,6 C21,4.343 22.343,3 24,3 C25.657,3 27,4.343 27,6 L27,6 Z" id="Fill-1568" fill="#FFFFFF" sketch:type="MSShapeGroup"></path>
            <path d="M27,6 C27,7.657 25.657,9 24,9 C22.343,9 21,7.657 21,6 C21,4.343 22.343,3 24,3 C25.657,3 27,4.343 27,6 L27,6 Z" id="Stroke-1569" stroke="#ef2678" stroke-width="2" sketch:type="MSShapeGroup"></path>
            <path d="M41,29 C41,35.627 35.627,41 29,41 C22.373,41 17,35.627 17,29 C17,22.373 22.373,17 29,17 C35.627,17 41,22.373 41,29 L41,29 Z" id="Fill-1570" fill="#FFFFFF" sketch:type="MSShapeGroup"></path>
            <path d="M41,29 C41,35.627 35.627,41 29,41 C22.373,41 17,35.627 17,29 C17,22.373 22.373,17 29,17 C35.627,17 41,22.373 41,29 L41,29 Z" id="Stroke-1571" stroke="#ef2678" stroke-width="2" sketch:type="MSShapeGroup"></path>
            <path d="M31.932,36.567 C31.485,36.344 31.202,35.886 31.202,35.386 L31.202,34.028 C31.3,33.918 31.411,33.775 31.53,33.607 C32.002,32.941 32.358,32.208 32.606,31.439 C33.049,31.302 33.377,30.892 33.377,30.405 L33.377,28.955 C33.377,28.636 33.235,28.351 33.014,28.152 L33.014,26.057 C33.014,26.057 33.445,22.795 29.028,22.795 C24.612,22.795 25.042,26.057 25.042,26.057 L25.042,28.152 C24.822,28.351 24.68,28.636 24.68,28.955 L24.68,30.405 C24.68,30.787 24.881,31.123 25.181,31.317 C25.543,32.894 26.492,34.028 26.492,34.028 L26.492,35.353 C26.492,35.836 26.228,36.28 25.804,36.512 L22.571,38.275 C22.35,38.396 22.153,38.546 21.974,38.714 C23.951,40.146 26.373,41 29,41 C31.623,41 34.041,40.149 36.016,38.722 C35.829,38.557 35.622,38.412 35.393,38.298 L31.932,36.567 L31.932,36.567 Z" id="Fill-1572" fill="#FFD5E6" sketch:type="MSShapeGroup"></path>
            <path d="M31.932,36.567 C31.485,36.344 31.202,35.886 31.202,35.386 L31.202,34.028 C31.3,33.918 31.411,33.775 31.53,33.607 C32.002,32.941 32.358,32.208 32.606,31.439 C33.049,31.302 33.377,30.892 33.377,30.405 L33.377,28.955 C33.377,28.636 33.235,28.351 33.014,28.152 L33.014,26.057 C33.014,26.057 33.445,22.795 29.028,22.795 C24.612,22.795 25.042,26.057 25.042,26.057 L25.042,28.152 C24.822,28.351 24.68,28.636 24.68,28.955 L24.68,30.405 C24.68,30.787 24.881,31.123 25.181,31.317 C25.543,32.894 26.492,34.028 26.492,34.028 L26.492,35.353 C26.492,35.836 26.228,36.28 25.804,36.512 L22.571,38.275 C22.35,38.396 22.153,38.546 21.974,38.714 C23.951,40.146 26.373,41 29,41 C31.623,41 34.041,40.149 36.016,38.722 C35.829,38.557 35.622,38.412 35.393,38.298 L31.932,36.567 L31.932,36.567 Z" id="Stroke-1573" stroke="#ef2678" stroke-width="2" sketch:type="MSShapeGroup"></path>
        </g>
    </g>
</svg>