<?xml version="1.0" encoding="utf-8"?>
<!-- Generator: Adobe Illustrator 18.1.1, SVG Export Plug-In . SVG Version: 6.00 Build 0)  -->
<!DOCTYPE svg PUBLIC "-//W3C//DTD SVG 1.1//EN" "http://www.w3.org/Graphics/SVG/1.1/DTD/svg11.dtd">
<svg version="1.1" id="XMLID_2_" xmlns="http://www.w3.org/2000/svg" xmlns:xlink="http://www.w3.org/1999/xlink" x="0px" y="0px"
	 viewBox="0 0 512 512" enable-background="new 0 0 512 512" xml:space="preserve">
<g id="Le-Temps">
	<path fill="#404065" d="M355.3562,235.5903c-5.925,0-6.5,1.0876-6.5,6.8794v14.5062h6.0957c7.7681,0,10.6428-3.212,10.6428-10.4932
		C365.5947,239.6595,362.6622,235.5903,355.3562,235.5903z"/>
	<path fill="#404065" d="M72,196.5251v118.9496h368V196.5251H72z M141.3918,277.443H104.859v-0.6884
		c5.9829-0.801,7.0751-0.9751,7.0751-6.5365v-28.4926c0-5.6204-1.0344-5.907-7.0751-6.4802v-0.6885h22.5508v0.6885
		c-6.9017,0.2303-7.65,1.0314-7.65,6.4802v28.5514c0,4.5863,0.9792,6.1348,5.6365,6.1348c7.3665,0,14.6146-6.4214,15.2473-16.8556
		h0.7483V277.443z M180.744,277.443h-37.6826v-0.6884c5.9829-0.801,7.0751-0.9751,7.0751-6.5365v-28.4926
		c0-5.6204-1.0344-5.907-7.0751-6.4802v-0.6885h36.9344v15.3098h-0.7456c-1.7273-10.1503-6.0406-14.2196-14.5017-14.2196
		c-5.5786,0-6.7864,0.86-6.7864,6.5365v12.0978h2.3601c5.177,0,8.8577-2.8663,9.4902-11.1227h0.6931v23.3331h-0.6931
		c-0.7456-9.0574-5.064-11.2942-9.4902-11.2942h-2.3601v15.0793c0,4.0131,0.7456,6.1348,6.3872,6.1348
		c7.7655,0,14.0923-5.1034,15.6465-16.111h0.7482V277.443z M237.2417,252.2168h-0.7483
		c-1.323-10.7207-5.2924-16.6277-11.5641-16.6277h-2.0713v34.6299c0,5.9631,1.4965,5.907,7.9387,6.5364v0.6886h-23.7006v-0.6886
		c6.4423-0.6294,7.936-0.5732,7.936-6.5364v-34.6299h-2.0687c-6.2716,0-10.2411,5.907-11.5641,16.6277h-0.7483v-17.6592h36.5906
		V252.2168z M276.594,277.443h-37.6853v-0.6884c5.9856-0.801,7.075-0.9751,7.075-6.5365v-28.4926
		c0-5.6204-1.0342-5.907-7.075-6.4802v-0.6885h36.937v15.3098h-0.748c-1.7249-10.1503-6.0381-14.2196-14.4966-14.2196
		c-5.5813,0-6.7915,0.86-6.7915,6.5365v12.0978h2.3601c5.1796,0,8.8628-2.8663,9.4928-11.1227h0.6904v23.3331h-0.6904
		c-0.7455-9.0574-5.0614-11.2942-9.4928-11.2942h-2.3601v15.0793c0,4.0131,0.7482,6.1348,6.3845,6.1348
		c7.7708,0,14.0975-5.1034,15.6516-16.111h0.7483V277.443z M331.4824,235.2454c-6.0433,0.5732-7.0803,0.8599-7.0803,6.4802v28.4926
		c0,5.5614,1.0947,5.7355,7.0803,6.5365v0.6884h-21.9812v-0.6884c5.9856-0.801,7.0803-0.9751,7.0803-6.5365v-33.1378
		l-13.4648,40.9923h-1.1499l-14.1526-40.9923v27.1746c0,9.0038,1.3231,12.3845,7.9387,12.4998v0.6884h-17.1428v-0.6884
		c6.613-0.1152,7.936-3.496,7.936-12.4998V241.897c0-5.6202-1.6091-6.1345-7.936-6.6516v-0.6885h16.4497l10.6454,31.0187
		l10.2987-31.0187h15.4785V235.2454z M355.3562,258.0072h-6.5v12.213c0,5.9633,1.4937,5.9043,7.9387,6.5339v0.6884h-22.8423v-0.6884
		c5.9829-0.801,7.0776-0.9751,7.0776-6.5339v-28.4951c0-5.6204-1.0343-5.907-7.0776-6.4802v-0.6859h21.9785
		c5.8674,0,18.2953,0.7448,18.2953,11.9238C374.2264,253.421,369.4537,258.0072,355.3562,258.0072z M394.593,278.303
		c-8.1121,0-12.8296-4.4148-14.5569-4.4148c-1.6671,0-2.1843,1.2617-2.9324,4.0129h-0.7483v-19.6067h0.7483
		c3.2788,13.1855,8.9729,18.9183,17.2582,18.9183c6.3872,0,9.955-3.839,9.955-8.9421c0-12.7273-27.2683-5.5614-27.2683-21.9589
		c0-6.3062,5.7518-12.6147,14.5516-12.6147c6.5604,0,9.6688,3.5549,11.6219,3.5549c1.6697,0,2.074-1.1467,2.6488-3.1531h0.7482
		v16.2258h-0.7482c-1.7274-7.2811-5.87-15.5375-14.1553-15.5375c-5.2347,0-9.3773,3.2683-9.3773,7.6241
		c0,11.0101,27.3286,4.1282,27.3286,21.616C409.667,271.8254,403.2222,278.303,394.593,278.303z"/>
	<rect fill="none" width="512" height="512"/>
</g>
</svg>
