<svg id="monochrome-midnight-blue" xmlns="http://www.w3.org/2000/svg" viewBox="0 0 512 512">
  <defs>
    <style>
      .cls-1 {
        fill: #404065;
      }

      .cls-2 {
        fill: none;
      }
    </style>
  </defs>
  <title>Medecins-sans-Frontieres-intl</title>
  <g>
    <g>
      <rect class="cls-1" x="143.5" y="297.5" width="331" height="1"/>
      <g>
        <polygon class="cls-1" points="304.87 282.44 304.91 282.44 307.7 293.39 312.97 293.39 317.34 276.25 313.38 276.25 310.53 287.4 310.49 287.4 307.83 276.25 302.49 276.25 298.12 293.39 302.07 293.39 304.87 282.44"/>
        <path class="cls-1" d="M292.42,288.44l.29,4.95h4.8c-.57-5.69-1.26-11.52-1.6-17.14h-5.43c-3.72,5.75-7.39,11.55-11.28,17.14h5l3-4.95Zm-.29-8.5h0l.3,4.91h-3.36Z"/>
        <path class="cls-1" d="M322,288.43a2.19,2.19,0,0,1-2.43,1.44,7.2,7.2,0,0,1-3.53-1l-1,4a15.49,15.49,0,0,0,4.58.85c4.69,0,6.19-2.11,6.68-4.45.85-4-3.92-6.17-3.36-8.39.23-.9,1.55-1.22,2.24-1.24a4.84,4.84,0,0,1,3,.87s.86-3.39.88-3.56a8.42,8.42,0,0,0-4.07-1c-4,0-6.12,2.41-6.5,4.44C317.73,284.38,322.48,286.59,322,288.43Z"/>
        <path class="cls-1" d="M280.49,289.24c.85-4-3.93-6.11-3.36-8.39.23-.9,1.55-1.22,2.24-1.24a4.86,4.86,0,0,1,3,.87s1.11-3.26,1.12-3.43a8,8,0,0,0-4.32-1.11c-4,0-6.12,2.41-6.5,4.44-.76,4,4,6.2,3.48,8a2.2,2.2,0,0,1-2.43,1.44,7.2,7.2,0,0,1-3.53-1l-1,4a15.48,15.48,0,0,0,4.58.85C278.5,293.7,280,291.58,280.49,289.24Z"/>
        <polygon class="cls-1" points="385.63 293.36 388.43 282.41 388.47 282.41 391.25 293.36 396.53 293.36 400.9 276.23 396.94 276.23 394.09 287.37 394.05 287.37 391.38 276.23 386.05 276.23 381.68 293.36 385.63 293.36"/>
        <polygon class="cls-1" points="342.02 286.58 347.49 286.58 348.43 282.9 342.96 282.9 343.73 279.9 350.25 279.9 351.2 276.22 340.16 276.22 335.77 293.35 340.29 293.35 342.02 286.58"/>
        <polygon class="cls-1" points="402.24 293.35 406.76 293.35 410.2 279.89 414.3 279.89 415.24 276.23 402.5 276.23 401.56 279.89 405.68 279.89 402.24 293.35"/>
        <polygon class="cls-1" points="416.97 293.36 421.35 276.23 416.83 276.23 412.45 293.36 416.97 293.36"/>
        <polygon class="cls-1" points="431.32 293.36 432.26 289.68 425.12 289.68 425.91 286.57 431.56 286.57 432.49 282.9 426.85 282.9 427.62 279.89 434.76 279.89 435.7 276.22 424.03 276.22 419.66 293.36 431.32 293.36"/>
        <polygon class="cls-1" points="460.12 293.36 461.06 289.67 453.92 289.67 454.71 286.57 460.49 286.57 461.43 282.9 455.64 282.9 456.41 279.89 463.56 279.89 464.5 276.22 452.84 276.22 448.45 293.36 460.12 293.36"/>
        <path class="cls-1" d="M382.05,285.3c1.67-6-1.14-9.35-6.24-9.35s-9.39,3.19-10.84,8.86,1.22,8.89,6.32,8.89A10.94,10.94,0,0,0,382.05,285.3Zm-12.57-.46c.67-2.65,2.64-5.14,5.38-5.14s3.42,2.36,2.78,5.11-2.83,5.13-5.4,5.13C369.51,289.94,368.81,287.48,369.48,284.84Z"/>
        <path class="cls-1" d="M471.92,275.92c-4,0-6.12,2.41-6.5,4.44-.76,4,4,6.2,3.48,8a2.19,2.19,0,0,1-2.43,1.44,7.18,7.18,0,0,1-3.52-1l-1,4a15.41,15.41,0,0,0,4.58.85c4.7,0,6.19-2.11,6.68-4.45.85-4-4-6.21-3.36-8.39.25-.89,1.54-1.22,2.24-1.23a4.85,4.85,0,0,1,3,.87s.87-3.39.89-3.56A8.43,8.43,0,0,0,471.92,275.92Z"/>
        <path class="cls-1" d="M353.09,293.36l2.33-9.14,1.51,9.14h4.86s-1.58-7.17-1.63-7.53a6.13,6.13,0,0,0,4.55-4.38c.87-3.39-.13-5.22-3.91-5.22h-7.66l-4.37,17.14Zm3.45-13.53h2.22c.65,0,2,0,1.58,1.82-.34,1.35-1.39,2.25-3.38,2.22h-1.45Z"/>
        <path class="cls-1" d="M437.93,293.36l2.34-9.15,1.52,9.15h4.86s-1.58-7.17-1.63-7.53a6.14,6.14,0,0,0,4.55-4.38c.87-3.39-.13-5.22-3.92-5.22H438l-4.37,17.14Zm3.46-13.54h2.22c.65,0,2,0,1.58,1.82-.35,1.35-1.39,2.25-3.38,2.21h-1.45Z"/>
        <polygon class="cls-1" points="208.01 293.36 208.95 289.69 201.8 289.69 202.6 286.59 208.42 286.59 209.36 282.92 203.53 282.92 204.3 279.91 211.44 279.91 212.38 276.24 200.72 276.24 196.35 293.36 208.01 293.36"/>
        <polygon class="cls-1" points="177.78 293.36 178.71 289.69 171.57 289.69 172.36 286.59 178.13 286.59 179.06 282.92 173.29 282.92 174.06 279.91 181.21 279.91 182.15 276.24 170.49 276.24 166.11 293.36 177.78 293.36"/>
        <path class="cls-1" d="M217.77,293.65a37.9,37.9,0,0,0,4.36-.49l1.09-4a16,16,0,0,1-4.49.69c-2.78,0-3.47-2.46-2.79-5.11a6.59,6.59,0,0,1,6.19-5.14,9.2,9.2,0,0,1,3.26.69l1-3.85a13.28,13.28,0,0,0-4-.59c-5.15,0-9.49,3.18-11,8.86S212.62,293.65,217.77,293.65Z"/>
        <polygon class="cls-1" points="228.89 293.36 233.26 276.24 228.75 276.24 224.38 293.36 228.89 293.36"/>
        <polygon class="cls-1" points="152.9 281.12 152.94 281.12 152.7 293.36 156.55 293.37 162.65 281.09 162.7 281.09 159.57 293.36 163.4 293.36 167.76 276.24 161.76 276.24 156.43 287 156.39 287 156.68 276.24 150.32 276.24 145.95 293.36 149.77 293.36 152.9 281.12"/>
        <polygon class="cls-1" points="235.55 293.36 238.34 282.43 238.39 282.43 241.17 293.36 246.44 293.36 250.81 276.24 246.85 276.24 244 287.38 243.97 287.38 241.3 276.24 235.98 276.24 231.59 293.36 235.55 293.36"/>
        <path class="cls-1" d="M187.32,293.37c4.95,0,8.23-3.6,9.51-8.58,1.85-7.24-2.08-8.55-4.19-8.55h-8.12l-4.37,17.13Zm.59-13.46h2.26c2.41,0,3,1.7,2.13,4.88-.65,2.52-2.44,4.91-4.93,4.91h-2Z"/>
        <path class="cls-1" d="M259.79,289.25c.85-4-3.94-6.13-3.36-8.39.23-.9,1.55-1.22,2.24-1.23a4.88,4.88,0,0,1,3,.87s.86-3.39.88-3.56a8.37,8.37,0,0,0-4.07-1c-4,0-6.12,2.41-6.51,4.44-.75,4,4,6.2,3.48,8a2.19,2.19,0,0,1-2.43,1.44,7.2,7.2,0,0,1-3.53-1l-1,4a15.46,15.46,0,0,0,4.58.85C257.8,293.7,259.29,291.58,259.79,289.25Z"/>
        <path class="cls-1" d="M237.5,306.78c-.76,4,4,6.2,3.47,8a2.2,2.2,0,0,1-2.43,1.44,7.15,7.15,0,0,1-3.52-1l-1,4a15.42,15.42,0,0,0,4.58.84c4.69,0,6.18-2.11,6.68-4.45.85-4-3.92-6.16-3.36-8.38.23-.9,1.55-1.22,2.24-1.23a4.83,4.83,0,0,1,3,.87s.86-3.39.88-3.56a8.4,8.4,0,0,0-4.07-1C240,302.34,237.89,304.74,237.5,306.78Z"/>
        <polygon class="cls-1" points="204.38 302.66 191.65 302.66 190.71 306.32 194.83 306.32 191.39 319.77 195.91 319.77 199.34 306.32 203.44 306.32 204.38 302.66"/>
        <path class="cls-1" d="M235,307.86c.86-3.39-.13-5.21-3.92-5.21h-7.65l-4.37,17.13h4.32l2.34-9.14,1.51,9.14h4.86s-1.58-7.17-1.63-7.53A6.13,6.13,0,0,0,235,307.86Zm-4.38.21c-.35,1.35-1.39,2.24-3.38,2.21h-1.45l1-4h2.22C229.73,306.24,231.12,306.24,230.66,308.07Z"/>
        <path class="cls-1" d="M175,311.19c-1.46,5.7,1.23,8.88,6.38,8.88a34.2,34.2,0,0,0,4.31-.37l1.08-4a16.08,16.08,0,0,1-4.44.58c-2.78,0-3.47-2.46-2.78-5.1a6.59,6.59,0,0,1,6.19-5.13,9.2,9.2,0,0,1,3.25.69l1-3.85a13.19,13.19,0,0,0-4-.59C180.82,302.33,176.49,305.51,175,311.19Z"/>
        <path class="cls-1" d="M151.37,302.65H143.6l-4.37,17.12h6.82c4.95,0,8.23-3.6,9.5-8.58C157.4,304,153.48,302.65,151.37,302.65ZM151,311.2c-.65,2.51-2.43,4.91-4.93,4.91h-1.61l2.49-9.78h1.92C151.31,306.32,151.85,308,151,311.2Z"/>
        <path class="cls-1" d="M167.45,302.34c-5,0-9.2,3.18-10.62,8.85s1.19,8.88,6.19,8.88c4.7,0,9-2.83,10.53-8.38C175.2,305.65,172.45,302.34,167.45,302.34Zm2,9c-.86,2.69-3.05,5-5.62,4.89-2.72-.12-3.32-2.61-2.53-5.22s2.87-5,5.6-4.89S170.23,308.65,169.47,311.37Z"/>
        <path class="cls-1" d="M213.44,302.34c-5,0-9.2,3.18-10.62,8.85s1.19,8.88,6.19,8.88c4.7,0,9-2.83,10.53-8.38C221.18,305.65,218.43,302.34,213.44,302.34Zm2,9c-.86,2.69-3.05,5-5.62,4.89-2.73-.12-3.32-2.61-2.53-5.22s2.87-5,5.6-4.89S216.21,308.65,215.46,311.37Z"/>
        <polygon class="cls-1" points="275.11 319.77 279.63 319.77 284 302.64 279.48 302.64 275.11 319.77"/>
        <polygon class="cls-1" points="349.45 306.32 353.58 306.32 350.14 319.77 354.65 319.77 358.09 306.32 362.19 306.32 363.13 302.66 350.4 302.66 349.45 306.32"/>
        <polygon class="cls-1" points="298.31 302.66 285.58 302.66 284.63 306.32 288.75 306.32 285.32 319.77 289.83 319.77 293.27 306.32 297.37 306.32 298.31 302.66"/>
        <path class="cls-1" d="M341.66,312.42c-.63,2.47-1.6,3.93-3.69,3.93s-2.31-1.46-1.68-3.93l2.51-9.77h-4.62l-3,11.62c-1.06,4.14,1.5,5.83,5.81,5.83s7.75-1.7,8.81-5.83l3-11.62h-4.62Z"/>
        <polygon class="cls-1" points="274.09 302.63 269.13 314.66 269.1 314.66 269.98 302.63 265.65 302.63 261.21 314.66 261.17 314.66 261.73 302.63 257.92 302.63 257.48 319.77 262.15 319.77 266.18 309.18 266.22 309.18 265.5 319.77 270.4 319.77 277.81 302.63 274.09 302.63"/>
        <polygon class="cls-1" points="309.7 302.63 308.06 309 302.56 309 304.2 302.63 299.92 302.63 295.52 319.77 299.8 319.77 301.62 312.68 307.12 312.68 305.3 319.77 309.58 319.77 313.98 302.63 309.7 302.63"/>
        <path class="cls-1" d="M324.07,302.34c-5,0-9.2,3.18-10.62,8.85s1.19,8.88,6.19,8.88c4.7,0,9-2.83,10.53-8.38C331.81,305.65,329.06,302.34,324.07,302.34Zm2,9c-.86,2.69-3.05,5-5.62,4.89-2.73-.12-3.32-2.61-2.53-5.22s2.87-5,5.6-4.89S326.84,308.65,326.09,311.37Z"/>
        <path class="cls-1" d="M428.31,302.65h-7.77l-4.37,17.12H423c4.95,0,8.23-3.6,9.5-8.58C434.34,304,430.42,302.65,428.31,302.65ZM428,311.2c-.65,2.51-2.43,4.91-4.93,4.91h-1.61l2.49-9.78h1.92C428.25,306.32,428.79,308,428,311.2Z"/>
        <path class="cls-1" d="M463,306.78c-.76,4,4,6.2,3.47,8a2.2,2.2,0,0,1-2.43,1.44,7.15,7.15,0,0,1-3.52-1l-1,4a15.43,15.43,0,0,0,4.58.84c4.69,0,6.18-2.11,6.68-4.45.85-4-3.92-6.16-3.36-8.38.23-.9,1.55-1.22,2.24-1.23a4.83,4.83,0,0,1,3,.87s.86-3.39.88-3.56a8.4,8.4,0,0,0-4.07-1C465.51,302.34,463.42,304.74,463,306.78Z"/>
        <path class="cls-1" d="M461.66,307.86c.86-3.39-.13-5.21-3.92-5.21h-7.65l-4.37,17.13H450l2.34-9.14,1.51,9.14h4.86s-1.58-7.17-1.63-7.53A6.13,6.13,0,0,0,461.66,307.86Zm-7.75,2.42h-1.45l1-4h2.22c.64,0,2,0,1.58,1.82C456.93,309.41,455.89,310.31,453.9,310.28Z"/>
        <path class="cls-1" d="M417.28,307.86c.86-3.39-.13-5.21-3.92-5.21h-7.65l-4.37,17.13h4.32l2.34-9.14,1.51,9.14h4.86s-1.58-7.17-1.63-7.53A6.13,6.13,0,0,0,417.28,307.86Zm-4.38.21c-.35,1.35-1.39,2.24-3.38,2.21h-1.45l1-4h2.22C412,306.24,413.37,306.24,412.91,308.07Z"/>
        <polygon class="cls-1" points="443.81 313.01 444.74 309.34 438.92 309.34 439.69 306.33 446.83 306.33 447.77 302.66 436.12 302.66 431.74 319.77 443.4 319.77 444.33 316.11 437.19 316.11 437.99 313.01 443.81 313.01"/>
        <path class="cls-1" d="M380.94,311V311a5.32,5.32,0,0,0,3.71-4.14c.79-3.08-.95-4.19-2.23-4.19h-8.66l-4.37,17.14h7.13c3.21,0,5.51-.82,6.48-4.57C383.63,312.81,382.71,311.24,380.94,311Zm-1.87,3.52c-.47,1.85-1.76,1.88-3.08,1.88h-1.55l.94-3.65h1.75C378.29,312.76,379.53,312.76,379.07,314.53Zm1.33-7.14c-.55,2.13-2,2-3.27,2h-.89l.87-3.39h1.27C379.37,306,380.75,306,380.4,307.39Z"/>
        <path class="cls-1" d="M395.61,302.34c-5,0-9.2,3.18-10.62,8.85s1.19,8.88,6.19,8.88c4.7,0,9-2.83,10.53-8.38C403.36,305.65,400.61,302.34,395.61,302.34Zm2,9c-.86,2.69-3.05,5-5.62,4.89-2.72-.12-3.32-2.61-2.53-5.22s2.87-5,5.6-4.89S398.39,308.65,397.63,311.37Z"/>
      </g>
      <g>
        <path class="cls-1" d="M133.52,292.65a1.09,1.09,0,0,1,0-.5l-.17-.27a4.44,4.44,0,0,0,.1-.61,4.27,4.27,0,0,0-.37-.8,3.33,3.33,0,0,1,0-.84,6.2,6.2,0,0,1-.37-.91c0-.14-.27-.57-.3-.74a3.46,3.46,0,0,1-.1-.67,3.54,3.54,0,0,0-.3-.87l-.27-.64s-.07-.4-.1-.54-.33-.64-.4-.88-.1-.91-.17-1.07-.4-.61-.51-.84a8,8,0,0,0-.54-.94c-.1-.13-.17-.87-.24-1a1.92,1.92,0,0,0-.37-.37,5.75,5.75,0,0,1-.37-.91c-.07-.17-.54-.37-.63-.54a4.31,4.31,0,0,1-.17-.94c0-.17-.44-.4-.54-.57s-.2-.57-.33-.81-1.24-1.58-1.34-1.78a6.34,6.34,0,0,0-1-.81,3.88,3.88,0,0,1-.47-.74,4.41,4.41,0,0,0-.94-.74c-.13-.06-.2-.4-.3-.54s-.54-.17-.57-.3a10.15,10.15,0,0,0-1-1.21c-.23-.23-.64-.18-.84-.47s-.37-.54-.64-.54-.34.44-.44.67l-.84,2c-.07.17-.47.78-.61,1a7,7,0,0,0-.26,1.11c-.1.37-1.11,2.18-1.21,2.51s-1.07,2.08-1.27,2.48-.61,1.74-.74,2-.61.87-.74,1.11a10,10,0,0,0-.4,1.11l-.34.74-.44,1s-.57.77-.77,1.14-.91,1.44-1.14,1.95l-.4.87-.5.84s-.47.92-.63,1.36-.88,1.36-1.08,1.76-.77,1.71-.84,1.91-.81,1.28-1.08,1.81-.49,1.21-.59,1.41a8.68,8.68,0,0,0-.59.84c-.1.27-1.17,2-1.44,2.38s-.77,1.58-1,1.88a17,17,0,0,0-.84,1.74,1.46,1.46,0,0,1-.74.79c-.16.06-.66.22-.87,0s.44-.78-.17-.9-.44.33-.64.49-.46.05-.75.22l-.57.31c-.25.14-.4-.1-.6-.1s-.34.28-.57.31-.35.27-.65.18c-.54-.15.24-.84-.18-1.23-.15-.14-.39.32-.62.28s-.24-.44-.52-.55-.5,0-.79-.07a1.94,1.94,0,0,1-.55-.44.63.63,0,0,0-.64-.05c-.32.16-.34,0-.71.31-.71.59-1,.26-.87-.18a.6.6,0,0,0-.39-.75c-.2,0-.59.33-.8.1s.11-.41-.12-.62-.49,0-.59-.15a4.31,4.31,0,0,1-.39-.49c-.11-.16-.72.12-1,0-.82-.27-.8-1.62-.86-2.26,0-.17-.34-.21-.88.11-.34.2-3.15,1.71-4.4,2.44S78.51,305,78,305.24a2.24,2.24,0,0,0-1.34,2.32,15.36,15.36,0,0,0,.92,6.24c1.18,3.29,2.91,4.82,4,5.37.46.24,1.67-.4,3.58-1.51s19.89-10.12,28.54-14.16c6-2.8,20-9.27,20.21-9.51a5.57,5.57,0,0,0-.37-.81C133.45,293.09,133.59,292.79,133.52,292.65Z"/>
        <path class="cls-1" d="M57.91,253.44c.12,0,.34.24.48.26s.34-.05.41,0c.22.17.18.39.31.59s.2.54.4.6.47,0,.54.24-.08.51.07.77c.38.66,0,2.52.39,2.65a2.55,2.55,0,0,0,1.7-.5,8.11,8.11,0,0,1,1.14-1,14.66,14.66,0,0,1,2-.87c.48-.1.73-.9,1.21-.94s.3-.42.64-.55,1-.48,1.17-.28a1.6,1.6,0,0,0,.59.47c.37.14.76,0,.83.36.1.6,1,.07,1,.07a16.93,16.93,0,0,1,1.58-.92c.47-.2,1.72-.85,1.72-.85l1.39-.71c15.12-7.26,27-11.27,38-15.51,17-6.6,46.55-14.17,52.16-15.57.59-.15,1.9-.35,2.06-.44a.89.89,0,0,0,.56-.7c.14-.54-.27-1.27-.27-1.54s.6-1.34.67-1.82a.46.46,0,0,0-.4-.53,3.06,3.06,0,0,0-.07-1c-.12-.43-.87-.81-1-1.14s0-1.34-.14-1.68a1.59,1.59,0,0,0-.54-.61.61.61,0,0,0,0-.47.4.4,0,0,0-.4-.27,3.44,3.44,0,0,0,.07-.87c-.06-.23-.4-.4-.4-.4s-.41-.27-.41-.54a.65.65,0,0,0-.27-.6,5.22,5.22,0,0,0-1-.2,2.29,2.29,0,0,0-1-.13,7.48,7.48,0,0,1-1.41.54,8.61,8.61,0,0,1-1.74.07c-.41.07-.87.34-1.34.47-4.56,1.19-25.51,7.29-40.95,13.09a433.15,433.15,0,0,0-41.89,18.59c-7.89,4.1-12.11,6.47-13.86,7.56a10,10,0,0,0-2,1.47c-.24.41-.51,1-1,1.11s-.55.44-.75.49a1.94,1.94,0,0,0-.71.5.51.51,0,0,0,0,.6C57.4,253.42,57.7,253.38,57.91,253.44Z"/>
        <path class="cls-1" d="M182.78,239.72c.76-.34,1.41-.58,1.14-2a30.16,30.16,0,0,0-2.4-7.08,24.24,24.24,0,0,0-3.72-5.5c-.51-.54-1-.55-2.11-.22-4.76,1.37-21.81,6.92-28,8.88-7.23,2.3-19.84,6.79-24.84,8.93-.81.34-1,.74-.35,1.16s.94.55,1.21.75,1.56,1,2.1,1.38a10.85,10.85,0,0,1,1.75,1.88,2.94,2.94,0,0,0,.94.88,3,3,0,0,1,.8.73l.54.61.62.57a6.8,6.8,0,0,0,.66.61,7.85,7.85,0,0,1,.76.76,4.1,4.1,0,0,0,.92.55c.27.14,1.14,1.34,1.41,1.55s1.27,1.41,1.48,1.61,2,1.81,2.15,2a13.33,13.33,0,0,0,.87,1.28c.94,1.07.71.79,2.1.09,3.28-1.65,13-6.3,18.25-8.8S177.5,242.08,182.78,239.72Z"/>
        <path class="cls-1" d="M203.9,254.22a26.4,26.4,0,0,0-2.35-6.85c-.52-.84-.92-1-1.95-.79-2.45.5-18.95,3.92-30.34,6.91s-24.58,7.12-26.78,8c-.59.23-1.26.3-.74.82s.74.93,1,1.06a11,11,0,0,1,1,.94,3.79,3.79,0,0,1,.66.87,5.9,5.9,0,0,0,.86,1c.2.14.69,1.29.89,1.43s.4.94.4.94a4.11,4.11,0,0,0,.47.94c.2.2.54.94.74,1.07a6.8,6.8,0,0,1,.54,1.66l22.63-.39s4.27-1.41,7.51-2.51c2.62-.89,9.74-3,12.42-3.73,2.33-.67,8-2.14,9.35-2.5,2.22-.6,3.15-.65,3.4-1.32A17.91,17.91,0,0,0,203.9,254.22Z"/>
        <path class="cls-1" d="M104.91,211.42c.08.18.07.37.15.53a5.18,5.18,0,0,0,.3.48c.13.21.24.69.38.83s.3.27.43.43a4.06,4.06,0,0,1,.4.78c.08.21.25.61.37.86s.64.78.84,1.13a2.66,2.66,0,0,0,1,.78c.38.16.41.75.63.86a2.21,2.21,0,0,0,1.16,0c.3-.1,1.16.2,1.39.13a.69.69,0,0,0,.3-.15.55.55,0,0,1,.58,0c.16.14.06.32.15.43s.72.2,1.36.18a3.21,3.21,0,0,0,1.56-.55,2.3,2.3,0,0,0,.65-.93c.09-.28.63-.41.91-.88s.62,0,.93-.48c.19-.31.34-.65.53-.93s.83-.73,1.11-1,1.83-2.44,2-2.69.64-1.11.77-1.31a22.94,22.94,0,0,0,1-2.39c.05-.28.33-1.19.43-1.56s0-1.29.15-1.76a8.58,8.58,0,0,0,.33-1.79,13.54,13.54,0,0,0-.43-1.94,2.32,2.32,0,0,0-.1-.83c-.07-.23-.21-.26-.26-.36s-.13-.74-.17-.9c-.16-.65-.75-.91-.78-1.23,0-.52-.42-.64-.5-1a2.06,2.06,0,0,0-.5-.81,3.92,3.92,0,0,0-.15-.5,16.71,16.71,0,0,0-2.24-2.17c-.15,0-.37-.32-.58-.38s-.5,0-.91,0a1,1,0,0,1-.63-.3,2.44,2.44,0,0,0-1,.05c-.2,0-.35.45-.58.4a1.4,1.4,0,0,0-1,.28,1.43,1.43,0,0,0-.61.12,2.55,2.55,0,0,0-.35.33l-.33.33a1.41,1.41,0,0,0-.6.15c-.31.2-1.29.88-1.43,1s-1,.73-1.33,1a24.81,24.81,0,0,0-2,2c-.3.38-1.06,1.51-1.26,1.84a16.82,16.82,0,0,0-.75,1.71,18.37,18.37,0,0,0-.58,2c-.13.58-.6,1.81-.68,2.19s-.26.72-.35,1.08a14.78,14.78,0,0,0-.1,2.09,15.6,15.6,0,0,0,.1,2.26C104.6,211,104.83,211.23,104.91,211.42Z"/>
        <path class="cls-1" d="M88.44,294.7c.07-.2.13-.95.2-1.21s.34-.6.54-1.07.6-1.75.94-2.49a7.43,7.43,0,0,0,.74-2A7.79,7.79,0,0,1,91.6,286c.2-.4.81-2.41.94-2.82s.87-1.61,1-1.95.6-1.81.87-2.82a30.26,30.26,0,0,1,1.81-4.29,11.31,11.31,0,0,0,.81-2.42,7.15,7.15,0,0,1,.74-1.28l.27-1.14s.54-.8.67-1.07.67-2.06.81-2.33.94-1.76,1.07-2.16a18,18,0,0,0,.64-1.76,10.88,10.88,0,0,1,.91-2,15,15,0,0,0,.85-2.64,13.51,13.51,0,0,1,1.43-3.07,4.86,4.86,0,0,0,.39-1.56c.07-.27.42-.65.55-1.05a8.61,8.61,0,0,0,.15-1.26c.07-.4.25-.48.25-.69s.2-.47-.34-.47a10.85,10.85,0,0,0-2.75,1c-1.08.47-10,4.7-15.45,7.38s-15.55,7.59-22,10.91C59.21,271.61,49,277,46.09,278.73c-1.55.89-3.47,2.07-4.28,2.51a2.92,2.92,0,0,0-1.32,2.29,26.27,26.27,0,0,0,.76,4.59A25.83,25.83,0,0,0,43.14,293c.4.88,1,1.19,2.51.67.94-.33,4.91-1.94,7.15-2.86,1.85-.76,4.59-1.73,7.1-2.62S69.16,285,69.16,285s-8.67,4.56-9.87,5.18c-4.23,2.19-17.41,9.14-19.08,10.1-3.39,2-4.36,2.39-4.2,4.7a17.87,17.87,0,0,0,1.75,5.91,13.82,13.82,0,0,0,3.76,4.88c1.1.74,2.62-.42,3.76-1l22-10.43c2.55-1.21,20.61-9,20.94-9.13C88.24,295.24,88.38,294.9,88.44,294.7Z"/>
      </g>
    </g>
    <rect class="cls-2" width="512" height="512"/>
  </g>
</svg>
