<svg id="monochrome-midnight-blue" xmlns="http://www.w3.org/2000/svg" viewBox="0 0 512 512">
  <defs>
    <style>
      .cls-1 {
        fill: #404065;
      }

      .cls-2 {
        fill: none;
      }
    </style>
  </defs>
  <title>Medecins-sans-Frontieres</title>
  <g id="Medecins-sans-Frontieres.svg">
    <path class="cls-1" d="M183.45,211.53c.35.24.74.36.93.65s.17.56.55.67c.59.17.66,0,1.73,0a7.79,7.79,0,0,0,1.13.08c.36-.08.58-.29.88-.1s.13.19.25.4,1.2.29,1.48.27a2.93,2.93,0,0,0,2.46-1.22,4.28,4.28,0,0,1,1.53-1.61c.4-.17.47-.1.64-.24a6.75,6.75,0,0,0,.86-1.27c.11-.16.95-.9,1.45-1.37,2.5-2.33,5.85-9.56,5.09-13.61a20.68,20.68,0,0,0-1.28-4.45,5.08,5.08,0,0,1-.69-1c0-.1,0-.2-.08-.3-.47-1.65-3.41-5.28-5.07-5.3a3.13,3.13,0,0,1-.47,0c-.14,0-.7-.31-.88-.34a3.17,3.17,0,0,0-1.11.1,7.67,7.67,0,0,1-1.91.74c-.32.08-.44,0-.68.22s-.42.42-.62.56-.66.27-1,.42c-3,1.32-6.42,5.33-7.53,8.25a54.57,54.57,0,0,0-2.08,7.39C179.07,203.69,180.4,209.46,183.45,211.53Z"/>
    <path class="cls-1" d="M225.74,261.72c-1,.31-3.75,1.19-3.83,1.52s.74,1.09.92,1.27c.56.55,1.44,1.31,1.68,1.6a29,29,0,0,1,5.19,9s25.94-.42,26.11-.46c12.66-4.32,23.51-7.53,36.48-10.78.57-.21.95-.33,1.14-.8,1.83-4.35-.13-12.94-2.44-16.69-.67-1.08-1.43-1.07-2.76-.76-2.53.59-18.37,4-22.37,4.9C251.61,253.88,239.68,257.22,225.74,261.72Z"/>
    <path class="cls-1" d="M199.5,241.7c-.1.28.13.52.27.64s3.84,2.49,4.17,2.76a4.86,4.86,0,0,1,.65.61c1.07,1.2,1.08,1.55,2,2.25s.58.42,1.54,1.48c.31.34,1.79,1.61,2.06,1.91a2.69,2.69,0,0,0,.84.76c.14.08,6.64,6.52,6.75,6.67.52.71,1.17,2,1.94,1.94.11,0,16.34-7.91,17.23-8.38,4.1-2,7.58-3.58,11.72-5.47,6.61-2.92,19.08-8.54,20.35-9.07s1.79-.83,1.71-2c-.21-3.32-4.15-13.2-7.43-15.17-.8-.48-1.66-.16-2.67.13C252.17,223.23,200.26,239.67,199.5,241.7Z"/>
    <path class="cls-1" d="M124.91,253.39c.15,0,.32.06.46.11s.32.19.46.23c.41.12.47,0,.67.25s.41,1,.63,1.12.53.13.63.29l0,.08c.06.15.35,2.12.35,2.38s-.11,1.25.16,1.45.81,0,1.07,0c1.09-.29,1-.74,2.36-1.64l3.28-1.85c.2-.13.66-.3.72-.36a1.83,1.83,0,0,0,.19-.27c.21-.3.51-.39,1-.53s.45,0,.92.34c1,.73,1.74,1.24,2.86.42a14.35,14.35,0,0,1,1.47-.82A502.94,502.94,0,0,1,245.6,218c.68-.13,6.36-1.51,6.5-1.58.82-.43.6-1.35.33-2.42a.28.28,0,0,1,0-.22l.65-1.84a.58.58,0,0,0,0-.15c0-.41-.19-.39-.37-.65a4.52,4.52,0,0,1-.19-1.14.7.7,0,0,0-.15-.27c-.33-.39-.82-.74-1-1-.05-.11-.18-1.83-.23-1.94a6.55,6.55,0,0,0-.41-.54.67.67,0,0,1-.09-.14c-.07-.16-.13-.62-.17-.68s-.24-.14-.29-.2a.72.72,0,0,1,0-.33c0-.42.1-.62-.14-.85s-.59-.31-.72-.76c-.27-.86-1.69-1.29-2.69-1.14-.18,0-1.25.49-1.64.59a6.39,6.39,0,0,1-1.12.1,3.7,3.7,0,0,0-2.31.48c-.29.12-9.19,2.65-10.6,3a456,456,0,0,0-101.43,42.29,8.74,8.74,0,0,0-2,1.44c-.39.5-.47.88-.82,1.12-.13.09-.56.24-.88.38a11.29,11.29,0,0,0-1.2,1,.7.7,0,0,0,0,.72A.42.42,0,0,0,124.91,253.39Z"/>
    <path class="cls-1" d="M160.62,301.29c.12-.47.26-1.45.36-1.73s.39-.79.61-1.22.8-2.16,1.22-3.16c.15-.34.3-.65.42-1,.2-.55.38-1.47.55-1.94l8.88-22.16L177,259.62c.65-2.05.57-2.61,1.73-4.57.18-.31,1.57-4.69,1.62-5,.09-.61.66-1.34.06-1.49a2.75,2.75,0,0,0-1.13.19c-.8.3-1.47.57-2.25.93-23.52,10.92-43.08,20.79-65.85,33.21-1.58.89-2.89,1.67-4.43,2.63a3.07,3.07,0,0,0-1.58,2.91,26,26,0,0,0,3.11,10.77c.66,1.17,1.52,1.06,2.88.71.3-.08,6.54-2.55,8.65-3.43l16.33-5.74a1.88,1.88,0,0,1,.36-.08s0,0,0,.06a.25.25,0,0,1-.14.08c-.17,0-24.62,13-26.63,14l-8.09,4.56a3.12,3.12,0,0,0-1.6,2.56c-.22,3.33,1.77,7.94,3.87,10.76.57.77,1.88,2.47,3,2.76a2.59,2.59,0,0,0,1.52-.15c.25-.08,25.18-11.76,28.34-13.28,8.15-3.59,15-6.58,23.23-10.1C160.4,301.74,160.52,301.66,160.62,301.29Z"/>
    <path class="cls-1" d="M213.17,300.22s-.29-.62-.38-.86a3.06,3.06,0,0,1-.07-1.13c0-.19,0-.19-.1-.41s.06-.54,0-.76-.39-.86-.42-1,0-.51,0-.76a1.48,1.48,0,0,0-.1-.38l-1.6-4.84-.67-2.16c-.06-.18-1.1-1.88-1.16-2.07-1.14-3.46-4.72-9.23-8.37-11.53-.12-.08-1.11-1.28-1.27-1.4s-.83-.44-.92-.53c-.28-.26-.49-.76-.92-.65a.37.37,0,0,0-.22.15c-.09.12-1.17,2.82-1.35,3.14s-.45.7-.55.93a7,7,0,0,0-.32,1.24c-1.06,4.26-9,17.85-11,21.66l-7.55,14.21c-1.39,2.2-1.24-.06-1.73-.29-.67-.3-.53.22-.91.5a4.7,4.7,0,0,1-2.13.55c-.07,0-.87.43-1.08.49s-.47,0-.48-.25c0-.12.09-.45.11-.63a.43.43,0,0,0-.15-.38c-.16-.16-.22-.06-.53.1s-.33,0-.53-.27a7.51,7.51,0,0,0-3-.76c-.36.16-1,.76-1.28.4-.11-.14-.06-.5-.11-.76a.5.5,0,0,0-.43-.42c-.43,0-.78.18-.86,0s0-.46-.17-.59-.64-.21-.72-.27-.22-.38-.46-.5a.41.41,0,0,0-.15,0c-.54,0-.83.11-1.1,0a1.68,1.68,0,0,1-.63-1.08c-.1-.38-.18-1.33-.23-1.41a.33.33,0,0,0-.21-.11,1.84,1.84,0,0,0-.72.21c-.32.13-9.77,5.43-10.06,5.64-1,.72-1.37,1.09-1.49,2.23-.33,3.18,1.25,12.48,5.64,13.7a2,2,0,0,0,1.49-.23l43.45-21.26c1.47-.74,14.15-6.7,14.48-6.82A7,7,0,0,0,213.17,300.22Z"/>
    <path class="cls-1" d="M257,284.36a9,9,0,0,1,.39-1h5.78c.38,0,1.4,0,3,.12l1-3.71H254.6c-2.2,8.53-4.17,15.31-5.86,20.31h12.59l1.11-4h0q-1.44.16-3.07.23t-3.45.07c-.9,0-1.68,0-2.39-.06l.11-.43c.22-.89.47-1.72.72-2.52l.65-2.12h5.61a21.09,21.09,0,0,1,2.41.09l1-3.84h0c-.48.06-1,.09-1.43.11s-1,0-1.44,0H256l.56-2C256.73,285.18,256.86,284.74,257,284.36Z"/>
    <path class="cls-1" d="M231.07,307.38c0-.57,0-1.13,0-1.7h-5.11q-.39.82-.74,1.44c-.23.41-.43.75-.61,1l-11.37,17.67h3.88a27,27,0,0,1,1.65-3l3.11-4.93h5.88l.33,5.6a19,19,0,0,1-.15,2.37H232l-.92-16.73C231,308.53,231.07,307.95,231.07,307.38Zm-7.35,7.21,3.77-6.17.29,6.17Z"/>
    <path class="cls-1" d="M254,306.75l.37-1.07h-3.5c-.1.4-.17.79-.26,1.16-.16.64-.32,1.25-.49,1.84s-.33,1.16-.5,1.72l-3.47,12.17-2.11-16.88h-5.62q-1,3.49-1.83,6.5c-1.71,6-3.06,10.56-4.14,13.64H236c.24-.93.5-1.92.78-3s.59-2.15.92-3.3l3.1-10.77,1.39,11.44c.11,1,.23,1.94.32,2.87s.16,1.83.18,2.73h5.9c.1-.41.19-.81.28-1.18s.17-.72.24-1c.12-.47.23-.89.33-1.26s.2-.7.28-1L253,309.87C253.33,308.87,253.68,307.82,254,306.75Z"/>
    <path class="cls-1" d="M356.92,309.05l1-3.38H344.44l-1,3.38h0c1-.09,1.92-.14,2.84-.16l.91,0c.41,0,.82,0,1.22,0-1.52,5.75-3.25,11.41-5.18,16.91h4c.12-.58.27-1.19.43-1.83.32-1.28.7-2.74,1.18-4.35l3.11-10.74c.52,0,1,0,1.57,0A32.31,32.31,0,0,1,356.92,309.05Z"/>
    <path class="cls-1" d="M375.86,313.34c-.47.06-.95.09-1.43.11s-1,0-1.44,0h-5.16l.56-1.95a17,17,0,0,1,.79-2.28h6.18c.52,0,1.39,0,2.58.12l1-3.68H366.42q-1.64,6.34-3.11,11.38t-2.73,8.76h12.57l1.11-4a59.65,59.65,0,0,1-6.51.3c-.89,0-1.68,0-2.39-.06l.11-.43c.22-.88.47-1.7.72-2.49l.65-2.1h5.59a21.26,21.26,0,0,1,2.4.09h0Z"/>
    <path class="cls-1" d="M413.64,309a4.21,4.21,0,0,1,2.25-.55,5.13,5.13,0,0,1,.81.07,10.28,10.28,0,0,1,2.61.88l.68-3.59a19.82,19.82,0,0,0-4.12-.49h0a9.11,9.11,0,0,0-2.54.33,5.91,5.91,0,0,0-4,3.49,7.51,7.51,0,0,0-.36,1.1,6.32,6.32,0,0,0-.2,1.44,4.81,4.81,0,0,0,.66,2.49,10.1,10.1,0,0,0,.84,1.25l2.85,3.68a3.22,3.22,0,0,1,.3.48,2.54,2.54,0,0,1,.19.48,1.79,1.79,0,0,1,0,.89,2.32,2.32,0,0,1-.39.83,2.53,2.53,0,0,1-.69.63,4,4,0,0,1-2.15.55,9.14,9.14,0,0,1-4.58-1.64l-.76,3.89a8.71,8.71,0,0,0,4.76,1.09h0a7.66,7.66,0,0,0,5.68-2.26,6.67,6.67,0,0,0,.72-.91,6.87,6.87,0,0,0,.94-2.15,5.61,5.61,0,0,0,.18-1.37,4.71,4.71,0,0,0-.18-1.27,7.32,7.32,0,0,0-1.34-2.48l-3.11-4.08a1.53,1.53,0,0,1-.21-1.31A2.4,2.4,0,0,1,413.64,309Z"/>
    <path class="cls-1" d="M360.37,315.61l1.67-5.73c.38-1.34.86-2.74,1.37-4.2h-4c-2.28,8.82-4.28,15.54-5.87,20.14h4c.13-.58.26-1.12.38-1.61l.33-1.34c.11-.46.21-.83.3-1.17l.1-.35Z"/>
    <path class="cls-1" d="M318.58,305.92a10.44,10.44,0,0,0-4-.67,11.53,11.53,0,0,0-6.08,1.67,12.89,12.89,0,0,0-4.44,4.69,17.79,17.79,0,0,0-1.79,4.56c-.79,3.21-.56,5.73.65,7.44a5.6,5.6,0,0,0,2.53,2,8.53,8.53,0,0,0,1.8.5,12.77,12.77,0,0,0,2.15.17h0a12.22,12.22,0,0,0,2.18-.19c4.92-.89,8.67-4.81,10.12-10.7C322.93,310.51,321.82,307.25,318.58,305.92Zm-.71,9.46a12.29,12.29,0,0,1-2,4.42,6.91,6.91,0,0,1-5.78,2.91,4.49,4.49,0,0,1-3.08-1,3.24,3.24,0,0,1-.62-.74c-.68-1.12-.79-2.76-.28-4.85a11.1,11.1,0,0,1,2.85-5.44,6.67,6.67,0,0,1,4.76-1.89c2.33,0,3.76.9,4.25,2.62a6.33,6.33,0,0,1,.13,2.45A12.13,12.13,0,0,1,317.87,315.38Z"/>
    <path class="cls-1" d="M285.76,313.34h0c-.41,0-.85.08-1.33.1s-1,0-1.54,0h-4.16l.56-1.95a17,17,0,0,1,.79-2.28h4.75c.38,0,1.4,0,3,.12h0l.53-1.84.53-1.84H277.31q-1.23,4.76-2.37,8.78-1.89,6.7-3.48,11.36h3.86c.16-.76.34-1.49.52-2.22.39-1.58.8-3,1.23-4.44l.32-1,.32-1h5.79c.4,0,.79,0,1.19.08l1.07-3.8Z"/>
    <path class="cls-1" d="M288,279.78q-.82,3.2-1.6,6.07-.39,1.43-.77,2.79-.76,2.71-1.47,5.08-.36,1.19-.7,2.29-.69,2.21-1.32,4.08h12.59l1.11-4h0q-1.44.16-3.07.23t-3.45.07l-1.27,0-1.13,0,.11-.43c.22-.89.47-1.72.72-2.52l.65-2.12H294a21.08,21.08,0,0,1,2.41.09l1-3.84a22.23,22.23,0,0,1-2.87.12h-5.17l.56-2a17.19,17.19,0,0,1,.8-2.3h5.78l1,0,1.95.1,1-3.71Z"/>
    <path class="cls-1" d="M344.51,289.57l2.85,3.71a2.29,2.29,0,0,1,.51,1.87c-.3,1.23-1.5,2-3.24,2a9.12,9.12,0,0,1-4.58-1.66l-.76,3.93a4,4,0,0,0,.79.43,8.91,8.91,0,0,0,2.42.59,13.77,13.77,0,0,0,1.57.09h0a8.74,8.74,0,0,0,2.65-.39,6.87,6.87,0,0,0,4.71-5,5.1,5.1,0,0,0-.51-3.9,9.73,9.73,0,0,0-.83-1.26L347,285.92a1.55,1.55,0,0,1-.21-1.32,2.43,2.43,0,0,1,.39-.85,2.5,2.5,0,0,1,.7-.65,4.2,4.2,0,0,1,2.26-.56,5.13,5.13,0,0,1,.81.07,10.24,10.24,0,0,1,2.62.88l.69-3.62a19.75,19.75,0,0,0-4.13-.49,8.21,8.21,0,0,0-3.62.75,6.08,6.08,0,0,0-3.26,4.22,6.43,6.43,0,0,0-.2,1.45,4.62,4.62,0,0,0,.16,1.29A7.26,7.26,0,0,0,344.51,289.57Z"/>
    <path class="cls-1" d="M299.27,290.4a17.93,17.93,0,0,0-.42,2.33,7.71,7.71,0,0,0,.94,5.22,6,6,0,0,0,4.23,2.44,12.8,12.8,0,0,0,2.13.17,20.71,20.71,0,0,0,2.26-.14c.77-.08,1.54-.2,2.33-.32l.71-2.1.71-2.1h0a15.94,15.94,0,0,1-4.48.74,8.76,8.76,0,0,1-1.43-.11,3.82,3.82,0,0,1-3.33-2.56,7.48,7.48,0,0,1,.08-4.05,12.24,12.24,0,0,1,1.16-3,7.81,7.81,0,0,1,4.07-3.66,7.41,7.41,0,0,1,1.32-.36,8.23,8.23,0,0,1,1.43-.12,11.36,11.36,0,0,1,3,.4,10.09,10.09,0,0,1,1.5.52h0l.4-1.93.4-1.93q-1.23-.23-2.24-.34a16.06,16.06,0,0,0-1.8-.11h0a12.45,12.45,0,0,0-8.35,2.86,13.93,13.93,0,0,0-3.85,5.69A20.89,20.89,0,0,0,299.27,290.4Z"/>
    <path class="cls-1" d="M391.91,312.94a8.23,8.23,0,0,0,.73-1.91c.59-2.4.2-4.11-.9-4.84a2.4,2.4,0,0,0-.6-.29,5.53,5.53,0,0,0-1.51-.22h-8.44c-2.27,8.76-4.26,15.48-5.85,20.14h4c1-3.62,1.5-5.66,1.65-6.14l2.19-7.82c.14-.52.29-1,.46-1.49s.34-.93.53-1.37c.81-.06,1.56-.09,2.19-.09l.82,0a3.17,3.17,0,0,1,1.66.41c.47.34.58.94.33,1.94a3.84,3.84,0,0,1-1.52,2.34,5.24,5.24,0,0,1-3,.79,7.78,7.78,0,0,1-1.45-.12l1.26,11.53h4q-.37-2.28-.67-4.52t-.54-4.43a10.69,10.69,0,0,0,2-1A7.91,7.91,0,0,0,391.91,312.94Z"/>
    <path class="cls-1" d="M301.37,306.19a2.4,2.4,0,0,0-.6-.29,5.53,5.53,0,0,0-1.51-.22h-8.44q-1.28,4.93-2.43,9c-1.28,4.52-2.43,8.23-3.42,11.14h4l.91-3.41.22-.84c.27-1,.44-1.65.51-1.9l2.19-7.82c.14-.52.29-1,.46-1.49s.34-.93.53-1.37c.81-.06,1.56-.09,2.19-.09a6.68,6.68,0,0,1,2.06.22c.81.28,1.06.9.75,2.15a3.84,3.84,0,0,1-1.52,2.34,5.24,5.24,0,0,1-3,.79,7.78,7.78,0,0,1-1.45-.12L294,325.81h4q-.37-2.28-.67-4.52t-.54-4.43a10.71,10.71,0,0,0,2-1,7.91,7.91,0,0,0,2.73-2.93,8.23,8.23,0,0,0,.73-1.91C302.87,308.63,302.47,306.92,301.37,306.19Z"/>
    <path class="cls-1" d="M262.21,305.28h0a7.54,7.54,0,0,0-4.54,1.3,5.69,5.69,0,0,0-.8.7,6.49,6.49,0,0,0-1.53,2.92,6.36,6.36,0,0,0-.2,1.44,5.79,5.79,0,0,0,1.5,3.73l2.85,3.68a2.93,2.93,0,0,1,.39.72,1.91,1.91,0,0,1,.12,1.13,2.32,2.32,0,0,1-.73,1.14,3,3,0,0,1-1.3.72,4.78,4.78,0,0,1-1.2.14,9.14,9.14,0,0,1-4.58-1.64l-.76,3.89a8.71,8.71,0,0,0,4.76,1.09,8.33,8.33,0,0,0,3.79-.86,6.9,6.9,0,0,0,1.89-1.4,6.79,6.79,0,0,0,1.66-3.06,5.63,5.63,0,0,0,.18-1.37,6,6,0,0,0-1.52-3.74l-3.1-4.08a1.53,1.53,0,0,1-.21-1.31c.31-1.25,1.47-2,3.34-2a5.85,5.85,0,0,1,1.64.26,13.16,13.16,0,0,1,1.78.69l.68-3.59c-.72-.15-1.41-.27-2.1-.36A16.64,16.64,0,0,0,262.21,305.28Z"/>
    <path class="cls-1" d="M339.53,305.67c-.1.4-.17.79-.26,1.16-.16.64-.32,1.25-.49,1.84s-.33,1.16-.5,1.72l-3.47,12.17-2.11-16.88h-5.62l-.95,3.37q-1.37,4.87-2.48,8.65c-1,3.36-1.83,6.06-2.55,8.12h3.5c.48-1.86,1-4,1.7-6.27l3.1-10.77,1.39,11.44c.23,2,.47,3.8.51,5.6h5.9c.1-.41.19-.81.28-1.18s.17-.72.24-1c.12-.47.23-.89.33-1.26s.2-.7.28-1l3.32-11.47c.19-.67.41-1.35.64-2.05s.48-1.41.73-2.14Z"/>
    <path class="cls-1" d="M321.5,296.49q-.64,2-1.18,3.6h3.51c.24-.94.5-1.93.78-3s.59-2.17.92-3.33l3.1-10.86L330,294.45c.23,2,.47,3.84.51,5.65h5.91c.1-.41.19-.81.28-1.19s.17-.73.25-1.05c.12-.48.23-.9.33-1.27s.2-.71.28-1L340.91,284c.19-.67.41-1.37.64-2.07s.48-1.43.74-2.16h-3.51c-.1.4-.17.8-.26,1.17-.16.64-.32,1.26-.49,1.85s-.33,1.17-.5,1.74l-1.74,6.14-1.74,6.14L333,288.29l-1.06-8.51h-5.63q-1.47,5.28-2.66,9.46-.8,2.79-1.48,5.08Q321.82,295.47,321.5,296.49Z"/>
    <path class="cls-1" d="M396,319.15l.65-2.1h5.59a21.25,21.25,0,0,1,2.4.09l1-3.8h0c-.48.06-.95.09-1.43.11s-1,0-1.44,0h-5.16l.56-1.95a17,17,0,0,1,.79-2.28h5.77l1,0,1.94.1h0l1-3.68H396.24q-2.06,7.93-3.83,13.82-1.06,3.53-2,6.32H403l1.11-4a59.65,59.65,0,0,1-6.51.3c-.89,0-1.68,0-2.39-.06l.11-.43C395.5,320.76,395.75,319.94,396,319.15Z"/>
    <path class="cls-1" d="M315.26,294q-1.06,3.51-2,6.12h4c.13-.58.26-1.13.38-1.63l.33-1.35c.15-.61.27-1.1.4-1.53L321.77,284c.38-1.35.86-2.76,1.37-4.23h-4q-1.71,6.67-3.2,11.75Q315.61,292.8,315.26,294Z"/>
    <path class="cls-1" d="M280,295.57a17.52,17.52,0,0,0,2.94-6.43,17,17,0,0,0,.44-2.54,10.86,10.86,0,0,0,0-2.19,5.75,5.75,0,0,0-1.29-3.21,4.49,4.49,0,0,0-3.44-1.38c-.47,0-1,0-1.51,0h-7.68q-1.28,5-2.43,9.07c-1.28,4.56-2.43,8.3-3.42,11.24h7.78A10.17,10.17,0,0,0,277,298.4,12.09,12.09,0,0,0,280,295.57Zm-11.44,1,.29-1.17c.26-1.07.54-2.09.82-3.13l2.52-8.9h3.12a12.56,12.56,0,0,1,2.17.11,2.65,2.65,0,0,1,.79.26,1.77,1.77,0,0,1,.59.51,2.87,2.87,0,0,1,.41.87,6.43,6.43,0,0,1,.11,2.55,14.37,14.37,0,0,1-.31,1.67,13.61,13.61,0,0,1-.6,1.88,9.35,9.35,0,0,1-3.07,4.1,6.26,6.26,0,0,1-1.21.7,9.19,9.19,0,0,1-3.8.53Z"/>
    <path class="cls-1" d="M245.71,288.31l-2.24,8.28c-.26,1-.6,2.12-1.09,3.5h3.56c.27-1.29.51-2.39.72-3.25.12-.49.25-.92.33-1.26l3.18-11.6.19-.71.26-.93c.19-.7.43-1.55.73-2.56h-5.61c-.49,1.07-.94,1.93-1.28,2.61l-7.1,13.38.79-14c0-.09,0-.31,0-.64s.06-.8.11-1.38h-5.86c-2.55,8.93-4.73,15.71-6.45,20.31h3.51q.5-1.79.89-3.15t.67-2.28l3.68-11.57-.8,14.82c0,.64-.11,1.38-.2,2.18h4.51c.39-.86.79-1.66,1.22-2.45l7.35-14.08c-.25,1.14-.5,2.15-.73,3.07Z"/>
    <path class="cls-1" d="M215,320.94a5,5,0,0,0,0-2.64,7.32,7.32,0,0,0-1.34-2.48l-3.11-4.08a1.53,1.53,0,0,1-.21-1.31,2.4,2.4,0,0,1,1.09-1.49,4.21,4.21,0,0,1,2.25-.55,5.14,5.14,0,0,1,.81.07,10.28,10.28,0,0,1,2.61.88h0l.68-3.59a19.82,19.82,0,0,0-4.12-.49h0c-2.8,0-4.83,1-6,2.85a6.92,6.92,0,0,0-.87,2.08,5,5,0,0,0,.46,3.92,10.15,10.15,0,0,0,.84,1.25l2.85,3.68a2.25,2.25,0,0,1,.51,1.85c-.3,1.22-1.49,2-3.23,2a5.17,5.17,0,0,1-1-.1,10.83,10.83,0,0,1-3.61-1.54h0l-.76,3.89a8.71,8.71,0,0,0,4.76,1.09h0a8.77,8.77,0,0,0,2.64-.39,7.57,7.57,0,0,0,1.15-.47,6.9,6.9,0,0,0,1.89-1.4A6.78,6.78,0,0,0,215,320.94Z"/>
    <rect class="cls-2" width="512" height="512"/>
  </g>
</svg>
