<svg id="monochrome-midnight-blue" xmlns="http://www.w3.org/2000/svg" viewBox="0 0 512 512">
  <defs>
    <style>
      .cls-1 {
        fill: #404065;
      }
    </style>
  </defs>
  <title>mudac</title>
  <g>
    <path class="cls-1" d="M214.69,273.15c0,8.86-4,18.76-17.61,18.76-9.09,0-13.23-4.49-13.23-14.73V233.1h-18v49.13c0,21.63,14.5,26.93,27.16,26.93,10.13,0,17.38-3.91,21.29-9.09h.23v7.36h18.07V233.1h-18Z"/>
    <path class="cls-1" d="M130.23,231.38c-10,0-17.49,3.91-22.9,11.16-3.68-8.17-13-11.16-21.86-11.16-9.55,0-16,3.45-21.4,9.09V233.1H46v74.33H64V268.2c0-10.47,6.1-20.37,15.76-20.37,8.63,0,12.43,6,12.43,14.5v45.11h18V268.2c0-10.47,6-20.37,16-20.37,8.4,0,12.2,6,12.2,14.5v45.22h18V255.19C156.24,239.2,146.34,231.38,130.23,231.38Z"/>
    <path class="cls-1" d="M450.7,278.32c-2.76,6.79-7.36,14.38-18.07,14.38-12.43,0-18.18-10.82-18.18-22.44s6.44-22.44,19.22-22.44a16.39,16.39,0,0,1,15.76,11.85l15.76-7.13c-4.49-11.16-13.35-21.17-31.41-21.17-24.16,0-38.09,16.68-38.09,38.89s13.92,38.89,36.71,38.89c20.14,0,28.65-11.85,33.6-22.78Z"/>
    <path class="cls-1" d="M387.29,294.89V255.65c0-21.17-16-24.39-32-24.39-16.34,0-31.76,6.79-31.76,24.28l18,.69c0-8.05,3.34-11.16,13.81-11.16,7.82,0,14.15,2.07,14.15,9.44v2.19c-4.6,1.61-13,3.11-19.45,4.37l-7.48,1.5c-11,2.19-22.67,8.75-22.67,23.24s11.16,23.36,25.32,23.36a37.2,37.2,0,0,0,24.28-8.51,14.18,14.18,0,0,0,1.73,6.79h19c-1-1.73-2.76-4.95-2.76-12.54Zm-36.82-.46c-6.44,0-11.62-3.57-11.62-9.21,0-7,5.52-9,12.31-10.24l9.9-2.07a32.26,32.26,0,0,0,8.51-2.65v10.47C369.57,290.29,358.87,294.43,350.47,294.43Z"/>
    <path class="cls-1" d="M294.09,239.43a30.26,30.26,0,0,0-21.17-8.05c-19.1,0-32.33,17.49-32.33,38.89s13.23,38.89,32.33,38.89c10.7,0,16.45-3.68,20.83-9h.35v7.25h18V202.84h-18Zm-17.15,53.28c-13.46,0-17.49-11.74-17.61-22.44.23-10.7,4.14-22.44,17.61-22.44s17.49,11.74,17.61,22.44C294.43,281,290.41,292.71,276.94,292.71Z"/>
  </g>
</svg>
