<svg id="monochrome-midnight-blue" xmlns="http://www.w3.org/2000/svg" viewBox="0 0 512 512">
  <defs>
    <style>
      .cls-1 {
        fill: none;
      }

      .cls-2 {
        fill: #404065;
      }
    </style>
  </defs>
  <title>Retraites-Populaires</title>
  <g id="Retraites-populaires.svg">
    <rect class="cls-1" width="512" height="512"/>
    <g>
      <g>
        <path class="cls-2" d="M229,274.2c-2.47,2.41-6,3.4-9.93,3.38-5.62,0-9.43-3.18-10.11-8.34h7.73c10.65,0,14.06-1.94,14.06-8,0-6.64-6.49-11.1-12.54-11.1-9,0-15.48,7.18-15.48,17,0,9.17,6.54,15.81,15.54,15.81,6.92,0,11.21-2.31,11.21-6V274.2Zm-20.09-10.68a8.58,8.58,0,0,1,8.69-8.08c5.39,0,7.29,3.28,7.29,6.1,0,2-.8,2.77-8.94,2.89l-7.09.11C208.83,264.2,208.86,263.52,208.86,263.52Z"/>
        <path class="cls-2" d="M428.53,324.65c-2.47,2.41-6,3.42-9.93,3.39-5.63,0-9.42-3.2-10.1-8.33h7.72c10.65,0,14.06-1.94,14.06-8,0-6.64-6.49-11.09-12.54-11.09-9,0-15.48,7.15-15.48,17,0,9.16,6.53,15.81,15.54,15.81,6.92,0,11.2-2.31,11.2-6v-2.77ZM408.45,314a8.59,8.59,0,0,1,8.69-8.09c5.38,0,7.29,3.29,7.29,6.1,0,2-.8,2.77-8.94,2.9l-7.08.11C408.42,314.65,408.45,314,408.45,314Z"/>
        <path class="cls-2" d="M384.16,274.2c-2.45,2.41-6,3.4-9.93,3.38-5.62,0-9.41-3.18-10.09-8.34h7.73c10.65,0,14.07-1.95,14.07-8,0-6.64-6.5-11.1-12.55-11.1-9,0-15.48,7.17-15.48,17,0,9.17,6.54,15.8,15.55,15.8,6.91,0,11.2-2.3,11.2-6V274.2Zm-20.09-10.68a8.6,8.6,0,0,1,8.7-8.08c5.38,0,7.3,3.28,7.3,6.1,0,2-.82,2.77-9,2.89,0,0-5.81.09-7.07.1C364.06,264.2,364.07,263.52,364.07,263.52Z"/>
        <path class="cls-2" d="M405.91,264c-6.71-1.38-7.77-2.22-7.77-4.11,0-3.45,4.06-4.17,7.48-4.17a17.45,17.45,0,0,1,4,.53,10.27,10.27,0,0,1,4.8,2.82h.48v-2.74c0-4-4.91-6.14-9.76-6.14-8.54,0-13.14,5.17-13.14,10,0,5.22,3.65,7,9.15,8.11,7.61,1.57,8.36,3.11,8.42,4.87q.17,4.44-6.72,4.36a18.94,18.94,0,0,1-4.29-.55,10.6,10.6,0,0,1-5.46-3.09h-.49v2.67c0,3.72,4.26,6.43,10.1,6.43,8,0,13-3.94,13-10.27C415.73,268.25,412.41,265.31,405.91,264Zm44.27,50.46c-6.7-1.39-7.76-2.21-7.76-4.12,0-3.44,4.06-4.17,7.48-4.17a17.72,17.72,0,0,1,4,.54,10.41,10.41,0,0,1,4.81,2.81h.48v-2.73c0-4-4.91-6.15-9.76-6.15-8.53,0-13.14,5.18-13.14,10,0,5.21,3.66,7,9.15,8.12,7.62,1.55,8.37,3.11,8.43,4.86.11,3-2.11,4.41-6.73,4.35a18.45,18.45,0,0,1-4.3-.55,10.59,10.59,0,0,1-5.46-3.07h-.48V327c0,3.72,4.25,6.44,10.1,6.44,8,0,13-4,13-10.28C460,318.71,456.69,315.77,450.18,314.42ZM216,300.67c-9.47,0-15.35,6.48-15.35,16.9,0,9.19,6.45,15.88,15.35,15.88,9.16,0,14.86-6.54,14.86-17C230.81,307,224.84,300.67,216,300.67Zm.55,27.25c-6.14,0-9.78-4.29-9.78-11.45,0-6.25,3.31-10.29,8.44-10.29,6.24,0,9.53,4,9.53,11.45C224.7,324,221.55,327.92,216.51,327.92Zm-17.3-46.47a15,15,0,0,1-1.53-2.61L193.74,270c-.88-2-2.19-4.81-5.62-6.21,5.66-1.06,9-4.85,9-10.34,0-6.94-5.46-11-13.94-11.17a51.44,51.44,0,0,0-14.25,1.86v35c0,2.37,1.3,3.63,3.78,3.63H175V265.4c1.49.28,4.28.6,6.73.76s4.16.71,6.73,6.54l3.1,7.09a4.72,4.72,0,0,0,4.8,3.13,24,24,0,0,0,3.41-.27v-.49A3.3,3.3,0,0,1,199.21,281.45Zm-16.93-20.52a47.84,47.84,0,0,1-7.23-.55V248.11a39.84,39.84,0,0,1,8-.58c5,.17,8,2.27,8,6.75C191,259.18,186.51,260.94,182.28,260.94Zm.66,31.83a52.07,52.07,0,0,0-14,1.9v34.81a3.47,3.47,0,0,0,3.78,3.74H175V316.88a17.46,17.46,0,0,0,8,1.53c8.23,0,14.43-5.67,14.43-13.18S191.66,293,182.94,292.77Zm.2,20.44a18.07,18.07,0,0,1-8.09-1.45v-13a39.49,39.49,0,0,1,7.81-.71c5.54.14,8.54,2.66,8.54,7.74C191.4,310.57,188.45,313.21,183.14,313.21Zm136.42-66a3.89,3.89,0,1,0,0-7.79,4,4,0,0,0-4,3.92A4,4,0,0,0,319.56,247.24Zm-71,35.75c4,0,6.14-1.53,6.14-4.27v-1.88h0v-.37h-.48a3.25,3.25,0,0,1-.39.31,7.75,7.75,0,0,1-3.4.77,12.16,12.16,0,0,1-2.15-.11c-3-.25-4.35-2.13-4.35-6V256.26h6.62c2.86,0,4.51-1.26,4.51-3.46v-2h-11.2V244.4h-.32a5.18,5.18,0,0,0-4.21,2.31,8.57,8.57,0,0,0-1.45,5V272C237.86,279.38,241.35,283,248.54,283Zm97.75-.11c4,0,6.15-1.5,6.15-4.25v-1.88h0v-.38h-.49a1.61,1.61,0,0,1-.37.3,7.65,7.65,0,0,1-3.41.78,12.56,12.56,0,0,1-2.15-.11c-3-.26-4.36-2.15-4.36-6V256.16h6.62c2.89,0,4.52-1.26,4.52-3.46v-2H341.61v-6.42h-.34a5.24,5.24,0,0,0-4.21,2.33,8.59,8.59,0,0,0-1.44,5v20.26C335.62,279.27,339.1,282.87,346.28,282.87Zm22.12,40.3v-17.3a4.11,4.11,0,0,0-4.09-4.39h-2v22.44c0,6.32,3.36,9.53,10,9.53a3.24,3.24,0,0,0,3.49-3.41v-2h-2.62C369.89,328,368.41,326.53,368.41,323.17ZM294.28,250c-7.86,0-11.52,4.1-11.52,6.88v2.72h0v.34h.47a9.61,9.61,0,0,1,2.29-2.24,14.86,14.86,0,0,1,8.2-2.27c5.23,0,7.45,1.85,7.45,6.18v1.22H297c-10,0-15.49,3.79-15.49,10.68,0,5.41,5.47,9.5,12.75,9.5,10.73,0,13-6.06,13-11.15V262C307.24,254.24,302.64,250,294.28,250Zm7,21.46c0,4.35-1.94,6.11-6.71,6.11-3.93,0-6.79-2-6.79-4.65,0-3.41,3.13-5.13,9.28-5.13h4.22Zm39.19,29c-7.85,0-11.52,4.1-11.52,6.88V310h0v.35h.48a9.43,9.43,0,0,1,2.27-2.24,14.91,14.91,0,0,1,8.2-2.27c5.22,0,7.45,1.86,7.45,6.19v1.22h-4.15c-10,0-15.49,3.8-15.49,10.67,0,5.42,5.48,9.52,12.75,9.52,10.73,0,13-6.07,13-11.16v-9.84C353.4,304.68,348.8,300.42,340.42,300.42Zm7,21.46c0,4.34-1.94,6.11-6.72,6.11-3.93,0-6.78-2-6.78-4.65,0-3.41,3.13-5.13,9.27-5.13h4.22Zm-17.52-42.3v-2h-2.64c-3.31,0-4.78-1.5-4.78-4.87V255.43a4.1,4.1,0,0,0-4.1-4.39h-2v22.44c0,6.31,3.36,9.51,10,9.51A3.22,3.22,0,0,0,329.85,279.58Zm35.69,18.1a3.9,3.9,0,1,0,0-7.8,4,4,0,0,0-4,3.93A4,4,0,0,0,365.54,297.68ZM315.1,323.29v-28.2c0-2.66-1.59-4.32-4.15-4.32h-2v33.15c0,6.32,3.4,9.53,10.11,9.53,3.17,0,4.7-1.13,4.7-3.41v-2h-3.86C316.55,328,315.1,326.62,315.1,323.29Zm-63-22.69c-10.21,0-15.84,6.13-15.84,17.25v20.62c0,2.88,1.26,4.28,3.86,4.28h2.25V328.48a11.18,11.18,0,0,0,9.11,5c8.9,0,14.88-6.91,14.88-17.16C266.38,306.6,259,300.6,252.12,300.6Zm0,27.37c-6.34,0-9.83-4.1-9.83-11.56,0-6.45,3.21-10.29,8.61-10.29,6.12,0,9.37,4,9.37,11.62C260.26,324.25,257.3,328,252.12,328Zm26.08-69.61h.48v-3c0-1.28-.62-4.22-6.36-4.22-6.76,0-11,5.16-11,13.47v14.32c0,2.29,1.36,3.81,3.43,3.81h2.63V265c0-6.29,1.45-8.42,5.71-8.42A7.37,7.37,0,0,1,278.2,258.36Zm120.29,50.45H399v-3c0-1.27-.62-4.23-6.33-4.23-6.76,0-11,5.17-11,13.47v14.34c0,2.26,1.17,3.8,3.23,3.8h2.63l.21-17.73c0-6.29,1.43-8.42,5.7-8.42A7.38,7.38,0,0,1,398.49,308.81ZM296.4,301.17h-1.76v17.5c0,6.38-2.31,9.24-7.48,9.24-4.9,0-7.83-3.54-7.83-9.46V305.59c0-2.85-1.45-4.41-4.11-4.41h-1.94v17.57c0,9.06,5.18,14.71,13.52,14.71,9,0,13.89-5.07,13.89-14.24V305.59C300.69,302.67,299.25,301.17,296.4,301.17Z"/>
      </g>
      <path class="cls-2" d="M226.89,169.36a178.13,178.13,0,0,0-37,6.07c-7,2-24.24,6.29-51,20.72-17.08,9.23-37.68,23.43-54.73,42.76S56.14,280.84,52,302c17,1.26,41.48-6.77,68.88-25.57a146.84,146.84,0,0,0,17.47-14.41s15.68-15.56,27.24-30.53c6.44-8.36,15.5-19.5,24.17-29.36l1.74-2C192.37,199.12,210.46,177.42,226.89,169.36Zm8.71-.12c-5.8,2.71-21.12,11.13-37.68,30.75,8.66-.7,26.15-2.73,39.22-7.84a120.59,120.59,0,0,0,31.07-17.69A97.38,97.38,0,0,0,235.6,169.24Z"/>
    </g>
  </g>
</svg>
