<?xml version="1.0" encoding="UTF-8" standalone="no"?>
<svg width="60px" height="60px" viewBox="0 0 60 60" version="1.1" xmlns="http://www.w3.org/2000/svg" xmlns:xlink="http://www.w3.org/1999/xlink" xmlns:sketch="http://www.bohemiancoding.com/sketch/ns">
    <g id="Page-1" stroke="none" stroke-width="1" fill="none" fill-rule="evenodd" sketch:type="MSPage">
        <g id="56---Web-App-(Webby)" sketch:type="MSLayerGroup" transform="translate(1.000000, 1.000000)">
            <path d="M0,0 L58,0 L58,58 L0,58 L0,0 Z" id="Fill-211" fill="#FFFFFF" sketch:type="MSShapeGroup"></path>
            <path d="M0,0 L58,0 L58,58 L0,58 L0,0 Z" id="Stroke-212" stroke="#404065" stroke-width="2" sketch:type="MSShapeGroup"></path>
            <path d="M0,0 L58,0 L58,12 L0,12 L0,0 Z" id="Fill-217" fill="#eaf0f0" sketch:type="MSShapeGroup"></path>
            <path d="M0,0 L58,0 L58,12 L0,12 L0,0 Z" id="Stroke-218" stroke="#404065" stroke-width="2" sketch:type="MSShapeGroup"></path>
            <path d="M0,12 L12,12 L12,58 L0,58 L0,12 Z" id="Fill-236" fill="#eaf0f0" sketch:type="MSShapeGroup"></path>
            <path d="M0,12 L12,12 L12,58 L0,58 L0,12 Z" id="Stroke-237" stroke="#404065" stroke-width="2" stroke-linecap="round" sketch:type="MSShapeGroup"></path>
            <path d="M4,18 L8,18 M4,23 L8,23 M4,28 L8,28 M4,33 L8,33 M4,38 L8,38 M4,43 L8,43 M4,48 L8,48 M4,53 L8,53" id="Stroke-238" stroke="#404065" stroke-width="2" stroke-linecap="round" sketch:type="MSShapeGroup"></path>
            <path d="M18,18 L32,18 L32,32 L18,32 L18,18 Z" id="Fill-242" fill="#FFFFFF" sketch:type="MSShapeGroup"></path>
            <path d="M18,18 L32,18 L32,32 L18,32 L18,18 Z" id="Stroke-243" stroke="#404065" stroke-width="2" stroke-linecap="round" sketch:type="MSShapeGroup"></path>
            <path d="M38,18 L52,18 L52,32 L38,32 L38,18 Z" id="Fill-244" fill="#FFFFFF" sketch:type="MSShapeGroup"></path>
            <path d="M38,18 L52,18 L52,32 L38,32 L38,18 Z" id="Stroke-245" stroke="#404065" stroke-width="2" stroke-linecap="round" sketch:type="MSShapeGroup"></path>
            <path d="M18,38 L32,38 L32,52 L18,52 L18,38 Z" id="Fill-246" fill="#FFFFFF" sketch:type="MSShapeGroup"></path>
            <path d="M18,38 L32,38 L32,52 L18,52 L18,38 Z" id="Stroke-247" stroke="#404065" stroke-width="2" stroke-linecap="round" sketch:type="MSShapeGroup"></path>
            <path d="M38,38 L52,38 L52,52 L38,52 L38,38 Z" id="Fill-248" fill="#FFFFFF" sketch:type="MSShapeGroup"></path>
            <path d="M38,38 L52,38 L52,52 L38,52 L38,38 Z" id="Stroke-249" stroke="#404065" stroke-width="2" stroke-linecap="round" sketch:type="MSShapeGroup"></path>
            <path d="M31,20 C30.448,20 30,19.552 30,19 C30,18.448 30.448,18 31,18 C31.552,18 32,18.448 32,19 C32,19.552 31.552,20 31,20" id="Fill-634" fill="#404065" sketch:type="MSShapeGroup"></path>
            <path d="M31,26 C30.448,26 30,25.552 30,25 C30,24.448 30.448,24 31,24 C31.552,24 32,24.448 32,25 C32,25.552 31.552,26 31,26" id="Fill-635" fill="#404065" sketch:type="MSShapeGroup"></path>
            <path d="M31,32 C30.448,32 30,31.552 30,31 C30,30.448 30.448,30 31,30 C31.552,30 32,30.448 32,31 C32,31.552 31.552,32 31,32" id="Fill-636" fill="#404065" sketch:type="MSShapeGroup"></path>
            <path d="M28,23 C27.448,23 27,22.552 27,22 C27,21.448 27.448,21 28,21 C28.552,21 29,21.448 29,22 C29,22.552 28.552,23 28,23" id="Fill-637" fill="#404065" sketch:type="MSShapeGroup"></path>
            <path d="M25,20 C24.448,20 24,19.552 24,19 C24,18.448 24.448,18 25,18 C25.552,18 26,18.448 26,19 C26,19.552 25.552,20 25,20" id="Fill-638" fill="#404065" sketch:type="MSShapeGroup"></path>
            <path d="M25,26 C24.448,26 24,25.552 24,25 C24,24.448 24.448,24 25,24 C25.552,24 26,24.448 26,25 C26,25.552 25.552,26 25,26" id="Fill-639" fill="#404065" sketch:type="MSShapeGroup"></path>
            <path d="M28,29 C27.448,29 27,28.552 27,28 C27,27.448 27.448,27 28,27 C28.552,27 29,27.448 29,28 C29,28.552 28.552,29 28,29" id="Fill-640" fill="#404065" sketch:type="MSShapeGroup"></path>
            <path d="M25,32 C24.448,32 24,31.552 24,31 C24,30.448 24.448,30 25,30 C25.552,30 26,30.448 26,31 C26,31.552 25.552,32 25,32" id="Fill-641" fill="#404065" sketch:type="MSShapeGroup"></path>
            <path d="M22,23 C21.448,23 21,22.552 21,22 C21,21.448 21.448,21 22,21 C22.552,21 23,21.448 23,22 C23,22.552 22.552,23 22,23" id="Fill-642" fill="#404065" sketch:type="MSShapeGroup"></path>
            <path d="M19,20 C18.448,20 18,19.552 18,19 C18,18.448 18.448,18 19,18 C19.552,18 20,18.448 20,19 C20,19.552 19.552,20 19,20" id="Fill-643" fill="#404065" sketch:type="MSShapeGroup"></path>
            <path d="M19,26 C18.448,26 18,25.552 18,25 C18,24.448 18.448,24 19,24 C19.552,24 20,24.448 20,25 C20,25.552 19.552,26 19,26" id="Fill-644" fill="#404065" sketch:type="MSShapeGroup"></path>
            <path d="M22,29 C21.448,29 21,28.552 21,28 C21,27.448 21.448,27 22,27 C22.552,27 23,27.448 23,28 C23,28.552 22.552,29 22,29" id="Fill-645" fill="#404065" sketch:type="MSShapeGroup"></path>
            <path d="M19,32 C18.448,32 18,31.552 18,31 C18,30.448 18.448,30 19,30 C19.552,30 20,30.448 20,31 C20,31.552 19.552,32 19,32" id="Fill-646" fill="#404065" sketch:type="MSShapeGroup"></path>
            <path d="M9,6 C9,7.657 7.657,9 6,9 C4.343,9 3,7.657 3,6 C3,4.343 4.343,3 6,3 C7.657,3 9,4.343 9,6 L9,6 Z" id="Fill-1706" fill="#FFFFFF" sketch:type="MSShapeGroup"></path>
            <path d="M9,6 C9,7.657 7.657,9 6,9 C4.343,9 3,7.657 3,6 C3,4.343 4.343,3 6,3 C7.657,3 9,4.343 9,6 L9,6 Z" id="Stroke-1707" stroke="#404065" stroke-width="2" sketch:type="MSShapeGroup"></path>
            <path d="M18,6 C18,7.657 16.657,9 15,9 C13.343,9 12,7.657 12,6 C12,4.343 13.343,3 15,3 C16.657,3 18,4.343 18,6 L18,6 Z" id="Fill-1708" fill="#FFFFFF" sketch:type="MSShapeGroup"></path>
            <path d="M18,6 C18,7.657 16.657,9 15,9 C13.343,9 12,7.657 12,6 C12,4.343 13.343,3 15,3 C16.657,3 18,4.343 18,6 L18,6 Z" id="Stroke-1709" stroke="#404065" stroke-width="2" sketch:type="MSShapeGroup"></path>
            <path d="M27,6 C27,7.657 25.657,9 24,9 C22.343,9 21,7.657 21,6 C21,4.343 22.343,3 24,3 C25.657,3 27,4.343 27,6 L27,6 Z" id="Fill-1710" fill="#FFFFFF" sketch:type="MSShapeGroup"></path>
            <path d="M27,6 C27,7.657 25.657,9 24,9 C22.343,9 21,7.657 21,6 C21,4.343 22.343,3 24,3 C25.657,3 27,4.343 27,6 L27,6 Z" id="Stroke-1711" stroke="#404065" stroke-width="2" sketch:type="MSShapeGroup"></path>
        </g>
    </g>
</svg>