<svg id="monochrome-midnight-blue" xmlns="http://www.w3.org/2000/svg" viewBox="0 0 512 512">
  <defs>
    <style>
      .cls-1 {
        fill: #404065;
      }

      .cls-2 {
        fill: none;
      }
    </style>
  </defs>
  <title>Zenith</title>
  <g id="Zenith.svg">
    <g>
      <polygon class="cls-1" points="102.28 246.84 102.28 238.81 44.27 238.81 44.27 247.42 85.26 247.42 41 282.18 41 290.41 103.01 290.41 103.01 281.81 57.83 281.81 102.28 246.84"/>
      <polygon class="cls-1" points="138.44 268.08 177.47 268.08 177.47 259.48 138.44 259.48 138.44 247.42 178.75 247.42 178.75 238.81 126.55 238.81 126.55 290.41 179.66 290.41 179.66 281.81 138.44 281.81 138.44 268.08"/>
      <polygon class="cls-1" points="255.53 276.76 215.18 238.81 202.42 238.81 202.42 290.41 214.32 290.41 214.32 252.46 254.66 290.41 267.43 290.41 267.43 238.81 255.53 238.81 255.53 276.76"/>
      <rect class="cls-1" x="295.53" y="238.81" width="11.9" height="51.6"/>
      <polygon class="cls-1" points="327.23 247.42 351.78 247.42 351.78 290.41 363.68 290.41 363.68 247.42 388.23 247.42 388.23 238.81 327.23 238.81 327.23 247.42"/>
      <polygon class="cls-1" points="459.1 238.81 459.1 259.47 419.42 259.47 419.42 238.81 407.52 238.81 407.52 290.41 419.42 290.41 419.42 268.08 459.1 268.08 459.1 290.41 471 290.41 471 238.81 459.1 238.81"/>
      <polygon class="cls-1" points="102.28 246.84 102.28 238.81 44.27 238.81 44.27 247.42 85.26 247.42 41 282.18 41 290.41 103.01 290.41 103.01 281.81 57.83 281.81 102.28 246.84"/>
      <polygon class="cls-1" points="138.44 268.08 177.47 268.08 177.47 259.48 138.44 259.48 138.44 247.42 178.75 247.42 178.75 238.81 126.55 238.81 126.55 290.41 179.66 290.41 179.66 281.81 138.44 281.81 138.44 268.08"/>
      <polygon class="cls-1" points="255.53 276.76 215.18 238.81 202.42 238.81 202.42 290.41 214.32 290.41 214.32 252.46 254.66 290.41 267.43 290.41 267.43 238.81 255.53 238.81 255.53 276.76"/>
      <rect class="cls-1" x="295.53" y="238.81" width="11.9" height="51.6"/>
      <polygon class="cls-1" points="327.23 247.42 351.78 247.42 351.78 290.41 363.68 290.41 363.68 247.42 388.23 247.42 388.23 238.81 327.23 238.81 327.23 247.42"/>
      <polygon class="cls-1" points="459.1 238.81 459.1 259.47 419.42 259.47 419.42 238.81 407.52 238.81 407.52 290.41 419.42 290.41 419.42 268.08 459.1 268.08 459.1 290.41 471 290.41 471 238.81 459.1 238.81"/>
    </g>
    <path class="cls-1" d="M298.58,162.89H267l-9.76-30a1.29,1.29,0,0,0-2.45,0l-9.76,30h-31.6a1.29,1.29,0,0,0-.76,2.33l25.56,18.57-9.76,30a1.29,1.29,0,0,0,2,1.44L256,196.71l25.56,18.57a1.29,1.29,0,0,0,2-1.44l-9.76-30,25.56-18.57A1.29,1.29,0,0,0,298.58,162.89Zm-32.53,18.39,6.22,19.13L256,188.59l-16.27,11.82,6.22-19.13-16.27-11.82h20.12L256,150.33l6.22,19.13h20.12Z"/>
    <g>
      <path class="cls-1" d="M91.58,325.91h-2l-3.14-9.65-3.12,9.65h-2l-4-13.77H79.7L82.38,322l3.1-9.84h1.88l3.1,9.84,2.68-9.84H95.6Z"/>
      <path class="cls-1" d="M106.83,325.91l-1.06-2.77H99.69l-1.06,2.77H96.14l5.65-13.77h1.88l5.65,13.77Zm-4-10.65-2.4,6.11h4.74Z"/>
      <path class="cls-1" d="M115.86,314v11.89h-2.34V314h-4.24v-1.88H120.1V314Z"/>
      <path class="cls-1" d="M127.74,326a5.94,5.94,0,0,1-4-1.47c-1.51-1.35-1.49-2.88-1.49-5.53s0-4.18,1.49-5.53a6,6,0,0,1,4-1.47c2.83,0,5,1.49,5.5,4.23h-2.38a3,3,0,0,0-3.12-2.36,3.27,3.27,0,0,0-2.27.83c-.76.74-.93,1.53-.93,4.29s.17,3.56.93,4.29a3.27,3.27,0,0,0,2.27.83,3,3,0,0,0,3.14-2.36h2.36C132.71,324.54,130.53,326,127.74,326Z"/>
      <path class="cls-1" d="M145.37,325.91v-6h-6.25v6h-2.34V312.14h2.34V318h6.25v-5.88h2.34v13.77Z"/>
      <path class="cls-1" d="M169.05,325.91v-9.2l-3.55,6.71h-1.73l-3.64-6.71v9.2H157.8V312.14h2.34l4.5,8.57,4.41-8.57h2.34v13.77Z"/>
      <path class="cls-1" d="M184.68,325.91l-1.06-2.77h-6.08l-1.06,2.77H174l5.65-13.77h1.88l5.65,13.77Zm-4-10.65-2.4,6.11H183Z"/>
      <path class="cls-1" d="M199.24,325.91l-7.12-9.69v9.69h-2.34V312.14h2.14l7.12,9.67v-9.67h2.34v13.77Z"/>
      <path class="cls-1" d="M211.12,326c-3.14,0-5.52-1.92-5.52-4.76v-9.13h2.34v9a3.2,3.2,0,0,0,6.38,0v-9h2.34v9.13C216.66,324.11,214.26,326,211.12,326Z"/>
      <path class="cls-1" d="M223.22,314v4.2h6.41v1.87h-6.41v5.82h-2.34V312.14h9.85V314Z"/>
      <path class="cls-1" d="M241.53,325.91l-1.06-2.77h-6.08l-1.06,2.77h-2.49l5.65-13.77h1.88L244,325.91Zm-4-10.65-2.4,6.11h4.74Z"/>
      <path class="cls-1" d="M251.4,326a5.94,5.94,0,0,1-4-1.47c-1.51-1.35-1.49-2.88-1.49-5.53s0-4.18,1.49-5.53a6,6,0,0,1,4-1.47c2.83,0,5,1.49,5.5,4.23h-2.38a3,3,0,0,0-3.12-2.36,3.27,3.27,0,0,0-2.27.83c-.76.74-.93,1.53-.93,4.29s.17,3.56.93,4.29a3.27,3.27,0,0,0,2.27.83,3,3,0,0,0,3.14-2.36h2.36C256.38,324.54,254.19,326,251.4,326Z"/>
      <path class="cls-1" d="M265.23,314v11.89h-2.34V314h-4.24v-1.88h10.82V314Z"/>
      <path class="cls-1" d="M277.84,326c-3.14,0-5.52-1.92-5.52-4.76v-9.13h2.34v9a3.2,3.2,0,0,0,6.39,0v-9h2.34v9.13C283.38,324.11,281,326,277.84,326Z"/>
      <path class="cls-1" d="M296.11,325.91l-3.25-5.8h-2.92v5.8h-2.34V312.14h6c2.92,0,4.78,1.68,4.78,4a3.71,3.71,0,0,1-3.07,3.65l3.55,6.09ZM293.41,314h-3.46v4.31h3.46c1.56,0,2.62-.79,2.62-2.15S295,314,293.41,314Z"/>
      <path class="cls-1" d="M302.21,325.91V312.14h9.85V314h-7.51v4H311v1.86h-6.41V324h7.51v1.87Z"/>
      <path class="cls-1" d="M325.41,326a7.46,7.46,0,0,1-5.45-1.82l1.56-1.37a5.44,5.44,0,0,0,3.94,1.32c2,0,3.18-.77,3.18-2.11a1.75,1.75,0,0,0-.6-1.43,2.87,2.87,0,0,0-1.69-.58l-1.82-.23a5.6,5.6,0,0,1-2.92-1.1,3.24,3.24,0,0,1-1.13-2.63c0-2.4,1.95-4,5.15-4a6.87,6.87,0,0,1,4.78,1.57l-1.49,1.32a4.86,4.86,0,0,0-3.35-1.06c-1.82,0-2.81.93-2.81,2.15a1.55,1.55,0,0,0,.58,1.27,3.67,3.67,0,0,0,1.73.64l1.75.23a5.44,5.44,0,0,1,2.88,1A3.42,3.42,0,0,1,331,322C331,324.52,328.64,326,325.41,326Z"/>
      <path class="cls-1" d="M334.53,325.91V312.14h2.34v13.77Z"/>
      <path class="cls-1" d="M350.78,325.91l-7.12-9.69v9.69h-2.34V312.14h2.14l7.12,9.67v-9.67h2.34v13.77Z"/>
      <path class="cls-1" d="M362.36,326a6,6,0,0,1-4-1.47c-1.51-1.35-1.49-2.88-1.49-5.53s0-4.18,1.49-5.53a6,6,0,0,1,4-1.47c2.84,0,5,1.49,5.5,4.23h-2.38a3,3,0,0,0-3.12-2.36,3.27,3.27,0,0,0-2.27.83c-.76.74-.93,1.53-.93,4.29s.17,3.56.93,4.29a3.27,3.27,0,0,0,2.27.83,3,3,0,0,0,3.14-2.36h2.36C367.33,324.54,365.15,326,362.36,326Z"/>
      <path class="cls-1" d="M371.4,325.91V312.14h9.85V314h-7.51v4h6.41v1.86h-6.41V324h7.51v1.87Z"/>
      <path class="cls-1" d="M394,325.91V314.29l-3,2.36v-2.18l3-2.32h2.21v13.77Z"/>
      <path class="cls-1" d="M406.23,326c-2.64,0-4.74-1.51-4.74-4a3.61,3.61,0,0,1,2.12-3.23,3.31,3.31,0,0,1-1.86-3c0-2.3,2-3.81,4.48-3.81s4.5,1.51,4.5,3.81a3.31,3.31,0,0,1-1.86,3A3.61,3.61,0,0,1,411,322C411,324.52,408.87,326,406.23,326Zm0-6.34a2.3,2.3,0,1,0,2.53,2.3A2.4,2.4,0,0,0,406.23,319.69Zm0-5.9A2.12,2.12,0,0,0,404,315.9a2.29,2.29,0,0,0,4.57,0A2.14,2.14,0,0,0,406.23,313.79Z"/>
      <path class="cls-1" d="M418.21,326c-2.66,0-4.57-1.57-4.57-4.12a7.06,7.06,0,0,1,1.15-3.38l3.51-6.38h2.36l-3.31,5.92a4,4,0,0,1,1.36-.21,3.89,3.89,0,0,1,4,4C422.76,324.36,420.88,326,418.21,326Zm0-6.54a2.2,2.2,0,0,0-2.34,2.38,2.35,2.35,0,1,0,2.34-2.38Z"/>
      <path class="cls-1" d="M433.47,325a4.73,4.73,0,0,1-3.25,1.08,5,5,0,0,1-3.29-1.06,3.71,3.71,0,0,1-1.17-2.63H428a2,2,0,0,0,2.25,1.91,2.38,2.38,0,0,0,1.6-.54,3.08,3.08,0,0,0,.74-2.42c0-1.64-.48-2.88-2.25-2.88a2.09,2.09,0,0,0-2.19,1.24h-2v-7.52h8.31v1.76h-6.32v3.64a3.78,3.78,0,0,1,2.55-.79,4.05,4.05,0,0,1,2.77.89,4.52,4.52,0,0,1,1.34,3.67A4.35,4.35,0,0,1,433.47,325Z"/>
    </g>
    <rect class="cls-2" width="512" height="512"/>
  </g>
</svg>
