<?xml version="1.0" encoding="utf-8"?>
<!-- Generator: Adobe Illustrator 18.1.0, SVG Export Plug-In . SVG Version: 6.00 Build 0)  -->
<svg version="1.1" id="Calque_1" xmlns="http://www.w3.org/2000/svg" xmlns:xlink="http://www.w3.org/1999/xlink" x="0px" y="0px"
	 viewBox="0 0 1280 125" style="enable-background:new 0 0 1280 125;" xml:space="preserve">
<style type="text/css">
	.st0{fill:#E72A78;}
</style>
<g>
	<g>
		<path class="st0" d="M135.7,84.3c1.7,16.1,9.9,23,21.1,23c8.5,0,14.5-3.8,18.9-11.6l17.5,9.9c-8,12.6-21.1,19.4-37.6,19.4
			c-28.7,0-44-20.1-44-45.9c0-26.1,15.4-46.4,42.6-46.4c26.3,0,40.5,19.4,40.5,46.6c0,2.9-0.2,4.3-0.2,5H135.7z M135.7,70.8h35.1
			c0-10.9-5.2-20.8-17.1-20.8C143,50,137.1,57.8,135.7,70.8z"/>
		<path class="st0" d="M229.9,84.3c1.7,16.1,9.9,23,21.1,23c8.5,0,14.5-3.8,18.9-11.6l17.5,9.9c-8,12.6-21.1,19.4-37.6,19.4
			c-28.7,0-44-20.1-44-45.9c0-26.1,15.4-46.4,42.6-46.4c26.3,0,40.5,19.4,40.5,46.6c0,2.9-0.2,4.3-0.2,5H229.9z M229.9,70.8H265
			c0-10.9-5.2-20.8-17.1-20.8C237.2,50,231.3,57.8,229.9,70.8z"/>
		<path class="st0" d="M308.1,50.6h-14.2V35.3h2.8c15.9,0,17.5-10.6,20.1-24.9h14.7v24.9h18.4v15.2h-18.4v45.5
			c0,6.9,1.9,10.7,9.2,10.7c2.3,0,5.2-0.3,8.3-1.7l1.7,16.6c-5.7,2.4-11.6,3.3-17.7,3.3c-19.7,0-24.9-10.9-24.9-25.8V50.6z"/>
		<path class="st0" d="M66.5,0C56.1,25.6,41.7,62,36.7,77C31.5,62,17.1,25.3,6.9,0H0v35.5C5.9,53,22.7,91.9,35.1,122.4h2.3
			c12.1-30.1,28.6-67.9,35-86.9c-0.9,18.4-0.9,57.3-0.9,86.7h23.7V0H66.5z"/>
	</g>
	<g>
		<path class="st0" d="M649.7,50.6h-14.2V35.3h2.8c15.9,0,17.5-10.6,20.1-24.9h14.7v24.9h18.4v15.2h-18.4v45.5
			c0,6.9,1.9,10.7,9.2,10.7c2.3,0,5.2-0.3,8.3-1.7l1.7,16.6c-5.7,2.4-11.6,3.3-17.7,3.3c-19.7,0-24.9-10.9-24.9-25.8V50.6z"/>
		<path class="st0" d="M704.4,0h23.5v48.8c4.2-8.7,13.2-16.1,27.2-16.1c19,0,27.9,13,27.9,35.7v53.8h-23.5V72.4
			c0-12.1-4.7-19-14.4-19c-10,0-17.1,8.3-17.1,24.9v44h-23.5V0z"/>
		<path class="st0" d="M821.6,84.3c1.7,16.1,9.9,23,21.1,23c8.5,0,14.5-3.8,18.9-11.6l17.5,9.9c-8,12.6-21.1,19.4-37.6,19.4
			c-28.7,0-44-20.1-44-45.9c0-26.1,15.4-46.4,42.6-46.4c26.3,0,40.5,19.4,40.5,46.6c0,2.9-0.2,4.3-0.2,5H821.6z M821.6,70.8h35.1
			c0-10.9-5.2-20.8-17.1-20.8C828.9,50,823,57.8,821.6,70.8z"/>
		<path class="st0" d="M941.6,50.6h-14.2V35.3h2.8c15.9,0,17.5-10.6,20.1-24.9h14.7v24.9h18.4v15.2h-18.4v45.5
			c0,6.9,1.9,10.7,9.2,10.7c2.3,0,5.2-0.3,8.3-1.7l1.7,16.6c-5.7,2.4-11.6,3.3-17.7,3.3c-19.7,0-24.9-10.9-24.9-25.8V50.6z"/>
		<path class="st0" d="M1015,84.3c1.7,16.1,9.9,23,21.1,23c8.5,0,14.5-3.8,18.9-11.6l17.5,9.9c-8,12.6-21.1,19.4-37.6,19.4
			c-28.7,0-44-20.1-44-45.9c0-26.1,15.4-46.4,42.6-46.4c26.3,0,40.5,19.4,40.5,46.6c0,2.9-0.2,4.3-0.2,5H1015z M1015,70.8h35.1
			c0-10.9-5.2-20.8-17.1-20.8C1022.2,50,1016.3,57.8,1015,70.8z"/>
		<path class="st0" d="M1140.8,122.2c-1.4-3.1-2.3-8.1-2.6-12.3c-3.6,8.5-12.1,15.1-25.5,15.1c-17.8,0-28.2-11.6-28.2-27.7
			c0-17.8,13.3-24.9,33.1-27.9l19.2-2.9v-3.3c0-10.2-5.5-12.5-13.3-12.5c-11.6,0-19.4,5-25.3,11.1L1087,46.2
			c7.1-6.9,20.4-13.5,39.5-13.5c24.2,0,34.1,10.4,34.1,32.2v32.5c0,13.2,0.3,17.7,3.3,24.8H1140.8z M1136.8,81.4l-15.1,2.8
			c-10.4,1.9-14.7,5.5-14.7,12.3c0,6.6,4.3,11.8,11.8,11.8c9.9,0,18-8.1,18-21.1V81.4z"/>
		<path class="st0" d="M1280,32.7c-16.1,0-23.4,8.3-27.4,17.1c-2.9-9.2-10.4-17.1-24.4-17.1c-12.3,0-20.8,6.4-25.5,16.6l-1.9-14
			h-20.9v86.9h23.5V79.1c0-19.9,7.8-25.8,15.4-25.8c8.8,0,13,6.6,13,20.4v48.5h23.5V77.4c0-18.5,7.6-24.1,15.2-24.1
			c4.1,0,7.2,1.3,9.3,4V32.7z"/>
	</g>
</g>
</svg>
